<?xml version="1.0" encoding="utf-8" standalone="no"?>
<!DOCTYPE svg PUBLIC "-//W3C//DTD SVG 1.1//EN"
  "http://www.w3.org/Graphics/SVG/1.1/DTD/svg11.dtd">
<!-- Created with matplotlib (http://matplotlib.org/) -->
<svg height="360pt" version="1.1" viewBox="0 0 504 360" width="504pt" xmlns="http://www.w3.org/2000/svg" xmlns:xlink="http://www.w3.org/1999/xlink">
 <defs>
  <style type="text/css">
*{stroke-linecap:butt;stroke-linejoin:round;}
  </style>
 </defs>
 <g id="figure_1">
  <g id="patch_1">
   <path d="M 0 360 
L 504 360 
L 504 0 
L 0 0 
z
" style="fill:#ffffff;"/>
  </g>
  <g id="axes_1">
   <g id="patch_2">
    <path d="M 63 320.4 
L 453.6 320.4 
L 453.6 43.2 
L 63 43.2 
z
" style="fill:#ffffff;"/>
   </g>
   <g id="matplotlib.axis_1">
    <g id="xtick_1">
     <g id="line2d_1">
      <defs>
       <path d="M 0 0 
L 0 3.5 
" id="m3f4658dd14" style="stroke:#000000;stroke-width:0.8;"/>
      </defs>
      <g>
       <use style="stroke:#000000;stroke-width:0.8;" x="80.754545" xlink:href="#m3f4658dd14" y="320.4"/>
      </g>
     </g>
     <g id="text_1">
      <!-- 0 -->
      <defs>
       <path d="M 31.78125 66.40625 
Q 24.171875 66.40625 20.328125 58.90625 
Q 16.5 51.421875 16.5 36.375 
Q 16.5 21.390625 20.328125 13.890625 
Q 24.171875 6.390625 31.78125 6.390625 
Q 39.453125 6.390625 43.28125 13.890625 
Q 47.125 21.390625 47.125 36.375 
Q 47.125 51.421875 43.28125 58.90625 
Q 39.453125 66.40625 31.78125 66.40625 
z
M 31.78125 74.21875 
Q 44.046875 74.21875 50.515625 64.515625 
Q 56.984375 54.828125 56.984375 36.375 
Q 56.984375 17.96875 50.515625 8.265625 
Q 44.046875 -1.421875 31.78125 -1.421875 
Q 19.53125 -1.421875 13.0625 8.265625 
Q 6.59375 17.96875 6.59375 36.375 
Q 6.59375 54.828125 13.0625 64.515625 
Q 19.53125 74.21875 31.78125 74.21875 
z
" id="DejaVuSans-30"/>
      </defs>
      <g transform="translate(77.573295 334.998438)scale(0.1 -0.1)">
       <use xlink:href="#DejaVuSans-30"/>
      </g>
     </g>
    </g>
    <g id="xtick_2">
     <g id="line2d_2">
      <g>
       <use style="stroke:#000000;stroke-width:0.8;" x="151.772727" xlink:href="#m3f4658dd14" y="320.4"/>
      </g>
     </g>
     <g id="text_2">
      <!-- 200 -->
      <defs>
       <path d="M 19.1875 8.296875 
L 53.609375 8.296875 
L 53.609375 0 
L 7.328125 0 
L 7.328125 8.296875 
Q 12.9375 14.109375 22.625 23.890625 
Q 32.328125 33.6875 34.8125 36.53125 
Q 39.546875 41.84375 41.421875 45.53125 
Q 43.3125 49.21875 43.3125 52.78125 
Q 43.3125 58.59375 39.234375 62.25 
Q 35.15625 65.921875 28.609375 65.921875 
Q 23.96875 65.921875 18.8125 64.3125 
Q 13.671875 62.703125 7.8125 59.421875 
L 7.8125 69.390625 
Q 13.765625 71.78125 18.9375 73 
Q 24.125 74.21875 28.421875 74.21875 
Q 39.75 74.21875 46.484375 68.546875 
Q 53.21875 62.890625 53.21875 53.421875 
Q 53.21875 48.921875 51.53125 44.890625 
Q 49.859375 40.875 45.40625 35.40625 
Q 44.1875 33.984375 37.640625 27.21875 
Q 31.109375 20.453125 19.1875 8.296875 
z
" id="DejaVuSans-32"/>
      </defs>
      <g transform="translate(142.228977 334.998438)scale(0.1 -0.1)">
       <use xlink:href="#DejaVuSans-32"/>
       <use x="63.623047" xlink:href="#DejaVuSans-30"/>
       <use x="127.246094" xlink:href="#DejaVuSans-30"/>
      </g>
     </g>
    </g>
    <g id="xtick_3">
     <g id="line2d_3">
      <g>
       <use style="stroke:#000000;stroke-width:0.8;" x="222.790909" xlink:href="#m3f4658dd14" y="320.4"/>
      </g>
     </g>
     <g id="text_3">
      <!-- 400 -->
      <defs>
       <path d="M 37.796875 64.3125 
L 12.890625 25.390625 
L 37.796875 25.390625 
z
M 35.203125 72.90625 
L 47.609375 72.90625 
L 47.609375 25.390625 
L 58.015625 25.390625 
L 58.015625 17.1875 
L 47.609375 17.1875 
L 47.609375 0 
L 37.796875 0 
L 37.796875 17.1875 
L 4.890625 17.1875 
L 4.890625 26.703125 
z
" id="DejaVuSans-34"/>
      </defs>
      <g transform="translate(213.247159 334.998438)scale(0.1 -0.1)">
       <use xlink:href="#DejaVuSans-34"/>
       <use x="63.623047" xlink:href="#DejaVuSans-30"/>
       <use x="127.246094" xlink:href="#DejaVuSans-30"/>
      </g>
     </g>
    </g>
    <g id="xtick_4">
     <g id="line2d_4">
      <g>
       <use style="stroke:#000000;stroke-width:0.8;" x="293.809091" xlink:href="#m3f4658dd14" y="320.4"/>
      </g>
     </g>
     <g id="text_4">
      <!-- 600 -->
      <defs>
       <path d="M 33.015625 40.375 
Q 26.375 40.375 22.484375 35.828125 
Q 18.609375 31.296875 18.609375 23.390625 
Q 18.609375 15.53125 22.484375 10.953125 
Q 26.375 6.390625 33.015625 6.390625 
Q 39.65625 6.390625 43.53125 10.953125 
Q 47.40625 15.53125 47.40625 23.390625 
Q 47.40625 31.296875 43.53125 35.828125 
Q 39.65625 40.375 33.015625 40.375 
z
M 52.59375 71.296875 
L 52.59375 62.3125 
Q 48.875 64.0625 45.09375 64.984375 
Q 41.3125 65.921875 37.59375 65.921875 
Q 27.828125 65.921875 22.671875 59.328125 
Q 17.53125 52.734375 16.796875 39.40625 
Q 19.671875 43.65625 24.015625 45.921875 
Q 28.375 48.1875 33.59375 48.1875 
Q 44.578125 48.1875 50.953125 41.515625 
Q 57.328125 34.859375 57.328125 23.390625 
Q 57.328125 12.15625 50.6875 5.359375 
Q 44.046875 -1.421875 33.015625 -1.421875 
Q 20.359375 -1.421875 13.671875 8.265625 
Q 6.984375 17.96875 6.984375 36.375 
Q 6.984375 53.65625 15.1875 63.9375 
Q 23.390625 74.21875 37.203125 74.21875 
Q 40.921875 74.21875 44.703125 73.484375 
Q 48.484375 72.75 52.59375 71.296875 
z
" id="DejaVuSans-36"/>
      </defs>
      <g transform="translate(284.265341 334.998438)scale(0.1 -0.1)">
       <use xlink:href="#DejaVuSans-36"/>
       <use x="63.623047" xlink:href="#DejaVuSans-30"/>
       <use x="127.246094" xlink:href="#DejaVuSans-30"/>
      </g>
     </g>
    </g>
    <g id="xtick_5">
     <g id="line2d_5">
      <g>
       <use style="stroke:#000000;stroke-width:0.8;" x="364.827273" xlink:href="#m3f4658dd14" y="320.4"/>
      </g>
     </g>
     <g id="text_5">
      <!-- 800 -->
      <defs>
       <path d="M 31.78125 34.625 
Q 24.75 34.625 20.71875 30.859375 
Q 16.703125 27.09375 16.703125 20.515625 
Q 16.703125 13.921875 20.71875 10.15625 
Q 24.75 6.390625 31.78125 6.390625 
Q 38.8125 6.390625 42.859375 10.171875 
Q 46.921875 13.96875 46.921875 20.515625 
Q 46.921875 27.09375 42.890625 30.859375 
Q 38.875 34.625 31.78125 34.625 
z
M 21.921875 38.8125 
Q 15.578125 40.375 12.03125 44.71875 
Q 8.5 49.078125 8.5 55.328125 
Q 8.5 64.0625 14.71875 69.140625 
Q 20.953125 74.21875 31.78125 74.21875 
Q 42.671875 74.21875 48.875 69.140625 
Q 55.078125 64.0625 55.078125 55.328125 
Q 55.078125 49.078125 51.53125 44.71875 
Q 48 40.375 41.703125 38.8125 
Q 48.828125 37.15625 52.796875 32.3125 
Q 56.78125 27.484375 56.78125 20.515625 
Q 56.78125 9.90625 50.3125 4.234375 
Q 43.84375 -1.421875 31.78125 -1.421875 
Q 19.734375 -1.421875 13.25 4.234375 
Q 6.78125 9.90625 6.78125 20.515625 
Q 6.78125 27.484375 10.78125 32.3125 
Q 14.796875 37.15625 21.921875 38.8125 
z
M 18.3125 54.390625 
Q 18.3125 48.734375 21.84375 45.5625 
Q 25.390625 42.390625 31.78125 42.390625 
Q 38.140625 42.390625 41.71875 45.5625 
Q 45.3125 48.734375 45.3125 54.390625 
Q 45.3125 60.0625 41.71875 63.234375 
Q 38.140625 66.40625 31.78125 66.40625 
Q 25.390625 66.40625 21.84375 63.234375 
Q 18.3125 60.0625 18.3125 54.390625 
z
" id="DejaVuSans-38"/>
      </defs>
      <g transform="translate(355.283523 334.998438)scale(0.1 -0.1)">
       <use xlink:href="#DejaVuSans-38"/>
       <use x="63.623047" xlink:href="#DejaVuSans-30"/>
       <use x="127.246094" xlink:href="#DejaVuSans-30"/>
      </g>
     </g>
    </g>
    <g id="xtick_6">
     <g id="line2d_6">
      <g>
       <use style="stroke:#000000;stroke-width:0.8;" x="435.845455" xlink:href="#m3f4658dd14" y="320.4"/>
      </g>
     </g>
     <g id="text_6">
      <!-- 1000 -->
      <defs>
       <path d="M 12.40625 8.296875 
L 28.515625 8.296875 
L 28.515625 63.921875 
L 10.984375 60.40625 
L 10.984375 69.390625 
L 28.421875 72.90625 
L 38.28125 72.90625 
L 38.28125 8.296875 
L 54.390625 8.296875 
L 54.390625 0 
L 12.40625 0 
z
" id="DejaVuSans-31"/>
      </defs>
      <g transform="translate(423.120455 334.998438)scale(0.1 -0.1)">
       <use xlink:href="#DejaVuSans-31"/>
       <use x="63.623047" xlink:href="#DejaVuSans-30"/>
       <use x="127.246094" xlink:href="#DejaVuSans-30"/>
       <use x="190.869141" xlink:href="#DejaVuSans-30"/>
      </g>
     </g>
    </g>
    <g id="text_7">
     <!-- Number of Evaluations -->
     <defs>
      <path d="M 9.8125 72.90625 
L 23.09375 72.90625 
L 55.421875 11.921875 
L 55.421875 72.90625 
L 64.984375 72.90625 
L 64.984375 0 
L 51.703125 0 
L 19.390625 60.984375 
L 19.390625 0 
L 9.8125 0 
z
" id="DejaVuSans-4e"/>
      <path d="M 8.5 21.578125 
L 8.5 54.6875 
L 17.484375 54.6875 
L 17.484375 21.921875 
Q 17.484375 14.15625 20.5 10.265625 
Q 23.53125 6.390625 29.59375 6.390625 
Q 36.859375 6.390625 41.078125 11.03125 
Q 45.3125 15.671875 45.3125 23.6875 
L 45.3125 54.6875 
L 54.296875 54.6875 
L 54.296875 0 
L 45.3125 0 
L 45.3125 8.40625 
Q 42.046875 3.421875 37.71875 1 
Q 33.40625 -1.421875 27.6875 -1.421875 
Q 18.265625 -1.421875 13.375 4.4375 
Q 8.5 10.296875 8.5 21.578125 
z
M 31.109375 56 
z
" id="DejaVuSans-75"/>
      <path d="M 52 44.1875 
Q 55.375 50.25 60.0625 53.125 
Q 64.75 56 71.09375 56 
Q 79.640625 56 84.28125 50.015625 
Q 88.921875 44.046875 88.921875 33.015625 
L 88.921875 0 
L 79.890625 0 
L 79.890625 32.71875 
Q 79.890625 40.578125 77.09375 44.375 
Q 74.3125 48.1875 68.609375 48.1875 
Q 61.625 48.1875 57.5625 43.546875 
Q 53.515625 38.921875 53.515625 30.90625 
L 53.515625 0 
L 44.484375 0 
L 44.484375 32.71875 
Q 44.484375 40.625 41.703125 44.40625 
Q 38.921875 48.1875 33.109375 48.1875 
Q 26.21875 48.1875 22.15625 43.53125 
Q 18.109375 38.875 18.109375 30.90625 
L 18.109375 0 
L 9.078125 0 
L 9.078125 54.6875 
L 18.109375 54.6875 
L 18.109375 46.1875 
Q 21.1875 51.21875 25.484375 53.609375 
Q 29.78125 56 35.6875 56 
Q 41.65625 56 45.828125 52.96875 
Q 50 49.953125 52 44.1875 
z
" id="DejaVuSans-6d"/>
      <path d="M 48.6875 27.296875 
Q 48.6875 37.203125 44.609375 42.84375 
Q 40.53125 48.484375 33.40625 48.484375 
Q 26.265625 48.484375 22.1875 42.84375 
Q 18.109375 37.203125 18.109375 27.296875 
Q 18.109375 17.390625 22.1875 11.75 
Q 26.265625 6.109375 33.40625 6.109375 
Q 40.53125 6.109375 44.609375 11.75 
Q 48.6875 17.390625 48.6875 27.296875 
z
M 18.109375 46.390625 
Q 20.953125 51.265625 25.265625 53.625 
Q 29.59375 56 35.59375 56 
Q 45.5625 56 51.78125 48.09375 
Q 58.015625 40.1875 58.015625 27.296875 
Q 58.015625 14.40625 51.78125 6.484375 
Q 45.5625 -1.421875 35.59375 -1.421875 
Q 29.59375 -1.421875 25.265625 0.953125 
Q 20.953125 3.328125 18.109375 8.203125 
L 18.109375 0 
L 9.078125 0 
L 9.078125 75.984375 
L 18.109375 75.984375 
z
" id="DejaVuSans-62"/>
      <path d="M 56.203125 29.59375 
L 56.203125 25.203125 
L 14.890625 25.203125 
Q 15.484375 15.921875 20.484375 11.0625 
Q 25.484375 6.203125 34.421875 6.203125 
Q 39.59375 6.203125 44.453125 7.46875 
Q 49.3125 8.734375 54.109375 11.28125 
L 54.109375 2.78125 
Q 49.265625 0.734375 44.1875 -0.34375 
Q 39.109375 -1.421875 33.890625 -1.421875 
Q 20.796875 -1.421875 13.15625 6.1875 
Q 5.515625 13.8125 5.515625 26.8125 
Q 5.515625 40.234375 12.765625 48.109375 
Q 20.015625 56 32.328125 56 
Q 43.359375 56 49.78125 48.890625 
Q 56.203125 41.796875 56.203125 29.59375 
z
M 47.21875 32.234375 
Q 47.125 39.59375 43.09375 43.984375 
Q 39.0625 48.390625 32.421875 48.390625 
Q 24.90625 48.390625 20.390625 44.140625 
Q 15.875 39.890625 15.1875 32.171875 
z
" id="DejaVuSans-65"/>
      <path d="M 41.109375 46.296875 
Q 39.59375 47.171875 37.8125 47.578125 
Q 36.03125 48 33.890625 48 
Q 26.265625 48 22.1875 43.046875 
Q 18.109375 38.09375 18.109375 28.8125 
L 18.109375 0 
L 9.078125 0 
L 9.078125 54.6875 
L 18.109375 54.6875 
L 18.109375 46.1875 
Q 20.953125 51.171875 25.484375 53.578125 
Q 30.03125 56 36.53125 56 
Q 37.453125 56 38.578125 55.875 
Q 39.703125 55.765625 41.0625 55.515625 
z
" id="DejaVuSans-72"/>
      <path id="DejaVuSans-20"/>
      <path d="M 30.609375 48.390625 
Q 23.390625 48.390625 19.1875 42.75 
Q 14.984375 37.109375 14.984375 27.296875 
Q 14.984375 17.484375 19.15625 11.84375 
Q 23.34375 6.203125 30.609375 6.203125 
Q 37.796875 6.203125 41.984375 11.859375 
Q 46.1875 17.53125 46.1875 27.296875 
Q 46.1875 37.015625 41.984375 42.703125 
Q 37.796875 48.390625 30.609375 48.390625 
z
M 30.609375 56 
Q 42.328125 56 49.015625 48.375 
Q 55.71875 40.765625 55.71875 27.296875 
Q 55.71875 13.875 49.015625 6.21875 
Q 42.328125 -1.421875 30.609375 -1.421875 
Q 18.84375 -1.421875 12.171875 6.21875 
Q 5.515625 13.875 5.515625 27.296875 
Q 5.515625 40.765625 12.171875 48.375 
Q 18.84375 56 30.609375 56 
z
" id="DejaVuSans-6f"/>
      <path d="M 37.109375 75.984375 
L 37.109375 68.5 
L 28.515625 68.5 
Q 23.6875 68.5 21.796875 66.546875 
Q 19.921875 64.59375 19.921875 59.515625 
L 19.921875 54.6875 
L 34.71875 54.6875 
L 34.71875 47.703125 
L 19.921875 47.703125 
L 19.921875 0 
L 10.890625 0 
L 10.890625 47.703125 
L 2.296875 47.703125 
L 2.296875 54.6875 
L 10.890625 54.6875 
L 10.890625 58.5 
Q 10.890625 67.625 15.140625 71.796875 
Q 19.390625 75.984375 28.609375 75.984375 
z
" id="DejaVuSans-66"/>
      <path d="M 9.8125 72.90625 
L 55.90625 72.90625 
L 55.90625 64.59375 
L 19.671875 64.59375 
L 19.671875 43.015625 
L 54.390625 43.015625 
L 54.390625 34.71875 
L 19.671875 34.71875 
L 19.671875 8.296875 
L 56.78125 8.296875 
L 56.78125 0 
L 9.8125 0 
z
" id="DejaVuSans-45"/>
      <path d="M 2.984375 54.6875 
L 12.5 54.6875 
L 29.59375 8.796875 
L 46.6875 54.6875 
L 56.203125 54.6875 
L 35.6875 0 
L 23.484375 0 
z
" id="DejaVuSans-76"/>
      <path d="M 34.28125 27.484375 
Q 23.390625 27.484375 19.1875 25 
Q 14.984375 22.515625 14.984375 16.5 
Q 14.984375 11.71875 18.140625 8.90625 
Q 21.296875 6.109375 26.703125 6.109375 
Q 34.1875 6.109375 38.703125 11.40625 
Q 43.21875 16.703125 43.21875 25.484375 
L 43.21875 27.484375 
z
M 52.203125 31.203125 
L 52.203125 0 
L 43.21875 0 
L 43.21875 8.296875 
Q 40.140625 3.328125 35.546875 0.953125 
Q 30.953125 -1.421875 24.3125 -1.421875 
Q 15.921875 -1.421875 10.953125 3.296875 
Q 6 8.015625 6 15.921875 
Q 6 25.140625 12.171875 29.828125 
Q 18.359375 34.515625 30.609375 34.515625 
L 43.21875 34.515625 
L 43.21875 35.40625 
Q 43.21875 41.609375 39.140625 45 
Q 35.0625 48.390625 27.6875 48.390625 
Q 23 48.390625 18.546875 47.265625 
Q 14.109375 46.140625 10.015625 43.890625 
L 10.015625 52.203125 
Q 14.9375 54.109375 19.578125 55.046875 
Q 24.21875 56 28.609375 56 
Q 40.484375 56 46.34375 49.84375 
Q 52.203125 43.703125 52.203125 31.203125 
z
" id="DejaVuSans-61"/>
      <path d="M 9.421875 75.984375 
L 18.40625 75.984375 
L 18.40625 0 
L 9.421875 0 
z
" id="DejaVuSans-6c"/>
      <path d="M 18.3125 70.21875 
L 18.3125 54.6875 
L 36.8125 54.6875 
L 36.8125 47.703125 
L 18.3125 47.703125 
L 18.3125 18.015625 
Q 18.3125 11.328125 20.140625 9.421875 
Q 21.96875 7.515625 27.59375 7.515625 
L 36.8125 7.515625 
L 36.8125 0 
L 27.59375 0 
Q 17.1875 0 13.234375 3.875 
Q 9.28125 7.765625 9.28125 18.015625 
L 9.28125 47.703125 
L 2.6875 47.703125 
L 2.6875 54.6875 
L 9.28125 54.6875 
L 9.28125 70.21875 
z
" id="DejaVuSans-74"/>
      <path d="M 9.421875 54.6875 
L 18.40625 54.6875 
L 18.40625 0 
L 9.421875 0 
z
M 9.421875 75.984375 
L 18.40625 75.984375 
L 18.40625 64.59375 
L 9.421875 64.59375 
z
" id="DejaVuSans-69"/>
      <path d="M 54.890625 33.015625 
L 54.890625 0 
L 45.90625 0 
L 45.90625 32.71875 
Q 45.90625 40.484375 42.875 44.328125 
Q 39.84375 48.1875 33.796875 48.1875 
Q 26.515625 48.1875 22.3125 43.546875 
Q 18.109375 38.921875 18.109375 30.90625 
L 18.109375 0 
L 9.078125 0 
L 9.078125 54.6875 
L 18.109375 54.6875 
L 18.109375 46.1875 
Q 21.34375 51.125 25.703125 53.5625 
Q 30.078125 56 35.796875 56 
Q 45.21875 56 50.046875 50.171875 
Q 54.890625 44.34375 54.890625 33.015625 
z
" id="DejaVuSans-6e"/>
      <path d="M 44.28125 53.078125 
L 44.28125 44.578125 
Q 40.484375 46.53125 36.375 47.5 
Q 32.28125 48.484375 27.875 48.484375 
Q 21.1875 48.484375 17.84375 46.4375 
Q 14.5 44.390625 14.5 40.28125 
Q 14.5 37.15625 16.890625 35.375 
Q 19.28125 33.59375 26.515625 31.984375 
L 29.59375 31.296875 
Q 39.15625 29.25 43.1875 25.515625 
Q 47.21875 21.78125 47.21875 15.09375 
Q 47.21875 7.46875 41.1875 3.015625 
Q 35.15625 -1.421875 24.609375 -1.421875 
Q 20.21875 -1.421875 15.453125 -0.5625 
Q 10.6875 0.296875 5.421875 2 
L 5.421875 11.28125 
Q 10.40625 8.6875 15.234375 7.390625 
Q 20.0625 6.109375 24.8125 6.109375 
Q 31.15625 6.109375 34.5625 8.28125 
Q 37.984375 10.453125 37.984375 14.40625 
Q 37.984375 18.0625 35.515625 20.015625 
Q 33.0625 21.96875 24.703125 23.78125 
L 21.578125 24.515625 
Q 13.234375 26.265625 9.515625 29.90625 
Q 5.8125 33.546875 5.8125 39.890625 
Q 5.8125 47.609375 11.28125 51.796875 
Q 16.75 56 26.8125 56 
Q 31.78125 56 36.171875 55.265625 
Q 40.578125 54.546875 44.28125 53.078125 
z
" id="DejaVuSans-73"/>
     </defs>
     <g transform="translate(201.229688 348.676562)scale(0.1 -0.1)">
      <use xlink:href="#DejaVuSans-4e"/>
      <use x="74.804688" xlink:href="#DejaVuSans-75"/>
      <use x="138.183594" xlink:href="#DejaVuSans-6d"/>
      <use x="235.595703" xlink:href="#DejaVuSans-62"/>
      <use x="299.072266" xlink:href="#DejaVuSans-65"/>
      <use x="360.595703" xlink:href="#DejaVuSans-72"/>
      <use x="401.708984" xlink:href="#DejaVuSans-20"/>
      <use x="433.496094" xlink:href="#DejaVuSans-6f"/>
      <use x="494.677734" xlink:href="#DejaVuSans-66"/>
      <use x="529.882812" xlink:href="#DejaVuSans-20"/>
      <use x="561.669922" xlink:href="#DejaVuSans-45"/>
      <use x="624.853516" xlink:href="#DejaVuSans-76"/>
      <use x="684.033203" xlink:href="#DejaVuSans-61"/>
      <use x="745.3125" xlink:href="#DejaVuSans-6c"/>
      <use x="773.095703" xlink:href="#DejaVuSans-75"/>
      <use x="836.474609" xlink:href="#DejaVuSans-61"/>
      <use x="897.753906" xlink:href="#DejaVuSans-74"/>
      <use x="936.962891" xlink:href="#DejaVuSans-69"/>
      <use x="964.746094" xlink:href="#DejaVuSans-6f"/>
      <use x="1025.927734" xlink:href="#DejaVuSans-6e"/>
      <use x="1089.306641" xlink:href="#DejaVuSans-73"/>
     </g>
    </g>
   </g>
   <g id="matplotlib.axis_2">
    <g id="ytick_1">
     <g id="line2d_7">
      <defs>
       <path d="M 0 0 
L -3.5 0 
" id="m9268a0a194" style="stroke:#000000;stroke-width:0.8;"/>
      </defs>
      <g>
       <use style="stroke:#000000;stroke-width:0.8;" x="63" xlink:href="#m9268a0a194" y="301.489409"/>
      </g>
     </g>
     <g id="text_8">
      <!-- 0 -->
      <g transform="translate(49.6375 305.288628)scale(0.1 -0.1)">
       <use xlink:href="#DejaVuSans-30"/>
      </g>
     </g>
    </g>
    <g id="ytick_2">
     <g id="line2d_8">
      <g>
       <use style="stroke:#000000;stroke-width:0.8;" x="63" xlink:href="#m9268a0a194" y="269.203233"/>
      </g>
     </g>
     <g id="text_9">
      <!-- 50 -->
      <defs>
       <path d="M 10.796875 72.90625 
L 49.515625 72.90625 
L 49.515625 64.59375 
L 19.828125 64.59375 
L 19.828125 46.734375 
Q 21.96875 47.46875 24.109375 47.828125 
Q 26.265625 48.1875 28.421875 48.1875 
Q 40.625 48.1875 47.75 41.5 
Q 54.890625 34.8125 54.890625 23.390625 
Q 54.890625 11.625 47.5625 5.09375 
Q 40.234375 -1.421875 26.90625 -1.421875 
Q 22.3125 -1.421875 17.546875 -0.640625 
Q 12.796875 0.140625 7.71875 1.703125 
L 7.71875 11.625 
Q 12.109375 9.234375 16.796875 8.0625 
Q 21.484375 6.890625 26.703125 6.890625 
Q 35.15625 6.890625 40.078125 11.328125 
Q 45.015625 15.765625 45.015625 23.390625 
Q 45.015625 31 40.078125 35.4375 
Q 35.15625 39.890625 26.703125 39.890625 
Q 22.75 39.890625 18.8125 39.015625 
Q 14.890625 38.140625 10.796875 36.28125 
z
" id="DejaVuSans-35"/>
      </defs>
      <g transform="translate(43.275 273.002452)scale(0.1 -0.1)">
       <use xlink:href="#DejaVuSans-35"/>
       <use x="63.623047" xlink:href="#DejaVuSans-30"/>
      </g>
     </g>
    </g>
    <g id="ytick_3">
     <g id="line2d_9">
      <g>
       <use style="stroke:#000000;stroke-width:0.8;" x="63" xlink:href="#m9268a0a194" y="236.917057"/>
      </g>
     </g>
     <g id="text_10">
      <!-- 100 -->
      <g transform="translate(36.9125 240.716276)scale(0.1 -0.1)">
       <use xlink:href="#DejaVuSans-31"/>
       <use x="63.623047" xlink:href="#DejaVuSans-30"/>
       <use x="127.246094" xlink:href="#DejaVuSans-30"/>
      </g>
     </g>
    </g>
    <g id="ytick_4">
     <g id="line2d_10">
      <g>
       <use style="stroke:#000000;stroke-width:0.8;" x="63" xlink:href="#m9268a0a194" y="204.630881"/>
      </g>
     </g>
     <g id="text_11">
      <!-- 150 -->
      <g transform="translate(36.9125 208.4301)scale(0.1 -0.1)">
       <use xlink:href="#DejaVuSans-31"/>
       <use x="63.623047" xlink:href="#DejaVuSans-35"/>
       <use x="127.246094" xlink:href="#DejaVuSans-30"/>
      </g>
     </g>
    </g>
    <g id="ytick_5">
     <g id="line2d_11">
      <g>
       <use style="stroke:#000000;stroke-width:0.8;" x="63" xlink:href="#m9268a0a194" y="172.344705"/>
      </g>
     </g>
     <g id="text_12">
      <!-- 200 -->
      <g transform="translate(36.9125 176.143923)scale(0.1 -0.1)">
       <use xlink:href="#DejaVuSans-32"/>
       <use x="63.623047" xlink:href="#DejaVuSans-30"/>
       <use x="127.246094" xlink:href="#DejaVuSans-30"/>
      </g>
     </g>
    </g>
    <g id="ytick_6">
     <g id="line2d_12">
      <g>
       <use style="stroke:#000000;stroke-width:0.8;" x="63" xlink:href="#m9268a0a194" y="140.058529"/>
      </g>
     </g>
     <g id="text_13">
      <!-- 250 -->
      <g transform="translate(36.9125 143.857747)scale(0.1 -0.1)">
       <use xlink:href="#DejaVuSans-32"/>
       <use x="63.623047" xlink:href="#DejaVuSans-35"/>
       <use x="127.246094" xlink:href="#DejaVuSans-30"/>
      </g>
     </g>
    </g>
    <g id="ytick_7">
     <g id="line2d_13">
      <g>
       <use style="stroke:#000000;stroke-width:0.8;" x="63" xlink:href="#m9268a0a194" y="107.772352"/>
      </g>
     </g>
     <g id="text_14">
      <!-- 300 -->
      <defs>
       <path d="M 40.578125 39.3125 
Q 47.65625 37.796875 51.625 33 
Q 55.609375 28.21875 55.609375 21.1875 
Q 55.609375 10.40625 48.1875 4.484375 
Q 40.765625 -1.421875 27.09375 -1.421875 
Q 22.515625 -1.421875 17.65625 -0.515625 
Q 12.796875 0.390625 7.625 2.203125 
L 7.625 11.71875 
Q 11.71875 9.328125 16.59375 8.109375 
Q 21.484375 6.890625 26.8125 6.890625 
Q 36.078125 6.890625 40.9375 10.546875 
Q 45.796875 14.203125 45.796875 21.1875 
Q 45.796875 27.640625 41.28125 31.265625 
Q 36.765625 34.90625 28.71875 34.90625 
L 20.21875 34.90625 
L 20.21875 43.015625 
L 29.109375 43.015625 
Q 36.375 43.015625 40.234375 45.921875 
Q 44.09375 48.828125 44.09375 54.296875 
Q 44.09375 59.90625 40.109375 62.90625 
Q 36.140625 65.921875 28.71875 65.921875 
Q 24.65625 65.921875 20.015625 65.03125 
Q 15.375 64.15625 9.8125 62.3125 
L 9.8125 71.09375 
Q 15.4375 72.65625 20.34375 73.4375 
Q 25.25 74.21875 29.59375 74.21875 
Q 40.828125 74.21875 47.359375 69.109375 
Q 53.90625 64.015625 53.90625 55.328125 
Q 53.90625 49.265625 50.4375 45.09375 
Q 46.96875 40.921875 40.578125 39.3125 
z
" id="DejaVuSans-33"/>
      </defs>
      <g transform="translate(36.9125 111.571571)scale(0.1 -0.1)">
       <use xlink:href="#DejaVuSans-33"/>
       <use x="63.623047" xlink:href="#DejaVuSans-30"/>
       <use x="127.246094" xlink:href="#DejaVuSans-30"/>
      </g>
     </g>
    </g>
    <g id="ytick_8">
     <g id="line2d_14">
      <g>
       <use style="stroke:#000000;stroke-width:0.8;" x="63" xlink:href="#m9268a0a194" y="75.486176"/>
      </g>
     </g>
     <g id="text_15">
      <!-- 350 -->
      <g transform="translate(36.9125 79.285395)scale(0.1 -0.1)">
       <use xlink:href="#DejaVuSans-33"/>
       <use x="63.623047" xlink:href="#DejaVuSans-35"/>
       <use x="127.246094" xlink:href="#DejaVuSans-30"/>
      </g>
     </g>
    </g>
    <g id="ytick_9">
     <g id="line2d_15">
      <g>
       <use style="stroke:#000000;stroke-width:0.8;" x="63" xlink:href="#m9268a0a194" y="43.2"/>
      </g>
     </g>
     <g id="text_16">
      <!-- 400 -->
      <g transform="translate(36.9125 46.999219)scale(0.1 -0.1)">
       <use xlink:href="#DejaVuSans-34"/>
       <use x="63.623047" xlink:href="#DejaVuSans-30"/>
       <use x="127.246094" xlink:href="#DejaVuSans-30"/>
      </g>
     </g>
    </g>
    <g id="text_17">
     <!-- Optimal CL/CD -->
     <defs>
      <path d="M 39.40625 66.21875 
Q 28.65625 66.21875 22.328125 58.203125 
Q 16.015625 50.203125 16.015625 36.375 
Q 16.015625 22.609375 22.328125 14.59375 
Q 28.65625 6.59375 39.40625 6.59375 
Q 50.140625 6.59375 56.421875 14.59375 
Q 62.703125 22.609375 62.703125 36.375 
Q 62.703125 50.203125 56.421875 58.203125 
Q 50.140625 66.21875 39.40625 66.21875 
z
M 39.40625 74.21875 
Q 54.734375 74.21875 63.90625 63.9375 
Q 73.09375 53.65625 73.09375 36.375 
Q 73.09375 19.140625 63.90625 8.859375 
Q 54.734375 -1.421875 39.40625 -1.421875 
Q 24.03125 -1.421875 14.8125 8.828125 
Q 5.609375 19.09375 5.609375 36.375 
Q 5.609375 53.65625 14.8125 63.9375 
Q 24.03125 74.21875 39.40625 74.21875 
z
" id="DejaVuSans-4f"/>
      <path d="M 18.109375 8.203125 
L 18.109375 -20.796875 
L 9.078125 -20.796875 
L 9.078125 54.6875 
L 18.109375 54.6875 
L 18.109375 46.390625 
Q 20.953125 51.265625 25.265625 53.625 
Q 29.59375 56 35.59375 56 
Q 45.5625 56 51.78125 48.09375 
Q 58.015625 40.1875 58.015625 27.296875 
Q 58.015625 14.40625 51.78125 6.484375 
Q 45.5625 -1.421875 35.59375 -1.421875 
Q 29.59375 -1.421875 25.265625 0.953125 
Q 20.953125 3.328125 18.109375 8.203125 
z
M 48.6875 27.296875 
Q 48.6875 37.203125 44.609375 42.84375 
Q 40.53125 48.484375 33.40625 48.484375 
Q 26.265625 48.484375 22.1875 42.84375 
Q 18.109375 37.203125 18.109375 27.296875 
Q 18.109375 17.390625 22.1875 11.75 
Q 26.265625 6.109375 33.40625 6.109375 
Q 40.53125 6.109375 44.609375 11.75 
Q 48.6875 17.390625 48.6875 27.296875 
z
" id="DejaVuSans-70"/>
      <path d="M 64.40625 67.28125 
L 64.40625 56.890625 
Q 59.421875 61.53125 53.78125 63.8125 
Q 48.140625 66.109375 41.796875 66.109375 
Q 29.296875 66.109375 22.65625 58.46875 
Q 16.015625 50.828125 16.015625 36.375 
Q 16.015625 21.96875 22.65625 14.328125 
Q 29.296875 6.6875 41.796875 6.6875 
Q 48.140625 6.6875 53.78125 8.984375 
Q 59.421875 11.28125 64.40625 15.921875 
L 64.40625 5.609375 
Q 59.234375 2.09375 53.4375 0.328125 
Q 47.65625 -1.421875 41.21875 -1.421875 
Q 24.65625 -1.421875 15.125 8.703125 
Q 5.609375 18.84375 5.609375 36.375 
Q 5.609375 53.953125 15.125 64.078125 
Q 24.65625 74.21875 41.21875 74.21875 
Q 47.75 74.21875 53.53125 72.484375 
Q 59.328125 70.75 64.40625 67.28125 
z
" id="DejaVuSans-43"/>
      <path d="M 9.8125 72.90625 
L 19.671875 72.90625 
L 19.671875 8.296875 
L 55.171875 8.296875 
L 55.171875 0 
L 9.8125 0 
z
" id="DejaVuSans-4c"/>
      <path d="M 25.390625 72.90625 
L 33.6875 72.90625 
L 8.296875 -9.28125 
L 0 -9.28125 
z
" id="DejaVuSans-2f"/>
      <path d="M 19.671875 64.796875 
L 19.671875 8.109375 
L 31.59375 8.109375 
Q 46.6875 8.109375 53.6875 14.9375 
Q 60.6875 21.78125 60.6875 36.53125 
Q 60.6875 51.171875 53.6875 57.984375 
Q 46.6875 64.796875 31.59375 64.796875 
z
M 9.8125 72.90625 
L 30.078125 72.90625 
Q 51.265625 72.90625 61.171875 64.09375 
Q 71.09375 55.28125 71.09375 36.53125 
Q 71.09375 17.671875 61.125 8.828125 
Q 51.171875 0 30.078125 0 
L 9.8125 0 
z
" id="DejaVuSans-44"/>
     </defs>
     <g transform="translate(30.832812 218.475)rotate(-90)scale(0.1 -0.1)">
      <use xlink:href="#DejaVuSans-4f"/>
      <use x="78.710938" xlink:href="#DejaVuSans-70"/>
      <use x="142.1875" xlink:href="#DejaVuSans-74"/>
      <use x="181.396484" xlink:href="#DejaVuSans-69"/>
      <use x="209.179688" xlink:href="#DejaVuSans-6d"/>
      <use x="306.591797" xlink:href="#DejaVuSans-61"/>
      <use x="367.871094" xlink:href="#DejaVuSans-6c"/>
      <use x="395.654297" xlink:href="#DejaVuSans-20"/>
      <use x="427.441406" xlink:href="#DejaVuSans-43"/>
      <use x="497.265625" xlink:href="#DejaVuSans-4c"/>
      <use x="552.978516" xlink:href="#DejaVuSans-2f"/>
      <use x="586.669922" xlink:href="#DejaVuSans-43"/>
      <use x="656.494141" xlink:href="#DejaVuSans-44"/>
     </g>
    </g>
   </g>
   <g id="line2d_16">
    <path clip-path="url(#pdb63bb4c7e)" d="M 80.754545 301.489409 
L 81.109636 231.65984 
L 81.464727 229.542956 
L 81.819818 219.028189 
L 82.174909 213.476932 
L 82.53 212.712844 
L 82.885091 211.317819 
L 83.595273 211.317819 
L 83.950364 210.693409 
L 84.305455 210.693409 
L 84.660545 203.490987 
L 85.370727 195.466371 
L 86.436 190.922571 
L 86.791091 190.402937 
L 87.146182 188.828759 
L 87.856364 187.73606 
L 88.211455 187.657618 
L 88.566545 187.299883 
L 88.921636 186.367473 
L 89.631818 183.41724 
L 89.986909 182.667322 
L 90.342 182.348701 
L 90.697091 182.348701 
L 91.052182 182.107675 
L 92.117455 182.06688 
L 92.472545 181.867772 
L 92.827636 181.867772 
L 93.892909 181.560317 
L 98.864182 181.560317 
L 99.219273 180.706012 
L 102.06 180.653172 
L 102.415091 175.996455 
L 104.190545 175.978693 
L 104.900727 175.784642 
L 110.582182 175.681528 
L 111.647455 175.633042 
L 114.133091 175.633042 
L 114.488182 175.32089 
L 120.524727 175.25939 
L 121.59 175.175508 
L 137.569091 174.680018 
L 144.670909 174.57891 
L 146.446364 174.489157 
L 148.221818 174.459502 
L 148.576909 174.319162 
L 153.193091 174.220908 
L 155.323636 174.144838 
L 159.584727 174.013036 
L 159.939818 173.875955 
L 160.294909 173.875955 
L 160.65 173.731674 
L 164.200909 173.655963 
L 164.911091 173.572019 
L 165.621273 173.511303 
L 166.331455 173.431659 
L 177.339273 173.402327 
L 178.049455 173.307071 
L 203.616 173.212923 
L 205.036364 173.13183 
L 217.464545 173.090851 
L 217.819636 172.574399 
L 224.921455 172.492782 
L 225.276545 172.33919 
L 238.414909 172.281466 
L 239.480182 172.227138 
L 254.038909 172.19554 
L 254.394 172.048388 
L 339.260727 171.938265 
L 355.239818 171.840358 
L 435.845455 171.827861 
L 435.845455 171.827861 
" style="fill:none;stroke:#1f77b4;stroke-linecap:square;stroke-width:1.5;"/>
   </g>
   <g id="line2d_17">
    <path clip-path="url(#pdb63bb4c7e)" d="M 80.754545 301.489409 
L 81.464727 268.436951 
L 81.819818 268.436951 
L 82.174909 246.764329 
L 82.53 244.424424 
L 82.885091 243.417396 
L 83.240182 236.544288 
L 83.595273 235.786523 
L 84.305455 235.786523 
L 84.660545 232.646122 
L 85.015636 231.747247 
L 86.080909 226.368905 
L 86.436 226.100777 
L 86.791091 225.449859 
L 87.146182 225.407243 
L 87.501273 224.439587 
L 87.856364 224.439587 
L 88.211455 222.970852 
L 88.566545 222.609329 
L 89.276727 221.187884 
L 89.631818 221.187884 
L 91.052182 219.676919 
L 91.407273 217.657002 
L 91.762364 217.657002 
L 92.117455 217.39666 
L 92.472545 216.067727 
L 92.827636 216.067727 
L 93.182727 215.641906 
L 93.892909 215.277245 
L 94.248 214.001749 
L 95.313273 214.001749 
L 95.668364 213.557653 
L 97.798909 213.48835 
L 98.154 212.934906 
L 98.864182 211.213283 
L 99.219273 208.803973 
L 99.574364 208.02239 
L 101.704909 208.02239 
L 102.06 207.85667 
L 103.480364 207.784393 
L 103.835455 207.506707 
L 110.227091 207.453857 
L 111.647455 207.196006 
L 114.488182 207.196006 
L 114.843273 206.449017 
L 115.553455 205.400064 
L 115.908545 204.72319 
L 118.039091 204.72319 
L 118.394182 204.485166 
L 119.104364 204.42333 
L 119.814545 204.42333 
L 120.169636 203.973767 
L 120.524727 203.853422 
L 123.720545 203.839055 
L 124.075636 203.421836 
L 126.561273 203.329581 
L 126.916364 202.083286 
L 127.626545 202.078649 
L 127.981636 201.786592 
L 130.822364 201.727048 
L 131.532545 201.658211 
L 137.214 201.589034 
L 137.569091 200.840212 
L 137.924182 193.678973 
L 138.279273 192.46357 
L 144.670909 192.366271 
L 145.381091 192.249406 
L 149.997273 192.145568 
L 152.838 192.131356 
L 153.193091 189.902021 
L 161.005091 189.824206 
L 161.360182 189.489852 
L 162.425455 189.489852 
L 162.780545 188.427507 
L 166.331455 188.413731 
L 166.686545 188.002286 
L 170.947636 187.943482 
L 171.657818 187.846828 
L 172.723091 187.846828 
L 173.078182 187.713299 
L 176.984182 187.675411 
L 182.665636 187.675411 
L 183.020727 186.370716 
L 186.216545 186.370716 
L 186.571636 186.216253 
L 186.926727 186.216253 
L 187.281818 185.650958 
L 187.992 185.650958 
L 188.347091 185.384169 
L 216.044182 185.289844 
L 218.174727 185.239088 
L 228.117273 185.134828 
L 234.508909 184.874222 
L 234.864 184.656379 
L 255.814364 184.551302 
L 259.010182 184.504106 
L 265.046727 184.402931 
L 267.177273 184.36572 
L 306.947455 184.265273 
L 310.143273 184.213117 
L 375.835091 184.107377 
L 378.675818 184.08332 
L 435.845455 184.056715 
L 435.845455 184.056715 
" style="fill:none;stroke:#ff7f0e;stroke-dasharray:5.55,2.4;stroke-dashoffset:0;stroke-width:1.5;"/>
   </g>
   <g id="line2d_18">
    <path clip-path="url(#pdb63bb4c7e)" d="M 80.754545 301.489409 
L 81.109636 313.325136 
L 81.464727 296.044659 
L 81.819818 288.336773 
L 82.174909 287.732758 
L 82.53 284.452761 
L 82.885091 283.823186 
L 83.240182 283.809011 
L 83.595273 281.804779 
L 84.305455 281.804779 
L 84.660545 280.348549 
L 85.015636 280.258291 
L 85.370727 276.85023 
L 85.725818 274.884985 
L 86.436 265.353936 
L 87.146182 259.997408 
L 87.501273 259.276888 
L 87.856364 256.18642 
L 88.566545 255.351914 
L 88.921636 253.099809 
L 89.276727 249.889196 
L 89.631818 247.998118 
L 89.986909 244.481556 
L 90.342 243.106796 
L 90.697091 242.74332 
L 91.052182 242.74332 
L 91.407273 240.710909 
L 91.762364 239.572548 
L 92.117455 239.572548 
L 92.472545 238.860769 
L 92.827636 238.523858 
L 93.182727 237.481166 
L 93.537818 237.345461 
L 93.892909 237.345461 
L 94.248 236.521829 
L 95.313273 236.471656 
L 95.668364 236.345655 
L 96.023455 236.345655 
L 96.378545 236.186204 
L 97.088727 236.186204 
L 97.443818 235.787216 
L 97.798909 235.787216 
L 98.154 234.579918 
L 99.574364 234.579918 
L 99.929455 232.172139 
L 100.284545 232.172139 
L 100.639636 232.054965 
L 100.994727 232.054965 
L 101.349818 231.668638 
L 101.704909 231.668638 
L 102.06 228.825831 
L 102.415091 228.650645 
L 103.480364 228.650645 
L 103.835455 227.46212 
L 104.190545 227.46212 
L 104.900727 225.909589 
L 106.321091 225.909589 
L 106.676182 225.254204 
L 108.806727 225.254204 
L 109.161818 224.556202 
L 109.872 224.517588 
L 110.227091 224.252413 
L 110.582182 224.252413 
L 110.937273 224.052134 
L 112.357636 224.052134 
L 112.712727 223.155884 
L 113.067818 223.155884 
L 113.422909 222.440374 
L 115.198364 222.440374 
L 115.553455 222.224774 
L 116.263636 222.224774 
L 116.618727 221.616966 
L 118.394182 221.535199 
L 118.749273 221.301168 
L 119.104364 219.986685 
L 119.459455 219.986685 
L 119.814545 218.813763 
L 120.879818 218.813763 
L 121.234909 217.556831 
L 124.075636 217.556831 
L 124.430727 217.388157 
L 124.785818 216.836239 
L 126.916364 216.836239 
L 127.271455 216.711017 
L 127.981636 216.711017 
L 128.336727 216.075932 
L 129.046909 216.024829 
L 129.402 215.681918 
L 129.757091 215.681918 
L 130.112182 213.968631 
L 132.952909 213.968631 
L 133.308 211.316131 
L 133.663091 211.316131 
L 134.018182 210.767506 
L 134.373273 208.617677 
L 137.569091 208.547768 
L 137.924182 208.052438 
L 140.409818 208.048594 
L 140.764909 207.604451 
L 142.895455 207.604451 
L 143.250545 206.324819 
L 149.642182 206.324819 
L 149.997273 204.367118 
L 150.352364 204.367118 
L 150.707455 200.35913 
L 157.099091 200.35913 
L 157.454182 199.604423 
L 161.360182 199.547002 
L 161.715273 199.40764 
L 167.396727 199.40764 
L 167.751818 199.264568 
L 168.817091 199.212618 
L 169.172182 198.701535 
L 169.882364 198.701535 
L 170.237455 198.37049 
L 182.310545 198.37049 
L 182.665636 197.892209 
L 187.281818 197.847593 
L 187.636909 197.495626 
L 189.412364 197.495626 
L 189.767455 197.25643 
L 190.122545 196.209193 
L 190.477636 195.808582 
L 191.187818 195.808582 
L 191.542909 193.852099 
L 192.253091 193.852099 
L 192.608182 192.75378 
L 193.318364 192.75378 
L 193.673455 192.301774 
L 194.383636 192.301774 
L 194.738727 191.050291 
L 200.065091 191.050291 
L 200.420182 190.821316 
L 206.101636 190.821316 
L 206.456727 189.987409 
L 210.717818 189.987409 
L 211.072909 189.321991 
L 213.203455 189.286728 
L 213.558545 188.986521 
L 213.913636 188.515307 
L 215.689091 188.515307 
L 216.044182 187.906014 
L 224.921455 187.906014 
L 225.276545 187.060995 
L 225.631636 187.060995 
L 225.986727 186.532608 
L 227.407091 186.517881 
L 227.762182 186.148602 
L 228.472364 186.148602 
L 228.827455 184.870641 
L 229.892727 184.821162 
L 232.378364 184.821162 
L 232.733455 184.276596 
L 234.153818 184.276596 
L 234.508909 184.134986 
L 242.320909 184.134986 
L 242.676 183.455328 
L 259.720364 183.365233 
L 260.075455 182.576544 
L 271.438364 182.576544 
L 271.793455 181.257842 
L 272.858727 181.257842 
L 273.213818 180.574094 
L 273.568909 180.574094 
L 273.924 180.106107 
L 274.279091 179.107951 
L 274.634182 179.107951 
L 274.989273 178.971869 
L 277.474909 178.971869 
L 277.83 176.978765 
L 284.576727 176.978765 
L 284.931818 176.488223 
L 303.041455 176.488223 
L 303.396545 176.17702 
L 308.012727 176.17702 
L 308.367818 175.789398 
L 337.485273 175.702626 
L 337.840364 175.540595 
L 350.268545 175.540595 
L 350.623636 175.163168 
L 369.798545 175.163168 
L 370.153636 174.667738 
L 370.508727 174.667738 
L 370.863818 174.502423 
L 420.221455 174.478892 
L 420.576545 174.153278 
L 435.845455 174.042781 
L 435.845455 174.042781 
" style="fill:none;stroke:#2ca02c;stroke-dasharray:1.5,2.475;stroke-dashoffset:0;stroke-width:1.5;"/>
   </g>
   <g id="line2d_19">
    <path clip-path="url(#pdb63bb4c7e)" d="M 80.754545 301.489409 
L 81.109636 259.538055 
L 116.263636 259.538055 
L 116.618727 253.444222 
L 151.772727 253.444222 
L 152.127818 237.212382 
L 187.281818 237.212382 
L 187.636909 235.631763 
L 222.790909 235.631763 
L 223.146 232.964562 
L 258.3 232.964562 
L 258.655091 227.238443 
L 293.809091 227.238443 
L 294.164182 221.87188 
L 329.318182 221.87188 
L 329.673273 215.482962 
L 364.827273 215.482962 
L 365.182364 213.409282 
L 400.336364 213.409282 
L 400.691455 209.572793 
L 435.845455 209.572793 
L 435.845455 209.572793 
" style="fill:none;stroke:#d62728;stroke-dasharray:9.6,2.4,1.5,2.4;stroke-dashoffset:0;stroke-width:1.5;"/>
   </g>
   <g id="line2d_20">
    <path clip-path="url(#pdb63bb4c7e)" d="M 80.754545 301.489409 
L 81.109636 302.890755 
L 81.464727 299.528123 
L 82.174909 295.753887 
L 82.53 295.415363 
L 82.885091 292.802338 
L 83.240182 291.393405 
L 83.595273 291.393405 
L 83.950364 291.203004 
L 84.305455 291.203004 
L 84.660545 290.961314 
L 85.370727 290.950329 
L 85.725818 290.336464 
L 87.146182 290.244769 
L 88.211455 288.385988 
L 89.276727 288.385988 
L 89.631818 288.04481 
L 90.342 288.004812 
L 90.697091 287.777319 
L 91.052182 287.777319 
L 91.407273 287.502229 
L 92.472545 287.502229 
L 92.827636 287.361445 
L 94.958182 287.361445 
L 95.313273 286.563381 
L 96.733636 286.483198 
L 97.443818 286.483198 
L 97.798909 286.198454 
L 98.864182 286.198454 
L 99.219273 286.048686 
L 109.516909 285.964231 
L 109.872 285.089485 
L 110.227091 285.089485 
L 110.582182 284.88051 
L 112.712727 284.88051 
L 113.067818 284.716482 
L 113.422909 284.716482 
L 113.778 284.53269 
L 115.908545 284.446138 
L 116.263636 284.417977 
L 116.618727 283.996956 
L 118.039091 283.913181 
L 118.394182 283.717039 
L 121.59 283.704082 
L 121.945091 283.523669 
L 129.046909 283.457148 
L 130.112182 283.242859 
L 134.018182 283.134872 
L 134.728364 283.050579 
L 144.670909 282.981927 
L 145.026 282.797013 
L 146.091273 282.750953 
L 146.446364 282.499283 
L 155.323636 282.499283 
L 155.678727 281.765712 
L 161.360182 281.762268 
L 161.715273 281.583712 
L 162.070364 281.583712 
L 162.425455 281.44724 
L 168.817091 281.405333 
L 169.172182 280.96429 
L 172.368 280.90371 
L 172.723091 280.402359 
L 185.151273 280.293738 
L 185.506364 279.93435 
L 204.681273 279.93435 
L 205.036364 279.652807 
L 251.908364 279.582424 
L 252.263455 279.369372 
L 260.430545 279.369372 
L 260.785636 278.715052 
L 296.294727 278.715052 
L 296.649818 278.522981 
L 317.955273 278.522981 
L 318.310364 278.275721 
L 330.383455 278.275721 
L 330.738545 278.029232 
L 333.224182 278.0111 
L 401.046545 278.0111 
L 401.401636 277.427921 
L 435.845455 277.427921 
L 435.845455 277.427921 
" style="fill:none;stroke:#9467bd;stroke-dasharray:7.5,1.5,1.5,1.5,1.5,1.5;stroke-dashoffset:0;stroke-width:1.5;"/>
   </g>
   <g id="line2d_21">
    <path clip-path="url(#pdb63bb4c7e)" d="M 80.754545 301.489409 
L 81.109636 285.921834 
L 116.263636 285.921834 
L 116.618727 284.235924 
L 151.772727 284.235924 
L 152.127818 283.507342 
L 187.281818 283.507342 
L 187.636909 280.174208 
L 222.790909 280.174208 
L 223.146 278.05204 
L 258.3 278.05204 
L 258.655091 275.525415 
L 293.809091 275.525415 
L 294.164182 273.403213 
L 329.318182 273.403213 
L 329.673273 271.092078 
L 364.827273 271.092078 
L 365.182364 269.115993 
L 400.336364 269.115993 
L 400.691455 266.769597 
L 435.845455 266.769597 
L 435.845455 266.769597 
" style="fill:none;stroke:#8c564b;stroke-dasharray:1.5,6;stroke-dashoffset:0;stroke-width:1.5;"/>
   </g>
   <g id="patch_3">
    <path d="M 63 320.4 
L 63 43.2 
" style="fill:none;stroke:#000000;stroke-linecap:square;stroke-linejoin:miter;stroke-width:0.8;"/>
   </g>
   <g id="patch_4">
    <path d="M 453.6 320.4 
L 453.6 43.2 
" style="fill:none;stroke:#000000;stroke-linecap:square;stroke-linejoin:miter;stroke-width:0.8;"/>
   </g>
   <g id="patch_5">
    <path d="M 63 320.4 
L 453.6 320.4 
" style="fill:none;stroke:#000000;stroke-linecap:square;stroke-linejoin:miter;stroke-width:0.8;"/>
   </g>
   <g id="patch_6">
    <path d="M 63 43.2 
L 453.6 43.2 
" style="fill:none;stroke:#000000;stroke-linecap:square;stroke-linejoin:miter;stroke-width:0.8;"/>
   </g>
   <g id="text_18">
    <!-- Optimization History -->
    <defs>
     <path d="M 5.515625 54.6875 
L 48.1875 54.6875 
L 48.1875 46.484375 
L 14.40625 7.171875 
L 48.1875 7.171875 
L 48.1875 0 
L 4.296875 0 
L 4.296875 8.203125 
L 38.09375 47.515625 
L 5.515625 47.515625 
z
" id="DejaVuSans-7a"/>
     <path d="M 9.8125 72.90625 
L 19.671875 72.90625 
L 19.671875 43.015625 
L 55.515625 43.015625 
L 55.515625 72.90625 
L 65.375 72.90625 
L 65.375 0 
L 55.515625 0 
L 55.515625 34.71875 
L 19.671875 34.71875 
L 19.671875 0 
L 9.8125 0 
z
" id="DejaVuSans-48"/>
     <path d="M 32.171875 -5.078125 
Q 28.375 -14.84375 24.75 -17.8125 
Q 21.140625 -20.796875 15.09375 -20.796875 
L 7.90625 -20.796875 
L 7.90625 -13.28125 
L 13.1875 -13.28125 
Q 16.890625 -13.28125 18.9375 -11.515625 
Q 21 -9.765625 23.484375 -3.21875 
L 25.09375 0.875 
L 2.984375 54.6875 
L 12.5 54.6875 
L 29.59375 11.921875 
L 46.6875 54.6875 
L 56.203125 54.6875 
z
" id="DejaVuSans-79"/>
    </defs>
    <g transform="translate(196.665938 37.2)scale(0.12 -0.12)">
     <use xlink:href="#DejaVuSans-4f"/>
     <use x="78.710938" xlink:href="#DejaVuSans-70"/>
     <use x="142.1875" xlink:href="#DejaVuSans-74"/>
     <use x="181.396484" xlink:href="#DejaVuSans-69"/>
     <use x="209.179688" xlink:href="#DejaVuSans-6d"/>
     <use x="306.591797" xlink:href="#DejaVuSans-69"/>
     <use x="334.375" xlink:href="#DejaVuSans-7a"/>
     <use x="386.865234" xlink:href="#DejaVuSans-61"/>
     <use x="448.144531" xlink:href="#DejaVuSans-74"/>
     <use x="487.353516" xlink:href="#DejaVuSans-69"/>
     <use x="515.136719" xlink:href="#DejaVuSans-6f"/>
     <use x="576.318359" xlink:href="#DejaVuSans-6e"/>
     <use x="639.697266" xlink:href="#DejaVuSans-20"/>
     <use x="671.484375" xlink:href="#DejaVuSans-48"/>
     <use x="746.679688" xlink:href="#DejaVuSans-69"/>
     <use x="774.462891" xlink:href="#DejaVuSans-73"/>
     <use x="826.5625" xlink:href="#DejaVuSans-74"/>
     <use x="865.771484" xlink:href="#DejaVuSans-6f"/>
     <use x="926.953125" xlink:href="#DejaVuSans-72"/>
     <use x="968.066406" xlink:href="#DejaVuSans-79"/>
    </g>
   </g>
   <g id="legend_1">
    <g id="patch_7">
     <path d="M 330.9 139.26875 
L 446.6 139.26875 
Q 448.6 139.26875 448.6 137.26875 
L 448.6 50.2 
Q 448.6 48.2 446.6 48.2 
L 330.9 48.2 
Q 328.9 48.2 328.9 50.2 
L 328.9 137.26875 
Q 328.9 139.26875 330.9 139.26875 
z
" style="fill:#ffffff;opacity:0.8;stroke:#cccccc;stroke-linejoin:miter;"/>
    </g>
    <g id="line2d_22">
     <path d="M 332.9 56.298437 
L 352.9 56.298437 
" style="fill:none;stroke:#1f77b4;stroke-linecap:square;stroke-width:1.5;"/>
    </g>
    <g id="line2d_23"/>
    <g id="text_19">
     <!-- B$\acute{e}$zierGAN+EGO -->
     <defs>
      <path d="M 19.671875 34.8125 
L 19.671875 8.109375 
L 35.5 8.109375 
Q 43.453125 8.109375 47.28125 11.40625 
Q 51.125 14.703125 51.125 21.484375 
Q 51.125 28.328125 47.28125 31.5625 
Q 43.453125 34.8125 35.5 34.8125 
z
M 19.671875 64.796875 
L 19.671875 42.828125 
L 34.28125 42.828125 
Q 41.5 42.828125 45.03125 45.53125 
Q 48.578125 48.25 48.578125 53.8125 
Q 48.578125 59.328125 45.03125 62.0625 
Q 41.5 64.796875 34.28125 64.796875 
z
M 9.8125 72.90625 
L 35.015625 72.90625 
Q 46.296875 72.90625 52.390625 68.21875 
Q 58.5 63.53125 58.5 54.890625 
Q 58.5 48.1875 55.375 44.234375 
Q 52.25 40.28125 46.1875 39.3125 
Q 53.46875 37.75 57.5 32.78125 
Q 61.53125 27.828125 61.53125 20.40625 
Q 61.53125 10.640625 54.890625 5.3125 
Q 48.25 0 35.984375 0 
L 9.8125 0 
z
" id="DejaVuSans-42"/>
      <path d="M -18.3125 79.984375 
L -8.59375 79.984375 
L -24.515625 61.625 
L -31.984375 61.625 
z
M -25 56 
z
" id="DejaVuSans-301"/>
      <path d="M 48.09375 32.234375 
Q 48.25 33.015625 48.3125 33.84375 
Q 48.390625 34.671875 48.390625 35.5 
Q 48.390625 41.453125 44.890625 44.921875 
Q 41.40625 48.390625 35.40625 48.390625 
Q 28.71875 48.390625 23.578125 44.15625 
Q 18.453125 39.9375 15.828125 32.171875 
z
M 55.90625 25.203125 
L 14.109375 25.203125 
Q 13.8125 23.34375 13.71875 22.265625 
Q 13.625 21.1875 13.625 20.40625 
Q 13.625 13.625 17.796875 9.90625 
Q 21.96875 6.203125 29.59375 6.203125 
Q 35.453125 6.203125 40.671875 7.515625 
Q 45.90625 8.84375 50.390625 11.375 
L 48.6875 2.484375 
Q 43.84375 0.53125 38.6875 -0.4375 
Q 33.546875 -1.421875 28.21875 -1.421875 
Q 16.84375 -1.421875 10.71875 4.015625 
Q 4.59375 9.46875 4.59375 19.484375 
Q 4.59375 28.03125 7.640625 35.375 
Q 10.6875 42.71875 16.609375 48.484375 
Q 20.40625 52.09375 25.65625 54.046875 
Q 30.90625 56 36.8125 56 
Q 46.09375 56 51.578125 50.4375 
Q 57.078125 44.875 57.078125 35.5 
Q 57.078125 33.25 56.78125 30.6875 
Q 56.5 28.125 55.90625 25.203125 
z
" id="DejaVuSans-Oblique-65"/>
      <path d="M 59.515625 10.40625 
L 59.515625 29.984375 
L 43.40625 29.984375 
L 43.40625 38.09375 
L 69.28125 38.09375 
L 69.28125 6.78125 
Q 63.578125 2.734375 56.6875 0.65625 
Q 49.8125 -1.421875 42 -1.421875 
Q 24.90625 -1.421875 15.25 8.5625 
Q 5.609375 18.5625 5.609375 36.375 
Q 5.609375 54.25 15.25 64.234375 
Q 24.90625 74.21875 42 74.21875 
Q 49.125 74.21875 55.546875 72.453125 
Q 61.96875 70.703125 67.390625 67.28125 
L 67.390625 56.78125 
Q 61.921875 61.421875 55.765625 63.765625 
Q 49.609375 66.109375 42.828125 66.109375 
Q 29.4375 66.109375 22.71875 58.640625 
Q 16.015625 51.171875 16.015625 36.375 
Q 16.015625 21.625 22.71875 14.15625 
Q 29.4375 6.6875 42.828125 6.6875 
Q 48.046875 6.6875 52.140625 7.59375 
Q 56.25 8.5 59.515625 10.40625 
z
" id="DejaVuSans-47"/>
      <path d="M 34.1875 63.1875 
L 20.796875 26.90625 
L 47.609375 26.90625 
z
M 28.609375 72.90625 
L 39.796875 72.90625 
L 67.578125 0 
L 57.328125 0 
L 50.6875 18.703125 
L 17.828125 18.703125 
L 11.1875 0 
L 0.78125 0 
z
" id="DejaVuSans-41"/>
      <path d="M 46 62.703125 
L 46 35.5 
L 73.1875 35.5 
L 73.1875 27.203125 
L 46 27.203125 
L 46 0 
L 37.796875 0 
L 37.796875 27.203125 
L 10.59375 27.203125 
L 10.59375 35.5 
L 37.796875 35.5 
L 37.796875 62.703125 
z
" id="DejaVuSans-2b"/>
     </defs>
     <g transform="translate(360.9 59.798437)scale(0.1 -0.1)">
      <use transform="translate(0 0.515625)" xlink:href="#DejaVuSans-42"/>
      <use transform="translate(126.96875 13.015625)" xlink:href="#DejaVuSans-301"/>
      <use transform="translate(68.603516 0.515625)" xlink:href="#DejaVuSans-Oblique-65"/>
      <use transform="translate(130.126953 0.515625)" xlink:href="#DejaVuSans-7a"/>
      <use transform="translate(182.617188 0.515625)" xlink:href="#DejaVuSans-69"/>
      <use transform="translate(210.400391 0.515625)" xlink:href="#DejaVuSans-65"/>
      <use transform="translate(271.923828 0.515625)" xlink:href="#DejaVuSans-72"/>
      <use transform="translate(313.037109 0.515625)" xlink:href="#DejaVuSans-47"/>
      <use transform="translate(390.527344 0.515625)" xlink:href="#DejaVuSans-41"/>
      <use transform="translate(458.935547 0.515625)" xlink:href="#DejaVuSans-4e"/>
      <use transform="translate(533.740234 0.515625)" xlink:href="#DejaVuSans-2b"/>
      <use transform="translate(617.529297 0.515625)" xlink:href="#DejaVuSans-45"/>
      <use transform="translate(680.712891 0.515625)" xlink:href="#DejaVuSans-47"/>
      <use transform="translate(758.203125 0.515625)" xlink:href="#DejaVuSans-4f"/>
     </g>
    </g>
    <g id="line2d_24">
     <path d="M 332.9 70.976562 
L 352.9 70.976562 
" style="fill:none;stroke:#ff7f0e;stroke-dasharray:5.55,2.4;stroke-dashoffset:0;stroke-width:1.5;"/>
    </g>
    <g id="line2d_25"/>
    <g id="text_20">
     <!-- PCA+EGO -->
     <defs>
      <path d="M 19.671875 64.796875 
L 19.671875 37.40625 
L 32.078125 37.40625 
Q 38.96875 37.40625 42.71875 40.96875 
Q 46.484375 44.53125 46.484375 51.125 
Q 46.484375 57.671875 42.71875 61.234375 
Q 38.96875 64.796875 32.078125 64.796875 
z
M 9.8125 72.90625 
L 32.078125 72.90625 
Q 44.34375 72.90625 50.609375 67.359375 
Q 56.890625 61.8125 56.890625 51.125 
Q 56.890625 40.328125 50.609375 34.8125 
Q 44.34375 29.296875 32.078125 29.296875 
L 19.671875 29.296875 
L 19.671875 0 
L 9.8125 0 
z
" id="DejaVuSans-50"/>
     </defs>
     <g transform="translate(360.9 74.476562)scale(0.1 -0.1)">
      <use xlink:href="#DejaVuSans-50"/>
      <use x="60.302734" xlink:href="#DejaVuSans-43"/>
      <use x="130.126953" xlink:href="#DejaVuSans-41"/>
      <use x="198.535156" xlink:href="#DejaVuSans-2b"/>
      <use x="282.324219" xlink:href="#DejaVuSans-45"/>
      <use x="345.507812" xlink:href="#DejaVuSans-47"/>
      <use x="422.998047" xlink:href="#DejaVuSans-4f"/>
     </g>
    </g>
    <g id="line2d_26">
     <path d="M 332.9 85.654687 
L 352.9 85.654687 
" style="fill:none;stroke:#2ca02c;stroke-dasharray:1.5,2.475;stroke-dashoffset:0;stroke-width:1.5;"/>
    </g>
    <g id="line2d_27"/>
    <g id="text_21">
     <!-- NURBS+EGO -->
     <defs>
      <path d="M 8.6875 72.90625 
L 18.609375 72.90625 
L 18.609375 28.609375 
Q 18.609375 16.890625 22.84375 11.734375 
Q 27.09375 6.59375 36.625 6.59375 
Q 46.09375 6.59375 50.34375 11.734375 
Q 54.59375 16.890625 54.59375 28.609375 
L 54.59375 72.90625 
L 64.5 72.90625 
L 64.5 27.390625 
Q 64.5 13.140625 57.4375 5.859375 
Q 50.390625 -1.421875 36.625 -1.421875 
Q 22.796875 -1.421875 15.734375 5.859375 
Q 8.6875 13.140625 8.6875 27.390625 
z
" id="DejaVuSans-55"/>
      <path d="M 44.390625 34.1875 
Q 47.5625 33.109375 50.5625 29.59375 
Q 53.5625 26.078125 56.59375 19.921875 
L 66.609375 0 
L 56 0 
L 46.6875 18.703125 
Q 43.0625 26.03125 39.671875 28.421875 
Q 36.28125 30.8125 30.421875 30.8125 
L 19.671875 30.8125 
L 19.671875 0 
L 9.8125 0 
L 9.8125 72.90625 
L 32.078125 72.90625 
Q 44.578125 72.90625 50.734375 67.671875 
Q 56.890625 62.453125 56.890625 51.90625 
Q 56.890625 45.015625 53.6875 40.46875 
Q 50.484375 35.9375 44.390625 34.1875 
z
M 19.671875 64.796875 
L 19.671875 38.921875 
L 32.078125 38.921875 
Q 39.203125 38.921875 42.84375 42.21875 
Q 46.484375 45.515625 46.484375 51.90625 
Q 46.484375 58.296875 42.84375 61.546875 
Q 39.203125 64.796875 32.078125 64.796875 
z
" id="DejaVuSans-52"/>
      <path d="M 53.515625 70.515625 
L 53.515625 60.890625 
Q 47.90625 63.578125 42.921875 64.890625 
Q 37.9375 66.21875 33.296875 66.21875 
Q 25.25 66.21875 20.875 63.09375 
Q 16.5 59.96875 16.5 54.203125 
Q 16.5 49.359375 19.40625 46.890625 
Q 22.3125 44.4375 30.421875 42.921875 
L 36.375 41.703125 
Q 47.40625 39.59375 52.65625 34.296875 
Q 57.90625 29 57.90625 20.125 
Q 57.90625 9.515625 50.796875 4.046875 
Q 43.703125 -1.421875 29.984375 -1.421875 
Q 24.8125 -1.421875 18.96875 -0.25 
Q 13.140625 0.921875 6.890625 3.21875 
L 6.890625 13.375 
Q 12.890625 10.015625 18.65625 8.296875 
Q 24.421875 6.59375 29.984375 6.59375 
Q 38.421875 6.59375 43.015625 9.90625 
Q 47.609375 13.234375 47.609375 19.390625 
Q 47.609375 24.75 44.3125 27.78125 
Q 41.015625 30.8125 33.5 32.328125 
L 27.484375 33.5 
Q 16.453125 35.6875 11.515625 40.375 
Q 6.59375 45.0625 6.59375 53.421875 
Q 6.59375 63.09375 13.40625 68.65625 
Q 20.21875 74.21875 32.171875 74.21875 
Q 37.3125 74.21875 42.625 73.28125 
Q 47.953125 72.359375 53.515625 70.515625 
z
" id="DejaVuSans-53"/>
     </defs>
     <g transform="translate(360.9 89.154687)scale(0.1 -0.1)">
      <use xlink:href="#DejaVuSans-4e"/>
      <use x="74.804688" xlink:href="#DejaVuSans-55"/>
      <use x="147.998047" xlink:href="#DejaVuSans-52"/>
      <use x="217.480469" xlink:href="#DejaVuSans-42"/>
      <use x="286.068359" xlink:href="#DejaVuSans-53"/>
      <use x="349.544922" xlink:href="#DejaVuSans-2b"/>
      <use x="433.333984" xlink:href="#DejaVuSans-45"/>
      <use x="496.517578" xlink:href="#DejaVuSans-47"/>
      <use x="574.007812" xlink:href="#DejaVuSans-4f"/>
     </g>
    </g>
    <g id="line2d_28">
     <path d="M 332.9 100.332812 
L 352.9 100.332812 
" style="fill:none;stroke:#d62728;stroke-dasharray:9.6,2.4,1.5,2.4;stroke-dashoffset:0;stroke-width:1.5;"/>
    </g>
    <g id="line2d_29"/>
    <g id="text_22">
     <!-- NURBS+GA -->
     <g transform="translate(360.9 103.832812)scale(0.1 -0.1)">
      <use xlink:href="#DejaVuSans-4e"/>
      <use x="74.804688" xlink:href="#DejaVuSans-55"/>
      <use x="147.998047" xlink:href="#DejaVuSans-52"/>
      <use x="217.480469" xlink:href="#DejaVuSans-42"/>
      <use x="286.068359" xlink:href="#DejaVuSans-53"/>
      <use x="349.544922" xlink:href="#DejaVuSans-2b"/>
      <use x="433.333984" xlink:href="#DejaVuSans-47"/>
      <use x="510.824219" xlink:href="#DejaVuSans-41"/>
     </g>
    </g>
    <g id="line2d_30">
     <path d="M 332.9 115.010937 
L 352.9 115.010937 
" style="fill:none;stroke:#9467bd;stroke-dasharray:7.5,1.5,1.5,1.5,1.5,1.5;stroke-dashoffset:0;stroke-width:1.5;"/>
    </g>
    <g id="line2d_31"/>
    <g id="text_23">
     <!-- PARSEC+EGO -->
     <g transform="translate(360.9 118.510937)scale(0.1 -0.1)">
      <use xlink:href="#DejaVuSans-50"/>
      <use x="60.208984" xlink:href="#DejaVuSans-41"/>
      <use x="128.617188" xlink:href="#DejaVuSans-52"/>
      <use x="198.099609" xlink:href="#DejaVuSans-53"/>
      <use x="261.576172" xlink:href="#DejaVuSans-45"/>
      <use x="324.759766" xlink:href="#DejaVuSans-43"/>
      <use x="394.583984" xlink:href="#DejaVuSans-2b"/>
      <use x="478.373047" xlink:href="#DejaVuSans-45"/>
      <use x="541.556641" xlink:href="#DejaVuSans-47"/>
      <use x="619.046875" xlink:href="#DejaVuSans-4f"/>
     </g>
    </g>
    <g id="line2d_32">
     <path d="M 332.9 129.689062 
L 352.9 129.689062 
" style="fill:none;stroke:#8c564b;stroke-dasharray:1.5,6;stroke-dashoffset:0;stroke-width:1.5;"/>
    </g>
    <g id="line2d_33"/>
    <g id="text_24">
     <!-- PARSEC+GA -->
     <g transform="translate(360.9 133.189062)scale(0.1 -0.1)">
      <use xlink:href="#DejaVuSans-50"/>
      <use x="60.208984" xlink:href="#DejaVuSans-41"/>
      <use x="128.617188" xlink:href="#DejaVuSans-52"/>
      <use x="198.099609" xlink:href="#DejaVuSans-53"/>
      <use x="261.576172" xlink:href="#DejaVuSans-45"/>
      <use x="324.759766" xlink:href="#DejaVuSans-43"/>
      <use x="394.583984" xlink:href="#DejaVuSans-2b"/>
      <use x="478.373047" xlink:href="#DejaVuSans-47"/>
      <use x="555.863281" xlink:href="#DejaVuSans-41"/>
     </g>
    </g>
   </g>
  </g>
 </g>
 <defs>
  <clipPath id="pdb63bb4c7e">
   <rect height="277.2" width="390.6" x="63" y="43.2"/>
  </clipPath>
 </defs>
</svg>
