<?xml version="1.0" encoding="utf-8" standalone="no"?>
<!DOCTYPE svg PUBLIC "-//W3C//DTD SVG 1.1//EN"
  "http://www.w3.org/Graphics/SVG/1.1/DTD/svg11.dtd">
<!-- Created with matplotlib (http://matplotlib.org/) -->
<svg height="360pt" version="1.1" viewBox="0 0 360 360" width="360pt" xmlns="http://www.w3.org/2000/svg" xmlns:xlink="http://www.w3.org/1999/xlink">
 <defs>
  <style type="text/css">
*{stroke-linecap:butt;stroke-linejoin:round;}
  </style>
 </defs>
 <g id="figure_1">
  <g id="patch_1">
   <path d="M 0 360 
L 360 360 
L 360 0 
L 0 0 
z
" style="fill:#ffffff;"/>
  </g>
  <g id="axes_1">
   <g id="line2d_1">
    <path clip-path="url(#p82e5bfcce7)" d="M 72.48242 218.95838 
L 68.059229 218.000745 
L 59.657112 215.855827 
L 54.736151 214.716651 
L 50.812988 214.027186 
L 47.395142 213.660243 
L 44.478811 213.564354 
L 41.570997 213.700448 
L 38.692071 214.079497 
L 36.348512 214.585016 
L 34.098716 215.281419 
L 31.971166 216.196791 
L 30.912189 216.827149 
L 30.085021 217.544228 
L 29.58012 218.242194 
L 29.465171 218.78013 
L 29.604949 219.296241 
L 30.09037 219.890789 
L 30.977087 220.469563 
L 32.537657 221.127197 
L 34.805326 221.734652 
L 37.663891 222.246788 
L 40.569612 222.531829 
L 43.505615 222.605644 
L 46.94508 222.446943 
L 50.392523 222.056637 
L 54.858807 221.309502 
L 66.828075 219.133303 
L 69.708868 218.87772 
L 72.025219 218.916163 
L 72.479805 218.95804 
L 72.479805 218.95804 
" style="fill:none;opacity:0.7;stroke:#000000;stroke-linecap:square;stroke-width:1.2;"/>
   </g>
   <g id="line2d_2">
    <path clip-path="url(#p82e5bfcce7)" d="M 72.480699 203.372489 
L 69.546417 203.075576 
L 66.111734 202.495164 
L 61.656887 201.500624 
L 50.176317 198.817827 
L 47.278058 198.323513 
L 44.90953 198.140555 
L 42.496696 198.168841 
L 40.089357 198.383697 
L 37.761926 198.807336 
L 35.541668 199.474689 
L 33.38427 200.414651 
L 31.781834 201.298317 
L 30.382775 202.377071 
L 29.513628 203.26288 
L 29.502652 203.522214 
L 29.661542 203.689095 
L 30.071284 203.815042 
L 30.516507 203.73958 
L 36.626177 202.187737 
L 39.532879 201.823375 
L 42.475142 201.684445 
L 45.932699 201.773402 
L 49.93013 202.126052 
L 57.052887 203.052553 
L 62.599553 203.664267 
L 66.583385 203.864746 
L 70.035442 203.797206 
L 72.482841 203.579723 
L 72.482841 203.579723 
" style="fill:none;opacity:0.7;stroke:#000000;stroke-linecap:square;stroke-width:1.2;"/>
   </g>
   <g id="line2d_3">
    <path clip-path="url(#p82e5bfcce7)" d="M 72.480687 187.990125 
L 68.648344 187.117566 
L 49.515913 183.262803 
L 46.65854 182.96252 
L 43.812676 182.895684 
L 40.982451 183.081221 
L 38.65828 183.436857 
L 36.383437 183.981704 
L 34.173704 184.721569 
L 32.106286 185.651918 
L 30.656845 186.555705 
L 29.86703 187.25 
L 29.488842 187.886056 
L 29.562044 188.185785 
L 29.943924 188.491354 
L 30.890119 188.857685 
L 33.11864 189.321828 
L 35.985581 189.659513 
L 39.389428 189.858077 
L 43.299346 189.851841 
L 47.217404 189.619515 
L 52.166751 189.078441 
L 59.134447 188.368706 
L 64.593164 188.008776 
L 69.532509 187.911484 
L 72.480088 187.98884 
L 72.480088 187.98884 
" style="fill:none;opacity:0.7;stroke:#000000;stroke-linecap:square;stroke-width:1.2;"/>
   </g>
   <g id="line2d_4">
    <path clip-path="url(#p82e5bfcce7)" d="M 72.482647 172.503103 
L 72.062229 172.438211 
L 66.658342 171.927799 
L 53.89905 170.516443 
L 48.969946 170.352668 
L 43.527686 170.392314 
L 38.102434 170.639708 
L 33.744564 171.058815 
L 31.472879 171.469189 
L 30.056398 171.922234 
L 29.529443 172.33914 
L 29.497454 172.6029 
L 29.673297 172.857279 
L 30.332382 173.223159 
L 31.473821 173.551189 
L 33.745981 173.962257 
L 37.12244 174.308045 
L 42.043238 174.582525 
L 47.982097 174.676667 
L 53.408065 174.529966 
L 57.816711 174.20801 
L 62.717478 173.609298 
L 69.11111 172.832938 
L 72.482644 172.517384 
L 72.482644 172.517384 
" style="fill:none;opacity:0.7;stroke:#000000;stroke-linecap:square;stroke-width:1.2;"/>
   </g>
   <g id="line2d_5">
    <path clip-path="url(#p82e5bfcce7)" d="M 72.479243 157.028511 
L 67.767413 155.740098 
L 57.316538 153.151334 
L 54.028854 152.621301 
L 50.731191 152.339358 
L 46.892916 152.279921 
L 43.045321 152.436553 
L 39.737718 152.787268 
L 36.963624 153.284596 
L 34.261075 153.992761 
L 32.181246 154.766833 
L 30.745053 155.540381 
L 29.970525 156.183026 
L 29.491687 156.890298 
L 29.534174 157.223771 
L 29.835648 157.524787 
L 30.69828 157.907015 
L 32.334082 158.326117 
L 35.134743 158.741249 
L 38.979835 159.10278 
L 43.857462 159.336094 
L 50.229336 159.419452 
L 55.089068 159.277697 
L 58.41635 158.984641 
L 66.072064 158.14566 
L 68.881923 158.151314 
L 70.759443 158.274415 
L 70.759443 158.274415 
" style="fill:none;opacity:0.7;stroke:#000000;stroke-linecap:square;stroke-width:1.2;"/>
   </g>
   <g id="line2d_6">
    <path clip-path="url(#p82e5bfcce7)" d="M 72.480281 141.49542 
L 66.183437 140.273817 
L 59.418449 139.021944 
L 54.587394 138.37349 
L 50.228115 138.001635 
L 45.868513 137.855781 
L 42.021561 137.955862 
L 38.692958 138.257371 
L 35.415537 138.788282 
L 33.198789 139.340198 
L 31.549541 139.937674 
L 30.195288 140.643973 
L 29.609121 141.211871 
L 29.470725 141.571666 
L 29.611388 141.825861 
L 30.037234 142.026933 
L 31.161941 142.155644 
L 33.972942 142.242009 
L 39.379635 142.095273 
L 62.658716 141.326126 
L 69.050103 141.426569 
L 72.480481 141.587816 
L 72.480481 141.587816 
" style="fill:none;opacity:0.7;stroke:#000000;stroke-linecap:square;stroke-width:1.2;"/>
   </g>
   <g id="line2d_7">
    <path clip-path="url(#p82e5bfcce7)" d="M 124.090303 218.959916 
L 120.190312 218.060789 
L 112.744751 216.320662 
L 105.814254 214.780794 
L 101.366663 214.00112 
L 97.927109 213.585565 
L 95.00204 213.42304 
L 92.11001 213.487286 
L 89.770397 213.759818 
L 87.526779 214.274747 
L 85.321966 215.067972 
L 83.743255 215.832349 
L 82.732818 216.524519 
L 81.881055 217.327987 
L 81.290708 218.172221 
L 81.095296 218.829889 
L 81.185237 219.387807 
L 81.580408 220.000007 
L 82.319971 220.552279 
L 83.356007 221.008792 
L 85.064745 221.443553 
L 87.400144 221.776398 
L 90.324924 221.958337 
L 94.335287 221.97356 
L 100.93435 221.771222 
L 108.55835 221.31373 
L 116.131325 220.652268 
L 119.55996 220.155769 
L 122.361556 219.538699 
L 124.090226 218.959278 
L 124.090226 218.959278 
" style="fill:none;opacity:0.7;stroke:#000000;stroke-linecap:square;stroke-width:1.2;"/>
   </g>
   <g id="line2d_8">
    <path clip-path="url(#p82e5bfcce7)" d="M 124.09031 203.476333 
L 114.518874 201.244002 
L 109.595219 200.472653 
L 104.639231 199.915168 
L 99.665227 199.567584 
L 95.202931 199.459867 
L 91.268732 199.572735 
L 88.384318 199.843601 
L 85.593871 200.337362 
L 83.897965 200.834882 
L 82.819135 201.32024 
L 81.947109 201.927147 
L 81.376877 202.597147 
L 81.104769 203.283242 
L 81.127868 203.713452 
L 81.360861 204.065746 
L 82.031527 204.474162 
L 83.678366 205.045698 
L 85.932268 205.53332 
L 89.312338 205.970417 
L 93.235825 206.232531 
L 97.699424 206.283185 
L 103.189156 206.09209 
L 107.640266 205.737135 
L 112.065257 205.152858 
L 123.305787 203.473484 
L 124.090254 203.478173 
L 124.090254 203.478173 
" style="fill:none;opacity:0.7;stroke:#000000;stroke-linecap:square;stroke-width:1.2;"/>
   </g>
   <g id="line2d_9">
    <path clip-path="url(#p82e5bfcce7)" d="M 124.090524 187.991211 
L 117.632976 187.386237 
L 113.795965 186.892008 
L 106.445061 185.601841 
L 102.054183 185.064752 
L 98.153077 184.806932 
L 94.253863 184.786141 
L 90.363648 185.010592 
L 87.018726 185.426898 
L 84.267842 186.001927 
L 82.62264 186.552347 
L 81.66125 187.034446 
L 81.218541 187.463478 
L 81.068494 187.915932 
L 81.147221 188.382775 
L 81.465598 188.794901 
L 82.243684 189.278121 
L 83.846668 189.862362 
L 86.083106 190.392954 
L 88.927189 190.828768 
L 92.307438 191.120169 
L 96.210459 191.218552 
L 100.108888 191.080451 
L 104.009323 190.712041 
L 108.407184 190.076332 
L 118.123601 188.551053 
L 124.090409 187.99437 
L 124.090409 187.99437 
" style="fill:none;opacity:0.7;stroke:#000000;stroke-linecap:square;stroke-width:1.2;"/>
   </g>
   <g id="line2d_10">
    <path clip-path="url(#p82e5bfcce7)" d="M 124.090625 172.452916 
L 114.759447 171.300341 
L 106.891526 170.547279 
L 99.513146 170.067427 
L 94.135935 169.927091 
L 89.78542 170.037215 
L 86.461899 170.335046 
L 84.225853 170.72285 
L 82.567254 171.208007 
L 81.714331 171.621285 
L 81.224586 172.097079 
L 81.087531 172.556932 
L 81.229532 172.945832 
L 81.682962 173.374018 
L 82.587078 173.819719 
L 84.228881 174.297051 
L 86.463747 174.68899 
L 89.786282 174.981356 
L 93.651881 175.092534 
L 98.534365 174.99705 
L 104.923889 174.623943 
L 112.795244 173.928451 
L 121.146409 172.95807 
L 124.090676 172.56692 
L 124.090676 172.56692 
" style="fill:none;opacity:0.7;stroke:#000000;stroke-linecap:square;stroke-width:1.2;"/>
   </g>
   <g id="line2d_11">
    <path clip-path="url(#p82e5bfcce7)" d="M 124.090192 157.028656 
L 116.215639 156.140179 
L 101.489751 154.405685 
L 95.088719 154.039588 
L 90.721964 153.965941 
L 87.406647 154.141557 
L 85.211693 154.471875 
L 83.618093 154.964455 
L 82.267714 155.615576 
L 81.454574 156.358758 
L 81.091236 156.899086 
L 81.151065 157.128641 
L 81.515999 157.385451 
L 82.500677 157.684612 
L 85.290998 158.108961 
L 89.149184 158.501774 
L 93.525289 158.717806 
L 98.411382 158.719201 
L 104.305569 158.468586 
L 112.718169 157.843029 
L 123.597018 157.050891 
L 124.08826 157.025709 
L 124.08826 157.025709 
" style="fill:none;opacity:0.7;stroke:#000000;stroke-linecap:square;stroke-width:1.2;"/>
   </g>
   <g id="line2d_12">
    <path clip-path="url(#p82e5bfcce7)" d="M 124.088167 141.550739 
L 122.949301 141.082682 
L 120.204904 140.283984 
L 116.367471 139.400262 
L 111.503211 138.502784 
L 107.105244 137.90524 
L 102.691781 137.527369 
L 98.764857 137.394275 
L 94.862533 137.487536 
L 91.485397 137.787593 
L 88.156972 138.319672 
L 85.396756 138.980449 
L 83.709372 139.569207 
L 82.213143 140.312348 
L 81.465189 140.906796 
L 81.088901 141.476879 
L 81.165207 141.733138 
L 81.406021 141.89376 
L 82.942934 142.218953 
L 85.238944 142.403487 
L 89.676401 142.463457 
L 96.158096 142.286897 
L 102.124987 141.9005 
L 114.590005 140.983862 
L 118.509579 140.937408 
L 121.354993 141.101374 
L 123.643719 141.443153 
L 124.09207 141.538562 
L 124.09207 141.538562 
" style="fill:none;opacity:0.7;stroke:#000000;stroke-linecap:square;stroke-width:1.2;"/>
   </g>
   <g id="line2d_13">
    <path clip-path="url(#p82e5bfcce7)" d="M 175.700493 218.965299 
L 169.121165 217.961584 
L 153.909033 215.549812 
L 149.910592 215.134996 
L 146.466766 215.007065 
L 143.537023 215.13282 
L 140.631474 215.490183 
L 138.269045 215.970509 
L 136.032191 216.654165 
L 134.400431 217.369082 
L 133.412655 218.001348 
L 132.844988 218.581195 
L 132.719267 219.017999 
L 132.850532 219.086578 
L 133.11078 219.041459 
L 134.18266 218.536329 
L 137.778683 216.841173 
L 139.989275 216.066753 
L 142.277442 215.545804 
L 144.622064 215.270901 
L 147.030834 215.215297 
L 150.509039 215.39379 
L 155.043386 215.855859 
L 161.107846 216.711073 
L 175.70116 218.961287 
L 175.70116 218.961287 
" style="fill:none;opacity:0.7;stroke:#000000;stroke-linecap:square;stroke-width:1.2;"/>
   </g>
   <g id="line2d_14">
    <path clip-path="url(#p82e5bfcce7)" d="M 175.700493 203.485871 
L 167.375087 202.761988 
L 152.176226 201.403703 
L 146.835597 201.145494 
L 142.516537 201.157617 
L 139.218404 201.386867 
L 136.49033 201.798643 
L 134.80937 202.239835 
L 133.369888 202.830997 
L 132.75219 203.317933 
L 132.728048 203.567525 
L 132.939053 203.791828 
L 133.673212 204.103498 
L 135.31164 204.455452 
L 137.590876 204.713086 
L 141.94072 204.919978 
L 148.291565 205.002686 
L 155.145288 204.863501 
L 162.49267 204.499847 
L 170.821899 203.858667 
L 175.700728 203.472481 
L 175.700728 203.472481 
" style="fill:none;opacity:0.7;stroke:#000000;stroke-linecap:square;stroke-width:1.2;"/>
   </g>
   <g id="line2d_15">
    <path clip-path="url(#p82e5bfcce7)" d="M 175.699085 187.983519 
L 171.347945 187.014661 
L 166.525007 185.700705 
L 161.229561 184.284128 
L 157.901989 183.619346 
L 155.03065 183.26585 
L 151.617659 183.071789 
L 148.198368 183.081514 
L 144.815127 183.320117 
L 141.957216 183.73119 
L 139.153513 184.353012 
L 136.939107 185.055062 
L 135.294437 185.772709 
L 133.823569 186.63443 
L 133.047965 187.315591 
L 132.70219 187.920272 
L 132.778373 188.229733 
L 133.207986 188.529842 
L 134.138442 188.834141 
L 136.451279 189.209595 
L 139.854593 189.502077 
L 145.346638 189.722763 
L 151.872108 189.750795 
L 158.90314 189.57208 
L 164.362696 189.223307 
L 167.216918 188.871017 
L 172.442898 188.02662 
L 174.75612 187.967029 
L 175.700812 187.976386 
L 175.700812 187.976386 
" style="fill:none;opacity:0.7;stroke:#000000;stroke-linecap:square;stroke-width:1.2;"/>
   </g>
   <g id="line2d_16">
    <path clip-path="url(#p82e5bfcce7)" d="M 175.700861 172.513775 
L 171.359826 171.962054 
L 155.710656 169.712425 
L 150.352644 169.254731 
L 145.992458 169.11189 
L 142.634751 169.195687 
L 139.815298 169.456081 
L 137.095608 169.941641 
L 135.430389 170.438741 
L 133.932023 171.117496 
L 133.192267 171.661119 
L 132.766906 172.251165 
L 132.720272 172.607485 
L 132.854107 172.813971 
L 133.36392 173.081121 
L 134.957117 173.405679 
L 137.218791 173.58359 
L 142.098852 173.621064 
L 148.506936 173.43118 
L 172.794688 172.471463 
L 175.700917 172.509783 
L 175.700917 172.509783 
" style="fill:none;opacity:0.7;stroke:#000000;stroke-linecap:square;stroke-width:1.2;"/>
   </g>
   <g id="line2d_17">
    <path clip-path="url(#p82e5bfcce7)" d="M 175.700584 157.032336 
L 166.825972 156.034898 
L 153.033755 154.414042 
L 148.155648 154.081606 
L 144.287439 154.024613 
L 140.954848 154.190294 
L 138.173666 154.556082 
L 135.976668 155.059575 
L 134.388435 155.646778 
L 133.158296 156.353394 
L 132.772193 156.820252 
L 132.728565 157.161682 
L 132.945589 157.505605 
L 133.707434 158.061436 
L 134.778693 158.576728 
L 136.40944 159.118784 
L 138.629791 159.573739 
L 141.449437 159.898373 
L 144.784847 160.041154 
L 148.64671 159.954432 
L 153.535374 159.589014 
L 160.420156 158.830251 
L 175.701775 157.02635 
L 175.701775 157.02635 
" style="fill:none;opacity:0.7;stroke:#000000;stroke-linecap:square;stroke-width:1.2;"/>
   </g>
   <g id="line2d_18">
    <path clip-path="url(#p82e5bfcce7)" d="M 175.700247 141.201721 
L 163.893777 139.001099 
L 158.505434 138.234983 
L 153.592728 137.767467 
L 148.664123 137.520928 
L 145.302592 137.546919 
L 142.457609 137.799173 
L 139.619759 138.259861 
L 136.892223 138.914244 
L 135.226756 139.516333 
L 133.882245 140.235847 
L 132.802448 141.223041 
L 132.693089 141.535608 
L 132.83982 141.697785 
L 133.364708 141.857705 
L 134.487419 141.771122 
L 147.348801 140.75584 
L 154.325398 140.565189 
L 160.789198 140.584718 
L 165.728946 140.811141 
L 175.70091 141.54228 
L 175.70091 141.54228 
" style="fill:none;opacity:0.7;stroke:#000000;stroke-linecap:square;stroke-width:1.2;"/>
   </g>
   <g id="line2d_19">
    <path clip-path="url(#p82e5bfcce7)" d="M 227.311293 218.964529 
L 224.535075 218.598038 
L 221.249427 217.898501 
L 213.182213 216.003352 
L 209.849437 215.522926 
L 205.995158 215.199687 
L 201.61224 215.068118 
L 197.73821 215.157332 
L 194.391823 215.438174 
L 191.099992 215.946026 
L 188.351562 216.586028 
L 186.694092 217.146984 
L 185.237368 217.880788 
L 184.565911 218.426628 
L 184.306163 218.914113 
L 184.399098 219.181368 
L 184.768297 219.408274 
L 185.806964 219.622405 
L 188.064477 219.827052 
L 192.461623 219.888252 
L 199.892055 219.753194 
L 227.311574 218.966751 
L 227.311574 218.966751 
" style="fill:none;opacity:0.7;stroke:#000000;stroke-linecap:square;stroke-width:1.2;"/>
   </g>
   <g id="line2d_20">
    <path clip-path="url(#p82e5bfcce7)" d="M 227.311524 203.475614 
L 221.952122 202.421783 
L 215.057444 201.307801 
L 208.135544 200.39565 
L 202.717171 199.910304 
L 198.299025 199.736277 
L 194.415216 199.804496 
L 191.608932 200.082106 
L 189.846116 200.438368 
L 188.145645 200.973917 
L 186.527207 201.689444 
L 185.090868 202.554769 
L 184.397404 203.175921 
L 184.314038 203.474976 
L 184.478469 203.684681 
L 184.908767 203.839684 
L 185.846895 203.730276 
L 194.143349 202.733649 
L 199.080232 202.437633 
L 206.049061 202.281223 
L 211.514801 202.382739 
L 218.983584 202.743938 
L 224.424499 203.247609 
L 227.31143 203.476555 
L 227.31143 203.476555 
" style="fill:none;opacity:0.7;stroke:#000000;stroke-linecap:square;stroke-width:1.2;"/>
   </g>
   <g id="line2d_21">
    <path clip-path="url(#p82e5bfcce7)" d="M 227.311563 187.975168 
L 220.451555 187.056395 
L 203.219513 185.069979 
L 198.333748 184.780481 
L 193.950725 184.721377 
L 190.631406 184.879143 
L 188.333423 185.179561 
L 186.702575 185.574278 
L 185.673947 186.012601 
L 184.857732 186.565305 
L 184.422164 187.120904 
L 184.299394 187.59995 
L 184.402577 187.988602 
L 184.770873 188.344423 
L 185.634637 188.783056 
L 187.292096 189.255016 
L 189.566638 189.688627 
L 192.378211 189.992606 
L 196.241119 190.143664 
L 201.126343 190.086486 
L 207.024198 189.764035 
L 215.926465 189.00701 
L 227.311995 188.016259 
L 227.311995 188.016259 
" style="fill:none;opacity:0.7;stroke:#000000;stroke-linecap:square;stroke-width:1.2;"/>
   </g>
   <g id="line2d_22">
    <path clip-path="url(#p82e5bfcce7)" d="M 227.310314 172.517862 
L 223.452443 171.90827 
L 200.341756 168.643392 
L 196.977435 168.476251 
L 194.146765 168.537892 
L 191.843285 168.78 
L 189.601502 169.229363 
L 187.904431 169.757016 
L 186.349743 170.45667 
L 185.076356 171.295859 
L 184.491787 171.941495 
L 184.304691 172.527546 
L 184.398461 172.712997 
L 184.837082 172.898276 
L 186.487796 173.106919 
L 190.39249 173.300892 
L 201.850104 173.639661 
L 210.805498 173.658117 
L 217.2212 173.485922 
L 221.585914 173.135052 
L 227.311278 172.507811 
L 227.311278 172.507811 
" style="fill:none;opacity:0.7;stroke:#000000;stroke-linecap:square;stroke-width:1.2;"/>
   </g>
   <g id="line2d_23">
    <path clip-path="url(#p82e5bfcce7)" d="M 227.3112 156.974532 
L 213.148409 155.653803 
L 204.378769 155.044651 
L 198.067527 154.813033 
L 193.25705 154.837714 
L 189.95376 155.041318 
L 187.698777 155.344941 
L 186.063154 155.741608 
L 185.082521 156.140082 
L 184.527738 156.577025 
L 184.30499 157.039736 
L 184.404906 157.189856 
L 184.812141 157.31014 
L 187.521514 157.367645 
L 201.248737 157.255295 
L 227.311842 157.075988 
L 227.311842 157.075988 
" style="fill:none;opacity:0.7;stroke:#000000;stroke-linecap:square;stroke-width:1.2;"/>
   </g>
   <g id="line2d_24">
    <path clip-path="url(#p82e5bfcce7)" d="M 227.309907 141.553086 
L 212.297109 139.166586 
L 206.447155 138.62864 
L 201.085709 138.347782 
L 196.733445 138.334294 
L 193.390649 138.513497 
L 190.110438 138.91909 
L 187.907267 139.394705 
L 186.288278 139.95108 
L 185.271751 140.459378 
L 184.579174 141.032287 
L 184.310212 141.491952 
L 184.39103 141.74031 
L 184.738128 141.950123 
L 185.771729 142.178748 
L 187.521855 142.357091 
L 190.875845 142.40766 
L 197.763044 142.275326 
L 225.398519 141.466873 
L 227.311697 141.544089 
L 227.311697 141.544089 
" style="fill:none;opacity:0.7;stroke:#000000;stroke-linecap:square;stroke-width:1.2;"/>
   </g>
   <g id="line2d_25">
    <path clip-path="url(#p82e5bfcce7)" d="M 278.921714 218.962402 
L 274.590642 218.523043 
L 262.892661 217.212427 
L 256.562382 216.756323 
L 251.224526 216.580996 
L 246.890911 216.650223 
L 243.071527 216.92084 
L 239.819286 217.357516 
L 238.12132 217.759715 
L 236.648974 218.316265 
L 235.984036 218.793667 
L 235.949003 219.04047 
L 236.071039 219.167949 
L 236.783814 219.463247 
L 238.43381 219.752122 
L 240.724479 219.934075 
L 245.579838 220.034092 
L 252.433705 219.956907 
L 263.259036 219.577422 
L 278.922165 218.960985 
L 278.922165 218.960985 
" style="fill:none;opacity:0.7;stroke:#000000;stroke-linecap:square;stroke-width:1.2;"/>
   </g>
   <g id="line2d_26">
    <path clip-path="url(#p82e5bfcce7)" d="M 278.92197 203.446464 
L 274.553817 202.470298 
L 270.690783 201.797695 
L 261.288078 200.696273 
L 258.408924 200.578563 
L 254.47344 200.34607 
L 248.981869 200.281053 
L 245.555644 200.413256 
L 241.664599 200.807114 
L 238.891725 201.32204 
L 237.272727 201.843598 
L 236.21097 202.398134 
L 235.931067 202.729444 
L 236.057162 202.896656 
L 236.536143 203.13943 
L 237.4871 203.384295 
L 239.257992 203.474056 
L 243.724166 203.384469 
L 260.326395 202.814045 
L 268.394593 202.939856 
L 275.912184 203.246022 
L 278.92197 203.476572 
L 278.92197 203.476572 
" style="fill:none;opacity:0.7;stroke:#000000;stroke-linecap:square;stroke-width:1.2;"/>
   </g>
   <g id="line2d_27">
    <path clip-path="url(#p82e5bfcce7)" d="M 278.809356 187.155892 
L 270.493754 186.402263 
L 257.276641 185.196359 
L 251.446659 184.896591 
L 247.125885 184.892734 
L 243.821671 185.095615 
L 241.06783 185.480524 
L 238.908519 185.992172 
L 237.430689 186.58584 
L 236.516478 187.153879 
L 236.048141 187.666593 
L 235.932769 188.080731 
L 236.092184 188.335241 
L 236.404782 188.497288 
L 237.415652 188.75936 
L 239.650704 188.988935 
L 242.982094 189.071193 
L 252.327711 188.987463 
L 272.546704 188.756644 
L 278.89331 188.816798 
L 278.89331 188.816798 
" style="fill:none;opacity:0.7;stroke:#000000;stroke-linecap:square;stroke-width:1.2;"/>
   </g>
   <g id="line2d_28">
    <path clip-path="url(#p82e5bfcce7)" d="M 278.921142 172.51337 
L 276.087831 172.198297 
L 272.24168 171.49507 
L 259.515381 168.938306 
L 255.654153 168.42131 
L 252.309279 168.212364 
L 249.458975 168.263309 
L 246.589606 168.530142 
L 243.249976 169.068655 
L 240.501882 169.725818 
L 238.33498 170.468271 
L 236.891962 171.202792 
L 236.029282 171.920721 
L 235.9008 172.302096 
L 235.968284 172.631532 
L 236.301903 172.987224 
L 237.046143 173.311787 
L 238.779616 173.692926 
L 241.645589 174.066784 
L 246.062931 174.432278 
L 251.513256 174.64034 
L 257.987826 174.656051 
L 263.428072 174.472386 
L 267.305796 174.117188 
L 271.703439 173.462008 
L 277.047152 172.653556 
L 278.922185 172.510351 
L 278.922185 172.510351 
" style="fill:none;opacity:0.7;stroke:#000000;stroke-linecap:square;stroke-width:1.2;"/>
   </g>
   <g id="line2d_29">
    <path clip-path="url(#p82e5bfcce7)" d="M 278.921963 157.027106 
L 275.970241 156.677352 
L 271.977466 155.947043 
L 263.90414 154.188665 
L 257.890104 152.852185 
L 253.888697 152.169531 
L 250.398411 151.769598 
L 247.456758 151.651168 
L 245.033241 151.760969 
L 242.656341 152.068118 
L 240.910002 152.507181 
L 239.30525 153.169967 
L 238.203595 153.831176 
L 237.247822 154.607781 
L 236.449677 155.510739 
L 235.914233 156.421007 
L 235.885831 156.952936 
L 236.088096 157.238894 
L 236.630649 157.5164 
L 237.659106 157.624295 
L 239.512044 157.507426 
L 242.209622 157.210191 
L 243.311207 156.808582 
L 244.957251 156.126828 
L 246.708876 155.738377 
L 250.185959 155.291554 
L 253.105871 155.123119 
L 255.550877 155.211696 
L 263.236636 155.854684 
L 274.955113 157.038238 
L 277.935989 157.065817 
L 278.921939 157.027531 
L 278.921939 157.027531 
" style="fill:none;opacity:0.7;stroke:#000000;stroke-linecap:square;stroke-width:1.2;"/>
   </g>
   <g id="line2d_30">
    <path clip-path="url(#p82e5bfcce7)" d="M 278.921606 141.546469 
L 274.093686 140.668388 
L 267.794363 139.535743 
L 262.454926 138.820961 
L 257.584293 138.387976 
L 252.709182 138.181564 
L 248.333553 138.216008 
L 244.49446 138.4644 
L 241.211518 138.914385 
L 239.035018 139.43548 
L 237.450898 140.035386 
L 236.59933 140.544085 
L 236.049096 141.131623 
L 235.929235 141.555809 
L 236.098255 141.838006 
L 236.530858 142.021495 
L 238.218373 142.262986 
L 240.530515 142.337559 
L 246.43467 142.223328 
L 255.859755 141.780423 
L 266.762179 141.320453 
L 273.167054 141.255365 
L 277.031111 141.383766 
L 278.922245 141.548434 
L 278.922245 141.548434 
" style="fill:none;opacity:0.7;stroke:#000000;stroke-linecap:square;stroke-width:1.2;"/>
   </g>
   <g id="line2d_31">
    <path clip-path="url(#p82e5bfcce7)" d="M 330.530256 218.965624 
L 327.793373 218.060158 
L 322.511517 216.606455 
L 316.696056 215.224011 
L 312.841766 214.525187 
L 309.468424 214.137796 
L 306.074194 213.976359 
L 302.675604 214.039576 
L 299.300933 214.333601 
L 295.971861 214.875027 
L 293.197646 215.549473 
L 291.034146 216.304122 
L 289.442193 217.0697 
L 288.465907 217.71969 
L 287.764087 218.403861 
L 287.524887 218.942976 
L 287.608911 219.159279 
L 288.048445 219.498455 
L 289.031012 219.888594 
L 290.223684 220.129273 
L 292.532751 220.324822 
L 295.419202 220.333585 
L 299.353711 220.108763 
L 321.380851 218.46274 
L 325.309039 218.453251 
L 328.186919 218.631408 
L 330.53475 218.948206 
L 330.53475 218.948206 
" style="fill:none;opacity:0.7;stroke:#000000;stroke-linecap:square;stroke-width:1.2;"/>
   </g>
   <g id="line2d_32">
    <path clip-path="url(#p82e5bfcce7)" d="M 330.532821 203.476092 
L 330.43095 203.397264 
L 327.401168 202.563903 
L 322.936921 201.158316 
L 315.50561 198.7438 
L 312.551429 198.028268 
L 309.603334 197.555417 
L 307.140565 197.381944 
L 304.64614 197.402876 
L 301.630772 197.654749 
L 298.631634 198.119168 
L 295.703467 198.796742 
L 293.327931 199.544274 
L 291.092071 200.473786 
L 289.466253 201.382034 
L 288.431596 202.136907 
L 287.744859 202.883171 
L 287.53786 203.405236 
L 287.599855 203.704982 
L 287.81224 203.845574 
L 288.767906 204.128013 
L 291.191403 204.427396 
L 295.322388 204.647004 
L 301.615011 204.76083 
L 308.981374 204.668091 
L 315.255592 204.405024 
L 319.922499 203.987864 
L 325.624501 203.462221 
L 328.628548 203.404487 
L 330.534829 203.483606 
L 330.534829 203.483606 
" style="fill:none;opacity:0.7;stroke:#000000;stroke-linecap:square;stroke-width:1.2;"/>
   </g>
   <g id="line2d_33">
    <path clip-path="url(#p82e5bfcce7)" d="M 330.527346 187.987931 
L 312.943978 185.123154 
L 308.580528 184.702899 
L 304.714311 184.528271 
L 300.857096 184.581483 
L 297.494511 184.836353 
L 294.181671 185.295553 
L 291.433026 185.88875 
L 289.310646 186.556048 
L 288.275649 187.064428 
L 287.608864 187.622894 
L 287.538235 188.016054 
L 287.683725 188.256534 
L 288.234313 188.589436 
L 289.337229 188.885911 
L 291.592806 189.236053 
L 295.453458 189.56634 
L 299.829359 189.706741 
L 304.7134 189.614285 
L 310.103673 189.269385 
L 318.001286 188.499258 
L 324.35573 187.935969 
L 327.702204 187.852823 
L 330.534674 187.984004 
L 330.534674 187.984004 
" style="fill:none;opacity:0.7;stroke:#000000;stroke-linecap:square;stroke-width:1.2;"/>
   </g>
   <g id="line2d_34">
    <path clip-path="url(#p82e5bfcce7)" d="M 330.531538 172.473939 
L 323.726557 171.522135 
L 313.992238 170.168378 
L 309.172756 169.739822 
L 304.831766 169.590284 
L 300.46984 169.653591 
L 295.652417 169.9484 
L 292.863677 170.307158 
L 290.634662 170.779178 
L 289.033471 171.315463 
L 288.094159 171.788547 
L 287.607286 172.248952 
L 287.547011 172.586455 
L 287.756562 172.804191 
L 288.637592 173.021017 
L 291.443903 173.329906 
L 299.271737 173.995166 
L 304.606412 174.237576 
L 308.95505 174.199966 
L 313.81378 173.93567 
L 323.141128 173.136846 
L 330.532488 172.544185 
L 330.532488 172.544185 
" style="fill:none;opacity:0.7;stroke:#000000;stroke-linecap:square;stroke-width:1.2;"/>
   </g>
   <g id="line2d_35">
    <path clip-path="url(#p82e5bfcce7)" d="M 330.532702 157.025398 
L 326.199379 156.236014 
L 317.918389 154.797802 
L 312.583136 154.101694 
L 308.225065 153.757893 
L 303.838755 153.639762 
L 299.467583 153.725884 
L 295.639484 154.032073 
L 292.837416 154.454803 
L 290.641885 154.985465 
L 289.137559 155.578273 
L 288.183228 156.170815 
L 287.56871 156.799343 
L 287.568367 157.128427 
L 287.895186 157.398873 
L 288.692076 157.693425 
L 290.901173 158.017085 
L 294.25406 158.247588 
L 299.64516 158.370873 
L 305.542247 158.27498 
L 310.933476 157.97231 
L 325.189699 156.973087 
L 329.562641 156.991478 
L 330.532218 157.027379 
L 330.532218 157.027379 
" style="fill:none;opacity:0.7;stroke:#000000;stroke-linecap:square;stroke-width:1.2;"/>
   </g>
   <g id="line2d_36">
    <path clip-path="url(#p82e5bfcce7)" d="M 330.532181 141.41998 
L 314.324731 139.392095 
L 310.463022 139.10693 
L 305.08297 138.962004 
L 299.697026 139.041081 
L 294.826724 139.31347 
L 291.505121 139.686737 
L 289.328266 140.129183 
L 288.349777 140.488598 
L 287.768086 140.914266 
L 287.549009 141.323971 
L 287.550413 141.768308 
L 287.764306 142.156834 
L 288.339433 142.590913 
L 289.289468 142.956495 
L 291.473409 143.39408 
L 294.794498 143.77229 
L 299.17041 144.027684 
L 304.557409 144.126276 
L 309.943431 144.007281 
L 314.283907 143.701589 
L 321.148588 142.855389 
L 330.532443 141.673104 
L 330.532443 141.673104 
" style="fill:none;opacity:0.7;stroke:#000000;stroke-linecap:square;stroke-width:1.2;"/>
   </g>
  </g>
 </g>
 <defs>
  <clipPath id="p82e5bfcce7">
   <rect height="329.04" width="329.04" x="15.48" y="15.48"/>
  </clipPath>
 </defs>
</svg>
