<?xml version="1.0" encoding="utf-8" standalone="no"?>
<!DOCTYPE svg PUBLIC "-//W3C//DTD SVG 1.1//EN"
  "http://www.w3.org/Graphics/SVG/1.1/DTD/svg11.dtd">
<!-- Created with matplotlib (http://matplotlib.org/) -->
<svg height="360pt" version="1.1" viewBox="0 0 360 360" width="360pt" xmlns="http://www.w3.org/2000/svg" xmlns:xlink="http://www.w3.org/1999/xlink">
 <defs>
  <style type="text/css">
*{stroke-linecap:butt;stroke-linejoin:round;}
  </style>
 </defs>
 <g id="figure_1">
  <g id="patch_1">
   <path d="M 0 360 
L 360 360 
L 360 0 
L 0 0 
z
" style="fill:#ffffff;"/>
  </g>
  <g id="axes_1">
   <g id="line2d_1">
    <path clip-path="url(#pf1bd98530f)" d="M 78.713898 219.560356 
L 71.477828 217.545655 
L 65.12437 216.034029 
L 60.107649 215.051078 
L 55.337337 214.346319 
L 50.774462 213.914608 
L 46.181535 213.705116 
L 42.438976 213.721177 
L 39.830216 213.912594 
L 37.320499 214.348157 
L 35.339604 214.940828 
L 33.466047 215.759759 
L 31.787735 216.774895 
L 30.633139 217.725724 
L 30.02896 218.408607 
L 29.674227 219.024878 
L 29.598706 219.608857 
L 29.811822 219.919259 
L 30.16183 220.04481 
L 30.72417 220.044988 
L 32.114224 219.748322 
L 38.1753 218.157259 
L 40.556044 217.769457 
L 43.481314 217.519452 
L 46.829451 217.467801 
L 51.371843 217.641235 
L 57.682027 218.14326 
L 75.917014 219.781395 
L 78.692088 219.815938 
L 78.692088 219.815938 
" style="fill:none;opacity:0.7;stroke:#000000;stroke-linecap:square;stroke-width:1.2;"/>
   </g>
   <g id="line2d_2">
    <path clip-path="url(#pf1bd98530f)" d="M 78.624801 200.63851 
L 75.936443 199.770196 
L 70.89104 198.387852 
L 66.336081 197.325625 
L 61.289046 196.367072 
L 56.718327 195.737504 
L 52.903279 195.409591 
L 48.671589 195.243738 
L 44.177211 195.262573 
L 40.296273 195.498216 
L 37.788022 195.855193 
L 35.914011 196.290994 
L 34.013662 196.939146 
L 32.342507 197.751347 
L 31.135224 198.564959 
L 30.177215 199.496893 
L 29.683639 200.343524 
L 29.636625 200.886401 
L 29.772842 201.120725 
L 30.003871 201.252137 
L 30.481464 201.31191 
L 31.751281 201.145158 
L 40.056866 199.538047 
L 43.410641 199.206745 
L 47.370716 199.048195 
L 53.095194 199.068027 
L 58.652233 199.287115 
L 66.646991 199.856453 
L 78.604949 200.927184 
L 78.604949 200.927184 
" style="fill:none;opacity:0.7;stroke:#000000;stroke-linecap:square;stroke-width:1.2;"/>
   </g>
   <g id="line2d_3">
    <path clip-path="url(#pf1bd98530f)" d="M 78.596352 181.746293 
L 76.154959 180.865791 
L 71.868952 179.573016 
L 66.738166 178.275166 
L 61.854009 177.294121 
L 57.957482 176.723504 
L 54.091735 176.375534 
L 49.991685 176.246157 
L 45.896052 176.325791 
L 41.822526 176.614404 
L 38.798644 177.034918 
L 36.211881 177.617175 
L 34.272053 178.247577 
L 32.506575 179.033396 
L 31.234221 179.804621 
L 30.201017 180.699007 
L 29.667051 181.489356 
L 29.58354 181.990759 
L 29.699547 182.225756 
L 29.933445 182.367299 
L 30.417199 182.439549 
L 31.67714 182.327024 
L 42.541592 180.644985 
L 47.004041 180.330428 
L 53.354945 180.12983 
L 58.767515 180.161081 
L 64.413143 180.425685 
L 70.847716 180.978181 
L 76.953214 181.724696 
L 78.483272 182.000697 
L 78.483272 182.000697 
" style="fill:none;opacity:0.7;stroke:#000000;stroke-linecap:square;stroke-width:1.2;"/>
   </g>
   <g id="line2d_4">
    <path clip-path="url(#pf1bd98530f)" d="M 78.668197 162.852462 
L 77.424164 162.326032 
L 73.630205 161.008928 
L 69.049256 159.67215 
L 64.923362 158.66662 
L 60.923924 157.890504 
L 57.22177 157.381019 
L 53.793618 157.117377 
L 50.12459 157.060391 
L 45.884649 157.244926 
L 41.949474 157.650364 
L 38.548456 158.249583 
L 35.865345 158.95992 
L 33.44399 159.86326 
L 31.624142 160.806902 
L 30.491318 161.621508 
L 29.696519 162.504688 
L 29.510873 163.055388 
L 29.631094 163.326034 
L 29.88539 163.460397 
L 30.738392 163.529239 
L 32.865887 163.305177 
L 46.117248 161.455519 
L 51.939646 160.979816 
L 56.875865 160.784961 
L 61.213774 160.828146 
L 65.700379 161.08769 
L 70.643955 161.601822 
L 75.176783 162.284573 
L 78.039263 162.904074 
L 78.445648 163.055859 
L 78.445648 163.055859 
" style="fill:none;opacity:0.7;stroke:#000000;stroke-linecap:square;stroke-width:1.2;"/>
   </g>
   <g id="line2d_5">
    <path clip-path="url(#pf1bd98530f)" d="M 78.811084 143.953835 
L 77.754471 143.447626 
L 74.244453 142.118568 
L 69.977743 140.768784 
L 66.015983 139.712722 
L 62.098638 138.864633 
L 58.299267 138.262455 
L 54.771411 137.935932 
L 51.611999 137.850569 
L 47.764302 137.991987 
L 44.261045 138.329428 
L 41.058093 138.826946 
L 38.28497 139.443688 
L 35.330269 140.355247 
L 32.984972 141.343323 
L 31.101847 142.419684 
L 30.01903 143.286785 
L 29.529932 143.913159 
L 29.496105 144.297284 
L 29.710054 144.466881 
L 30.49107 144.591189 
L 32.45921 144.529101 
L 36.608102 144.091173 
L 41.940181 143.292097 
L 52.571429 141.601386 
L 56.119938 141.304659 
L 59.600167 141.218623 
L 63.709303 141.370553 
L 68.001674 141.788845 
L 71.951245 142.387037 
L 75.360419 143.08417 
L 77.896363 143.800682 
L 78.564225 144.110949 
L 78.564225 144.110949 
" style="fill:none;opacity:0.7;stroke:#000000;stroke-linecap:square;stroke-width:1.2;"/>
   </g>
   <g id="line2d_6">
    <path clip-path="url(#pf1bd98530f)" d="M 141.333093 219.561857 
L 137.81088 218.778791 
L 128.521356 216.780807 
L 122.117246 215.631824 
L 117.005246 214.93837 
L 112.327869 214.525913 
L 107.84989 214.361129 
L 104.578718 214.447497 
L 101.935016 214.725106 
L 99.372348 215.251854 
L 97.336061 215.907884 
L 95.497322 216.735092 
L 94.096382 217.569813 
L 92.967604 218.446202 
L 92.17601 219.345471 
L 92.111094 219.705833 
L 92.285174 219.829102 
L 92.982177 219.88429 
L 95.92536 219.675879 
L 102.347274 219.278685 
L 108.212205 219.118914 
L 115.013973 219.156902 
L 126.525615 219.506554 
L 136.838935 219.739601 
L 141.315792 219.643214 
L 141.386896 219.639912 
L 141.386896 219.639912 
" style="fill:none;opacity:0.7;stroke:#000000;stroke-linecap:square;stroke-width:1.2;"/>
   </g>
   <g id="line2d_7">
    <path clip-path="url(#pf1bd98530f)" d="M 140.886778 200.654182 
L 133.853033 199.124175 
L 127.573857 197.954691 
L 121.284207 197.015369 
L 116.368778 196.498277 
L 111.770496 196.209829 
L 106.715407 196.122061 
L 103.136384 196.274048 
L 100.530158 196.573467 
L 97.923782 197.11531 
L 96.182549 197.672147 
L 94.452718 198.463758 
L 93.345219 199.179485 
L 92.471001 200.002092 
L 92.14062 200.614424 
L 92.201 200.906096 
L 92.391543 201.046017 
L 92.847872 201.157111 
L 94.119115 201.186545 
L 98.102349 200.931815 
L 105.355716 200.481287 
L 111.215216 200.333597 
L 119.746522 200.385262 
L 141.069397 200.804258 
L 141.069397 200.804258 
" style="fill:none;opacity:0.7;stroke:#000000;stroke-linecap:square;stroke-width:1.2;"/>
   </g>
   <g id="line2d_8">
    <path clip-path="url(#pf1bd98530f)" d="M 140.784039 181.776005 
L 136.020638 180.579369 
L 129.951552 179.295848 
L 124.521904 178.376631 
L 119.732165 177.788544 
L 115.51353 177.475271 
L 110.546928 177.341974 
L 106.197635 177.420538 
L 102.75563 177.665493 
L 99.631188 178.113355 
L 97.251179 178.673042 
L 95.425065 179.301713 
L 94.092523 179.94058 
L 92.977682 180.698771 
L 92.340826 181.382156 
L 92.167244 181.845854 
L 92.243785 182.076478 
L 92.45675 182.234424 
L 93.248982 182.40036 
L 94.67849 182.422286 
L 99.233402 182.154164 
L 108.04117 181.62545 
L 115.21155 181.452117 
L 125.226169 181.45073 
L 135.007735 181.673531 
L 140.934626 181.946607 
L 140.934626 181.946607 
" style="fill:none;opacity:0.7;stroke:#000000;stroke-linecap:square;stroke-width:1.2;"/>
   </g>
   <g id="line2d_9">
    <path clip-path="url(#pf1bd98530f)" d="M 140.981743 162.912732 
L 137.274242 161.808347 
L 132.359289 160.575238 
L 127.161256 159.512426 
L 122.563228 158.810408 
L 118.297175 158.405282 
L 114.366025 158.259125 
L 109.819003 158.320565 
L 105.30966 158.600898 
L 101.844426 159.018828 
L 99.044062 159.545845 
L 96.497291 160.242941 
L 94.545457 161.010107 
L 93.331834 161.684578 
L 92.448186 162.426189 
L 92.166826 162.943423 
L 92.247636 163.226436 
L 92.48477 163.389632 
L 93.315442 163.572396 
L 95.318461 163.62726 
L 99.139363 163.440292 
L 113.971428 162.518656 
L 122.251343 162.339704 
L 129.852033 162.396414 
L 136.838176 162.661467 
L 140.864866 162.998186 
L 141.029453 163.033014 
L 141.029453 163.033014 
" style="fill:none;opacity:0.7;stroke:#000000;stroke-linecap:square;stroke-width:1.2;"/>
   </g>
   <g id="line2d_10">
    <path clip-path="url(#pf1bd98530f)" d="M 141.251084 144.057021 
L 138.812014 143.201859 
L 134.420194 141.918591 
L 129.636897 140.767282 
L 125.213689 139.934569 
L 120.939684 139.383431 
L 117.102915 139.139101 
L 113.340658 139.127946 
L 108.765911 139.356307 
L 104.61216 139.781194 
L 100.871031 140.403378 
L 98.077188 141.075994 
L 95.451891 141.951013 
L 94.005103 142.600525 
L 92.848602 143.299187 
L 92.289022 143.827343 
L 92.184819 144.150834 
L 92.300426 144.337861 
L 92.849788 144.5786 
L 94.004394 144.771432 
L 96.27258 144.895365 
L 99.46203 144.841009 
L 103.600683 144.544635 
L 117.976792 143.253189 
L 123.491979 143.084977 
L 129.231747 143.119147 
L 135.362992 143.385831 
L 139.784026 143.794577 
L 141.195833 144.087044 
L 141.195833 144.087044 
" style="fill:none;opacity:0.7;stroke:#000000;stroke-linecap:square;stroke-width:1.2;"/>
   </g>
   <g id="line2d_11">
    <path clip-path="url(#pf1bd98530f)" d="M 204.215701 219.545687 
L 202.678786 219.257682 
L 188.485523 216.264624 
L 183.043875 215.405407 
L 178.565634 214.922456 
L 174.528463 214.692494 
L 170.345813 214.688169 
L 167.119718 214.894075 
L 164.287351 215.279343 
L 162.091302 215.750693 
L 160.016973 216.378049 
L 158.035452 217.205016 
L 156.270464 218.231412 
L 155.159658 219.17836 
L 154.950956 219.614254 
L 155.081182 219.794939 
L 155.374702 219.906731 
L 156.420103 220.039069 
L 160.418207 220.168745 
L 169.10301 220.215528 
L 196.677743 219.944992 
L 203.008677 219.666858 
L 204.226975 219.56084 
L 204.226975 219.56084 
" style="fill:none;opacity:0.7;stroke:#000000;stroke-linecap:square;stroke-width:1.2;"/>
   </g>
   <g id="line2d_12">
    <path clip-path="url(#pf1bd98530f)" d="M 203.71177 200.631902 
L 185.585816 197.473654 
L 180.488813 196.891021 
L 176.005827 196.574486 
L 171.293496 196.462172 
L 167.568545 196.564621 
L 164.288994 196.852809 
L 161.722366 197.265886 
L 159.271458 197.893912 
L 157.420466 198.617502 
L 156.240699 199.283243 
L 155.344087 200.035403 
L 155.011112 200.616019 
L 155.097516 200.921391 
L 155.332214 201.083516 
L 155.884098 201.239339 
L 157.311121 201.371559 
L 160.679543 201.399554 
L 199.023934 200.835058 
L 203.790675 200.729357 
L 203.790675 200.729357 
" style="fill:none;opacity:0.7;stroke:#000000;stroke-linecap:square;stroke-width:1.2;"/>
   </g>
   <g id="line2d_13">
    <path clip-path="url(#pf1bd98530f)" d="M 203.426969 181.77758 
L 194.511618 179.989519 
L 188.042995 178.941098 
L 182.862203 178.312714 
L 178.226697 177.9549 
L 173.248458 177.796447 
L 168.948438 177.860707 
L 165.159154 178.132136 
L 161.8589 178.608966 
L 159.352444 179.200535 
L 157.441446 179.884269 
L 156.260223 180.504585 
L 155.386819 181.213299 
L 155.100852 181.677806 
L 155.136759 182.037442 
L 155.44134 182.283506 
L 156.349775 182.521434 
L 157.836884 182.648761 
L 161.60537 182.670873 
L 171.954168 182.364494 
L 189.85923 181.956091 
L 202.112129 181.858043 
L 203.475467 181.876856 
L 203.475467 181.876856 
" style="fill:none;opacity:0.7;stroke:#000000;stroke-linecap:square;stroke-width:1.2;"/>
   </g>
   <g id="line2d_14">
    <path clip-path="url(#pf1bd98530f)" d="M 203.480586 162.936619 
L 197.008224 161.461661 
L 191.970154 160.513809 
L 186.769503 159.746024 
L 182.407433 159.305741 
L 177.701086 159.066285 
L 172.760057 159.048258 
L 168.375033 159.224888 
L 164.390123 159.605586 
L 160.949469 160.181949 
L 158.419707 160.845478 
L 157.000233 161.386668 
L 155.849257 162.026564 
L 155.243137 162.593917 
L 155.099259 163.014156 
L 155.214609 163.258897 
L 155.496252 163.45426 
L 156.416277 163.716742 
L 158.442744 163.918317 
L 162.062094 163.962894 
L 168.18339 163.750684 
L 186.04735 163.022395 
L 195.570567 162.875082 
L 202.613509 162.973684 
L 203.474088 163.027804 
L 203.474088 163.027804 
" style="fill:none;opacity:0.7;stroke:#000000;stroke-linecap:square;stroke-width:1.2;"/>
   </g>
   <g id="line2d_15">
    <path clip-path="url(#pf1bd98530f)" d="M 203.69004 144.109063 
L 199.332111 142.974662 
L 194.1123 141.85349 
L 189.156287 141.018977 
L 184.681508 140.490854 
L 180.716989 140.234358 
L 176.659634 140.176361 
L 171.628313 140.32013 
L 166.814247 140.672245 
L 163.221398 141.138857 
L 160.452113 141.672353 
L 157.859587 142.391635 
L 156.109786 143.128983 
L 155.323336 143.682539 
L 155.111111 144.094706 
L 155.199625 144.312192 
L 155.581901 144.572385 
L 156.569793 144.873042 
L 158.566813 145.165058 
L 161.411996 145.322816 
L 165.129042 145.2816 
L 170.2623 144.953055 
L 182.56447 144.043676 
L 189.690643 143.786665 
L 196.573408 143.765175 
L 202.028237 143.955636 
L 203.648627 144.130315 
L 203.648627 144.130315 
" style="fill:none;opacity:0.7;stroke:#000000;stroke-linecap:square;stroke-width:1.2;"/>
   </g>
   <g id="line2d_16">
    <path clip-path="url(#pf1bd98530f)" d="M 267.38633 219.536728 
L 266.104413 219.280318 
L 253.900684 216.36868 
L 249.116883 215.511508 
L 245.007765 214.989051 
L 241.063928 214.710041 
L 236.947943 214.658865 
L 232.868316 214.849373 
L 229.39002 215.223797 
L 226.469037 215.724629 
L 223.706048 216.403073 
L 221.224012 217.255907 
L 219.28131 218.192474 
L 218.251633 218.89447 
L 217.805438 219.450116 
L 217.855438 219.709445 
L 218.157797 219.91918 
L 219.239372 220.214223 
L 221.630507 220.551792 
L 226.236795 220.928574 
L 230.654985 221.088763 
L 237.255733 221.082491 
L 248.457159 220.815553 
L 257.94898 220.381244 
L 264.212067 219.893543 
L 267.31812 219.496296 
L 267.31812 219.496296 
" style="fill:none;opacity:0.7;stroke:#000000;stroke-linecap:square;stroke-width:1.2;"/>
   </g>
   <g id="line2d_17">
    <path clip-path="url(#pf1bd98530f)" d="M 266.897301 200.625584 
L 264.144907 200.13088 
L 254.452311 198.343197 
L 248.221175 197.425977 
L 243.163678 196.915045 
L 238.446895 196.680832 
L 233.887431 196.687475 
L 229.499476 196.929474 
L 226.081814 197.329127 
L 223.098681 197.903322 
L 221.136998 198.467675 
L 219.695833 199.054692 
L 218.613497 199.695783 
L 218.01552 200.279345 
L 217.881142 200.720891 
L 218.018335 200.970213 
L 218.328404 201.169835 
L 219.440776 201.471722 
L 221.835267 201.741905 
L 226.466389 201.960267 
L 232.799813 202.030758 
L 242.263213 201.904805 
L 252.683939 201.555221 
L 262.530478 201.011397 
L 266.892905 200.704406 
L 266.892905 200.704406 
" style="fill:none;opacity:0.7;stroke:#000000;stroke-linecap:square;stroke-width:1.2;"/>
   </g>
   <g id="line2d_18">
    <path clip-path="url(#pf1bd98530f)" d="M 266.530743 181.77962 
L 250.79975 179.218058 
L 245.068836 178.579073 
L 240.233683 178.255764 
L 235.194682 178.159595 
L 230.847748 178.288637 
L 226.9546 178.618318 
L 223.69962 179.118656 
L 221.246046 179.723336 
L 219.810107 180.25449 
L 218.710477 180.865188 
L 218.118763 181.429513 
L 217.975118 181.889745 
L 218.115948 182.167439 
L 218.437392 182.389023 
L 219.494906 182.703689 
L 221.012027 182.911223 
L 224.218107 183.10241 
L 229.410135 183.167583 
L 237.853938 183.022874 
L 249.687073 182.577981 
L 266.515505 181.853911 
L 266.515505 181.853911 
" style="fill:none;opacity:0.7;stroke:#000000;stroke-linecap:square;stroke-width:1.2;"/>
   </g>
   <g id="line2d_19">
    <path clip-path="url(#pf1bd98530f)" d="M 266.408379 162.956425 
L 256.960679 161.250689 
L 250.685053 160.370449 
L 245.16172 159.828084 
L 240.44403 159.577822 
L 235.493402 159.521805 
L 230.539324 159.681981 
L 226.483044 160.040097 
L 223.294943 160.536976 
L 220.718267 161.181298 
L 219.35573 161.712221 
L 218.438516 162.280202 
L 218.044135 162.77268 
L 218.033303 163.135219 
L 218.322011 163.462045 
L 218.795465 163.69486 
L 219.941639 163.989385 
L 222.170824 164.261225 
L 225.728719 164.421902 
L 231.013048 164.40618 
L 238.646419 164.137957 
L 265.401707 162.959682 
L 266.347108 162.992405 
L 266.347108 162.992405 
" style="fill:none;opacity:0.7;stroke:#000000;stroke-linecap:square;stroke-width:1.2;"/>
   </g>
   <g id="line2d_20">
    <path clip-path="url(#pf1bd98530f)" d="M 266.475213 144.152668 
L 259.741969 142.798379 
L 253.944224 141.885091 
L 248.819807 141.291751 
L 244.007293 140.951789 
L 239.032038 140.8289 
L 233.150782 140.927106 
L 228.531911 141.22334 
L 224.818985 141.678408 
L 221.608268 142.308333 
L 219.687444 142.888424 
L 218.636376 143.387919 
L 218.14463 143.825561 
L 218.070869 144.199003 
L 218.251651 144.467946 
L 218.638615 144.721987 
L 219.724588 145.102597 
L 221.713341 145.469117 
L 224.445811 145.707901 
L 228.007322 145.776619 
L 232.848711 145.610693 
L 240.34144 145.083913 
L 252.506582 144.223302 
L 259.541362 143.977458 
L 264.61991 144.01457 
L 266.403306 144.166963 
L 266.403306 144.166963 
" style="fill:none;opacity:0.7;stroke:#000000;stroke-linecap:square;stroke-width:1.2;"/>
   </g>
   <g id="line2d_21">
    <path clip-path="url(#pf1bd98530f)" d="M 330.534829 219.516425 
L 330.201262 219.465139 
L 320.815952 216.810316 
L 316.09163 215.794781 
L 312.088372 215.159706 
L 308.284498 214.780787 
L 304.348574 214.6332 
L 300.30034 214.721003 
L 296.222233 215.020373 
L 292.348796 215.499976 
L 288.768684 216.154028 
L 285.761975 216.919129 
L 283.688659 217.618527 
L 281.902563 218.430364 
L 281.075002 218.997324 
L 280.799996 219.391955 
L 280.829831 219.677136 
L 281.154392 219.996443 
L 281.671383 220.25687 
L 283.002691 220.679631 
L 285.648518 221.222735 
L 288.956239 221.669334 
L 292.879627 221.98511 
L 297.360802 222.136258 
L 303.017099 222.108476 
L 310.308187 221.829609 
L 316.8651 221.372081 
L 322.88829 220.755426 
L 327.309429 220.13138 
L 330.446955 219.515927 
L 330.446955 219.515927 
" style="fill:none;opacity:0.7;stroke:#000000;stroke-linecap:square;stroke-width:1.2;"/>
   </g>
   <g id="line2d_22">
    <path clip-path="url(#pf1bd98530f)" d="M 330.172985 200.632562 
L 328.669307 200.352227 
L 320.363506 198.625734 
L 314.746599 197.70522 
L 310.030483 197.147339 
L 305.340846 196.83538 
L 301.329833 196.775026 
L 296.532267 196.928718 
L 291.779413 197.306675 
L 287.822169 197.845135 
L 284.999745 198.427249 
L 283.068832 199.00146 
L 281.603558 199.67708 
L 280.977838 200.205445 
L 280.809405 200.603536 
L 280.85997 200.852145 
L 281.23226 201.230997 
L 281.791616 201.507502 
L 283.142177 201.901996 
L 285.795846 202.357711 
L 289.895202 202.767038 
L 294.570288 203.001444 
L 300.184231 203.058777 
L 306.850284 202.894304 
L 313.514566 202.514109 
L 320.073923 201.938514 
L 327.492575 201.051825 
L 330.089069 200.722428 
L 330.089069 200.722428 
" style="fill:none;opacity:0.7;stroke:#000000;stroke-linecap:square;stroke-width:1.2;"/>
   </g>
   <g id="line2d_23">
    <path clip-path="url(#pf1bd98530f)" d="M 329.835115 181.776203 
L 326.145074 181.14469 
L 318.152094 179.842497 
L 311.725559 179.016626 
L 306.385478 178.561211 
L 301.856548 178.389046 
L 297.284099 178.424625 
L 292.397419 178.691557 
L 288.561892 179.102258 
L 285.135166 179.693745 
L 283.227795 180.195218 
L 281.750966 180.818991 
L 281.111819 181.330768 
L 280.915448 181.742255 
L 280.954834 182.03048 
L 281.109811 182.260421 
L 281.517457 182.56013 
L 282.33273 182.893033 
L 283.892063 183.263008 
L 286.44449 183.618115 
L 290.631529 183.935839 
L 295.696224 184.089312 
L 301.678079 184.043196 
L 308.368354 183.74584 
L 315.296421 183.211885 
L 329.764336 181.891745 
L 329.764336 181.891745 
" style="fill:none;opacity:0.7;stroke:#000000;stroke-linecap:square;stroke-width:1.2;"/>
   </g>
   <g id="line2d_24">
    <path clip-path="url(#pf1bd98530f)" d="M 329.581965 162.95516 
L 315.06255 160.857861 
L 308.519793 160.211548 
L 303.383108 159.92309 
L 298.23066 159.867023 
L 293.39055 160.039629 
L 289.505325 160.367967 
L 285.821122 160.890176 
L 283.292584 161.45753 
L 281.795827 162.033167 
L 281.1776 162.507824 
L 280.996239 162.898622 
L 281.044993 163.201208 
L 281.209977 163.441001 
L 281.63796 163.761846 
L 282.839764 164.227845 
L 284.273188 164.543696 
L 287.297452 164.919269 
L 291.344462 165.158167 
L 296.612025 165.23431 
L 301.859884 165.108544 
L 307.659738 164.753023 
L 315.994683 163.98685 
L 325.655463 163.141004 
L 329.352056 163.016206 
L 329.548605 163.032745 
L 329.548605 163.032745 
" style="fill:none;opacity:0.7;stroke:#000000;stroke-linecap:square;stroke-width:1.2;"/>
   </g>
   <g id="line2d_25">
    <path clip-path="url(#pf1bd98530f)" d="M 329.556647 144.145258 
L 320.473654 142.725261 
L 313.597066 141.915337 
L 307.969161 141.464721 
L 302.481455 141.252103 
L 296.875707 141.274305 
L 292.508718 141.478795 
L 288.297842 141.891976 
L 285.101307 142.398549 
L 282.714748 142.976596 
L 281.725512 143.371734 
L 281.186772 143.794197 
L 281.072418 144.138062 
L 281.16568 144.427558 
L 281.614096 144.858693 
L 282.238971 145.188688 
L 283.505536 145.606448 
L 285.627886 146.01765 
L 288.547997 146.32266 
L 292.705893 146.492747 
L 297.271592 146.453399 
L 302.149404 146.20053 
L 308.018128 145.664225 
L 321.680777 144.312901 
L 326.714532 144.079544 
L 329.26271 144.167777 
L 329.512286 144.212508 
L 329.512286 144.212508 
" style="fill:none;opacity:0.7;stroke:#000000;stroke-linecap:square;stroke-width:1.2;"/>
   </g>
  </g>
 </g>
 <defs>
  <clipPath id="pf1bd98530f">
   <rect height="329.04" width="329.04" x="15.48" y="15.48"/>
  </clipPath>
 </defs>
</svg>
