<?xml version="1.0" encoding="utf-8" standalone="no"?>
<!DOCTYPE svg PUBLIC "-//W3C//DTD SVG 1.1//EN"
  "http://www.w3.org/Graphics/SVG/1.1/DTD/svg11.dtd">
<!-- Created with matplotlib (http://matplotlib.org/) -->
<svg height="360pt" version="1.1" viewBox="0 0 360 360" width="360pt" xmlns="http://www.w3.org/2000/svg" xmlns:xlink="http://www.w3.org/1999/xlink">
 <defs>
  <style type="text/css">
*{stroke-linecap:butt;stroke-linejoin:round;}
  </style>
 </defs>
 <g id="figure_1">
  <g id="patch_1">
   <path d="M 0 360 
L 360 360 
L 360 0 
L 0 0 
z
" style="fill:#ffffff;"/>
  </g>
  <g id="axes_1">
   <g id="line2d_1">
    <path clip-path="url(#pce48a04261)" d="M 79.066504 219.654594 
L 73.257355 216.910372 
L 69.070906 215.288461 
L 65.54939 214.140659 
L 61.676374 213.11672 
L 57.750752 212.351461 
L 54.258629 211.90239 
L 50.176965 211.616174 
L 45.980615 211.538231 
L 42.578787 211.66114 
L 39.755621 211.969459 
L 37.522891 212.419627 
L 35.729278 212.963473 
L 33.82106 213.769975 
L 32.338664 214.597001 
L 30.71959 215.78498 
L 29.885368 216.6596 
L 29.544388 217.268722 
L 29.489146 217.955614 
L 29.732849 218.449103 
L 30.288573 218.910712 
L 31.219506 219.267088 
L 32.241715 219.424299 
L 34.338498 219.42572 
L 37.745457 219.106495 
L 44.347913 218.436068 
L 48.04966 218.279562 
L 52.546822 218.338681 
L 57.984976 218.666408 
L 76.471889 219.988543 
L 79.139347 219.940704 
L 79.139347 219.940704 
" style="fill:none;opacity:0.7;stroke:#000000;stroke-linecap:square;stroke-width:1.2;"/>
   </g>
   <g id="line2d_2">
    <path clip-path="url(#pce48a04261)" d="M 78.991924 200.813098 
L 76.518789 199.586615 
L 72.922277 198.073168 
L 69.386239 196.793565 
L 65.838259 195.692457 
L 61.995567 194.709377 
L 58.039327 193.941883 
L 54.509874 193.476917 
L 50.379853 193.179939 
L 46.195911 193.120652 
L 42.893682 193.271523 
L 40.083344 193.604982 
L 37.474278 194.170051 
L 35.531319 194.820668 
L 33.760786 195.655062 
L 32.26783 196.618179 
L 31.092383 197.650887 
L 30.250056 198.704461 
L 29.753155 199.776291 
L 29.673771 200.437955 
L 29.851509 200.997872 
L 30.138052 201.273205 
L 30.55582 201.451335 
L 31.308094 201.553618 
L 32.932931 201.476621 
L 37.146343 200.909312 
L 43.284536 200.115542 
L 48.11938 199.717363 
L 52.475755 199.556914 
L 57.108331 199.577614 
L 63.170873 199.846343 
L 71.802361 200.490684 
L 79.015772 201.065198 
L 79.015772 201.065198 
" style="fill:none;opacity:0.7;stroke:#000000;stroke-linecap:square;stroke-width:1.2;"/>
   </g>
   <g id="line2d_3">
    <path clip-path="url(#pce48a04261)" d="M 79.000019 181.954505 
L 77.599706 181.220707 
L 74.80757 179.995451 
L 70.478517 178.388416 
L 66.412432 177.119716 
L 62.618842 176.137528 
L 58.628992 175.331446 
L 55.043049 174.825176 
L 51.381176 174.527771 
L 47.911831 174.44266 
L 44.319084 174.569001 
L 41.558445 174.857212 
L 38.940768 175.344648 
L 36.444339 176.083231 
L 34.565819 176.894476 
L 33.032295 177.805431 
L 31.678583 178.91992 
L 30.812979 179.921824 
L 30.167845 181.043089 
L 29.929083 181.854432 
L 29.951273 182.431878 
L 30.112059 182.736327 
L 30.426094 182.960667 
L 30.923831 183.091874 
L 32.209629 183.108224 
L 34.926825 182.808422 
L 47.602907 181.142486 
L 53.23763 180.699871 
L 57.864229 180.527644 
L 62.963122 180.572283 
L 67.867186 180.833416 
L 73.29636 181.331491 
L 78.174668 181.981358 
L 78.951472 182.147028 
L 78.951472 182.147028 
" style="fill:none;opacity:0.7;stroke:#000000;stroke-linecap:square;stroke-width:1.2;"/>
   </g>
   <g id="line2d_4">
    <path clip-path="url(#pce48a04261)" d="M 79.067345 163.090152 
L 77.794942 162.404377 
L 75.13263 161.242234 
L 71.004449 159.726056 
L 67.034654 158.491187 
L 62.510086 157.329156 
L 58.597669 156.551884 
L 54.94439 156.041763 
L 51.228522 155.75355 
L 47.529251 155.701466 
L 44.038673 155.88761 
L 41.108475 156.268114 
L 38.459969 156.850709 
L 36.566345 157.456179 
L 34.684014 158.279248 
L 33.125284 159.212175 
L 31.760953 160.349174 
L 30.91916 161.339085 
L 30.311369 162.410676 
L 30.102548 163.149628 
L 30.148039 163.71307 
L 30.347856 164.030455 
L 30.717746 164.275823 
L 31.284256 164.446225 
L 32.634622 164.563709 
L 34.914166 164.471148 
L 38.61494 164.0436 
L 43.75479 163.194554 
L 53.098716 161.602336 
L 56.877523 161.181619 
L 60.638193 160.982464 
L 64.67059 161.02642 
L 68.563994 161.296133 
L 72.511536 161.771225 
L 76.275473 162.425341 
L 78.409198 162.957084 
L 78.929148 163.166007 
L 78.929148 163.166007 
" style="fill:none;opacity:0.7;stroke:#000000;stroke-linecap:square;stroke-width:1.2;"/>
   </g>
   <g id="line2d_5">
    <path clip-path="url(#pce48a04261)" d="M 79.253256 144.236646 
L 78.193008 143.603255 
L 75.764256 142.473029 
L 71.897574 140.987211 
L 68.103613 139.760392 
L 63.668337 138.574689 
L 59.652905 137.739438 
L 55.846209 137.180546 
L 52.505716 136.894085 
L 48.847077 136.804779 
L 45.635646 136.926998 
L 42.41284 137.272077 
L 39.619622 137.805094 
L 37.474188 138.412392 
L 35.494003 139.185017 
L 33.798828 140.086759 
L 32.661845 140.890153 
L 31.691024 141.795107 
L 30.921333 142.797593 
L 30.43815 143.826173 
L 30.33824 144.488893 
L 30.490165 145.026143 
L 30.792591 145.350536 
L 31.580595 145.721193 
L 32.886176 145.979646 
L 34.730069 146.093634 
L 37.143478 146.01887 
L 40.206011 145.674686 
L 43.247252 145.107012 
L 46.759794 144.223056 
L 54.433103 142.146764 
L 57.31095 141.62045 
L 60.179226 141.31942 
L 62.910948 141.241034 
L 65.881639 141.362717 
L 69.13158 141.707607 
L 72.825172 142.337415 
L 75.968363 143.084776 
L 78.183871 143.806522 
L 79.046254 144.24568 
L 79.046254 144.24568 
" style="fill:none;opacity:0.7;stroke:#000000;stroke-linecap:square;stroke-width:1.2;"/>
   </g>
   <g id="line2d_6">
    <path clip-path="url(#pce48a04261)" d="M 141.67765 219.669286 
L 131.187663 215.89211 
L 126.890883 214.69096 
L 122.595761 213.720248 
L 118.3076 213.006245 
L 114.132828 212.560634 
L 110.059917 212.352169 
L 106.585445 212.372967 
L 103.930402 212.563075 
L 101.401885 212.952711 
L 99.028961 213.58187 
L 97.178855 214.310507 
L 95.637087 215.121984 
L 94.158455 216.126288 
L 93.120657 217.028853 
L 92.322023 217.991545 
L 92.043786 218.661965 
L 92.086109 219.106227 
L 92.269769 219.375809 
L 92.873392 219.729144 
L 93.70561 219.941486 
L 95.464038 220.111463 
L 98.564247 220.121338 
L 104.613352 219.849489 
L 112.121584 219.55913 
L 117.303856 219.586522 
L 138.858535 220.010296 
L 141.784392 219.812215 
L 141.784392 219.812215 
" style="fill:none;opacity:0.7;stroke:#000000;stroke-linecap:square;stroke-width:1.2;"/>
   </g>
   <g id="line2d_7">
    <path clip-path="url(#pce48a04261)" d="M 141.458059 200.823375 
L 137.299296 199.229052 
L 133.444162 197.951657 
L 128.3747 196.518024 
L 123.749324 195.462982 
L 119.615673 194.751685 
L 115.471105 194.277503 
L 111.30148 194.042235 
L 107.564652 194.052042 
L 104.298852 194.287008 
L 101.754544 194.681446 
L 99.352449 195.300383 
L 97.488002 196.017918 
L 95.94294 196.841152 
L 94.507284 197.884861 
L 93.535401 198.835761 
L 92.773293 199.866916 
L 92.42724 200.739358 
L 92.496147 201.225577 
L 92.723202 201.470215 
L 93.384235 201.724706 
L 94.774209 201.869924 
L 97.608368 201.835564 
L 103.535176 201.458667 
L 112.199311 200.908267 
L 118.104235 200.772127 
L 126.626434 200.840942 
L 141.576566 200.977574 
L 141.576566 200.977574 
" style="fill:none;opacity:0.7;stroke:#000000;stroke-linecap:square;stroke-width:1.2;"/>
   </g>
   <g id="line2d_8">
    <path clip-path="url(#pce48a04261)" d="M 141.346441 182.003094 
L 138.688128 180.940342 
L 134.818707 179.610106 
L 129.852207 178.157559 
L 124.913218 176.979796 
L 120.422042 176.167173 
L 116.499201 175.687112 
L 112.334738 175.42622 
L 108.45328 175.428985 
L 105.071042 175.670987 
L 102.472098 176.058836 
L 99.956153 176.65962 
L 98.098706 177.297931 
L 96.383115 178.100921 
L 94.878692 179.065657 
L 93.930889 179.879649 
L 93.099074 180.851094 
L 92.645889 181.705593 
L 92.572458 182.251782 
L 92.760563 182.66692 
L 93.096421 182.913426 
L 93.614095 183.101459 
L 94.929718 183.296348 
L 97.082098 183.346502 
L 100.6762 183.187445 
L 108.620387 182.536958 
L 115.683539 182.060451 
L 122.605694 181.842419 
L 130.289607 181.826572 
L 139.824534 182.039186 
L 141.477117 182.122553 
L 141.477117 182.122553 
" style="fill:none;opacity:0.7;stroke:#000000;stroke-linecap:square;stroke-width:1.2;"/>
   </g>
   <g id="line2d_9">
    <path clip-path="url(#pce48a04261)" d="M 141.422012 163.16376 
L 139.06278 162.176011 
L 135.364565 160.881995 
L 131.389651 159.688881 
L 126.815339 158.530877 
L 122.544607 157.666256 
L 118.448665 157.060741 
L 114.894738 156.73352 
L 110.831573 156.598854 
L 107.340566 156.711236 
L 104.63832 156.979155 
L 102.042166 157.427681 
L 99.472477 158.112835 
L 97.546454 158.843658 
L 95.898024 159.691206 
L 94.450811 160.715201 
L 93.562347 161.587339 
L 92.922632 162.514174 
L 92.708208 163.143038 
L 92.757406 163.641297 
L 92.971478 163.95244 
L 93.602469 164.325176 
L 94.716753 164.607975 
L 96.338112 164.773349 
L 99.161817 164.790479 
L 102.8015 164.568402 
L 108.767324 163.937083 
L 117.470668 163.030532 
L 122.978256 162.686913 
L 128.830275 162.561915 
L 134.519022 162.655276 
L 139.632791 162.939923 
L 141.512572 163.186237 
L 141.512572 163.186237 
" style="fill:none;opacity:0.7;stroke:#000000;stroke-linecap:square;stroke-width:1.2;"/>
   </g>
   <g id="line2d_10">
    <path clip-path="url(#pce48a04261)" d="M 141.637375 144.329845 
L 140.361653 143.713823 
L 136.935323 142.377867 
L 133.240054 141.17546 
L 128.85354 139.973668 
L 124.842042 139.075022 
L 120.898972 138.391266 
L 117.172121 137.947829 
L 113.378932 137.715889 
L 109.625748 137.716374 
L 106.360461 137.930193 
L 103.503414 138.32337 
L 100.842109 138.914855 
L 98.720868 139.593385 
L 96.871467 140.397391 
L 95.269633 141.342926 
L 94.006576 142.383951 
L 93.229972 143.324523 
L 92.875689 144.078764 
L 92.844416 144.590361 
L 93.110107 145.08442 
L 93.764935 145.516329 
L 94.883453 145.886245 
L 96.353329 146.148273 
L 98.446755 146.309131 
L 101.397261 146.274848 
L 104.786962 145.970443 
L 109.219876 145.284011 
L 118.298912 143.741871 
L 122.652367 143.290689 
L 126.379549 143.108132 
L 131.108494 143.115143 
L 135.740064 143.354464 
L 139.567614 143.769076 
L 141.396565 144.155104 
L 141.621311 144.247713 
L 141.621311 144.247713 
" style="fill:none;opacity:0.7;stroke:#000000;stroke-linecap:square;stroke-width:1.2;"/>
   </g>
   <g id="line2d_11">
    <path clip-path="url(#pce48a04261)" d="M 204.471864 219.662679 
L 201.978842 218.837894 
L 195.710573 216.807218 
L 190.053261 215.218458 
L 185.745859 214.215692 
L 181.471876 213.449713 
L 177.395159 212.968063 
L 173.784118 212.761022 
L 170.600437 212.768706 
L 167.279956 213.014767 
L 164.753238 213.424206 
L 162.344269 214.070115 
L 160.516405 214.794617 
L 158.892798 215.674842 
L 157.295974 216.842003 
L 156.20931 217.88274 
L 155.387695 218.929526 
L 155.081922 219.691091 
L 155.220209 220.075449 
L 155.503921 220.26103 
L 156.290047 220.471022 
L 158.600433 220.686403 
L 163.423873 220.812172 
L 170.409044 220.751239 
L 183.232797 220.616047 
L 193.03237 220.495545 
L 199.598735 220.192069 
L 204.113612 219.766245 
L 204.463409 219.71834 
L 204.463409 219.71834 
" style="fill:none;opacity:0.7;stroke:#000000;stroke-linecap:square;stroke-width:1.2;"/>
   </g>
   <g id="line2d_12">
    <path clip-path="url(#pce48a04261)" d="M 204.071906 200.832468 
L 196.108974 198.351769 
L 191.077021 197.023753 
L 186.034207 195.916801 
L 181.857185 195.214314 
L 177.771788 194.753298 
L 173.763426 194.54102 
L 170.597882 194.561274 
L 167.349109 194.794132 
L 164.776845 195.177178 
L 162.304603 195.77321 
L 160.423025 196.438647 
L 158.797215 197.229623 
L 157.276161 198.245792 
L 156.280843 199.148599 
L 155.538672 200.098847 
L 155.272802 200.743512 
L 155.309553 201.1879 
L 155.512935 201.461812 
L 156.149804 201.796297 
L 157.355699 202.06383 
L 159.662483 202.26526 
L 163.13548 202.315837 
L 168.802576 202.137938 
L 184.393251 201.511483 
L 204.071511 200.908882 
L 204.071511 200.908882 
" style="fill:none;opacity:0.7;stroke:#000000;stroke-linecap:square;stroke-width:1.2;"/>
   </g>
   <g id="line2d_13">
    <path clip-path="url(#pce48a04261)" d="M 203.890294 182.016371 
L 199.458873 180.530572 
L 194.644182 179.135852 
L 189.608163 177.893612 
L 184.744962 176.930672 
L 180.87387 176.365643 
L 176.936348 176.003058 
L 172.944535 175.876164 
L 169.327582 176.006739 
L 166.62363 176.295215 
L 163.9007 176.796046 
L 161.85088 177.3533 
L 159.926246 178.070823 
L 158.209943 178.945891 
L 156.863235 179.889932 
L 155.963982 180.769391 
L 155.43685 181.580727 
L 155.321325 182.090436 
L 155.497889 182.565308 
L 156.021495 182.940605 
L 157.044492 183.263095 
L 158.498471 183.486108 
L 161.201525 183.64268 
L 165.292868 183.600238 
L 171.167581 183.279737 
L 185.313278 182.447971 
L 195.413235 182.133531 
L 203.881079 182.059281 
L 203.881079 182.059281 
" style="fill:none;opacity:0.7;stroke:#000000;stroke-linecap:square;stroke-width:1.2;"/>
   </g>
   <g id="line2d_14">
    <path clip-path="url(#pce48a04261)" d="M 203.977971 163.195578 
L 200.831934 162.040157 
L 196.549039 160.704572 
L 191.461327 159.368627 
L 186.505867 158.322499 
L 182.245407 157.652779 
L 178.21848 157.244227 
L 174.208982 157.073141 
L 170.973337 157.127604 
L 167.714379 157.397707 
L 165.065774 157.816982 
L 162.386429 158.473432 
L 160.343445 159.18268 
L 158.551857 160.022144 
L 157.02694 161.002555 
L 156.139605 161.795659 
L 155.537195 162.616255 
L 155.371466 163.17075 
L 155.478708 163.625025 
L 155.749847 163.929806 
L 156.457324 164.313284 
L 157.597827 164.636483 
L 159.660585 164.924233 
L 162.377182 165.044811 
L 166.115908 164.955774 
L 171.068677 164.591529 
L 185.915643 163.346552 
L 192.813207 163.064113 
L 199.561765 163.022641 
L 203.320702 163.163768 
L 203.93561 163.234515 
L 203.93561 163.234515 
" style="fill:none;opacity:0.7;stroke:#000000;stroke-linecap:square;stroke-width:1.2;"/>
   </g>
   <g id="line2d_15">
    <path clip-path="url(#pce48a04261)" d="M 204.213486 144.375541 
L 201.85209 143.402323 
L 198.286947 142.183072 
L 193.86757 140.917902 
L 189.469146 139.883357 
L 185.224454 139.100257 
L 180.985453 138.550661 
L 176.794792 138.255221 
L 173.189639 138.208738 
L 169.815495 138.365335 
L 166.610898 138.742295 
L 163.856209 139.29507 
L 161.658637 139.931154 
L 159.676417 140.705327 
L 157.913503 141.633214 
L 156.575501 142.608927 
L 155.807916 143.429641 
L 155.465662 144.10523 
L 155.464365 144.577182 
L 155.7861 145.05727 
L 156.490778 145.496868 
L 157.620158 145.897595 
L 159.56984 146.291573 
L 161.624007 146.497372 
L 164.264851 146.558364 
L 167.670656 146.389776 
L 171.853402 145.920342 
L 185.280943 144.165922 
L 190.405806 143.833989 
L 195.177573 143.735448 
L 199.8298 143.844461 
L 203.007646 144.1124 
L 204.076118 144.329677 
L 204.076118 144.329677 
" style="fill:none;opacity:0.7;stroke:#000000;stroke-linecap:square;stroke-width:1.2;"/>
   </g>
   <g id="line2d_16">
    <path clip-path="url(#pce48a04261)" d="M 267.472508 219.639259 
L 265.95702 219.186157 
L 255.903792 215.987324 
L 250.957185 214.667892 
L 247.314633 213.879825 
L 243.743667 213.304358 
L 240.295555 212.960892 
L 236.663241 212.837043 
L 233.439263 212.941739 
L 230.059332 213.29764 
L 227.491712 213.776336 
L 225.000689 214.470766 
L 223.20168 215.165869 
L 221.481355 216.046297 
L 219.857014 217.16225 
L 218.835356 218.094951 
L 218.123211 219.018371 
L 217.935486 219.614463 
L 218.07388 220.011767 
L 218.385332 220.275407 
L 219.244757 220.628732 
L 220.750137 220.97294 
L 223.938158 221.404681 
L 227.663618 221.684632 
L 232.596671 221.819352 
L 239.411616 221.742632 
L 250.151821 221.36983 
L 256.555628 220.959702 
L 262.532726 220.357946 
L 267.352719 219.665475 
L 267.352719 219.665475 
" style="fill:none;opacity:0.7;stroke:#000000;stroke-linecap:square;stroke-width:1.2;"/>
   </g>
   <g id="line2d_17">
    <path clip-path="url(#pce48a04261)" d="M 267.013481 200.813712 
L 262.326942 199.377608 
L 256.087105 197.613109 
L 250.485204 196.268904 
L 246.156597 195.449346 
L 242.353543 194.937451 
L 238.474996 194.649638 
L 235.004462 194.610571 
L 231.782346 194.780581 
L 229.096876 195.101591 
L 226.330658 195.646267 
L 224.317164 196.222043 
L 222.477061 196.932058 
L 220.699545 197.865219 
L 219.375976 198.822194 
L 218.524303 199.684317 
L 218.050788 200.504142 
L 218.015874 200.982433 
L 218.155719 201.297 
L 218.480244 201.607211 
L 219.304716 202.014327 
L 220.657443 202.391806 
L 223.012945 202.770714 
L 226.014671 203.019052 
L 230.03596 203.115313 
L 235.473968 202.985935 
L 244.350025 202.498843 
L 259.129691 201.462504 
L 266.814406 200.879131 
L 266.814406 200.879131 
" style="fill:none;opacity:0.7;stroke:#000000;stroke-linecap:square;stroke-width:1.2;"/>
   </g>
   <g id="line2d_18">
    <path clip-path="url(#pce48a04261)" d="M 266.814011 182.009892 
L 259.289509 179.693973 
L 253.777249 178.277847 
L 248.808344 177.235026 
L 244.656835 176.577391 
L 240.741919 176.171806 
L 236.777879 175.99779 
L 233.565886 176.052704 
L 230.30818 176.323643 
L 227.612983 176.750161 
L 224.918004 177.411626 
L 222.919224 178.105921 
L 221.126144 178.945184 
L 219.610874 179.918897 
L 218.753183 180.686812 
L 218.189759 181.473805 
L 218.060141 182.035945 
L 218.227591 182.491027 
L 218.566073 182.812145 
L 219.37458 183.221854 
L 220.611874 183.587479 
L 222.80106 183.962934 
L 225.630976 184.205764 
L 229.579749 184.287497 
L 234.317658 184.143699 
L 241.110418 183.691152 
L 261.81604 182.154639 
L 266.495579 182.050232 
L 266.495579 182.050232 
" style="fill:none;opacity:0.7;stroke:#000000;stroke-linecap:square;stroke-width:1.2;"/>
   </g>
   <g id="line2d_19">
    <path clip-path="url(#pce48a04261)" d="M 266.893339 163.197704 
L 262.720161 161.748215 
L 257.937961 160.355549 
L 252.775568 159.113801 
L 248.63445 158.322332 
L 244.48104 157.738251 
L 240.604518 157.404027 
L 236.638309 157.286625 
L 233.238533 157.389954 
L 229.945533 157.713249 
L 227.088198 158.217407 
L 224.419887 158.927646 
L 222.376291 159.682522 
L 220.541896 160.598358 
L 219.241443 161.498477 
L 218.505412 162.243426 
L 218.155983 162.912348 
L 218.167355 163.392323 
L 218.344532 163.708052 
L 218.722529 164.043057 
L 219.562174 164.469363 
L 220.764393 164.845507 
L 222.864245 165.240146 
L 225.579303 165.497004 
L 229.071226 165.576992 
L 233.171081 165.436683 
L 238.562414 165.014663 
L 258.462285 163.19415 
L 263.44323 163.077777 
L 266.227408 163.196626 
L 266.517702 163.23892 
L 266.517702 163.23892 
" style="fill:none;opacity:0.7;stroke:#000000;stroke-linecap:square;stroke-width:1.2;"/>
   </g>
   <g id="line2d_20">
    <path clip-path="url(#pce48a04261)" d="M 267.063359 144.387082 
L 263.95748 143.197295 
L 260.148197 141.992843 
L 255.363656 140.749768 
L 251.111584 139.87022 
L 246.535706 139.171337 
L 242.733836 138.80166 
L 238.464176 138.621258 
L 234.406577 138.687997 
L 231.06935 138.953015 
L 227.825201 139.448438 
L 224.956082 140.139045 
L 222.828636 140.855309 
L 220.893051 141.731807 
L 219.401719 142.673171 
L 218.659971 143.357338 
L 218.24992 144.047514 
L 218.241265 144.527924 
L 218.52165 144.982867 
L 219.281049 145.514185 
L 220.23731 145.921717 
L 222.14037 146.441987 
L 224.732185 146.842179 
L 227.786263 147.033617 
L 231.258258 146.98416 
L 234.902737 146.701474 
L 239.852877 146.069342 
L 251.745628 144.421047 
L 256.631286 144.050185 
L 260.921211 143.935227 
L 264.179044 144.03061 
L 266.315882 144.290972 
L 266.652741 144.378978 
L 266.652741 144.378978 
" style="fill:none;opacity:0.7;stroke:#000000;stroke-linecap:square;stroke-width:1.2;"/>
   </g>
   <g id="line2d_21">
    <path clip-path="url(#pce48a04261)" d="M 330.534829 219.590562 
L 330.201946 219.509568 
L 317.757134 215.35992 
L 313.362892 214.236327 
L 309.752624 213.535701 
L 306.111284 213.073391 
L 302.745725 212.879059 
L 299.103107 212.91753 
L 295.842985 213.169225 
L 292.422447 213.671754 
L 289.845582 214.242249 
L 287.344322 215.000852 
L 285.139231 215.90406 
L 283.275917 216.936676 
L 282.029652 217.879588 
L 281.285429 218.690439 
L 281.010382 219.21347 
L 280.990559 219.770334 
L 281.273686 220.214407 
L 282.076401 220.748049 
L 283.171844 221.192058 
L 285.758915 221.893357 
L 288.89112 222.459968 
L 292.884126 222.910602 
L 297.184881 223.147202 
L 302.448771 223.182839 
L 307.903262 222.995962 
L 312.91919 222.633718 
L 318.308045 222.009021 
L 322.841887 221.268678 
L 328.095601 220.163229 
L 330.306436 219.693139 
L 330.306436 219.693139 
" style="fill:none;opacity:0.7;stroke:#000000;stroke-linecap:square;stroke-width:1.2;"/>
   </g>
   <g id="line2d_22">
    <path clip-path="url(#pce48a04261)" d="M 330.206176 200.776902 
L 328.205522 200.160626 
L 321.514265 198.104607 
L 316.272999 196.721685 
L 311.590158 195.725008 
L 307.829086 195.141529 
L 304.212071 194.798505 
L 300.821356 194.682933 
L 297.292053 194.775042 
L 294.002612 195.064931 
L 290.70737 195.585093 
L 288.034706 196.223612 
L 285.676351 197.014273 
L 283.899226 197.827466 
L 282.445336 198.74388 
L 281.688303 199.415176 
L 281.158932 200.159938 
L 281.027153 200.672198 
L 281.130751 201.149475 
L 281.388079 201.509842 
L 282.209198 202.104061 
L 283.243008 202.56819 
L 285.0594 203.128218 
L 287.853203 203.692425 
L 291.403848 204.11295 
L 294.982296 204.309998 
L 299.097567 204.332015 
L 304.379623 204.118485 
L 310.052848 203.639292 
L 315.479655 202.964926 
L 326.365435 201.297046 
L 329.733252 200.904047 
L 329.882948 200.907011 
L 329.882948 200.907011 
" style="fill:none;opacity:0.7;stroke:#000000;stroke-linecap:square;stroke-width:1.2;"/>
   </g>
   <g id="line2d_23">
    <path clip-path="url(#pce48a04261)" d="M 330.006946 181.975993 
L 316.911315 178.22743 
L 312.611272 177.328639 
L 308.164257 176.636102 
L 304.572939 176.285168 
L 300.493394 176.13048 
L 297.068609 176.208562 
L 293.759492 176.484557 
L 290.966714 176.90081 
L 288.17142 177.529144 
L 285.708765 178.31958 
L 283.860288 179.134719 
L 282.383904 180.038146 
L 281.636736 180.693449 
L 281.152342 181.388437 
L 281.036829 181.856219 
L 281.147459 182.360987 
L 281.410799 182.731466 
L 282.237188 183.344873 
L 283.218045 183.800553 
L 285.367056 184.453547 
L 288.142681 184.968019 
L 291.283239 185.296662 
L 294.839973 185.447912 
L 298.960537 185.403752 
L 303.544932 185.132224 
L 308.424544 184.621527 
L 315.23712 183.642948 
L 323.570321 182.483299 
L 328.035065 182.085881 
L 329.612742 182.096492 
L 329.612742 182.096492 
" style="fill:none;opacity:0.7;stroke:#000000;stroke-linecap:square;stroke-width:1.2;"/>
   </g>
   <g id="line2d_24">
    <path clip-path="url(#pce48a04261)" d="M 329.973293 163.183545 
L 323.370192 161.083327 
L 318.690695 159.880019 
L 314.135618 158.923539 
L 309.906194 158.247534 
L 305.862894 157.819046 
L 301.956795 157.620827 
L 297.855247 157.646666 
L 294.044848 157.913436 
L 291.141354 158.312755 
L 288.275659 158.919569 
L 285.728975 159.696302 
L 283.820984 160.502024 
L 282.339823 161.382102 
L 281.60926 162.02366 
L 281.176738 162.682089 
L 281.089628 163.114939 
L 281.228043 163.644426 
L 281.512873 164.025559 
L 282.378026 164.661914 
L 283.344196 165.113785 
L 285.33171 165.729221 
L 287.987436 166.228425 
L 291.041043 166.542371 
L 294.455324 166.670605 
L 298.577804 166.586385 
L 303.063522 166.244858 
L 307.89879 165.622566 
L 322.602226 163.469109 
L 326.740359 163.187405 
L 328.896789 163.205989 
L 329.562755 163.296025 
L 329.562755 163.296025 
" style="fill:none;opacity:0.7;stroke:#000000;stroke-linecap:square;stroke-width:1.2;"/>
   </g>
   <g id="line2d_25">
    <path clip-path="url(#pce48a04261)" d="M 330.051948 144.388721 
L 326.078198 142.977113 
L 321.875104 141.777281 
L 317.533684 140.772519 
L 312.908332 139.948862 
L 308.632451 139.426428 
L 304.659529 139.156508 
L 300.51134 139.089229 
L 296.509884 139.230985 
L 293.14887 139.538454 
L 290.322643 139.969884 
L 287.367301 140.640857 
L 285.267205 141.304452 
L 283.310044 142.150927 
L 281.953981 143.02036 
L 281.373623 143.635134 
L 281.169207 144.055737 
L 281.132559 144.457462 
L 281.335059 144.985924 
L 281.666755 145.369637 
L 282.635057 146.035507 
L 283.652633 146.49897 
L 285.598849 147.106896 
L 288.223084 147.616752 
L 291.236326 147.932316 
L 294.570052 148.035868 
L 298.078981 147.913179 
L 301.823996 147.549886 
L 306.296435 146.846016 
L 318.03762 144.73637 
L 322.440241 144.286194 
L 326.071423 144.145588 
L 328.508983 144.258991 
L 329.645446 144.490681 
L 329.645446 144.490681 
" style="fill:none;opacity:0.7;stroke:#000000;stroke-linecap:square;stroke-width:1.2;"/>
   </g>
  </g>
 </g>
 <defs>
  <clipPath id="pce48a04261">
   <rect height="329.04" width="329.04" x="15.48" y="15.48"/>
  </clipPath>
 </defs>
</svg>
