<?xml version="1.0" encoding="utf-8" standalone="no"?>
<!DOCTYPE svg PUBLIC "-//W3C//DTD SVG 1.1//EN"
  "http://www.w3.org/Graphics/SVG/1.1/DTD/svg11.dtd">
<!-- Created with matplotlib (http://matplotlib.org/) -->
<svg height="360pt" version="1.1" viewBox="0 0 360 360" width="360pt" xmlns="http://www.w3.org/2000/svg" xmlns:xlink="http://www.w3.org/1999/xlink">
 <defs>
  <style type="text/css">
*{stroke-linecap:butt;stroke-linejoin:round;}
  </style>
 </defs>
 <g id="figure_1">
  <g id="patch_1">
   <path d="M 0 360 
L 360 360 
L 360 0 
L 0 0 
z
" style="fill:#ffffff;"/>
  </g>
  <g id="axes_1">
   <g id="line2d_1">
    <path clip-path="url(#pbc100ba350)" d="M 78.963893 219.679092 
L 74.061618 217.948099 
L 68.544236 216.277894 
L 63.893434 215.093309 
L 59.721648 214.233594 
L 55.442944 213.585664 
L 51.350707 213.19495 
L 46.909515 212.986329 
L 42.542442 213.005107 
L 39.87766 213.20676 
L 37.31228 213.642376 
L 35.338705 214.204582 
L 33.506725 214.951109 
L 31.880168 215.845549 
L 30.53004 216.851058 
L 29.716328 217.773745 
L 29.485021 218.319073 
L 29.518734 218.801654 
L 29.764071 219.128745 
L 30.332428 219.40357 
L 31.39883 219.522185 
L 33.278906 219.365951 
L 42.874942 218.068587 
L 46.432672 217.915178 
L 50.683269 217.964005 
L 56.049314 218.275162 
L 66.235141 219.168194 
L 74.463147 219.790664 
L 78.395253 219.885784 
L 78.980422 219.858029 
L 78.980422 219.858029 
" style="fill:none;opacity:0.7;stroke:#000000;stroke-linecap:square;stroke-width:1.2;"/>
   </g>
   <g id="line2d_2">
    <path clip-path="url(#pbc100ba350)" d="M 78.911637 200.764016 
L 76.394558 199.791482 
L 72.111796 198.390014 
L 67.773515 197.178674 
L 63.081871 196.095277 
L 58.759494 195.330779 
L 54.737218 194.845635 
L 50.68479 194.573261 
L 46.074818 194.485042 
L 42.242057 194.611589 
L 39.495694 194.89311 
L 37.071127 195.36216 
L 35.081562 195.973189 
L 33.382043 196.723473 
L 31.816791 197.697421 
L 30.885131 198.502942 
L 30.074206 199.545025 
L 29.759428 200.385497 
L 29.774458 200.834108 
L 30.002202 201.197296 
L 30.334123 201.366212 
L 30.844964 201.43961 
L 32.192976 201.330979 
L 43.472317 199.643962 
L 47.497824 199.394071 
L 52.520637 199.29664 
L 57.793998 199.405569 
L 64.521639 199.792924 
L 76.200957 200.760734 
L 78.840883 200.975674 
L 78.840883 200.975674 
" style="fill:none;opacity:0.7;stroke:#000000;stroke-linecap:square;stroke-width:1.2;"/>
   </g>
   <g id="line2d_3">
    <path clip-path="url(#pbc100ba350)" d="M 78.942641 181.862967 
L 77.555444 181.257306 
L 73.689434 179.863895 
L 69.643419 178.630657 
L 65.129614 177.478055 
L 61.151127 176.668126 
L 57.404234 176.106461 
L 53.263341 175.73342 
L 49.034748 175.60455 
L 45.197291 175.68665 
L 41.847053 175.950823 
L 39.206556 176.347544 
L 36.630391 176.968121 
L 34.671086 177.658063 
L 32.951743 178.494302 
L 31.732063 179.298467 
L 30.742909 180.196079 
L 30.062985 181.152468 
L 29.841443 181.832431 
L 29.88596 182.2448 
L 30.146008 182.543006 
L 30.556319 182.683169 
L 31.644665 182.700925 
L 34.012159 182.399725 
L 42.280461 181.220883 
L 47.580921 180.730621 
L 53.366769 180.420737 
L 58.615444 180.336791 
L 63.803774 180.479173 
L 69.011989 180.832827 
L 75.165824 181.484083 
L 78.772313 182.052548 
L 78.772313 182.052548 
" style="fill:none;opacity:0.7;stroke:#000000;stroke-linecap:square;stroke-width:1.2;"/>
   </g>
   <g id="line2d_4">
    <path clip-path="url(#pbc100ba350)" d="M 78.98425 162.997095 
L 77.714352 162.400614 
L 74.034196 161.019166 
L 69.50037 159.600678 
L 65.269939 158.494145 
L 61.180841 157.632677 
L 57.455205 157.053742 
L 53.870668 156.708164 
L 50.204338 156.574812 
L 46.718169 156.642674 
L 43.227196 156.913207 
L 40.195035 157.360036 
L 37.63883 157.944257 
L 35.179398 158.754298 
L 33.386285 159.56889 
L 32.10427 160.335712 
L 31.070985 161.149831 
L 30.195202 162.153721 
L 29.86348 162.850349 
L 29.830434 163.258609 
L 30.022336 163.615368 
L 30.380611 163.80729 
L 31.307639 163.936806 
L 32.831912 163.889191 
L 36.648362 163.465907 
L 54.579642 161.141818 
L 59.14721 160.909245 
L 63.271765 160.940458 
L 67.434369 161.197587 
L 72.09134 161.725489 
L 76.289926 162.430273 
L 78.556084 163.00668 
L 78.740383 163.08862 
L 78.740383 163.08862 
" style="fill:none;opacity:0.7;stroke:#000000;stroke-linecap:square;stroke-width:1.2;"/>
   </g>
   <g id="line2d_5">
    <path clip-path="url(#pbc100ba350)" d="M 79.138084 144.13577 
L 78.0608 143.56601 
L 75.485907 142.491742 
L 71.516384 141.104249 
L 67.752059 139.986759 
L 63.036866 138.839687 
L 59.084061 138.117583 
L 55.367024 137.672251 
L 52.088023 137.486892 
L 48.296023 137.51312 
L 44.591944 137.78438 
L 41.502218 138.224125 
L 38.746488 138.824891 
L 36.635396 139.456503 
L 34.652173 140.231071 
L 32.886076 141.13557 
L 31.646736 141.967879 
L 30.648672 142.871508 
L 30.045365 143.713388 
L 29.897805 144.336144 
L 30.047126 144.666835 
L 30.365199 144.887764 
L 31.266819 145.124833 
L 32.746022 145.237049 
L 35.431865 145.172906 
L 38.680025 144.861896 
L 42.685262 144.22933 
L 47.075175 143.299141 
L 53.63189 141.904269 
L 57.041367 141.433181 
L 59.830435 141.238857 
L 63.291263 141.239095 
L 66.81226 141.485468 
L 70.4902 141.972242 
L 74.142312 142.675209 
L 76.96197 143.406564 
L 78.65048 144.041691 
L 78.851884 144.164199 
L 78.851884 144.164199 
" style="fill:none;opacity:0.7;stroke:#000000;stroke-linecap:square;stroke-width:1.2;"/>
   </g>
   <g id="line2d_6">
    <path clip-path="url(#pbc100ba350)" d="M 141.600004 219.631532 
L 128.553323 216.245527 
L 122.766086 215.078713 
L 117.999238 214.346959 
L 113.483011 213.877621 
L 109.356607 213.652995 
L 106.017595 213.651917 
L 103.307319 213.828695 
L 100.644643 214.230511 
L 98.611542 214.742186 
L 96.740374 215.413331 
L 94.986144 216.264687 
L 93.461674 217.252685 
L 92.46648 218.139753 
L 92.011448 218.822006 
L 91.974505 219.13553 
L 92.156247 219.420018 
L 92.462733 219.58014 
L 93.393266 219.759391 
L 95.235835 219.82231 
L 100.134995 219.653648 
L 109.803763 219.284848 
L 115.609179 219.310427 
L 126.217591 219.659841 
L 135.713259 219.863093 
L 140.750195 219.768735 
L 141.628154 219.707388 
L 141.628154 219.707388 
" style="fill:none;opacity:0.7;stroke:#000000;stroke-linecap:square;stroke-width:1.2;"/>
   </g>
   <g id="line2d_7">
    <path clip-path="url(#pbc100ba350)" d="M 141.24104 200.765857 
L 136.624415 199.466694 
L 130.772373 198.055605 
L 125.236461 196.949986 
L 120.351113 196.195328 
L 116.035502 195.731007 
L 111.283066 195.445183 
L 106.927399 195.407078 
L 103.350337 195.611112 
L 100.740293 195.971352 
L 98.758543 196.418206 
L 96.915211 197.022449 
L 95.235715 197.803261 
L 93.792523 198.761355 
L 92.866494 199.661423 
L 92.420644 200.378129 
L 92.347912 200.754516 
L 92.49288 201.083626 
L 92.779462 201.260511 
L 93.621228 201.429856 
L 95.240175 201.468502 
L 99.872479 201.240663 
L 110.503065 200.65943 
L 116.916933 200.56262 
L 127.423219 200.683943 
L 141.309404 200.87524 
L 141.309404 200.87524 
" style="fill:none;opacity:0.7;stroke:#000000;stroke-linecap:square;stroke-width:1.2;"/>
   </g>
   <g id="line2d_8">
    <path clip-path="url(#pbc100ba350)" d="M 141.06598 181.908406 
L 137.185109 180.740786 
L 131.973907 179.40667 
L 126.936342 178.329375 
L 122.340954 177.549346 
L 117.779257 177.002721 
L 113.365976 176.707894 
L 108.919632 176.641467 
L 105.031136 176.81399 
L 102.029387 177.160234 
L 99.469873 177.663385 
L 97.045066 178.395588 
L 95.331849 179.147424 
L 93.856656 180.075002 
L 92.943133 180.935332 
L 92.528291 181.59878 
L 92.457779 181.978778 
L 92.612829 182.322947 
L 92.921627 182.519749 
L 93.763552 182.716459 
L 95.262095 182.799498 
L 98.850782 182.693327 
L 118.493764 181.700866 
L 126.847514 181.650908 
L 136.61298 181.821019 
L 141.156941 182.013557 
L 141.156941 182.013557 
" style="fill:none;opacity:0.7;stroke:#000000;stroke-linecap:square;stroke-width:1.2;"/>
   </g>
   <g id="line2d_9">
    <path clip-path="url(#pbc100ba350)" d="M 141.232241 163.06376 
L 138.515062 162.121411 
L 133.985246 160.801197 
L 129.682908 159.741244 
L 124.900462 158.780339 
L 120.523732 158.131266 
L 116.796557 157.778933 
L 112.654463 157.610435 
L 108.6801 157.662299 
L 104.914152 157.936065 
L 101.615543 158.419538 
L 99.037848 159.01444 
L 96.658145 159.810222 
L 94.875925 160.659527 
L 93.795148 161.368821 
L 92.89342 162.219793 
L 92.527675 162.829221 
L 92.477401 163.195524 
L 92.66201 163.545886 
L 93.015498 163.763902 
L 93.912877 163.996363 
L 95.364431 164.129832 
L 98.187256 164.132097 
L 102.358219 163.898702 
L 120.881094 162.582558 
L 127.424025 162.467969 
L 134.153184 162.585185 
L 139.457047 162.873651 
L 141.260364 163.095389 
L 141.260364 163.095389 
" style="fill:none;opacity:0.7;stroke:#000000;stroke-linecap:square;stroke-width:1.2;"/>
   </g>
   <g id="line2d_10">
    <path clip-path="url(#pbc100ba350)" d="M 141.560479 144.214395 
L 140.288952 143.674928 
L 136.797986 142.457373 
L 132.399165 141.18242 
L 128.268649 140.189736 
L 124.233117 139.415238 
L 119.92159 138.830586 
L 116.391906 138.562156 
L 112.551272 138.488731 
L 108.561971 138.642659 
L 105.092835 138.986187 
L 101.682853 139.568482 
L 98.989384 140.256895 
L 96.581582 141.117616 
L 94.762083 142.017654 
L 93.689717 142.736529 
L 92.852179 143.544477 
L 92.570332 144.067452 
L 92.571664 144.390936 
L 92.833786 144.723888 
L 93.573869 145.05585 
L 94.843777 145.323587 
L 97.099427 145.527521 
L 100.167823 145.540526 
L 103.766469 145.311814 
L 108.35334 144.770901 
L 118.035382 143.536057 
L 122.528009 143.210988 
L 126.86838 143.089712 
L 131.603113 143.15511 
L 136.54261 143.438005 
L 139.953149 143.81944 
L 141.452824 144.167925 
L 141.452824 144.167925 
" style="fill:none;opacity:0.7;stroke:#000000;stroke-linecap:square;stroke-width:1.2;"/>
   </g>
   <g id="line2d_11">
    <path clip-path="url(#pbc100ba350)" d="M 204.415191 219.586188 
L 201.904687 218.993408 
L 191.123511 216.384052 
L 185.530598 215.253437 
L 180.88721 214.534376 
L 176.935098 214.129458 
L 172.770661 213.937776 
L 169.335142 213.990505 
L 165.975339 214.284308 
L 163.373913 214.740609 
L 161.225669 215.329914 
L 159.486509 216.003086 
L 157.720475 216.943396 
L 156.585055 217.750013 
L 155.582688 218.700801 
L 155.1334 219.390041 
L 155.096936 219.682146 
L 155.291771 219.946612 
L 155.627894 220.087743 
L 156.617068 220.246495 
L 159.252776 220.374943 
L 166.617825 220.439619 
L 192.389045 220.25196 
L 199.805984 219.964623 
L 204.372138 219.604192 
L 204.372138 219.604192 
" style="fill:none;opacity:0.7;stroke:#000000;stroke-linecap:square;stroke-width:1.2;"/>
   </g>
   <g id="line2d_12">
    <path clip-path="url(#pbc100ba350)" d="M 203.938048 200.729657 
L 192.25427 198.011748 
L 186.15372 196.886264 
L 180.948771 196.171279 
L 176.569741 195.790169 
L 172.551792 195.640385 
L 168.681108 195.716673 
L 165.332379 196.019968 
L 162.708836 196.471939 
L 160.342007 197.112906 
L 158.599315 197.798551 
L 156.9361 198.736836 
L 155.920082 199.574546 
L 155.347143 200.324472 
L 155.234711 200.84425 
L 155.43949 201.171072 
L 155.78245 201.356866 
L 156.729151 201.575036 
L 159.112462 201.745783 
L 163.929973 201.751333 
L 175.860568 201.41818 
L 203.891063 200.797326 
L 203.891063 200.797326 
" style="fill:none;opacity:0.7;stroke:#000000;stroke-linecap:square;stroke-width:1.2;"/>
   </g>
   <g id="line2d_13">
    <path clip-path="url(#pbc100ba350)" d="M 203.663213 181.895617 
L 196.876565 180.152084 
L 190.716984 178.824085 
L 185.296543 177.89303 
L 180.357078 177.292474 
L 176.052242 176.992271 
L 172.190371 176.915679 
L 168.315684 177.065775 
L 165.163187 177.409178 
L 162.463721 177.91128 
L 159.922839 178.630757 
L 158.106676 179.376068 
L 156.594798 180.268639 
L 155.705148 181.062553 
L 155.319855 181.676635 
L 155.280192 182.033816 
L 155.489745 182.376869 
L 155.844612 182.583458 
L 156.750374 182.825865 
L 158.895731 183.035084 
L 162.419594 183.08299 
L 168.486241 182.892184 
L 188.239778 182.12223 
L 199.823786 181.925728 
L 203.579833 181.952603 
L 203.579833 181.952603 
" style="fill:none;opacity:0.7;stroke:#000000;stroke-linecap:square;stroke-width:1.2;"/>
   </g>
   <g id="line2d_14">
    <path clip-path="url(#pbc100ba350)" d="M 203.787562 163.062154 
L 198.563925 161.542846 
L 193.542509 160.320037 
L 188.610566 159.340562 
L 183.979418 158.651224 
L 179.863068 158.255133 
L 175.865671 158.070919 
L 171.50246 158.095549 
L 168.205575 158.30363 
L 164.759213 158.751331 
L 162.030077 159.320849 
L 159.488035 160.0922 
L 157.59677 160.912553 
L 156.495505 161.575795 
L 155.638744 162.329271 
L 155.306995 162.882438 
L 155.290595 163.226863 
L 155.533821 163.575044 
L 156.201143 163.901327 
L 157.378106 164.164093 
L 159.50846 164.372348 
L 162.765234 164.437337 
L 166.887862 164.310566 
L 176.569895 163.706478 
L 187.343121 163.128922 
L 194.692044 162.94426 
L 200.973771 162.974092 
L 203.65893 163.122145 
L 203.65893 163.122145 
" style="fill:none;opacity:0.7;stroke:#000000;stroke-linecap:square;stroke-width:1.2;"/>
   </g>
   <g id="line2d_15">
    <path clip-path="url(#pbc100ba350)" d="M 204.062388 144.246139 
L 200.740374 143.121216 
L 197.070637 142.070568 
L 192.103973 140.897311 
L 187.412203 140.048056 
L 183.13727 139.518176 
L 179.229065 139.254297 
L 175.107265 139.192601 
L 171.108979 139.331442 
L 167.232745 139.69103 
L 163.631177 140.290716 
L 160.922735 140.964518 
L 158.90385 141.643849 
L 157.057184 142.488658 
L 156.015642 143.166558 
L 155.425969 143.780417 
L 155.287466 144.209979 
L 155.409996 144.525504 
L 155.842617 144.858185 
L 156.763987 145.207182 
L 158.644998 145.583125 
L 161.331197 145.82534 
L 164.579116 145.864608 
L 168.478661 145.667619 
L 174.094154 145.12105 
L 183.768247 144.17547 
L 189.623206 143.849202 
L 195.452139 143.753318 
L 200.607855 143.888258 
L 203.261211 144.118917 
L 203.882057 144.239742 
L 203.882057 144.239742 
" style="fill:none;opacity:0.7;stroke:#000000;stroke-linecap:square;stroke-width:1.2;"/>
   </g>
   <g id="line2d_16">
    <path clip-path="url(#pbc100ba350)" d="M 267.460267 219.571223 
L 266.140716 219.278306 
L 252.138832 215.671423 
L 247.822714 214.843268 
L 243.569482 214.264453 
L 239.618902 213.975637 
L 235.877876 213.933391 
L 232.334524 214.109396 
L 229.195439 214.46549 
L 226.428328 214.975135 
L 223.796175 215.693297 
L 222.0907 216.333836 
L 220.294431 217.238604 
L 218.849697 218.260477 
L 218.123079 219.033975 
L 217.921502 219.527649 
L 218.022504 219.837992 
L 218.408216 220.107178 
L 219.434491 220.405659 
L 221.872961 220.759941 
L 225.737861 221.087104 
L 230.956563 221.301607 
L 238.018055 221.320918 
L 248.086998 221.103874 
L 255.901806 220.716497 
L 261.959097 220.21093 
L 267.025467 219.566971 
L 267.339291 219.528196 
L 267.339291 219.528196 
" style="fill:none;opacity:0.7;stroke:#000000;stroke-linecap:square;stroke-width:1.2;"/>
   </g>
   <g id="line2d_17">
    <path clip-path="url(#pbc100ba350)" d="M 267.041475 200.707663 
L 263.518765 199.878855 
L 255.546654 198.052805 
L 249.38577 196.875445 
L 244.58185 196.192221 
L 240.160503 195.808527 
L 235.944352 195.688782 
L 232.078622 195.809973 
L 228.629797 196.141986 
L 225.896137 196.599583 
L 223.373421 197.235523 
L 221.526077 197.898097 
L 219.860917 198.740037 
L 218.865189 199.4594 
L 218.206463 200.192894 
L 218.02036 200.71514 
L 218.130443 201.073379 
L 218.536223 201.395289 
L 219.517032 201.72698 
L 221.040328 201.990504 
L 224.249006 202.271461 
L 228.762051 202.418645 
L 235.070931 202.379794 
L 245.012592 202.06281 
L 255.659628 201.503799 
L 266.834112 200.752418 
L 266.834112 200.752418 
" style="fill:none;opacity:0.7;stroke:#000000;stroke-linecap:square;stroke-width:1.2;"/>
   </g>
   <g id="line2d_18">
    <path clip-path="url(#pbc100ba350)" d="M 266.79358 181.879636 
L 256.35421 179.405223 
L 250.870162 178.380074 
L 246.024136 177.689691 
L 241.863181 177.29447 
L 237.309133 177.091979 
L 233.389069 177.132285 
L 229.658369 177.403751 
L 226.731758 177.822421 
L 223.927641 178.449146 
L 221.561774 179.231104 
L 219.857418 180.047657 
L 218.8722 180.726953 
L 218.258263 181.393024 
L 218.083603 181.891868 
L 218.197636 182.252875 
L 218.612363 182.591608 
L 219.537429 182.932094 
L 220.928018 183.204678 
L 223.868266 183.490421 
L 227.789992 183.616311 
L 233.271201 183.553295 
L 241.264102 183.219279 
L 256.806591 182.273562 
L 264.920981 181.910243 
L 266.48489 181.910683 
L 266.48489 181.910683 
" style="fill:none;opacity:0.7;stroke:#000000;stroke-linecap:square;stroke-width:1.2;"/>
   </g>
   <g id="line2d_19">
    <path clip-path="url(#pbc100ba350)" d="M 266.789184 163.073319 
L 260.383187 161.341813 
L 255.461196 160.253402 
L 250.651984 159.406043 
L 246.031902 158.82318 
L 241.755715 158.505221 
L 237.30423 158.394412 
L 232.895085 158.51856 
L 229.238907 158.849867 
L 226.321515 159.305362 
L 223.579035 159.933703 
L 221.543212 160.58009 
L 219.77642 161.360654 
L 218.792528 161.993171 
L 218.223367 162.591461 
L 218.078238 163.056849 
L 218.216007 163.413071 
L 218.673905 163.773882 
L 219.619135 164.140698 
L 220.951185 164.438607 
L 223.705763 164.764793 
L 226.916033 164.909454 
L 231.584526 164.874134 
L 237.727679 164.576512 
L 246.38112 163.909083 
L 256.130658 163.204676 
L 262.183232 162.988436 
L 265.744231 163.044946 
L 266.411166 163.112151 
L 266.411166 163.112151 
" style="fill:none;opacity:0.7;stroke:#000000;stroke-linecap:square;stroke-width:1.2;"/>
   </g>
   <g id="line2d_20">
    <path clip-path="url(#pbc100ba350)" d="M 266.887422 144.264887 
L 261.981335 142.804348 
L 257.456829 141.713701 
L 253.349156 140.916751 
L 248.707648 140.24946 
L 244.330181 139.867965 
L 239.832951 139.722923 
L 235.146833 139.802591 
L 231.298086 140.060018 
L 227.68167 140.514619 
L 224.727824 141.083165 
L 222.048515 141.810146 
L 220.095167 142.554666 
L 219.062439 143.110763 
L 218.377622 143.69098 
L 218.173739 144.138434 
L 218.253695 144.471941 
L 218.666397 144.87057 
L 219.553541 145.293026 
L 221.244548 145.753936 
L 223.443241 146.097357 
L 226.520503 146.320954 
L 229.856567 146.339398 
L 234.017339 146.134698 
L 239.729351 145.599577 
L 253.191356 144.205405 
L 258.572655 143.939113 
L 262.828289 143.930871 
L 265.736779 144.129036 
L 266.484881 144.268832 
L 266.484881 144.268832 
" style="fill:none;opacity:0.7;stroke:#000000;stroke-linecap:square;stroke-width:1.2;"/>
   </g>
   <g id="line2d_21">
    <path clip-path="url(#pbc100ba350)" d="M 330.534829 219.553062 
L 330.206279 219.497155 
L 317.047684 215.682064 
L 312.439912 214.739341 
L 308.511363 214.188306 
L 304.795413 213.91204 
L 301.373842 213.870312 
L 297.863211 214.026591 
L 294.281189 214.387017 
L 291.052454 214.900629 
L 287.743417 215.659829 
L 285.087492 216.517343 
L 283.165296 217.376569 
L 281.793496 218.250096 
L 281.107999 218.941032 
L 280.898967 219.49246 
L 280.977621 219.791722 
L 281.178424 220.032253 
L 281.981286 220.484337 
L 283.246925 220.889572 
L 285.964826 221.458031 
L 290.021861 222.008864 
L 294.488791 222.361765 
L 299.989514 222.527651 
L 305.900254 222.46277 
L 312.126196 222.159353 
L 317.646855 221.670534 
L 322.808642 220.99865 
L 327.613541 220.144615 
L 330.401956 219.55292 
L 330.401956 219.55292 
" style="fill:none;opacity:0.7;stroke:#000000;stroke-linecap:square;stroke-width:1.2;"/>
   </g>
   <g id="line2d_22">
    <path clip-path="url(#pbc100ba350)" d="M 330.193155 200.687139 
L 328.350239 200.268788 
L 319.517585 198.139516 
L 314.083206 197.06813 
L 309.748945 196.420596 
L 305.546213 196.020048 
L 301.601424 195.87027 
L 297.431213 195.945649 
L 293.356185 196.250162 
L 289.666487 196.758226 
L 286.608247 197.412829 
L 284.359187 198.109405 
L 282.661543 198.864608 
L 281.745795 199.458287 
L 281.132653 200.099649 
L 280.949721 200.655663 
L 281.048079 201.010714 
L 281.272179 201.286401 
L 281.734743 201.608837 
L 282.931671 202.092612 
L 284.521526 202.496423 
L 287.18682 202.942971 
L 290.870186 203.320524 
L 295.360615 203.546318 
L 300.649008 203.575577 
L 305.989515 203.40093 
L 312.17753 202.966789 
L 318.368206 202.300678 
L 327.452914 201.05348 
L 329.9943 200.779673 
L 329.9943 200.779673 
" style="fill:none;opacity:0.7;stroke:#000000;stroke-linecap:square;stroke-width:1.2;"/>
   </g>
   <g id="line2d_23">
    <path clip-path="url(#pbc100ba350)" d="M 329.956851 181.867358 
L 325.360217 180.786788 
L 318.504687 179.331038 
L 312.987763 178.386314 
L 308.121197 177.78607 
L 303.729829 177.480036 
L 299.613526 177.411213 
L 295.618214 177.548631 
L 291.913179 177.877636 
L 288.384738 178.419383 
L 285.478872 179.102472 
L 283.573424 179.745964 
L 282.0494 180.50931 
L 281.334659 181.102541 
L 281.025754 181.672959 
L 281.055368 182.074092 
L 281.33701 182.481714 
L 281.809729 182.822195 
L 282.941625 183.29978 
L 284.400604 183.685341 
L 286.868519 184.103533 
L 290.360355 184.447486 
L 294.765488 184.641293 
L 299.409874 184.640322 
L 304.707356 184.422117 
L 310.205929 183.967669 
L 317.532027 183.110464 
L 326.673524 182.07162 
L 329.471205 181.941253 
L 329.650967 181.956414 
L 329.650967 181.956414 
" style="fill:none;opacity:0.7;stroke:#000000;stroke-linecap:square;stroke-width:1.2;"/>
   </g>
   <g id="line2d_24">
    <path clip-path="url(#pbc100ba350)" d="M 329.851319 163.069068 
L 321.165875 161.048528 
L 315.568096 160.0453 
L 310.827624 159.414146 
L 306.466277 159.044195 
L 302.049653 158.887737 
L 297.324287 158.951778 
L 292.906259 159.247276 
L 289.390461 159.692128 
L 286.02254 160.358772 
L 283.56634 161.092599 
L 282.040425 161.803935 
L 281.365189 162.34409 
L 281.083488 162.887887 
L 281.131337 163.281555 
L 281.440296 163.705711 
L 282.307471 164.251067 
L 283.422141 164.660378 
L 285.591378 165.149576 
L 288.445645 165.520274 
L 292.191686 165.766445 
L 296.440246 165.835437 
L 301.280986 165.69493 
L 306.285257 165.314822 
L 312.203221 164.613705 
L 322.318576 163.390788 
L 326.814833 163.07691 
L 329.274869 163.108767 
L 329.50872 163.144809 
L 329.50872 163.144809 
" style="fill:none;opacity:0.7;stroke:#000000;stroke-linecap:square;stroke-width:1.2;"/>
   </g>
   <g id="line2d_25">
    <path clip-path="url(#pbc100ba350)" d="M 329.877912 144.275919 
L 324.300312 142.828396 
L 319.651317 141.872551 
L 314.756533 141.097721 
L 310.015322 140.59158 
L 305.916752 140.362266 
L 301.147893 140.320711 
L 296.018055 140.505429 
L 291.882851 140.856121 
L 288.2724 141.368225 
L 285.562498 141.930108 
L 283.468236 142.54 
L 281.962395 143.208704 
L 281.345213 143.701797 
L 281.161978 144.020493 
L 281.176718 144.47035 
L 281.465153 144.889331 
L 282.158293 145.386268 
L 283.328028 145.892069 
L 285.259475 146.413178 
L 287.881841 146.833996 
L 291.020163 147.097585 
L 294.936247 147.185746 
L 299.169285 147.04366 
L 303.643066 146.651634 
L 309.085394 145.906415 
L 317.97483 144.641835 
L 322.662625 144.212549 
L 326.126073 144.079638 
L 328.474414 144.161096 
L 329.553995 144.34632 
L 329.553995 144.34632 
" style="fill:none;opacity:0.7;stroke:#000000;stroke-linecap:square;stroke-width:1.2;"/>
   </g>
  </g>
 </g>
 <defs>
  <clipPath id="pbc100ba350">
   <rect height="329.04" width="329.04" x="15.48" y="15.48"/>
  </clipPath>
 </defs>
</svg>
