<?xml version="1.0" encoding="utf-8" standalone="no"?>
<!DOCTYPE svg PUBLIC "-//W3C//DTD SVG 1.1//EN"
  "http://www.w3.org/Graphics/SVG/1.1/DTD/svg11.dtd">
<!-- Created with matplotlib (http://matplotlib.org/) -->
<svg height="360pt" version="1.1" viewBox="0 0 360 360" width="360pt" xmlns="http://www.w3.org/2000/svg" xmlns:xlink="http://www.w3.org/1999/xlink">
 <defs>
  <style type="text/css">
*{stroke-linecap:butt;stroke-linejoin:round;}
  </style>
 </defs>
 <g id="figure_1">
  <g id="patch_1">
   <path d="M 0 360 
L 360 360 
L 360 0 
L 0 0 
z
" style="fill:#ffffff;"/>
  </g>
  <g id="axes_1">
   <g id="line2d_1">
    <path clip-path="url(#p492b42af0e)" d="M 79.044015 219.74851 
L 72.46906 215.599024 
L 69.32758 214.072312 
L 66.720036 212.99482 
L 63.39608 211.861036 
L 60.172859 211.014963 
L 57.25956 210.458086 
L 53.862329 210.033185 
L 50.261957 209.797924 
L 46.050949 209.761815 
L 43.063129 209.929864 
L 40.131777 210.337715 
L 37.806575 210.912395 
L 36.004691 211.567574 
L 34.045206 212.555775 
L 32.600889 213.525232 
L 31.073039 214.872253 
L 30.203562 215.912673 
L 29.72363 216.747895 
L 29.479543 217.620576 
L 29.475434 218.09597 
L 29.718321 218.900693 
L 30.185255 219.484478 
L 30.693266 219.823485 
L 31.506384 220.104465 
L 32.648941 220.244495 
L 34.696536 220.188095 
L 38.624737 219.735957 
L 44.531089 219.059957 
L 48.48312 218.856803 
L 52.601295 218.881135 
L 57.967108 219.166103 
L 75.11004 220.295225 
L 78.413934 220.288022 
L 79.124285 220.225514 
L 79.124285 220.225514 
" style="fill:none;opacity:0.7;stroke:#000000;stroke-linecap:square;stroke-width:1.2;"/>
   </g>
   <g id="line2d_2">
    <path clip-path="url(#p492b42af0e)" d="M 78.990335 200.936798 
L 76.53468 199.350571 
L 73.456864 197.682501 
L 70.232511 196.193081 
L 66.879282 194.872273 
L 63.019148 193.621107 
L 59.740408 192.78557 
L 55.998703 192.089761 
L 52.096456 191.642344 
L 48.324998 191.45366 
L 44.982288 191.497509 
L 41.817972 191.784669 
L 39.601888 192.185556 
L 37.627763 192.731511 
L 35.640864 193.521498 
L 33.830618 194.532979 
L 32.366682 195.652246 
L 31.296948 196.741893 
L 30.432398 197.926958 
L 29.934021 198.876906 
L 29.54084 200.155857 
L 29.516979 201.013941 
L 29.773652 201.660427 
L 30.070593 201.927844 
L 30.676882 202.16045 
L 31.508305 202.248982 
L 33.102693 202.178739 
L 36.461394 201.746597 
L 45.325344 200.513827 
L 49.712683 200.164448 
L 54.320716 200.03028 
L 59.283518 200.109129 
L 66.60149 200.494141 
L 79.034604 201.334486 
L 79.034604 201.334486 
" style="fill:none;opacity:0.7;stroke:#000000;stroke-linecap:square;stroke-width:1.2;"/>
   </g>
   <g id="line2d_3">
    <path clip-path="url(#p492b42af0e)" d="M 78.985141 182.098427 
L 77.692687 181.244532 
L 75.170022 179.848061 
L 71.993591 178.351146 
L 68.320972 176.868663 
L 64.414495 175.542249 
L 60.582939 174.488629 
L 56.863576 173.712878 
L 53.55576 173.236481 
L 49.817065 172.939451 
L 46.438735 172.899005 
L 43.58184 173.067806 
L 40.663211 173.495702 
L 38.342335 174.084085 
L 36.500081 174.763029 
L 34.566268 175.75854 
L 33.090674 176.807691 
L 31.822362 178.037356 
L 30.991213 179.125151 
L 30.216522 180.542282 
L 29.794036 181.813192 
L 29.717452 182.695268 
L 29.821517 183.138692 
L 30.056363 183.475218 
L 30.456659 183.722385 
L 31.114701 183.881826 
L 32.627192 183.907004 
L 35.376717 183.611151 
L 41.427714 182.630219 
L 47.510936 181.729657 
L 52.612058 181.220583 
L 57.356828 180.971214 
L 62.072795 180.94774 
L 67.417723 181.162885 
L 73.357826 181.644631 
L 78.154689 182.230975 
L 78.987615 182.394843 
L 78.987615 182.394843 
" style="fill:none;opacity:0.7;stroke:#000000;stroke-linecap:square;stroke-width:1.2;"/>
   </g>
   <g id="line2d_4">
    <path clip-path="url(#p492b42af0e)" d="M 79.061634 163.249178 
L 77.912176 162.472596 
L 75.533607 161.174667 
L 72.575242 159.809192 
L 68.935492 158.36568 
L 65.025521 157.051223 
L 61.148371 155.979122 
L 57.329113 155.160642 
L 53.929879 154.646059 
L 50.845827 154.361664 
L 47.676111 154.258428 
L 44.765509 154.355649 
L 41.87736 154.681437 
L 39.201798 155.25311 
L 36.990993 155.991834 
L 35.145168 156.869526 
L 33.48086 157.969331 
L 32.426083 158.907534 
L 31.365236 160.179733 
L 30.598262 161.496652 
L 30.093946 162.921755 
L 30.013337 163.864716 
L 30.211845 164.505493 
L 30.526398 164.854501 
L 31.017219 165.126385 
L 31.745581 165.324027 
L 33.314689 165.445009 
L 35.412226 165.340402 
L 38.375681 164.948893 
L 42.69123 164.10902 
L 52.003772 162.181511 
L 55.967774 161.62992 
L 59.185181 161.371331 
L 62.82236 161.295159 
L 67.025941 161.465482 
L 71.040966 161.84961 
L 74.805177 162.396975 
L 78.064047 163.083666 
L 78.982415 163.410444 
L 78.982415 163.410444 
" style="fill:none;opacity:0.7;stroke:#000000;stroke-linecap:square;stroke-width:1.2;"/>
   </g>
   <g id="line2d_5">
    <path clip-path="url(#p492b42af0e)" d="M 79.190675 144.373018 
L 78.212135 143.674176 
L 76.018458 142.457728 
L 73.301824 141.201204 
L 69.759181 139.79955 
L 65.890223 138.502588 
L 61.970082 137.415867 
L 58.029247 136.56105 
L 54.47664 136.011356 
L 51.220762 135.704175 
L 47.925001 135.59578 
L 44.910032 135.698451 
L 41.936408 136.036541 
L 39.213745 136.619274 
L 36.946753 137.37771 
L 35.076959 138.27269 
L 33.766667 139.119823 
L 32.672869 140.050377 
L 31.626156 141.2827 
L 30.900287 142.56745 
L 30.484006 143.860303 
L 30.416633 144.823424 
L 30.55196 145.406084 
L 30.83673 145.862259 
L 31.52937 146.373286 
L 32.691722 146.764809 
L 34.371214 146.990334 
L 36.590273 146.997762 
L 39.02119 146.762227 
L 41.653787 146.280558 
L 44.281829 145.599515 
L 48.944876 144.082429 
L 53.079157 142.797273 
L 55.902825 142.132126 
L 58.793572 141.688352 
L 61.772953 141.488153 
L 64.904168 141.530402 
L 68.306903 141.822566 
L 71.537845 142.303655 
L 75.08803 143.057937 
L 77.436901 143.734629 
L 78.888942 144.341117 
L 79.101434 144.483871 
L 79.101434 144.483871 
" style="fill:none;opacity:0.7;stroke:#000000;stroke-linecap:square;stroke-width:1.2;"/>
   </g>
   <g id="line2d_6">
    <path clip-path="url(#p492b42af0e)" d="M 141.699099 219.814473 
L 140.041326 218.845871 
L 137.356817 217.361652 
L 133.827224 215.681709 
L 130.144936 214.204314 
L 126.884056 213.113959 
L 123.132599 212.110439 
L 119.371437 211.371548 
L 115.437316 210.866105 
L 111.785978 210.614733 
L 108.399833 210.571692 
L 105.573639 210.717709 
L 102.846316 211.08824 
L 100.664211 211.619173 
L 98.97298 212.229262 
L 97.160291 213.142921 
L 95.721339 214.120996 
L 94.393011 215.286878 
L 93.107073 216.754497 
L 92.203392 218.209597 
L 91.924962 219.035023 
L 91.951759 219.753628 
L 92.143349 220.104868 
L 92.455646 220.380399 
L 93.137442 220.682315 
L 94.063016 220.876994 
L 95.762789 221.008092 
L 98.909339 220.966795 
L 104.566069 220.593194 
L 111.853045 220.149392 
L 116.241058 220.092265 
L 122.390927 220.241944 
L 132.788264 220.504602 
L 137.93121 220.424729 
L 141.155108 220.192083 
L 141.774472 220.097005 
L 141.774472 220.097005 
" style="fill:none;opacity:0.7;stroke:#000000;stroke-linecap:square;stroke-width:1.2;"/>
   </g>
   <g id="line2d_7">
    <path clip-path="url(#p492b42af0e)" d="M 141.528742 201.0033 
L 137.345809 198.813753 
L 133.944281 197.326644 
L 130.219964 195.930019 
L 126.25691 194.686822 
L 122.426843 193.725994 
L 118.823007 193.046404 
L 114.973386 192.561654 
L 111.392133 192.330331 
L 108.161744 192.321439 
L 105.315118 192.516818 
L 102.571786 192.954455 
L 100.66366 193.455285 
L 98.771633 194.16752 
L 96.985207 195.10877 
L 95.46472 196.201066 
L 94.310094 197.287433 
L 93.339268 198.455455 
L 92.479108 199.860809 
L 92.152211 200.751505 
L 92.137322 201.514417 
L 92.316519 201.883066 
L 92.61271 202.155417 
L 93.238495 202.439325 
L 94.077769 202.619514 
L 95.676989 202.73757 
L 98.143536 202.691065 
L 102.578814 202.343583 
L 113.423441 201.388864 
L 118.76453 201.224272 
L 126.230969 201.265455 
L 139.499986 201.354475 
L 141.628915 201.25409 
L 141.628915 201.25409 
" style="fill:none;opacity:0.7;stroke:#000000;stroke-linecap:square;stroke-width:1.2;"/>
   </g>
   <g id="line2d_8">
    <path clip-path="url(#p492b42af0e)" d="M 141.475642 182.186307 
L 139.045531 180.899047 
L 135.648232 179.382517 
L 131.755699 177.898472 
L 127.85905 176.632228 
L 123.582504 175.487968 
L 119.818137 174.707151 
L 115.963483 174.144941 
L 112.354235 173.848351 
L 109.063817 173.79321 
L 106.35686 173.937784 
L 103.592885 174.315437 
L 101.327682 174.849528 
L 99.511257 175.467785 
L 97.579178 176.374112 
L 96.026713 177.363846 
L 94.66538 178.523271 
L 93.755963 179.53816 
L 92.909337 180.809637 
L 92.458895 181.89524 
L 92.383699 182.656439 
L 92.507802 183.08252 
L 92.953395 183.569449 
L 93.569195 183.865418 
L 94.851232 184.134825 
L 96.792474 184.235756 
L 99.876292 184.107244 
L 104.8143 183.615016 
L 114.21892 182.626787 
L 119.860918 182.299097 
L 126.599894 182.167229 
L 135.291669 182.240361 
L 141.599124 182.387159 
L 141.599124 182.387159 
" style="fill:none;opacity:0.7;stroke:#000000;stroke-linecap:square;stroke-width:1.2;"/>
   </g>
   <g id="line2d_9">
    <path clip-path="url(#p492b42af0e)" d="M 141.520612 163.366078 
L 139.418994 162.24614 
L 136.458993 160.932916 
L 132.549294 159.454089 
L 128.223347 158.069562 
L 123.923082 156.936203 
L 120.052288 156.135127 
L 116.116355 155.555747 
L 112.404994 155.247361 
L 109.049203 155.194328 
L 106.337826 155.344969 
L 103.554521 155.731721 
L 100.903837 156.384438 
L 98.862115 157.139079 
L 97.019929 158.084198 
L 95.460831 159.179877 
L 94.301481 160.285779 
L 93.438734 161.408596 
L 92.823188 162.608927 
L 92.619572 163.471665 
L 92.737171 164.243833 
L 93.011841 164.648638 
L 93.643213 165.09101 
L 94.799444 165.467814 
L 96.254374 165.668579 
L 98.459526 165.718198 
L 101.207118 165.553047 
L 105.364143 165.049211 
L 118.157989 163.295556 
L 122.816339 162.950793 
L 128.026074 162.79909 
L 134.027142 162.871597 
L 139.638729 163.170557 
L 141.631823 163.427778 
L 141.631823 163.427778 
" style="fill:none;opacity:0.7;stroke:#000000;stroke-linecap:square;stroke-width:1.2;"/>
   </g>
   <g id="line2d_10">
    <path clip-path="url(#p492b42af0e)" d="M 141.659979 144.529927 
L 140.492633 143.845708 
L 138.178825 142.724873 
L 134.378213 141.194536 
L 130.480431 139.873563 
L 125.789825 138.554863 
L 121.70889 137.644884 
L 117.823009 137.000584 
L 113.928683 136.594272 
L 110.931393 136.461019 
L 107.883769 136.512725 
L 104.885027 136.796373 
L 102.240006 137.297476 
L 100.137915 137.91561 
L 98.174863 138.729484 
L 96.43069 139.72916 
L 95.269528 140.620271 
L 94.162718 141.766574 
L 93.411678 142.889516 
L 92.969469 144.003655 
L 92.895674 144.817033 
L 93.024191 145.317368 
L 93.308935 145.750254 
L 93.976919 146.266076 
L 95.046946 146.712936 
L 96.548235 147.052014 
L 98.559337 147.242321 
L 100.825529 147.228062 
L 103.656566 146.964439 
L 107.038479 146.385593 
L 112.581008 145.132124 
L 117.323578 144.143067 
L 120.843145 143.616728 
L 124.34098 143.307127 
L 128.057183 143.18993 
L 132.174103 143.26939 
L 136.545799 143.569734 
L 140.018344 144.01819 
L 141.495309 144.37183 
L 141.728061 144.474965 
L 141.728061 144.474965 
" style="fill:none;opacity:0.7;stroke:#000000;stroke-linecap:square;stroke-width:1.2;"/>
   </g>
   <g id="line2d_11">
    <path clip-path="url(#p492b42af0e)" d="M 204.539563 219.841838 
L 203.072012 219.115803 
L 200.010227 217.630574 
L 196.378124 216.079212 
L 192.561493 214.665068 
L 188.545103 213.411223 
L 184.641137 212.435425 
L 181.005746 211.754831 
L 177.216499 211.28347 
L 173.737884 211.067394 
L 170.571387 211.074394 
L 167.756537 211.29254 
L 165.2712 211.715791 
L 163.395841 212.233547 
L 161.620699 212.938858 
L 159.938181 213.869138 
L 158.349032 215.06384 
L 157.147707 216.229 
L 156.101269 217.472029 
L 155.130618 218.946349 
L 154.833907 219.693401 
L 154.867021 220.329094 
L 155.087858 220.626429 
L 155.698617 220.974028 
L 157.14182 221.327347 
L 159.359446 221.561125 
L 162.395468 221.664392 
L 167.230384 221.587055 
L 184.234993 221.09544 
L 193.976462 220.94372 
L 199.374991 220.651605 
L 203.395685 220.234659 
L 204.522286 220.046845 
L 204.522286 220.046845 
" style="fill:none;opacity:0.7;stroke:#000000;stroke-linecap:square;stroke-width:1.2;"/>
   </g>
   <g id="line2d_12">
    <path clip-path="url(#p492b42af0e)" d="M 204.228712 201.03273 
L 198.273825 198.417844 
L 194.072224 196.877917 
L 189.727865 195.520263 
L 185.434863 194.423969 
L 181.780638 193.703821 
L 178.098723 193.193828 
L 174.647338 192.924361 
L 171.404762 192.877922 
L 168.782507 193.021208 
L 166.149836 193.377394 
L 163.951343 193.889148 
L 162.212757 194.475793 
L 160.3694 195.332005 
L 158.81324 196.309439 
L 157.390997 197.488798 
L 156.110558 198.899971 
L 155.281082 200.189448 
L 155.012875 200.967226 
L 155.010153 201.432914 
L 155.169126 201.830481 
L 155.676848 202.296912 
L 156.379201 202.616869 
L 157.771681 202.949028 
L 159.826632 203.16129 
L 162.933594 203.208443 
L 167.031108 203.025796 
L 184.317515 201.967003 
L 202.897074 201.340851 
L 204.24182 201.213435 
L 204.24182 201.213435 
" style="fill:none;opacity:0.7;stroke:#000000;stroke-linecap:square;stroke-width:1.2;"/>
   </g>
   <g id="line2d_13">
    <path clip-path="url(#p492b42af0e)" d="M 204.106431 182.236314 
L 200.697337 180.697133 
L 196.504632 179.098706 
L 191.822124 177.578247 
L 187.463269 176.393193 
L 183.539636 175.531274 
L 179.452634 174.867431 
L 176.033647 174.517157 
L 172.541799 174.379592 
L 169.38688 174.490833 
L 166.706472 174.812229 
L 164.756559 175.211961 
L 162.647323 175.842923 
L 160.779725 176.623259 
L 159.023138 177.617672 
L 157.561691 178.72588 
L 156.372498 179.9323 
L 155.556913 181.088489 
L 155.174127 182.041862 
L 155.174837 182.714645 
L 155.3697 183.128823 
L 155.911829 183.611813 
L 156.917134 184.045576 
L 158.464761 184.376312 
L 160.474829 184.557926 
L 163.363655 184.576372 
L 167.366474 184.350869 
L 174.952377 183.630542 
L 181.847127 183.060031 
L 189.127575 182.70506 
L 200.096604 182.437193 
L 204.074334 182.351826 
L 204.074334 182.351826 
" style="fill:none;opacity:0.7;stroke:#000000;stroke-linecap:square;stroke-width:1.2;"/>
   </g>
   <g id="line2d_14">
    <path clip-path="url(#p492b42af0e)" d="M 204.173651 163.428297 
L 201.756938 162.285651 
L 198.08939 160.837719 
L 193.593483 159.335027 
L 189.017952 158.052066 
L 184.630875 157.055692 
L 180.240114 156.314274 
L 176.661399 155.924082 
L 173.27961 155.756625 
L 169.89495 155.828622 
L 167.248125 156.100593 
L 164.710206 156.591113 
L 162.541485 157.237567 
L 160.636988 158.032079 
L 158.85763 159.042319 
L 157.394233 160.172079 
L 156.273115 161.366842 
L 155.573387 162.472715 
L 155.301159 163.355837 
L 155.37639 164.027981 
L 155.626936 164.448895 
L 156.239086 164.946936 
L 157.259345 165.391694 
L 158.723932 165.742015 
L 160.663792 165.963381 
L 163.4015 166.015993 
L 166.801832 165.825535 
L 171.64176 165.286823 
L 182.875882 163.933609 
L 188.057042 163.555709 
L 194.255036 163.333955 
L 200.659421 163.328904 
L 204.140919 163.503961 
L 204.140919 163.503961 
" style="fill:none;opacity:0.7;stroke:#000000;stroke-linecap:square;stroke-width:1.2;"/>
   </g>
   <g id="line2d_15">
    <path clip-path="url(#p492b42af0e)" d="M 204.307095 144.587381 
L 202.103252 143.490044 
L 198.946349 142.202654 
L 195.071667 140.86746 
L 190.323321 139.499461 
L 185.800596 138.449432 
L 181.393487 137.677798 
L 177.572934 137.231364 
L 173.833257 137.018189 
L 170.418989 137.05576 
L 167.552278 137.31116 
L 164.925388 137.78213 
L 162.810625 138.374229 
L 160.840373 139.151529 
L 159.046483 140.125714 
L 157.824252 141.011949 
L 156.6842 142.12493 
L 155.959684 143.142487 
L 155.547741 144.148823 
L 155.515267 144.890203 
L 155.676993 145.346676 
L 156.008922 145.773981 
L 156.720843 146.288896 
L 157.787975 146.754889 
L 159.242204 147.146492 
L 161.174575 147.431464 
L 163.818929 147.541378 
L 166.322206 147.426131 
L 169.372798 147.067057 
L 173.562627 146.325399 
L 181.716034 144.818564 
L 185.915314 144.297308 
L 190.320407 143.989592 
L 195.336882 143.889948 
L 199.631938 144.003636 
L 203.081166 144.303896 
L 204.231872 144.554762 
L 204.231872 144.554762 
" style="fill:none;opacity:0.7;stroke:#000000;stroke-linecap:square;stroke-width:1.2;"/>
   </g>
   <g id="line2d_16">
    <path clip-path="url(#p492b42af0e)" d="M 267.495262 219.873082 
L 267.106727 219.718902 
L 261.477645 217.211067 
L 257.24894 215.575091 
L 252.696295 214.062161 
L 248.673351 212.965908 
L 244.83436 212.162989 
L 241.491429 211.677217 
L 238.204092 211.403668 
L 235.249755 211.342192 
L 231.982555 211.511246 
L 229.378042 211.872926 
L 227.003848 212.438209 
L 225.098916 213.109689 
L 223.404632 213.924953 
L 221.751069 214.983066 
L 220.284777 216.204792 
L 219.032872 217.525087 
L 218.123985 218.766932 
L 217.73474 219.72844 
L 217.760766 220.174085 
L 217.961425 220.550328 
L 218.559505 221.035992 
L 219.105436 221.309067 
L 220.782405 221.854867 
L 223.048023 222.30181 
L 226.125413 222.643215 
L 229.803234 222.80395 
L 234.912139 222.756502 
L 243.191499 222.39112 
L 254.616419 221.688816 
L 259.929019 221.162943 
L 264.945072 220.456471 
L 267.396212 220.015305 
L 267.396212 220.015305 
" style="fill:none;opacity:0.7;stroke:#000000;stroke-linecap:square;stroke-width:1.2;"/>
   </g>
   <g id="line2d_17">
    <path clip-path="url(#p492b42af0e)" d="M 267.093117 201.054562 
L 258.364339 197.664285 
L 253.577555 196.142226 
L 249.182753 194.971133 
L 245.355327 194.159704 
L 241.397069 193.56004 
L 238.115588 193.269164 
L 234.618372 193.190069 
L 231.489948 193.360816 
L 228.894766 193.722632 
L 226.983196 194.152256 
L 224.606269 194.938477 
L 222.833171 195.767012 
L 221.21838 196.772558 
L 219.792641 197.946671 
L 218.621343 199.246988 
L 218.121076 200.021251 
L 217.809894 200.963613 
L 217.859327 201.456809 
L 218.07889 201.88528 
L 218.677555 202.435177 
L 219.778166 202.994445 
L 221.213249 203.444204 
L 223.288145 203.842202 
L 226.321775 204.127848 
L 229.252098 204.194732 
L 233.594905 204.057413 
L 239.923497 203.590518 
L 266.968367 201.22305 
L 266.968367 201.22305 
" style="fill:none;opacity:0.7;stroke:#000000;stroke-linecap:square;stroke-width:1.2;"/>
   </g>
   <g id="line2d_18">
    <path clip-path="url(#p492b42af0e)" d="M 266.950408 182.260434 
L 262.686891 180.521596 
L 258.694083 179.115622 
L 253.84988 177.634148 
L 249.430853 176.498489 
L 244.945835 175.589967 
L 241.142789 175.047727 
L 237.782559 174.768474 
L 234.365083 174.707207 
L 231.341408 174.882971 
L 228.754819 175.250922 
L 226.469443 175.787731 
L 224.651541 176.39416 
L 222.765515 177.242648 
L 221.093981 178.252441 
L 219.699448 179.37993 
L 218.869454 180.266072 
L 218.178474 181.317029 
L 217.928663 182.210216 
L 218.002461 182.716613 
L 218.243053 183.152186 
L 218.854356 183.704016 
L 219.896409 184.24145 
L 221.235914 184.674815 
L 223.200448 185.064909 
L 226.09111 185.343512 
L 228.972802 185.401096 
L 233.163935 185.230975 
L 238.134749 184.791526 
L 257.202382 182.854309 
L 264.889477 182.404893 
L 266.691588 182.370693 
L 266.691588 182.370693 
" style="fill:none;opacity:0.7;stroke:#000000;stroke-linecap:square;stroke-width:1.2;"/>
   </g>
   <g id="line2d_19">
    <path clip-path="url(#p492b42af0e)" d="M 267.002355 163.455348 
L 263.951804 162.12633 
L 260.552409 160.874607 
L 255.872319 159.394884 
L 251.182578 158.153025 
L 246.812895 157.222011 
L 242.560742 156.554996 
L 238.577878 156.175117 
L 235.073057 156.068517 
L 231.88327 156.202984 
L 229.242159 156.529497 
L 227.236638 156.941123 
L 225.037077 157.595779 
L 223.11204 158.393357 
L 221.296585 159.416339 
L 219.845081 160.536359 
L 218.813191 161.658304 
L 218.228453 162.672602 
L 218.071437 163.511513 
L 218.190619 164.022565 
L 218.466709 164.457321 
L 219.127125 165.01891 
L 220.166564 165.546603 
L 221.449427 165.968458 
L 223.356325 166.360864 
L 225.587605 166.605869 
L 228.631697 166.694861 
L 231.919264 166.566122 
L 235.980045 166.183783 
L 242.076666 165.345028 
L 250.146131 164.229224 
L 255.673949 163.717245 
L 260.997962 163.441367 
L 264.837339 163.405912 
L 266.75046 163.535715 
L 266.75046 163.535715 
" style="fill:none;opacity:0.7;stroke:#000000;stroke-linecap:square;stroke-width:1.2;"/>
   </g>
   <g id="line2d_20">
    <path clip-path="url(#p492b42af0e)" d="M 267.1388 144.635089 
L 264.885032 143.570227 
L 261.542957 142.276809 
L 257.416377 140.933797 
L 253.228826 139.785098 
L 248.834319 138.796989 
L 244.286592 138.024237 
L 240.049603 137.558725 
L 236.41926 137.379089 
L 233.051459 137.431432 
L 230.265585 137.682068 
L 227.602934 138.15146 
L 225.431659 138.747586 
L 223.450694 139.510916 
L 221.615496 140.481154 
L 220.34145 141.387418 
L 219.23794 142.463412 
L 218.597884 143.396503 
L 218.277369 144.340451 
L 218.33905 145.07569 
L 218.580377 145.54614 
L 219.016814 146.01254 
L 219.830485 146.558117 
L 220.93688 147.05189 
L 222.87017 147.605249 
L 224.999222 147.95612 
L 227.487327 148.136132 
L 230.573584 148.095568 
L 233.434216 147.847422 
L 237.326429 147.26557 
L 243.194261 146.110278 
L 248.171481 145.191584 
L 252.471836 144.627516 
L 256.981706 144.281823 
L 260.901002 144.177119 
L 264.32831 144.274488 
L 266.528206 144.550552 
L 266.874499 144.648579 
L 266.874499 144.648579 
" style="fill:none;opacity:0.7;stroke:#000000;stroke-linecap:square;stroke-width:1.2;"/>
   </g>
   <g id="line2d_21">
    <path clip-path="url(#p492b42af0e)" d="M 330.534829 219.863732 
L 330.17598 219.727789 
L 324.620177 217.234285 
L 319.774045 215.34999 
L 315.401139 213.908498 
L 311.426589 212.848895 
L 307.629137 212.099343 
L 304.156235 211.663132 
L 301.037383 211.48283 
L 298.019508 211.506386 
L 294.993237 211.747583 
L 292.286384 212.186865 
L 289.778148 212.835819 
L 288.007675 213.475038 
L 286.167108 214.347579 
L 284.646614 215.278561 
L 283.036999 216.553732 
L 281.969117 217.65158 
L 281.210653 218.702228 
L 280.884531 219.51696 
L 280.908126 220.162322 
L 281.153263 220.637866 
L 281.938833 221.350197 
L 282.871975 221.887892 
L 284.730645 222.648593 
L 286.984161 223.297597 
L 289.550164 223.806654 
L 292.655269 224.183922 
L 296.295583 224.380854 
L 300.99741 224.361998 
L 305.728696 224.127581 
L 311.648567 223.596484 
L 316.277274 222.991058 
L 321.616898 222.049592 
L 326.611345 220.937196 
L 330.337891 220.063677 
L 330.337891 220.063677 
" style="fill:none;opacity:0.7;stroke:#000000;stroke-linecap:square;stroke-width:1.2;"/>
   </g>
   <g id="line2d_22">
    <path clip-path="url(#p492b42af0e)" d="M 330.209452 201.055373 
L 327.076119 199.770924 
L 322.275062 197.97146 
L 317.590027 196.440058 
L 313.038319 195.183141 
L 309.410851 194.377628 
L 305.729506 193.773393 
L 302.319358 193.429217 
L 299.036023 193.308574 
L 295.751226 193.415703 
L 293.22885 193.680124 
L 290.77144 194.127344 
L 288.572801 194.729941 
L 286.82845 195.385682 
L 285.16822 196.206433 
L 283.567397 197.258392 
L 282.25646 198.432047 
L 281.539592 199.310401 
L 280.999434 200.353926 
L 280.894245 201.021811 
L 280.963014 201.450625 
L 281.221984 201.975273 
L 281.698934 202.505372 
L 282.594053 203.149585 
L 283.924288 203.808929 
L 286.086479 204.540103 
L 288.567885 205.084023 
L 291.091986 205.420371 
L 294.162066 205.614031 
L 297.619981 205.621549 
L 302.155145 205.384838 
L 307.019286 204.897648 
L 312.55393 204.109673 
L 321.173579 202.594587 
L 328.508691 201.393425 
L 329.960316 201.261862 
L 329.960316 201.261862 
" style="fill:none;opacity:0.7;stroke:#000000;stroke-linecap:square;stroke-width:1.2;"/>
   </g>
   <g id="line2d_23">
    <path clip-path="url(#p492b42af0e)" d="M 330.023048 182.247289 
L 323.910904 179.882823 
L 319.47112 178.431376 
L 314.629733 177.074949 
L 310.232685 176.072147 
L 306.002753 175.355755 
L 302.579467 174.983493 
L 299.244224 174.819535 
L 295.946789 174.876779 
L 292.828433 175.177454 
L 290.251767 175.658715 
L 288.251757 176.219978 
L 286.371289 176.942994 
L 284.622557 177.847721 
L 283.452729 178.635441 
L 282.17938 179.777649 
L 281.516516 180.61723 
L 281.043135 181.613401 
L 280.964257 182.270981 
L 281.043824 182.707018 
L 281.312322 183.244215 
L 281.798683 183.789245 
L 282.667638 184.422327 
L 283.876482 185.031174 
L 285.911964 185.727852 
L 288.237401 186.239326 
L 290.701307 186.564004 
L 293.671411 186.73783 
L 296.986367 186.716775 
L 300.732935 186.480263 
L 305.035162 185.985381 
L 309.816563 185.213672 
L 322.089455 183.091623 
L 326.950246 182.541579 
L 329.51245 182.438029 
L 329.741995 182.460316 
L 329.741995 182.460316 
" style="fill:none;opacity:0.7;stroke:#000000;stroke-linecap:square;stroke-width:1.2;"/>
   </g>
   <g id="line2d_24">
    <path clip-path="url(#p492b42af0e)" d="M 330.022758 163.448464 
L 326.426386 161.959822 
L 322.207855 160.491827 
L 317.587909 159.117863 
L 312.705017 157.915069 
L 308.251727 157.068221 
L 304.317208 156.55145 
L 300.369474 156.278635 
L 296.862028 156.270507 
L 293.821915 156.482809 
L 291.224153 156.871284 
L 288.854435 157.439445 
L 286.95515 158.084721 
L 285.076717 158.948744 
L 283.357893 160.03971 
L 282.114228 161.169718 
L 281.500308 161.991382 
L 281.201905 162.607249 
L 281.056674 163.260223 
L 281.165234 164.045579 
L 281.459062 164.590461 
L 281.973776 165.14739 
L 282.847867 165.769775 
L 283.97965 166.332082 
L 285.929227 166.992176 
L 288.159628 167.474467 
L 290.592958 167.783776 
L 293.504207 167.934099 
L 296.741865 167.879001 
L 300.489228 167.576787 
L 304.66234 166.989149 
L 309.354615 166.089079 
L 317.210984 164.551952 
L 321.754077 163.919314 
L 326.188494 163.543907 
L 329.043891 163.52329 
L 329.739697 163.617375 
L 329.739697 163.617375 
" style="fill:none;opacity:0.7;stroke:#000000;stroke-linecap:square;stroke-width:1.2;"/>
   </g>
   <g id="line2d_25">
    <path clip-path="url(#p492b42af0e)" d="M 330.113304 144.645318 
L 327.738623 143.585846 
L 324.082703 142.248021 
L 319.690208 140.900032 
L 315.418829 139.802346 
L 311.063888 138.8972 
L 306.603431 138.217303 
L 302.531985 137.840415 
L 298.943744 137.719516 
L 295.570712 137.816542 
L 292.837581 138.085052 
L 290.071352 138.582436 
L 287.850567 139.194573 
L 285.88922 139.94722 
L 284.069498 140.907617 
L 282.794034 141.839079 
L 281.831706 142.859256 
L 281.349371 143.714364 
L 281.191281 144.361907 
L 281.229579 144.985439 
L 281.382382 145.42319 
L 281.738928 145.973757 
L 282.673831 146.805364 
L 283.559234 147.328796 
L 285.349946 148.06355 
L 287.266982 148.585988 
L 289.97853 149.037729 
L 292.626984 149.238983 
L 295.311041 149.242686 
L 298.249822 149.043321 
L 301.323729 148.63361 
L 305.384724 147.828857 
L 317.130594 145.209754 
L 321.068542 144.704751 
L 324.875711 144.450381 
L 327.520449 144.453868 
L 329.092888 144.600638 
L 329.852597 144.795605 
L 329.852597 144.795605 
" style="fill:none;opacity:0.7;stroke:#000000;stroke-linecap:square;stroke-width:1.2;"/>
   </g>
  </g>
 </g>
 <defs>
  <clipPath id="p492b42af0e">
   <rect height="329.04" width="329.04" x="15.48" y="15.48"/>
  </clipPath>
 </defs>
</svg>
