<?xml version="1.0" encoding="utf-8" standalone="no"?>
<!DOCTYPE svg PUBLIC "-//W3C//DTD SVG 1.1//EN"
  "http://www.w3.org/Graphics/SVG/1.1/DTD/svg11.dtd">
<!-- Created with matplotlib (http://matplotlib.org/) -->
<svg height="360pt" version="1.1" viewBox="0 0 360 360" width="360pt" xmlns="http://www.w3.org/2000/svg" xmlns:xlink="http://www.w3.org/1999/xlink">
 <defs>
  <style type="text/css">
*{stroke-linecap:butt;stroke-linejoin:round;}
  </style>
 </defs>
 <g id="figure_1">
  <g id="patch_1">
   <path d="M 0 360 
L 360 360 
L 360 0 
L 0 0 
z
" style="fill:#ffffff;"/>
  </g>
  <g id="axes_1">
   <g id="line2d_1">
    <path clip-path="url(#p78c8cd735e)" d="M 78.71252 219.241407 
L 77.124858 218.863847 
L 67.942037 216.649016 
L 62.107779 215.472355 
L 57.199038 214.71783 
L 53.431519 214.333066 
L 49.274317 214.111021 
L 44.751552 214.082498 
L 41.386694 214.257514 
L 38.680243 214.643852 
L 36.437798 215.232986 
L 34.835139 215.84944 
L 32.990068 216.810651 
L 31.42155 217.925627 
L 30.589117 218.745616 
L 30.200712 219.418492 
L 30.270065 219.680169 
L 30.463293 219.727132 
L 30.999846 219.595758 
L 36.476167 217.448915 
L 38.703293 216.934157 
L 40.842955 216.655972 
L 43.647336 216.543447 
L 47.369296 216.651048 
L 52.607922 217.052015 
L 61.334973 217.998826 
L 73.953803 219.350736 
L 77.831514 219.574534 
L 78.667515 219.561821 
L 78.667515 219.561821 
" style="fill:none;opacity:0.7;stroke:#000000;stroke-linecap:square;stroke-width:1.2;"/>
   </g>
   <g id="line2d_2">
    <path clip-path="url(#p78c8cd735e)" d="M 78.587173 200.304453 
L 72.959368 198.918196 
L 66.580806 197.575488 
L 61.106212 196.649951 
L 57.040361 196.150203 
L 52.457324 195.823848 
L 47.795344 195.734991 
L 43.141851 195.849469 
L 39.518677 196.15772 
L 36.865602 196.622045 
L 34.732598 197.220662 
L 32.889299 197.963847 
L 31.290579 198.876458 
L 30.400209 199.621053 
L 29.938085 200.315794 
L 29.943959 200.659705 
L 30.11665 200.785103 
L 30.381072 200.805339 
L 31.367317 200.575495 
L 36.321659 199.076641 
L 39.170875 198.516208 
L 41.811919 198.241399 
L 45.08743 198.156885 
L 50.570771 198.297353 
L 56.940377 198.677557 
L 65.733179 199.449618 
L 78.580051 200.70575 
L 78.580051 200.70575 
" style="fill:none;opacity:0.7;stroke:#000000;stroke-linecap:square;stroke-width:1.2;"/>
   </g>
   <g id="line2d_3">
    <path clip-path="url(#p78c8cd735e)" d="M 78.600245 181.432584 
L 75.908657 180.606856 
L 70.913314 179.296901 
L 65.954321 178.209114 
L 61.373681 177.422812 
L 57.002346 176.925019 
L 53.109581 176.727529 
L 48.819029 176.757221 
L 43.58243 177.04005 
L 39.725424 177.445058 
L 36.970911 177.928261 
L 34.387156 178.62269 
L 32.551373 179.332228 
L 31.263026 180.013353 
L 30.302281 180.742603 
L 29.811462 181.433868 
L 29.810073 181.780317 
L 29.991136 181.929782 
L 30.292472 181.972823 
L 31.370434 181.79768 
L 38.223403 180.153572 
L 40.984079 179.762529 
L 43.825555 179.561812 
L 49.077187 179.477901 
L 55.484401 179.579536 
L 61.767621 179.914762 
L 68.273373 180.482799 
L 75.611798 181.348071 
L 78.519834 181.803607 
L 78.519834 181.803607 
" style="fill:none;opacity:0.7;stroke:#000000;stroke-linecap:square;stroke-width:1.2;"/>
   </g>
   <g id="line2d_4">
    <path clip-path="url(#p78c8cd735e)" d="M 78.664831 162.560888 
L 76.312649 161.737863 
L 72.36603 160.571584 
L 67.710113 159.401164 
L 63.205233 158.489232 
L 59.411936 157.930481 
L 55.71871 157.616777 
L 52.050917 157.552504 
L 47.726105 157.742203 
L 43.483522 158.119158 
L 39.146819 158.726002 
L 36.098898 159.388039 
L 33.966053 160.038852 
L 32.077348 160.816632 
L 30.804591 161.529102 
L 29.904816 162.270063 
L 29.619415 162.798986 
L 29.735276 162.994691 
L 30.141435 163.065215 
L 31.314509 162.919426 
L 42.121742 160.970673 
L 45.460707 160.680914 
L 51.146371 160.442622 
L 56.41975 160.433177 
L 61.77844 160.661126 
L 67.099158 161.105004 
L 72.541828 161.764396 
L 77.370855 162.571432 
L 78.523042 162.887367 
L 78.523042 162.887367 
" style="fill:none;opacity:0.7;stroke:#000000;stroke-linecap:square;stroke-width:1.2;"/>
   </g>
   <g id="line2d_5">
    <path clip-path="url(#p78c8cd735e)" d="M 78.785425 143.677522 
L 77.755433 143.248131 
L 73.730647 141.894019 
L 69.618873 140.732662 
L 65.080626 139.674735 
L 61.1085 138.972793 
L 57.265415 138.5462 
L 54.284542 138.419181 
L 50.42623 138.518074 
L 45.97849 138.904559 
L 41.342934 139.532833 
L 38.396063 140.092049 
L 35.135359 140.948435 
L 32.632189 141.870295 
L 30.723434 142.842903 
L 29.614984 143.676957 
L 29.478885 143.985092 
L 29.640942 144.064428 
L 30.375888 144.061284 
L 33.039658 143.721256 
L 49.655979 141.306772 
L 53.762216 141.085397 
L 58.374387 141.084882 
L 63.061758 141.333078 
L 67.667774 141.791052 
L 72.820427 142.542772 
L 76.620999 143.305952 
L 78.491511 143.877871 
L 78.618747 143.950772 
L 78.618747 143.950772 
" style="fill:none;opacity:0.7;stroke:#000000;stroke-linecap:square;stroke-width:1.2;"/>
   </g>
   <g id="line2d_6">
    <path clip-path="url(#p78c8cd735e)" d="M 141.44435 219.246815 
L 139.95707 218.962181 
L 129.460537 216.751524 
L 123.435969 215.744845 
L 119.004573 215.211279 
L 114.435718 214.87796 
L 109.601638 214.755866 
L 106.044475 214.856954 
L 103.096421 215.148345 
L 100.813414 215.56027 
L 98.325535 216.244016 
L 96.252374 217.042584 
L 94.414098 217.974097 
L 92.659124 219.137367 
L 92.414305 219.402166 
L 92.440797 219.410546 
L 93.206721 219.328698 
L 96.614264 218.983452 
L 101.554249 218.75672 
L 109.188198 218.65441 
L 117.166983 218.7455 
L 129.236025 219.161903 
L 139.597645 219.443809 
L 141.47578 219.378055 
L 141.47578 219.378055 
" style="fill:none;opacity:0.7;stroke:#000000;stroke-linecap:square;stroke-width:1.2;"/>
   </g>
   <g id="line2d_7">
    <path clip-path="url(#p78c8cd735e)" d="M 141.142237 200.329025 
L 126.355562 197.825343 
L 120.651529 197.154647 
L 115.550363 196.776968 
L 110.260638 196.608539 
L 105.357028 196.666676 
L 101.97931 196.914629 
L 99.07241 197.353727 
L 96.886647 197.879022 
L 95.020126 198.52012 
L 93.729078 199.132712 
L 92.791851 199.754719 
L 92.256012 200.366499 
L 92.291518 200.544255 
L 92.464853 200.608949 
L 93.314808 200.599166 
L 101.970691 199.917071 
L 107.516587 199.812765 
L 116.505637 199.894345 
L 130.067863 200.2532 
L 141.25731 200.527403 
L 141.25731 200.527403 
" style="fill:none;opacity:0.7;stroke:#000000;stroke-linecap:square;stroke-width:1.2;"/>
   </g>
   <g id="line2d_8">
    <path clip-path="url(#p78c8cd735e)" d="M 140.992519 181.45576 
L 135.176043 180.292165 
L 128.700263 179.227903 
L 123.502547 178.575216 
L 118.515474 178.172268 
L 113.893679 178.015442 
L 107.887632 178.052328 
L 102.968183 178.293442 
L 99.433952 178.694066 
L 96.829515 179.197398 
L 94.93668 179.747494 
L 93.651825 180.286074 
L 92.7003 180.886104 
L 92.218855 181.467863 
L 92.236667 181.669264 
L 92.520338 181.804685 
L 93.474409 181.820658 
L 98.206303 181.396795 
L 103.138301 181.089043 
L 109.005816 180.988385 
L 122.77038 181.070711 
L 133.860692 181.366007 
L 141.146243 181.692732 
L 141.146243 181.692732 
" style="fill:none;opacity:0.7;stroke:#000000;stroke-linecap:square;stroke-width:1.2;"/>
   </g>
   <g id="line2d_9">
    <path clip-path="url(#p78c8cd735e)" d="M 141.028411 162.633825 
L 136.746669 161.650487 
L 131.152618 160.590753 
L 125.827972 159.797792 
L 121.195792 159.32267 
L 117.01737 159.107145 
L 112.318062 159.100967 
L 106.43482 159.329791 
L 102.091096 159.68073 
L 98.36611 160.217025 
L 95.736648 160.822466 
L 93.962401 161.429593 
L 92.92491 161.948487 
L 92.238539 162.519049 
L 92.183708 162.78267 
L 92.361105 162.900696 
L 93.112483 162.977882 
L 95.641506 162.841515 
L 104.213836 162.249032 
L 110.599727 162.097642 
L 123.136753 162.049056 
L 131.63063 162.244805 
L 138.93683 162.611435 
L 141.092746 162.822097 
L 141.092746 162.822097 
" style="fill:none;opacity:0.7;stroke:#000000;stroke-linecap:square;stroke-width:1.2;"/>
   </g>
   <g id="line2d_10">
    <path clip-path="url(#p78c8cd735e)" d="M 141.203594 143.815027 
L 138.550825 143.091408 
L 133.946393 142.060272 
L 128.38898 141.062871 
L 124.243608 140.508894 
L 119.717434 140.137476 
L 115.666584 140.047769 
L 110.921079 140.200875 
L 105.383224 140.597699 
L 101.048878 141.102011 
L 97.778914 141.690677 
L 95.285558 142.341821 
L 93.465411 143.012551 
L 92.248119 143.682923 
L 92.16701 143.898055 
L 92.383092 143.981937 
L 93.243358 144.059203 
L 95.865726 144.027641 
L 101.162072 143.700922 
L 110.436633 143.109642 
L 117.695822 142.90531 
L 125.567547 142.911121 
L 132.684719 143.131491 
L 138.499136 143.502861 
L 141.046368 143.831696 
L 141.195935 143.879486 
L 141.195935 143.879486 
" style="fill:none;opacity:0.7;stroke:#000000;stroke-linecap:square;stroke-width:1.2;"/>
   </g>
   <g id="line2d_11">
    <path clip-path="url(#p78c8cd735e)" d="M 204.323235 219.26985 
L 202.814868 218.9987 
L 193.803014 217.145061 
L 188.253539 216.242522 
L 183.506946 215.689578 
L 179.017842 215.386033 
L 174.559314 215.288784 
L 170.235769 215.405332 
L 167.150676 215.674489 
L 164.06982 216.162135 
L 161.457058 216.787588 
L 158.767935 217.672782 
L 155.85369 218.914945 
L 155.082268 219.333831 
L 155.105818 219.354072 
L 155.659955 219.452037 
L 158.985286 219.618709 
L 166.170373 219.776534 
L 174.293306 219.706032 
L 189.565588 219.584766 
L 202.645299 219.441191 
L 204.335766 219.323405 
L 204.335766 219.323405 
" style="fill:none;opacity:0.7;stroke:#000000;stroke-linecap:square;stroke-width:1.2;"/>
   </g>
   <g id="line2d_12">
    <path clip-path="url(#p78c8cd735e)" d="M 203.798952 200.369036 
L 200.078569 199.791284 
L 191.566553 198.525063 
L 184.99846 197.775665 
L 179.378931 197.372364 
L 173.737496 197.213715 
L 169.118861 197.268507 
L 165.017591 197.535497 
L 162.064538 197.925862 
L 159.288657 198.505214 
L 156.984854 199.225922 
L 155.649284 199.851987 
L 155.070893 200.332872 
L 155.109547 200.515391 
L 155.326741 200.606823 
L 156.325546 200.709976 
L 160.687116 200.724617 
L 203.940738 200.470781 
L 203.940738 200.470781 
" style="fill:none;opacity:0.7;stroke:#000000;stroke-linecap:square;stroke-width:1.2;"/>
   </g>
   <g id="line2d_13">
    <path clip-path="url(#p78c8cd735e)" d="M 203.469212 181.509552 
L 194.429314 180.26833 
L 187.191167 179.48174 
L 180.924203 179.014191 
L 175.284497 178.81075 
L 169.239949 178.809603 
L 164.621268 179.018433 
L 161.194034 179.388785 
L 158.221817 179.956023 
L 156.533901 180.47796 
L 155.602401 180.934036 
L 155.085054 181.432847 
L 155.10568 181.647733 
L 155.273088 181.765871 
L 155.774057 181.886438 
L 157.558182 181.966064 
L 166.388521 181.816144 
L 201.457427 181.620611 
L 203.63323 181.615613 
L 203.63323 181.615613 
" style="fill:none;opacity:0.7;stroke:#000000;stroke-linecap:square;stroke-width:1.2;"/>
   </g>
   <g id="line2d_14">
    <path clip-path="url(#p78c8cd735e)" d="M 203.470744 162.690954 
L 197.705189 161.807935 
L 190.697341 160.95471 
L 184.285695 160.399918 
L 178.896038 160.150648 
L 172.670034 160.108932 
L 166.386658 160.278674 
L 162.19164 160.61226 
L 159.109878 161.074233 
L 156.898467 161.61913 
L 155.589147 162.167658 
L 155.106572 162.609982 
L 155.143194 162.813847 
L 155.544655 163.004404 
L 156.662863 163.146433 
L 159.50702 163.181499 
L 199.026513 162.653632 
L 203.535735 162.764763 
L 203.535735 162.764763 
" style="fill:none;opacity:0.7;stroke:#000000;stroke-linecap:square;stroke-width:1.2;"/>
   </g>
   <g id="line2d_15">
    <path clip-path="url(#p78c8cd735e)" d="M 203.635845 143.86794 
L 198.869907 143.03966 
L 192.484776 142.171108 
L 186.801869 141.60989 
L 181.639043 141.314035 
L 176.586595 141.249979 
L 169.843247 141.420717 
L 164.300974 141.760295 
L 160.652501 142.195769 
L 157.685597 142.77889 
L 155.828251 143.358744 
L 155.141546 143.763439 
L 155.152871 143.91073 
L 155.402249 144.048646 
L 156.334878 144.239185 
L 158.287897 144.397514 
L 161.952015 144.4464 
L 167.799058 144.263059 
L 184.626878 143.636148 
L 193.179755 143.557439 
L 200.684684 143.703608 
L 203.694485 143.911118 
L 203.694485 143.911118 
" style="fill:none;opacity:0.7;stroke:#000000;stroke-linecap:square;stroke-width:1.2;"/>
   </g>
   <g id="line2d_16">
    <path clip-path="url(#p78c8cd735e)" d="M 267.424052 219.277545 
L 267.048845 219.22895 
L 255.945579 216.808832 
L 251.553088 216.148809 
L 247.513647 215.736059 
L 242.961829 215.511793 
L 238.5203 215.515093 
L 233.775505 215.730754 
L 230.054685 216.098928 
L 226.851286 216.619662 
L 223.793299 217.339407 
L 220.573296 218.357937 
L 217.941658 219.331318 
L 217.970849 219.380805 
L 218.17809 219.500096 
L 219.198109 219.773881 
L 221.548372 220.14464 
L 225.48311 220.514542 
L 229.783991 220.690451 
L 234.924249 220.680503 
L 245.92262 220.369416 
L 261.859739 219.744731 
L 266.861557 219.357207 
L 267.383318 219.276761 
L 267.383318 219.276761 
" style="fill:none;opacity:0.7;stroke:#000000;stroke-linecap:square;stroke-width:1.2;"/>
   </g>
   <g id="line2d_17">
    <path clip-path="url(#p78c8cd735e)" d="M 266.953414 200.391606 
L 265.184688 200.132015 
L 256.477401 198.768169 
L 250.196883 198.027143 
L 244.97452 197.631784 
L 239.94629 197.477303 
L 234.233012 197.548493 
L 229.62893 197.805853 
L 225.986393 198.213303 
L 222.79441 198.78352 
L 219.844876 199.54435 
L 218.182668 200.168165 
L 217.955593 200.406991 
L 218.041258 200.547914 
L 218.335091 200.682973 
L 219.483493 200.913576 
L 222.703689 201.220283 
L 228.116181 201.491216 
L 233.98585 201.586739 
L 242.498919 201.476282 
L 256.17748 201.0448 
L 265.84392 200.552625 
L 267.018741 200.460009 
L 267.018741 200.460009 
" style="fill:none;opacity:0.7;stroke:#000000;stroke-linecap:square;stroke-width:1.2;"/>
   </g>
   <g id="line2d_18">
    <path clip-path="url(#p78c8cd735e)" d="M 266.437578 181.544776 
L 247.9524 179.565618 
L 241.79638 179.218717 
L 236.084436 179.115161 
L 230.495226 179.221796 
L 226.183866 179.520609 
L 222.586217 180.017393 
L 219.886403 180.624794 
L 218.417296 181.183002 
L 218.056158 181.530858 
L 218.084504 181.667671 
L 218.268467 181.806273 
L 218.858187 181.980757 
L 220.676758 182.193619 
L 225.408971 182.400945 
L 234.164617 182.534422 
L 242.618955 182.446934 
L 255.149791 182.059085 
L 266.625977 181.612106 
L 266.625977 181.612106 
" style="fill:none;opacity:0.7;stroke:#000000;stroke-linecap:square;stroke-width:1.2;"/>
   </g>
   <g id="line2d_19">
    <path clip-path="url(#p78c8cd735e)" d="M 266.253888 162.723222 
L 256.656557 161.706999 
L 248.362107 161.038928 
L 241.634249 160.696939 
L 234.782814 160.582796 
L 228.806159 160.699821 
L 224.895448 160.985582 
L 221.549388 161.456966 
L 219.504633 161.922822 
L 218.40681 162.349735 
L 218.066023 162.700893 
L 218.108694 162.846937 
L 218.321646 163.000248 
L 218.928475 163.184899 
L 220.687381 163.406527 
L 224.366091 163.570875 
L 232.145104 163.634889 
L 240.912732 163.490281 
L 266.434646 162.755258 
L 266.434646 162.755258 
" style="fill:none;opacity:0.7;stroke:#000000;stroke-linecap:square;stroke-width:1.2;"/>
   </g>
   <g id="line2d_20">
    <path clip-path="url(#p78c8cd735e)" d="M 266.370419 143.895909 
L 261.279329 143.298668 
L 253.336573 142.578431 
L 245.645558 142.10569 
L 239.214063 141.923681 
L 232.10227 141.938815 
L 226.88148 142.15321 
L 222.979603 142.556583 
L 220.247416 143.034531 
L 218.547814 143.498113 
L 218.090158 143.786836 
L 218.129541 143.975888 
L 218.369877 144.127302 
L 219.366141 144.399776 
L 221.25479 144.644515 
L 224.793952 144.836636 
L 229.720511 144.867332 
L 236.751646 144.675951 
L 259.957624 143.826994 
L 265.967447 143.869065 
L 266.492665 143.90407 
L 266.492665 143.90407 
" style="fill:none;opacity:0.7;stroke:#000000;stroke-linecap:square;stroke-width:1.2;"/>
   </g>
   <g id="line2d_21">
    <path clip-path="url(#p78c8cd735e)" d="M 330.534829 219.234073 
L 330.185201 219.17939 
L 324.540696 217.632042 
L 320.806846 216.828361 
L 316.541024 216.128914 
L 312.784936 215.716057 
L 308.483198 215.489812 
L 304.065103 215.513912 
L 299.096033 215.772194 
L 294.243033 216.224921 
L 290.604977 216.76055 
L 287.66437 217.374789 
L 284.09399 218.374542 
L 281.45928 219.102057 
L 280.9031 219.315972 
L 280.97152 219.468795 
L 281.274641 219.667627 
L 282.459948 220.100599 
L 284.823311 220.639682 
L 288.171599 221.126831 
L 292.206324 221.454427 
L 296.920889 221.582428 
L 303.342805 221.477362 
L 311.85682 221.081638 
L 320.687682 220.464376 
L 327.536606 219.775533 
L 330.473196 219.281364 
L 330.473196 219.281364 
" style="fill:none;opacity:0.7;stroke:#000000;stroke-linecap:square;stroke-width:1.2;"/>
   </g>
   <g id="line2d_22">
    <path clip-path="url(#p78c8cd735e)" d="M 330.190701 200.371753 
L 329.725781 200.321532 
L 319.316786 198.560058 
L 313.945396 197.930144 
L 308.927544 197.566527 
L 304.036002 197.449418 
L 298.93997 197.559598 
L 293.779342 197.879727 
L 289.780733 198.327059 
L 286.305806 198.931214 
L 282.196766 199.9111 
L 280.935094 200.328703 
L 280.89219 200.505482 
L 281.104348 200.7128 
L 281.829452 201.013202 
L 283.702483 201.437234 
L 287.102988 201.891539 
L 291.613877 202.236131 
L 297.008875 202.402321 
L 303.083007 202.36362 
L 311.036364 202.079092 
L 319.421619 201.562682 
L 326.37082 200.945329 
L 330.168195 200.47181 
L 330.168195 200.47181 
" style="fill:none;opacity:0.7;stroke:#000000;stroke-linecap:square;stroke-width:1.2;"/>
   </g>
   <g id="line2d_23">
    <path clip-path="url(#p78c8cd735e)" d="M 329.817032 181.539554 
L 326.399488 181.111195 
L 318.212243 180.140432 
L 311.454519 179.542167 
L 305.551945 179.232658 
L 300.271229 179.165011 
L 294.620209 179.313572 
L 289.948923 179.65244 
L 286.143603 180.164149 
L 282.640696 180.86657 
L 281.182136 181.329003 
L 280.963624 181.613505 
L 281.113396 181.845134 
L 281.526856 182.060086 
L 282.831431 182.397024 
L 285.236628 182.736147 
L 289.903737 183.111727 
L 295.754313 183.342299 
L 301.753244 183.366265 
L 308.978145 183.156719 
L 317.102476 182.692396 
L 326.939427 181.903532 
L 329.883844 181.65005 
L 329.883844 181.65005 
" style="fill:none;opacity:0.7;stroke:#000000;stroke-linecap:square;stroke-width:1.2;"/>
   </g>
   <g id="line2d_24">
    <path clip-path="url(#p78c8cd735e)" d="M 329.524353 162.728017 
L 311.322299 161.116214 
L 304.457413 160.796564 
L 298.033355 160.72385 
L 292.632713 160.857267 
L 288.216585 161.180376 
L 284.404239 161.689478 
L 281.784278 162.224601 
L 281.144593 162.52334 
L 281.006041 162.780329 
L 281.169664 163.035128 
L 281.597934 163.263548 
L 282.857061 163.594175 
L 285.087246 163.902632 
L 289.560878 164.234068 
L 295.273437 164.431103 
L 301.289536 164.42714 
L 308.317776 164.168508 
L 318.102942 163.539458 
L 329.653943 162.788404 
L 329.653943 162.788404 
" style="fill:none;opacity:0.7;stroke:#000000;stroke-linecap:square;stroke-width:1.2;"/>
   </g>
   <g id="line2d_25">
    <path clip-path="url(#p78c8cd735e)" d="M 329.454758 143.926219 
L 319.354978 143.044617 
L 310.376851 142.48252 
L 302.558505 142.220062 
L 295.147292 142.206527 
L 290.37078 142.378981 
L 286.363676 142.733424 
L 282.683604 143.268722 
L 281.361717 143.596978 
L 281.071681 143.862424 
L 281.129606 144.07735 
L 281.416839 144.30597 
L 282.159494 144.601237 
L 283.903209 144.968637 
L 286.855903 145.29405 
L 291.371214 145.53324 
L 296.590978 145.598032 
L 302.444107 145.442838 
L 310.231976 144.971797 
L 325.548344 143.996381 
L 329.591105 143.939765 
L 329.591105 143.939765 
" style="fill:none;opacity:0.7;stroke:#000000;stroke-linecap:square;stroke-width:1.2;"/>
   </g>
  </g>
 </g>
 <defs>
  <clipPath id="p78c8cd735e">
   <rect height="329.04" width="329.04" x="15.48" y="15.48"/>
  </clipPath>
 </defs>
</svg>
