<?xml version="1.0" encoding="utf-8" standalone="no"?>
<!DOCTYPE svg PUBLIC "-//W3C//DTD SVG 1.1//EN"
  "http://www.w3.org/Graphics/SVG/1.1/DTD/svg11.dtd">
<!-- Created with matplotlib (http://matplotlib.org/) -->
<svg height="345pt" version="1.1" viewBox="0 0 460 345" width="460pt" xmlns="http://www.w3.org/2000/svg" xmlns:xlink="http://www.w3.org/1999/xlink">
 <defs>
  <style type="text/css">
*{stroke-linecap:butt;stroke-linejoin:round;}
  </style>
 </defs>
 <g id="figure_1">
  <g id="patch_1">
   <path d="M 0 345.6 
L 460.8 345.6 
L 460.8 0 
L 0 0 
z
" style="fill:#ffffff;"/>
  </g>
  <g id="axes_1">
   <g id="patch_2">
    <path d="M 57.6 307.584 
L 414.72 307.584 
L 414.72 41.472 
L 57.6 41.472 
z
" style="fill:#ffffff;"/>
   </g>
   <g id="matplotlib.axis_1">
    <g id="xtick_1">
     <g id="line2d_1">
      <defs>
       <path d="M 0 0 
L 0 3.5 
" id="m74471bfbbf" style="stroke:#000000;stroke-width:0.8;"/>
      </defs>
      <g>
       <use style="stroke:#000000;stroke-width:0.8;" x="87.36" xlink:href="#m74471bfbbf" y="307.584"/>
      </g>
     </g>
     <g id="text_1">
      <!-- 0.0 -->
      <defs>
       <path d="M 31.78125 66.40625 
Q 24.171875 66.40625 20.328125 58.90625 
Q 16.5 51.421875 16.5 36.375 
Q 16.5 21.390625 20.328125 13.890625 
Q 24.171875 6.390625 31.78125 6.390625 
Q 39.453125 6.390625 43.28125 13.890625 
Q 47.125 21.390625 47.125 36.375 
Q 47.125 51.421875 43.28125 58.90625 
Q 39.453125 66.40625 31.78125 66.40625 
z
M 31.78125 74.21875 
Q 44.046875 74.21875 50.515625 64.515625 
Q 56.984375 54.828125 56.984375 36.375 
Q 56.984375 17.96875 50.515625 8.265625 
Q 44.046875 -1.421875 31.78125 -1.421875 
Q 19.53125 -1.421875 13.0625 8.265625 
Q 6.59375 17.96875 6.59375 36.375 
Q 6.59375 54.828125 13.0625 64.515625 
Q 19.53125 74.21875 31.78125 74.21875 
z
" id="DejaVuSans-30"/>
       <path d="M 10.6875 12.40625 
L 21 12.40625 
L 21 0 
L 10.6875 0 
z
" id="DejaVuSans-2e"/>
      </defs>
      <g transform="translate(79.408438 322.182437)scale(0.1 -0.1)">
       <use xlink:href="#DejaVuSans-30"/>
       <use x="63.623047" xlink:href="#DejaVuSans-2e"/>
       <use x="95.410156" xlink:href="#DejaVuSans-30"/>
      </g>
     </g>
    </g>
    <g id="xtick_2">
     <g id="line2d_2">
      <g>
       <use style="stroke:#000000;stroke-width:0.8;" x="146.88" xlink:href="#m74471bfbbf" y="307.584"/>
      </g>
     </g>
     <g id="text_2">
      <!-- 0.2 -->
      <defs>
       <path d="M 19.1875 8.296875 
L 53.609375 8.296875 
L 53.609375 0 
L 7.328125 0 
L 7.328125 8.296875 
Q 12.9375 14.109375 22.625 23.890625 
Q 32.328125 33.6875 34.8125 36.53125 
Q 39.546875 41.84375 41.421875 45.53125 
Q 43.3125 49.21875 43.3125 52.78125 
Q 43.3125 58.59375 39.234375 62.25 
Q 35.15625 65.921875 28.609375 65.921875 
Q 23.96875 65.921875 18.8125 64.3125 
Q 13.671875 62.703125 7.8125 59.421875 
L 7.8125 69.390625 
Q 13.765625 71.78125 18.9375 73 
Q 24.125 74.21875 28.421875 74.21875 
Q 39.75 74.21875 46.484375 68.546875 
Q 53.21875 62.890625 53.21875 53.421875 
Q 53.21875 48.921875 51.53125 44.890625 
Q 49.859375 40.875 45.40625 35.40625 
Q 44.1875 33.984375 37.640625 27.21875 
Q 31.109375 20.453125 19.1875 8.296875 
z
" id="DejaVuSans-32"/>
      </defs>
      <g transform="translate(138.928438 322.182437)scale(0.1 -0.1)">
       <use xlink:href="#DejaVuSans-30"/>
       <use x="63.623047" xlink:href="#DejaVuSans-2e"/>
       <use x="95.410156" xlink:href="#DejaVuSans-32"/>
      </g>
     </g>
    </g>
    <g id="xtick_3">
     <g id="line2d_3">
      <g>
       <use style="stroke:#000000;stroke-width:0.8;" x="206.4" xlink:href="#m74471bfbbf" y="307.584"/>
      </g>
     </g>
     <g id="text_3">
      <!-- 0.4 -->
      <defs>
       <path d="M 37.796875 64.3125 
L 12.890625 25.390625 
L 37.796875 25.390625 
z
M 35.203125 72.90625 
L 47.609375 72.90625 
L 47.609375 25.390625 
L 58.015625 25.390625 
L 58.015625 17.1875 
L 47.609375 17.1875 
L 47.609375 0 
L 37.796875 0 
L 37.796875 17.1875 
L 4.890625 17.1875 
L 4.890625 26.703125 
z
" id="DejaVuSans-34"/>
      </defs>
      <g transform="translate(198.448438 322.182437)scale(0.1 -0.1)">
       <use xlink:href="#DejaVuSans-30"/>
       <use x="63.623047" xlink:href="#DejaVuSans-2e"/>
       <use x="95.410156" xlink:href="#DejaVuSans-34"/>
      </g>
     </g>
    </g>
    <g id="xtick_4">
     <g id="line2d_4">
      <g>
       <use style="stroke:#000000;stroke-width:0.8;" x="265.92" xlink:href="#m74471bfbbf" y="307.584"/>
      </g>
     </g>
     <g id="text_4">
      <!-- 0.6 -->
      <defs>
       <path d="M 33.015625 40.375 
Q 26.375 40.375 22.484375 35.828125 
Q 18.609375 31.296875 18.609375 23.390625 
Q 18.609375 15.53125 22.484375 10.953125 
Q 26.375 6.390625 33.015625 6.390625 
Q 39.65625 6.390625 43.53125 10.953125 
Q 47.40625 15.53125 47.40625 23.390625 
Q 47.40625 31.296875 43.53125 35.828125 
Q 39.65625 40.375 33.015625 40.375 
z
M 52.59375 71.296875 
L 52.59375 62.3125 
Q 48.875 64.0625 45.09375 64.984375 
Q 41.3125 65.921875 37.59375 65.921875 
Q 27.828125 65.921875 22.671875 59.328125 
Q 17.53125 52.734375 16.796875 39.40625 
Q 19.671875 43.65625 24.015625 45.921875 
Q 28.375 48.1875 33.59375 48.1875 
Q 44.578125 48.1875 50.953125 41.515625 
Q 57.328125 34.859375 57.328125 23.390625 
Q 57.328125 12.15625 50.6875 5.359375 
Q 44.046875 -1.421875 33.015625 -1.421875 
Q 20.359375 -1.421875 13.671875 8.265625 
Q 6.984375 17.96875 6.984375 36.375 
Q 6.984375 53.65625 15.1875 63.9375 
Q 23.390625 74.21875 37.203125 74.21875 
Q 40.921875 74.21875 44.703125 73.484375 
Q 48.484375 72.75 52.59375 71.296875 
z
" id="DejaVuSans-36"/>
      </defs>
      <g transform="translate(257.968437 322.182437)scale(0.1 -0.1)">
       <use xlink:href="#DejaVuSans-30"/>
       <use x="63.623047" xlink:href="#DejaVuSans-2e"/>
       <use x="95.410156" xlink:href="#DejaVuSans-36"/>
      </g>
     </g>
    </g>
    <g id="xtick_5">
     <g id="line2d_5">
      <g>
       <use style="stroke:#000000;stroke-width:0.8;" x="325.44" xlink:href="#m74471bfbbf" y="307.584"/>
      </g>
     </g>
     <g id="text_5">
      <!-- 0.8 -->
      <defs>
       <path d="M 31.78125 34.625 
Q 24.75 34.625 20.71875 30.859375 
Q 16.703125 27.09375 16.703125 20.515625 
Q 16.703125 13.921875 20.71875 10.15625 
Q 24.75 6.390625 31.78125 6.390625 
Q 38.8125 6.390625 42.859375 10.171875 
Q 46.921875 13.96875 46.921875 20.515625 
Q 46.921875 27.09375 42.890625 30.859375 
Q 38.875 34.625 31.78125 34.625 
z
M 21.921875 38.8125 
Q 15.578125 40.375 12.03125 44.71875 
Q 8.5 49.078125 8.5 55.328125 
Q 8.5 64.0625 14.71875 69.140625 
Q 20.953125 74.21875 31.78125 74.21875 
Q 42.671875 74.21875 48.875 69.140625 
Q 55.078125 64.0625 55.078125 55.328125 
Q 55.078125 49.078125 51.53125 44.71875 
Q 48 40.375 41.703125 38.8125 
Q 48.828125 37.15625 52.796875 32.3125 
Q 56.78125 27.484375 56.78125 20.515625 
Q 56.78125 9.90625 50.3125 4.234375 
Q 43.84375 -1.421875 31.78125 -1.421875 
Q 19.734375 -1.421875 13.25 4.234375 
Q 6.78125 9.90625 6.78125 20.515625 
Q 6.78125 27.484375 10.78125 32.3125 
Q 14.796875 37.15625 21.921875 38.8125 
z
M 18.3125 54.390625 
Q 18.3125 48.734375 21.84375 45.5625 
Q 25.390625 42.390625 31.78125 42.390625 
Q 38.140625 42.390625 41.71875 45.5625 
Q 45.3125 48.734375 45.3125 54.390625 
Q 45.3125 60.0625 41.71875 63.234375 
Q 38.140625 66.40625 31.78125 66.40625 
Q 25.390625 66.40625 21.84375 63.234375 
Q 18.3125 60.0625 18.3125 54.390625 
z
" id="DejaVuSans-38"/>
      </defs>
      <g transform="translate(317.488437 322.182437)scale(0.1 -0.1)">
       <use xlink:href="#DejaVuSans-30"/>
       <use x="63.623047" xlink:href="#DejaVuSans-2e"/>
       <use x="95.410156" xlink:href="#DejaVuSans-38"/>
      </g>
     </g>
    </g>
    <g id="xtick_6">
     <g id="line2d_6">
      <g>
       <use style="stroke:#000000;stroke-width:0.8;" x="384.96" xlink:href="#m74471bfbbf" y="307.584"/>
      </g>
     </g>
     <g id="text_6">
      <!-- 1.0 -->
      <defs>
       <path d="M 12.40625 8.296875 
L 28.515625 8.296875 
L 28.515625 63.921875 
L 10.984375 60.40625 
L 10.984375 69.390625 
L 28.421875 72.90625 
L 38.28125 72.90625 
L 38.28125 8.296875 
L 54.390625 8.296875 
L 54.390625 0 
L 12.40625 0 
z
" id="DejaVuSans-31"/>
      </defs>
      <g transform="translate(377.008438 322.182437)scale(0.1 -0.1)">
       <use xlink:href="#DejaVuSans-31"/>
       <use x="63.623047" xlink:href="#DejaVuSans-2e"/>
       <use x="95.410156" xlink:href="#DejaVuSans-30"/>
      </g>
     </g>
    </g>
   </g>
   <g id="matplotlib.axis_2">
    <g id="ytick_1">
     <g id="line2d_7">
      <defs>
       <path d="M 0 0 
L -3.5 0 
" id="m4427a5e043" style="stroke:#000000;stroke-width:0.8;"/>
      </defs>
      <g>
       <use style="stroke:#000000;stroke-width:0.8;" x="57.6" xlink:href="#m4427a5e043" y="293.568"/>
      </g>
     </g>
     <g id="text_7">
      <!-- −0.4 -->
      <defs>
       <path d="M 10.59375 35.5 
L 73.1875 35.5 
L 73.1875 27.203125 
L 10.59375 27.203125 
z
" id="DejaVuSans-2212"/>
      </defs>
      <g transform="translate(26.317187 297.367219)scale(0.1 -0.1)">
       <use xlink:href="#DejaVuSans-2212"/>
       <use x="83.789062" xlink:href="#DejaVuSans-30"/>
       <use x="147.412109" xlink:href="#DejaVuSans-2e"/>
       <use x="179.199219" xlink:href="#DejaVuSans-34"/>
      </g>
     </g>
    </g>
    <g id="ytick_2">
     <g id="line2d_8">
      <g>
       <use style="stroke:#000000;stroke-width:0.8;" x="57.6" xlink:href="#m4427a5e043" y="263.808"/>
      </g>
     </g>
     <g id="text_8">
      <!-- −0.3 -->
      <defs>
       <path d="M 40.578125 39.3125 
Q 47.65625 37.796875 51.625 33 
Q 55.609375 28.21875 55.609375 21.1875 
Q 55.609375 10.40625 48.1875 4.484375 
Q 40.765625 -1.421875 27.09375 -1.421875 
Q 22.515625 -1.421875 17.65625 -0.515625 
Q 12.796875 0.390625 7.625 2.203125 
L 7.625 11.71875 
Q 11.71875 9.328125 16.59375 8.109375 
Q 21.484375 6.890625 26.8125 6.890625 
Q 36.078125 6.890625 40.9375 10.546875 
Q 45.796875 14.203125 45.796875 21.1875 
Q 45.796875 27.640625 41.28125 31.265625 
Q 36.765625 34.90625 28.71875 34.90625 
L 20.21875 34.90625 
L 20.21875 43.015625 
L 29.109375 43.015625 
Q 36.375 43.015625 40.234375 45.921875 
Q 44.09375 48.828125 44.09375 54.296875 
Q 44.09375 59.90625 40.109375 62.90625 
Q 36.140625 65.921875 28.71875 65.921875 
Q 24.65625 65.921875 20.015625 65.03125 
Q 15.375 64.15625 9.8125 62.3125 
L 9.8125 71.09375 
Q 15.4375 72.65625 20.34375 73.4375 
Q 25.25 74.21875 29.59375 74.21875 
Q 40.828125 74.21875 47.359375 69.109375 
Q 53.90625 64.015625 53.90625 55.328125 
Q 53.90625 49.265625 50.4375 45.09375 
Q 46.96875 40.921875 40.578125 39.3125 
z
" id="DejaVuSans-33"/>
      </defs>
      <g transform="translate(26.317187 267.607219)scale(0.1 -0.1)">
       <use xlink:href="#DejaVuSans-2212"/>
       <use x="83.789062" xlink:href="#DejaVuSans-30"/>
       <use x="147.412109" xlink:href="#DejaVuSans-2e"/>
       <use x="179.199219" xlink:href="#DejaVuSans-33"/>
      </g>
     </g>
    </g>
    <g id="ytick_3">
     <g id="line2d_9">
      <g>
       <use style="stroke:#000000;stroke-width:0.8;" x="57.6" xlink:href="#m4427a5e043" y="234.048"/>
      </g>
     </g>
     <g id="text_9">
      <!-- −0.2 -->
      <g transform="translate(26.317187 237.847219)scale(0.1 -0.1)">
       <use xlink:href="#DejaVuSans-2212"/>
       <use x="83.789062" xlink:href="#DejaVuSans-30"/>
       <use x="147.412109" xlink:href="#DejaVuSans-2e"/>
       <use x="179.199219" xlink:href="#DejaVuSans-32"/>
      </g>
     </g>
    </g>
    <g id="ytick_4">
     <g id="line2d_10">
      <g>
       <use style="stroke:#000000;stroke-width:0.8;" x="57.6" xlink:href="#m4427a5e043" y="204.288"/>
      </g>
     </g>
     <g id="text_10">
      <!-- −0.1 -->
      <g transform="translate(26.317187 208.087219)scale(0.1 -0.1)">
       <use xlink:href="#DejaVuSans-2212"/>
       <use x="83.789062" xlink:href="#DejaVuSans-30"/>
       <use x="147.412109" xlink:href="#DejaVuSans-2e"/>
       <use x="179.199219" xlink:href="#DejaVuSans-31"/>
      </g>
     </g>
    </g>
    <g id="ytick_5">
     <g id="line2d_11">
      <g>
       <use style="stroke:#000000;stroke-width:0.8;" x="57.6" xlink:href="#m4427a5e043" y="174.528"/>
      </g>
     </g>
     <g id="text_11">
      <!-- 0.0 -->
      <g transform="translate(34.696875 178.327219)scale(0.1 -0.1)">
       <use xlink:href="#DejaVuSans-30"/>
       <use x="63.623047" xlink:href="#DejaVuSans-2e"/>
       <use x="95.410156" xlink:href="#DejaVuSans-30"/>
      </g>
     </g>
    </g>
    <g id="ytick_6">
     <g id="line2d_12">
      <g>
       <use style="stroke:#000000;stroke-width:0.8;" x="57.6" xlink:href="#m4427a5e043" y="144.768"/>
      </g>
     </g>
     <g id="text_12">
      <!-- 0.1 -->
      <g transform="translate(34.696875 148.567219)scale(0.1 -0.1)">
       <use xlink:href="#DejaVuSans-30"/>
       <use x="63.623047" xlink:href="#DejaVuSans-2e"/>
       <use x="95.410156" xlink:href="#DejaVuSans-31"/>
      </g>
     </g>
    </g>
    <g id="ytick_7">
     <g id="line2d_13">
      <g>
       <use style="stroke:#000000;stroke-width:0.8;" x="57.6" xlink:href="#m4427a5e043" y="115.008"/>
      </g>
     </g>
     <g id="text_13">
      <!-- 0.2 -->
      <g transform="translate(34.696875 118.807219)scale(0.1 -0.1)">
       <use xlink:href="#DejaVuSans-30"/>
       <use x="63.623047" xlink:href="#DejaVuSans-2e"/>
       <use x="95.410156" xlink:href="#DejaVuSans-32"/>
      </g>
     </g>
    </g>
    <g id="ytick_8">
     <g id="line2d_14">
      <g>
       <use style="stroke:#000000;stroke-width:0.8;" x="57.6" xlink:href="#m4427a5e043" y="85.248"/>
      </g>
     </g>
     <g id="text_14">
      <!-- 0.3 -->
      <g transform="translate(34.696875 89.047219)scale(0.1 -0.1)">
       <use xlink:href="#DejaVuSans-30"/>
       <use x="63.623047" xlink:href="#DejaVuSans-2e"/>
       <use x="95.410156" xlink:href="#DejaVuSans-33"/>
      </g>
     </g>
    </g>
    <g id="ytick_9">
     <g id="line2d_15">
      <g>
       <use style="stroke:#000000;stroke-width:0.8;" x="57.6" xlink:href="#m4427a5e043" y="55.488"/>
      </g>
     </g>
     <g id="text_15">
      <!-- 0.4 -->
      <g transform="translate(34.696875 59.287219)scale(0.1 -0.1)">
       <use xlink:href="#DejaVuSans-30"/>
       <use x="63.623047" xlink:href="#DejaVuSans-2e"/>
       <use x="95.410156" xlink:href="#DejaVuSans-34"/>
      </g>
     </g>
    </g>
   </g>
   <g id="line2d_16">
    <defs>
     <path d="M 0 1.5 
C 0.397805 1.5 0.77937 1.341951 1.06066 1.06066 
C 1.341951 0.77937 1.5 0.397805 1.5 0 
C 1.5 -0.397805 1.341951 -0.77937 1.06066 -1.06066 
C 0.77937 -1.341951 0.397805 -1.5 0 -1.5 
C -0.397805 -1.5 -0.77937 -1.341951 -1.06066 -1.06066 
C -1.341951 -0.77937 -1.5 -0.397805 -1.5 0 
C -1.5 0.397805 -1.341951 0.77937 -1.06066 1.06066 
C -0.77937 1.341951 -0.397805 1.5 0 1.5 
z
" id="m34c62ac014" style="stroke:#0000ff;"/>
    </defs>
    <g clip-path="url(#p17fd927d55)">
     <use style="fill:#0000ff;opacity:0.7;stroke:#0000ff;" x="384.96" xlink:href="#m34c62ac014" y="174.153024"/>
     <use style="fill:#0000ff;opacity:0.7;stroke:#0000ff;" x="384.786202" xlink:href="#m34c62ac014" y="174.128621"/>
     <use style="fill:#0000ff;opacity:0.7;stroke:#0000ff;" x="384.265402" xlink:href="#m34c62ac014" y="174.055709"/>
     <use style="fill:#0000ff;opacity:0.7;stroke:#0000ff;" x="383.398493" xlink:href="#m34c62ac014" y="173.934586"/>
     <use style="fill:#0000ff;opacity:0.7;stroke:#0000ff;" x="382.187856" xlink:href="#m34c62ac014" y="173.766144"/>
     <use style="fill:#0000ff;opacity:0.7;stroke:#0000ff;" x="380.63617" xlink:href="#m34c62ac014" y="173.551872"/>
     <use style="fill:#0000ff;opacity:0.7;stroke:#0000ff;" x="378.747005" xlink:href="#m34c62ac014" y="173.292365"/>
     <use style="fill:#0000ff;opacity:0.7;stroke:#0000ff;" x="376.524826" xlink:href="#m34c62ac014" y="172.989706"/>
     <use style="fill:#0000ff;opacity:0.7;stroke:#0000ff;" x="373.974691" xlink:href="#m34c62ac014" y="172.645978"/>
     <use style="fill:#0000ff;opacity:0.7;stroke:#0000ff;" x="371.102851" xlink:href="#m34c62ac014" y="172.262966"/>
     <use style="fill:#0000ff;opacity:0.7;stroke:#0000ff;" x="367.915853" xlink:href="#m34c62ac014" y="171.843053"/>
     <use style="fill:#0000ff;opacity:0.7;stroke:#0000ff;" x="364.421136" xlink:href="#m34c62ac014" y="171.388618"/>
     <use style="fill:#0000ff;opacity:0.7;stroke:#0000ff;" x="360.626736" xlink:href="#m34c62ac014" y="170.902637"/>
     <use style="fill:#0000ff;opacity:0.7;stroke:#0000ff;" x="356.541878" xlink:href="#m34c62ac014" y="170.387194"/>
     <use style="fill:#0000ff;opacity:0.7;stroke:#0000ff;" x="352.175491" xlink:href="#m34c62ac014" y="169.845264"/>
     <use style="fill:#0000ff;opacity:0.7;stroke:#0000ff;" x="347.538288" xlink:href="#m34c62ac014" y="169.279824"/>
     <use style="fill:#0000ff;opacity:0.7;stroke:#0000ff;" x="342.64128" xlink:href="#m34c62ac014" y="168.693552"/>
     <use style="fill:#0000ff;opacity:0.7;stroke:#0000ff;" x="337.495181" xlink:href="#m34c62ac014" y="168.089424"/>
     <use style="fill:#0000ff;opacity:0.7;stroke:#0000ff;" x="332.11249" xlink:href="#m34c62ac014" y="167.470714"/>
     <use style="fill:#0000ff;opacity:0.7;stroke:#0000ff;" x="326.505706" xlink:href="#m34c62ac014" y="166.839802"/>
     <use style="fill:#0000ff;opacity:0.7;stroke:#0000ff;" x="320.687923" xlink:href="#m34c62ac014" y="166.200259"/>
     <use style="fill:#0000ff;opacity:0.7;stroke:#0000ff;" x="314.672832" xlink:href="#m34c62ac014" y="165.554765"/>
     <use style="fill:#0000ff;opacity:0.7;stroke:#0000ff;" x="308.474419" xlink:href="#m34c62ac014" y="164.90689"/>
     <use style="fill:#0000ff;opacity:0.7;stroke:#0000ff;" x="302.10697" xlink:href="#m34c62ac014" y="164.259014"/>
     <use style="fill:#0000ff;opacity:0.7;stroke:#0000ff;" x="295.585363" xlink:href="#m34c62ac014" y="163.615008"/>
     <use style="fill:#0000ff;opacity:0.7;stroke:#0000ff;" x="288.925373" xlink:href="#m34c62ac014" y="162.977846"/>
     <use style="fill:#0000ff;opacity:0.7;stroke:#0000ff;" x="282.141878" xlink:href="#m34c62ac014" y="162.351101"/>
     <use style="fill:#0000ff;opacity:0.7;stroke:#0000ff;" x="275.25095" xlink:href="#m34c62ac014" y="161.737747"/>
     <use style="fill:#0000ff;opacity:0.7;stroke:#0000ff;" x="268.268659" xlink:href="#m34c62ac014" y="161.141952"/>
     <use style="fill:#0000ff;opacity:0.7;stroke:#0000ff;" x="261.21167" xlink:href="#m34c62ac014" y="160.566989"/>
     <use style="fill:#0000ff;opacity:0.7;stroke:#0000ff;" x="254.095757" xlink:href="#m34c62ac014" y="160.016429"/>
     <use style="fill:#0000ff;opacity:0.7;stroke:#0000ff;" x="246.938179" xlink:href="#m34c62ac014" y="159.494438"/>
     <use style="fill:#0000ff;opacity:0.7;stroke:#0000ff;" x="239.755603" xlink:href="#m34c62ac014" y="159.004589"/>
     <use style="fill:#0000ff;opacity:0.7;stroke:#0000ff;" x="232.564397" xlink:href="#m34c62ac014" y="158.550749"/>
     <use style="fill:#0000ff;opacity:0.7;stroke:#0000ff;" x="225.381821" xlink:href="#m34c62ac014" y="158.137085"/>
     <use style="fill:#0000ff;opacity:0.7;stroke:#0000ff;" x="218.224243" xlink:href="#m34c62ac014" y="157.767168"/>
     <use style="fill:#0000ff;opacity:0.7;stroke:#0000ff;" x="211.108627" xlink:href="#m34c62ac014" y="157.444867"/>
     <use style="fill:#0000ff;opacity:0.7;stroke:#0000ff;" x="204.051341" xlink:href="#m34c62ac014" y="157.173754"/>
     <use style="fill:#0000ff;opacity:0.7;stroke:#0000ff;" x="197.06905" xlink:href="#m34c62ac014" y="156.957101"/>
     <use style="fill:#0000ff;opacity:0.7;stroke:#0000ff;" x="190.178419" xlink:href="#m34c62ac014" y="156.79848"/>
     <use style="fill:#0000ff;opacity:0.7;stroke:#0000ff;" x="183.394925" xlink:href="#m34c62ac014" y="156.700867"/>
     <use style="fill:#0000ff;opacity:0.7;stroke:#0000ff;" x="176.734637" xlink:href="#m34c62ac014" y="156.666941"/>
     <use style="fill:#0000ff;opacity:0.7;stroke:#0000ff;" x="170.21303" xlink:href="#m34c62ac014" y="156.698784"/>
     <use style="fill:#0000ff;opacity:0.7;stroke:#0000ff;" x="163.845581" xlink:href="#m34c62ac014" y="156.798182"/>
     <use style="fill:#0000ff;opacity:0.7;stroke:#0000ff;" x="157.647168" xlink:href="#m34c62ac014" y="156.967219"/>
     <use style="fill:#0000ff;opacity:0.7;stroke:#0000ff;" x="151.632077" xlink:href="#m34c62ac014" y="157.206192"/>
     <use style="fill:#0000ff;opacity:0.7;stroke:#0000ff;" x="145.814294" xlink:href="#m34c62ac014" y="157.515994"/>
     <use style="fill:#0000ff;opacity:0.7;stroke:#0000ff;" x="140.20751" xlink:href="#m34c62ac014" y="157.896326"/>
     <use style="fill:#0000ff;opacity:0.7;stroke:#0000ff;" x="134.824819" xlink:href="#m34c62ac014" y="158.346893"/>
     <use style="fill:#0000ff;opacity:0.7;stroke:#0000ff;" x="129.679018" xlink:href="#m34c62ac014" y="158.8668"/>
     <use style="fill:#0000ff;opacity:0.7;stroke:#0000ff;" x="124.781712" xlink:href="#m34c62ac014" y="159.454262"/>
     <use style="fill:#0000ff;opacity:0.7;stroke:#0000ff;" x="120.144509" xlink:href="#m34c62ac014" y="160.107197"/>
     <use style="fill:#0000ff;opacity:0.7;stroke:#0000ff;" x="115.778419" xlink:href="#m34c62ac014" y="160.823818"/>
     <use style="fill:#0000ff;opacity:0.7;stroke:#0000ff;" x="111.693264" xlink:href="#m34c62ac014" y="161.601149"/>
     <use style="fill:#0000ff;opacity:0.7;stroke:#0000ff;" x="107.898864" xlink:href="#m34c62ac014" y="162.436214"/>
     <use style="fill:#0000ff;opacity:0.7;stroke:#0000ff;" x="104.404147" xlink:href="#m34c62ac014" y="163.326038"/>
     <use style="fill:#0000ff;opacity:0.7;stroke:#0000ff;" x="101.217149" xlink:href="#m34c62ac014" y="164.26705"/>
     <use style="fill:#0000ff;opacity:0.7;stroke:#0000ff;" x="98.345309" xlink:href="#m34c62ac014" y="165.255974"/>
     <use style="fill:#0000ff;opacity:0.7;stroke:#0000ff;" x="95.795174" xlink:href="#m34c62ac014" y="166.289539"/>
     <use style="fill:#0000ff;opacity:0.7;stroke:#0000ff;" x="93.572995" xlink:href="#m34c62ac014" y="167.36447"/>
     <use style="fill:#0000ff;opacity:0.7;stroke:#0000ff;" x="91.68383" xlink:href="#m34c62ac014" y="168.477792"/>
     <use style="fill:#0000ff;opacity:0.7;stroke:#0000ff;" x="90.132144" xlink:href="#m34c62ac014" y="169.62623"/>
     <use style="fill:#0000ff;opacity:0.7;stroke:#0000ff;" x="88.921507" xlink:href="#m34c62ac014" y="170.807702"/>
     <use style="fill:#0000ff;opacity:0.7;stroke:#0000ff;" x="88.054598" xlink:href="#m34c62ac014" y="172.01953"/>
     <use style="fill:#0000ff;opacity:0.7;stroke:#0000ff;" x="87.533798" xlink:href="#m34c62ac014" y="173.260224"/>
     <use style="fill:#0000ff;opacity:0.7;stroke:#0000ff;" x="87.36" xlink:href="#m34c62ac014" y="174.528"/>
     <use style="fill:#0000ff;opacity:0.7;stroke:#0000ff;" x="87.533798" xlink:href="#m34c62ac014" y="175.795776"/>
     <use style="fill:#0000ff;opacity:0.7;stroke:#0000ff;" x="88.054598" xlink:href="#m34c62ac014" y="177.03647"/>
     <use style="fill:#0000ff;opacity:0.7;stroke:#0000ff;" x="88.921507" xlink:href="#m34c62ac014" y="178.248298"/>
     <use style="fill:#0000ff;opacity:0.7;stroke:#0000ff;" x="90.132144" xlink:href="#m34c62ac014" y="179.42977"/>
     <use style="fill:#0000ff;opacity:0.7;stroke:#0000ff;" x="91.68383" xlink:href="#m34c62ac014" y="180.578208"/>
     <use style="fill:#0000ff;opacity:0.7;stroke:#0000ff;" x="93.572995" xlink:href="#m34c62ac014" y="181.69153"/>
     <use style="fill:#0000ff;opacity:0.7;stroke:#0000ff;" x="95.795174" xlink:href="#m34c62ac014" y="182.766461"/>
     <use style="fill:#0000ff;opacity:0.7;stroke:#0000ff;" x="98.345309" xlink:href="#m34c62ac014" y="183.800026"/>
     <use style="fill:#0000ff;opacity:0.7;stroke:#0000ff;" x="101.217149" xlink:href="#m34c62ac014" y="184.78895"/>
     <use style="fill:#0000ff;opacity:0.7;stroke:#0000ff;" x="104.404147" xlink:href="#m34c62ac014" y="185.729962"/>
     <use style="fill:#0000ff;opacity:0.7;stroke:#0000ff;" x="107.898864" xlink:href="#m34c62ac014" y="186.619786"/>
     <use style="fill:#0000ff;opacity:0.7;stroke:#0000ff;" x="111.693264" xlink:href="#m34c62ac014" y="187.454851"/>
     <use style="fill:#0000ff;opacity:0.7;stroke:#0000ff;" x="115.778419" xlink:href="#m34c62ac014" y="188.232182"/>
     <use style="fill:#0000ff;opacity:0.7;stroke:#0000ff;" x="120.144509" xlink:href="#m34c62ac014" y="188.948803"/>
     <use style="fill:#0000ff;opacity:0.7;stroke:#0000ff;" x="124.781712" xlink:href="#m34c62ac014" y="189.601738"/>
     <use style="fill:#0000ff;opacity:0.7;stroke:#0000ff;" x="129.679018" xlink:href="#m34c62ac014" y="190.1892"/>
     <use style="fill:#0000ff;opacity:0.7;stroke:#0000ff;" x="134.824819" xlink:href="#m34c62ac014" y="190.709107"/>
     <use style="fill:#0000ff;opacity:0.7;stroke:#0000ff;" x="140.20751" xlink:href="#m34c62ac014" y="191.159674"/>
     <use style="fill:#0000ff;opacity:0.7;stroke:#0000ff;" x="145.814294" xlink:href="#m34c62ac014" y="191.540006"/>
     <use style="fill:#0000ff;opacity:0.7;stroke:#0000ff;" x="151.632077" xlink:href="#m34c62ac014" y="191.849808"/>
     <use style="fill:#0000ff;opacity:0.7;stroke:#0000ff;" x="157.647168" xlink:href="#m34c62ac014" y="192.088781"/>
     <use style="fill:#0000ff;opacity:0.7;stroke:#0000ff;" x="163.845581" xlink:href="#m34c62ac014" y="192.257818"/>
     <use style="fill:#0000ff;opacity:0.7;stroke:#0000ff;" x="170.21303" xlink:href="#m34c62ac014" y="192.357216"/>
     <use style="fill:#0000ff;opacity:0.7;stroke:#0000ff;" x="176.734637" xlink:href="#m34c62ac014" y="192.389059"/>
     <use style="fill:#0000ff;opacity:0.7;stroke:#0000ff;" x="183.394925" xlink:href="#m34c62ac014" y="192.355133"/>
     <use style="fill:#0000ff;opacity:0.7;stroke:#0000ff;" x="190.178419" xlink:href="#m34c62ac014" y="192.25752"/>
     <use style="fill:#0000ff;opacity:0.7;stroke:#0000ff;" x="197.06905" xlink:href="#m34c62ac014" y="192.098899"/>
     <use style="fill:#0000ff;opacity:0.7;stroke:#0000ff;" x="204.051341" xlink:href="#m34c62ac014" y="191.882246"/>
     <use style="fill:#0000ff;opacity:0.7;stroke:#0000ff;" x="211.108627" xlink:href="#m34c62ac014" y="191.611133"/>
     <use style="fill:#0000ff;opacity:0.7;stroke:#0000ff;" x="218.224243" xlink:href="#m34c62ac014" y="191.288832"/>
     <use style="fill:#0000ff;opacity:0.7;stroke:#0000ff;" x="225.381821" xlink:href="#m34c62ac014" y="190.918915"/>
     <use style="fill:#0000ff;opacity:0.7;stroke:#0000ff;" x="232.564397" xlink:href="#m34c62ac014" y="190.505251"/>
     <use style="fill:#0000ff;opacity:0.7;stroke:#0000ff;" x="239.755603" xlink:href="#m34c62ac014" y="190.051411"/>
     <use style="fill:#0000ff;opacity:0.7;stroke:#0000ff;" x="246.938179" xlink:href="#m34c62ac014" y="189.561562"/>
     <use style="fill:#0000ff;opacity:0.7;stroke:#0000ff;" x="254.095757" xlink:href="#m34c62ac014" y="189.039571"/>
     <use style="fill:#0000ff;opacity:0.7;stroke:#0000ff;" x="261.21167" xlink:href="#m34c62ac014" y="188.489011"/>
     <use style="fill:#0000ff;opacity:0.7;stroke:#0000ff;" x="268.268659" xlink:href="#m34c62ac014" y="187.914048"/>
     <use style="fill:#0000ff;opacity:0.7;stroke:#0000ff;" x="275.25095" xlink:href="#m34c62ac014" y="187.318253"/>
     <use style="fill:#0000ff;opacity:0.7;stroke:#0000ff;" x="282.141878" xlink:href="#m34c62ac014" y="186.704899"/>
     <use style="fill:#0000ff;opacity:0.7;stroke:#0000ff;" x="288.925373" xlink:href="#m34c62ac014" y="186.078154"/>
     <use style="fill:#0000ff;opacity:0.7;stroke:#0000ff;" x="295.585363" xlink:href="#m34c62ac014" y="185.440992"/>
     <use style="fill:#0000ff;opacity:0.7;stroke:#0000ff;" x="302.10697" xlink:href="#m34c62ac014" y="184.796986"/>
     <use style="fill:#0000ff;opacity:0.7;stroke:#0000ff;" x="308.474419" xlink:href="#m34c62ac014" y="184.14911"/>
     <use style="fill:#0000ff;opacity:0.7;stroke:#0000ff;" x="314.672832" xlink:href="#m34c62ac014" y="183.501235"/>
     <use style="fill:#0000ff;opacity:0.7;stroke:#0000ff;" x="320.687923" xlink:href="#m34c62ac014" y="182.855741"/>
     <use style="fill:#0000ff;opacity:0.7;stroke:#0000ff;" x="326.505706" xlink:href="#m34c62ac014" y="182.216198"/>
     <use style="fill:#0000ff;opacity:0.7;stroke:#0000ff;" x="332.11249" xlink:href="#m34c62ac014" y="181.585286"/>
     <use style="fill:#0000ff;opacity:0.7;stroke:#0000ff;" x="337.495181" xlink:href="#m34c62ac014" y="180.966576"/>
     <use style="fill:#0000ff;opacity:0.7;stroke:#0000ff;" x="342.64128" xlink:href="#m34c62ac014" y="180.362448"/>
     <use style="fill:#0000ff;opacity:0.7;stroke:#0000ff;" x="347.538288" xlink:href="#m34c62ac014" y="179.776176"/>
     <use style="fill:#0000ff;opacity:0.7;stroke:#0000ff;" x="352.175491" xlink:href="#m34c62ac014" y="179.210736"/>
     <use style="fill:#0000ff;opacity:0.7;stroke:#0000ff;" x="356.541878" xlink:href="#m34c62ac014" y="178.668806"/>
     <use style="fill:#0000ff;opacity:0.7;stroke:#0000ff;" x="360.626736" xlink:href="#m34c62ac014" y="178.153363"/>
     <use style="fill:#0000ff;opacity:0.7;stroke:#0000ff;" x="364.421136" xlink:href="#m34c62ac014" y="177.667382"/>
     <use style="fill:#0000ff;opacity:0.7;stroke:#0000ff;" x="367.915853" xlink:href="#m34c62ac014" y="177.212947"/>
     <use style="fill:#0000ff;opacity:0.7;stroke:#0000ff;" x="371.102851" xlink:href="#m34c62ac014" y="176.793034"/>
     <use style="fill:#0000ff;opacity:0.7;stroke:#0000ff;" x="373.974691" xlink:href="#m34c62ac014" y="176.410022"/>
     <use style="fill:#0000ff;opacity:0.7;stroke:#0000ff;" x="376.524826" xlink:href="#m34c62ac014" y="176.066294"/>
     <use style="fill:#0000ff;opacity:0.7;stroke:#0000ff;" x="378.747005" xlink:href="#m34c62ac014" y="175.763635"/>
     <use style="fill:#0000ff;opacity:0.7;stroke:#0000ff;" x="380.63617" xlink:href="#m34c62ac014" y="175.504128"/>
     <use style="fill:#0000ff;opacity:0.7;stroke:#0000ff;" x="382.187856" xlink:href="#m34c62ac014" y="175.289856"/>
     <use style="fill:#0000ff;opacity:0.7;stroke:#0000ff;" x="383.398493" xlink:href="#m34c62ac014" y="175.121414"/>
     <use style="fill:#0000ff;opacity:0.7;stroke:#0000ff;" x="384.265402" xlink:href="#m34c62ac014" y="175.000291"/>
     <use style="fill:#0000ff;opacity:0.7;stroke:#0000ff;" x="384.786202" xlink:href="#m34c62ac014" y="174.927379"/>
     <use style="fill:#0000ff;opacity:0.7;stroke:#0000ff;" x="384.96" xlink:href="#m34c62ac014" y="174.902976"/>
    </g>
   </g>
   <g id="line2d_17">
    <path clip-path="url(#p17fd927d55)" d="M 384.96 174.528 
L 344.235789 169.403341 
L 316.042105 166.088664 
L 294.113684 163.721444 
L 275.317895 161.883805 
L 256.522105 160.259621 
L 237.726316 158.885553 
L 222.063158 157.960545 
L 206.4 157.26443 
L 193.869474 156.894652 
L 181.338947 156.714771 
L 168.808421 156.753856 
L 156.277895 157.052203 
L 146.88 157.480598 
L 137.482105 158.123687 
L 128.084211 159.034934 
L 121.818947 159.831222 
L 115.553684 160.821897 
L 109.288421 162.067403 
L 103.023158 163.673135 
L 99.890526 164.671264 
L 96.757895 165.861901 
L 93.625263 167.344492 
L 90.492632 169.371187 
L 87.36 174.528 
L 87.36 174.528 
L 90.492632 179.687169 
L 93.625263 181.717759 
L 96.757895 183.204855 
L 99.890526 184.40023 
L 103.023158 185.403096 
L 109.288421 187.017734 
L 115.553684 188.270816 
L 121.818947 189.267372 
L 128.084211 190.067717 
L 137.482105 190.981681 
L 146.88 191.623849 
L 156.277895 192.048367 
L 168.808421 192.338343 
L 181.338947 192.36718 
L 193.869474 192.176944 
L 209.532632 191.676803 
L 225.195789 190.925443 
L 240.858947 189.955715 
L 259.654737 188.540132 
L 278.450526 186.884805 
L 297.246316 185.022689 
L 319.174737 182.630418 
L 344.235789 179.667375 
L 378.694737 175.333336 
L 384.96 174.528 
L 384.96 174.528 
" style="fill:none;opacity:0.7;stroke:#ff0000;stroke-linecap:square;"/>
   </g>
   <g id="patch_3">
    <path d="M 57.6 307.584 
L 57.6 41.472 
" style="fill:none;stroke:#000000;stroke-linecap:square;stroke-linejoin:miter;stroke-width:0.8;"/>
   </g>
   <g id="patch_4">
    <path d="M 414.72 307.584 
L 414.72 41.472 
" style="fill:none;stroke:#000000;stroke-linecap:square;stroke-linejoin:miter;stroke-width:0.8;"/>
   </g>
   <g id="patch_5">
    <path d="M 57.6 307.584 
L 414.72 307.584 
" style="fill:none;stroke:#000000;stroke-linecap:square;stroke-linejoin:miter;stroke-width:0.8;"/>
   </g>
   <g id="patch_6">
    <path d="M 57.6 41.472 
L 414.72 41.472 
" style="fill:none;stroke:#000000;stroke-linecap:square;stroke-linejoin:miter;stroke-width:0.8;"/>
   </g>
   <g id="legend_1">
    <g id="patch_7">
     <path d="M 259.602813 78.82825 
L 407.72 78.82825 
Q 409.72 78.82825 409.72 76.82825 
L 409.72 48.472 
Q 409.72 46.472 407.72 46.472 
L 259.602813 46.472 
Q 257.602813 46.472 257.602813 48.472 
L 257.602813 76.82825 
Q 257.602813 78.82825 259.602813 78.82825 
z
" style="fill:#ffffff;opacity:0.8;stroke:#cccccc;stroke-linejoin:miter;"/>
    </g>
    <g id="line2d_18"/>
    <g id="line2d_19">
     <g>
      <use style="fill:#0000ff;opacity:0.7;stroke:#0000ff;" x="271.602813" xlink:href="#m34c62ac014" y="54.570437"/>
     </g>
    </g>
    <g id="text_16">
     <!-- Original Airfoil -->
     <defs>
      <path d="M 39.40625 66.21875 
Q 28.65625 66.21875 22.328125 58.203125 
Q 16.015625 50.203125 16.015625 36.375 
Q 16.015625 22.609375 22.328125 14.59375 
Q 28.65625 6.59375 39.40625 6.59375 
Q 50.140625 6.59375 56.421875 14.59375 
Q 62.703125 22.609375 62.703125 36.375 
Q 62.703125 50.203125 56.421875 58.203125 
Q 50.140625 66.21875 39.40625 66.21875 
z
M 39.40625 74.21875 
Q 54.734375 74.21875 63.90625 63.9375 
Q 73.09375 53.65625 73.09375 36.375 
Q 73.09375 19.140625 63.90625 8.859375 
Q 54.734375 -1.421875 39.40625 -1.421875 
Q 24.03125 -1.421875 14.8125 8.828125 
Q 5.609375 19.09375 5.609375 36.375 
Q 5.609375 53.65625 14.8125 63.9375 
Q 24.03125 74.21875 39.40625 74.21875 
z
" id="DejaVuSans-4f"/>
      <path d="M 41.109375 46.296875 
Q 39.59375 47.171875 37.8125 47.578125 
Q 36.03125 48 33.890625 48 
Q 26.265625 48 22.1875 43.046875 
Q 18.109375 38.09375 18.109375 28.8125 
L 18.109375 0 
L 9.078125 0 
L 9.078125 54.6875 
L 18.109375 54.6875 
L 18.109375 46.1875 
Q 20.953125 51.171875 25.484375 53.578125 
Q 30.03125 56 36.53125 56 
Q 37.453125 56 38.578125 55.875 
Q 39.703125 55.765625 41.0625 55.515625 
z
" id="DejaVuSans-72"/>
      <path d="M 9.421875 54.6875 
L 18.40625 54.6875 
L 18.40625 0 
L 9.421875 0 
z
M 9.421875 75.984375 
L 18.40625 75.984375 
L 18.40625 64.59375 
L 9.421875 64.59375 
z
" id="DejaVuSans-69"/>
      <path d="M 45.40625 27.984375 
Q 45.40625 37.75 41.375 43.109375 
Q 37.359375 48.484375 30.078125 48.484375 
Q 22.859375 48.484375 18.828125 43.109375 
Q 14.796875 37.75 14.796875 27.984375 
Q 14.796875 18.265625 18.828125 12.890625 
Q 22.859375 7.515625 30.078125 7.515625 
Q 37.359375 7.515625 41.375 12.890625 
Q 45.40625 18.265625 45.40625 27.984375 
z
M 54.390625 6.78125 
Q 54.390625 -7.171875 48.1875 -13.984375 
Q 42 -20.796875 29.203125 -20.796875 
Q 24.46875 -20.796875 20.265625 -20.09375 
Q 16.0625 -19.390625 12.109375 -17.921875 
L 12.109375 -9.1875 
Q 16.0625 -11.328125 19.921875 -12.34375 
Q 23.78125 -13.375 27.78125 -13.375 
Q 36.625 -13.375 41.015625 -8.765625 
Q 45.40625 -4.15625 45.40625 5.171875 
L 45.40625 9.625 
Q 42.625 4.78125 38.28125 2.390625 
Q 33.9375 0 27.875 0 
Q 17.828125 0 11.671875 7.65625 
Q 5.515625 15.328125 5.515625 27.984375 
Q 5.515625 40.671875 11.671875 48.328125 
Q 17.828125 56 27.875 56 
Q 33.9375 56 38.28125 53.609375 
Q 42.625 51.21875 45.40625 46.390625 
L 45.40625 54.6875 
L 54.390625 54.6875 
z
" id="DejaVuSans-67"/>
      <path d="M 54.890625 33.015625 
L 54.890625 0 
L 45.90625 0 
L 45.90625 32.71875 
Q 45.90625 40.484375 42.875 44.328125 
Q 39.84375 48.1875 33.796875 48.1875 
Q 26.515625 48.1875 22.3125 43.546875 
Q 18.109375 38.921875 18.109375 30.90625 
L 18.109375 0 
L 9.078125 0 
L 9.078125 54.6875 
L 18.109375 54.6875 
L 18.109375 46.1875 
Q 21.34375 51.125 25.703125 53.5625 
Q 30.078125 56 35.796875 56 
Q 45.21875 56 50.046875 50.171875 
Q 54.890625 44.34375 54.890625 33.015625 
z
" id="DejaVuSans-6e"/>
      <path d="M 34.28125 27.484375 
Q 23.390625 27.484375 19.1875 25 
Q 14.984375 22.515625 14.984375 16.5 
Q 14.984375 11.71875 18.140625 8.90625 
Q 21.296875 6.109375 26.703125 6.109375 
Q 34.1875 6.109375 38.703125 11.40625 
Q 43.21875 16.703125 43.21875 25.484375 
L 43.21875 27.484375 
z
M 52.203125 31.203125 
L 52.203125 0 
L 43.21875 0 
L 43.21875 8.296875 
Q 40.140625 3.328125 35.546875 0.953125 
Q 30.953125 -1.421875 24.3125 -1.421875 
Q 15.921875 -1.421875 10.953125 3.296875 
Q 6 8.015625 6 15.921875 
Q 6 25.140625 12.171875 29.828125 
Q 18.359375 34.515625 30.609375 34.515625 
L 43.21875 34.515625 
L 43.21875 35.40625 
Q 43.21875 41.609375 39.140625 45 
Q 35.0625 48.390625 27.6875 48.390625 
Q 23 48.390625 18.546875 47.265625 
Q 14.109375 46.140625 10.015625 43.890625 
L 10.015625 52.203125 
Q 14.9375 54.109375 19.578125 55.046875 
Q 24.21875 56 28.609375 56 
Q 40.484375 56 46.34375 49.84375 
Q 52.203125 43.703125 52.203125 31.203125 
z
" id="DejaVuSans-61"/>
      <path d="M 9.421875 75.984375 
L 18.40625 75.984375 
L 18.40625 0 
L 9.421875 0 
z
" id="DejaVuSans-6c"/>
      <path id="DejaVuSans-20"/>
      <path d="M 34.1875 63.1875 
L 20.796875 26.90625 
L 47.609375 26.90625 
z
M 28.609375 72.90625 
L 39.796875 72.90625 
L 67.578125 0 
L 57.328125 0 
L 50.6875 18.703125 
L 17.828125 18.703125 
L 11.1875 0 
L 0.78125 0 
z
" id="DejaVuSans-41"/>
      <path d="M 37.109375 75.984375 
L 37.109375 68.5 
L 28.515625 68.5 
Q 23.6875 68.5 21.796875 66.546875 
Q 19.921875 64.59375 19.921875 59.515625 
L 19.921875 54.6875 
L 34.71875 54.6875 
L 34.71875 47.703125 
L 19.921875 47.703125 
L 19.921875 0 
L 10.890625 0 
L 10.890625 47.703125 
L 2.296875 47.703125 
L 2.296875 54.6875 
L 10.890625 54.6875 
L 10.890625 58.5 
Q 10.890625 67.625 15.140625 71.796875 
Q 19.390625 75.984375 28.609375 75.984375 
z
" id="DejaVuSans-66"/>
      <path d="M 30.609375 48.390625 
Q 23.390625 48.390625 19.1875 42.75 
Q 14.984375 37.109375 14.984375 27.296875 
Q 14.984375 17.484375 19.15625 11.84375 
Q 23.34375 6.203125 30.609375 6.203125 
Q 37.796875 6.203125 41.984375 11.859375 
Q 46.1875 17.53125 46.1875 27.296875 
Q 46.1875 37.015625 41.984375 42.703125 
Q 37.796875 48.390625 30.609375 48.390625 
z
M 30.609375 56 
Q 42.328125 56 49.015625 48.375 
Q 55.71875 40.765625 55.71875 27.296875 
Q 55.71875 13.875 49.015625 6.21875 
Q 42.328125 -1.421875 30.609375 -1.421875 
Q 18.84375 -1.421875 12.171875 6.21875 
Q 5.515625 13.875 5.515625 27.296875 
Q 5.515625 40.765625 12.171875 48.375 
Q 18.84375 56 30.609375 56 
z
" id="DejaVuSans-6f"/>
     </defs>
     <g transform="translate(289.602813 58.070437)scale(0.1 -0.1)">
      <use xlink:href="#DejaVuSans-4f"/>
      <use x="78.710938" xlink:href="#DejaVuSans-72"/>
      <use x="119.824219" xlink:href="#DejaVuSans-69"/>
      <use x="147.607422" xlink:href="#DejaVuSans-67"/>
      <use x="211.083984" xlink:href="#DejaVuSans-69"/>
      <use x="238.867188" xlink:href="#DejaVuSans-6e"/>
      <use x="302.246094" xlink:href="#DejaVuSans-61"/>
      <use x="363.525391" xlink:href="#DejaVuSans-6c"/>
      <use x="391.308594" xlink:href="#DejaVuSans-20"/>
      <use x="423.095703" xlink:href="#DejaVuSans-41"/>
      <use x="491.503906" xlink:href="#DejaVuSans-69"/>
      <use x="519.287109" xlink:href="#DejaVuSans-72"/>
      <use x="560.400391" xlink:href="#DejaVuSans-66"/>
      <use x="595.605469" xlink:href="#DejaVuSans-6f"/>
      <use x="656.787109" xlink:href="#DejaVuSans-69"/>
      <use x="684.570312" xlink:href="#DejaVuSans-6c"/>
     </g>
    </g>
    <g id="line2d_20">
     <path d="M 261.602813 69.248562 
L 281.602813 69.248562 
" style="fill:none;opacity:0.7;stroke:#ff0000;stroke-linecap:square;"/>
    </g>
    <g id="line2d_21"/>
    <g id="text_17">
     <!-- PARSEC Approximation -->
     <defs>
      <path d="M 19.671875 64.796875 
L 19.671875 37.40625 
L 32.078125 37.40625 
Q 38.96875 37.40625 42.71875 40.96875 
Q 46.484375 44.53125 46.484375 51.125 
Q 46.484375 57.671875 42.71875 61.234375 
Q 38.96875 64.796875 32.078125 64.796875 
z
M 9.8125 72.90625 
L 32.078125 72.90625 
Q 44.34375 72.90625 50.609375 67.359375 
Q 56.890625 61.8125 56.890625 51.125 
Q 56.890625 40.328125 50.609375 34.8125 
Q 44.34375 29.296875 32.078125 29.296875 
L 19.671875 29.296875 
L 19.671875 0 
L 9.8125 0 
z
" id="DejaVuSans-50"/>
      <path d="M 44.390625 34.1875 
Q 47.5625 33.109375 50.5625 29.59375 
Q 53.5625 26.078125 56.59375 19.921875 
L 66.609375 0 
L 56 0 
L 46.6875 18.703125 
Q 43.0625 26.03125 39.671875 28.421875 
Q 36.28125 30.8125 30.421875 30.8125 
L 19.671875 30.8125 
L 19.671875 0 
L 9.8125 0 
L 9.8125 72.90625 
L 32.078125 72.90625 
Q 44.578125 72.90625 50.734375 67.671875 
Q 56.890625 62.453125 56.890625 51.90625 
Q 56.890625 45.015625 53.6875 40.46875 
Q 50.484375 35.9375 44.390625 34.1875 
z
M 19.671875 64.796875 
L 19.671875 38.921875 
L 32.078125 38.921875 
Q 39.203125 38.921875 42.84375 42.21875 
Q 46.484375 45.515625 46.484375 51.90625 
Q 46.484375 58.296875 42.84375 61.546875 
Q 39.203125 64.796875 32.078125 64.796875 
z
" id="DejaVuSans-52"/>
      <path d="M 53.515625 70.515625 
L 53.515625 60.890625 
Q 47.90625 63.578125 42.921875 64.890625 
Q 37.9375 66.21875 33.296875 66.21875 
Q 25.25 66.21875 20.875 63.09375 
Q 16.5 59.96875 16.5 54.203125 
Q 16.5 49.359375 19.40625 46.890625 
Q 22.3125 44.4375 30.421875 42.921875 
L 36.375 41.703125 
Q 47.40625 39.59375 52.65625 34.296875 
Q 57.90625 29 57.90625 20.125 
Q 57.90625 9.515625 50.796875 4.046875 
Q 43.703125 -1.421875 29.984375 -1.421875 
Q 24.8125 -1.421875 18.96875 -0.25 
Q 13.140625 0.921875 6.890625 3.21875 
L 6.890625 13.375 
Q 12.890625 10.015625 18.65625 8.296875 
Q 24.421875 6.59375 29.984375 6.59375 
Q 38.421875 6.59375 43.015625 9.90625 
Q 47.609375 13.234375 47.609375 19.390625 
Q 47.609375 24.75 44.3125 27.78125 
Q 41.015625 30.8125 33.5 32.328125 
L 27.484375 33.5 
Q 16.453125 35.6875 11.515625 40.375 
Q 6.59375 45.0625 6.59375 53.421875 
Q 6.59375 63.09375 13.40625 68.65625 
Q 20.21875 74.21875 32.171875 74.21875 
Q 37.3125 74.21875 42.625 73.28125 
Q 47.953125 72.359375 53.515625 70.515625 
z
" id="DejaVuSans-53"/>
      <path d="M 9.8125 72.90625 
L 55.90625 72.90625 
L 55.90625 64.59375 
L 19.671875 64.59375 
L 19.671875 43.015625 
L 54.390625 43.015625 
L 54.390625 34.71875 
L 19.671875 34.71875 
L 19.671875 8.296875 
L 56.78125 8.296875 
L 56.78125 0 
L 9.8125 0 
z
" id="DejaVuSans-45"/>
      <path d="M 64.40625 67.28125 
L 64.40625 56.890625 
Q 59.421875 61.53125 53.78125 63.8125 
Q 48.140625 66.109375 41.796875 66.109375 
Q 29.296875 66.109375 22.65625 58.46875 
Q 16.015625 50.828125 16.015625 36.375 
Q 16.015625 21.96875 22.65625 14.328125 
Q 29.296875 6.6875 41.796875 6.6875 
Q 48.140625 6.6875 53.78125 8.984375 
Q 59.421875 11.28125 64.40625 15.921875 
L 64.40625 5.609375 
Q 59.234375 2.09375 53.4375 0.328125 
Q 47.65625 -1.421875 41.21875 -1.421875 
Q 24.65625 -1.421875 15.125 8.703125 
Q 5.609375 18.84375 5.609375 36.375 
Q 5.609375 53.953125 15.125 64.078125 
Q 24.65625 74.21875 41.21875 74.21875 
Q 47.75 74.21875 53.53125 72.484375 
Q 59.328125 70.75 64.40625 67.28125 
z
" id="DejaVuSans-43"/>
      <path d="M 18.109375 8.203125 
L 18.109375 -20.796875 
L 9.078125 -20.796875 
L 9.078125 54.6875 
L 18.109375 54.6875 
L 18.109375 46.390625 
Q 20.953125 51.265625 25.265625 53.625 
Q 29.59375 56 35.59375 56 
Q 45.5625 56 51.78125 48.09375 
Q 58.015625 40.1875 58.015625 27.296875 
Q 58.015625 14.40625 51.78125 6.484375 
Q 45.5625 -1.421875 35.59375 -1.421875 
Q 29.59375 -1.421875 25.265625 0.953125 
Q 20.953125 3.328125 18.109375 8.203125 
z
M 48.6875 27.296875 
Q 48.6875 37.203125 44.609375 42.84375 
Q 40.53125 48.484375 33.40625 48.484375 
Q 26.265625 48.484375 22.1875 42.84375 
Q 18.109375 37.203125 18.109375 27.296875 
Q 18.109375 17.390625 22.1875 11.75 
Q 26.265625 6.109375 33.40625 6.109375 
Q 40.53125 6.109375 44.609375 11.75 
Q 48.6875 17.390625 48.6875 27.296875 
z
" id="DejaVuSans-70"/>
      <path d="M 54.890625 54.6875 
L 35.109375 28.078125 
L 55.90625 0 
L 45.3125 0 
L 29.390625 21.484375 
L 13.484375 0 
L 2.875 0 
L 24.125 28.609375 
L 4.6875 54.6875 
L 15.28125 54.6875 
L 29.78125 35.203125 
L 44.28125 54.6875 
z
" id="DejaVuSans-78"/>
      <path d="M 52 44.1875 
Q 55.375 50.25 60.0625 53.125 
Q 64.75 56 71.09375 56 
Q 79.640625 56 84.28125 50.015625 
Q 88.921875 44.046875 88.921875 33.015625 
L 88.921875 0 
L 79.890625 0 
L 79.890625 32.71875 
Q 79.890625 40.578125 77.09375 44.375 
Q 74.3125 48.1875 68.609375 48.1875 
Q 61.625 48.1875 57.5625 43.546875 
Q 53.515625 38.921875 53.515625 30.90625 
L 53.515625 0 
L 44.484375 0 
L 44.484375 32.71875 
Q 44.484375 40.625 41.703125 44.40625 
Q 38.921875 48.1875 33.109375 48.1875 
Q 26.21875 48.1875 22.15625 43.53125 
Q 18.109375 38.875 18.109375 30.90625 
L 18.109375 0 
L 9.078125 0 
L 9.078125 54.6875 
L 18.109375 54.6875 
L 18.109375 46.1875 
Q 21.1875 51.21875 25.484375 53.609375 
Q 29.78125 56 35.6875 56 
Q 41.65625 56 45.828125 52.96875 
Q 50 49.953125 52 44.1875 
z
" id="DejaVuSans-6d"/>
      <path d="M 18.3125 70.21875 
L 18.3125 54.6875 
L 36.8125 54.6875 
L 36.8125 47.703125 
L 18.3125 47.703125 
L 18.3125 18.015625 
Q 18.3125 11.328125 20.140625 9.421875 
Q 21.96875 7.515625 27.59375 7.515625 
L 36.8125 7.515625 
L 36.8125 0 
L 27.59375 0 
Q 17.1875 0 13.234375 3.875 
Q 9.28125 7.765625 9.28125 18.015625 
L 9.28125 47.703125 
L 2.6875 47.703125 
L 2.6875 54.6875 
L 9.28125 54.6875 
L 9.28125 70.21875 
z
" id="DejaVuSans-74"/>
     </defs>
     <g transform="translate(289.602813 72.748562)scale(0.1 -0.1)">
      <use xlink:href="#DejaVuSans-50"/>
      <use x="60.208984" xlink:href="#DejaVuSans-41"/>
      <use x="128.617188" xlink:href="#DejaVuSans-52"/>
      <use x="198.099609" xlink:href="#DejaVuSans-53"/>
      <use x="261.576172" xlink:href="#DejaVuSans-45"/>
      <use x="324.759766" xlink:href="#DejaVuSans-43"/>
      <use x="394.583984" xlink:href="#DejaVuSans-20"/>
      <use x="426.371094" xlink:href="#DejaVuSans-41"/>
      <use x="494.779297" xlink:href="#DejaVuSans-70"/>
      <use x="558.255859" xlink:href="#DejaVuSans-70"/>
      <use x="621.732422" xlink:href="#DejaVuSans-72"/>
      <use x="662.814453" xlink:href="#DejaVuSans-6f"/>
      <use x="723.949219" xlink:href="#DejaVuSans-78"/>
      <use x="783.128906" xlink:href="#DejaVuSans-69"/>
      <use x="810.912109" xlink:href="#DejaVuSans-6d"/>
      <use x="908.324219" xlink:href="#DejaVuSans-61"/>
      <use x="969.603516" xlink:href="#DejaVuSans-74"/>
      <use x="1008.8125" xlink:href="#DejaVuSans-69"/>
      <use x="1036.595703" xlink:href="#DejaVuSans-6f"/>
      <use x="1097.777344" xlink:href="#DejaVuSans-6e"/>
     </g>
    </g>
   </g>
  </g>
 </g>
 <defs>
  <clipPath id="p17fd927d55">
   <rect height="266.112" width="357.12" x="57.6" y="41.472"/>
  </clipPath>
 </defs>
</svg>
