<?xml version="1.0" encoding="utf-8" standalone="no"?>
<!DOCTYPE svg PUBLIC "-//W3C//DTD SVG 1.1//EN"
  "http://www.w3.org/Graphics/SVG/1.1/DTD/svg11.dtd">
<!-- Created with matplotlib (http://matplotlib.org/) -->
<svg height="345pt" version="1.1" viewBox="0 0 460 345" width="460pt" xmlns="http://www.w3.org/2000/svg" xmlns:xlink="http://www.w3.org/1999/xlink">
 <defs>
  <style type="text/css">
*{stroke-linecap:butt;stroke-linejoin:round;}
  </style>
 </defs>
 <g id="figure_1">
  <g id="patch_1">
   <path d="M 0 345.6 
L 460.8 345.6 
L 460.8 0 
L 0 0 
z
" style="fill:#ffffff;"/>
  </g>
  <g id="axes_1">
   <g id="patch_2">
    <path d="M 57.6 307.584 
L 414.72 307.584 
L 414.72 41.472 
L 57.6 41.472 
z
" style="fill:#ffffff;"/>
   </g>
   <g id="matplotlib.axis_1">
    <g id="xtick_1">
     <g id="line2d_1">
      <defs>
       <path d="M 0 0 
L 0 3.5 
" id="m10458c49fd" style="stroke:#000000;stroke-width:0.8;"/>
      </defs>
      <g>
       <use style="stroke:#000000;stroke-width:0.8;" x="87.36" xlink:href="#m10458c49fd" y="307.584"/>
      </g>
     </g>
     <g id="text_1">
      <!-- 0.0 -->
      <defs>
       <path d="M 31.78125 66.40625 
Q 24.171875 66.40625 20.328125 58.90625 
Q 16.5 51.421875 16.5 36.375 
Q 16.5 21.390625 20.328125 13.890625 
Q 24.171875 6.390625 31.78125 6.390625 
Q 39.453125 6.390625 43.28125 13.890625 
Q 47.125 21.390625 47.125 36.375 
Q 47.125 51.421875 43.28125 58.90625 
Q 39.453125 66.40625 31.78125 66.40625 
z
M 31.78125 74.21875 
Q 44.046875 74.21875 50.515625 64.515625 
Q 56.984375 54.828125 56.984375 36.375 
Q 56.984375 17.96875 50.515625 8.265625 
Q 44.046875 -1.421875 31.78125 -1.421875 
Q 19.53125 -1.421875 13.0625 8.265625 
Q 6.59375 17.96875 6.59375 36.375 
Q 6.59375 54.828125 13.0625 64.515625 
Q 19.53125 74.21875 31.78125 74.21875 
z
" id="DejaVuSans-30"/>
       <path d="M 10.6875 12.40625 
L 21 12.40625 
L 21 0 
L 10.6875 0 
z
" id="DejaVuSans-2e"/>
      </defs>
      <g transform="translate(79.408438 322.182437)scale(0.1 -0.1)">
       <use xlink:href="#DejaVuSans-30"/>
       <use x="63.623047" xlink:href="#DejaVuSans-2e"/>
       <use x="95.410156" xlink:href="#DejaVuSans-30"/>
      </g>
     </g>
    </g>
    <g id="xtick_2">
     <g id="line2d_2">
      <g>
       <use style="stroke:#000000;stroke-width:0.8;" x="146.88" xlink:href="#m10458c49fd" y="307.584"/>
      </g>
     </g>
     <g id="text_2">
      <!-- 0.2 -->
      <defs>
       <path d="M 19.1875 8.296875 
L 53.609375 8.296875 
L 53.609375 0 
L 7.328125 0 
L 7.328125 8.296875 
Q 12.9375 14.109375 22.625 23.890625 
Q 32.328125 33.6875 34.8125 36.53125 
Q 39.546875 41.84375 41.421875 45.53125 
Q 43.3125 49.21875 43.3125 52.78125 
Q 43.3125 58.59375 39.234375 62.25 
Q 35.15625 65.921875 28.609375 65.921875 
Q 23.96875 65.921875 18.8125 64.3125 
Q 13.671875 62.703125 7.8125 59.421875 
L 7.8125 69.390625 
Q 13.765625 71.78125 18.9375 73 
Q 24.125 74.21875 28.421875 74.21875 
Q 39.75 74.21875 46.484375 68.546875 
Q 53.21875 62.890625 53.21875 53.421875 
Q 53.21875 48.921875 51.53125 44.890625 
Q 49.859375 40.875 45.40625 35.40625 
Q 44.1875 33.984375 37.640625 27.21875 
Q 31.109375 20.453125 19.1875 8.296875 
z
" id="DejaVuSans-32"/>
      </defs>
      <g transform="translate(138.928438 322.182437)scale(0.1 -0.1)">
       <use xlink:href="#DejaVuSans-30"/>
       <use x="63.623047" xlink:href="#DejaVuSans-2e"/>
       <use x="95.410156" xlink:href="#DejaVuSans-32"/>
      </g>
     </g>
    </g>
    <g id="xtick_3">
     <g id="line2d_3">
      <g>
       <use style="stroke:#000000;stroke-width:0.8;" x="206.4" xlink:href="#m10458c49fd" y="307.584"/>
      </g>
     </g>
     <g id="text_3">
      <!-- 0.4 -->
      <defs>
       <path d="M 37.796875 64.3125 
L 12.890625 25.390625 
L 37.796875 25.390625 
z
M 35.203125 72.90625 
L 47.609375 72.90625 
L 47.609375 25.390625 
L 58.015625 25.390625 
L 58.015625 17.1875 
L 47.609375 17.1875 
L 47.609375 0 
L 37.796875 0 
L 37.796875 17.1875 
L 4.890625 17.1875 
L 4.890625 26.703125 
z
" id="DejaVuSans-34"/>
      </defs>
      <g transform="translate(198.448438 322.182437)scale(0.1 -0.1)">
       <use xlink:href="#DejaVuSans-30"/>
       <use x="63.623047" xlink:href="#DejaVuSans-2e"/>
       <use x="95.410156" xlink:href="#DejaVuSans-34"/>
      </g>
     </g>
    </g>
    <g id="xtick_4">
     <g id="line2d_4">
      <g>
       <use style="stroke:#000000;stroke-width:0.8;" x="265.92" xlink:href="#m10458c49fd" y="307.584"/>
      </g>
     </g>
     <g id="text_4">
      <!-- 0.6 -->
      <defs>
       <path d="M 33.015625 40.375 
Q 26.375 40.375 22.484375 35.828125 
Q 18.609375 31.296875 18.609375 23.390625 
Q 18.609375 15.53125 22.484375 10.953125 
Q 26.375 6.390625 33.015625 6.390625 
Q 39.65625 6.390625 43.53125 10.953125 
Q 47.40625 15.53125 47.40625 23.390625 
Q 47.40625 31.296875 43.53125 35.828125 
Q 39.65625 40.375 33.015625 40.375 
z
M 52.59375 71.296875 
L 52.59375 62.3125 
Q 48.875 64.0625 45.09375 64.984375 
Q 41.3125 65.921875 37.59375 65.921875 
Q 27.828125 65.921875 22.671875 59.328125 
Q 17.53125 52.734375 16.796875 39.40625 
Q 19.671875 43.65625 24.015625 45.921875 
Q 28.375 48.1875 33.59375 48.1875 
Q 44.578125 48.1875 50.953125 41.515625 
Q 57.328125 34.859375 57.328125 23.390625 
Q 57.328125 12.15625 50.6875 5.359375 
Q 44.046875 -1.421875 33.015625 -1.421875 
Q 20.359375 -1.421875 13.671875 8.265625 
Q 6.984375 17.96875 6.984375 36.375 
Q 6.984375 53.65625 15.1875 63.9375 
Q 23.390625 74.21875 37.203125 74.21875 
Q 40.921875 74.21875 44.703125 73.484375 
Q 48.484375 72.75 52.59375 71.296875 
z
" id="DejaVuSans-36"/>
      </defs>
      <g transform="translate(257.968437 322.182437)scale(0.1 -0.1)">
       <use xlink:href="#DejaVuSans-30"/>
       <use x="63.623047" xlink:href="#DejaVuSans-2e"/>
       <use x="95.410156" xlink:href="#DejaVuSans-36"/>
      </g>
     </g>
    </g>
    <g id="xtick_5">
     <g id="line2d_5">
      <g>
       <use style="stroke:#000000;stroke-width:0.8;" x="325.44" xlink:href="#m10458c49fd" y="307.584"/>
      </g>
     </g>
     <g id="text_5">
      <!-- 0.8 -->
      <defs>
       <path d="M 31.78125 34.625 
Q 24.75 34.625 20.71875 30.859375 
Q 16.703125 27.09375 16.703125 20.515625 
Q 16.703125 13.921875 20.71875 10.15625 
Q 24.75 6.390625 31.78125 6.390625 
Q 38.8125 6.390625 42.859375 10.171875 
Q 46.921875 13.96875 46.921875 20.515625 
Q 46.921875 27.09375 42.890625 30.859375 
Q 38.875 34.625 31.78125 34.625 
z
M 21.921875 38.8125 
Q 15.578125 40.375 12.03125 44.71875 
Q 8.5 49.078125 8.5 55.328125 
Q 8.5 64.0625 14.71875 69.140625 
Q 20.953125 74.21875 31.78125 74.21875 
Q 42.671875 74.21875 48.875 69.140625 
Q 55.078125 64.0625 55.078125 55.328125 
Q 55.078125 49.078125 51.53125 44.71875 
Q 48 40.375 41.703125 38.8125 
Q 48.828125 37.15625 52.796875 32.3125 
Q 56.78125 27.484375 56.78125 20.515625 
Q 56.78125 9.90625 50.3125 4.234375 
Q 43.84375 -1.421875 31.78125 -1.421875 
Q 19.734375 -1.421875 13.25 4.234375 
Q 6.78125 9.90625 6.78125 20.515625 
Q 6.78125 27.484375 10.78125 32.3125 
Q 14.796875 37.15625 21.921875 38.8125 
z
M 18.3125 54.390625 
Q 18.3125 48.734375 21.84375 45.5625 
Q 25.390625 42.390625 31.78125 42.390625 
Q 38.140625 42.390625 41.71875 45.5625 
Q 45.3125 48.734375 45.3125 54.390625 
Q 45.3125 60.0625 41.71875 63.234375 
Q 38.140625 66.40625 31.78125 66.40625 
Q 25.390625 66.40625 21.84375 63.234375 
Q 18.3125 60.0625 18.3125 54.390625 
z
" id="DejaVuSans-38"/>
      </defs>
      <g transform="translate(317.488437 322.182437)scale(0.1 -0.1)">
       <use xlink:href="#DejaVuSans-30"/>
       <use x="63.623047" xlink:href="#DejaVuSans-2e"/>
       <use x="95.410156" xlink:href="#DejaVuSans-38"/>
      </g>
     </g>
    </g>
    <g id="xtick_6">
     <g id="line2d_6">
      <g>
       <use style="stroke:#000000;stroke-width:0.8;" x="384.96" xlink:href="#m10458c49fd" y="307.584"/>
      </g>
     </g>
     <g id="text_6">
      <!-- 1.0 -->
      <defs>
       <path d="M 12.40625 8.296875 
L 28.515625 8.296875 
L 28.515625 63.921875 
L 10.984375 60.40625 
L 10.984375 69.390625 
L 28.421875 72.90625 
L 38.28125 72.90625 
L 38.28125 8.296875 
L 54.390625 8.296875 
L 54.390625 0 
L 12.40625 0 
z
" id="DejaVuSans-31"/>
      </defs>
      <g transform="translate(377.008438 322.182437)scale(0.1 -0.1)">
       <use xlink:href="#DejaVuSans-31"/>
       <use x="63.623047" xlink:href="#DejaVuSans-2e"/>
       <use x="95.410156" xlink:href="#DejaVuSans-30"/>
      </g>
     </g>
    </g>
   </g>
   <g id="matplotlib.axis_2">
    <g id="ytick_1">
     <g id="line2d_7">
      <defs>
       <path d="M 0 0 
L -3.5 0 
" id="mf0bd0fa8af" style="stroke:#000000;stroke-width:0.8;"/>
      </defs>
      <g>
       <use style="stroke:#000000;stroke-width:0.8;" x="57.6" xlink:href="#mf0bd0fa8af" y="293.589381"/>
      </g>
     </g>
     <g id="text_7">
      <!-- −0.4 -->
      <defs>
       <path d="M 10.59375 35.5 
L 73.1875 35.5 
L 73.1875 27.203125 
L 10.59375 27.203125 
z
" id="DejaVuSans-2212"/>
      </defs>
      <g transform="translate(26.317187 297.3886)scale(0.1 -0.1)">
       <use xlink:href="#DejaVuSans-2212"/>
       <use x="83.789062" xlink:href="#DejaVuSans-30"/>
       <use x="147.412109" xlink:href="#DejaVuSans-2e"/>
       <use x="179.199219" xlink:href="#DejaVuSans-34"/>
      </g>
     </g>
    </g>
    <g id="ytick_2">
     <g id="line2d_8">
      <g>
       <use style="stroke:#000000;stroke-width:0.8;" x="57.6" xlink:href="#mf0bd0fa8af" y="263.829381"/>
      </g>
     </g>
     <g id="text_8">
      <!-- −0.3 -->
      <defs>
       <path d="M 40.578125 39.3125 
Q 47.65625 37.796875 51.625 33 
Q 55.609375 28.21875 55.609375 21.1875 
Q 55.609375 10.40625 48.1875 4.484375 
Q 40.765625 -1.421875 27.09375 -1.421875 
Q 22.515625 -1.421875 17.65625 -0.515625 
Q 12.796875 0.390625 7.625 2.203125 
L 7.625 11.71875 
Q 11.71875 9.328125 16.59375 8.109375 
Q 21.484375 6.890625 26.8125 6.890625 
Q 36.078125 6.890625 40.9375 10.546875 
Q 45.796875 14.203125 45.796875 21.1875 
Q 45.796875 27.640625 41.28125 31.265625 
Q 36.765625 34.90625 28.71875 34.90625 
L 20.21875 34.90625 
L 20.21875 43.015625 
L 29.109375 43.015625 
Q 36.375 43.015625 40.234375 45.921875 
Q 44.09375 48.828125 44.09375 54.296875 
Q 44.09375 59.90625 40.109375 62.90625 
Q 36.140625 65.921875 28.71875 65.921875 
Q 24.65625 65.921875 20.015625 65.03125 
Q 15.375 64.15625 9.8125 62.3125 
L 9.8125 71.09375 
Q 15.4375 72.65625 20.34375 73.4375 
Q 25.25 74.21875 29.59375 74.21875 
Q 40.828125 74.21875 47.359375 69.109375 
Q 53.90625 64.015625 53.90625 55.328125 
Q 53.90625 49.265625 50.4375 45.09375 
Q 46.96875 40.921875 40.578125 39.3125 
z
" id="DejaVuSans-33"/>
      </defs>
      <g transform="translate(26.317187 267.6286)scale(0.1 -0.1)">
       <use xlink:href="#DejaVuSans-2212"/>
       <use x="83.789062" xlink:href="#DejaVuSans-30"/>
       <use x="147.412109" xlink:href="#DejaVuSans-2e"/>
       <use x="179.199219" xlink:href="#DejaVuSans-33"/>
      </g>
     </g>
    </g>
    <g id="ytick_3">
     <g id="line2d_9">
      <g>
       <use style="stroke:#000000;stroke-width:0.8;" x="57.6" xlink:href="#mf0bd0fa8af" y="234.069381"/>
      </g>
     </g>
     <g id="text_9">
      <!-- −0.2 -->
      <g transform="translate(26.317187 237.8686)scale(0.1 -0.1)">
       <use xlink:href="#DejaVuSans-2212"/>
       <use x="83.789062" xlink:href="#DejaVuSans-30"/>
       <use x="147.412109" xlink:href="#DejaVuSans-2e"/>
       <use x="179.199219" xlink:href="#DejaVuSans-32"/>
      </g>
     </g>
    </g>
    <g id="ytick_4">
     <g id="line2d_10">
      <g>
       <use style="stroke:#000000;stroke-width:0.8;" x="57.6" xlink:href="#mf0bd0fa8af" y="204.309381"/>
      </g>
     </g>
     <g id="text_10">
      <!-- −0.1 -->
      <g transform="translate(26.317187 208.1086)scale(0.1 -0.1)">
       <use xlink:href="#DejaVuSans-2212"/>
       <use x="83.789062" xlink:href="#DejaVuSans-30"/>
       <use x="147.412109" xlink:href="#DejaVuSans-2e"/>
       <use x="179.199219" xlink:href="#DejaVuSans-31"/>
      </g>
     </g>
    </g>
    <g id="ytick_5">
     <g id="line2d_11">
      <g>
       <use style="stroke:#000000;stroke-width:0.8;" x="57.6" xlink:href="#mf0bd0fa8af" y="174.549381"/>
      </g>
     </g>
     <g id="text_11">
      <!-- 0.0 -->
      <g transform="translate(34.696875 178.3486)scale(0.1 -0.1)">
       <use xlink:href="#DejaVuSans-30"/>
       <use x="63.623047" xlink:href="#DejaVuSans-2e"/>
       <use x="95.410156" xlink:href="#DejaVuSans-30"/>
      </g>
     </g>
    </g>
    <g id="ytick_6">
     <g id="line2d_12">
      <g>
       <use style="stroke:#000000;stroke-width:0.8;" x="57.6" xlink:href="#mf0bd0fa8af" y="144.789381"/>
      </g>
     </g>
     <g id="text_12">
      <!-- 0.1 -->
      <g transform="translate(34.696875 148.5886)scale(0.1 -0.1)">
       <use xlink:href="#DejaVuSans-30"/>
       <use x="63.623047" xlink:href="#DejaVuSans-2e"/>
       <use x="95.410156" xlink:href="#DejaVuSans-31"/>
      </g>
     </g>
    </g>
    <g id="ytick_7">
     <g id="line2d_13">
      <g>
       <use style="stroke:#000000;stroke-width:0.8;" x="57.6" xlink:href="#mf0bd0fa8af" y="115.029381"/>
      </g>
     </g>
     <g id="text_13">
      <!-- 0.2 -->
      <g transform="translate(34.696875 118.8286)scale(0.1 -0.1)">
       <use xlink:href="#DejaVuSans-30"/>
       <use x="63.623047" xlink:href="#DejaVuSans-2e"/>
       <use x="95.410156" xlink:href="#DejaVuSans-32"/>
      </g>
     </g>
    </g>
    <g id="ytick_8">
     <g id="line2d_14">
      <g>
       <use style="stroke:#000000;stroke-width:0.8;" x="57.6" xlink:href="#mf0bd0fa8af" y="85.269381"/>
      </g>
     </g>
     <g id="text_14">
      <!-- 0.3 -->
      <g transform="translate(34.696875 89.0686)scale(0.1 -0.1)">
       <use xlink:href="#DejaVuSans-30"/>
       <use x="63.623047" xlink:href="#DejaVuSans-2e"/>
       <use x="95.410156" xlink:href="#DejaVuSans-33"/>
      </g>
     </g>
    </g>
    <g id="ytick_9">
     <g id="line2d_15">
      <g>
       <use style="stroke:#000000;stroke-width:0.8;" x="57.6" xlink:href="#mf0bd0fa8af" y="55.509381"/>
      </g>
     </g>
     <g id="text_15">
      <!-- 0.4 -->
      <g transform="translate(34.696875 59.3086)scale(0.1 -0.1)">
       <use xlink:href="#DejaVuSans-30"/>
       <use x="63.623047" xlink:href="#DejaVuSans-2e"/>
       <use x="95.410156" xlink:href="#DejaVuSans-34"/>
      </g>
     </g>
    </g>
   </g>
   <g id="line2d_16">
    <defs>
     <path d="M 0 1.5 
C 0.397805 1.5 0.77937 1.341951 1.06066 1.06066 
C 1.341951 0.77937 1.5 0.397805 1.5 0 
C 1.5 -0.397805 1.341951 -0.77937 1.06066 -1.06066 
C 0.77937 -1.341951 0.397805 -1.5 0 -1.5 
C -0.397805 -1.5 -0.77937 -1.341951 -1.06066 -1.06066 
C -1.341951 -0.77937 -1.5 -0.397805 -1.5 0 
C -1.5 0.397805 -1.341951 0.77937 -1.06066 1.06066 
C -0.77937 1.341951 -0.397805 1.5 0 1.5 
z
" id="me7ad0e4f49" style="stroke:#0000ff;"/>
    </defs>
    <g clip-path="url(#p197aa2737f)">
     <use style="fill:#0000ff;opacity:0.7;stroke:#0000ff;" x="384.96" xlink:href="#me7ad0e4f49" y="174.174405"/>
     <use style="fill:#0000ff;opacity:0.7;stroke:#0000ff;" x="384.786202" xlink:href="#me7ad0e4f49" y="174.150002"/>
     <use style="fill:#0000ff;opacity:0.7;stroke:#0000ff;" x="384.265402" xlink:href="#me7ad0e4f49" y="174.07709"/>
     <use style="fill:#0000ff;opacity:0.7;stroke:#0000ff;" x="383.398493" xlink:href="#me7ad0e4f49" y="173.955966"/>
     <use style="fill:#0000ff;opacity:0.7;stroke:#0000ff;" x="382.187856" xlink:href="#me7ad0e4f49" y="173.787525"/>
     <use style="fill:#0000ff;opacity:0.7;stroke:#0000ff;" x="380.63617" xlink:href="#me7ad0e4f49" y="173.573253"/>
     <use style="fill:#0000ff;opacity:0.7;stroke:#0000ff;" x="378.747005" xlink:href="#me7ad0e4f49" y="173.313746"/>
     <use style="fill:#0000ff;opacity:0.7;stroke:#0000ff;" x="376.524826" xlink:href="#me7ad0e4f49" y="173.011086"/>
     <use style="fill:#0000ff;opacity:0.7;stroke:#0000ff;" x="373.974691" xlink:href="#me7ad0e4f49" y="172.667358"/>
     <use style="fill:#0000ff;opacity:0.7;stroke:#0000ff;" x="371.102851" xlink:href="#me7ad0e4f49" y="172.284347"/>
     <use style="fill:#0000ff;opacity:0.7;stroke:#0000ff;" x="367.915853" xlink:href="#me7ad0e4f49" y="171.864434"/>
     <use style="fill:#0000ff;opacity:0.7;stroke:#0000ff;" x="364.421136" xlink:href="#me7ad0e4f49" y="171.409998"/>
     <use style="fill:#0000ff;opacity:0.7;stroke:#0000ff;" x="360.626736" xlink:href="#me7ad0e4f49" y="170.924018"/>
     <use style="fill:#0000ff;opacity:0.7;stroke:#0000ff;" x="356.541878" xlink:href="#me7ad0e4f49" y="170.408574"/>
     <use style="fill:#0000ff;opacity:0.7;stroke:#0000ff;" x="352.175491" xlink:href="#me7ad0e4f49" y="169.866645"/>
     <use style="fill:#0000ff;opacity:0.7;stroke:#0000ff;" x="347.538288" xlink:href="#me7ad0e4f49" y="169.301205"/>
     <use style="fill:#0000ff;opacity:0.7;stroke:#0000ff;" x="342.64128" xlink:href="#me7ad0e4f49" y="168.714933"/>
     <use style="fill:#0000ff;opacity:0.7;stroke:#0000ff;" x="337.495181" xlink:href="#me7ad0e4f49" y="168.110805"/>
     <use style="fill:#0000ff;opacity:0.7;stroke:#0000ff;" x="332.11249" xlink:href="#me7ad0e4f49" y="167.492094"/>
     <use style="fill:#0000ff;opacity:0.7;stroke:#0000ff;" x="326.505706" xlink:href="#me7ad0e4f49" y="166.861182"/>
     <use style="fill:#0000ff;opacity:0.7;stroke:#0000ff;" x="320.687923" xlink:href="#me7ad0e4f49" y="166.22164"/>
     <use style="fill:#0000ff;opacity:0.7;stroke:#0000ff;" x="314.672832" xlink:href="#me7ad0e4f49" y="165.576146"/>
     <use style="fill:#0000ff;opacity:0.7;stroke:#0000ff;" x="308.474419" xlink:href="#me7ad0e4f49" y="164.92827"/>
     <use style="fill:#0000ff;opacity:0.7;stroke:#0000ff;" x="302.10697" xlink:href="#me7ad0e4f49" y="164.280395"/>
     <use style="fill:#0000ff;opacity:0.7;stroke:#0000ff;" x="295.585363" xlink:href="#me7ad0e4f49" y="163.636389"/>
     <use style="fill:#0000ff;opacity:0.7;stroke:#0000ff;" x="288.925373" xlink:href="#me7ad0e4f49" y="162.999227"/>
     <use style="fill:#0000ff;opacity:0.7;stroke:#0000ff;" x="282.141878" xlink:href="#me7ad0e4f49" y="162.372482"/>
     <use style="fill:#0000ff;opacity:0.7;stroke:#0000ff;" x="275.25095" xlink:href="#me7ad0e4f49" y="161.759128"/>
     <use style="fill:#0000ff;opacity:0.7;stroke:#0000ff;" x="268.268659" xlink:href="#me7ad0e4f49" y="161.163333"/>
     <use style="fill:#0000ff;opacity:0.7;stroke:#0000ff;" x="261.21167" xlink:href="#me7ad0e4f49" y="160.58837"/>
     <use style="fill:#0000ff;opacity:0.7;stroke:#0000ff;" x="254.095757" xlink:href="#me7ad0e4f49" y="160.03781"/>
     <use style="fill:#0000ff;opacity:0.7;stroke:#0000ff;" x="246.938179" xlink:href="#me7ad0e4f49" y="159.515819"/>
     <use style="fill:#0000ff;opacity:0.7;stroke:#0000ff;" x="239.755603" xlink:href="#me7ad0e4f49" y="159.02597"/>
     <use style="fill:#0000ff;opacity:0.7;stroke:#0000ff;" x="232.564397" xlink:href="#me7ad0e4f49" y="158.57213"/>
     <use style="fill:#0000ff;opacity:0.7;stroke:#0000ff;" x="225.381821" xlink:href="#me7ad0e4f49" y="158.158466"/>
     <use style="fill:#0000ff;opacity:0.7;stroke:#0000ff;" x="218.224243" xlink:href="#me7ad0e4f49" y="157.788549"/>
     <use style="fill:#0000ff;opacity:0.7;stroke:#0000ff;" x="211.108627" xlink:href="#me7ad0e4f49" y="157.466248"/>
     <use style="fill:#0000ff;opacity:0.7;stroke:#0000ff;" x="204.051341" xlink:href="#me7ad0e4f49" y="157.195134"/>
     <use style="fill:#0000ff;opacity:0.7;stroke:#0000ff;" x="197.06905" xlink:href="#me7ad0e4f49" y="156.978482"/>
     <use style="fill:#0000ff;opacity:0.7;stroke:#0000ff;" x="190.178419" xlink:href="#me7ad0e4f49" y="156.819861"/>
     <use style="fill:#0000ff;opacity:0.7;stroke:#0000ff;" x="183.394925" xlink:href="#me7ad0e4f49" y="156.722248"/>
     <use style="fill:#0000ff;opacity:0.7;stroke:#0000ff;" x="176.734637" xlink:href="#me7ad0e4f49" y="156.688322"/>
     <use style="fill:#0000ff;opacity:0.7;stroke:#0000ff;" x="170.21303" xlink:href="#me7ad0e4f49" y="156.720165"/>
     <use style="fill:#0000ff;opacity:0.7;stroke:#0000ff;" x="163.845581" xlink:href="#me7ad0e4f49" y="156.819563"/>
     <use style="fill:#0000ff;opacity:0.7;stroke:#0000ff;" x="157.647168" xlink:href="#me7ad0e4f49" y="156.9886"/>
     <use style="fill:#0000ff;opacity:0.7;stroke:#0000ff;" x="151.632077" xlink:href="#me7ad0e4f49" y="157.227573"/>
     <use style="fill:#0000ff;opacity:0.7;stroke:#0000ff;" x="145.814294" xlink:href="#me7ad0e4f49" y="157.537374"/>
     <use style="fill:#0000ff;opacity:0.7;stroke:#0000ff;" x="140.20751" xlink:href="#me7ad0e4f49" y="157.917707"/>
     <use style="fill:#0000ff;opacity:0.7;stroke:#0000ff;" x="134.824819" xlink:href="#me7ad0e4f49" y="158.368274"/>
     <use style="fill:#0000ff;opacity:0.7;stroke:#0000ff;" x="129.679018" xlink:href="#me7ad0e4f49" y="158.888181"/>
     <use style="fill:#0000ff;opacity:0.7;stroke:#0000ff;" x="124.781712" xlink:href="#me7ad0e4f49" y="159.475643"/>
     <use style="fill:#0000ff;opacity:0.7;stroke:#0000ff;" x="120.144509" xlink:href="#me7ad0e4f49" y="160.128578"/>
     <use style="fill:#0000ff;opacity:0.7;stroke:#0000ff;" x="115.778419" xlink:href="#me7ad0e4f49" y="160.845198"/>
     <use style="fill:#0000ff;opacity:0.7;stroke:#0000ff;" x="111.693264" xlink:href="#me7ad0e4f49" y="161.62253"/>
     <use style="fill:#0000ff;opacity:0.7;stroke:#0000ff;" x="107.898864" xlink:href="#me7ad0e4f49" y="162.457595"/>
     <use style="fill:#0000ff;opacity:0.7;stroke:#0000ff;" x="104.404147" xlink:href="#me7ad0e4f49" y="163.347419"/>
     <use style="fill:#0000ff;opacity:0.7;stroke:#0000ff;" x="101.217149" xlink:href="#me7ad0e4f49" y="164.28843"/>
     <use style="fill:#0000ff;opacity:0.7;stroke:#0000ff;" x="98.345309" xlink:href="#me7ad0e4f49" y="165.277355"/>
     <use style="fill:#0000ff;opacity:0.7;stroke:#0000ff;" x="95.795174" xlink:href="#me7ad0e4f49" y="166.31092"/>
     <use style="fill:#0000ff;opacity:0.7;stroke:#0000ff;" x="93.572995" xlink:href="#me7ad0e4f49" y="167.385851"/>
     <use style="fill:#0000ff;opacity:0.7;stroke:#0000ff;" x="91.68383" xlink:href="#me7ad0e4f49" y="168.499173"/>
     <use style="fill:#0000ff;opacity:0.7;stroke:#0000ff;" x="90.132144" xlink:href="#me7ad0e4f49" y="169.647611"/>
     <use style="fill:#0000ff;opacity:0.7;stroke:#0000ff;" x="88.921507" xlink:href="#me7ad0e4f49" y="170.829083"/>
     <use style="fill:#0000ff;opacity:0.7;stroke:#0000ff;" x="88.054598" xlink:href="#me7ad0e4f49" y="172.04091"/>
     <use style="fill:#0000ff;opacity:0.7;stroke:#0000ff;" x="87.533798" xlink:href="#me7ad0e4f49" y="173.281605"/>
     <use style="fill:#0000ff;opacity:0.7;stroke:#0000ff;" x="87.36" xlink:href="#me7ad0e4f49" y="174.549381"/>
     <use style="fill:#0000ff;opacity:0.7;stroke:#0000ff;" x="87.533798" xlink:href="#me7ad0e4f49" y="175.817157"/>
     <use style="fill:#0000ff;opacity:0.7;stroke:#0000ff;" x="88.054598" xlink:href="#me7ad0e4f49" y="177.057851"/>
     <use style="fill:#0000ff;opacity:0.7;stroke:#0000ff;" x="88.921507" xlink:href="#me7ad0e4f49" y="178.269678"/>
     <use style="fill:#0000ff;opacity:0.7;stroke:#0000ff;" x="90.132144" xlink:href="#me7ad0e4f49" y="179.45115"/>
     <use style="fill:#0000ff;opacity:0.7;stroke:#0000ff;" x="91.68383" xlink:href="#me7ad0e4f49" y="180.599589"/>
     <use style="fill:#0000ff;opacity:0.7;stroke:#0000ff;" x="93.572995" xlink:href="#me7ad0e4f49" y="181.71291"/>
     <use style="fill:#0000ff;opacity:0.7;stroke:#0000ff;" x="95.795174" xlink:href="#me7ad0e4f49" y="182.787842"/>
     <use style="fill:#0000ff;opacity:0.7;stroke:#0000ff;" x="98.345309" xlink:href="#me7ad0e4f49" y="183.821406"/>
     <use style="fill:#0000ff;opacity:0.7;stroke:#0000ff;" x="101.217149" xlink:href="#me7ad0e4f49" y="184.810331"/>
     <use style="fill:#0000ff;opacity:0.7;stroke:#0000ff;" x="104.404147" xlink:href="#me7ad0e4f49" y="185.751342"/>
     <use style="fill:#0000ff;opacity:0.7;stroke:#0000ff;" x="107.898864" xlink:href="#me7ad0e4f49" y="186.641166"/>
     <use style="fill:#0000ff;opacity:0.7;stroke:#0000ff;" x="111.693264" xlink:href="#me7ad0e4f49" y="187.476232"/>
     <use style="fill:#0000ff;opacity:0.7;stroke:#0000ff;" x="115.778419" xlink:href="#me7ad0e4f49" y="188.253563"/>
     <use style="fill:#0000ff;opacity:0.7;stroke:#0000ff;" x="120.144509" xlink:href="#me7ad0e4f49" y="188.970184"/>
     <use style="fill:#0000ff;opacity:0.7;stroke:#0000ff;" x="124.781712" xlink:href="#me7ad0e4f49" y="189.623118"/>
     <use style="fill:#0000ff;opacity:0.7;stroke:#0000ff;" x="129.679018" xlink:href="#me7ad0e4f49" y="190.210581"/>
     <use style="fill:#0000ff;opacity:0.7;stroke:#0000ff;" x="134.824819" xlink:href="#me7ad0e4f49" y="190.730488"/>
     <use style="fill:#0000ff;opacity:0.7;stroke:#0000ff;" x="140.20751" xlink:href="#me7ad0e4f49" y="191.181054"/>
     <use style="fill:#0000ff;opacity:0.7;stroke:#0000ff;" x="145.814294" xlink:href="#me7ad0e4f49" y="191.561387"/>
     <use style="fill:#0000ff;opacity:0.7;stroke:#0000ff;" x="151.632077" xlink:href="#me7ad0e4f49" y="191.871189"/>
     <use style="fill:#0000ff;opacity:0.7;stroke:#0000ff;" x="157.647168" xlink:href="#me7ad0e4f49" y="192.110162"/>
     <use style="fill:#0000ff;opacity:0.7;stroke:#0000ff;" x="163.845581" xlink:href="#me7ad0e4f49" y="192.279198"/>
     <use style="fill:#0000ff;opacity:0.7;stroke:#0000ff;" x="170.21303" xlink:href="#me7ad0e4f49" y="192.378597"/>
     <use style="fill:#0000ff;opacity:0.7;stroke:#0000ff;" x="176.734637" xlink:href="#me7ad0e4f49" y="192.41044"/>
     <use style="fill:#0000ff;opacity:0.7;stroke:#0000ff;" x="183.394925" xlink:href="#me7ad0e4f49" y="192.376514"/>
     <use style="fill:#0000ff;opacity:0.7;stroke:#0000ff;" x="190.178419" xlink:href="#me7ad0e4f49" y="192.278901"/>
     <use style="fill:#0000ff;opacity:0.7;stroke:#0000ff;" x="197.06905" xlink:href="#me7ad0e4f49" y="192.12028"/>
     <use style="fill:#0000ff;opacity:0.7;stroke:#0000ff;" x="204.051341" xlink:href="#me7ad0e4f49" y="191.903627"/>
     <use style="fill:#0000ff;opacity:0.7;stroke:#0000ff;" x="211.108627" xlink:href="#me7ad0e4f49" y="191.632514"/>
     <use style="fill:#0000ff;opacity:0.7;stroke:#0000ff;" x="218.224243" xlink:href="#me7ad0e4f49" y="191.310213"/>
     <use style="fill:#0000ff;opacity:0.7;stroke:#0000ff;" x="225.381821" xlink:href="#me7ad0e4f49" y="190.940296"/>
     <use style="fill:#0000ff;opacity:0.7;stroke:#0000ff;" x="232.564397" xlink:href="#me7ad0e4f49" y="190.526632"/>
     <use style="fill:#0000ff;opacity:0.7;stroke:#0000ff;" x="239.755603" xlink:href="#me7ad0e4f49" y="190.072792"/>
     <use style="fill:#0000ff;opacity:0.7;stroke:#0000ff;" x="246.938179" xlink:href="#me7ad0e4f49" y="189.582942"/>
     <use style="fill:#0000ff;opacity:0.7;stroke:#0000ff;" x="254.095757" xlink:href="#me7ad0e4f49" y="189.060952"/>
     <use style="fill:#0000ff;opacity:0.7;stroke:#0000ff;" x="261.21167" xlink:href="#me7ad0e4f49" y="188.510392"/>
     <use style="fill:#0000ff;opacity:0.7;stroke:#0000ff;" x="268.268659" xlink:href="#me7ad0e4f49" y="187.935429"/>
     <use style="fill:#0000ff;opacity:0.7;stroke:#0000ff;" x="275.25095" xlink:href="#me7ad0e4f49" y="187.339634"/>
     <use style="fill:#0000ff;opacity:0.7;stroke:#0000ff;" x="282.141878" xlink:href="#me7ad0e4f49" y="186.72628"/>
     <use style="fill:#0000ff;opacity:0.7;stroke:#0000ff;" x="288.925373" xlink:href="#me7ad0e4f49" y="186.099534"/>
     <use style="fill:#0000ff;opacity:0.7;stroke:#0000ff;" x="295.585363" xlink:href="#me7ad0e4f49" y="185.462373"/>
     <use style="fill:#0000ff;opacity:0.7;stroke:#0000ff;" x="302.10697" xlink:href="#me7ad0e4f49" y="184.818366"/>
     <use style="fill:#0000ff;opacity:0.7;stroke:#0000ff;" x="308.474419" xlink:href="#me7ad0e4f49" y="184.170491"/>
     <use style="fill:#0000ff;opacity:0.7;stroke:#0000ff;" x="314.672832" xlink:href="#me7ad0e4f49" y="183.522616"/>
     <use style="fill:#0000ff;opacity:0.7;stroke:#0000ff;" x="320.687923" xlink:href="#me7ad0e4f49" y="182.877122"/>
     <use style="fill:#0000ff;opacity:0.7;stroke:#0000ff;" x="326.505706" xlink:href="#me7ad0e4f49" y="182.237579"/>
     <use style="fill:#0000ff;opacity:0.7;stroke:#0000ff;" x="332.11249" xlink:href="#me7ad0e4f49" y="181.606667"/>
     <use style="fill:#0000ff;opacity:0.7;stroke:#0000ff;" x="337.495181" xlink:href="#me7ad0e4f49" y="180.987957"/>
     <use style="fill:#0000ff;opacity:0.7;stroke:#0000ff;" x="342.64128" xlink:href="#me7ad0e4f49" y="180.383829"/>
     <use style="fill:#0000ff;opacity:0.7;stroke:#0000ff;" x="347.538288" xlink:href="#me7ad0e4f49" y="179.797557"/>
     <use style="fill:#0000ff;opacity:0.7;stroke:#0000ff;" x="352.175491" xlink:href="#me7ad0e4f49" y="179.232117"/>
     <use style="fill:#0000ff;opacity:0.7;stroke:#0000ff;" x="356.541878" xlink:href="#me7ad0e4f49" y="178.690187"/>
     <use style="fill:#0000ff;opacity:0.7;stroke:#0000ff;" x="360.626736" xlink:href="#me7ad0e4f49" y="178.174744"/>
     <use style="fill:#0000ff;opacity:0.7;stroke:#0000ff;" x="364.421136" xlink:href="#me7ad0e4f49" y="177.688763"/>
     <use style="fill:#0000ff;opacity:0.7;stroke:#0000ff;" x="367.915853" xlink:href="#me7ad0e4f49" y="177.234328"/>
     <use style="fill:#0000ff;opacity:0.7;stroke:#0000ff;" x="371.102851" xlink:href="#me7ad0e4f49" y="176.814414"/>
     <use style="fill:#0000ff;opacity:0.7;stroke:#0000ff;" x="373.974691" xlink:href="#me7ad0e4f49" y="176.431403"/>
     <use style="fill:#0000ff;opacity:0.7;stroke:#0000ff;" x="376.524826" xlink:href="#me7ad0e4f49" y="176.087675"/>
     <use style="fill:#0000ff;opacity:0.7;stroke:#0000ff;" x="378.747005" xlink:href="#me7ad0e4f49" y="175.785016"/>
     <use style="fill:#0000ff;opacity:0.7;stroke:#0000ff;" x="380.63617" xlink:href="#me7ad0e4f49" y="175.525509"/>
     <use style="fill:#0000ff;opacity:0.7;stroke:#0000ff;" x="382.187856" xlink:href="#me7ad0e4f49" y="175.311237"/>
     <use style="fill:#0000ff;opacity:0.7;stroke:#0000ff;" x="383.398493" xlink:href="#me7ad0e4f49" y="175.142795"/>
     <use style="fill:#0000ff;opacity:0.7;stroke:#0000ff;" x="384.265402" xlink:href="#me7ad0e4f49" y="175.021672"/>
     <use style="fill:#0000ff;opacity:0.7;stroke:#0000ff;" x="384.786202" xlink:href="#me7ad0e4f49" y="174.94876"/>
     <use style="fill:#0000ff;opacity:0.7;stroke:#0000ff;" x="384.96" xlink:href="#me7ad0e4f49" y="174.924357"/>
    </g>
   </g>
   <g id="line2d_17">
    <path clip-path="url(#p197aa2737f)" d="M 384.96 174.549381 
L 378.757315 173.387396 
L 372.120288 172.420705 
L 352.292291 169.881218 
L 332.224405 167.504221 
L 308.035702 164.881688 
L 287.857687 162.90024 
L 267.731135 161.120983 
L 247.768753 159.572543 
L 231.917645 158.532173 
L 216.124214 157.693213 
L 200.351303 157.078388 
L 184.728188 156.728795 
L 173.215692 156.682677 
L 161.929363 156.851535 
L 150.911099 157.258182 
L 140.243 157.91878 
L 133.423603 158.510234 
L 126.760659 159.251307 
L 120.127533 160.173476 
L 113.403312 161.312135 
L 106.481385 162.7064 
L 100.207701 164.164747 
L 96.100434 165.311857 
L 93.690559 166.219342 
L 91.930335 167.104679 
L 90.330791 168.207156 
L 89.085597 169.449318 
L 88.453197 170.34792 
L 87.944435 171.366589 
L 87.510826 172.855874 
L 87.36 174.549381 
L 87.36 174.549381 
L 87.47933 175.886836 
L 87.823265 177.093129 
L 88.29636 178.056595 
L 89.20068 179.264389 
L 90.008007 180.04093 
L 91.630046 181.199328 
L 93.341145 182.109804 
L 95.855096 183.14678 
L 100.089189 184.528537 
L 105.787361 186.115209 
L 111.802586 187.51395 
L 117.876333 188.662696 
L 124.105612 189.598251 
L 130.594755 190.354047 
L 137.471373 190.966706 
L 148.409937 191.677068 
L 159.638849 192.139392 
L 171.074227 192.366317 
L 182.684204 192.377027 
L 194.434358 192.193202 
L 210.240383 191.686233 
L 226.128101 190.918635 
L 242.121337 189.923095 
L 262.309547 188.409998 
L 282.679507 186.665147 
L 303.064076 184.72319 
L 323.415764 182.587076 
L 343.715865 180.257827 
L 364.021679 177.735396 
L 375.458228 176.213213 
L 381.73544 175.193313 
L 384.96 174.549381 
L 384.96 174.549381 
" style="fill:none;opacity:0.7;stroke:#ff0000;stroke-linecap:square;"/>
   </g>
   <g id="line2d_18">
    <path clip-path="url(#p197aa2737f)" d="M 87.36 174.549381 
L 87.36 167.593041 
L 110.622787 160.92606 
L 148.744676 156.305331 
L 205.631901 156.606538 
L 266.976004 160.720225 
L 322.964801 166.280108 
L 361.320007 170.942073 
L 380.063366 173.485711 
L 384.96 174.549381 
" style="fill:none;opacity:0.5;stroke:#008000;stroke-linecap:square;stroke-width:1.5;"/>
    <defs>
     <path d="M 0 2.5 
C 0.663008 2.5 1.29895 2.236584 1.767767 1.767767 
C 2.236584 1.29895 2.5 0.663008 2.5 0 
C 2.5 -0.663008 2.236584 -1.29895 1.767767 -1.767767 
C 1.29895 -2.236584 0.663008 -2.5 0 -2.5 
C -0.663008 -2.5 -1.29895 -2.236584 -1.767767 -1.767767 
C -2.236584 -1.29895 -2.5 -0.663008 -2.5 0 
C -2.5 0.663008 -2.236584 1.29895 -1.767767 1.767767 
C -1.29895 2.236584 -0.663008 2.5 0 2.5 
z
" id="m8b8efd1566" style="stroke:#008000;"/>
    </defs>
    <g clip-path="url(#p197aa2737f)">
     <use style="fill:#008000;opacity:0.5;stroke:#008000;" x="87.36" xlink:href="#m8b8efd1566" y="174.549381"/>
     <use style="fill:#008000;opacity:0.5;stroke:#008000;" x="87.36" xlink:href="#m8b8efd1566" y="167.593041"/>
     <use style="fill:#008000;opacity:0.5;stroke:#008000;" x="110.622787" xlink:href="#m8b8efd1566" y="160.92606"/>
     <use style="fill:#008000;opacity:0.5;stroke:#008000;" x="148.744676" xlink:href="#m8b8efd1566" y="156.305331"/>
     <use style="fill:#008000;opacity:0.5;stroke:#008000;" x="205.631901" xlink:href="#m8b8efd1566" y="156.606538"/>
     <use style="fill:#008000;opacity:0.5;stroke:#008000;" x="266.976004" xlink:href="#m8b8efd1566" y="160.720225"/>
     <use style="fill:#008000;opacity:0.5;stroke:#008000;" x="322.964801" xlink:href="#m8b8efd1566" y="166.280108"/>
     <use style="fill:#008000;opacity:0.5;stroke:#008000;" x="361.320007" xlink:href="#m8b8efd1566" y="170.942073"/>
     <use style="fill:#008000;opacity:0.5;stroke:#008000;" x="380.063366" xlink:href="#m8b8efd1566" y="173.485711"/>
     <use style="fill:#008000;opacity:0.5;stroke:#008000;" x="384.96" xlink:href="#m8b8efd1566" y="174.549381"/>
    </g>
   </g>
   <g id="line2d_19">
    <path clip-path="url(#p197aa2737f)" d="M 87.36 174.549381 
L 87.36 180.157854 
L 107.664855 187.906532 
L 145.384523 192.480758 
L 201.854791 192.750669 
L 264.176956 188.579814 
L 321.238136 183.043682 
L 360.656547 178.230729 
L 379.903765 175.640869 
L 384.96 174.549381 
" style="fill:none;opacity:0.5;stroke:#008000;stroke-linecap:square;stroke-width:1.5;"/>
    <g clip-path="url(#p197aa2737f)">
     <use style="fill:#008000;opacity:0.5;stroke:#008000;" x="87.36" xlink:href="#m8b8efd1566" y="174.549381"/>
     <use style="fill:#008000;opacity:0.5;stroke:#008000;" x="87.36" xlink:href="#m8b8efd1566" y="180.157854"/>
     <use style="fill:#008000;opacity:0.5;stroke:#008000;" x="107.664855" xlink:href="#m8b8efd1566" y="187.906532"/>
     <use style="fill:#008000;opacity:0.5;stroke:#008000;" x="145.384523" xlink:href="#m8b8efd1566" y="192.480758"/>
     <use style="fill:#008000;opacity:0.5;stroke:#008000;" x="201.854791" xlink:href="#m8b8efd1566" y="192.750669"/>
     <use style="fill:#008000;opacity:0.5;stroke:#008000;" x="264.176956" xlink:href="#m8b8efd1566" y="188.579814"/>
     <use style="fill:#008000;opacity:0.5;stroke:#008000;" x="321.238136" xlink:href="#m8b8efd1566" y="183.043682"/>
     <use style="fill:#008000;opacity:0.5;stroke:#008000;" x="360.656547" xlink:href="#m8b8efd1566" y="178.230729"/>
     <use style="fill:#008000;opacity:0.5;stroke:#008000;" x="379.903765" xlink:href="#m8b8efd1566" y="175.640869"/>
     <use style="fill:#008000;opacity:0.5;stroke:#008000;" x="384.96" xlink:href="#m8b8efd1566" y="174.549381"/>
    </g>
   </g>
   <g id="patch_3">
    <path d="M 57.6 307.584 
L 57.6 41.472 
" style="fill:none;stroke:#000000;stroke-linecap:square;stroke-linejoin:miter;stroke-width:0.8;"/>
   </g>
   <g id="patch_4">
    <path d="M 414.72 307.584 
L 414.72 41.472 
" style="fill:none;stroke:#000000;stroke-linecap:square;stroke-linejoin:miter;stroke-width:0.8;"/>
   </g>
   <g id="patch_5">
    <path d="M 57.6 307.584 
L 414.72 307.584 
" style="fill:none;stroke:#000000;stroke-linecap:square;stroke-linejoin:miter;stroke-width:0.8;"/>
   </g>
   <g id="patch_6">
    <path d="M 57.6 41.472 
L 414.72 41.472 
" style="fill:none;stroke:#000000;stroke-linecap:square;stroke-linejoin:miter;stroke-width:0.8;"/>
   </g>
   <g id="legend_1">
    <g id="patch_7">
     <path d="M 264.105938 93.506375 
L 407.72 93.506375 
Q 409.72 93.506375 409.72 91.506375 
L 409.72 48.472 
Q 409.72 46.472 407.72 46.472 
L 264.105938 46.472 
Q 262.105938 46.472 262.105938 48.472 
L 262.105938 91.506375 
Q 262.105938 93.506375 264.105938 93.506375 
z
" style="fill:#ffffff;opacity:0.8;stroke:#cccccc;stroke-linejoin:miter;"/>
    </g>
    <g id="line2d_20"/>
    <g id="line2d_21">
     <g>
      <use style="fill:#0000ff;opacity:0.7;stroke:#0000ff;" x="276.105938" xlink:href="#me7ad0e4f49" y="54.570438"/>
     </g>
    </g>
    <g id="text_16">
     <!-- Original Airfoil -->
     <defs>
      <path d="M 39.40625 66.21875 
Q 28.65625 66.21875 22.328125 58.203125 
Q 16.015625 50.203125 16.015625 36.375 
Q 16.015625 22.609375 22.328125 14.59375 
Q 28.65625 6.59375 39.40625 6.59375 
Q 50.140625 6.59375 56.421875 14.59375 
Q 62.703125 22.609375 62.703125 36.375 
Q 62.703125 50.203125 56.421875 58.203125 
Q 50.140625 66.21875 39.40625 66.21875 
z
M 39.40625 74.21875 
Q 54.734375 74.21875 63.90625 63.9375 
Q 73.09375 53.65625 73.09375 36.375 
Q 73.09375 19.140625 63.90625 8.859375 
Q 54.734375 -1.421875 39.40625 -1.421875 
Q 24.03125 -1.421875 14.8125 8.828125 
Q 5.609375 19.09375 5.609375 36.375 
Q 5.609375 53.65625 14.8125 63.9375 
Q 24.03125 74.21875 39.40625 74.21875 
z
" id="DejaVuSans-4f"/>
      <path d="M 41.109375 46.296875 
Q 39.59375 47.171875 37.8125 47.578125 
Q 36.03125 48 33.890625 48 
Q 26.265625 48 22.1875 43.046875 
Q 18.109375 38.09375 18.109375 28.8125 
L 18.109375 0 
L 9.078125 0 
L 9.078125 54.6875 
L 18.109375 54.6875 
L 18.109375 46.1875 
Q 20.953125 51.171875 25.484375 53.578125 
Q 30.03125 56 36.53125 56 
Q 37.453125 56 38.578125 55.875 
Q 39.703125 55.765625 41.0625 55.515625 
z
" id="DejaVuSans-72"/>
      <path d="M 9.421875 54.6875 
L 18.40625 54.6875 
L 18.40625 0 
L 9.421875 0 
z
M 9.421875 75.984375 
L 18.40625 75.984375 
L 18.40625 64.59375 
L 9.421875 64.59375 
z
" id="DejaVuSans-69"/>
      <path d="M 45.40625 27.984375 
Q 45.40625 37.75 41.375 43.109375 
Q 37.359375 48.484375 30.078125 48.484375 
Q 22.859375 48.484375 18.828125 43.109375 
Q 14.796875 37.75 14.796875 27.984375 
Q 14.796875 18.265625 18.828125 12.890625 
Q 22.859375 7.515625 30.078125 7.515625 
Q 37.359375 7.515625 41.375 12.890625 
Q 45.40625 18.265625 45.40625 27.984375 
z
M 54.390625 6.78125 
Q 54.390625 -7.171875 48.1875 -13.984375 
Q 42 -20.796875 29.203125 -20.796875 
Q 24.46875 -20.796875 20.265625 -20.09375 
Q 16.0625 -19.390625 12.109375 -17.921875 
L 12.109375 -9.1875 
Q 16.0625 -11.328125 19.921875 -12.34375 
Q 23.78125 -13.375 27.78125 -13.375 
Q 36.625 -13.375 41.015625 -8.765625 
Q 45.40625 -4.15625 45.40625 5.171875 
L 45.40625 9.625 
Q 42.625 4.78125 38.28125 2.390625 
Q 33.9375 0 27.875 0 
Q 17.828125 0 11.671875 7.65625 
Q 5.515625 15.328125 5.515625 27.984375 
Q 5.515625 40.671875 11.671875 48.328125 
Q 17.828125 56 27.875 56 
Q 33.9375 56 38.28125 53.609375 
Q 42.625 51.21875 45.40625 46.390625 
L 45.40625 54.6875 
L 54.390625 54.6875 
z
" id="DejaVuSans-67"/>
      <path d="M 54.890625 33.015625 
L 54.890625 0 
L 45.90625 0 
L 45.90625 32.71875 
Q 45.90625 40.484375 42.875 44.328125 
Q 39.84375 48.1875 33.796875 48.1875 
Q 26.515625 48.1875 22.3125 43.546875 
Q 18.109375 38.921875 18.109375 30.90625 
L 18.109375 0 
L 9.078125 0 
L 9.078125 54.6875 
L 18.109375 54.6875 
L 18.109375 46.1875 
Q 21.34375 51.125 25.703125 53.5625 
Q 30.078125 56 35.796875 56 
Q 45.21875 56 50.046875 50.171875 
Q 54.890625 44.34375 54.890625 33.015625 
z
" id="DejaVuSans-6e"/>
      <path d="M 34.28125 27.484375 
Q 23.390625 27.484375 19.1875 25 
Q 14.984375 22.515625 14.984375 16.5 
Q 14.984375 11.71875 18.140625 8.90625 
Q 21.296875 6.109375 26.703125 6.109375 
Q 34.1875 6.109375 38.703125 11.40625 
Q 43.21875 16.703125 43.21875 25.484375 
L 43.21875 27.484375 
z
M 52.203125 31.203125 
L 52.203125 0 
L 43.21875 0 
L 43.21875 8.296875 
Q 40.140625 3.328125 35.546875 0.953125 
Q 30.953125 -1.421875 24.3125 -1.421875 
Q 15.921875 -1.421875 10.953125 3.296875 
Q 6 8.015625 6 15.921875 
Q 6 25.140625 12.171875 29.828125 
Q 18.359375 34.515625 30.609375 34.515625 
L 43.21875 34.515625 
L 43.21875 35.40625 
Q 43.21875 41.609375 39.140625 45 
Q 35.0625 48.390625 27.6875 48.390625 
Q 23 48.390625 18.546875 47.265625 
Q 14.109375 46.140625 10.015625 43.890625 
L 10.015625 52.203125 
Q 14.9375 54.109375 19.578125 55.046875 
Q 24.21875 56 28.609375 56 
Q 40.484375 56 46.34375 49.84375 
Q 52.203125 43.703125 52.203125 31.203125 
z
" id="DejaVuSans-61"/>
      <path d="M 9.421875 75.984375 
L 18.40625 75.984375 
L 18.40625 0 
L 9.421875 0 
z
" id="DejaVuSans-6c"/>
      <path id="DejaVuSans-20"/>
      <path d="M 34.1875 63.1875 
L 20.796875 26.90625 
L 47.609375 26.90625 
z
M 28.609375 72.90625 
L 39.796875 72.90625 
L 67.578125 0 
L 57.328125 0 
L 50.6875 18.703125 
L 17.828125 18.703125 
L 11.1875 0 
L 0.78125 0 
z
" id="DejaVuSans-41"/>
      <path d="M 37.109375 75.984375 
L 37.109375 68.5 
L 28.515625 68.5 
Q 23.6875 68.5 21.796875 66.546875 
Q 19.921875 64.59375 19.921875 59.515625 
L 19.921875 54.6875 
L 34.71875 54.6875 
L 34.71875 47.703125 
L 19.921875 47.703125 
L 19.921875 0 
L 10.890625 0 
L 10.890625 47.703125 
L 2.296875 47.703125 
L 2.296875 54.6875 
L 10.890625 54.6875 
L 10.890625 58.5 
Q 10.890625 67.625 15.140625 71.796875 
Q 19.390625 75.984375 28.609375 75.984375 
z
" id="DejaVuSans-66"/>
      <path d="M 30.609375 48.390625 
Q 23.390625 48.390625 19.1875 42.75 
Q 14.984375 37.109375 14.984375 27.296875 
Q 14.984375 17.484375 19.15625 11.84375 
Q 23.34375 6.203125 30.609375 6.203125 
Q 37.796875 6.203125 41.984375 11.859375 
Q 46.1875 17.53125 46.1875 27.296875 
Q 46.1875 37.015625 41.984375 42.703125 
Q 37.796875 48.390625 30.609375 48.390625 
z
M 30.609375 56 
Q 42.328125 56 49.015625 48.375 
Q 55.71875 40.765625 55.71875 27.296875 
Q 55.71875 13.875 49.015625 6.21875 
Q 42.328125 -1.421875 30.609375 -1.421875 
Q 18.84375 -1.421875 12.171875 6.21875 
Q 5.515625 13.875 5.515625 27.296875 
Q 5.515625 40.765625 12.171875 48.375 
Q 18.84375 56 30.609375 56 
z
" id="DejaVuSans-6f"/>
     </defs>
     <g transform="translate(294.105938 58.070438)scale(0.1 -0.1)">
      <use xlink:href="#DejaVuSans-4f"/>
      <use x="78.710938" xlink:href="#DejaVuSans-72"/>
      <use x="119.824219" xlink:href="#DejaVuSans-69"/>
      <use x="147.607422" xlink:href="#DejaVuSans-67"/>
      <use x="211.083984" xlink:href="#DejaVuSans-69"/>
      <use x="238.867188" xlink:href="#DejaVuSans-6e"/>
      <use x="302.246094" xlink:href="#DejaVuSans-61"/>
      <use x="363.525391" xlink:href="#DejaVuSans-6c"/>
      <use x="391.308594" xlink:href="#DejaVuSans-20"/>
      <use x="423.095703" xlink:href="#DejaVuSans-41"/>
      <use x="491.503906" xlink:href="#DejaVuSans-69"/>
      <use x="519.287109" xlink:href="#DejaVuSans-72"/>
      <use x="560.400391" xlink:href="#DejaVuSans-66"/>
      <use x="595.605469" xlink:href="#DejaVuSans-6f"/>
      <use x="656.787109" xlink:href="#DejaVuSans-69"/>
      <use x="684.570312" xlink:href="#DejaVuSans-6c"/>
     </g>
    </g>
    <g id="line2d_22">
     <path d="M 266.105938 69.248563 
L 286.105938 69.248563 
" style="fill:none;opacity:0.7;stroke:#ff0000;stroke-linecap:square;"/>
    </g>
    <g id="line2d_23"/>
    <g id="text_17">
     <!-- NURBS Approximation -->
     <defs>
      <path d="M 9.8125 72.90625 
L 23.09375 72.90625 
L 55.421875 11.921875 
L 55.421875 72.90625 
L 64.984375 72.90625 
L 64.984375 0 
L 51.703125 0 
L 19.390625 60.984375 
L 19.390625 0 
L 9.8125 0 
z
" id="DejaVuSans-4e"/>
      <path d="M 8.6875 72.90625 
L 18.609375 72.90625 
L 18.609375 28.609375 
Q 18.609375 16.890625 22.84375 11.734375 
Q 27.09375 6.59375 36.625 6.59375 
Q 46.09375 6.59375 50.34375 11.734375 
Q 54.59375 16.890625 54.59375 28.609375 
L 54.59375 72.90625 
L 64.5 72.90625 
L 64.5 27.390625 
Q 64.5 13.140625 57.4375 5.859375 
Q 50.390625 -1.421875 36.625 -1.421875 
Q 22.796875 -1.421875 15.734375 5.859375 
Q 8.6875 13.140625 8.6875 27.390625 
z
" id="DejaVuSans-55"/>
      <path d="M 44.390625 34.1875 
Q 47.5625 33.109375 50.5625 29.59375 
Q 53.5625 26.078125 56.59375 19.921875 
L 66.609375 0 
L 56 0 
L 46.6875 18.703125 
Q 43.0625 26.03125 39.671875 28.421875 
Q 36.28125 30.8125 30.421875 30.8125 
L 19.671875 30.8125 
L 19.671875 0 
L 9.8125 0 
L 9.8125 72.90625 
L 32.078125 72.90625 
Q 44.578125 72.90625 50.734375 67.671875 
Q 56.890625 62.453125 56.890625 51.90625 
Q 56.890625 45.015625 53.6875 40.46875 
Q 50.484375 35.9375 44.390625 34.1875 
z
M 19.671875 64.796875 
L 19.671875 38.921875 
L 32.078125 38.921875 
Q 39.203125 38.921875 42.84375 42.21875 
Q 46.484375 45.515625 46.484375 51.90625 
Q 46.484375 58.296875 42.84375 61.546875 
Q 39.203125 64.796875 32.078125 64.796875 
z
" id="DejaVuSans-52"/>
      <path d="M 19.671875 34.8125 
L 19.671875 8.109375 
L 35.5 8.109375 
Q 43.453125 8.109375 47.28125 11.40625 
Q 51.125 14.703125 51.125 21.484375 
Q 51.125 28.328125 47.28125 31.5625 
Q 43.453125 34.8125 35.5 34.8125 
z
M 19.671875 64.796875 
L 19.671875 42.828125 
L 34.28125 42.828125 
Q 41.5 42.828125 45.03125 45.53125 
Q 48.578125 48.25 48.578125 53.8125 
Q 48.578125 59.328125 45.03125 62.0625 
Q 41.5 64.796875 34.28125 64.796875 
z
M 9.8125 72.90625 
L 35.015625 72.90625 
Q 46.296875 72.90625 52.390625 68.21875 
Q 58.5 63.53125 58.5 54.890625 
Q 58.5 48.1875 55.375 44.234375 
Q 52.25 40.28125 46.1875 39.3125 
Q 53.46875 37.75 57.5 32.78125 
Q 61.53125 27.828125 61.53125 20.40625 
Q 61.53125 10.640625 54.890625 5.3125 
Q 48.25 0 35.984375 0 
L 9.8125 0 
z
" id="DejaVuSans-42"/>
      <path d="M 53.515625 70.515625 
L 53.515625 60.890625 
Q 47.90625 63.578125 42.921875 64.890625 
Q 37.9375 66.21875 33.296875 66.21875 
Q 25.25 66.21875 20.875 63.09375 
Q 16.5 59.96875 16.5 54.203125 
Q 16.5 49.359375 19.40625 46.890625 
Q 22.3125 44.4375 30.421875 42.921875 
L 36.375 41.703125 
Q 47.40625 39.59375 52.65625 34.296875 
Q 57.90625 29 57.90625 20.125 
Q 57.90625 9.515625 50.796875 4.046875 
Q 43.703125 -1.421875 29.984375 -1.421875 
Q 24.8125 -1.421875 18.96875 -0.25 
Q 13.140625 0.921875 6.890625 3.21875 
L 6.890625 13.375 
Q 12.890625 10.015625 18.65625 8.296875 
Q 24.421875 6.59375 29.984375 6.59375 
Q 38.421875 6.59375 43.015625 9.90625 
Q 47.609375 13.234375 47.609375 19.390625 
Q 47.609375 24.75 44.3125 27.78125 
Q 41.015625 30.8125 33.5 32.328125 
L 27.484375 33.5 
Q 16.453125 35.6875 11.515625 40.375 
Q 6.59375 45.0625 6.59375 53.421875 
Q 6.59375 63.09375 13.40625 68.65625 
Q 20.21875 74.21875 32.171875 74.21875 
Q 37.3125 74.21875 42.625 73.28125 
Q 47.953125 72.359375 53.515625 70.515625 
z
" id="DejaVuSans-53"/>
      <path d="M 18.109375 8.203125 
L 18.109375 -20.796875 
L 9.078125 -20.796875 
L 9.078125 54.6875 
L 18.109375 54.6875 
L 18.109375 46.390625 
Q 20.953125 51.265625 25.265625 53.625 
Q 29.59375 56 35.59375 56 
Q 45.5625 56 51.78125 48.09375 
Q 58.015625 40.1875 58.015625 27.296875 
Q 58.015625 14.40625 51.78125 6.484375 
Q 45.5625 -1.421875 35.59375 -1.421875 
Q 29.59375 -1.421875 25.265625 0.953125 
Q 20.953125 3.328125 18.109375 8.203125 
z
M 48.6875 27.296875 
Q 48.6875 37.203125 44.609375 42.84375 
Q 40.53125 48.484375 33.40625 48.484375 
Q 26.265625 48.484375 22.1875 42.84375 
Q 18.109375 37.203125 18.109375 27.296875 
Q 18.109375 17.390625 22.1875 11.75 
Q 26.265625 6.109375 33.40625 6.109375 
Q 40.53125 6.109375 44.609375 11.75 
Q 48.6875 17.390625 48.6875 27.296875 
z
" id="DejaVuSans-70"/>
      <path d="M 54.890625 54.6875 
L 35.109375 28.078125 
L 55.90625 0 
L 45.3125 0 
L 29.390625 21.484375 
L 13.484375 0 
L 2.875 0 
L 24.125 28.609375 
L 4.6875 54.6875 
L 15.28125 54.6875 
L 29.78125 35.203125 
L 44.28125 54.6875 
z
" id="DejaVuSans-78"/>
      <path d="M 52 44.1875 
Q 55.375 50.25 60.0625 53.125 
Q 64.75 56 71.09375 56 
Q 79.640625 56 84.28125 50.015625 
Q 88.921875 44.046875 88.921875 33.015625 
L 88.921875 0 
L 79.890625 0 
L 79.890625 32.71875 
Q 79.890625 40.578125 77.09375 44.375 
Q 74.3125 48.1875 68.609375 48.1875 
Q 61.625 48.1875 57.5625 43.546875 
Q 53.515625 38.921875 53.515625 30.90625 
L 53.515625 0 
L 44.484375 0 
L 44.484375 32.71875 
Q 44.484375 40.625 41.703125 44.40625 
Q 38.921875 48.1875 33.109375 48.1875 
Q 26.21875 48.1875 22.15625 43.53125 
Q 18.109375 38.875 18.109375 30.90625 
L 18.109375 0 
L 9.078125 0 
L 9.078125 54.6875 
L 18.109375 54.6875 
L 18.109375 46.1875 
Q 21.1875 51.21875 25.484375 53.609375 
Q 29.78125 56 35.6875 56 
Q 41.65625 56 45.828125 52.96875 
Q 50 49.953125 52 44.1875 
z
" id="DejaVuSans-6d"/>
      <path d="M 18.3125 70.21875 
L 18.3125 54.6875 
L 36.8125 54.6875 
L 36.8125 47.703125 
L 18.3125 47.703125 
L 18.3125 18.015625 
Q 18.3125 11.328125 20.140625 9.421875 
Q 21.96875 7.515625 27.59375 7.515625 
L 36.8125 7.515625 
L 36.8125 0 
L 27.59375 0 
Q 17.1875 0 13.234375 3.875 
Q 9.28125 7.765625 9.28125 18.015625 
L 9.28125 47.703125 
L 2.6875 47.703125 
L 2.6875 54.6875 
L 9.28125 54.6875 
L 9.28125 70.21875 
z
" id="DejaVuSans-74"/>
     </defs>
     <g transform="translate(294.105938 72.748563)scale(0.1 -0.1)">
      <use xlink:href="#DejaVuSans-4e"/>
      <use x="74.804688" xlink:href="#DejaVuSans-55"/>
      <use x="147.998047" xlink:href="#DejaVuSans-52"/>
      <use x="217.480469" xlink:href="#DejaVuSans-42"/>
      <use x="286.068359" xlink:href="#DejaVuSans-53"/>
      <use x="349.544922" xlink:href="#DejaVuSans-20"/>
      <use x="381.332031" xlink:href="#DejaVuSans-41"/>
      <use x="449.740234" xlink:href="#DejaVuSans-70"/>
      <use x="513.216797" xlink:href="#DejaVuSans-70"/>
      <use x="576.693359" xlink:href="#DejaVuSans-72"/>
      <use x="617.775391" xlink:href="#DejaVuSans-6f"/>
      <use x="678.910156" xlink:href="#DejaVuSans-78"/>
      <use x="738.089844" xlink:href="#DejaVuSans-69"/>
      <use x="765.873047" xlink:href="#DejaVuSans-6d"/>
      <use x="863.285156" xlink:href="#DejaVuSans-61"/>
      <use x="924.564453" xlink:href="#DejaVuSans-74"/>
      <use x="963.773438" xlink:href="#DejaVuSans-69"/>
      <use x="991.556641" xlink:href="#DejaVuSans-6f"/>
      <use x="1052.738281" xlink:href="#DejaVuSans-6e"/>
     </g>
    </g>
    <g id="line2d_24">
     <path d="M 266.105938 83.926688 
L 286.105938 83.926688 
" style="fill:none;opacity:0.5;stroke:#008000;stroke-linecap:square;stroke-width:1.5;"/>
    </g>
    <g id="line2d_25">
     <g>
      <use style="fill:#008000;opacity:0.5;stroke:#008000;" x="276.105938" xlink:href="#m8b8efd1566" y="83.926688"/>
     </g>
    </g>
    <g id="text_18">
     <!-- NURBS Control Points -->
     <defs>
      <path d="M 64.40625 67.28125 
L 64.40625 56.890625 
Q 59.421875 61.53125 53.78125 63.8125 
Q 48.140625 66.109375 41.796875 66.109375 
Q 29.296875 66.109375 22.65625 58.46875 
Q 16.015625 50.828125 16.015625 36.375 
Q 16.015625 21.96875 22.65625 14.328125 
Q 29.296875 6.6875 41.796875 6.6875 
Q 48.140625 6.6875 53.78125 8.984375 
Q 59.421875 11.28125 64.40625 15.921875 
L 64.40625 5.609375 
Q 59.234375 2.09375 53.4375 0.328125 
Q 47.65625 -1.421875 41.21875 -1.421875 
Q 24.65625 -1.421875 15.125 8.703125 
Q 5.609375 18.84375 5.609375 36.375 
Q 5.609375 53.953125 15.125 64.078125 
Q 24.65625 74.21875 41.21875 74.21875 
Q 47.75 74.21875 53.53125 72.484375 
Q 59.328125 70.75 64.40625 67.28125 
z
" id="DejaVuSans-43"/>
      <path d="M 19.671875 64.796875 
L 19.671875 37.40625 
L 32.078125 37.40625 
Q 38.96875 37.40625 42.71875 40.96875 
Q 46.484375 44.53125 46.484375 51.125 
Q 46.484375 57.671875 42.71875 61.234375 
Q 38.96875 64.796875 32.078125 64.796875 
z
M 9.8125 72.90625 
L 32.078125 72.90625 
Q 44.34375 72.90625 50.609375 67.359375 
Q 56.890625 61.8125 56.890625 51.125 
Q 56.890625 40.328125 50.609375 34.8125 
Q 44.34375 29.296875 32.078125 29.296875 
L 19.671875 29.296875 
L 19.671875 0 
L 9.8125 0 
z
" id="DejaVuSans-50"/>
      <path d="M 44.28125 53.078125 
L 44.28125 44.578125 
Q 40.484375 46.53125 36.375 47.5 
Q 32.28125 48.484375 27.875 48.484375 
Q 21.1875 48.484375 17.84375 46.4375 
Q 14.5 44.390625 14.5 40.28125 
Q 14.5 37.15625 16.890625 35.375 
Q 19.28125 33.59375 26.515625 31.984375 
L 29.59375 31.296875 
Q 39.15625 29.25 43.1875 25.515625 
Q 47.21875 21.78125 47.21875 15.09375 
Q 47.21875 7.46875 41.1875 3.015625 
Q 35.15625 -1.421875 24.609375 -1.421875 
Q 20.21875 -1.421875 15.453125 -0.5625 
Q 10.6875 0.296875 5.421875 2 
L 5.421875 11.28125 
Q 10.40625 8.6875 15.234375 7.390625 
Q 20.0625 6.109375 24.8125 6.109375 
Q 31.15625 6.109375 34.5625 8.28125 
Q 37.984375 10.453125 37.984375 14.40625 
Q 37.984375 18.0625 35.515625 20.015625 
Q 33.0625 21.96875 24.703125 23.78125 
L 21.578125 24.515625 
Q 13.234375 26.265625 9.515625 29.90625 
Q 5.8125 33.546875 5.8125 39.890625 
Q 5.8125 47.609375 11.28125 51.796875 
Q 16.75 56 26.8125 56 
Q 31.78125 56 36.171875 55.265625 
Q 40.578125 54.546875 44.28125 53.078125 
z
" id="DejaVuSans-73"/>
     </defs>
     <g transform="translate(294.105938 87.426688)scale(0.1 -0.1)">
      <use xlink:href="#DejaVuSans-4e"/>
      <use x="74.804688" xlink:href="#DejaVuSans-55"/>
      <use x="147.998047" xlink:href="#DejaVuSans-52"/>
      <use x="217.480469" xlink:href="#DejaVuSans-42"/>
      <use x="286.068359" xlink:href="#DejaVuSans-53"/>
      <use x="349.544922" xlink:href="#DejaVuSans-20"/>
      <use x="381.332031" xlink:href="#DejaVuSans-43"/>
      <use x="451.15625" xlink:href="#DejaVuSans-6f"/>
      <use x="512.337891" xlink:href="#DejaVuSans-6e"/>
      <use x="575.716797" xlink:href="#DejaVuSans-74"/>
      <use x="614.925781" xlink:href="#DejaVuSans-72"/>
      <use x="656.007812" xlink:href="#DejaVuSans-6f"/>
      <use x="717.189453" xlink:href="#DejaVuSans-6c"/>
      <use x="744.972656" xlink:href="#DejaVuSans-20"/>
      <use x="776.759766" xlink:href="#DejaVuSans-50"/>
      <use x="837.015625" xlink:href="#DejaVuSans-6f"/>
      <use x="898.197266" xlink:href="#DejaVuSans-69"/>
      <use x="925.980469" xlink:href="#DejaVuSans-6e"/>
      <use x="989.359375" xlink:href="#DejaVuSans-74"/>
      <use x="1028.568359" xlink:href="#DejaVuSans-73"/>
     </g>
    </g>
   </g>
  </g>
 </g>
 <defs>
  <clipPath id="p197aa2737f">
   <rect height="266.112" width="357.12" x="57.6" y="41.472"/>
  </clipPath>
 </defs>
</svg>
