<?xml version="1.0" encoding="utf-8" standalone="no"?>
<!DOCTYPE svg PUBLIC "-//W3C//DTD SVG 1.1//EN"
  "http://www.w3.org/Graphics/SVG/1.1/DTD/svg11.dtd">
<!-- Created with matplotlib (http://matplotlib.org/) -->
<svg height="345.6pt" version="1.1" viewBox="0 0 460.8 345.6" width="460.8pt" xmlns="http://www.w3.org/2000/svg" xmlns:xlink="http://www.w3.org/1999/xlink">
 <defs>
  <style type="text/css">
*{stroke-linecap:butt;stroke-linejoin:round;}
  </style>
 </defs>
 <g id="figure_1">
  <g id="patch_1">
   <path d="M 0 345.6 
L 460.8 345.6 
L 460.8 0 
L 0 0 
z
" style="fill:#ffffff;"/>
  </g>
  <g id="axes_1">
   <g id="patch_2">
    <path d="M 57.6 307.584 
L 414.72 307.584 
L 414.72 41.472 
L 57.6 41.472 
z
" style="fill:#ffffff;"/>
   </g>
   <g id="matplotlib.axis_1">
    <g id="xtick_1">
     <g id="line2d_1">
      <defs>
       <path d="M 0 0 
L 0 3.5 
" id="m92da32b463" style="stroke:#000000;stroke-width:0.8;"/>
      </defs>
      <g>
       <use style="stroke:#000000;stroke-width:0.8;" x="74.98706" xlink:href="#m92da32b463" y="307.584"/>
      </g>
     </g>
     <g id="text_1">
      <!-- 0.0 -->
      <defs>
       <path d="M 31.78125 66.40625 
Q 24.171875 66.40625 20.328125 58.90625 
Q 16.5 51.421875 16.5 36.375 
Q 16.5 21.390625 20.328125 13.890625 
Q 24.171875 6.390625 31.78125 6.390625 
Q 39.453125 6.390625 43.28125 13.890625 
Q 47.125 21.390625 47.125 36.375 
Q 47.125 51.421875 43.28125 58.90625 
Q 39.453125 66.40625 31.78125 66.40625 
z
M 31.78125 74.21875 
Q 44.046875 74.21875 50.515625 64.515625 
Q 56.984375 54.828125 56.984375 36.375 
Q 56.984375 17.96875 50.515625 8.265625 
Q 44.046875 -1.421875 31.78125 -1.421875 
Q 19.53125 -1.421875 13.0625 8.265625 
Q 6.59375 17.96875 6.59375 36.375 
Q 6.59375 54.828125 13.0625 64.515625 
Q 19.53125 74.21875 31.78125 74.21875 
z
" id="DejaVuSans-30"/>
       <path d="M 10.6875 12.40625 
L 21 12.40625 
L 21 0 
L 10.6875 0 
z
" id="DejaVuSans-2e"/>
      </defs>
      <g transform="translate(67.035497 322.182437)scale(0.1 -0.1)">
       <use xlink:href="#DejaVuSans-30"/>
       <use x="63.623047" xlink:href="#DejaVuSans-2e"/>
       <use x="95.410156" xlink:href="#DejaVuSans-30"/>
      </g>
     </g>
    </g>
    <g id="xtick_2">
     <g id="line2d_2">
      <g>
       <use style="stroke:#000000;stroke-width:0.8;" x="140.295863" xlink:href="#m92da32b463" y="307.584"/>
      </g>
     </g>
     <g id="text_2">
      <!-- 0.2 -->
      <defs>
       <path d="M 19.1875 8.296875 
L 53.609375 8.296875 
L 53.609375 0 
L 7.328125 0 
L 7.328125 8.296875 
Q 12.9375 14.109375 22.625 23.890625 
Q 32.328125 33.6875 34.8125 36.53125 
Q 39.546875 41.84375 41.421875 45.53125 
Q 43.3125 49.21875 43.3125 52.78125 
Q 43.3125 58.59375 39.234375 62.25 
Q 35.15625 65.921875 28.609375 65.921875 
Q 23.96875 65.921875 18.8125 64.3125 
Q 13.671875 62.703125 7.8125 59.421875 
L 7.8125 69.390625 
Q 13.765625 71.78125 18.9375 73 
Q 24.125 74.21875 28.421875 74.21875 
Q 39.75 74.21875 46.484375 68.546875 
Q 53.21875 62.890625 53.21875 53.421875 
Q 53.21875 48.921875 51.53125 44.890625 
Q 49.859375 40.875 45.40625 35.40625 
Q 44.1875 33.984375 37.640625 27.21875 
Q 31.109375 20.453125 19.1875 8.296875 
z
" id="DejaVuSans-32"/>
      </defs>
      <g transform="translate(132.344301 322.182437)scale(0.1 -0.1)">
       <use xlink:href="#DejaVuSans-30"/>
       <use x="63.623047" xlink:href="#DejaVuSans-2e"/>
       <use x="95.410156" xlink:href="#DejaVuSans-32"/>
      </g>
     </g>
    </g>
    <g id="xtick_3">
     <g id="line2d_3">
      <g>
       <use style="stroke:#000000;stroke-width:0.8;" x="205.604667" xlink:href="#m92da32b463" y="307.584"/>
      </g>
     </g>
     <g id="text_3">
      <!-- 0.4 -->
      <defs>
       <path d="M 37.796875 64.3125 
L 12.890625 25.390625 
L 37.796875 25.390625 
z
M 35.203125 72.90625 
L 47.609375 72.90625 
L 47.609375 25.390625 
L 58.015625 25.390625 
L 58.015625 17.1875 
L 47.609375 17.1875 
L 47.609375 0 
L 37.796875 0 
L 37.796875 17.1875 
L 4.890625 17.1875 
L 4.890625 26.703125 
z
" id="DejaVuSans-34"/>
      </defs>
      <g transform="translate(197.653105 322.182437)scale(0.1 -0.1)">
       <use xlink:href="#DejaVuSans-30"/>
       <use x="63.623047" xlink:href="#DejaVuSans-2e"/>
       <use x="95.410156" xlink:href="#DejaVuSans-34"/>
      </g>
     </g>
    </g>
    <g id="xtick_4">
     <g id="line2d_4">
      <g>
       <use style="stroke:#000000;stroke-width:0.8;" x="270.913471" xlink:href="#m92da32b463" y="307.584"/>
      </g>
     </g>
     <g id="text_4">
      <!-- 0.6 -->
      <defs>
       <path d="M 33.015625 40.375 
Q 26.375 40.375 22.484375 35.828125 
Q 18.609375 31.296875 18.609375 23.390625 
Q 18.609375 15.53125 22.484375 10.953125 
Q 26.375 6.390625 33.015625 6.390625 
Q 39.65625 6.390625 43.53125 10.953125 
Q 47.40625 15.53125 47.40625 23.390625 
Q 47.40625 31.296875 43.53125 35.828125 
Q 39.65625 40.375 33.015625 40.375 
z
M 52.59375 71.296875 
L 52.59375 62.3125 
Q 48.875 64.0625 45.09375 64.984375 
Q 41.3125 65.921875 37.59375 65.921875 
Q 27.828125 65.921875 22.671875 59.328125 
Q 17.53125 52.734375 16.796875 39.40625 
Q 19.671875 43.65625 24.015625 45.921875 
Q 28.375 48.1875 33.59375 48.1875 
Q 44.578125 48.1875 50.953125 41.515625 
Q 57.328125 34.859375 57.328125 23.390625 
Q 57.328125 12.15625 50.6875 5.359375 
Q 44.046875 -1.421875 33.015625 -1.421875 
Q 20.359375 -1.421875 13.671875 8.265625 
Q 6.984375 17.96875 6.984375 36.375 
Q 6.984375 53.65625 15.1875 63.9375 
Q 23.390625 74.21875 37.203125 74.21875 
Q 40.921875 74.21875 44.703125 73.484375 
Q 48.484375 72.75 52.59375 71.296875 
z
" id="DejaVuSans-36"/>
      </defs>
      <g transform="translate(262.961908 322.182437)scale(0.1 -0.1)">
       <use xlink:href="#DejaVuSans-30"/>
       <use x="63.623047" xlink:href="#DejaVuSans-2e"/>
       <use x="95.410156" xlink:href="#DejaVuSans-36"/>
      </g>
     </g>
    </g>
    <g id="xtick_5">
     <g id="line2d_5">
      <g>
       <use style="stroke:#000000;stroke-width:0.8;" x="336.222275" xlink:href="#m92da32b463" y="307.584"/>
      </g>
     </g>
     <g id="text_5">
      <!-- 0.8 -->
      <defs>
       <path d="M 31.78125 34.625 
Q 24.75 34.625 20.71875 30.859375 
Q 16.703125 27.09375 16.703125 20.515625 
Q 16.703125 13.921875 20.71875 10.15625 
Q 24.75 6.390625 31.78125 6.390625 
Q 38.8125 6.390625 42.859375 10.171875 
Q 46.921875 13.96875 46.921875 20.515625 
Q 46.921875 27.09375 42.890625 30.859375 
Q 38.875 34.625 31.78125 34.625 
z
M 21.921875 38.8125 
Q 15.578125 40.375 12.03125 44.71875 
Q 8.5 49.078125 8.5 55.328125 
Q 8.5 64.0625 14.71875 69.140625 
Q 20.953125 74.21875 31.78125 74.21875 
Q 42.671875 74.21875 48.875 69.140625 
Q 55.078125 64.0625 55.078125 55.328125 
Q 55.078125 49.078125 51.53125 44.71875 
Q 48 40.375 41.703125 38.8125 
Q 48.828125 37.15625 52.796875 32.3125 
Q 56.78125 27.484375 56.78125 20.515625 
Q 56.78125 9.90625 50.3125 4.234375 
Q 43.84375 -1.421875 31.78125 -1.421875 
Q 19.734375 -1.421875 13.25 4.234375 
Q 6.78125 9.90625 6.78125 20.515625 
Q 6.78125 27.484375 10.78125 32.3125 
Q 14.796875 37.15625 21.921875 38.8125 
z
M 18.3125 54.390625 
Q 18.3125 48.734375 21.84375 45.5625 
Q 25.390625 42.390625 31.78125 42.390625 
Q 38.140625 42.390625 41.71875 45.5625 
Q 45.3125 48.734375 45.3125 54.390625 
Q 45.3125 60.0625 41.71875 63.234375 
Q 38.140625 66.40625 31.78125 66.40625 
Q 25.390625 66.40625 21.84375 63.234375 
Q 18.3125 60.0625 18.3125 54.390625 
z
" id="DejaVuSans-38"/>
      </defs>
      <g transform="translate(328.270712 322.182437)scale(0.1 -0.1)">
       <use xlink:href="#DejaVuSans-30"/>
       <use x="63.623047" xlink:href="#DejaVuSans-2e"/>
       <use x="95.410156" xlink:href="#DejaVuSans-38"/>
      </g>
     </g>
    </g>
    <g id="xtick_6">
     <g id="line2d_6">
      <g>
       <use style="stroke:#000000;stroke-width:0.8;" x="401.531078" xlink:href="#m92da32b463" y="307.584"/>
      </g>
     </g>
     <g id="text_6">
      <!-- 1.0 -->
      <defs>
       <path d="M 12.40625 8.296875 
L 28.515625 8.296875 
L 28.515625 63.921875 
L 10.984375 60.40625 
L 10.984375 69.390625 
L 28.421875 72.90625 
L 38.28125 72.90625 
L 38.28125 8.296875 
L 54.390625 8.296875 
L 54.390625 0 
L 12.40625 0 
z
" id="DejaVuSans-31"/>
      </defs>
      <g transform="translate(393.579516 322.182437)scale(0.1 -0.1)">
       <use xlink:href="#DejaVuSans-31"/>
       <use x="63.623047" xlink:href="#DejaVuSans-2e"/>
       <use x="95.410156" xlink:href="#DejaVuSans-30"/>
      </g>
     </g>
    </g>
   </g>
   <g id="matplotlib.axis_2">
    <g id="ytick_1">
     <g id="line2d_7">
      <defs>
       <path d="M 0 0 
L -3.5 0 
" id="mb09035b039" style="stroke:#000000;stroke-width:0.8;"/>
      </defs>
      <g>
       <use style="stroke:#000000;stroke-width:0.8;" x="57.6" xlink:href="#mb09035b039" y="291.853858"/>
      </g>
     </g>
     <g id="text_7">
      <!-- −0.3 -->
      <defs>
       <path d="M 10.59375 35.5 
L 73.1875 35.5 
L 73.1875 27.203125 
L 10.59375 27.203125 
z
" id="DejaVuSans-2212"/>
       <path d="M 40.578125 39.3125 
Q 47.65625 37.796875 51.625 33 
Q 55.609375 28.21875 55.609375 21.1875 
Q 55.609375 10.40625 48.1875 4.484375 
Q 40.765625 -1.421875 27.09375 -1.421875 
Q 22.515625 -1.421875 17.65625 -0.515625 
Q 12.796875 0.390625 7.625 2.203125 
L 7.625 11.71875 
Q 11.71875 9.328125 16.59375 8.109375 
Q 21.484375 6.890625 26.8125 6.890625 
Q 36.078125 6.890625 40.9375 10.546875 
Q 45.796875 14.203125 45.796875 21.1875 
Q 45.796875 27.640625 41.28125 31.265625 
Q 36.765625 34.90625 28.71875 34.90625 
L 20.21875 34.90625 
L 20.21875 43.015625 
L 29.109375 43.015625 
Q 36.375 43.015625 40.234375 45.921875 
Q 44.09375 48.828125 44.09375 54.296875 
Q 44.09375 59.90625 40.109375 62.90625 
Q 36.140625 65.921875 28.71875 65.921875 
Q 24.65625 65.921875 20.015625 65.03125 
Q 15.375 64.15625 9.8125 62.3125 
L 9.8125 71.09375 
Q 15.4375 72.65625 20.34375 73.4375 
Q 25.25 74.21875 29.59375 74.21875 
Q 40.828125 74.21875 47.359375 69.109375 
Q 53.90625 64.015625 53.90625 55.328125 
Q 53.90625 49.265625 50.4375 45.09375 
Q 46.96875 40.921875 40.578125 39.3125 
z
" id="DejaVuSans-33"/>
      </defs>
      <g transform="translate(26.317187 295.653077)scale(0.1 -0.1)">
       <use xlink:href="#DejaVuSans-2212"/>
       <use x="83.789062" xlink:href="#DejaVuSans-30"/>
       <use x="147.412109" xlink:href="#DejaVuSans-2e"/>
       <use x="179.199219" xlink:href="#DejaVuSans-33"/>
      </g>
     </g>
    </g>
    <g id="ytick_2">
     <g id="line2d_8">
      <g>
       <use style="stroke:#000000;stroke-width:0.8;" x="57.6" xlink:href="#mb09035b039" y="259.199456"/>
      </g>
     </g>
     <g id="text_8">
      <!-- −0.2 -->
      <g transform="translate(26.317187 262.998675)scale(0.1 -0.1)">
       <use xlink:href="#DejaVuSans-2212"/>
       <use x="83.789062" xlink:href="#DejaVuSans-30"/>
       <use x="147.412109" xlink:href="#DejaVuSans-2e"/>
       <use x="179.199219" xlink:href="#DejaVuSans-32"/>
      </g>
     </g>
    </g>
    <g id="ytick_3">
     <g id="line2d_9">
      <g>
       <use style="stroke:#000000;stroke-width:0.8;" x="57.6" xlink:href="#mb09035b039" y="226.545054"/>
      </g>
     </g>
     <g id="text_9">
      <!-- −0.1 -->
      <g transform="translate(26.317187 230.344273)scale(0.1 -0.1)">
       <use xlink:href="#DejaVuSans-2212"/>
       <use x="83.789062" xlink:href="#DejaVuSans-30"/>
       <use x="147.412109" xlink:href="#DejaVuSans-2e"/>
       <use x="179.199219" xlink:href="#DejaVuSans-31"/>
      </g>
     </g>
    </g>
    <g id="ytick_4">
     <g id="line2d_10">
      <g>
       <use style="stroke:#000000;stroke-width:0.8;" x="57.6" xlink:href="#mb09035b039" y="193.890652"/>
      </g>
     </g>
     <g id="text_10">
      <!-- 0.0 -->
      <g transform="translate(34.696875 197.689871)scale(0.1 -0.1)">
       <use xlink:href="#DejaVuSans-30"/>
       <use x="63.623047" xlink:href="#DejaVuSans-2e"/>
       <use x="95.410156" xlink:href="#DejaVuSans-30"/>
      </g>
     </g>
    </g>
    <g id="ytick_5">
     <g id="line2d_11">
      <g>
       <use style="stroke:#000000;stroke-width:0.8;" x="57.6" xlink:href="#mb09035b039" y="161.23625"/>
      </g>
     </g>
     <g id="text_11">
      <!-- 0.1 -->
      <g transform="translate(34.696875 165.035469)scale(0.1 -0.1)">
       <use xlink:href="#DejaVuSans-30"/>
       <use x="63.623047" xlink:href="#DejaVuSans-2e"/>
       <use x="95.410156" xlink:href="#DejaVuSans-31"/>
      </g>
     </g>
    </g>
    <g id="ytick_6">
     <g id="line2d_12">
      <g>
       <use style="stroke:#000000;stroke-width:0.8;" x="57.6" xlink:href="#mb09035b039" y="128.581848"/>
      </g>
     </g>
     <g id="text_12">
      <!-- 0.2 -->
      <g transform="translate(34.696875 132.381067)scale(0.1 -0.1)">
       <use xlink:href="#DejaVuSans-30"/>
       <use x="63.623047" xlink:href="#DejaVuSans-2e"/>
       <use x="95.410156" xlink:href="#DejaVuSans-32"/>
      </g>
     </g>
    </g>
    <g id="ytick_7">
     <g id="line2d_13">
      <g>
       <use style="stroke:#000000;stroke-width:0.8;" x="57.6" xlink:href="#mb09035b039" y="95.927447"/>
      </g>
     </g>
     <g id="text_13">
      <!-- 0.3 -->
      <g transform="translate(34.696875 99.726665)scale(0.1 -0.1)">
       <use xlink:href="#DejaVuSans-30"/>
       <use x="63.623047" xlink:href="#DejaVuSans-2e"/>
       <use x="95.410156" xlink:href="#DejaVuSans-33"/>
      </g>
     </g>
    </g>
    <g id="ytick_8">
     <g id="line2d_14">
      <g>
       <use style="stroke:#000000;stroke-width:0.8;" x="57.6" xlink:href="#mb09035b039" y="63.273045"/>
      </g>
     </g>
     <g id="text_14">
      <!-- 0.4 -->
      <g transform="translate(34.696875 67.072263)scale(0.1 -0.1)">
       <use xlink:href="#DejaVuSans-30"/>
       <use x="63.623047" xlink:href="#DejaVuSans-2e"/>
       <use x="95.410156" xlink:href="#DejaVuSans-34"/>
      </g>
     </g>
    </g>
   </g>
   <g id="line2d_15">
    <path clip-path="url(#pdd41f91b70)" d="M 398.487273 192.785226 
L 396.237073 192.003749 
L 366.747649 179.817721 
L 354.532662 175.093711 
L 341.889322 170.475614 
L 328.34626 165.868954 
L 320.198569 163.284785 
L 313.045173 161.142779 
L 303.913386 158.594498 
L 292.858834 155.814148 
L 283.46283 153.737152 
L 275.151626 152.136064 
L 266.839565 150.768517 
L 261.091145 149.963632 
L 252.990011 149.027056 
L 246.096589 148.410499 
L 237.825781 147.881777 
L 229.745415 147.573183 
L 219.132511 147.446246 
L 211.649266 147.521444 
L 201.153591 147.820958 
L 190.334159 148.340363 
L 176.767488 149.312425 
L 166.597049 150.366279 
L 159.302318 151.382378 
L 151.66099 152.777305 
L 148.032855 153.589426 
L 141.900351 155.228548 
L 138.533923 156.290199 
L 135.332535 157.418566 
L 130.197391 159.492961 
L 123.306904 162.844366 
L 119.832915 164.806021 
L 113.404779 168.970927 
L 110.275288 171.275145 
L 107.225796 173.715437 
L 103.65974 176.843493 
L 99.84212 180.581805 
L 96.042837 184.831255 
L 94.204438 187.159751 
L 91.749009 190.739125 
L 90.221562 193.511966 
L 89.235044 196.02105 
L 88.882999 197.849428 
L 89.464717 200.361778 
L 90.590853 201.271342 
L 91.666804 201.590196 
L 93.261329 201.612808 
L 94.785016 201.300955 
L 96.450058 200.670826 
L 98.226057 199.718048 
L 101.188462 197.605663 
L 103.888322 195.261385 
L 110.649039 188.579412 
L 114.36577 184.842741 
L 119.719229 179.738909 
L 123.829948 176.151222 
L 128.526563 172.461436 
L 131.695563 170.229272 
L 134.437966 168.466084 
L 138.176645 166.31083 
L 142.531627 164.15065 
L 146.736798 162.403997 
L 148.880561 161.634226 
L 151.87037 160.688161 
L 154.88569 159.874907 
L 160.312777 158.732445 
L 163.14444 158.282589 
L 166.614215 157.851586 
L 173.548608 157.332107 
L 175.710472 157.25098 
L 182.6062 157.208628 
L 185.796245 157.287995 
L 195.371567 157.843735 
L 205.818564 158.906617 
L 216.724063 160.422051 
L 223.597603 161.548464 
L 238.826276 164.400389 
L 251.926931 167.135457 
L 268.942095 170.925828 
L 301.357375 178.465413 
L 333.137483 185.796573 
L 351.302026 189.775325 
L 365.624253 192.697455 
L 377.130222 194.812985 
L 382.996222 195.762593 
L 390.283546 196.733888 
L 394.277328 197.092279 
L 398.021199 197.166737 
L 398.239405 197.154268 
L 398.239405 197.154268 
" style="fill:none;stroke:#000000;stroke-linecap:square;stroke-opacity:0.1;stroke-width:1.5;"/>
   </g>
   <g id="line2d_16">
    <path clip-path="url(#pdd41f91b70)" d="M 396.951872 194.058929 
L 395.418456 192.955989 
L 389.867649 189.491074 
L 382.618648 185.571935 
L 373.760168 181.299593 
L 364.140236 177.113694 
L 355.02546 173.496312 
L 347.885552 170.869858 
L 337.895832 167.47449 
L 328.633678 164.601472 
L 318.331276 161.705511 
L 309.281021 159.418304 
L 298.267168 156.959512 
L 288.862386 155.146125 
L 281.92558 153.980996 
L 272.200836 152.599579 
L 263.100833 151.57911 
L 254.727774 150.876793 
L 245.673471 150.374492 
L 234.879089 150.121763 
L 225.569619 150.196591 
L 215.937152 150.54255 
L 208.761996 150.964734 
L 197.939197 151.842914 
L 189.169558 152.748893 
L 180.371766 153.8205 
L 168.249192 155.559353 
L 159.618396 156.99177 
L 151.14473 158.573394 
L 141.048417 160.720366 
L 132.798874 162.726812 
L 126.089898 164.559876 
L 118.429526 166.920431 
L 114.487789 168.267388 
L 106.199747 171.465306 
L 102.912226 172.90135 
L 99.466576 174.533599 
L 94.509615 177.162573 
L 89.669441 180.152529 
L 86.756721 182.229545 
L 84.651921 183.906913 
L 82.466825 185.856516 
L 80.857122 187.474736 
L 78.973321 189.656981 
L 77.643624 191.51568 
L 76.564218 193.638937 
L 76.455397 194.684721 
L 76.736803 195.160083 
L 77.399887 195.509296 
L 78.562042 195.742964 
L 81.463853 195.95163 
L 90.215538 196.221598 
L 103.745066 196.470868 
L 114.543895 196.457414 
L 123.821369 196.246418 
L 134.316762 195.751956 
L 142.580383 195.152372 
L 151.218025 194.311773 
L 159.91975 193.230904 
L 169.544568 191.751493 
L 175.356829 190.713493 
L 185.542644 188.64621 
L 196.252555 186.183954 
L 235.939803 176.547925 
L 245.326203 174.659195 
L 251.365408 173.592745 
L 258.587413 172.486517 
L 263.250741 171.875252 
L 274.256887 170.766227 
L 282.343034 170.25636 
L 284.949786 170.147457 
L 295.229416 169.981065 
L 300.209844 170.050567 
L 310.038679 170.472376 
L 319.073615 171.190474 
L 327.044285 172.085351 
L 333.447595 172.982319 
L 339.93238 174.054394 
L 348.610316 175.753716 
L 358.169094 177.995791 
L 363.271169 179.364839 
L 369.312127 181.158935 
L 373.637061 182.573159 
L 378.0874 184.1603 
L 384.589565 186.783105 
L 390.212835 189.483488 
L 393.506981 191.401571 
L 395.098573 192.500934 
L 396.406036 193.566914 
L 397.529491 194.735611 
L 397.529491 194.735611 
" style="fill:none;stroke:#000000;stroke-linecap:square;stroke-opacity:0.1;stroke-width:1.5;"/>
   </g>
   <g id="line2d_17">
    <path clip-path="url(#pdd41f91b70)" d="M 398.203592 193.313246 
L 396.825106 192.286849 
L 392.611658 189.65088 
L 385.035183 185.618067 
L 376.462389 181.577178 
L 367.279802 177.655958 
L 363.293085 176.060322 
L 352.308311 171.95461 
L 345.956949 169.759976 
L 335.661553 166.462972 
L 326.317906 163.74002 
L 318.299394 161.604461 
L 310.415026 159.686356 
L 300.729462 157.580593 
L 291.246455 155.79366 
L 283.429041 154.531926 
L 274.736994 153.36137 
L 265.998156 152.439525 
L 256.967813 151.763668 
L 248.272282 151.383385 
L 236.464317 151.290602 
L 227.893391 151.518506 
L 219.675553 151.954114 
L 210.290302 152.686338 
L 200.786071 153.650822 
L 191.582687 154.768871 
L 178.463911 156.636502 
L 166.965211 158.527071 
L 157.918587 160.194539 
L 148.56658 162.113243 
L 138.31251 164.494831 
L 135.166827 165.294731 
L 127.089273 167.526924 
L 119.186682 170.006273 
L 115.241568 171.376421 
L 107.102414 174.549117 
L 103.235486 176.254716 
L 99.525231 178.039618 
L 94.530897 180.722711 
L 89.012398 184.176532 
L 85.750654 186.544905 
L 83.42653 188.429703 
L 80.009861 191.591146 
L 77.757248 194.042526 
L 77.304651 194.793838 
L 77.427431 194.986694 
L 77.864886 195.062931 
L 80.361048 195.020776 
L 88.20203 194.97853 
L 105.453517 195.047201 
L 116.404568 194.848134 
L 127.47762 194.355717 
L 133.028504 193.982845 
L 144.917132 192.865629 
L 152.984321 191.833217 
L 160.893715 190.5803 
L 165.700451 189.692896 
L 175.793727 187.497135 
L 181.557611 186.034712 
L 191.832638 183.07032 
L 202.388163 179.665988 
L 218.311938 174.450389 
L 225.900159 172.199271 
L 228.040905 171.609609 
L 238.236355 169.121565 
L 245.072476 167.770282 
L 252.572051 166.587952 
L 256.508123 166.091668 
L 264.273375 165.356253 
L 268.690762 165.077591 
L 279.612241 164.800255 
L 287.477886 164.942397 
L 290.140634 165.051756 
L 300.95265 165.796847 
L 305.31332 166.228161 
L 314.677424 167.394706 
L 323.267872 168.741333 
L 331.440184 170.258742 
L 340.94464 172.307275 
L 350.748425 174.740948 
L 359.737875 177.269931 
L 366.227467 179.28691 
L 375.062649 182.329724 
L 380.79871 184.529929 
L 386.520932 186.967644 
L 391.438201 189.365521 
L 395.14295 191.539499 
L 397.347897 193.230428 
L 398.195281 194.135715 
L 398.195281 194.135715 
" style="fill:none;stroke:#000000;stroke-linecap:square;stroke-opacity:0.1;stroke-width:1.5;"/>
   </g>
   <g id="line2d_18">
    <path clip-path="url(#pdd41f91b70)" d="M 397.94786 193.148517 
L 396.525173 192.152817 
L 391.916343 189.402951 
L 384.478876 185.5927 
L 375.838544 181.664543 
L 366.601576 177.871254 
L 357.661991 174.519728 
L 348.392811 171.333501 
L 341.452385 169.125127 
L 330.343881 165.890136 
L 322.907718 163.925121 
L 317.489147 162.593547 
L 305.581567 159.965196 
L 295.722641 158.103467 
L 289.135634 157.022165 
L 279.254929 155.65125 
L 270.808434 154.72501 
L 262.181726 154.019378 
L 252.934286 153.53823 
L 247.923087 153.397404 
L 235.961671 153.398499 
L 227.402589 153.680783 
L 218.7828 154.184507 
L 209.515089 154.944906 
L 200.368607 155.88436 
L 185.573893 157.716217 
L 172.772752 159.545077 
L 157.279511 162.040386 
L 144.86859 164.320104 
L 137.417985 165.855425 
L 134.088022 166.593047 
L 125.835247 168.58994 
L 117.683683 170.858472 
L 113.754325 172.085215 
L 108.785738 173.789984 
L 105.045498 175.207784 
L 100.905683 176.940119 
L 97.032322 178.749563 
L 92.2357 181.312754 
L 87.357787 184.417579 
L 84.288389 186.736105 
L 82.24403 188.497891 
L 79.145263 191.631938 
L 77.029379 194.2337 
L 76.629826 194.945374 
L 76.766458 195.076856 
L 77.508529 195.021174 
L 81.19193 194.628507 
L 86.942638 194.380854 
L 122.195229 193.727916 
L 131.675895 193.201725 
L 143.197771 192.228855 
L 151.067114 191.321038 
L 158.843553 190.204347 
L 168.67884 188.447186 
L 176.21776 186.822961 
L 184.659097 184.721714 
L 189.372476 183.431903 
L 200.208033 180.247078 
L 216.676183 175.357131 
L 226.536558 172.756342 
L 237.524836 170.346401 
L 244.670768 169.090034 
L 252.423466 168.010771 
L 256.424021 167.568058 
L 264.330014 166.915524 
L 268.832787 166.671874 
L 280.305552 166.449603 
L 288.25271 166.612887 
L 290.862537 166.720243 
L 302.110264 167.472096 
L 306.503477 167.888377 
L 315.968382 169.00837 
L 324.70467 170.30353 
L 333.064786 171.771307 
L 342.469608 173.686685 
L 351.64729 175.829186 
L 360.234234 178.090158 
L 366.482206 179.904296 
L 375.171878 182.699815 
L 380.782127 184.71022 
L 386.659513 187.05364 
L 391.651269 189.343059 
L 395.315611 191.37676 
L 397.48599 192.96849 
L 398.320859 193.844958 
L 398.320859 193.844958 
" style="fill:none;stroke:#000000;stroke-linecap:square;stroke-opacity:0.1;stroke-width:1.5;"/>
   </g>
   <g id="line2d_19">
    <path clip-path="url(#pdd41f91b70)" d="M 395.97887 193.626049 
L 393.97576 192.464103 
L 387.902338 189.339018 
L 380.140842 185.798468 
L 370.351013 181.757548 
L 359.76744 177.781687 
L 350.022376 174.421217 
L 342.614903 172.041074 
L 332.025784 168.885387 
L 322.373464 166.2548 
L 312.34758 163.768821 
L 303.015104 161.682892 
L 291.760254 159.467595 
L 282.267243 157.863659 
L 275.490817 156.872502 
L 266.339839 155.744833 
L 257.58615 154.900242 
L 249.625562 154.336403 
L 240.980598 153.947672 
L 230.488426 153.787169 
L 221.906299 153.901646 
L 212.024056 154.288948 
L 205.440591 154.685423 
L 195.393395 155.479175 
L 183.742413 156.648056 
L 171.883453 158.080015 
L 158.535347 159.982659 
L 145.980337 162.102686 
L 140.347667 163.183319 
L 132.032249 164.96144 
L 125.577019 166.522669 
L 117.762345 168.67566 
L 113.84713 169.884893 
L 105.494964 172.831277 
L 102.042794 174.227623 
L 98.440112 175.823681 
L 93.332679 178.386087 
L 88.61241 181.165784 
L 85.687782 183.159547 
L 83.566453 184.780868 
L 81.392536 186.645008 
L 79.903172 188.079564 
L 78.066937 190.103218 
L 76.770751 191.810418 
L 75.687143 193.763564 
L 75.549151 194.668655 
L 75.758982 195.041536 
L 76.312131 195.302031 
L 77.28139 195.422739 
L 79.90293 195.393614 
L 117.377298 193.649026 
L 131.915195 192.665834 
L 144.607306 191.528995 
L 156.645418 190.165919 
L 168.780225 188.482731 
L 179.899288 186.665928 
L 192.944181 184.248566 
L 227.296074 177.518948 
L 237.847036 175.737799 
L 248.857239 174.174029 
L 256.351189 173.309545 
L 260.739867 172.883955 
L 270.9831 172.131777 
L 281.518617 171.718264 
L 293.841607 171.701367 
L 301.907298 171.961101 
L 310.374444 172.461956 
L 318.283045 173.13939 
L 327.019897 174.122711 
L 336.977892 175.546773 
L 345.881158 177.100738 
L 355.704757 179.140138 
L 364.453579 181.271252 
L 371.820296 183.331539 
L 376.381654 184.752816 
L 383.135872 187.121262 
L 388.895017 189.505513 
L 392.371069 191.23469 
L 394.062607 192.22821 
L 395.444985 193.183584 
L 396.592341 194.185268 
L 396.592341 194.185268 
" style="fill:none;stroke:#000000;stroke-linecap:square;stroke-opacity:0.1;stroke-width:1.5;"/>
   </g>
   <g id="line2d_20">
    <path clip-path="url(#pdd41f91b70)" d="M 397.766304 193.444506 
L 396.352434 192.484454 
L 391.805615 189.79927 
L 384.828578 186.226284 
L 376.335934 182.362861 
L 367.255356 178.642064 
L 358.368848 175.328315 
L 351.917366 173.100316 
L 342.301112 170.033561 
L 333.59762 167.505931 
L 324.399774 165.081861 
L 316.424939 163.182616 
L 305.048675 160.799254 
L 295.430571 159.087616 
L 288.693754 158.058036 
L 279.359857 156.868176 
L 270.99252 156.041253 
L 262.726394 155.45252 
L 253.654243 155.07204 
L 249.162291 154.987147 
L 237.914817 155.072081 
L 229.122095 155.424588 
L 220.523424 155.994388 
L 211.13757 156.842621 
L 202.138456 157.844356 
L 187.565763 159.771516 
L 175.017336 161.659952 
L 160.057854 164.145543 
L 147.557351 166.444574 
L 136.147206 168.783556 
L 123.144427 171.852227 
L 115.48395 173.942274 
L 106.184541 176.878934 
L 102.005534 178.388225 
L 98.036818 179.964245 
L 92.784016 182.326397 
L 87.56932 185.109078 
L 84.516349 187.039636 
L 82.51192 188.48614 
L 79.321939 191.251209 
L 77.976173 192.712259 
L 76.838191 194.377729 
L 76.747714 194.699332 
L 76.909084 195.028616 
L 77.506997 195.164152 
L 79.165507 195.181229 
L 85.206074 195.191913 
L 110.518665 195.690977 
L 122.50233 195.577931 
L 131.622984 195.245763 
L 142.437467 194.531242 
L 150.078045 193.792551 
L 157.458984 192.878486 
L 166.380361 191.495541 
L 176.026258 189.654093 
L 185.912121 187.428152 
L 196.0938 184.880223 
L 216.463884 179.687423 
L 222.771901 178.218073 
L 233.287546 176.032936 
L 240.329309 174.78185 
L 248.218115 173.596839 
L 257.511196 172.500178 
L 264.443078 171.891854 
L 275.777087 171.273671 
L 284.177122 171.106705 
L 286.86239 171.103953 
L 297.916533 171.34261 
L 302.502162 171.556702 
L 312.300731 172.233376 
L 321.269161 173.108907 
L 329.879773 174.176594 
L 339.827238 175.687689 
L 349.81651 177.512842 
L 359.134408 179.511411 
L 365.832902 181.143195 
L 374.46471 183.527325 
L 380.304356 185.362514 
L 386.322112 187.513176 
L 391.523315 189.7086 
L 395.100325 191.581862 
L 396.411194 192.434895 
L 397.437429 193.246791 
L 398.287596 194.152037 
L 398.287596 194.152037 
" style="fill:none;stroke:#000000;stroke-linecap:square;stroke-opacity:0.1;stroke-width:1.5;"/>
   </g>
   <g id="line2d_21">
    <path clip-path="url(#pdd41f91b70)" d="M 396.386962 193.329356 
L 394.525274 192.026907 
L 388.084088 188.043282 
L 380.838863 184.106279 
L 372.640703 180.07948 
L 366.424282 177.257434 
L 360.152293 174.58074 
L 350.603538 170.79595 
L 342.545496 167.849642 
L 337.014892 165.950122 
L 330.455193 163.821385 
L 321.523549 161.133616 
L 310.989336 158.269561 
L 300.69398 155.787848 
L 289.460578 153.43964 
L 280.150252 151.781458 
L 273.197389 150.715829 
L 263.079015 149.431931 
L 253.608718 148.518439 
L 244.900574 147.922763 
L 236.171575 147.554838 
L 226.373279 147.401617 
L 217.4302 147.482687 
L 207.723139 147.782031 
L 195.623026 148.416494 
L 182.87105 149.345328 
L 170.096973 150.514333 
L 162.121583 151.37157 
L 149.085877 153.032526 
L 141.598987 154.172642 
L 135.609711 155.209922 
L 127.608828 156.810243 
L 118.129413 159.110131 
L 111.282436 161.123571 
L 103.567269 163.859161 
L 100.401346 165.161457 
L 97.070933 166.670334 
L 92.181404 169.200816 
L 87.825022 171.867209 
L 85.117401 173.790522 
L 83.066997 175.429861 
L 81.129577 177.171011 
L 79.340625 179.00532 
L 77.217797 181.616912 
L 75.607555 184.177382 
L 74.610191 186.360845 
L 74.083875 188.103864 
L 73.832727 190.019417 
L 73.869419 190.984289 
L 74.297993 192.634104 
L 74.622891 193.236514 
L 75.630969 194.339446 
L 76.502264 194.89772 
L 77.549376 195.340507 
L 79.342702 195.786163 
L 81.434489 196.037642 
L 83.680062 196.135512 
L 86.791719 196.111656 
L 95.236163 195.646863 
L 104.981037 194.849186 
L 124.057773 192.990563 
L 138.053738 191.412303 
L 151.092173 189.740189 
L 164.863158 187.71954 
L 176.124237 185.850818 
L 189.013986 183.474723 
L 206.06977 180.036156 
L 227.261575 175.72276 
L 237.339319 173.866395 
L 248.135784 172.145579 
L 255.695092 171.148481 
L 260.629606 170.601882 
L 270.370096 169.783184 
L 278.677368 169.370749 
L 281.31168 169.296236 
L 291.90226 169.272327 
L 297.311119 169.430186 
L 307.489636 170.035653 
L 316.726915 170.928241 
L 324.209051 171.886188 
L 333.797121 173.416677 
L 342.790581 175.159463 
L 350.962543 177.002612 
L 358.40906 178.902809 
L 367.078646 181.394947 
L 375.442714 184.115856 
L 380.985054 186.121842 
L 386.827581 188.466486 
L 389.296628 189.555525 
L 394.365206 192.125705 
L 395.817401 193.03942 
L 396.902979 193.884164 
L 396.902979 193.884164 
" style="fill:none;stroke:#000000;stroke-linecap:square;stroke-opacity:0.1;stroke-width:1.5;"/>
   </g>
   <g id="line2d_22">
    <path clip-path="url(#pdd41f91b70)" d="M 396.210953 193.762085 
L 394.481014 192.674508 
L 388.240089 189.241575 
L 380.383572 185.466414 
L 371.303072 181.537986 
L 361.168659 177.555025 
L 351.788167 174.179369 
L 341.881614 170.902112 
L 334.183103 168.545996 
L 322.142198 165.181899 
L 313.504824 163.005997 
L 307.358588 161.578375 
L 295.990323 159.205448 
L 286.597861 157.51251 
L 280.255375 156.509802 
L 269.619367 155.089457 
L 260.283135 154.118985 
L 251.75028 153.462293 
L 242.744812 153.008965 
L 237.114399 152.849418 
L 226.343704 152.801513 
L 217.800572 152.991156 
L 205.55929 153.580235 
L 195.261092 154.331732 
L 182.5815 155.538746 
L 170.877529 156.912799 
L 160.325283 158.377474 
L 152.590905 159.607353 
L 145.019121 160.963444 
L 139.513104 162.060519 
L 131.827604 163.778069 
L 124.964366 165.531797 
L 117.050811 167.874208 
L 113.550364 169.042587 
L 108.599236 170.861739 
L 105.249359 172.220633 
L 101.909885 173.695425 
L 98.304595 175.444073 
L 93.494544 178.08321 
L 89.053319 180.912896 
L 85.942473 183.183865 
L 83.704749 185.000774 
L 79.764321 188.664537 
L 76.062925 192.75039 
L 75.10946 193.996687 
L 75.0484 194.412005 
L 75.32318 194.482266 
L 76.389545 194.42132 
L 80.007683 194.115722 
L 86.056891 193.836778 
L 117.845401 192.997206 
L 129.184212 192.368887 
L 136.743175 191.791209 
L 145.39083 190.955113 
L 155.533938 189.715404 
L 166.230258 188.086878 
L 172.716434 186.937506 
L 182.652416 184.956832 
L 194.129229 182.408292 
L 218.39967 176.836906 
L 227.139033 175.044099 
L 233.371229 173.897672 
L 242.51051 172.450312 
L 249.123773 171.590865 
L 255.952906 170.87579 
L 260.462161 170.5007 
L 271.936074 169.892294 
L 281.939925 169.757811 
L 292.647694 170.005687 
L 297.618079 170.253251 
L 306.810787 170.924614 
L 315.853509 171.847592 
L 323.943218 172.888439 
L 333.462232 174.370231 
L 342.639408 176.063726 
L 350.955166 177.830368 
L 357.611074 179.413295 
L 363.700087 181.004857 
L 371.249469 183.194903 
L 376.01282 184.723363 
L 383.571097 187.459029 
L 389.390092 189.965767 
L 392.879554 191.789636 
L 395.638414 193.631343 
L 396.780262 194.663508 
L 396.780262 194.663508 
" style="fill:none;stroke:#000000;stroke-linecap:square;stroke-opacity:0.1;stroke-width:1.5;"/>
   </g>
   <g id="line2d_23">
    <path clip-path="url(#pdd41f91b70)" d="M 397.697715 193.310918 
L 396.197115 192.313109 
L 391.370585 189.553391 
L 383.731535 185.782309 
L 374.822196 181.86852 
L 365.396919 178.123634 
L 356.133363 174.763613 
L 346.72644 171.637298 
L 339.593987 169.445027 
L 328.251531 166.261069 
L 320.685819 164.339478 
L 315.142369 163.033766 
L 303.185897 160.514315 
L 293.421214 158.76359 
L 286.871013 157.748177 
L 277.344992 156.506218 
L 269.031919 155.65635 
L 260.533514 155.019264 
L 251.348806 154.59919 
L 246.521712 154.490841 
L 234.906961 154.543274 
L 226.598413 154.841645 
L 214.355126 155.640141 
L 203.46405 156.655885 
L 190.715158 158.12676 
L 178.021125 159.816151 
L 162.772901 162.089741 
L 148.085562 164.572366 
L 137.31806 166.658853 
L 133.972029 167.369756 
L 125.613202 169.312602 
L 117.362593 171.525631 
L 113.395291 172.72288 
L 108.445919 174.366773 
L 104.674484 175.752589 
L 100.569891 177.419077 
L 96.702828 179.172284 
L 91.835353 181.701136 
L 86.956615 184.726472 
L 83.883008 186.990701 
L 81.873896 188.679393 
L 78.767753 191.74656 
L 76.697709 194.23913 
L 76.304846 194.926943 
L 76.431395 195.064925 
L 77.129507 195.02615 
L 80.805605 194.621738 
L 86.512693 194.30207 
L 121.513081 193.080722 
L 130.975038 192.435755 
L 142.218692 191.384015 
L 150.134538 190.430409 
L 158.006591 189.286287 
L 167.884387 187.549002 
L 178.620631 185.261122 
L 188.873537 182.714371 
L 220.043356 174.330687 
L 226.085627 172.928979 
L 237.143779 170.751894 
L 244.316259 169.631853 
L 251.849739 168.708349 
L 261.138227 167.919774 
L 267.946028 167.578264 
L 279.449039 167.4303 
L 289.800645 167.72843 
L 300.93272 168.4714 
L 305.32858 168.878745 
L 314.792687 169.964609 
L 323.598908 171.222545 
L 332.194455 172.673994 
L 341.83535 174.561982 
L 351.183085 176.658637 
L 359.825091 178.8414 
L 366.126568 180.593663 
L 374.780856 183.253965 
L 380.502572 185.209428 
L 386.445161 187.467466 
L 391.490227 189.670054 
L 395.143203 191.596661 
L 397.304687 193.098209 
L 398.156023 193.945692 
L 398.156023 193.945692 
" style="fill:none;stroke:#000000;stroke-linecap:square;stroke-opacity:0.1;stroke-width:1.5;"/>
   </g>
   <g id="line2d_24">
    <path clip-path="url(#pdd41f91b70)" d="M 397.621573 194.036309 
L 396.270084 193.027156 
L 391.034021 189.677948 
L 383.453323 185.534478 
L 374.746892 181.33038 
L 365.924906 177.49468 
L 357.102122 174.001837 
L 350.400767 171.549912 
L 341.108425 168.412932 
L 332.830582 165.861478 
L 323.122537 163.149942 
L 315.109067 161.135954 
L 304.444916 158.769358 
L 294.78808 156.938179 
L 288.294362 155.876222 
L 278.073239 154.486348 
L 269.448672 153.586745 
L 261.011987 152.952764 
L 251.923954 152.543845 
L 247.069591 152.441209 
L 235.551204 152.512377 
L 227.060098 152.834946 
L 218.724429 153.35617 
L 209.157953 154.177284 
L 199.385397 155.228653 
L 190.305898 156.369465 
L 177.066526 158.277162 
L 162.674328 160.661535 
L 153.352226 162.394472 
L 143.10747 164.505962 
L 134.867089 166.397852 
L 126.713204 168.482392 
L 118.409566 170.878933 
L 114.343211 172.176696 
L 108.891934 174.073338 
L 101.695618 176.921059 
L 97.951422 178.601113 
L 92.955071 181.125568 
L 87.778424 184.212256 
L 84.766645 186.330351 
L 82.729043 187.958134 
L 79.517571 191.005476 
L 77.340226 193.6671 
L 76.862784 194.573046 
L 76.950829 194.844866 
L 77.37261 194.941836 
L 78.621578 194.910438 
L 84.063141 194.724249 
L 94.673818 194.721692 
L 108.431735 194.713959 
L 120.608532 194.451189 
L 129.722885 194.036556 
L 140.836231 193.234978 
L 149.074505 192.406879 
L 157.167304 191.382095 
L 166.156559 189.984162 
L 176.960848 187.937614 
L 186.584781 185.805347 
L 196.955393 183.266501 
L 217.690769 178.037703 
L 223.892865 176.584315 
L 233.819251 174.473227 
L 241.040973 173.136419 
L 248.301769 171.979847 
L 257.089168 170.843993 
L 264.254671 170.136019 
L 276.274399 169.388554 
L 284.210386 169.192853 
L 286.739614 169.179367 
L 298.003632 169.400679 
L 302.74024 169.628739 
L 312.678149 170.361852 
L 321.789343 171.333304 
L 330.216745 172.485707 
L 339.732489 174.083621 
L 349.37932 176.035924 
L 356.970743 177.822625 
L 362.94934 179.399021 
L 368.195698 180.918611 
L 375.042738 183.122973 
L 379.314265 184.650102 
L 385.852379 187.289484 
L 391.185428 189.85803 
L 394.573233 191.865825 
L 395.942259 192.849202 
L 397.075271 193.817625 
L 398.040468 194.881922 
L 398.040468 194.881922 
" style="fill:none;stroke:#000000;stroke-linecap:square;stroke-opacity:0.1;stroke-width:1.5;"/>
   </g>
   <g id="patch_3">
    <path d="M 57.6 307.584 
L 57.6 41.472 
" style="fill:none;stroke:#000000;stroke-linecap:square;stroke-linejoin:miter;stroke-width:0.8;"/>
   </g>
   <g id="patch_4">
    <path d="M 414.72 307.584 
L 414.72 41.472 
" style="fill:none;stroke:#000000;stroke-linecap:square;stroke-linejoin:miter;stroke-width:0.8;"/>
   </g>
   <g id="patch_5">
    <path d="M 57.6 307.584 
L 414.72 307.584 
" style="fill:none;stroke:#000000;stroke-linecap:square;stroke-linejoin:miter;stroke-width:0.8;"/>
   </g>
   <g id="patch_6">
    <path d="M 57.6 41.472 
L 414.72 41.472 
" style="fill:none;stroke:#000000;stroke-linecap:square;stroke-linejoin:miter;stroke-width:0.8;"/>
   </g>
   <g id="text_15">
    <!-- CL/CD: 229.17+/-12.63  time: 20.32+/-2.35 min -->
    <defs>
     <path d="M 64.40625 67.28125 
L 64.40625 56.890625 
Q 59.421875 61.53125 53.78125 63.8125 
Q 48.140625 66.109375 41.796875 66.109375 
Q 29.296875 66.109375 22.65625 58.46875 
Q 16.015625 50.828125 16.015625 36.375 
Q 16.015625 21.96875 22.65625 14.328125 
Q 29.296875 6.6875 41.796875 6.6875 
Q 48.140625 6.6875 53.78125 8.984375 
Q 59.421875 11.28125 64.40625 15.921875 
L 64.40625 5.609375 
Q 59.234375 2.09375 53.4375 0.328125 
Q 47.65625 -1.421875 41.21875 -1.421875 
Q 24.65625 -1.421875 15.125 8.703125 
Q 5.609375 18.84375 5.609375 36.375 
Q 5.609375 53.953125 15.125 64.078125 
Q 24.65625 74.21875 41.21875 74.21875 
Q 47.75 74.21875 53.53125 72.484375 
Q 59.328125 70.75 64.40625 67.28125 
z
" id="DejaVuSans-43"/>
     <path d="M 9.8125 72.90625 
L 19.671875 72.90625 
L 19.671875 8.296875 
L 55.171875 8.296875 
L 55.171875 0 
L 9.8125 0 
z
" id="DejaVuSans-4c"/>
     <path d="M 25.390625 72.90625 
L 33.6875 72.90625 
L 8.296875 -9.28125 
L 0 -9.28125 
z
" id="DejaVuSans-2f"/>
     <path d="M 19.671875 64.796875 
L 19.671875 8.109375 
L 31.59375 8.109375 
Q 46.6875 8.109375 53.6875 14.9375 
Q 60.6875 21.78125 60.6875 36.53125 
Q 60.6875 51.171875 53.6875 57.984375 
Q 46.6875 64.796875 31.59375 64.796875 
z
M 9.8125 72.90625 
L 30.078125 72.90625 
Q 51.265625 72.90625 61.171875 64.09375 
Q 71.09375 55.28125 71.09375 36.53125 
Q 71.09375 17.671875 61.125 8.828125 
Q 51.171875 0 30.078125 0 
L 9.8125 0 
z
" id="DejaVuSans-44"/>
     <path d="M 11.71875 12.40625 
L 22.015625 12.40625 
L 22.015625 0 
L 11.71875 0 
z
M 11.71875 51.703125 
L 22.015625 51.703125 
L 22.015625 39.3125 
L 11.71875 39.3125 
z
" id="DejaVuSans-3a"/>
     <path id="DejaVuSans-20"/>
     <path d="M 10.984375 1.515625 
L 10.984375 10.5 
Q 14.703125 8.734375 18.5 7.8125 
Q 22.3125 6.890625 25.984375 6.890625 
Q 35.75 6.890625 40.890625 13.453125 
Q 46.046875 20.015625 46.78125 33.40625 
Q 43.953125 29.203125 39.59375 26.953125 
Q 35.25 24.703125 29.984375 24.703125 
Q 19.046875 24.703125 12.671875 31.3125 
Q 6.296875 37.9375 6.296875 49.421875 
Q 6.296875 60.640625 12.9375 67.421875 
Q 19.578125 74.21875 30.609375 74.21875 
Q 43.265625 74.21875 49.921875 64.515625 
Q 56.59375 54.828125 56.59375 36.375 
Q 56.59375 19.140625 48.40625 8.859375 
Q 40.234375 -1.421875 26.421875 -1.421875 
Q 22.703125 -1.421875 18.890625 -0.6875 
Q 15.09375 0.046875 10.984375 1.515625 
z
M 30.609375 32.421875 
Q 37.25 32.421875 41.125 36.953125 
Q 45.015625 41.5 45.015625 49.421875 
Q 45.015625 57.28125 41.125 61.84375 
Q 37.25 66.40625 30.609375 66.40625 
Q 23.96875 66.40625 20.09375 61.84375 
Q 16.21875 57.28125 16.21875 49.421875 
Q 16.21875 41.5 20.09375 36.953125 
Q 23.96875 32.421875 30.609375 32.421875 
z
" id="DejaVuSans-39"/>
     <path d="M 8.203125 72.90625 
L 55.078125 72.90625 
L 55.078125 68.703125 
L 28.609375 0 
L 18.3125 0 
L 43.21875 64.59375 
L 8.203125 64.59375 
z
" id="DejaVuSans-37"/>
     <path d="M 46 62.703125 
L 46 35.5 
L 73.1875 35.5 
L 73.1875 27.203125 
L 46 27.203125 
L 46 0 
L 37.796875 0 
L 37.796875 27.203125 
L 10.59375 27.203125 
L 10.59375 35.5 
L 37.796875 35.5 
L 37.796875 62.703125 
z
" id="DejaVuSans-2b"/>
     <path d="M 4.890625 31.390625 
L 31.203125 31.390625 
L 31.203125 23.390625 
L 4.890625 23.390625 
z
" id="DejaVuSans-2d"/>
     <path d="M 18.3125 70.21875 
L 18.3125 54.6875 
L 36.8125 54.6875 
L 36.8125 47.703125 
L 18.3125 47.703125 
L 18.3125 18.015625 
Q 18.3125 11.328125 20.140625 9.421875 
Q 21.96875 7.515625 27.59375 7.515625 
L 36.8125 7.515625 
L 36.8125 0 
L 27.59375 0 
Q 17.1875 0 13.234375 3.875 
Q 9.28125 7.765625 9.28125 18.015625 
L 9.28125 47.703125 
L 2.6875 47.703125 
L 2.6875 54.6875 
L 9.28125 54.6875 
L 9.28125 70.21875 
z
" id="DejaVuSans-74"/>
     <path d="M 9.421875 54.6875 
L 18.40625 54.6875 
L 18.40625 0 
L 9.421875 0 
z
M 9.421875 75.984375 
L 18.40625 75.984375 
L 18.40625 64.59375 
L 9.421875 64.59375 
z
" id="DejaVuSans-69"/>
     <path d="M 52 44.1875 
Q 55.375 50.25 60.0625 53.125 
Q 64.75 56 71.09375 56 
Q 79.640625 56 84.28125 50.015625 
Q 88.921875 44.046875 88.921875 33.015625 
L 88.921875 0 
L 79.890625 0 
L 79.890625 32.71875 
Q 79.890625 40.578125 77.09375 44.375 
Q 74.3125 48.1875 68.609375 48.1875 
Q 61.625 48.1875 57.5625 43.546875 
Q 53.515625 38.921875 53.515625 30.90625 
L 53.515625 0 
L 44.484375 0 
L 44.484375 32.71875 
Q 44.484375 40.625 41.703125 44.40625 
Q 38.921875 48.1875 33.109375 48.1875 
Q 26.21875 48.1875 22.15625 43.53125 
Q 18.109375 38.875 18.109375 30.90625 
L 18.109375 0 
L 9.078125 0 
L 9.078125 54.6875 
L 18.109375 54.6875 
L 18.109375 46.1875 
Q 21.1875 51.21875 25.484375 53.609375 
Q 29.78125 56 35.6875 56 
Q 41.65625 56 45.828125 52.96875 
Q 50 49.953125 52 44.1875 
z
" id="DejaVuSans-6d"/>
     <path d="M 56.203125 29.59375 
L 56.203125 25.203125 
L 14.890625 25.203125 
Q 15.484375 15.921875 20.484375 11.0625 
Q 25.484375 6.203125 34.421875 6.203125 
Q 39.59375 6.203125 44.453125 7.46875 
Q 49.3125 8.734375 54.109375 11.28125 
L 54.109375 2.78125 
Q 49.265625 0.734375 44.1875 -0.34375 
Q 39.109375 -1.421875 33.890625 -1.421875 
Q 20.796875 -1.421875 13.15625 6.1875 
Q 5.515625 13.8125 5.515625 26.8125 
Q 5.515625 40.234375 12.765625 48.109375 
Q 20.015625 56 32.328125 56 
Q 43.359375 56 49.78125 48.890625 
Q 56.203125 41.796875 56.203125 29.59375 
z
M 47.21875 32.234375 
Q 47.125 39.59375 43.09375 43.984375 
Q 39.0625 48.390625 32.421875 48.390625 
Q 24.90625 48.390625 20.390625 44.140625 
Q 15.875 39.890625 15.1875 32.171875 
z
" id="DejaVuSans-65"/>
     <path d="M 10.796875 72.90625 
L 49.515625 72.90625 
L 49.515625 64.59375 
L 19.828125 64.59375 
L 19.828125 46.734375 
Q 21.96875 47.46875 24.109375 47.828125 
Q 26.265625 48.1875 28.421875 48.1875 
Q 40.625 48.1875 47.75 41.5 
Q 54.890625 34.8125 54.890625 23.390625 
Q 54.890625 11.625 47.5625 5.09375 
Q 40.234375 -1.421875 26.90625 -1.421875 
Q 22.3125 -1.421875 17.546875 -0.640625 
Q 12.796875 0.140625 7.71875 1.703125 
L 7.71875 11.625 
Q 12.109375 9.234375 16.796875 8.0625 
Q 21.484375 6.890625 26.703125 6.890625 
Q 35.15625 6.890625 40.078125 11.328125 
Q 45.015625 15.765625 45.015625 23.390625 
Q 45.015625 31 40.078125 35.4375 
Q 35.15625 39.890625 26.703125 39.890625 
Q 22.75 39.890625 18.8125 39.015625 
Q 14.890625 38.140625 10.796875 36.28125 
z
" id="DejaVuSans-35"/>
     <path d="M 54.890625 33.015625 
L 54.890625 0 
L 45.90625 0 
L 45.90625 32.71875 
Q 45.90625 40.484375 42.875 44.328125 
Q 39.84375 48.1875 33.796875 48.1875 
Q 26.515625 48.1875 22.3125 43.546875 
Q 18.109375 38.921875 18.109375 30.90625 
L 18.109375 0 
L 9.078125 0 
L 9.078125 54.6875 
L 18.109375 54.6875 
L 18.109375 46.1875 
Q 21.34375 51.125 25.703125 53.5625 
Q 30.078125 56 35.796875 56 
Q 45.21875 56 50.046875 50.171875 
Q 54.890625 44.34375 54.890625 33.015625 
z
" id="DejaVuSans-6e"/>
    </defs>
    <g transform="translate(92.215313 35.472)scale(0.12 -0.12)">
     <use xlink:href="#DejaVuSans-43"/>
     <use x="69.824219" xlink:href="#DejaVuSans-4c"/>
     <use x="125.537109" xlink:href="#DejaVuSans-2f"/>
     <use x="159.228516" xlink:href="#DejaVuSans-43"/>
     <use x="229.052734" xlink:href="#DejaVuSans-44"/>
     <use x="306.054688" xlink:href="#DejaVuSans-3a"/>
     <use x="339.746094" xlink:href="#DejaVuSans-20"/>
     <use x="371.533203" xlink:href="#DejaVuSans-32"/>
     <use x="435.15625" xlink:href="#DejaVuSans-32"/>
     <use x="498.779297" xlink:href="#DejaVuSans-39"/>
     <use x="562.402344" xlink:href="#DejaVuSans-2e"/>
     <use x="594.189453" xlink:href="#DejaVuSans-31"/>
     <use x="657.8125" xlink:href="#DejaVuSans-37"/>
     <use x="721.435547" xlink:href="#DejaVuSans-2b"/>
     <use x="805.224609" xlink:href="#DejaVuSans-2f"/>
     <use x="838.916016" xlink:href="#DejaVuSans-2d"/>
     <use x="875" xlink:href="#DejaVuSans-31"/>
     <use x="938.623047" xlink:href="#DejaVuSans-32"/>
     <use x="1002.246094" xlink:href="#DejaVuSans-2e"/>
     <use x="1034.033203" xlink:href="#DejaVuSans-36"/>
     <use x="1097.65625" xlink:href="#DejaVuSans-33"/>
     <use x="1161.279297" xlink:href="#DejaVuSans-20"/>
     <use x="1193.066406" xlink:href="#DejaVuSans-20"/>
     <use x="1224.853516" xlink:href="#DejaVuSans-74"/>
     <use x="1264.0625" xlink:href="#DejaVuSans-69"/>
     <use x="1291.845703" xlink:href="#DejaVuSans-6d"/>
     <use x="1389.257812" xlink:href="#DejaVuSans-65"/>
     <use x="1450.78125" xlink:href="#DejaVuSans-3a"/>
     <use x="1484.472656" xlink:href="#DejaVuSans-20"/>
     <use x="1516.259766" xlink:href="#DejaVuSans-32"/>
     <use x="1579.882812" xlink:href="#DejaVuSans-30"/>
     <use x="1643.505859" xlink:href="#DejaVuSans-2e"/>
     <use x="1675.292969" xlink:href="#DejaVuSans-33"/>
     <use x="1738.916016" xlink:href="#DejaVuSans-32"/>
     <use x="1802.539062" xlink:href="#DejaVuSans-2b"/>
     <use x="1886.328125" xlink:href="#DejaVuSans-2f"/>
     <use x="1920.019531" xlink:href="#DejaVuSans-2d"/>
     <use x="1956.103516" xlink:href="#DejaVuSans-32"/>
     <use x="2019.726562" xlink:href="#DejaVuSans-2e"/>
     <use x="2051.513672" xlink:href="#DejaVuSans-33"/>
     <use x="2115.136719" xlink:href="#DejaVuSans-35"/>
     <use x="2178.759766" xlink:href="#DejaVuSans-20"/>
     <use x="2210.546875" xlink:href="#DejaVuSans-6d"/>
     <use x="2307.958984" xlink:href="#DejaVuSans-69"/>
     <use x="2335.742188" xlink:href="#DejaVuSans-6e"/>
    </g>
   </g>
  </g>
 </g>
 <defs>
  <clipPath id="pdd41f91b70">
   <rect height="266.112" width="357.12" x="57.6" y="41.472"/>
  </clipPath>
 </defs>
</svg>
