<?xml version="1.0" encoding="utf-8" standalone="no"?>
<!DOCTYPE svg PUBLIC "-//W3C//DTD SVG 1.1//EN"
  "http://www.w3.org/Graphics/SVG/1.1/DTD/svg11.dtd">
<!-- Created with matplotlib (http://matplotlib.org/) -->
<svg height="360pt" version="1.1" viewBox="0 0 360 360" width="360pt" xmlns="http://www.w3.org/2000/svg" xmlns:xlink="http://www.w3.org/1999/xlink">
 <defs>
  <style type="text/css">
*{stroke-linecap:butt;stroke-linejoin:round;}
  </style>
 </defs>
 <g id="figure_1">
  <g id="patch_1">
   <path d="M 0 360 
L 360 360 
L 360 0 
L 0 0 
z
" style="fill:#ffffff;"/>
  </g>
  <g id="axes_1">
   <g id="line2d_1">
    <path clip-path="url(#p9faea86140)" d="M 79.897564 218.758839 
L 77.988687 218.720188 
L 70.351037 218.543737 
L 63.378844 218.696493 
L 53.148794 218.839784 
L 44.675486 218.729089 
L 35.765334 218.577533 
L 32.607812 218.752927 
L 30.754999 219.032468 
L 29.5638 219.402991 
L 29.653754 219.213515 
L 29.805072 218.644928 
L 29.906459 218.231888 
L 31.073147 217.772259 
L 36.757644 215.899373 
L 40.173063 215.074038 
L 42.986116 214.611838 
L 46.359618 214.299515 
L 49.738115 214.219979 
L 53.132203 214.354734 
L 57.119164 214.74599 
L 61.127689 215.370232 
L 66.867917 216.551392 
L 74.370502 218.093628 
L 77.963635 218.584173 
L 79.883304 218.745191 
L 79.883304 218.745191 
" style="fill:none;opacity:0.7;stroke:#000000;stroke-linecap:square;stroke-width:1.2;"/>
   </g>
   <g id="line2d_2">
    <path clip-path="url(#p9faea86140)" d="M 79.901636 199.914591 
L 78.075714 199.675849 
L 71.110945 198.732328 
L 65.851509 198.31049 
L 54.992622 197.636961 
L 47.049226 197.317336 
L 41.997836 197.292034 
L 38.155805 197.488456 
L 35.503964 197.809652 
L 33.017638 198.346748 
L 31.255793 198.954971 
L 30.230293 199.50399 
L 29.765966 199.882432 
L 29.782266 199.749797 
L 29.82022 199.446264 
L 31.174883 198.919377 
L 36.799889 197.07508 
L 40.231948 196.216553 
L 43.654148 195.627676 
L 47.086697 195.293134 
L 50.528011 195.197094 
L 53.991699 195.325127 
L 57.475126 195.653342 
L 61.549695 196.280064 
L 66.794371 197.363578 
L 76.778345 199.493948 
L 79.893924 199.926624 
L 79.893924 199.926624 
" style="fill:none;opacity:0.7;stroke:#000000;stroke-linecap:square;stroke-width:1.2;"/>
   </g>
   <g id="line2d_3">
    <path clip-path="url(#p9faea86140)" d="M 79.905707 181.070343 
L 78.16274 180.63151 
L 72.448513 179.168608 
L 67.78301 178.279582 
L 60.2961 177.093861 
L 53.991324 176.315113 
L 49.433552 175.942209 
L 45.473505 175.826727 
L 42.126667 175.935283 
L 39.409752 176.226514 
L 36.794462 176.745819 
L 34.810029 177.358813 
L 32.988107 178.158882 
L 31.380786 179.133526 
L 30.36081 179.976268 
L 29.74698 180.713833 
L 29.888699 180.592125 
L 30.743672 180.250421 
L 37.421423 178.06922 
L 40.882558 177.208531 
L 44.359457 176.601302 
L 47.854161 176.247575 
L 51.361073 176.144565 
L 54.895408 176.276197 
L 58.442303 176.626556 
L 61.990402 177.18921 
L 66.720826 178.175765 
L 79.904545 181.108056 
L 79.904545 181.108056 
" style="fill:none;opacity:0.7;stroke:#000000;stroke-linecap:square;stroke-width:1.2;"/>
   </g>
   <g id="line2d_4">
    <path clip-path="url(#p9faea86140)" d="M 79.909779 162.226095 
L 78.249766 161.587172 
L 74.313143 160.116555 
L 70.875933 158.934764 
L 66.207847 157.651342 
L 60.464475 156.255536 
L 55.282943 155.240728 
L 51.262112 154.666184 
L 47.850119 154.400679 
L 45.028663 154.380071 
L 42.255499 154.578533 
L 40.101972 154.929197 
L 38.032692 155.478111 
L 36.070053 156.247352 
L 34.260175 157.248647 
L 32.637014 158.469714 
L 30.728613 160.268985 
L 29.990389 161.220264 
L 29.647198 161.878964 
L 29.757488 161.802041 
L 30.753716 161.43184 
L 37.478908 159.203606 
L 40.978184 158.290127 
L 44.512486 157.620037 
L 48.068824 157.210526 
L 51.639808 157.066907 
L 55.240745 157.173978 
L 58.847082 157.521785 
L 62.449008 158.099265 
L 67.248818 159.129274 
L 74.447927 160.983057 
L 79.915165 162.289489 
L 79.915165 162.289489 
" style="fill:none;opacity:0.7;stroke:#000000;stroke-linecap:square;stroke-width:1.2;"/>
   </g>
   <g id="line2d_5">
    <path clip-path="url(#p9faea86140)" d="M 79.913851 143.381848 
L 78.336793 142.542833 
L 75.599525 141.144145 
L 70.469561 138.831759 
L 65.807592 137.11559 
L 61.209885 135.591463 
L 57.166166 134.459125 
L 53.111972 133.563706 
L 50.241294 133.125615 
L 47.400669 132.913042 
L 44.58696 132.96322 
L 42.384331 133.221782 
L 40.258212 133.707086 
L 38.240448 134.448022 
L 36.810588 135.184916 
L 35.470896 136.08155 
L 34.247118 137.128213 
L 32.758174 138.722482 
L 30.102601 141.88918 
L 29.713748 142.797877 
L 29.508221 143.120428 
L 29.469806 143.126406 
L 29.581472 143.020791 
L 35.784369 140.880581 
L 39.903492 139.643602 
L 43.483671 138.826444 
L 46.494625 138.346126 
L 49.511503 138.06089 
L 52.549987 137.968787 
L 56.218608 138.102271 
L 59.878932 138.498242 
L 63.532904 139.131909 
L 67.791977 140.098263 
L 73.866398 141.769658 
L 79.925785 143.470921 
L 79.925785 143.470921 
" style="fill:none;opacity:0.7;stroke:#000000;stroke-linecap:square;stroke-width:1.2;"/>
   </g>
   <g id="line2d_6">
    <path clip-path="url(#p9faea86140)" d="M 142.550954 218.790774 
L 140.686467 218.773816 
L 127.814851 218.513217 
L 96.251686 218.439403 
L 93.791884 218.756943 
L 92.454368 219.152324 
L 92.254791 219.265307 
L 92.419788 219.049686 
L 92.577836 218.882839 
L 97.584084 218.549243 
L 103.223378 218.07416 
L 108.281069 217.879509 
L 114.472418 217.865466 
L 121.83285 218.075212 
L 141.326782 218.827107 
L 142.535564 218.815881 
L 142.535564 218.815881 
" style="fill:none;opacity:0.7;stroke:#000000;stroke-linecap:square;stroke-width:1.2;"/>
   </g>
   <g id="line2d_7">
    <path clip-path="url(#p9faea86140)" d="M 142.555026 199.946526 
L 140.773493 199.729477 
L 131.478557 198.484566 
L 116.561009 197.181136 
L 110.30881 196.915806 
L 105.23826 196.92284 
L 101.36147 197.146269 
L 98.14206 197.560943 
L 95.632263 198.132245 
L 93.872477 198.770558 
L 92.892588 199.338616 
L 92.432654 199.859469 
L 92.4946 199.996631 
L 92.913682 200.150195 
L 93.903635 200.1936 
L 96.499554 199.974289 
L 104.419493 199.20398 
L 110.131543 198.89516 
L 115.868363 198.799574 
L 122.215043 198.915699 
L 129.732966 199.305907 
L 142.546185 199.997313 
L 142.546185 199.997313 
" style="fill:none;opacity:0.7;stroke:#000000;stroke-linecap:square;stroke-width:1.2;"/>
   </g>
   <g id="line2d_8">
    <path clip-path="url(#p9faea86140)" d="M 142.559097 181.102278 
L 140.860519 180.685138 
L 133.402024 178.810467 
L 127.024048 177.523537 
L 120.718447 176.449144 
L 115.553006 175.795714 
L 111.561568 175.493564 
L 108.164832 175.42964 
L 104.808794 175.584105 
L 102.076924 175.919661 
L 99.441622 176.481826 
L 97.438867 177.123967 
L 95.60038 177.950986 
L 94.004362 178.958941 
L 93.045091 179.816142 
L 92.544866 180.528385 
L 92.443376 181.012699 
L 92.554233 181.241412 
L 92.959903 181.451483 
L 93.952256 181.49948 
L 96.516716 181.27846 
L 108.568366 180.017364 
L 113.814851 179.747935 
L 119.091776 179.681948 
L 124.37673 179.816253 
L 131.420082 180.246038 
L 142.556805 181.178745 
L 142.556805 181.178745 
" style="fill:none;opacity:0.7;stroke:#000000;stroke-linecap:square;stroke-width:1.2;"/>
   </g>
   <g id="line2d_9">
    <path clip-path="url(#p9faea86140)" d="M 142.563169 162.25803 
L 140.947546 161.640799 
L 135.314904 159.516406 
L 130.090043 157.872569 
L 124.333385 156.258811 
L 119.724641 155.192702 
L 115.685079 154.476741 
L 112.248718 154.083433 
L 109.410804 153.960931 
L 106.598752 154.054414 
L 103.846398 154.397076 
L 101.719751 154.879353 
L 99.683535 155.569684 
L 97.7693 156.485336 
L 96.451916 157.319888 
L 94.874065 158.615565 
L 93.412895 160.108859 
L 92.657077 161.197301 
L 92.428357 161.893791 
L 92.49902 162.422794 
L 92.750457 162.718623 
L 93.157797 162.817866 
L 94.421478 162.797556 
L 97.66346 162.435297 
L 108.742256 161.03853 
L 114.080917 160.659159 
L 119.454091 160.525915 
L 124.226322 160.61812 
L 130.181583 160.976593 
L 136.118604 161.556659 
L 142.567426 162.360178 
L 142.567426 162.360178 
" style="fill:none;opacity:0.7;stroke:#000000;stroke-linecap:square;stroke-width:1.2;"/>
   </g>
   <g id="line2d_10">
    <path clip-path="url(#p9faea86140)" d="M 142.56724 143.413783 
L 141.034572 142.596461 
L 137.739356 140.934071 
L 132.012403 138.345938 
L 124.505916 135.514285 
L 120.457746 134.261013 
L 116.976668 133.395162 
L 114.085153 132.861075 
L 111.229399 132.550185 
L 108.962854 132.496557 
L 106.718767 132.63221 
L 104.523395 132.978303 
L 102.410946 133.560427 
L 100.406753 134.403624 
L 98.991194 135.217494 
L 97.672573 136.186166 
L 96.476389 137.300346 
L 94.62342 139.420221 
L 93.035803 141.409802 
L 92.587128 142.259865 
L 92.397714 143.089173 
L 92.496752 143.874586 
L 92.618326 144.07221 
L 93.089834 144.161568 
L 94.399301 144.118196 
L 97.698416 143.70251 
L 109.539075 141.961563 
L 114.368056 141.548318 
L 119.228952 141.364985 
L 124.075914 141.419987 
L 128.908471 141.693963 
L 133.729382 142.171872 
L 138.519178 142.84134 
L 142.578046 143.54161 
L 142.578046 143.54161 
" style="fill:none;opacity:0.7;stroke:#000000;stroke-linecap:square;stroke-width:1.2;"/>
   </g>
   <g id="line2d_11">
    <path clip-path="url(#p9faea86140)" d="M 205.204344 218.822709 
L 202.78244 218.814853 
L 195.753151 218.555827 
L 178.562375 218.037112 
L 166.669077 217.948939 
L 160.497112 218.093385 
L 157.336643 218.393729 
L 155.624355 218.772262 
L 154.945783 219.127623 
L 155.031793 219.169987 
L 155.24222 219.279428 
L 155.721996 219.547026 
L 156.940748 219.886487 
L 160.178142 220.421186 
L 164.59529 220.926339 
L 169.641315 221.302505 
L 174.699523 221.470847 
L 179.763123 221.419673 
L 185.396159 221.125529 
L 191.614434 220.561635 
L 199.517155 219.591829 
L 205.187825 218.88657 
L 205.187825 218.88657 
" style="fill:none;opacity:0.7;stroke:#000000;stroke-linecap:square;stroke-width:1.2;"/>
   </g>
   <g id="line2d_12">
    <path clip-path="url(#p9faea86140)" d="M 205.208415 199.978461 
L 203.471273 199.783105 
L 183.273131 197.125155 
L 177.554888 196.674387 
L 172.435587 196.49284 
L 167.922635 196.563132 
L 164.024846 196.848129 
L 160.780157 197.312235 
L 158.246888 197.917741 
L 156.489162 198.586145 
L 155.554883 199.173242 
L 155.142746 199.69851 
L 155.111549 200.162523 
L 155.302667 200.491763 
L 155.635757 200.761403 
L 156.240554 201.0437 
L 157.592051 201.417495 
L 160.183916 201.859697 
L 164.069383 202.235989 
L 168.605812 202.453698 
L 173.748691 202.491593 
L 179.47553 202.312841 
L 185.78299 201.895364 
L 193.818438 201.128882 
L 204.645193 200.101837 
L 205.198446 200.068002 
L 205.198446 200.068002 
" style="fill:none;opacity:0.7;stroke:#000000;stroke-linecap:square;stroke-width:1.2;"/>
   </g>
   <g id="line2d_13">
    <path clip-path="url(#p9faea86140)" d="M 205.212487 181.134213 
L 203.558299 180.738766 
L 192.624728 178.001969 
L 185.731528 176.525178 
L 181.133211 175.754002 
L 177.110214 175.274628 
L 173.119849 175.035028 
L 169.728858 175.071027 
L 166.936222 175.292365 
L 164.203986 175.714671 
L 161.572715 176.36906 
L 159.585243 177.08482 
L 157.785953 177.986237 
L 156.627938 178.784357 
L 155.729373 179.656015 
L 155.211554 180.505422 
L 155.102273 181.131339 
L 155.262693 181.633162 
L 155.763236 182.145818 
L 156.734123 182.61494 
L 158.103504 182.975068 
L 160.18977 183.289528 
L 163.543476 183.545638 
L 168.131971 183.636749 
L 173.942618 183.496394 
L 180.938812 183.08301 
L 190.269242 182.279388 
L 200.710295 181.406742 
L 205.209066 181.249435 
L 205.209066 181.249435 
" style="fill:none;opacity:0.7;stroke:#000000;stroke-linecap:square;stroke-width:1.2;"/>
   </g>
   <g id="line2d_14">
    <path clip-path="url(#p9faea86140)" d="M 205.216559 162.289965 
L 203.645325 161.694427 
L 196.856311 159.147435 
L 189.920732 156.856677 
L 185.32297 155.534377 
L 181.281495 154.590183 
L 177.813021 153.98523 
L 174.37524 153.623704 
L 171.538061 153.558566 
L 168.72855 153.733568 
L 166.523788 154.063359 
L 164.383127 154.581213 
L 162.330694 155.30569 
L 160.398137 156.25049 
L 159.066541 157.105384 
L 157.863661 158.081482 
L 156.431323 159.545826 
L 155.525517 160.779735 
L 155.191145 161.52542 
L 155.104511 162.342232 
L 155.328472 162.984006 
L 155.821661 163.577981 
L 156.361204 163.927073 
L 157.605156 164.331542 
L 159.6537 164.651613 
L 162.446981 164.838731 
L 166.487828 164.852036 
L 171.787403 164.622695 
L 179.494421 164.048798 
L 199.57583 162.424601 
L 203.590069 162.386012 
L 205.219687 162.430867 
L 205.219687 162.430867 
" style="fill:none;opacity:0.7;stroke:#000000;stroke-linecap:square;stroke-width:1.2;"/>
   </g>
   <g id="line2d_15">
    <path clip-path="url(#p9faea86140)" d="M 205.22063 143.445717 
L 203.206769 142.370057 
L 198.181296 139.864204 
L 192.401254 137.319992 
L 187.225542 135.258877 
L 183.170878 133.914064 
L 179.684906 132.999194 
L 176.784478 132.445423 
L 173.92368 132.132539 
L 171.655059 132.093684 
L 169.406905 132.256164 
L 167.203367 132.63579 
L 165.078118 133.253573 
L 163.058596 134.131305 
L 161.62929 134.968786 
L 160.295687 135.958202 
L 159.088662 137.092449 
L 157.631521 138.796451 
L 155.716903 141.320348 
L 155.244263 142.310564 
L 155.083723 143.068969 
L 155.182743 143.915961 
L 155.612214 144.845122 
L 155.988285 145.239206 
L 156.682207 145.562114 
L 158.061478 145.879889 
L 160.218815 146.101774 
L 163.070568 146.162274 
L 167.184289 146.002851 
L 173.185713 145.521942 
L 196.627507 143.438646 
L 200.772507 143.3736 
L 204.168907 143.527356 
L 205.230307 143.612299 
L 205.230307 143.612299 
" style="fill:none;opacity:0.7;stroke:#000000;stroke-linecap:square;stroke-width:1.2;"/>
   </g>
   <g id="line2d_16">
    <path clip-path="url(#p9faea86140)" d="M 267.857734 218.854644 
L 265.483387 218.87314 
L 260.779466 218.686332 
L 237.283622 217.563664 
L 229.915384 217.595249 
L 223.692466 217.809287 
L 220.451686 218.109416 
L 218.605052 218.479228 
L 217.778958 218.821576 
L 217.63246 219.068443 
L 217.85697 219.518817 
L 218.323562 220.001072 
L 219.029721 220.417049 
L 223.327564 222.232759 
L 226.005425 223.185231 
L 228.766073 223.946164 
L 231.564998 224.51 
L 234.934466 224.939257 
L 238.305798 225.104717 
L 241.674343 225.014486 
L 245.031616 224.690686 
L 248.39043 224.151277 
L 252.316752 223.279379 
L 257.362955 221.89145 
L 266.793157 219.191683 
L 267.840086 218.957259 
L 267.840086 218.957259 
" style="fill:none;opacity:0.7;stroke:#000000;stroke-linecap:square;stroke-width:1.2;"/>
   </g>
   <g id="line2d_17">
    <path clip-path="url(#p9faea86140)" d="M 267.861805 200.010396 
L 266.169052 199.836733 
L 260.947064 199.059057 
L 245.986963 196.789355 
L 240.831294 196.302811 
L 236.264492 196.093692 
L 232.299807 196.124931 
L 228.362222 196.371688 
L 225.038059 196.777561 
L 222.366108 197.292907 
L 220.386921 197.860512 
L 219.105846 198.401732 
L 218.217178 199.007868 
L 217.823845 199.609056 
L 217.746375 200.18701 
L 217.927174 200.751061 
L 218.26835 201.182454 
L 218.890744 201.658513 
L 220.800635 202.666554 
L 222.798398 203.597435 
L 224.922442 204.361861 
L 227.689464 205.105536 
L 230.514296 205.629949 
L 233.363879 205.955928 
L 236.793141 206.10703 
L 240.223733 206.01288 
L 243.646866 205.695784 
L 247.634442 205.076129 
L 251.622612 204.21594 
L 257.313603 202.722308 
L 264.640797 200.780993 
L 267.850707 200.138691 
L 267.850707 200.138691 
" style="fill:none;opacity:0.7;stroke:#000000;stroke-linecap:square;stroke-width:1.2;"/>
   </g>
   <g id="line2d_18">
    <path clip-path="url(#p9faea86140)" d="M 267.865877 181.166148 
L 265.695552 180.650742 
L 255.338219 177.913563 
L 249.024846 176.365094 
L 244.419971 175.471645 
L 240.387299 174.919971 
L 236.952193 174.655877 
L 233.547485 174.635466 
L 230.732081 174.821563 
L 227.959061 175.203991 
L 225.262186 175.804702 
L 223.194602 176.462871 
L 221.271339 177.297059 
L 219.990834 178.047814 
L 218.934091 178.899122 
L 218.199527 179.813535 
L 217.878242 180.482459 
L 217.76066 181.071961 
L 217.811308 181.595291 
L 218.027499 182.100687 
L 218.457287 182.633349 
L 219.509269 183.447834 
L 221.287182 184.509055 
L 223.30678 185.363339 
L 225.486049 186.019872 
L 228.303819 186.606864 
L 231.178739 186.966154 
L 234.659368 187.140989 
L 238.150409 187.072532 
L 241.638669 186.784889 
L 245.699919 186.212271 
L 249.752177 185.415516 
L 255.536611 184.002751 
L 263.556675 182.032908 
L 266.847626 181.450663 
L 267.861327 181.320124 
L 267.861327 181.320124 
" style="fill:none;opacity:0.7;stroke:#000000;stroke-linecap:square;stroke-width:1.2;"/>
   </g>
   <g id="line2d_19">
    <path clip-path="url(#p9faea86140)" d="M 267.869949 162.3219 
L 265.801634 161.539543 
L 253.785526 157.079468 
L 249.195453 155.573099 
L 245.14961 154.478229 
L 241.674867 153.761559 
L 238.211077 153.29469 
L 235.363062 153.144396 
L 232.537099 153.249893 
L 230.301878 153.524998 
L 228.115301 153.98188 
L 226.000996 154.63524 
L 223.984342 155.501227 
L 222.114884 156.585147 
L 220.861867 157.541311 
L 219.753306 158.615819 
L 218.781458 159.788606 
L 218.206617 160.690282 
L 217.84828 161.576119 
L 217.757639 162.306517 
L 217.864509 162.939896 
L 218.157925 163.545218 
L 218.892865 164.437339 
L 219.938213 165.328643 
L 221.249792 166.103817 
L 222.770709 166.725424 
L 224.952695 167.353441 
L 227.218669 167.790511 
L 230.11894 168.111249 
L 233.059041 168.223923 
L 236.608394 168.133578 
L 240.157801 167.831546 
L 244.295059 167.25429 
L 249.003944 166.350362 
L 255.463065 164.814937 
L 261.863012 163.336967 
L 265.271891 162.761763 
L 267.871948 162.501556 
L 267.871948 162.501556 
" style="fill:none;opacity:0.7;stroke:#000000;stroke-linecap:square;stroke-width:1.2;"/>
   </g>
   <g id="line2d_20">
    <path clip-path="url(#p9faea86140)" d="M 267.87402 143.477652 
L 262.006666 140.48424 
L 259.728994 139.354989 
L 252.817416 136.189817 
L 248.785993 134.564186 
L 245.303619 133.387416 
L 242.393144 132.603226 
L 239.483802 132.029772 
L 236.617961 131.714893 
L 234.347264 131.690811 
L 232.095044 131.880118 
L 229.883338 132.293278 
L 227.74529 132.94672 
L 225.71044 133.858986 
L 224.267387 134.720077 
L 222.918801 135.730238 
L 221.700935 136.884553 
L 220.255097 138.621866 
L 218.76228 140.63713 
L 218.102666 141.820292 
L 217.78923 142.841862 
L 217.765646 143.671766 
L 217.94755 144.383486 
L 218.473814 145.382903 
L 219.191692 146.348414 
L 219.881331 146.953996 
L 220.731028 147.465874 
L 222.234639 148.087509 
L 224.419342 148.687009 
L 226.702868 149.07196 
L 229.63692 149.311665 
L 232.621147 149.336495 
L 236.229942 149.146352 
L 240.441148 148.678923 
L 245.24964 147.890412 
L 250.0308 146.88863 
L 261.875696 144.26377 
L 265.310164 143.814675 
L 267.882568 143.682989 
L 267.882568 143.682989 
" style="fill:none;opacity:0.7;stroke:#000000;stroke-linecap:square;stroke-width:1.2;"/>
   </g>
   <g id="line2d_21">
    <path clip-path="url(#p9faea86140)" d="M 330.511124 218.886579 
L 328.184335 218.931428 
L 324.051009 218.782317 
L 307.400066 217.393433 
L 301.688263 217.171951 
L 296.004459 217.155978 
L 289.172457 217.385306 
L 284.664512 217.696692 
L 282.081188 218.070064 
L 280.871507 218.423093 
L 280.362329 218.750329 
L 280.320507 219.121664 
L 280.540936 219.810113 
L 280.872255 220.285412 
L 281.537534 220.862164 
L 283.247057 221.844467 
L 284.440429 222.58457 
L 287.49593 224.712981 
L 289.625927 225.88981 
L 291.81853 226.864779 
L 294.05123 227.625398 
L 296.295861 228.183928 
L 298.541621 228.546765 
L 300.78798 228.719666 
L 303.032643 228.706199 
L 305.825887 228.443231 
L 308.605018 227.928618 
L 311.384702 227.177025 
L 314.167091 226.205464 
L 318.067403 224.572161 
L 324.697162 221.446713 
L 328.493457 219.774206 
L 330.492347 219.027948 
L 330.492347 219.027948 
" style="fill:none;opacity:0.7;stroke:#000000;stroke-linecap:square;stroke-width:1.2;"/>
   </g>
   <g id="line2d_22">
    <path clip-path="url(#p9faea86140)" d="M 330.515195 200.042331 
L 328.290417 199.820229 
L 324.214607 199.219393 
L 317.872904 198.042963 
L 310.42395 196.705238 
L 305.833222 196.105691 
L 301.811979 195.782493 
L 297.821947 195.668345 
L 293.857243 195.804839 
L 289.91143 196.178718 
L 286.596156 196.70505 
L 283.969532 197.335427 
L 282.118006 198.014146 
L 281.089426 198.638572 
L 280.730133 199.043046 
L 280.432719 199.790581 
L 280.440831 200.57525 
L 280.643462 201.128276 
L 281.097802 201.743666 
L 281.879275 202.412671 
L 284.969207 204.686567 
L 286.959859 206.075066 
L 289.092574 207.223379 
L 291.302728 208.146228 
L 293.561697 208.842934 
L 295.839484 209.331784 
L 298.123244 209.624783 
L 300.409528 209.73244 
L 303.263782 209.615969 
L 306.10552 209.242251 
L 308.935402 208.635915 
L 311.762432 207.811292 
L 315.159029 206.563392 
L 319.672775 204.630952 
L 326.917674 201.455845 
L 330.036195 200.349847 
L 330.502967 200.209381 
L 330.502967 200.209381 
" style="fill:none;opacity:0.7;stroke:#000000;stroke-linecap:square;stroke-width:1.2;"/>
   </g>
   <g id="line2d_23">
    <path clip-path="url(#p9faea86140)" d="M 330.519267 181.198083 
L 328.396499 180.70903 
L 323.234178 179.314845 
L 309.436341 175.564066 
L 305.401577 174.8166 
L 301.935695 174.393036 
L 298.507028 174.204074 
L 295.6732 174.26694 
L 292.855173 174.53057 
L 290.078441 174.999101 
L 287.383102 175.689846 
L 285.325379 176.41943 
L 283.437199 177.327296 
L 282.223324 178.139822 
L 281.317693 179.028786 
L 280.696331 180.060216 
L 280.452298 180.841673 
L 280.431556 181.544065 
L 280.612129 182.222693 
L 281.042589 182.925048 
L 281.740298 183.654135 
L 285.418655 186.773683 
L 286.945966 187.740432 
L 289.109592 188.796881 
L 291.354134 189.606986 
L 293.647878 190.18454 
L 295.962729 190.553169 
L 298.286116 190.729866 
L 301.19359 190.701525 
L 304.094291 190.412006 
L 306.982216 189.889824 
L 309.862356 189.157381 
L 312.733439 188.227536 
L 316.758141 186.665521 
L 328.039284 182.096182 
L 330.513588 181.390813 
L 330.513588 181.390813 
" style="fill:none;opacity:0.7;stroke:#000000;stroke-linecap:square;stroke-width:1.2;"/>
   </g>
   <g id="line2d_24">
    <path clip-path="url(#p9faea86140)" d="M 330.523338 162.353835 
L 327.951049 161.390087 
L 318.806252 157.832984 
L 313.068894 155.686753 
L 309.019093 154.429937 
L 305.543471 153.585734 
L 302.639102 153.080373 
L 299.765865 152.786017 
L 297.48941 152.736995 
L 294.663167 152.926275 
L 292.429737 153.279053 
L 290.245452 153.819484 
L 288.138157 154.559525 
L 286.134628 155.509947 
L 284.29579 156.676377 
L 283.090309 157.69325 
L 282.055929 158.823029 
L 281.171895 160.087648 
L 280.657142 161.128413 
L 280.431096 162.083099 
L 280.472443 162.924825 
L 280.752331 163.709611 
L 281.278817 164.505295 
L 282.768018 166.145489 
L 283.972513 167.399514 
L 285.383581 168.480604 
L 286.940729 169.379935 
L 288.579587 170.119059 
L 290.84404 170.873217 
L 293.165858 171.384957 
L 295.51548 171.68334 
L 297.877695 171.791025 
L 300.834966 171.684312 
L 303.785992 171.328116 
L 306.726236 170.753046 
L 309.656999 169.983547 
L 313.158651 168.821084 
L 317.821785 166.995172 
L 325.304821 164.023801 
L 328.077557 163.149094 
L 330.524208 162.572245 
L 330.524208 162.572245 
" style="fill:none;opacity:0.7;stroke:#000000;stroke-linecap:square;stroke-width:1.2;"/>
   </g>
   <g id="line2d_25">
    <path clip-path="url(#p9faea86140)" d="M 330.52741 143.509587 
L 314.393313 135.492471 
L 310.922479 134.05476 
L 307.434144 132.848876 
L 304.516892 132.068817 
L 301.603329 131.526762 
L 299.312242 131.297247 
L 297.039469 131.287938 
L 294.783182 131.504071 
L 292.563309 131.950766 
L 290.412463 132.639866 
L 288.362284 133.586667 
L 286.905483 134.471369 
L 285.541915 135.502274 
L 284.313208 136.676656 
L 283.224912 137.984829 
L 281.453272 140.499446 
L 280.769354 141.797329 
L 280.445381 142.968049 
L 280.449613 143.963062 
L 280.712356 144.85101 
L 281.462345 146.137062 
L 283.080454 148.345879 
L 283.896892 149.139714 
L 285.351649 150.16132 
L 286.946197 150.988367 
L 288.613714 151.641357 
L 290.917964 152.27279 
L 293.277826 152.661661 
L 295.666973 152.839845 
L 298.672426 152.807873 
L 301.677299 152.524593 
L 304.675516 152.015901 
L 308.259984 151.153126 
L 311.82021 150.044979 
L 316.560882 148.267897 
L 324.747899 145.153923 
L 327.573304 144.330736 
L 330.096552 143.817019 
L 330.534829 143.753678 
L 330.534829 143.753678 
" style="fill:none;opacity:0.7;stroke:#000000;stroke-linecap:square;stroke-width:1.2;"/>
   </g>
  </g>
 </g>
 <defs>
  <clipPath id="p9faea86140">
   <rect height="329.04" width="329.04" x="15.48" y="15.48"/>
  </clipPath>
 </defs>
</svg>
