<?xml version="1.0" encoding="utf-8" standalone="no"?>
<!DOCTYPE svg PUBLIC "-//W3C//DTD SVG 1.1//EN"
  "http://www.w3.org/Graphics/SVG/1.1/DTD/svg11.dtd">
<!-- Created with matplotlib (http://matplotlib.org/) -->
<svg height="360pt" version="1.1" viewBox="0 0 360 360" width="360pt" xmlns="http://www.w3.org/2000/svg" xmlns:xlink="http://www.w3.org/1999/xlink">
 <defs>
  <style type="text/css">
*{stroke-linecap:butt;stroke-linejoin:round;}
  </style>
 </defs>
 <g id="figure_1">
  <g id="patch_1">
   <path d="M 0 360 
L 360 360 
L 360 0 
L 0 0 
z
" style="fill:#ffffff;"/>
  </g>
  <g id="axes_1">
   <g id="line2d_1">
    <path clip-path="url(#p551f402b0f)" d="M 80.115958 218.656123 
L 79.795141 218.350633 
L 76.731371 218.197272 
L 75.235966 218.233426 
L 74.637389 218.434523 
L 71.638053 218.394458 
L 67.503165 218.299618 
L 61.361391 218.437429 
L 46.661148 218.994831 
L 40.20376 218.839614 
L 34.178248 218.688002 
L 31.356291 218.878338 
L 30.389127 218.982705 
L 30.207258 218.765601 
L 29.913921 217.527532 
L 30.302224 217.346667 
L 33.563821 216.361533 
L 37.883887 215.217783 
L 41.467891 214.533658 
L 44.399259 214.178471 
L 47.88645 213.982929 
L 51.369105 214.009835 
L 55.428638 214.286535 
L 60.05653 214.829222 
L 65.254624 215.654094 
L 74.443318 217.413278 
L 80.1026 218.490012 
L 80.1026 218.490012 
" style="fill:none;opacity:0.7;stroke:#000000;stroke-linecap:square;stroke-width:1.2;"/>
   </g>
   <g id="line2d_2">
    <path clip-path="url(#p551f402b0f)" d="M 80.120026 199.828363 
L 79.830616 199.458311 
L 77.80953 199.002886 
L 75.918746 198.697084 
L 75.399422 198.687618 
L 74.80484 198.82442 
L 71.815025 198.423997 
L 68.234529 197.929742 
L 63.187211 197.556407 
L 58.182199 197.41647 
L 51.995309 197.483117 
L 39.831722 197.862814 
L 35.777389 198.218195 
L 33.45465 198.5898 
L 31.382214 199.140068 
L 30.319371 199.45143 
L 30.076193 199.23843 
L 29.827758 198.758345 
L 30.092961 198.630197 
L 32.432192 197.915796 
L 37.957285 196.422556 
L 41.5599 195.697678 
L 45.116864 195.233891 
L 48.659125 195.012961 
L 52.201422 195.023289 
L 56.330725 195.282823 
L 61.037646 195.822403 
L 66.306491 196.680058 
L 72.725507 197.972894 
L 80.113211 199.687909 
L 80.113211 199.687909 
" style="fill:none;opacity:0.7;stroke:#000000;stroke-linecap:square;stroke-width:1.2;"/>
   </g>
   <g id="line2d_3">
    <path clip-path="url(#p551f402b0f)" d="M 80.124094 181.000602 
L 79.866092 180.565989 
L 78.800669 180.085128 
L 76.557875 179.347782 
L 75.562878 179.141809 
L 74.972291 179.214317 
L 71.48967 178.311999 
L 69.970438 177.89145 
L 66.723577 177.255528 
L 62.241762 176.596456 
L 57.768818 176.200883 
L 53.269011 176.048214 
L 47.481468 176.160004 
L 43.447746 176.448515 
L 40.055653 176.908304 
L 36.716878 177.603959 
L 33.940376 178.446991 
L 31.820051 179.343695 
L 30.066926 180.223896 
L 29.741594 179.989157 
L 29.772116 179.955888 
L 31.369227 179.452164 
L 38.036672 177.609814 
L 41.665675 176.836144 
L 45.270207 176.309832 
L 48.871182 176.028194 
L 52.473113 175.990942 
L 56.674911 176.208671 
L 60.859709 176.65088 
L 65.616442 177.389265 
L 70.949381 178.465848 
L 75.593846 179.597616 
L 80.123823 180.885806 
L 80.123823 180.885806 
" style="fill:none;opacity:0.7;stroke:#000000;stroke-linecap:square;stroke-width:1.2;"/>
   </g>
   <g id="line2d_4">
    <path clip-path="url(#p551f402b0f)" d="M 80.128162 162.172841 
L 79.901567 161.673667 
L 78.906659 160.99065 
L 77.178452 160.128758 
L 75.726333 159.596001 
L 75.139742 159.604214 
L 71.667463 158.283328 
L 70.149087 157.691332 
L 67.469622 156.880951 
L 63.523668 155.91622 
L 60.156951 155.298642 
L 56.786904 154.867532 
L 53.388838 154.641644 
L 49.340363 154.64992 
L 45.869473 154.892498 
L 43.035445 155.305989 
L 40.279584 155.953795 
L 37.602905 156.847536 
L 35.491112 157.765391 
L 32.804777 159.207275 
L 31.232518 160.269512 
L 29.882058 161.249914 
L 29.633261 161.213764 
L 29.785851 161.148126 
L 31.43637 160.661366 
L 39.34811 158.475542 
L 43.004811 157.724435 
L 46.662259 157.216115 
L 50.323665 156.96518 
L 53.98723 156.963521 
L 57.648353 157.169873 
L 61.892732 157.635157 
L 66.109405 158.316029 
L 70.915784 159.330833 
L 75.056277 160.407543 
L 79.717803 161.927622 
L 80.134434 162.083703 
L 80.134434 162.083703 
" style="fill:none;opacity:0.7;stroke:#000000;stroke-linecap:square;stroke-width:1.2;"/>
   </g>
   <g id="line2d_5">
    <path clip-path="url(#p551f402b0f)" d="M 80.13223 143.34508 
L 79.937042 142.781345 
L 79.012648 141.896171 
L 77.327479 140.772586 
L 75.889789 140.050193 
L 75.307192 139.994112 
L 71.845256 138.254658 
L 70.327736 137.491215 
L 67.646451 136.407011 
L 63.691896 135.096127 
L 60.310826 134.226282 
L 56.922019 133.594754 
L 54.08509 133.273168 
L 51.199953 133.168439 
L 48.297455 133.273971 
L 45.425839 133.620099 
L 43.191548 134.102445 
L 41.034053 134.792858 
L 38.942058 135.699266 
L 36.921771 136.814795 
L 34.391735 138.529434 
L 31.513648 140.698447 
L 30.184112 142.040274 
L 29.763005 142.403354 
L 29.465171 142.480787 
L 38.221463 139.920646 
L 41.921704 139.032391 
L 45.634145 138.377926 
L 48.735183 138.033608 
L 51.836475 137.881114 
L 55.563457 137.92272 
L 59.273614 138.179227 
L 63.5738 138.714863 
L 67.838845 139.49957 
L 72.094668 140.506613 
L 75.645417 141.557213 
L 79.737904 143.099833 
L 80.145045 143.2816 
L 80.145045 143.2816 
" style="fill:none;opacity:0.7;stroke:#000000;stroke-linecap:square;stroke-width:1.2;"/>
   </g>
   <g id="line2d_6">
    <path clip-path="url(#p551f402b0f)" d="M 142.714532 218.68803 
L 142.415007 218.387585 
L 138.404487 218.230482 
L 137.879848 218.279766 
L 137.278887 218.478669 
L 134.288596 218.373932 
L 130.167611 218.142126 
L 124.574879 218.10383 
L 118.479165 218.310684 
L 109.87913 218.61425 
L 103.403814 218.571003 
L 96.126168 218.504535 
L 93.940075 218.710164 
L 92.894846 218.815219 
L 92.728356 218.559653 
L 92.664362 218.2013 
L 93.318247 218.205273 
L 95.451747 218.117171 
L 104.461935 217.607152 
L 110.296527 217.558331 
L 117.248489 217.722586 
L 134.441699 218.20926 
L 142.298147 218.534885 
L 142.700046 218.56064 
L 142.700046 218.56064 
" style="fill:none;opacity:0.7;stroke:#000000;stroke-linecap:square;stroke-width:1.2;"/>
   </g>
   <g id="line2d_7">
    <path clip-path="url(#p551f402b0f)" d="M 142.7186 199.86027 
L 142.450482 199.495263 
L 140.457022 199.064568 
L 138.043304 198.733958 
L 137.446338 198.868566 
L 134.465567 198.403471 
L 130.898244 197.789672 
L 125.850054 197.272314 
L 121.393153 197.047641 
L 116.363664 197.025496 
L 107.085146 197.309193 
L 101.258508 197.687301 
L 97.754389 198.080342 
L 95.452569 198.524974 
L 93.989685 198.974839 
L 92.640269 199.420746 
L 92.592717 199.396773 
L 92.844393 199.451511 
L 93.914641 199.517079 
L 96.759549 199.370221 
L 106.333593 198.760341 
L 112.828438 198.616845 
L 120.468642 198.706177 
L 134.990508 199.112287 
L 139.976394 199.481518 
L 142.710657 199.758537 
L 142.710657 199.758537 
" style="fill:none;opacity:0.7;stroke:#000000;stroke-linecap:square;stroke-width:1.2;"/>
   </g>
   <g id="line2d_8">
    <path clip-path="url(#p551f402b0f)" d="M 142.722668 181.032509 
L 142.485957 180.602941 
L 141.446759 180.143365 
L 139.204112 179.403188 
L 138.20676 179.18815 
L 137.613789 179.258463 
L 134.642539 178.43301 
L 131.075921 177.423052 
L 127.135114 176.639012 
L 123.223369 176.074593 
L 119.303717 175.739325 
L 115.330811 175.62969 
L 110.697927 175.745424 
L 106.642333 176.059114 
L 103.220189 176.535525 
L 99.846804 177.23347 
L 97.053653 178.053117 
L 94.905733 178.929455 
L 93.587531 179.703012 
L 92.554033 180.596993 
L 92.705538 180.709387 
L 93.175814 180.818713 
L 94.513058 180.842829 
L 98.045129 180.609181 
L 109.460507 179.747477 
L 115.456403 179.573998 
L 123.79432 179.606256 
L 131.456234 179.807065 
L 136.712199 180.138495 
L 140.01365 180.52677 
L 142.721269 180.956434 
L 142.721269 180.956434 
" style="fill:none;opacity:0.7;stroke:#000000;stroke-linecap:square;stroke-width:1.2;"/>
   </g>
   <g id="line2d_9">
    <path clip-path="url(#p551f402b0f)" d="M 142.726736 162.204748 
L 142.521432 161.710619 
L 141.552749 161.048886 
L 139.826415 160.187823 
L 138.370215 159.642342 
L 137.78124 159.64836 
L 134.81951 158.462548 
L 131.793328 157.234201 
L 128.431895 156.21506 
L 125.066246 155.376275 
L 121.68946 154.757035 
L 118.310367 154.359164 
L 115.449792 154.208891 
L 111.977718 154.2474 
L 108.499005 154.533105 
L 105.651723 154.990492 
L 102.876613 155.681715 
L 100.176948 156.612896 
L 98.048605 157.557676 
L 95.921517 158.71344 
L 94.346997 159.752144 
L 93.155459 160.800146 
L 92.543474 161.626799 
L 92.508161 161.876963 
L 92.690457 162.055863 
L 93.169455 162.174045 
L 94.564768 162.19401 
L 98.103764 161.926807 
L 110.872321 160.715369 
L 116.355309 160.485798 
L 123.616384 160.434732 
L 130.199835 160.58344 
L 135.543106 160.94117 
L 138.976084 161.381466 
L 142.73188 162.15433 
L 142.73188 162.15433 
" style="fill:none;opacity:0.7;stroke:#000000;stroke-linecap:square;stroke-width:1.2;"/>
   </g>
   <g id="line2d_10">
    <path clip-path="url(#p551f402b0f)" d="M 142.730804 143.376987 
L 142.556907 142.818297 
L 142.006108 142.239909 
L 140.853567 141.384209 
L 139.042239 140.299756 
L 138.533671 140.096534 
L 137.948691 140.038257 
L 134.996482 138.492087 
L 131.971341 136.922414 
L 128.606885 135.586714 
L 125.230035 134.46709 
L 121.837613 133.611731 
L 119.006998 133.109399 
L 116.150383 132.816695 
L 113.25974 132.759325 
L 110.353301 132.939198 
L 108.053124 133.269228 
L 105.807827 133.786949 
L 103.635336 134.512147 
L 101.525352 135.450775 
L 99.485222 136.593821 
L 96.953636 138.345182 
L 94.714479 140.062103 
L 93.267573 141.485975 
L 92.658208 142.40101 
L 92.421998 143.107776 
L 92.481194 143.339393 
L 92.796863 143.502528 
L 94.066857 143.566795 
L 96.971421 143.357209 
L 102.449286 142.674765 
L 109.244182 141.874873 
L 114.20083 141.496953 
L 119.763453 141.295917 
L 126.48833 141.283775 
L 131.325616 141.475789 
L 135.533546 141.84026 
L 139.007163 142.381533 
L 142.378553 143.223729 
L 142.742491 143.352227 
L 142.742491 143.352227 
" style="fill:none;opacity:0.7;stroke:#000000;stroke-linecap:square;stroke-width:1.2;"/>
   </g>
   <g id="line2d_11">
    <path clip-path="url(#p551f402b0f)" d="M 205.313106 218.719938 
L 205.034872 218.424537 
L 200.52373 218.326107 
L 199.920385 218.522814 
L 197.433523 218.392762 
L 188.899728 217.821073 
L 184.454857 217.809421 
L 178.885052 217.998147 
L 170.753646 218.263175 
L 162.977458 218.254157 
L 158.683154 218.303205 
L 156.523859 218.54199 
L 155.292204 218.656961 
L 155.438844 218.762021 
L 156.33427 219.063879 
L 159.1869 219.6083 
L 163.919863 220.287493 
L 169.214138 220.839132 
L 174.446149 221.170118 
L 179.652381 221.265146 
L 184.233611 221.122088 
L 188.223581 220.790057 
L 193.899829 220.064933 
L 203.20435 218.841532 
L 205.297492 218.631267 
L 205.297492 218.631267 
" style="fill:none;opacity:0.7;stroke:#000000;stroke-linecap:square;stroke-width:1.2;"/>
   </g>
   <g id="line2d_12">
    <path clip-path="url(#p551f402b0f)" d="M 205.317174 199.892177 
L 205.070347 199.532215 
L 202.644829 199.041949 
L 200.687186 198.780299 
L 200.087836 198.912711 
L 197.609517 198.481136 
L 191.31157 197.321051 
L 186.842353 196.838306 
L 182.37865 196.620853 
L 177.853056 196.631636 
L 170.294253 196.932553 
L 164.435564 197.373779 
L 160.314232 197.866026 
L 158.014469 198.340722 
L 156.597157 198.80961 
L 155.543093 199.405545 
L 155.267501 199.781768 
L 155.38368 199.959868 
L 155.777815 200.20501 
L 157.06275 200.625317 
L 159.26671 201.084646 
L 162.797973 201.572326 
L 167.54614 201.98647 
L 172.868859 202.2116 
L 178.758011 202.211968 
L 184.008669 201.977922 
L 188.643052 201.545698 
L 203.24259 199.911021 
L 205.308103 199.829164 
L 205.308103 199.829164 
" style="fill:none;opacity:0.7;stroke:#000000;stroke-linecap:square;stroke-width:1.2;"/>
   </g>
   <g id="line2d_13">
    <path clip-path="url(#p551f402b0f)" d="M 205.321242 181.064416 
L 205.105822 180.639893 
L 204.092849 180.201601 
L 201.368543 179.315835 
L 200.850642 179.234491 
L 200.255287 179.302609 
L 197.785511 178.56951 
L 192.622445 177.005212 
L 188.681124 176.168128 
L 185.318311 175.657155 
L 181.955645 175.33834 
L 178.552447 175.211453 
L 174.498177 175.290981 
L 170.422972 175.594488 
L 166.966065 176.054087 
L 163.543052 176.72822 
L 160.7237 177.477702 
L 158.514825 178.280791 
L 157.034993 179.013237 
L 155.903542 179.84112 
L 155.358234 180.489079 
L 155.236196 180.892726 
L 155.328516 181.157714 
L 155.63896 181.462886 
L 156.273715 181.796847 
L 157.656888 182.233494 
L 159.915591 182.649783 
L 163.449996 183.036782 
L 167.650156 183.256491 
L 173.050297 183.300445 
L 179.036323 183.130757 
L 184.374085 182.784978 
L 189.667364 182.222277 
L 199.536262 181.120159 
L 202.779328 180.990145 
L 205.318715 181.027061 
L 205.318715 181.027061 
" style="fill:none;opacity:0.7;stroke:#000000;stroke-linecap:square;stroke-width:1.2;"/>
   </g>
   <g id="line2d_14">
    <path clip-path="url(#p551f402b0f)" d="M 205.32531 162.236655 
L 205.141297 161.747571 
L 204.198838 161.107123 
L 202.005145 160.038829 
L 201.014098 159.688682 
L 200.422738 159.692506 
L 197.961505 158.657884 
L 193.363937 156.722573 
L 189.411101 155.499661 
L 186.038115 154.694353 
L 182.655514 154.134075 
L 179.249273 153.828631 
L 175.781024 153.796754 
L 172.869506 153.974681 
L 169.977189 154.347727 
L 167.145049 154.939119 
L 164.368249 155.771615 
L 161.667213 156.840649 
L 159.543187 157.916288 
L 157.47283 159.216864 
L 156.504804 159.994384 
L 155.529257 161.110926 
L 155.223771 161.821442 
L 155.273352 162.35556 
L 155.500105 162.720761 
L 155.981654 163.104394 
L 156.721347 163.447858 
L 158.23009 163.841373 
L 160.556824 164.177842 
L 163.522933 164.407444 
L 167.769345 164.489724 
L 173.251983 164.353732 
L 180.544704 163.936849 
L 186.550995 163.390109 
L 199.541692 162.047579 
L 202.302172 162.021598 
L 204.9991 162.175415 
L 205.329326 162.224958 
L 205.329326 162.224958 
" style="fill:none;opacity:0.7;stroke:#000000;stroke-linecap:square;stroke-width:1.2;"/>
   </g>
   <g id="line2d_15">
    <path clip-path="url(#p551f402b0f)" d="M 205.329378 143.408894 
L 205.176773 142.855249 
L 204.649033 142.29349 
L 203.501058 141.44589 
L 201.687419 140.350472 
L 201.177553 140.142874 
L 200.590189 140.082403 
L 197.647024 138.471561 
L 194.633898 136.799669 
L 191.272606 135.362284 
L 187.89073 134.156094 
L 185.059269 133.371007 
L 182.225876 132.792784 
L 179.37068 132.438793 
L 176.477431 132.338212 
L 173.568889 132.493253 
L 171.253499 132.810558 
L 168.98118 133.314627 
L 166.779255 134.020931 
L 164.629333 134.9417 
L 162.563349 136.057794 
L 160.538123 137.40037 
L 157.910666 139.420491 
L 156.785934 140.42332 
L 155.879434 141.463032 
L 155.386778 142.292428 
L 155.173585 143.114642 
L 155.274728 143.76477 
L 155.497217 144.197999 
L 155.944973 144.610765 
L 156.718199 144.959151 
L 158.267613 145.323148 
L 160.604389 145.607573 
L 163.60541 145.746418 
L 167.904922 145.685375 
L 174.093081 145.329443 
L 182.722557 144.606235 
L 190.006803 143.779417 
L 195.996393 143.157954 
L 199.547123 142.975 
L 201.798558 143.007151 
L 204.666692 143.27797 
L 205.339937 143.422855 
L 205.339937 143.422855 
" style="fill:none;opacity:0.7;stroke:#000000;stroke-linecap:square;stroke-width:1.2;"/>
   </g>
   <g id="line2d_16">
    <path clip-path="url(#p551f402b0f)" d="M 267.91168 218.751845 
L 267.654738 218.461488 
L 264.186994 218.35353 
L 263.167613 218.372448 
L 262.561883 218.56696 
L 260.081695 218.386165 
L 251.56358 217.55119 
L 247.111693 217.443149 
L 242.658991 217.537305 
L 227.398879 218.00108 
L 221.24014 218.101875 
L 219.107643 218.373815 
L 218.147365 218.636468 
L 217.914908 218.871512 
L 217.960223 219.047695 
L 218.213326 219.322742 
L 218.850092 219.700633 
L 222.895618 221.378658 
L 226.360362 222.638869 
L 229.274738 223.477527 
L 232.205897 224.109975 
L 235.697632 224.617947 
L 239.173922 224.854218 
L 242.633776 224.827329 
L 246.054428 224.537593 
L 248.887415 224.091406 
L 252.281163 223.312413 
L 256.783358 222.005563 
L 265.955067 219.228524 
L 267.894938 218.701894 
L 267.894938 218.701894 
" style="fill:none;opacity:0.7;stroke:#000000;stroke-linecap:square;stroke-width:1.2;"/>
   </g>
   <g id="line2d_17">
    <path clip-path="url(#p551f402b0f)" d="M 267.915748 199.924084 
L 267.690213 199.569167 
L 264.824289 199.018296 
L 263.331068 198.826639 
L 262.729334 198.956857 
L 260.257689 198.474539 
L 253.413357 197.022889 
L 249.502107 196.514714 
L 245.590451 196.244795 
L 241.649254 196.191121 
L 236.435238 196.364122 
L 229.983975 196.817695 
L 224.066941 197.465984 
L 221.130279 198.007962 
L 219.590472 198.483461 
L 218.578686 198.99895 
L 218.025431 199.55767 
L 217.898516 200.002829 
L 218.012502 200.331003 
L 218.385949 200.729326 
L 219.14103 201.206015 
L 222.947894 202.990196 
L 225.825375 203.99882 
L 228.759388 204.775353 
L 231.724299 205.326839 
L 234.679716 205.681591 
L 238.216516 205.862524 
L 241.7413 205.795024 
L 245.230417 205.484111 
L 248.691685 204.928907 
L 252.139947 204.128979 
L 257.276952 202.664108 
L 263.445679 200.882386 
L 267.263362 200.022098 
L 267.905549 199.899791 
L 267.905549 199.899791 
" style="fill:none;opacity:0.7;stroke:#000000;stroke-linecap:square;stroke-width:1.2;"/>
   </g>
   <g id="line2d_18">
    <path clip-path="url(#p551f402b0f)" d="M 267.919816 181.096323 
L 267.725688 180.676845 
L 266.738939 180.259838 
L 264.013722 179.366551 
L 263.494524 179.280831 
L 262.896785 179.346754 
L 260.433683 178.562913 
L 254.719501 176.680005 
L 250.783873 175.770596 
L 247.413899 175.223942 
L 244.043722 174.898875 
L 240.613264 174.791984 
L 236.552312 174.924097 
L 232.468866 175.315141 
L 228.999062 175.861984 
L 225.562006 176.618275 
L 222.72597 177.449784 
L 220.557737 178.341036 
L 219.238393 179.122212 
L 218.529802 179.751745 
L 218.078502 180.359625 
L 217.875705 181.057656 
L 217.972563 181.488902 
L 218.299785 181.960139 
L 218.931766 182.489545 
L 220.800718 183.624159 
L 222.419191 184.371176 
L 224.714808 185.184602 
L 227.054234 185.817255 
L 230.043026 186.381551 
L 233.043291 186.727246 
L 236.639725 186.891402 
L 240.231499 186.815753 
L 243.794868 186.513806 
L 247.325561 185.990803 
L 250.83072 185.24243 
L 256.059124 183.828002 
L 262.920253 181.968383 
L 266.031547 181.367501 
L 267.916161 181.097688 
L 267.916161 181.097688 
" style="fill:none;opacity:0.7;stroke:#000000;stroke-linecap:square;stroke-width:1.2;"/>
   </g>
   <g id="line2d_19">
    <path clip-path="url(#p551f402b0f)" d="M 267.923884 162.268562 
L 267.761163 161.784523 
L 266.844928 161.16536 
L 264.651382 160.094235 
L 263.65798 159.735023 
L 263.064236 159.736651 
L 260.609677 158.651286 
L 255.4641 156.356434 
L 251.512194 155.063941 
L 248.696379 154.347706 
L 245.308888 153.738454 
L 242.466113 153.445845 
L 239.576003 153.362535 
L 236.669386 153.484072 
L 233.758067 153.81432 
L 230.88428 154.3595 
L 228.070672 155.137553 
L 225.325034 156.143615 
L 223.163592 157.142247 
L 221.05909 158.364576 
L 219.605874 159.432171 
L 218.72102 160.309383 
L 218.131573 161.161581 
L 217.887106 161.827909 
L 217.866307 162.380569 
L 218.047834 162.916281 
L 218.433527 163.47426 
L 219.465675 164.39052 
L 220.331373 164.986987 
L 221.890489 165.752156 
L 224.17821 166.552514 
L 226.528787 167.143257 
L 228.940536 167.554849 
L 231.978818 167.856042 
L 235.632221 167.959203 
L 239.285577 167.829481 
L 242.915937 167.489639 
L 246.514001 166.94945 
L 250.078259 166.207535 
L 255.390361 164.812273 
L 261.791793 163.152523 
L 264.558874 162.632703 
L 267.926772 162.295585 
L 267.926772 162.295585 
" style="fill:none;opacity:0.7;stroke:#000000;stroke-linecap:square;stroke-width:1.2;"/>
   </g>
   <g id="line2d_20">
    <path clip-path="url(#p551f402b0f)" d="M 267.927952 143.440801 
L 267.796638 142.892201 
L 267.291958 142.347071 
L 266.14855 141.507572 
L 264.332598 140.401189 
L 263.821435 140.189215 
L 263.231687 140.126549 
L 260.785671 138.73966 
L 256.205676 136.144394 
L 252.809379 134.675891 
L 249.986473 133.6589 
L 247.149741 132.862294 
L 244.307638 132.298233 
L 241.433819 131.979934 
L 238.536399 131.935551 
L 236.204607 132.102894 
L 233.88303 132.451165 
L 231.600886 132.990118 
L 229.384273 133.731609 
L 227.216904 134.685842 
L 225.131674 135.830029 
L 223.095109 137.19904 
L 220.518137 139.255262 
L 219.422077 140.285756 
L 218.491294 141.44009 
L 217.988111 142.418504 
L 217.830083 143.16731 
L 217.892683 143.8047 
L 218.294672 144.732135 
L 219.093082 145.719003 
L 219.862029 146.349816 
L 220.82238 146.892112 
L 222.499145 147.558339 
L 224.806304 148.221947 
L 227.213338 148.668831 
L 230.279506 148.977432 
L 233.367186 149.068879 
L 237.082152 148.950681 
L 240.786343 148.630282 
L 245.073211 148.022734 
L 249.30767 147.173962 
L 254.705414 145.78971 
L 261.206981 144.180452 
L 264.048908 143.689509 
L 266.983564 143.461149 
L 267.937383 143.493482 
L 267.937383 143.493482 
" style="fill:none;opacity:0.7;stroke:#000000;stroke-linecap:square;stroke-width:1.2;"/>
   </g>
   <g id="line2d_21">
    <path clip-path="url(#p551f402b0f)" d="M 330.510254 218.783752 
L 330.274603 218.49844 
L 328.267315 218.4764 
L 325.811495 218.418788 
L 325.203381 218.611106 
L 323.221773 218.440999 
L 321.237927 218.097965 
L 318.160948 217.669649 
L 313.670352 217.240129 
L 309.768528 217.076877 
L 305.868962 217.108438 
L 298.954642 217.407408 
L 290.608891 217.71677 
L 283.203096 217.956825 
L 281.132869 218.342308 
L 280.654701 218.673831 
L 280.524723 219.077695 
L 280.62164 219.42458 
L 280.987809 219.883463 
L 281.783514 220.454132 
L 284.883237 222.289166 
L 287.703338 224.11677 
L 289.95584 225.357203 
L 292.272029 226.393589 
L 294.612848 227.208901 
L 296.94642 227.821575 
L 299.267553 228.23442 
L 301.583708 228.454377 
L 303.894872 228.485992 
L 306.185482 228.33472 
L 309.017397 227.894757 
L 311.831043 227.178801 
L 314.638015 226.190892 
L 317.997772 224.736335 
L 322.98994 222.294637 
L 327.756683 220.041744 
L 330.492384 218.772522 
L 330.492384 218.772522 
" style="fill:none;opacity:0.7;stroke:#000000;stroke-linecap:square;stroke-width:1.2;"/>
   </g>
   <g id="line2d_22">
    <path clip-path="url(#p551f402b0f)" d="M 330.514322 199.955991 
L 330.310078 199.606118 
L 326.499464 198.899949 
L 325.97495 198.87298 
L 325.370832 199.001003 
L 323.396585 198.588725 
L 320.920681 197.86989 
L 317.775268 197.129474 
L 313.83858 196.420035 
L 310.47967 196.015668 
L 307.124386 195.809148 
L 303.13551 195.793931 
L 298.487457 196.005253 
L 292.59632 196.511111 
L 286.635266 197.238219 
L 283.688821 197.814015 
L 282.174256 198.315287 
L 281.214829 198.861386 
L 280.766814 199.35966 
L 280.546628 199.839558 
L 280.52764 200.29387 
L 280.722395 200.798119 
L 281.238679 201.38632 
L 282.157052 202.064621 
L 283.889579 203.249036 
L 286.042067 204.800184 
L 288.288629 206.129543 
L 290.585534 207.227067 
L 292.940904 208.094537 
L 295.308418 208.739816 
L 297.670383 209.181876 
L 300.027468 209.429072 
L 302.382326 209.493093 
L 305.307142 209.322317 
L 308.196981 208.88454 
L 311.064162 208.187081 
L 313.91639 207.230583 
L 317.333416 205.807602 
L 322.964312 203.169928 
L 327.288112 201.258189 
L 330.502995 199.970419 
L 330.502995 199.970419 
" style="fill:none;opacity:0.7;stroke:#000000;stroke-linecap:square;stroke-width:1.2;"/>
   </g>
   <g id="line2d_23">
    <path clip-path="url(#p551f402b0f)" d="M 330.51839 181.12823 
L 330.345553 180.713797 
L 329.385029 180.318075 
L 326.658902 179.417268 
L 326.138406 179.327172 
L 325.538283 179.3909 
L 323.571397 178.736452 
L 316.818702 176.326484 
L 313.445668 175.472795 
L 310.070734 174.85767 
L 307.259502 174.53637 
L 303.835883 174.374693 
L 300.357567 174.450451 
L 296.848286 174.748806 
L 293.344455 175.247548 
L 289.861963 175.952408 
L 286.412655 176.866503 
L 284.174547 177.671206 
L 282.657084 178.424933 
L 281.495959 179.290322 
L 280.878928 180.045489 
L 280.5609 180.741232 
L 280.504829 181.348697 
L 280.682456 181.956018 
L 281.152516 182.617132 
L 281.947789 183.348151 
L 286.632135 186.873553 
L 288.890066 188.057002 
L 291.24133 188.989241 
L 293.634638 189.676838 
L 296.034465 190.150275 
L 298.431532 190.423566 
L 301.426151 190.508353 
L 304.40627 190.323166 
L 307.355162 189.882017 
L 310.277037 189.196627 
L 313.177377 188.26697 
L 316.651671 186.872408 
L 328.310682 181.916896 
L 330.513606 181.168316 
L 330.513606 181.168316 
" style="fill:none;opacity:0.7;stroke:#000000;stroke-linecap:square;stroke-width:1.2;"/>
   </g>
   <g id="line2d_24">
    <path clip-path="url(#p551f402b0f)" d="M 330.522458 162.300469 
L 330.381028 161.821475 
L 329.491018 161.223596 
L 327.297619 160.149641 
L 326.301862 159.781364 
L 325.705734 159.780797 
L 323.746209 158.884178 
L 317.561194 155.96182 
L 314.175036 154.779848 
L 311.354642 154.00106 
L 308.52846 153.430753 
L 305.683891 153.076374 
L 302.793661 152.944711 
L 299.889783 153.039838 
L 296.970315 153.363867 
L 294.073581 153.908044 
L 291.231611 154.681703 
L 288.446965 155.683683 
L 286.252853 156.660745 
L 284.138982 157.852357 
L 282.687772 158.886405 
L 281.77709 159.719257 
L 280.991041 160.731318 
L 280.575172 161.642907 
L 280.482018 162.403524 
L 280.642516 163.113917 
L 281.066352 163.847945 
L 281.738526 164.631681 
L 284.451289 167.186123 
L 286.096534 168.251944 
L 288.357179 169.406902 
L 290.72598 170.287067 
L 293.145533 170.910806 
L 295.578488 171.314625 
L 298.013522 171.518139 
L 301.057946 171.522533 
L 304.087951 171.268252 
L 307.088854 170.771317 
L 310.062082 170.045686 
L 313.008472 169.091694 
L 316.536723 167.687291 
L 326.824286 163.420476 
L 330.524218 162.366212 
L 330.524218 162.366212 
" style="fill:none;opacity:0.7;stroke:#000000;stroke-linecap:square;stroke-width:1.2;"/>
   </g>
   <g id="line2d_25">
    <path clip-path="url(#p551f402b0f)" d="M 330.526526 143.472708 
L 330.416503 142.929153 
L 329.934883 142.400652 
L 328.796042 141.569254 
L 326.977778 140.451905 
L 326.465317 140.235555 
L 325.873185 140.170694 
L 323.921022 139.031905 
L 318.305755 135.707656 
L 314.909263 134.18609 
L 312.079623 133.146286 
L 309.238437 132.347829 
L 306.384777 131.804822 
L 304.075537 131.561554 
L 301.754908 131.507985 
L 299.422937 131.647308 
L 297.092344 131.978928 
L 294.788983 132.503283 
L 292.541136 133.228393 
L 290.345365 134.164716 
L 288.229221 135.288401 
L 286.158706 136.626995 
L 284.129229 138.213685 
L 282.602795 139.582144 
L 281.538498 140.777646 
L 280.78696 142.014191 
L 280.487655 143.019558 
L 280.496418 143.868412 
L 280.767152 144.674848 
L 281.529262 145.915211 
L 283.005859 147.740481 
L 283.932979 148.564487 
L 285.560933 149.630336 
L 287.247817 150.505171 
L 289.009193 151.205073 
L 291.431418 151.895246 
L 293.888139 152.338359 
L 296.357853 152.569164 
L 299.452149 152.597257 
L 302.540714 152.371038 
L 305.604831 151.908229 
L 308.640764 151.22687 
L 311.645568 150.333367 
L 315.23192 148.990512 
L 326.313797 144.564075 
L 328.858744 143.893471 
L 330.534829 143.564109 
L 330.534829 143.564109 
" style="fill:none;opacity:0.7;stroke:#000000;stroke-linecap:square;stroke-width:1.2;"/>
   </g>
  </g>
 </g>
 <defs>
  <clipPath id="p551f402b0f">
   <rect height="329.04" width="329.04" x="15.48" y="15.48"/>
  </clipPath>
 </defs>
</svg>
