<?xml version="1.0" encoding="utf-8" standalone="no"?>
<!DOCTYPE svg PUBLIC "-//W3C//DTD SVG 1.1//EN"
  "http://www.w3.org/Graphics/SVG/1.1/DTD/svg11.dtd">
<!-- Created with matplotlib (http://matplotlib.org/) -->
<svg height="360pt" version="1.1" viewBox="0 0 360 360" width="360pt" xmlns="http://www.w3.org/2000/svg" xmlns:xlink="http://www.w3.org/1999/xlink">
 <defs>
  <style type="text/css">
*{stroke-linecap:butt;stroke-linejoin:round;}
  </style>
 </defs>
 <g id="figure_1">
  <g id="patch_1">
   <path d="M 0 360 
L 360 360 
L 360 0 
L 0 0 
z
" style="fill:#ffffff;"/>
  </g>
  <g id="axes_1">
   <g id="line2d_1">
    <path clip-path="url(#p6c52a03520)" d="M 80.293137 218.549881 
L 80.303531 217.924116 
L 79.457869 217.820428 
L 77.642377 217.741529 
L 77.17437 217.867599 
L 76.543483 218.311982 
L 75.292442 218.308931 
L 73.635755 218.168619 
L 72.769821 217.992849 
L 69.891135 217.920793 
L 65.508758 218.005364 
L 61.197539 218.35389 
L 52.155456 219.212795 
L 48.542558 219.294586 
L 44.249417 219.176901 
L 39.736559 218.843245 
L 35.500085 218.532248 
L 32.660243 218.533951 
L 31.216073 218.559439 
L 30.76326 218.314974 
L 30.382672 217.722903 
L 29.925586 216.822247 
L 30.300745 216.634739 
L 33.819436 215.726866 
L 38.430178 214.694712 
L 42.192195 214.102291 
L 45.239225 213.815919 
L 48.836143 213.696108 
L 52.418261 213.792327 
L 56.566842 214.131015 
L 63.586768 214.971487 
L 69.939596 215.908068 
L 75.639459 216.939019 
L 79.075021 217.795293 
L 80.280692 218.231858 
L 80.280692 218.231858 
" style="fill:none;opacity:0.7;stroke:#000000;stroke-linecap:square;stroke-width:1.2;"/>
   </g>
   <g id="line2d_2">
    <path clip-path="url(#p6c52a03520)" d="M 80.297198 199.755388 
L 80.249038 198.968324 
L 79.578157 198.693301 
L 78.190541 198.361252 
L 77.801534 198.293273 
L 77.337537 198.356327 
L 76.710638 198.736529 
L 75.465532 198.551425 
L 73.813234 198.175338 
L 72.948108 197.885034 
L 71.157125 197.606148 
L 67.292764 197.253885 
L 64.056247 197.15642 
L 59.721234 197.293338 
L 45.642015 198.066751 
L 35.24092 198.403653 
L 32.534003 198.790748 
L 31.141003 199.061497 
L 30.669094 198.972266 
L 30.243581 198.591356 
L 29.839575 198.086223 
L 30.091852 197.95134 
L 33.302042 197.138133 
L 39.171779 195.825504 
L 42.928685 195.231185 
L 46.605789 194.890734 
L 50.250253 194.78078 
L 53.884037 194.893296 
L 58.682671 195.286796 
L 65.785678 196.133128 
L 71.629292 197.08155 
L 75.652109 197.916181 
L 78.201788 198.661367 
L 79.794635 199.191245 
L 80.291284 199.462977 
L 80.291284 199.462977 
" style="fill:none;opacity:0.7;stroke:#000000;stroke-linecap:square;stroke-width:1.2;"/>
   </g>
   <g id="line2d_3">
    <path clip-path="url(#p6c52a03520)" d="M 80.301259 180.960895 
L 80.311974 180.041621 
L 79.965977 179.726076 
L 79.062067 179.256059 
L 77.96069 178.845016 
L 77.500703 178.845055 
L 76.877793 179.161076 
L 75.638621 178.793919 
L 73.990713 178.182056 
L 73.126394 177.77722 
L 71.334488 177.275514 
L 68.009988 176.649006 
L 64.758385 176.242239 
L 61.487094 176.069596 
L 57.6535 176.103509 
L 51.791372 176.435361 
L 44.606753 177.021583 
L 38.431939 177.799132 
L 35.022259 178.453669 
L 32.971066 179.029354 
L 30.521975 179.812189 
L 30.083529 179.596217 
L 29.762444 179.306859 
L 31.51752 178.851902 
L 39.92132 176.931036 
L 43.689135 176.323448 
L 47.404391 175.956864 
L 51.106405 175.827788 
L 54.791832 175.92589 
L 59.657789 176.29531 
L 65.662429 176.98166 
L 70.401487 177.750393 
L 74.515284 178.607433 
L 77.249587 179.389168 
L 79.821797 180.370559 
L 80.301877 180.694096 
L 80.301877 180.694096 
" style="fill:none;opacity:0.7;stroke:#000000;stroke-linecap:square;stroke-width:1.2;"/>
   </g>
   <g id="line2d_4">
    <path clip-path="url(#p6c52a03520)" d="M 80.30532 162.166401 
L 80.374911 161.114918 
L 80.071779 160.665337 
L 79.203508 159.998347 
L 78.119846 159.396759 
L 77.66387 159.333783 
L 77.044948 159.585623 
L 75.811711 159.036413 
L 71.511851 156.94488 
L 68.734987 156.147823 
L 65.463379 155.419444 
L 62.722251 155.036476 
L 59.990987 154.822957 
L 56.630931 154.785524 
L 51.908239 155.03322 
L 47.727017 155.467245 
L 44.198364 156.059921 
L 40.056196 157.025988 
L 36.888853 157.962334 
L 34.10617 158.968323 
L 32.057973 159.949988 
L 30.35492 160.780093 
L 29.783452 160.655825 
L 29.623834 160.597851 
L 29.674065 160.584542 
L 32.267254 159.960666 
L 41.319218 157.880669 
L 45.104292 157.29103 
L 48.868568 156.940304 
L 52.624835 156.843872 
L 56.976956 156.997603 
L 61.889652 157.407094 
L 66.741418 158.004043 
L 71.546589 158.860716 
L 75.101177 159.710717 
L 77.280611 160.422807 
L 79.84896 161.549873 
L 80.312469 161.925215 
L 80.312469 161.925215 
" style="fill:none;opacity:0.7;stroke:#000000;stroke-linecap:square;stroke-width:1.2;"/>
   </g>
   <g id="line2d_5">
    <path clip-path="url(#p6c52a03520)" d="M 80.309381 143.371908 
L 80.437847 142.188216 
L 80.177581 141.604597 
L 79.344948 140.740634 
L 78.279002 139.948502 
L 77.827037 139.822511 
L 77.212103 140.01017 
L 75.9848 139.278907 
L 71.689214 136.614246 
L 68.909667 135.555927 
L 66.171707 134.691948 
L 63.424244 134.065699 
L 60.67705 133.64515 
L 57.900278 133.437542 
L 54.991883 133.451317 
L 51.427996 133.689134 
L 48.449677 134.089553 
L 45.536475 134.711699 
L 42.661755 135.587968 
L 39.795173 136.681856 
L 36.695523 138.081997 
L 33.845192 139.506566 
L 31.713644 140.837472 
L 30.175269 141.856262 
L 29.465171 141.901143 
L 29.720315 141.833793 
L 35.024704 140.55862 
L 40.183103 139.302304 
L 44.02069 138.570792 
L 47.84409 138.076014 
L 51.026804 137.86718 
L 54.829721 137.846662 
L 59.228639 138.061105 
L 64.185819 138.52701 
L 67.851273 139.051289 
L 72.114304 139.884875 
L 75.106597 140.671838 
L 76.777363 141.23435 
L 79.578614 142.51513 
L 80.323062 143.156334 
L 80.323062 143.156334 
" style="fill:none;opacity:0.7;stroke:#000000;stroke-linecap:square;stroke-width:1.2;"/>
   </g>
   <g id="line2d_6">
    <path clip-path="url(#p6c52a03520)" d="M 142.781104 218.581732 
L 142.710347 217.941515 
L 140.176867 217.792156 
L 139.707564 217.913858 
L 139.074298 218.356049 
L 137.826033 218.326248 
L 136.177706 218.132448 
L 135.315366 217.921649 
L 133.000681 217.771899 
L 129.135827 217.690349 
L 125.902531 217.812025 
L 120.493373 218.298195 
L 114.682135 218.810985 
L 110.452338 218.940751 
L 106.115968 218.855009 
L 101.530992 218.54418 
L 97.204058 218.317269 
L 93.264489 218.292072 
L 92.88186 217.928721 
L 92.66726 217.47808 
L 97.491117 217.367305 
L 103.836178 217.180203 
L 109.921892 217.222395 
L 117.664594 217.519576 
L 125.245927 217.770194 
L 139.867986 217.946405 
L 142.767532 218.30236 
L 142.767532 218.30236 
" style="fill:none;opacity:0.7;stroke:#000000;stroke-linecap:square;stroke-width:1.2;"/>
   </g>
   <g id="line2d_7">
    <path clip-path="url(#p6c52a03520)" d="M 142.785165 199.787239 
L 142.773283 199.014813 
L 142.114611 198.753996 
L 140.336023 198.343899 
L 139.870731 198.402586 
L 139.241453 198.780596 
L 137.999123 198.568742 
L 136.355185 198.139166 
L 135.493652 197.813835 
L 133.710118 197.466325 
L 129.846792 196.999151 
L 126.604496 196.821507 
L 122.805157 196.867787 
L 117.748417 197.199878 
L 110.58083 197.640389 
L 101.860553 197.96004 
L 98.409459 198.141302 
L 95.615421 198.510864 
L 92.87261 198.947785 
L 92.557149 198.753418 
L 92.723276 198.768035 
L 93.872649 198.855649 
L 96.963348 198.781183 
L 107.655264 198.402392 
L 114.340811 198.4142 
L 129.745864 198.608747 
L 136.670379 198.702705 
L 139.89901 198.980043 
L 142.778125 199.533479 
L 142.778125 199.533479 
" style="fill:none;opacity:0.7;stroke:#000000;stroke-linecap:square;stroke-width:1.2;"/>
   </g>
   <g id="line2d_8">
    <path clip-path="url(#p6c52a03520)" d="M 142.789226 180.992745 
L 142.83622 180.08811 
L 142.501375 179.78421 
L 141.252465 179.170707 
L 140.495179 178.895643 
L 140.033898 178.891314 
L 139.408608 179.205143 
L 138.172212 178.811236 
L 136.532664 178.145885 
L 135.671939 177.706021 
L 133.887481 177.135692 
L 130.56466 176.409399 
L 127.307423 175.919218 
L 124.03167 175.687789 
L 120.745223 175.674831 
L 116.702786 175.876352 
L 110.709321 176.340027 
L 105.278977 176.956099 
L 99.560008 177.812319 
L 96.777916 178.453485 
L 94.858447 179.100458 
L 92.739272 179.970185 
L 92.495237 180.006033 
L 92.584667 180.059027 
L 93.096431 180.179359 
L 94.549779 180.24011 
L 98.397826 180.099265 
L 112.133925 179.467636 
L 118.876158 179.46717 
L 137.808813 179.729526 
L 139.930034 180.013681 
L 142.609677 180.655689 
L 142.788717 180.764598 
L 142.788717 180.764598 
" style="fill:none;opacity:0.7;stroke:#000000;stroke-linecap:square;stroke-width:1.2;"/>
   </g>
   <g id="line2d_9">
    <path clip-path="url(#p6c52a03520)" d="M 142.793286 162.198252 
L 142.899156 161.161407 
L 142.607177 160.723471 
L 141.740853 160.05934 
L 140.654336 159.447386 
L 140.197065 159.380042 
L 139.575763 159.62969 
L 138.345302 159.05373 
L 136.710143 158.152603 
L 135.850226 157.598206 
L 134.064844 156.805058 
L 131.289981 155.923789 
L 128.013357 155.108998 
L 125.268376 154.670851 
L 122.532213 154.422681 
L 119.161966 154.367883 
L 114.434042 154.637181 
L 110.241495 155.125637 
L 106.692763 155.77111 
L 102.519675 156.791762 
L 99.335305 157.76136 
L 96.579373 158.800446 
L 94.583442 159.812667 
L 92.409226 161.270009 
L 92.578742 161.441631 
L 93.128781 161.578598 
L 94.654131 161.638713 
L 97.861921 161.50619 
L 106.727275 160.832868 
L 112.999638 160.499484 
L 119.832262 160.392024 
L 134.296882 160.413038 
L 137.814234 160.690646 
L 139.961058 161.04732 
L 142.416513 161.73168 
L 142.79931 161.995717 
L 142.79931 161.995717 
" style="fill:none;opacity:0.7;stroke:#000000;stroke-linecap:square;stroke-width:1.2;"/>
   </g>
   <g id="line2d_10">
    <path clip-path="url(#p6c52a03520)" d="M 142.797347 143.403759 
L 142.962093 142.234705 
L 142.712979 141.662731 
L 141.882293 140.801627 
L 140.813492 139.999129 
L 140.360232 139.86877 
L 139.742918 140.054237 
L 138.518391 139.296224 
L 134.242207 136.474424 
L 131.464662 135.331893 
L 128.722783 134.394673 
L 125.971149 133.709406 
L 123.219719 133.250228 
L 120.434058 133.022988 
L 117.520632 133.034774 
L 114.550909 133.235039 
L 111.560397 133.6342 
L 108.615136 134.253579 
L 105.726047 135.121132 
L 102.849236 136.207623 
L 99.798227 137.571389 
L 96.34204 139.341629 
L 94.864076 140.276183 
L 93.319727 141.530463 
L 92.307447 142.64101 
L 92.513341 142.860509 
L 93.13223 142.99791 
L 94.748947 143.041353 
L 97.950544 142.867387 
L 106.900563 141.987773 
L 112.632083 141.54721 
L 118.950615 141.318831 
L 130.633639 141.174726 
L 135.45922 141.385543 
L 138.396264 141.735468 
L 139.992082 142.080958 
L 142.176174 142.760463 
L 142.809902 143.226836 
L 142.809902 143.226836 
" style="fill:none;opacity:0.7;stroke:#000000;stroke-linecap:square;stroke-width:1.2;"/>
   </g>
   <g id="line2d_11">
    <path clip-path="url(#p6c52a03520)" d="M 205.26907 218.613583 
L 205.234592 217.988004 
L 202.711357 217.842783 
L 202.240758 217.960117 
L 201.605112 218.400117 
L 200.359625 218.343566 
L 198.719657 218.096276 
L 197.86091 217.850449 
L 195.554403 217.614685 
L 191.688956 217.420942 
L 188.450081 217.465992 
L 184.125752 217.779676 
L 176.008425 218.481952 
L 171.739199 218.605569 
L 167.31833 218.519467 
L 158.235214 218.161686 
L 155.59952 218.237519 
L 155.234598 218.059474 
L 156.1101 218.348917 
L 159.16208 218.951555 
L 164.863865 219.843324 
L 170.394928 220.49921 
L 175.786645 220.916408 
L 180.534705 221.075464 
L 184.613036 220.998673 
L 188.069336 220.720348 
L 192.076628 220.154054 
L 202.548433 218.570918 
L 205.254373 218.372863 
L 205.254373 218.372863 
" style="fill:none;opacity:0.7;stroke:#000000;stroke-linecap:square;stroke-width:1.2;"/>
   </g>
   <g id="line2d_12">
    <path clip-path="url(#p6c52a03520)" d="M 205.273131 199.819089 
L 205.297529 199.061302 
L 204.651066 198.814691 
L 202.870513 198.394526 
L 202.403925 198.448844 
L 201.772267 198.824664 
L 200.532714 198.58606 
L 198.897136 198.102995 
L 198.039197 197.742635 
L 196.263111 197.326503 
L 192.945799 196.811132 
L 189.69529 196.511115 
L 186.431469 196.448129 
L 182.59767 196.607384 
L 163.647862 197.75418 
L 160.136932 198.016446 
L 157.527699 198.460873 
L 155.877634 198.989126 
L 155.194729 199.250665 
L 155.220713 199.313148 
L 155.545499 199.520202 
L 156.90918 199.961928 
L 159.300216 200.476973 
L 163.711511 201.138317 
L 168.69056 201.640188 
L 174.186176 201.956675 
L 179.628041 202.046746 
L 183.789034 201.929703 
L 187.891714 201.5827 
L 192.537287 200.913253 
L 201.064514 199.691788 
L 203.064175 199.600372 
L 205.264965 199.603982 
L 205.264965 199.603982 
" style="fill:none;opacity:0.7;stroke:#000000;stroke-linecap:square;stroke-width:1.2;"/>
   </g>
   <g id="line2d_13">
    <path clip-path="url(#p6c52a03520)" d="M 205.277192 181.024596 
L 205.360465 180.134599 
L 205.036773 179.842344 
L 203.789734 179.229668 
L 203.029669 178.946269 
L 202.567092 178.937572 
L 201.939422 179.249211 
L 200.705804 178.828554 
L 199.074615 178.109713 
L 198.217484 177.634821 
L 196.440474 176.99587 
L 193.119333 176.169793 
L 190.399835 175.670792 
L 187.663665 175.37753 
L 184.938563 175.257595 
L 181.573385 175.318987 
L 175.641676 175.749871 
L 170.20676 176.347006 
L 163.33775 177.357967 
L 160.6218 177.909228 
L 158.570599 178.487778 
L 156.828277 179.21183 
L 155.503416 180.063897 
L 155.15486 180.441857 
L 155.236911 180.661866 
L 155.692313 180.982119 
L 157.034069 181.483 
L 159.418269 182.001851 
L 163.179566 182.52117 
L 167.578207 182.874535 
L 173.162474 183.061681 
L 179.310284 183.025501 
L 184.143741 182.792793 
L 188.306812 182.370487 
L 195.923531 181.243216 
L 199.954408 180.754274 
L 202.610481 180.638194 
L 205.275557 180.835101 
L 205.275557 180.835101 
" style="fill:none;opacity:0.7;stroke:#000000;stroke-linecap:square;stroke-width:1.2;"/>
   </g>
   <g id="line2d_14">
    <path clip-path="url(#p6c52a03520)" d="M 205.281253 162.230103 
L 205.423402 161.207896 
L 205.142575 160.781604 
L 204.278198 160.120333 
L 203.188825 159.498012 
L 202.730259 159.4263 
L 202.106577 159.673758 
L 200.878893 159.071048 
L 199.252094 158.116432 
L 198.395771 157.527007 
L 196.617837 156.665236 
L 193.844975 155.699756 
L 191.108121 154.925751 
L 188.364451 154.38824 
L 185.624201 154.061158 
L 182.844448 153.941417 
L 179.93187 154.021171 
L 176.360669 154.302835 
L 172.755972 154.784029 
L 169.187163 155.482298 
L 164.983154 156.557536 
L 161.781757 157.560386 
L 159.052575 158.632568 
L 157.744055 159.285505 
L 156.55397 160.067046 
L 155.517663 160.999317 
L 155.114991 161.633049 
L 155.150899 161.925842 
L 155.48342 162.29872 
L 156.165312 162.684877 
L 157.113523 163.024077 
L 158.8905 163.415729 
L 162.024882 163.843048 
L 165.815052 164.113779 
L 170.863566 164.206863 
L 177.126687 164.078536 
L 182.687568 163.786444 
L 187.536471 163.307403 
L 201.089816 161.646111 
L 202.641505 161.671833 
L 205.15971 161.984845 
L 205.28615 162.06622 
L 205.28615 162.06622 
" style="fill:none;opacity:0.7;stroke:#000000;stroke-linecap:square;stroke-width:1.2;"/>
   </g>
   <g id="line2d_15">
    <path clip-path="url(#p6c52a03520)" d="M 205.285314 143.435609 
L 205.486338 142.281194 
L 205.248377 141.720865 
L 204.419638 140.86262 
L 203.347981 140.049756 
L 202.893426 139.915028 
L 202.273732 140.098305 
L 201.051983 139.313542 
L 198.99239 137.7281 
L 197.296527 136.593351 
L 195.139973 135.574173 
L 191.821144 134.279577 
L 189.074909 133.480273 
L 186.314822 132.933401 
L 183.532837 132.63948 
L 181.219518 132.586745 
L 178.276199 132.722258 
L 175.276812 133.075025 
L 172.296193 133.644843 
L 169.379428 134.454332 
L 166.465764 135.50594 
L 162.880663 137.061661 
L 159.534551 138.777359 
L 158.110888 139.630255 
L 156.74485 140.659037 
L 155.811428 141.581028 
L 155.212193 142.437316 
L 155.055513 143.006354 
L 155.12967 143.393177 
L 155.499752 143.836914 
L 156.173924 144.243672 
L 157.173954 144.574347 
L 159.003754 144.932777 
L 162.115675 145.286877 
L 165.948578 145.43843 
L 171.05431 145.366254 
L 178.674771 144.983011 
L 184.909128 144.461425 
L 189.800287 143.82089 
L 196.40814 142.920246 
L 199.367441 142.669254 
L 202.157758 142.653368 
L 204.773735 143.005797 
L 205.296742 143.297339 
L 205.296742 143.297339 
" style="fill:none;opacity:0.7;stroke:#000000;stroke-linecap:square;stroke-width:1.2;"/>
   </g>
   <g id="line2d_16">
    <path clip-path="url(#p6c52a03520)" d="M 267.757036 218.645433 
L 267.831191 218.034776 
L 267.758838 218.034493 
L 264.773953 218.006375 
L 264.135927 218.444185 
L 262.893216 218.360884 
L 261.261608 218.060105 
L 260.406455 217.779249 
L 258.108125 217.457471 
L 254.782772 217.179437 
L 251.542266 217.108014 
L 247.752309 217.283796 
L 234.251102 218.272734 
L 229.804755 218.247867 
L 220.07985 218.03032 
L 218.496931 218.201854 
L 217.798123 218.436207 
L 217.939343 218.64181 
L 218.506331 218.981378 
L 221.551328 220.225007 
L 225.34393 221.666952 
L 228.379877 222.659445 
L 231.450737 223.445747 
L 235.081406 224.1248 
L 238.068664 224.474888 
L 241.046289 224.637432 
L 243.989387 224.60971 
L 246.885623 224.375851 
L 249.750248 223.919182 
L 252.602077 223.229262 
L 256.558561 222.002833 
L 265.697865 219.086954 
L 267.741213 218.443365 
L 267.741213 218.443365 
" style="fill:none;opacity:0.7;stroke:#000000;stroke-linecap:square;stroke-width:1.2;"/>
   </g>
   <g id="line2d_17">
    <path clip-path="url(#p6c52a03520)" d="M 267.761097 199.85094 
L 267.821774 199.107791 
L 267.187521 198.875386 
L 265.405002 198.445152 
L 264.93712 198.495103 
L 264.303082 198.868732 
L 263.066305 198.603378 
L 261.439087 198.066823 
L 260.584742 197.671435 
L 258.816105 197.186681 
L 255.500472 196.571525 
L 252.244328 196.188094 
L 248.976046 196.066323 
L 245.13145 196.19283 
L 238.047419 196.748186 
L 228.091585 197.436732 
L 223.302363 197.739354 
L 221.193912 198.0464 
L 219.529167 198.436301 
L 218.378864 198.966224 
L 217.798966 199.462938 
L 217.793817 199.716955 
L 218.064596 200.053722 
L 218.805884 200.522607 
L 222.299302 202.146392 
L 225.409175 203.282418 
L 228.471883 204.180647 
L 231.571498 204.844689 
L 234.635339 205.304793 
L 237.671312 205.569557 
L 241.30128 205.652291 
L 244.285103 205.523336 
L 247.226247 205.200201 
L 250.134731 204.666113 
L 253.030419 203.916445 
L 258.741777 202.11518 
L 263.229507 200.728264 
L 265.732402 200.142489 
L 267.751805 199.674484 
L 267.751805 199.674484 
" style="fill:none;opacity:0.7;stroke:#000000;stroke-linecap:square;stroke-width:1.2;"/>
   </g>
   <g id="line2d_18">
    <path clip-path="url(#p6c52a03520)" d="M 267.765158 181.056447 
L 267.88471 180.181088 
L 267.572172 179.900478 
L 266.327003 179.288629 
L 265.564159 178.996896 
L 265.100286 178.983831 
L 264.470237 179.293279 
L 263.239395 178.845872 
L 261.616566 178.073542 
L 260.763029 177.563621 
L 258.993467 176.856048 
L 256.225289 176.067618 
L 252.949813 175.360346 
L 250.20979 175.011906 
L 247.47979 174.857319 
L 244.104419 174.901346 
L 238.768299 175.306205 
L 233.31476 175.955858 
L 226.459916 177.017802 
L 223.069805 177.715624 
L 221.043802 178.319901 
L 219.896 178.781051 
L 218.878692 179.385837 
L 217.994137 180.189751 
L 217.735622 180.724875 
L 217.82921 181.103947 
L 218.229112 181.563361 
L 219.069254 182.13217 
L 221.184871 183.292887 
L 223.035129 184.045861 
L 226.086205 185.051546 
L 229.207642 185.790286 
L 232.330055 186.285291 
L 235.42484 186.578519 
L 239.121877 186.690497 
L 242.789846 186.564345 
L 246.395882 186.18602 
L 249.359481 185.661903 
L 252.302056 184.934374 
L 258.109019 183.171844 
L 262.67397 181.827694 
L 265.290928 181.262707 
L 267.762398 180.905603 
L 267.762398 180.905603 
" style="fill:none;opacity:0.7;stroke:#000000;stroke-linecap:square;stroke-width:1.2;"/>
   </g>
   <g id="line2d_19">
    <path clip-path="url(#p6c52a03520)" d="M 267.769219 162.261953 
L 267.947647 161.254385 
L 267.677974 160.839738 
L 266.815543 160.181326 
L 265.723315 159.548639 
L 265.263453 159.472559 
L 264.637392 159.717826 
L 263.412484 159.088366 
L 261.794045 158.08026 
L 260.941316 157.455807 
L 259.17083 156.525414 
L 256.399969 155.475722 
L 253.659197 154.628476 
L 250.911356 154.031947 
L 248.166871 153.666236 
L 245.378228 153.526863 
L 242.46062 153.604628 
L 238.885713 153.913165 
L 235.27045 154.442421 
L 231.681562 155.193487 
L 227.446632 156.323311 
L 224.228208 157.359412 
L 221.525778 158.464691 
L 220.262832 159.125801 
L 219.069573 159.977828 
L 218.250153 160.795716 
L 217.753425 161.639541 
L 217.714079 162.099339 
L 217.892573 162.581675 
L 218.388097 163.155809 
L 219.645691 164.109097 
L 221.264515 164.968926 
L 223.736214 165.887727 
L 226.177838 166.590994 
L 228.698895 167.105979 
L 231.857465 167.518024 
L 234.997699 167.723599 
L 238.754323 167.738223 
L 242.482361 167.530842 
L 246.151011 167.091104 
L 249.164098 166.533263 
L 252.748487 165.617368 
L 263.240348 162.650505 
L 265.321952 162.296345 
L 267.77299 162.136722 
L 267.77299 162.136722 
" style="fill:none;opacity:0.7;stroke:#000000;stroke-linecap:square;stroke-width:1.2;"/>
   </g>
   <g id="line2d_20">
    <path clip-path="url(#p6c52a03520)" d="M 267.77328 143.46746 
L 268.010583 142.327683 
L 267.783776 141.778998 
L 266.956984 140.923613 
L 265.882471 140.100382 
L 265.42662 139.961287 
L 264.804547 140.142373 
L 263.585574 139.33086 
L 261.971523 138.086979 
L 261.119603 137.347993 
L 259.848363 136.470823 
L 257.694556 135.382671 
L 254.373265 133.995986 
L 252.17718 133.282686 
L 249.410377 132.639881 
L 246.632144 132.271276 
L 244.343649 132.163856 
L 241.40232 132.267813 
L 238.402418 132.605434 
L 235.40367 133.170447 
L 232.457867 133.974206 
L 229.51746 135.025541 
L 225.939353 136.558391 
L 222.695312 138.222912 
L 220.629664 139.470551 
L 219.260453 140.56982 
L 218.30313 141.631593 
L 217.843233 142.416611 
L 217.673122 143.013542 
L 217.719077 143.566084 
L 217.951893 144.145345 
L 218.486164 144.81332 
L 219.215618 145.489433 
L 220.190808 146.104283 
L 221.970579 146.873484 
L 225.022314 147.817253 
L 227.55038 148.325507 
L 230.745574 148.702546 
L 233.933676 148.860354 
L 237.751212 148.814017 
L 241.546772 148.559736 
L 245.28757 148.094614 
L 248.968715 147.404623 
L 252.607521 146.46783 
L 262.09313 143.837283 
L 264.847956 143.362878 
L 267.578783 143.274607 
L 267.783583 143.367841 
L 267.783583 143.367841 
" style="fill:none;opacity:0.7;stroke:#000000;stroke-linecap:square;stroke-width:1.2;"/>
   </g>
   <g id="line2d_21">
    <path clip-path="url(#p6c52a03520)" d="M 330.245003 218.677284 
L 330.340412 218.071663 
L 330.283083 218.080982 
L 328.928567 218.015456 
L 327.780336 217.944036 
L 327.307147 218.052634 
L 326.666741 218.488252 
L 325.426807 218.378201 
L 323.803559 218.023933 
L 322.952 217.70805 
L 321.191735 217.377493 
L 317.3368 216.924703 
L 314.090515 216.773101 
L 310.294978 216.888873 
L 304.636833 217.396905 
L 298.618033 217.859555 
L 294.241122 217.98749 
L 290.282001 217.914962 
L 285.285892 217.728351 
L 282.553053 217.862443 
L 281.317948 218.010157 
L 280.582923 218.338649 
L 280.340199 218.665163 
L 280.432775 218.992054 
L 280.89228 219.445579 
L 281.919455 220.063095 
L 283.977603 221.213852 
L 287.066503 223.158946 
L 290.663444 225.10971 
L 293.108979 226.151098 
L 295.549018 226.967399 
L 297.961043 227.582716 
L 300.350895 227.994916 
L 302.734329 228.214414 
L 305.102999 228.243513 
L 307.436897 228.082227 
L 309.737341 227.727083 
L 312.015789 227.172093 
L 314.282066 226.4114 
L 317.107341 225.20306 
L 321.006009 223.277833 
L 327.435194 220.018763 
L 329.560201 219.050343 
L 330.159445 218.615764 
L 330.228053 218.513868 
L 330.228053 218.513868 
" style="fill:none;opacity:0.7;stroke:#000000;stroke-linecap:square;stroke-width:1.2;"/>
   </g>
   <g id="line2d_22">
    <path clip-path="url(#p6c52a03520)" d="M 330.249064 199.882791 
L 330.346019 199.15428 
L 329.723976 198.936081 
L 327.939492 198.495779 
L 327.470314 198.541362 
L 326.833896 198.912799 
L 325.599897 198.620695 
L 323.981038 198.030652 
L 323.130287 197.600236 
L 321.369098 197.046859 
L 318.055144 196.331918 
L 314.793366 195.865073 
L 311.520622 195.684516 
L 308.226591 195.750552 
L 303.579457 196.090901 
L 283.652143 197.872276 
L 282.047944 198.276598 
L 281.203415 198.704628 
L 280.47061 199.380185 
L 280.317428 199.753465 
L 280.392906 200.183245 
L 280.806269 200.709555 
L 281.710562 201.379696 
L 283.54753 202.594187 
L 285.911416 204.201552 
L 288.925039 205.901687 
L 291.361663 207.004495 
L 293.837195 207.868401 
L 296.295367 208.516097 
L 298.731243 208.959012 
L 301.155271 209.20675 
L 303.574434 209.27118 
L 305.967442 209.153738 
L 308.324453 208.851746 
L 310.654219 208.36501 
L 312.962679 207.683872 
L 315.837653 206.563385 
L 319.816925 204.705544 
L 327.460934 201.032169 
L 329.869233 200.036911 
L 330.238646 199.744987 
L 330.238646 199.744987 
" style="fill:none;opacity:0.7;stroke:#000000;stroke-linecap:square;stroke-width:1.2;"/>
   </g>
   <g id="line2d_23">
    <path clip-path="url(#p6c52a03520)" d="M 330.253125 181.088297 
L 330.408956 180.227577 
L 330.10757 179.958611 
L 328.864272 179.34759 
L 328.098648 179.047522 
L 327.633481 179.03009 
L 327.001051 179.337346 
L 325.772986 178.863189 
L 324.158517 178.03737 
L 323.308574 177.492421 
L 321.54646 176.716226 
L 318.780283 175.843584 
L 316.044535 175.159555 
L 313.304658 174.710781 
L 310.571353 174.477166 
L 307.217484 174.459946 
L 303.097435 174.731006 
L 298.259202 175.289274 
L 292.73825 176.141299 
L 286.211737 177.348409 
L 284.152609 177.931113 
L 282.414776 178.621348 
L 281.394295 179.29662 
L 280.688877 180.010403 
L 280.360923 180.584303 
L 280.28632 181.101094 
L 280.492774 181.663677 
L 281.051334 182.315529 
L 283.646556 184.404733 
L 285.383647 185.61543 
L 288.390997 187.294575 
L 290.842162 188.349899 
L 293.341838 189.152215 
L 295.831372 189.731335 
L 298.304103 190.104091 
L 300.767908 190.285309 
L 303.83834 190.263553 
L 306.863231 189.969458 
L 309.839458 189.40173 
L 312.191892 188.743842 
L 315.113219 187.661476 
L 319.160832 185.835654 
L 327.000955 182.234426 
L 330.249238 180.976106 
L 330.249238 180.976106 
" style="fill:none;opacity:0.7;stroke:#000000;stroke-linecap:square;stroke-width:1.2;"/>
   </g>
   <g id="line2d_24">
    <path clip-path="url(#p6c52a03520)" d="M 330.257185 162.293804 
L 330.471892 161.300874 
L 330.213372 160.897872 
L 329.352888 160.242319 
L 328.257804 159.599266 
L 327.796648 159.518818 
L 327.168206 159.761893 
L 325.946076 159.105683 
L 324.335996 158.044089 
L 323.486861 157.384607 
L 321.723823 156.385592 
L 318.954963 155.251688 
L 316.210273 154.331201 
L 314.013803 153.784635 
L 311.260825 153.330668 
L 308.478441 153.127188 
L 305.573846 153.157906 
L 302.01145 153.449066 
L 298.387694 153.988911 
L 294.777125 154.754512 
L 290.526399 155.909432 
L 287.337731 156.918621 
L 284.653076 157.989951 
L 282.781608 158.966098 
L 281.585176 159.888611 
L 280.741854 160.846281 
L 280.351672 161.603366 
L 280.25507 162.245427 
L 280.437707 162.894746 
L 280.912725 163.60652 
L 282.687385 165.354859 
L 284.263602 166.638346 
L 286.080101 167.74734 
L 288.460899 168.964776 
L 290.950799 169.905545 
L 293.475954 170.583444 
L 295.995354 171.041086 
L 298.503287 171.294475 
L 301.631665 171.357593 
L 304.736531 171.157706 
L 307.792779 170.69788 
L 310.804193 169.978847 
L 313.776244 168.987218 
L 317.323561 167.486203 
L 326.50222 163.421718 
L 328.469702 162.795674 
L 330.25983 162.207225 
L 330.25983 162.207225 
" style="fill:none;opacity:0.7;stroke:#000000;stroke-linecap:square;stroke-width:1.2;"/>
   </g>
   <g id="line2d_25">
    <path clip-path="url(#p6c52a03520)" d="M 330.261246 143.49931 
L 330.534829 142.374172 
L 330.319174 141.837132 
L 329.494329 140.984606 
L 328.416961 140.151009 
L 327.959814 140.007546 
L 327.335361 140.18644 
L 326.119165 139.348177 
L 324.513474 138.050808 
L 323.252537 136.955963 
L 321.901186 136.054958 
L 319.687603 134.920864 
L 316.925386 133.712395 
L 314.725429 132.947773 
L 311.954954 132.258074 
L 309.731894 131.919204 
L 307.45987 131.755857 
L 304.521245 131.815958 
L 301.528172 132.130457 
L 298.516185 132.688549 
L 295.543324 133.487526 
L 292.588766 134.534783 
L 289.005134 136.053531 
L 285.826634 137.668992 
L 283.832583 138.846817 
L 282.440482 139.864222 
L 281.21584 141.103189 
L 280.513351 142.186445 
L 280.249116 143.01837 
L 280.273298 143.756821 
L 280.548235 144.501485 
L 281.083881 145.329498 
L 282.709526 147.196252 
L 283.746208 148.049613 
L 285.545446 149.158635 
L 287.928954 150.347629 
L 290.436359 151.236417 
L 292.987713 151.85057 
L 295.540182 152.238717 
L 298.086015 152.422453 
L 301.26411 152.405319 
L 304.418774 152.136461 
L 307.526942 151.620946 
L 310.589618 150.861744 
L 313.607637 149.845823 
L 317.208816 148.334985 
L 325.389618 144.793834 
L 328.033423 143.954497 
L 330.270423 143.438344 
L 330.270423 143.438344 
" style="fill:none;opacity:0.7;stroke:#000000;stroke-linecap:square;stroke-width:1.2;"/>
   </g>
  </g>
 </g>
 <defs>
  <clipPath id="p6c52a03520">
   <rect height="329.04" width="329.04" x="15.48" y="15.48"/>
  </clipPath>
 </defs>
</svg>
