<?xml version="1.0" encoding="utf-8" standalone="no"?>
<!DOCTYPE svg PUBLIC "-//W3C//DTD SVG 1.1//EN"
  "http://www.w3.org/Graphics/SVG/1.1/DTD/svg11.dtd">
<!-- Created with matplotlib (http://matplotlib.org/) -->
<svg height="360pt" version="1.1" viewBox="0 0 360 360" width="360pt" xmlns="http://www.w3.org/2000/svg" xmlns:xlink="http://www.w3.org/1999/xlink">
 <defs>
  <style type="text/css">
*{stroke-linecap:butt;stroke-linejoin:round;}
  </style>
 </defs>
 <g id="figure_1">
  <g id="patch_1">
   <path d="M 0 360 
L 360 360 
L 360 0 
L 0 0 
z
" style="fill:#ffffff;"/>
  </g>
  <g id="axes_1">
   <g id="line2d_1">
    <path clip-path="url(#pb130f9a9c5)" d="M 80.384458 218.419156 
L 80.724324 217.475826 
L 80.894483 217.424319 
L 80.829963 217.399381 
L 80.013405 217.292688 
L 79.435159 217.281885 
L 79.02298 217.479777 
L 78.361006 218.16544 
L 77.362078 218.166665 
L 76.050622 217.944542 
L 75.336438 217.664581 
L 73.818119 217.555058 
L 70.037297 217.518401 
L 67.436292 217.684379 
L 63.768539 218.17122 
L 56.494266 219.298475 
L 52.79444 219.552787 
L 49.004286 219.548254 
L 45.047432 219.280846 
L 41.49376 218.821775 
L 37.410875 218.334527 
L 33.952085 218.166344 
L 31.625638 218.011776 
L 31.062557 217.64711 
L 30.496201 216.910915 
L 29.93642 216.098477 
L 30.028593 215.991344 
L 31.27371 215.677606 
L 36.296111 214.634998 
L 40.937739 213.872641 
L 44.795294 213.501591 
L 48.521593 213.385445 
L 52.20027 213.481236 
L 56.45386 213.830863 
L 69.947572 215.35304 
L 75.092722 216.110541 
L 77.721759 216.70306 
L 80.246698 217.671664 
L 80.37294 217.95054 
L 80.37294 217.95054 
" style="fill:none;opacity:0.7;stroke:#000000;stroke-linecap:square;stroke-width:1.2;"/>
   </g>
   <g id="line2d_2">
    <path clip-path="url(#pb130f9a9c5)" d="M 80.388504 199.689166 
L 80.759615 198.681609 
L 80.980982 198.49545 
L 80.804462 198.306453 
L 80.161658 198.03703 
L 79.593769 197.900375 
L 79.185587 198.035468 
L 78.527587 198.657169 
L 77.847909 198.562441 
L 76.227492 198.019877 
L 75.514113 197.625777 
L 74.45928 197.363176 
L 71.274596 196.979368 
L 68.119294 196.834686 
L 64.954805 196.974745 
L 61.256661 197.381405 
L 54.154543 198.177775 
L 49.784492 198.399183 
L 45.2702 198.435151 
L 40.29876 198.252195 
L 37.008262 198.227105 
L 33.674683 198.451227 
L 31.815863 198.670376 
L 31.115352 198.548758 
L 30.667588 198.256147 
L 29.890459 197.346545 
L 30.903053 197.103048 
L 37.762898 195.721304 
L 41.739309 195.101312 
L 45.586066 194.717833 
L 49.342588 194.569843 
L 53.07694 194.642721 
L 57.9856 195.013667 
L 69.281548 196.19875 
L 74.520691 196.993724 
L 77.273433 197.625601 
L 79.497659 198.462146 
L 80.111985 198.755927 
L 80.355157 199.078288 
L 80.383496 199.246074 
L 80.383496 199.246074 
" style="fill:none;opacity:0.7;stroke:#000000;stroke-linecap:square;stroke-width:1.2;"/>
   </g>
   <g id="line2d_3">
    <path clip-path="url(#pb130f9a9c5)" d="M 80.392551 180.959175 
L 80.794906 179.887392 
L 81.06748 179.566582 
L 80.924337 179.24497 
L 80.309912 178.781373 
L 79.752379 178.518864 
L 79.348193 178.591158 
L 78.694168 179.148899 
L 78.018789 178.93266 
L 76.404361 178.095213 
L 75.691788 177.586973 
L 74.636368 177.156865 
L 71.996001 176.557995 
L 68.805395 176.080437 
L 66.158592 175.947969 
L 63.522752 175.991562 
L 59.691588 176.305587 
L 53.033015 176.968155 
L 42.838625 177.760075 
L 38.333543 178.093168 
L 34.912728 178.59221 
L 32.595139 179.17445 
L 31.168147 179.450406 
L 30.658369 179.340353 
L 29.752325 178.701745 
L 31.052716 178.422663 
L 39.902302 176.691495 
L 44.481682 176.060673 
L 48.303787 175.772295 
L 52.099354 175.713526 
L 56.482997 175.911855 
L 63.81924 176.540048 
L 69.78482 177.201116 
L 74.503201 177.97964 
L 77.292872 178.685398 
L 79.143332 179.458326 
L 80.145078 179.973793 
L 80.375154 180.348269 
L 80.394053 180.541608 
L 80.394053 180.541608 
" style="fill:none;opacity:0.7;stroke:#000000;stroke-linecap:square;stroke-width:1.2;"/>
   </g>
   <g id="line2d_4">
    <path clip-path="url(#pb130f9a9c5)" d="M 80.396598 162.229184 
L 80.830197 161.093176 
L 81.153979 160.637713 
L 81.044212 160.183487 
L 80.458165 159.525715 
L 79.910989 159.137353 
L 79.5108 159.146849 
L 78.86075 159.640629 
L 78.189668 159.302878 
L 76.581231 158.170548 
L 75.869463 157.548168 
L 74.813457 156.950554 
L 72.72667 156.245532 
L 69.496594 155.425507 
L 67.388272 155.087771 
L 64.191641 154.864805 
L 60.956912 154.930481 
L 56.843578 155.284679 
L 51.298037 155.899937 
L 46.350169 156.637651 
L 37.97467 158.150683 
L 35.39305 158.805144 
L 33.684894 159.372758 
L 30.898912 160.430208 
L 30.220636 160.305404 
L 29.614191 160.056946 
L 29.673348 160.046841 
L 36.698481 158.634798 
L 41.389821 157.748105 
L 45.308373 157.202307 
L 49.173868 156.885469 
L 53.023516 156.815751 
L 57.455751 156.990744 
L 64.875715 157.569481 
L 69.102071 158.039547 
L 73.302174 158.717618 
L 76.226254 159.412415 
L 77.798714 159.938763 
L 79.943048 160.989532 
L 80.327906 161.403384 
L 80.404609 161.837141 
L 80.404609 161.837141 
" style="fill:none;opacity:0.7;stroke:#000000;stroke-linecap:square;stroke-width:1.2;"/>
   </g>
   <g id="line2d_5">
    <path clip-path="url(#pb130f9a9c5)" d="M 80.400645 143.499193 
L 80.865488 142.298959 
L 81.240478 141.708844 
L 81.164086 141.122003 
L 80.606418 140.270057 
L 80.069599 139.755843 
L 79.673407 139.702539 
L 79.027331 140.132358 
L 78.360548 139.673097 
L 76.758101 138.245883 
L 76.047138 137.509364 
L 74.990546 136.744243 
L 73.463893 136.046333 
L 70.194001 134.87299 
L 68.07876 134.311829 
L 65.396957 133.86825 
L 62.723125 133.679262 
L 59.929997 133.714771 
L 55.119137 134.142704 
L 50.813775 134.781493 
L 47.172447 135.57662 
L 42.134084 136.961291 
L 37.631253 138.389505 
L 34.981371 139.370508 
L 32.386539 140.646174 
L 30.639931 141.508764 
L 29.989604 141.485694 
L 29.465171 141.427563 
L 29.791079 141.379372 
L 34.164831 140.535361 
L 42.878907 138.7592 
L 46.818896 138.224602 
L 50.735097 137.932316 
L 54.625591 137.897419 
L 59.731104 138.119073 
L 66.580115 138.655169 
L 70.230467 139.142557 
L 73.873263 139.811541 
L 76.231656 140.438877 
L 77.824366 141.017331 
L 79.98006 142.182068 
L 80.354975 142.64729 
L 80.415165 143.132675 
L 80.415165 143.132675 
" style="fill:none;opacity:0.7;stroke:#000000;stroke-linecap:square;stroke-width:1.2;"/>
   </g>
   <g id="line2d_6">
    <path clip-path="url(#pb130f9a9c5)" d="M 142.657966 218.450898 
L 143.019013 217.512586 
L 143.212112 217.477622 
L 143.006418 217.428423 
L 141.755031 217.332338 
L 141.341561 217.525877 
L 140.677215 218.209356 
L 139.994254 218.21957 
L 138.716379 218.023272 
L 136.987676 217.483007 
L 133.986412 217.29263 
L 130.811459 217.297925 
L 127.658701 217.5774 
L 124.523018 218.034631 
L 118.807323 218.888727 
L 115.102486 219.179021 
L 111.298817 219.22543 
L 107.319403 219.010178 
L 103.742865 218.588354 
L 99.643012 218.134242 
L 96.21088 217.999043 
L 93.600931 217.819221 
L 93.132571 217.553082 
L 92.462765 216.752059 
L 93.492215 216.773182 
L 97.579249 216.725539 
L 104.265032 216.694672 
L 111.185055 216.898917 
L 127.338335 217.548987 
L 138.707874 217.309596 
L 140.663514 217.489775 
L 142.650525 217.93156 
L 142.645327 218.020801 
L 142.645327 218.020801 
" style="fill:none;opacity:0.7;stroke:#000000;stroke-linecap:square;stroke-width:1.2;"/>
   </g>
   <g id="line2d_7">
    <path clip-path="url(#pb130f9a9c5)" d="M 142.662013 199.720907 
L 143.054304 198.718369 
L 143.298611 198.548753 
L 143.126292 198.36694 
L 142.4843 198.095789 
L 141.913641 197.950827 
L 141.504168 198.081568 
L 140.843797 198.701086 
L 140.165134 198.589788 
L 138.554799 197.98383 
L 137.845002 197.554822 
L 136.796438 197.241069 
L 133.614902 196.756103 
L 130.976627 196.541054 
L 128.337762 196.555833 
L 125.185178 196.785795 
L 113.344007 198.005407 
L 108.213381 198.163554 
L 104.071295 198.074859 
L 100.104346 198.013563 
L 97.51738 198.132993 
L 94.626351 198.507035 
L 93.392583 198.59915 
L 92.95228 198.461259 
L 92.377049 198.080337 
L 92.497076 198.096131 
L 93.723243 198.20553 
L 97.053292 198.203205 
L 107.617152 198.072749 
L 115.116741 198.222422 
L 125.405087 198.504185 
L 132.428368 198.301025 
L 137.593628 198.27284 
L 140.222457 198.488702 
L 142.62659 199.096753 
L 142.655883 199.316335 
L 142.655883 199.316335 
" style="fill:none;opacity:0.7;stroke:#000000;stroke-linecap:square;stroke-width:1.2;"/>
   </g>
   <g id="line2d_8">
    <path clip-path="url(#pb130f9a9c5)" d="M 142.66606 180.990916 
L 143.089595 179.924152 
L 143.385109 179.619884 
L 143.246167 179.305457 
L 142.632553 178.840131 
L 142.072251 178.569317 
L 141.666775 178.637258 
L 141.010378 179.192815 
L 140.336013 178.960007 
L 138.731669 178.059165 
L 138.022677 177.516017 
L 136.973527 177.034757 
L 134.891098 176.474441 
L 131.666682 175.854867 
L 129.029307 175.611438 
L 125.850776 175.597995 
L 122.008016 175.889379 
L 111.591312 176.961177 
L 103.671364 177.611967 
L 99.725151 177.995955 
L 97.171523 178.42491 
L 95.623534 178.801396 
L 93.160967 179.554781 
L 92.291333 179.408615 
L 97.251247 179.665174 
L 114.129232 179.313724 
L 127.620807 179.368954 
L 134.102598 179.202282 
L 137.584118 179.271118 
L 140.248109 179.567269 
L 142.527805 180.218285 
L 142.690519 180.471522 
L 142.666439 180.611868 
L 142.666439 180.611868 
" style="fill:none;opacity:0.7;stroke:#000000;stroke-linecap:square;stroke-width:1.2;"/>
   </g>
   <g id="line2d_9">
    <path clip-path="url(#pb130f9a9c5)" d="M 142.670107 162.260925 
L 143.124886 161.129936 
L 143.471608 160.691015 
L 143.366042 160.243973 
L 142.780807 159.584473 
L 142.230861 159.187806 
L 141.829382 159.192949 
L 141.176959 159.684545 
L 140.506893 159.330225 
L 138.908539 158.134501 
L 138.200352 157.477213 
L 137.150616 156.828446 
L 135.066566 156.054687 
L 131.834037 155.142889 
L 129.721856 154.754007 
L 127.051238 154.499031 
L 124.375444 154.47697 
L 121.525505 154.647983 
L 115.460348 155.302073 
L 110.504764 156.028109 
L 101.817124 157.600659 
L 98.514879 158.387543 
L 95.989107 159.213603 
L 92.413586 160.694641 
L 92.205617 160.736893 
L 92.220808 160.806532 
L 92.620581 160.987025 
L 93.449455 161.108387 
L 96.001377 161.158536 
L 102.058528 160.915078 
L 113.120932 160.436799 
L 121.345053 160.41257 
L 127.471312 160.287224 
L 132.86055 160.144583 
L 137.002471 160.224649 
L 139.795646 160.539947 
L 141.216643 160.932589 
L 142.560898 161.436151 
L 142.710516 161.741503 
L 142.676995 161.907402 
L 142.676995 161.907402 
" style="fill:none;opacity:0.7;stroke:#000000;stroke-linecap:square;stroke-width:1.2;"/>
   </g>
   <g id="line2d_10">
    <path clip-path="url(#pb130f9a9c5)" d="M 142.674154 143.530934 
L 143.160177 142.335719 
L 143.558107 141.762147 
L 143.485917 141.18249 
L 142.92906 140.328816 
L 142.389471 139.806296 
L 141.991988 139.748639 
L 141.343541 140.176275 
L 140.677772 139.700444 
L 139.085408 138.209836 
L 138.378027 137.438409 
L 137.327705 136.622135 
L 135.803309 135.872402 
L 132.532449 134.604508 
L 130.41313 133.989917 
L 127.727657 133.495477 
L 125.588419 133.298861 
L 122.83185 133.271583 
L 119.273073 133.536998 
L 115.579636 134.009756 
L 111.883807 134.696924 
L 108.210476 135.627397 
L 102.252473 137.398576 
L 98.132166 138.850776 
L 96.35468 139.625809 
L 94.047057 140.963721 
L 92.525517 141.889378 
L 92.082675 142.161733 
L 92.330037 142.391639 
L 93.020859 142.552625 
L 94.786849 142.63912 
L 98.217484 142.543713 
L 106.204248 141.964176 
L 113.396646 141.539264 
L 121.101023 141.383188 
L 127.937856 141.17727 
L 132.787451 141.073109 
L 136.396309 141.166262 
L 138.729482 141.415442 
L 140.299412 141.724405 
L 142.38644 142.494754 
L 142.707797 142.828473 
L 142.687551 143.202935 
L 142.687551 143.202935 
" style="fill:none;opacity:0.7;stroke:#000000;stroke-linecap:square;stroke-width:1.2;"/>
   </g>
   <g id="line2d_11">
    <path clip-path="url(#pb130f9a9c5)" d="M 204.931474 218.482639 
L 205.313703 217.549346 
L 205.529741 217.530924 
L 205.129089 217.458001 
L 204.074903 217.382791 
L 203.660142 217.571977 
L 202.993425 218.253273 
L 202.311479 218.246917 
L 201.041585 218.002852 
L 199.322992 217.378054 
L 196.880057 217.123105 
L 193.669416 216.996205 
L 191.050853 217.115332 
L 187.37735 217.549204 
L 179.891054 218.609194 
L 176.151433 218.864255 
L 172.293977 218.876717 
L 168.884392 218.684465 
L 164.396417 218.174057 
L 160.992429 217.879438 
L 157.1966 217.817828 
L 155.887657 217.796398 
L 155.246191 217.582166 
L 154.903318 217.381416 
L 155.241828 217.490516 
L 156.914092 217.882571 
L 161.062867 218.644023 
L 170.124596 220.009308 
L 175.687014 220.567189 
L 180.55928 220.84089 
L 184.12517 220.858295 
L 187.623708 220.642483 
L 190.515395 220.250157 
L 196.762279 219.062528 
L 200.659487 218.360732 
L 203.128842 218.112145 
L 204.965889 218.054813 
L 204.917713 218.091062 
" style="fill:none;opacity:0.7;stroke:#000000;stroke-linecap:square;stroke-width:1.2;"/>
   </g>
   <g id="line2d_12">
    <path clip-path="url(#pb130f9a9c5)" d="M 204.935521 199.752648 
L 205.348994 198.755129 
L 205.61624 198.602056 
L 205.448123 198.427426 
L 204.529142 198.076007 
L 204.233513 198.00128 
L 203.822749 198.127668 
L 203.160006 198.745002 
L 202.482359 198.617136 
L 201.217638 198.136095 
L 199.500487 197.226978 
L 198.161431 196.908541 
L 195.41766 196.458493 
L 192.789908 196.215925 
L 190.140487 196.213046 
L 187.511764 196.386892 
L 181.236818 197.141047 
L 175.646078 197.656358 
L 170.489584 197.884301 
L 166.320399 197.841437 
L 161.475633 197.841227 
L 158.239402 198.122485 
L 155.999189 198.582523 
L 155.236972 198.666371 
L 154.84844 198.676899 
L 155.103694 198.845717 
L 155.971914 199.150851 
L 158.425324 199.742029 
L 162.528799 200.450557 
L 167.075362 201.065174 
L 172.797683 201.580958 
L 178.39738 201.847977 
L 182.671031 201.873491 
L 186.250822 201.693121 
L 189.779047 201.264955 
L 196.133426 200.110997 
L 200.104043 199.436859 
L 202.697503 199.195776 
L 204.985886 199.324794 
L 204.928269 199.386595 
L 204.928269 199.386595 
" style="fill:none;opacity:0.7;stroke:#000000;stroke-linecap:square;stroke-width:1.2;"/>
   </g>
   <g id="line2d_13">
    <path clip-path="url(#pb130f9a9c5)" d="M 204.939568 181.022657 
L 205.384285 179.960912 
L 205.702738 179.673187 
L 205.567998 179.365943 
L 204.955195 178.898889 
L 204.392123 178.61977 
L 203.985356 178.683358 
L 203.326588 179.236732 
L 202.653238 178.987354 
L 201.058977 178.023118 
L 200.353566 177.445062 
L 199.310686 176.91265 
L 197.230994 176.283596 
L 194.004125 175.572249 
L 191.897257 175.304654 
L 189.236882 175.188122 
L 186.024439 175.321719 
L 181.953163 175.73846 
L 164.388697 177.519761 
L 161.109789 177.934439 
L 158.674965 178.428911 
L 157.216903 178.900752 
L 154.793563 179.972382 
L 154.96556 180.200917 
L 155.681369 180.555465 
L 157.293479 181.062949 
L 160.001971 181.599221 
L 165.25019 182.319808 
L 169.810686 182.679109 
L 174.895038 182.886291 
L 180.547133 182.92115 
L 184.831375 182.741017 
L 188.429686 182.364376 
L 192.579479 181.662571 
L 199.536721 180.497825 
L 202.25954 180.274902 
L 204.02282 180.380265 
L 205.006481 180.521842 
L 204.938825 180.682129 
L 204.938825 180.682129 
" style="fill:none;opacity:0.7;stroke:#000000;stroke-linecap:square;stroke-width:1.2;"/>
   </g>
   <g id="line2d_14">
    <path clip-path="url(#pb130f9a9c5)" d="M 204.943615 162.292666 
L 205.419575 161.166696 
L 205.789237 160.744318 
L 205.687872 160.30446 
L 205.103448 159.643232 
L 204.550733 159.238259 
L 204.147963 159.239048 
L 203.493169 159.728461 
L 202.824118 159.357573 
L 201.235847 158.098453 
L 200.531241 157.406258 
L 199.487775 156.706339 
L 197.406462 155.863842 
L 194.17148 154.860271 
L 192.055441 154.420244 
L 189.381162 154.118534 
L 186.698605 154.069617 
L 183.841445 154.231305 
L 178.391026 154.843397 
L 173.411427 155.613198 
L 164.796038 157.23731 
L 161.607547 157.978677 
L 159.110528 158.735338 
L 157.496574 159.431317 
L 155.775404 160.452838 
L 154.738685 161.267866 
L 154.827426 161.556118 
L 155.390824 161.960079 
L 156.274792 162.349873 
L 158.085342 162.827748 
L 161.461176 163.37989 
L 165.397166 163.780422 
L 169.989723 163.996577 
L 175.782909 164.039233 
L 181.495566 163.901844 
L 185.823144 163.590135 
L 189.461683 163.106951 
L 199.519231 161.483742 
L 202.27898 161.334699 
L 203.669792 161.472845 
L 204.943625 161.680642 
L 205.02588 161.864756 
L 204.949381 161.977662 
L 204.949381 161.977662 
" style="fill:none;opacity:0.7;stroke:#000000;stroke-linecap:square;stroke-width:1.2;"/>
   </g>
   <g id="line2d_15">
    <path clip-path="url(#pb130f9a9c5)" d="M 204.947662 143.562675 
L 205.454866 142.372479 
L 205.875736 141.815449 
L 205.807747 141.242977 
L 205.251702 140.387574 
L 204.709343 139.856748 
L 204.31057 139.794739 
L 203.65975 140.220191 
L 202.994997 139.727791 
L 201.412716 138.173789 
L 200.708916 137.367453 
L 199.664864 136.500028 
L 198.142726 135.698471 
L 194.870896 134.336026 
L 192.7475 133.668004 
L 190.591442 133.213094 
L 188.454226 132.938278 
L 185.718207 132.844449 
L 182.777274 133.014588 
L 179.126496 133.442255 
L 175.413633 134.100622 
L 171.732286 135.00098 
L 165.20338 136.954859 
L 161.257503 138.341292 
L 158.658893 139.466654 
L 156.98864 140.468352 
L 155.465617 141.681901 
L 154.758103 142.415074 
L 154.646246 142.718754 
L 154.84275 143.135858 
L 155.431461 143.584337 
L 156.359665 143.982167 
L 158.241953 144.436791 
L 161.566492 144.919333 
L 164.884492 145.175366 
L 169.527321 145.276285 
L 175.406752 145.16713 
L 181.844788 144.868894 
L 186.228058 144.467271 
L 189.917413 143.923236 
L 197.730034 142.654966 
L 200.651687 142.407739 
L 202.774458 142.431479 
L 204.79282 142.80744 
L 205.06062 143.009655 
L 204.959937 143.273196 
L 204.959937 143.273196 
" style="fill:none;opacity:0.7;stroke:#000000;stroke-linecap:square;stroke-width:1.2;"/>
   </g>
   <g id="line2d_16">
    <path clip-path="url(#pb130f9a9c5)" d="M 267.204983 218.514381 
L 267.608392 217.586106 
L 267.84737 217.584227 
L 267.228895 217.492323 
L 266.394775 217.433244 
L 265.978723 217.618077 
L 265.309635 218.297189 
L 264.628704 218.274264 
L 263.366792 217.982432 
L 261.658309 217.273101 
L 259.778499 216.995025 
L 256.531053 216.731258 
L 253.914474 216.739712 
L 250.755875 217.008908 
L 245.210081 217.833404 
L 240.968908 218.332397 
L 237.182511 218.556063 
L 233.918593 218.557398 
L 230.432843 218.365009 
L 222.3513 217.662668 
L 218.528789 217.745043 
L 217.301282 217.85679 
L 217.351821 217.939225 
L 217.848446 218.240102 
L 221.043227 219.527175 
L 225.143924 221.056245 
L 228.32079 222.124363 
L 231.526282 222.980353 
L 235.279838 223.737768 
L 238.349605 224.147375 
L 241.40427 224.366749 
L 244.40973 224.38789 
L 247.349168 224.180178 
L 249.665346 223.829542 
L 252.537121 223.138927 
L 255.950614 222.022926 
L 265.594171 218.734514 
L 267.051151 218.349982 
L 267.305166 218.215212 
L 267.281253 218.178066 
L 267.190099 218.161322 
L 267.190099 218.161322 
" style="fill:none;opacity:0.7;stroke:#000000;stroke-linecap:square;stroke-width:1.2;"/>
   </g>
   <g id="line2d_17">
    <path clip-path="url(#pb130f9a9c5)" d="M 267.20903 199.78439 
L 267.643683 198.791889 
L 267.933869 198.655358 
L 267.769953 198.487913 
L 266.850066 198.131125 
L 266.553385 198.051733 
L 266.14133 198.173768 
L 265.476216 198.788919 
L 264.799583 198.644483 
L 263.542845 198.115675 
L 261.835803 197.122025 
L 260.500469 196.751866 
L 257.757646 196.219708 
L 255.125215 195.906544 
L 252.471955 195.848676 
L 249.83835 195.98799 
L 245.327723 196.51245 
L 239.209686 197.198334 
L 234.096648 197.552078 
L 229.99602 197.640007 
L 224.568618 197.612994 
L 222.005131 197.78594 
L 219.866386 198.070879 
L 218.285915 198.559699 
L 217.290995 199.012096 
L 217.296944 199.234708 
L 217.710312 199.595303 
L 219.363625 200.410495 
L 221.899453 201.541312 
L 225.863228 202.962986 
L 229.092669 203.891454 
L 232.310151 204.577568 
L 235.461248 205.063066 
L 239.197203 205.385872 
L 242.89884 205.449376 
L 245.914736 205.280425 
L 248.8754 204.882298 
L 251.797545 204.223295 
L 255.2739 203.132751 
L 264.723434 200.009858 
L 267.332235 199.459119 
L 267.200655 199.456856 
" style="fill:none;opacity:0.7;stroke:#000000;stroke-linecap:square;stroke-width:1.2;"/>
   </g>
   <g id="line2d_18">
    <path clip-path="url(#pb130f9a9c5)" d="M 267.213077 181.054399 
L 267.678974 179.997672 
L 268.020367 179.72649 
L 267.889828 179.42643 
L 267.277837 178.957648 
L 266.711995 178.670222 
L 266.303937 178.729458 
L 265.642797 179.280648 
L 264.970463 179.014701 
L 263.386285 177.987071 
L 262.684456 177.374107 
L 261.647845 176.790543 
L 259.57089 176.092752 
L 256.341568 175.289631 
L 254.230841 174.970891 
L 251.566806 174.807626 
L 248.893481 174.877426 
L 245.445365 175.191495 
L 222.50388 177.913215 
L 220.23196 178.483085 
L 218.90924 179.062242 
L 217.512444 179.955689 
L 217.259852 180.221142 
L 217.242066 180.530192 
L 217.572178 180.950503 
L 218.451612 181.52852 
L 220.73058 182.736227 
L 222.752694 183.533268 
L 226.620879 184.797394 
L 229.891145 185.556525 
L 233.116356 186.076535 
L 236.293512 186.392945 
L 240.082163 186.534494 
L 243.817369 186.42818 
L 246.861107 186.121414 
L 249.851053 185.587864 
L 252.812 184.804439 
L 258.619645 182.881001 
L 262.604948 181.599157 
L 265.1982 180.981418 
L 267.359304 180.703025 
L 267.211211 180.752389 
" style="fill:none;opacity:0.7;stroke:#000000;stroke-linecap:square;stroke-width:1.2;"/>
   </g>
   <g id="line2d_19">
    <path clip-path="url(#pb130f9a9c5)" d="M 267.217124 162.324408 
L 267.714265 161.203456 
L 268.106866 160.797621 
L 268.009703 160.364946 
L 267.42609 159.70199 
L 266.870605 159.288712 
L 266.466544 159.285148 
L 265.809379 159.772378 
L 265.141342 159.38492 
L 263.563154 158.062406 
L 262.862131 157.335302 
L 261.824934 156.584232 
L 259.746358 155.672998 
L 256.508922 154.577654 
L 254.389025 154.086481 
L 251.711087 153.738038 
L 249.021765 153.662264 
L 246.157385 153.814628 
L 241.319943 154.373542 
L 236.326621 155.183403 
L 227.773424 156.86969 
L 223.844572 157.795382 
L 221.392887 158.570967 
L 219.807456 159.294468 
L 218.508978 160.131949 
L 217.503225 161.039894 
L 217.228709 161.430188 
L 217.187188 161.825675 
L 217.434044 162.305704 
L 218.161067 162.933134 
L 219.642505 163.906002 
L 221.534444 164.759714 
L 224.79881 165.87648 
L 227.406415 166.543391 
L 230.698335 167.1194 
L 233.946228 167.471517 
L 237.803158 167.636827 
L 241.634396 167.570946 
L 244.766502 167.328611 
L 247.839774 166.892618 
L 250.860474 166.232437 
L 253.859376 165.346536 
L 262.595439 162.597436 
L 265.223852 162.059986 
L 267.386373 161.946932 
L 267.341244 161.988009 
L 267.221767 162.047923 
L 267.221767 162.047923 
" style="fill:none;opacity:0.7;stroke:#000000;stroke-linecap:square;stroke-width:1.2;"/>
   </g>
   <g id="line2d_20">
    <path clip-path="url(#pb130f9a9c5)" d="M 267.221171 143.594417 
L 267.749556 142.409239 
L 268.193365 141.868752 
L 268.129578 141.303463 
L 267.574344 140.446333 
L 267.029215 139.907201 
L 266.629151 139.840839 
L 265.97596 140.264108 
L 265.312222 139.755139 
L 263.740024 138.137741 
L 263.039806 137.296498 
L 262.002023 136.37792 
L 260.482142 135.52454 
L 257.741267 134.281836 
L 255.614031 133.504724 
L 253.461479 132.956887 
L 251.320011 132.600354 
L 249.150049 132.447103 
L 246.879283 132.466148 
L 243.285701 132.788216 
L 239.573872 133.376665 
L 235.857841 134.205904 
L 232.113491 135.280684 
L 225.158929 137.533655 
L 221.82845 138.877394 
L 220.087126 139.825033 
L 218.620509 140.918073 
L 217.494006 142.1241 
L 217.197566 142.639234 
L 217.132311 143.121158 
L 217.29591 143.660905 
L 217.870523 144.337748 
L 218.671532 145.035597 
L 219.739928 145.675254 
L 221.691798 146.488467 
L 224.910405 147.507828 
L 227.554648 148.076285 
L 230.87286 148.520775 
L 234.155533 148.744337 
L 238.068729 148.769564 
L 241.948841 148.581482 
L 245.747046 148.158079 
L 248.848899 147.599226 
L 251.902395 146.822919 
L 258.489706 144.748774 
L 262.018501 143.728751 
L 264.781753 143.189248 
L 266.157361 143.133652 
L 267.413442 143.190838 
L 267.232324 143.343456 
L 267.232324 143.343456 
" style="fill:none;opacity:0.7;stroke:#000000;stroke-linecap:square;stroke-width:1.2;"/>
   </g>
   <g id="line2d_21">
    <path clip-path="url(#pb130f9a9c5)" d="M 329.478491 218.546122 
L 329.903081 217.622866 
L 330.164999 217.63753 
L 328.714647 217.483697 
L 328.297305 217.664177 
L 327.625844 218.341105 
L 326.945928 218.301612 
L 325.691999 217.962012 
L 323.630826 217.081058 
L 320.46174 216.607533 
L 317.820663 216.40916 
L 315.18142 216.453557 
L 312.559421 216.683444 
L 300.122169 218.18552 
L 296.202028 218.261066 
L 292.695406 218.110479 
L 284.588326 217.479373 
L 281.279327 217.565923 
L 279.961331 217.929348 
L 279.658162 218.177977 
L 279.800325 218.497034 
L 280.455063 218.989688 
L 285.197946 221.729939 
L 289.721628 224.242532 
L 292.275499 225.397429 
L 294.823162 226.31865 
L 297.943673 227.183817 
L 300.40009 227.643588 
L 302.846463 227.909028 
L 305.272588 227.981813 
L 307.651531 227.855766 
L 309.985179 227.519909 
L 312.286187 226.961497 
L 314.568999 226.168178 
L 317.407724 224.882555 
L 321.853534 222.543363 
L 326.201354 220.239294 
L 329.609797 218.516027 
L 329.596618 218.301319 
L 329.462486 218.231583 
L 329.462486 218.231583 
" style="fill:none;opacity:0.7;stroke:#000000;stroke-linecap:square;stroke-width:1.2;"/>
   </g>
   <g id="line2d_22">
    <path clip-path="url(#pb130f9a9c5)" d="M 329.482538 199.816131 
L 329.938372 198.828649 
L 330.251498 198.708661 
L 330.091784 198.5484 
L 329.17099 198.186243 
L 328.873257 198.102186 
L 328.459912 198.219868 
L 327.792426 198.832835 
L 327.116808 198.67183 
L 325.868052 198.095255 
L 324.17112 197.017072 
L 322.839508 196.595192 
L 320.097632 195.980924 
L 317.460522 195.597163 
L 314.803423 195.484307 
L 312.164935 195.589087 
L 308.236598 196.017077 
L 300.884358 196.896984 
L 295.717309 197.292737 
L 292.254328 197.392807 
L 286.800755 197.41271 
L 284.249006 197.612414 
L 282.170599 197.911723 
L 281.020065 198.314731 
L 279.975529 198.930197 
L 279.689105 199.222241 
L 279.645799 199.577223 
L 279.956085 200.041084 
L 280.844859 200.701986 
L 282.782657 201.944369 
L 285.352892 203.604971 
L 289.191509 205.689279 
L 291.762825 206.792373 
L 294.336597 207.650068 
L 296.871873 208.299002 
L 299.372594 208.740415 
L 301.85918 208.988306 
L 304.333938 209.051608 
L 306.765506 208.927044 
L 309.149917 208.60309 
L 311.499978 208.071475 
L 313.822299 207.316403 
L 316.134344 206.342289 
L 320.114882 204.372865 
L 326.728814 201.026355 
L 328.507255 200.312253 
L 329.642891 199.733893 
L 329.616615 199.5713 
L 329.473042 199.527116 
L 329.473042 199.527116 
" style="fill:none;opacity:0.7;stroke:#000000;stroke-linecap:square;stroke-width:1.2;"/>
   </g>
   <g id="line2d_23">
    <path clip-path="url(#pb130f9a9c5)" d="M 329.486585 181.08614 
L 329.973663 180.034433 
L 330.337996 179.779792 
L 330.211658 179.486916 
L 329.600479 179.016406 
L 329.031867 178.720675 
L 328.622518 178.775558 
L 327.959007 179.324565 
L 327.287687 179.042049 
L 326.044105 178.228498 
L 324.348615 176.865995 
L 323.524876 176.47597 
L 321.356956 175.72883 
L 318.679011 175.007014 
L 316.564426 174.637128 
L 313.896731 174.427129 
L 311.216642 174.470073 
L 308.354961 174.707514 
L 301.008672 175.644765 
L 291.85428 176.799357 
L 287.262089 177.29203 
L 284.747755 177.739689 
L 282.536173 178.32393 
L 281.21029 178.973331 
L 280.277071 179.651972 
L 279.666413 180.375448 
L 279.606066 180.832966 
L 279.870368 181.369362 
L 280.636683 182.082708 
L 285.503418 185.467315 
L 289.304797 187.42155 
L 291.904414 188.408854 
L 294.495705 189.145829 
L 297.0546 189.672983 
L 299.5882 189.995567 
L 302.743099 190.141483 
L 305.238399 190.057861 
L 307.688216 189.788329 
L 310.095706 189.327271 
L 312.467824 188.659226 
L 314.819151 187.775893 
L 318.314248 186.150771 
L 327.226208 181.864406 
L 329.712126 180.884208 
L 329.636612 180.841281 
L 329.483598 180.82265 
L 329.483598 180.82265 
" style="fill:none;opacity:0.7;stroke:#000000;stroke-linecap:square;stroke-width:1.2;"/>
   </g>
   <g id="line2d_24">
    <path clip-path="url(#pb130f9a9c5)" d="M 329.490632 162.356149 
L 330.008954 161.240216 
L 330.424495 160.850923 
L 330.331533 160.425433 
L 329.748732 159.760749 
L 329.190477 159.339165 
L 328.785125 159.331248 
L 328.125588 159.816294 
L 327.458567 159.412267 
L 325.890462 158.026359 
L 325.19302 157.264347 
L 324.162093 156.462124 
L 322.645648 155.71823 
L 319.909125 154.646723 
L 317.786399 153.99595 
L 315.640648 153.564752 
L 313.508089 153.315056 
L 310.792217 153.262033 
L 307.878184 153.454237 
L 303.630402 153.98521 
L 298.621152 154.860579 
L 288.515047 156.980751 
L 285.246505 157.866964 
L 282.901746 158.736136 
L 281.400515 159.631931 
L 280.329866 160.553621 
L 279.787917 161.245006 
L 279.564734 161.805116 
L 279.635692 162.383484 
L 280.040661 163.05529 
L 280.93131 163.906188 
L 283.035836 165.730426 
L 284.97297 166.944915 
L 288.131269 168.582773 
L 290.737478 169.58226 
L 293.363466 170.312904 
L 295.964653 170.823324 
L 298.540915 171.125907 
L 301.747584 171.247338 
L 304.921733 171.101896 
L 307.412802 170.786796 
L 309.861864 170.289893 
L 312.273111 169.596236 
L 314.660469 168.696891 
L 318.208103 167.066395 
L 326.21756 163.318679 
L 328.152252 162.653075 
L 329.568567 162.240276 
L 329.739196 162.128114 
L 329.656609 162.111262 
L 329.494154 162.118183 
L 329.494154 162.118183 
" style="fill:none;opacity:0.7;stroke:#000000;stroke-linecap:square;stroke-width:1.2;"/>
   </g>
   <g id="line2d_25">
    <path clip-path="url(#pb130f9a9c5)" d="M 329.494679 143.626158 
L 330.044245 142.445999 
L 330.510994 141.922055 
L 330.451408 141.36395 
L 329.896985 140.505091 
L 329.349087 139.957654 
L 328.947732 139.886939 
L 328.29217 140.308024 
L 327.629446 139.782486 
L 326.067332 138.101694 
L 325.370695 137.225542 
L 324.339182 136.255813 
L 322.821559 135.350609 
L 320.080611 134.027976 
L 317.949338 133.195343 
L 315.793724 132.601817 
L 313.649123 132.212917 
L 311.47321 132.03975 
L 309.195711 132.04994 
L 305.598449 132.382711 
L 301.880273 133.010867 
L 298.148962 133.892046 
L 293.734321 135.22349 
L 287.392614 137.340715 
L 284.11081 138.713023 
L 282.398009 139.688184 
L 280.907235 140.89525 
L 280.018123 141.932745 
L 279.621028 142.681861 
L 279.526602 143.344453 
L 279.698936 144.025918 
L 280.220329 144.844152 
L 281.991531 146.749054 
L 283.135474 147.630192 
L 285.1021 148.780309 
L 287.601149 150.02952 
L 290.224804 150.977204 
L 292.876901 151.644321 
L 295.511044 152.085485 
L 298.125075 152.318654 
L 301.38129 152.360109 
L 304.605067 152.145932 
L 307.137388 151.785264 
L 309.628021 151.252514 
L 312.078399 150.533245 
L 314.501788 149.617889 
L 318.101958 147.982019 
L 325.096344 144.759734 
L 327.72455 143.845628 
L 329.766265 143.372021 
L 329.50471 143.413717 
" style="fill:none;opacity:0.7;stroke:#000000;stroke-linecap:square;stroke-width:1.2;"/>
   </g>
  </g>
 </g>
 <defs>
  <clipPath id="pb130f9a9c5">
   <rect height="329.04" width="329.04" x="15.48" y="15.48"/>
  </clipPath>
 </defs>
</svg>
