<?xml version="1.0" encoding="utf-8" standalone="no"?>
<!DOCTYPE svg PUBLIC "-//W3C//DTD SVG 1.1//EN"
  "http://www.w3.org/Graphics/SVG/1.1/DTD/svg11.dtd">
<!-- Created with matplotlib (http://matplotlib.org/) -->
<svg height="360pt" version="1.1" viewBox="0 0 360 360" width="360pt" xmlns="http://www.w3.org/2000/svg" xmlns:xlink="http://www.w3.org/1999/xlink">
 <defs>
  <style type="text/css">
*{stroke-linecap:butt;stroke-linejoin:round;}
  </style>
 </defs>
 <g id="figure_1">
  <g id="patch_1">
   <path d="M 0 360 
L 360 360 
L 360 0 
L 0 0 
z
" style="fill:#ffffff;"/>
  </g>
  <g id="axes_1">
   <g id="line2d_1">
    <path clip-path="url(#p15c0dce879)" d="M 80.369793 218.769948 
L 79.387508 219.106882 
L 71.98684 218.868736 
L 71.45565 218.581978 
L 68.784099 218.579597 
L 66.776199 218.673571 
L 65.461391 218.813371 
L 58.229713 219.066142 
L 53.583059 219.021256 
L 47.829044 218.738277 
L 38.031956 218.190067 
L 34.425294 218.254301 
L 32.504754 218.4718 
L 30.870059 218.839277 
L 29.734024 219.332803 
L 29.465171 219.70576 
L 29.7394 219.675484 
L 30.229117 219.320971 
L 30.727111 218.845483 
L 33.356101 217.757439 
L 36.499466 216.536396 
L 39.736604 215.569158 
L 42.412301 214.999625 
L 45.112059 214.620921 
L 48.372314 214.395373 
L 51.655159 214.395385 
L 54.987305 214.616589 
L 58.361332 215.059741 
L 61.76043 215.738806 
L 73.905537 218.459108 
L 77.898353 218.832432 
L 80.35467 218.908649 
L 80.35467 218.908649 
" style="fill:none;opacity:0.7;stroke:#000000;stroke-linecap:square;stroke-width:1.2;"/>
   </g>
   <g id="line2d_2">
    <path clip-path="url(#p15c0dce879)" d="M 80.373857 199.961138 
L 79.422948 200.233576 
L 72.150132 199.342602 
L 71.622932 198.991613 
L 68.958735 198.747306 
L 66.953813 198.66506 
L 65.639813 198.69024 
L 58.984178 198.351252 
L 52.565262 197.82391 
L 42.975592 196.98463 
L 39.753852 196.917746 
L 37.143854 197.042461 
L 34.666751 197.381485 
L 32.834565 197.871981 
L 31.30724 198.552181 
L 30.446954 199.163519 
L 29.906747 199.829082 
L 29.849201 200.178213 
L 30.041612 200.273493 
L 30.553782 200.120097 
L 31.141207 199.867965 
L 33.853825 198.729825 
L 36.512444 197.733905 
L 39.760476 196.740058 
L 42.476784 196.127319 
L 45.226461 195.697661 
L 48.549049 195.41289 
L 51.898926 195.368927 
L 55.301517 195.564966 
L 58.741155 196.008385 
L 62.195934 196.705231 
L 69.750188 198.567394 
L 73.931297 199.458051 
L 77.931586 199.97126 
L 80.36527 200.125471 
L 80.36527 200.125471 
" style="fill:none;opacity:0.7;stroke:#000000;stroke-linecap:square;stroke-width:1.2;"/>
   </g>
   <g id="line2d_3">
    <path clip-path="url(#p15c0dce879)" d="M 80.377921 181.152328 
L 79.458387 181.36027 
L 72.937111 180.034106 
L 72.313423 179.816467 
L 71.790215 179.401249 
L 69.133371 178.915014 
L 67.131427 178.656549 
L 65.818236 178.567109 
L 59.156385 177.645738 
L 44.729234 175.65555 
L 41.473221 175.544444 
L 38.83948 175.688441 
L 36.811794 175.997822 
L 34.908209 176.50867 
L 33.577592 177.0562 
L 32.417374 177.739865 
L 31.450917 178.543615 
L 30.73572 179.420098 
L 30.199394 180.365316 
L 30.121452 180.829899 
L 30.307826 181.226113 
L 30.554957 181.344892 
L 30.84944 181.194326 
L 31.902341 180.732888 
L 35.977996 179.112619 
L 39.251342 178.041519 
L 42.560079 177.227507 
L 45.36161 176.747079 
L 48.746326 176.407432 
L 52.165337 176.325268 
L 55.637828 176.503513 
L 58.554662 176.860379 
L 62.063816 177.539747 
L 67.366952 178.836621 
L 73.326169 180.330825 
L 77.232261 181.010489 
L 80.375871 181.342292 
L 80.375871 181.342292 
" style="fill:none;opacity:0.7;stroke:#000000;stroke-linecap:square;stroke-width:1.2;"/>
   </g>
   <g id="line2d_4">
    <path clip-path="url(#p15c0dce879)" d="M 80.381985 162.343518 
L 79.493827 162.486964 
L 73.096388 160.571034 
L 72.476714 160.290332 
L 71.957497 159.810884 
L 69.976734 159.248406 
L 67.309041 158.648038 
L 65.331701 158.306317 
L 57.563367 156.542903 
L 49.920186 154.925797 
L 45.957254 154.326376 
L 43.209504 154.147741 
L 41.061574 154.190512 
L 38.978834 154.43208 
L 36.990598 154.904107 
L 35.591852 155.426454 
L 34.29458 156.113378 
L 33.133998 156.974999 
L 32.181602 157.977987 
L 31.446658 159.08404 
L 30.410896 161.075482 
L 30.257765 161.904441 
L 30.412073 162.49826 
L 30.489942 162.608673 
L 30.512799 162.58584 
L 30.715478 162.416508 
L 34.891291 160.696396 
L 39.294258 159.174235 
L 42.662629 158.300041 
L 45.517545 157.769741 
L 48.388376 157.425982 
L 51.283487 157.272922 
L 54.22081 157.314221 
L 57.181263 157.556336 
L 60.149427 158.009288 
L 64.316652 158.927306 
L 69.698983 160.356476 
L 74.617497 161.586664 
L 78.762098 162.363353 
L 80.386471 162.559114 
L 80.386471 162.559114 
" style="fill:none;opacity:0.7;stroke:#000000;stroke-linecap:square;stroke-width:1.2;"/>
   </g>
   <g id="line2d_5">
    <path clip-path="url(#p15c0dce879)" d="M 80.386049 143.534708 
L 79.529266 143.613657 
L 73.255666 141.107963 
L 72.640005 140.764198 
L 72.12478 140.22052 
L 70.149955 139.47585 
L 67.486655 138.639527 
L 65.51017 138.126532 
L 58.320354 135.876042 
L 52.406341 134.193913 
L 48.887575 133.376498 
L 46.074856 132.907133 
L 43.870279 132.740354 
L 41.7128 132.780608 
L 39.624731 133.063353 
L 38.127421 133.454906 
L 36.705682 134.017218 
L 35.391124 134.763039 
L 34.189139 135.711539 
L 33.179527 136.845467 
L 32.377468 138.132913 
L 30.377614 142.389302 
L 30.28931 143.235323 
L 30.351227 143.885413 
L 30.343261 143.763785 
L 33.27378 142.509582 
L 38.233073 140.644441 
L 41.631383 139.629365 
L 44.526431 138.974283 
L 47.445545 138.512759 
L 50.383163 138.252447 
L 53.364563 138.198946 
L 56.373334 138.359431 
L 59.385945 138.746163 
L 63.007726 139.477807 
L 67.252419 140.556379 
L 75.294746 142.756904 
L 78.789281 143.528331 
L 80.397072 143.775936 
L 80.397072 143.775936 
" style="fill:none;opacity:0.7;stroke:#000000;stroke-linecap:square;stroke-width:1.2;"/>
   </g>
   <g id="line2d_6">
    <path clip-path="url(#p15c0dce879)" d="M 142.905359 218.801823 
L 141.944345 219.143797 
L 134.567669 218.91503 
L 134.034097 218.626079 
L 131.367242 218.585631 
L 128.716301 218.715236 
L 124.300716 218.795424 
L 118.497751 218.747603 
L 112.119143 218.430046 
L 101.653543 217.874197 
L 97.963619 217.926004 
L 95.481933 218.159671 
L 93.750277 218.517213 
L 92.446032 219.019192 
L 92.013806 219.440467 
L 92.141451 219.592153 
L 92.638017 219.491207 
L 93.070204 219.417992 
L 94.467365 219.518752 
L 96.919232 219.214129 
L 101.606472 218.592207 
L 105.877939 218.232025 
L 111.297984 218.012967 
L 116.781042 217.991579 
L 121.803455 218.176448 
L 128.01502 218.678739 
L 134.857791 219.139989 
L 137.872456 219.135018 
L 142.889109 218.979205 
L 142.889109 218.979205 
" style="fill:none;opacity:0.7;stroke:#000000;stroke-linecap:square;stroke-width:1.2;"/>
   </g>
   <g id="line2d_7">
    <path clip-path="url(#p15c0dce879)" d="M 142.909423 199.993013 
L 141.979784 200.270491 
L 135.359958 199.547842 
L 134.73096 199.388895 
L 134.201379 199.035714 
L 131.541878 198.753339 
L 128.894429 198.649309 
L 124.477367 198.342092 
L 116.911079 197.629331 
L 106.639817 196.640144 
L 103.386358 196.550003 
L 100.212835 196.686331 
L 97.678464 197.021482 
L 95.787707 197.48734 
L 94.159333 198.14941 
L 93.195414 198.760969 
L 92.579517 199.429468 
L 92.398683 199.875713 
L 92.49365 200.163406 
L 93.138645 200.611176 
L 93.637449 200.807933 
L 94.544462 200.829077 
L 96.884491 200.537991 
L 103.230208 199.673117 
L 108.706139 199.188591 
L 114.257054 198.9391 
L 119.336643 198.940699 
L 123.902234 199.177686 
L 137.283595 200.173271 
L 142.89971 200.196027 
L 142.89971 200.196027 
" style="fill:none;opacity:0.7;stroke:#000000;stroke-linecap:square;stroke-width:1.2;"/>
   </g>
   <g id="line2d_8">
    <path clip-path="url(#p15c0dce879)" d="M 142.913487 181.184203 
L 142.015223 181.397184 
L 135.519236 180.084771 
L 134.894251 179.862761 
L 134.368662 179.44535 
L 131.716515 178.921048 
L 129.072557 178.583383 
L 124.654018 177.888761 
L 110.651357 175.584891 
L 107.304516 175.244078 
L 104.581044 175.160668 
L 101.920186 175.297841 
L 99.859873 175.596397 
L 97.902169 176.088064 
L 96.093481 176.81501 
L 94.917853 177.519114 
L 93.944937 178.342488 
L 93.241529 179.245841 
L 92.765794 180.20549 
L 92.702452 180.955843 
L 92.925313 181.561756 
L 93.344424 182.001224 
L 93.883831 182.171475 
L 94.982615 182.122153 
L 97.866206 181.70382 
L 106.045919 180.536316 
L 111.106453 180.068306 
L 115.653929 179.84209 
L 120.270594 179.839247 
L 124.333361 180.059512 
L 132.510739 180.822357 
L 137.314642 181.192462 
L 142.91031 181.412849 
L 142.91031 181.412849 
" style="fill:none;opacity:0.7;stroke:#000000;stroke-linecap:square;stroke-width:1.2;"/>
   </g>
   <g id="line2d_9">
    <path clip-path="url(#p15c0dce879)" d="M 142.917551 162.375393 
L 142.050663 162.523878 
L 135.678513 160.6217 
L 135.057543 160.336626 
L 134.535944 159.854985 
L 131.891151 159.088756 
L 129.250684 158.517457 
L 125.409573 157.586259 
L 116.038683 155.257438 
L 111.345506 154.310862 
L 107.975255 153.857696 
L 105.239789 153.751459 
L 103.100748 153.871948 
L 101.029222 154.202722 
L 99.055274 154.772171 
L 97.679014 155.372358 
L 96.399255 156.142679 
L 95.298929 157.071915 
L 94.408212 158.137137 
L 93.544203 159.6888 
L 92.983993 160.938056 
L 92.79707 161.955044 
L 92.902525 162.635652 
L 93.258347 163.250929 
L 93.592063 163.497837 
L 94.513743 163.503741 
L 96.807156 163.182358 
L 109.017424 161.281355 
L 113.621056 160.867631 
L 117.710998 160.699829 
L 121.832196 160.755504 
L 126.558592 161.090102 
L 133.081899 161.784626 
L 139.938425 162.437882 
L 142.92091 162.629671 
L 142.92091 162.629671 
" style="fill:none;opacity:0.7;stroke:#000000;stroke-linecap:square;stroke-width:1.2;"/>
   </g>
   <g id="line2d_10">
    <path clip-path="url(#p15c0dce879)" d="M 142.921615 143.566583 
L 142.086102 143.650572 
L 136.497866 141.426985 
L 135.220834 140.810492 
L 134.703227 140.264621 
L 132.731181 139.493181 
L 130.076247 138.603328 
L 128.105724 138.038292 
L 122.102476 135.979782 
L 116.186687 134.133418 
L 112.050037 133.082768 
L 109.21178 132.561199 
L 106.990254 132.357388 
L 104.817891 132.366259 
L 102.703869 132.617465 
L 101.176085 132.981668 
L 99.714936 133.512813 
L 98.349581 134.221229 
L 97.097394 135.123068 
L 95.993898 136.222825 
L 95.113309 137.483385 
L 94.44544 138.860234 
L 92.850087 142.776324 
L 92.879737 143.709548 
L 93.300296 144.824198 
L 93.696548 144.889231 
L 94.848081 144.802557 
L 98.415958 144.188512 
L 106.871225 142.618069 
L 111.539648 142.002275 
L 115.674749 141.665603 
L 119.860652 141.563694 
L 123.45186 141.691597 
L 128.255524 142.100516 
L 134.276471 142.846746 
L 142.161225 143.782012 
L 142.931511 143.846493 
L 142.931511 143.846493 
" style="fill:none;opacity:0.7;stroke:#000000;stroke-linecap:square;stroke-width:1.2;"/>
   </g>
   <g id="line2d_11">
    <path clip-path="url(#p15c0dce879)" d="M 205.440925 218.833698 
L 204.501181 219.180711 
L 197.782806 219.061579 
L 197.148498 218.961324 
L 196.612544 218.67018 
L 193.950385 218.591665 
L 190.647768 218.670863 
L 184.015327 218.54691 
L 177.604813 218.217967 
L 165.833049 217.546079 
L 161.545254 217.590093 
L 158.487646 217.843105 
L 156.656178 218.19276 
L 155.205753 218.689754 
L 154.617966 219.131797 
L 154.597971 219.38611 
L 155.02729 219.522385 
L 155.419935 219.628855 
L 156.306045 220.158148 
L 157.501756 220.495902 
L 160.443327 220.946436 
L 164.024021 221.286813 
L 169.344641 221.573254 
L 174.767361 221.623854 
L 180.242037 221.438114 
L 190.845211 220.803793 
L 197.051642 220.193601 
L 205.423548 219.049761 
L 205.423548 219.049761 
" style="fill:none;opacity:0.7;stroke:#000000;stroke-linecap:square;stroke-width:1.2;"/>
   </g>
   <g id="line2d_12">
    <path clip-path="url(#p15c0dce879)" d="M 205.444989 200.024888 
L 204.53662 200.307405 
L 197.942083 199.598508 
L 197.311789 199.435189 
L 196.779827 199.079816 
L 194.125022 198.759373 
L 190.82619 198.547732 
L 184.771842 197.907946 
L 169.214788 196.232933 
L 165.954955 196.182665 
L 162.766088 196.371152 
L 160.212487 196.749675 
L 158.303596 197.24615 
L 156.656207 197.93531 
L 155.69099 198.567218 
L 155.100308 199.261463 
L 154.965082 199.715888 
L 155.139291 200.227654 
L 155.785418 201.077822 
L 156.507527 201.560673 
L 157.629011 201.936199 
L 159.915157 202.346157 
L 162.967568 202.614801 
L 167.244389 202.764523 
L 172.739019 202.716073 
L 178.853829 202.418165 
L 195.896868 201.237214 
L 205.434149 200.266583 
L 205.434149 200.266583 
" style="fill:none;opacity:0.7;stroke:#000000;stroke-linecap:square;stroke-width:1.2;"/>
   </g>
   <g id="line2d_13">
    <path clip-path="url(#p15c0dce879)" d="M 205.449053 181.216078 
L 204.57206 181.434099 
L 198.771767 180.282772 
L 197.47508 179.909055 
L 196.947109 179.489451 
L 194.299658 178.927081 
L 191.663554 178.52927 
L 187.833829 177.829058 
L 176.13106 175.597929 
L 171.552916 174.964497 
L 168.78534 174.785154 
L 166.076861 174.819251 
L 163.439036 175.099594 
L 161.404867 175.527124 
L 159.506239 176.162089 
L 158.186497 176.803354 
L 157.065263 177.567506 
L 156.176227 178.444683 
L 155.582651 179.391129 
L 155.332194 180.045665 
L 155.251292 180.932924 
L 155.401419 181.638064 
L 155.745519 182.254686 
L 156.368811 182.837414 
L 157.256794 183.283475 
L 158.490995 183.60271 
L 160.340532 183.855135 
L 163.499072 184.014864 
L 167.860244 183.992044 
L 173.468173 183.727522 
L 183.730814 182.941893 
L 205.444749 181.483405 
L 205.444749 181.483405 
" style="fill:none;opacity:0.7;stroke:#000000;stroke-linecap:square;stroke-width:1.2;"/>
   </g>
   <g id="line2d_14">
    <path clip-path="url(#p15c0dce879)" d="M 205.453117 162.407268 
L 204.607499 162.560793 
L 199.596489 161.092323 
L 197.638371 160.38292 
L 197.114391 159.899087 
L 194.474294 159.09479 
L 191.841682 158.463343 
L 188.010944 157.428926 
L 180.399802 155.321748 
L 176.266039 154.346563 
L 172.786932 153.709752 
L 170.550946 153.443 
L 167.812462 153.361493 
L 165.66724 153.512917 
L 163.585899 153.87854 
L 161.597279 154.48314 
L 160.208362 155.108861 
L 158.915144 155.901489 
L 157.799408 156.851164 
L 156.902232 157.936009 
L 156.248185 159.115232 
L 155.557091 160.800631 
L 155.336374 162.005648 
L 155.46861 162.926401 
L 155.86616 163.673953 
L 156.626454 164.474986 
L 157.216665 164.769789 
L 158.412945 165.076141 
L 160.314981 165.289019 
L 163.517455 165.354987 
L 167.951596 165.176042 
L 174.237625 164.670319 
L 187.634105 163.506915 
L 198.838239 162.907111 
L 204.718742 162.714622 
L 205.45535 162.700227 
L 205.45535 162.700227 
" style="fill:none;opacity:0.7;stroke:#000000;stroke-linecap:square;stroke-width:1.2;"/>
   </g>
   <g id="line2d_15">
    <path clip-path="url(#p15c0dce879)" d="M 205.457181 143.598458 
L 204.642938 143.687487 
L 199.745366 141.755635 
L 197.801662 140.856785 
L 197.281674 140.308722 
L 194.64893 139.262498 
L 192.01981 138.397417 
L 188.188059 137.028793 
L 182.333034 134.901079 
L 177.589148 133.415777 
L 174.050404 132.546758 
L 171.227617 132.073412 
L 169.018895 131.936123 
L 166.853298 132.029929 
L 164.748926 132.379617 
L 163.233926 132.824549 
L 161.78969 133.439155 
L 160.44982 134.236045 
L 159.220918 135.229158 
L 158.180484 136.403966 
L 157.365508 137.730659 
L 155.837938 141.249266 
L 155.475293 142.343463 
L 155.362793 143.256462 
L 155.445822 144.000297 
L 155.811051 144.890724 
L 156.512359 145.978028 
L 157.125144 146.274594 
L 158.330645 146.545318 
L 160.30278 146.704114 
L 162.997559 146.686182 
L 167.487248 146.376971 
L 175.048453 145.550688 
L 183.933288 144.604482 
L 190.484747 144.164226 
L 197.043809 143.920984 
L 203.321772 143.878784 
L 205.46595 143.917049 
L 205.46595 143.917049 
" style="fill:none;opacity:0.7;stroke:#000000;stroke-linecap:square;stroke-width:1.2;"/>
   </g>
   <g id="line2d_16">
    <path clip-path="url(#p15c0dce879)" d="M 267.976491 218.865573 
L 267.058017 219.217626 
L 260.36493 219.112244 
L 259.729326 219.007618 
L 259.190991 218.714281 
L 255.868805 218.579218 
L 245.447428 218.22117 
L 227.85922 217.17884 
L 224.090788 217.292514 
L 221.007948 217.594864 
L 219.156657 217.97201 
L 217.701328 218.496002 
L 217.138757 218.963792 
L 217.164371 219.226285 
L 218.266895 220.171003 
L 219.095511 220.814481 
L 220.536147 221.473051 
L 226.454477 223.778433 
L 229.064844 224.422036 
L 231.73435 224.878313 
L 234.977608 225.185218 
L 238.2361 225.236835 
L 241.507012 225.046172 
L 245.345057 224.57875 
L 249.770379 223.798074 
L 254.233286 222.790392 
L 259.818981 221.267839 
L 265.834085 219.568993 
L 267.957988 219.120317 
L 267.957988 219.120317 
" style="fill:none;opacity:0.7;stroke:#000000;stroke-linecap:square;stroke-width:1.2;"/>
   </g>
   <g id="line2d_17">
    <path clip-path="url(#p15c0dce879)" d="M 267.980555 200.056763 
L 267.093456 200.34432 
L 261.883641 199.824707 
L 259.892617 199.481483 
L 259.358274 199.123917 
L 256.708165 198.765407 
L 243.266166 197.085326 
L 236.838776 196.241915 
L 232.338151 195.848858 
L 229.06418 195.800344 
L 225.84885 195.996465 
L 223.247528 196.374607 
L 221.29046 196.852795 
L 219.537734 197.524811 
L 218.469702 198.145584 
L 217.752297 198.853681 
L 217.540111 199.333894 
L 217.620098 199.984835 
L 217.957474 200.839434 
L 218.432191 201.544467 
L 219.009435 202.064185 
L 220.24438 202.799412 
L 223.403328 204.347163 
L 225.404333 205.006061 
L 228.02342 205.625188 
L 230.716253 206.038049 
L 234.007943 206.282433 
L 237.324765 206.27927 
L 240.652931 206.044719 
L 244.559852 205.54196 
L 249.620254 204.636044 
L 254.717929 203.497616 
L 262.145152 201.5882 
L 265.202083 200.839103 
L 267.968588 200.337139 
L 267.968588 200.337139 
" style="fill:none;opacity:0.7;stroke:#000000;stroke-linecap:square;stroke-width:1.2;"/>
   </g>
   <g id="line2d_18">
    <path clip-path="url(#p15c0dce879)" d="M 267.984619 181.247953 
L 267.128896 181.471014 
L 262.032518 180.488018 
L 260.055909 179.955349 
L 259.525556 179.533552 
L 256.882801 178.933115 
L 236.964797 174.913999 
L 233.009408 174.45324 
L 230.26763 174.380862 
L 227.575188 174.549605 
L 225.475287 174.873773 
L 223.454893 175.384067 
L 221.572972 176.110725 
L 220.295486 176.817032 
L 219.228001 177.642567 
L 218.443596 178.57158 
L 217.977506 179.557447 
L 217.811124 180.562043 
L 217.8726 181.540616 
L 218.204347 182.430944 
L 218.632566 183.017338 
L 219.579636 183.856697 
L 221.143162 184.900684 
L 222.417652 185.554043 
L 223.836383 186.088695 
L 225.913708 186.636616 
L 228.588828 187.099677 
L 231.343877 187.348916 
L 234.704955 187.405241 
L 238.083716 187.229344 
L 242.047748 186.774067 
L 247.182082 185.920552 
L 252.919721 184.73901 
L 266.580557 181.744211 
L 267.979189 181.553961 
L 267.979189 181.553961 
" style="fill:none;opacity:0.7;stroke:#000000;stroke-linecap:square;stroke-width:1.2;"/>
   </g>
   <g id="line2d_19">
    <path clip-path="url(#p15c0dce879)" d="M 267.988683 162.439143 
L 267.164335 162.597708 
L 262.861677 161.361514 
L 260.2192 160.429214 
L 259.692838 159.943188 
L 257.057438 159.100824 
L 241.224679 154.508755 
L 237.090818 153.586083 
L 233.686396 153.075795 
L 231.476426 152.958523 
L 229.303758 153.036508 
L 227.177702 153.325927 
L 225.125215 153.844057 
L 223.662257 154.393527 
L 222.291635 155.097541 
L 221.027369 155.969131 
L 219.971193 156.985603 
L 219.157039 158.128397 
L 218.585785 159.35279 
L 218.130188 160.663206 
L 217.912132 161.615274 
L 217.886858 162.461514 
L 218.034695 163.217149 
L 218.352392 163.898195 
L 219.100173 164.866894 
L 220.306381 166.016499 
L 221.460021 166.746833 
L 222.803784 167.32218 
L 224.857425 167.884448 
L 226.993758 168.258489 
L 229.754027 168.509589 
L 232.582641 168.555478 
L 236.016102 168.393596 
L 240.037493 167.948714 
L 245.252412 167.098889 
L 252.237102 165.702625 
L 264.030668 163.240023 
L 267.989789 162.770783 
L 267.989789 162.770783 
" style="fill:none;opacity:0.7;stroke:#000000;stroke-linecap:square;stroke-width:1.2;"/>
   </g>
   <g id="line2d_20">
    <path clip-path="url(#p15c0dce879)" d="M 267.992747 143.630333 
L 267.199774 143.724402 
L 262.330272 141.81464 
L 260.382491 140.903079 
L 259.860121 140.352823 
L 257.232074 139.268532 
L 253.296832 137.861812 
L 248.480433 135.926908 
L 243.742714 134.16844 
L 240.180552 133.02671 
L 237.216839 132.258167 
L 234.3666 131.725088 
L 232.140195 131.542966 
L 229.961298 131.600472 
L 227.832366 131.91643 
L 226.289439 132.333303 
L 224.806003 132.917654 
L 223.417627 133.677615 
L 222.137997 134.626587 
L 221.004593 135.767755 
L 220.102363 137.068374 
L 219.4433 138.492101 
L 218.024133 142.320543 
L 217.901116 143.382411 
L 218.011907 144.291045 
L 218.312493 145.075059 
L 219.369078 146.778497 
L 219.875981 147.382652 
L 220.561033 147.916878 
L 221.805287 148.546123 
L 223.276554 149.01464 
L 225.391672 149.43752 
L 228.144259 149.705383 
L 230.990425 149.742102 
L 234.472341 149.552126 
L 238.556573 149.077302 
L 243.855373 148.189487 
L 252.13051 146.537939 
L 260.995997 144.785467 
L 265.313586 144.179276 
L 268.00039 143.987605 
L 268.00039 143.987605 
" style="fill:none;opacity:0.7;stroke:#000000;stroke-linecap:square;stroke-width:1.2;"/>
   </g>
   <g id="line2d_21">
    <path clip-path="url(#p15c0dce879)" d="M 330.512057 218.897448 
L 329.614853 219.254541 
L 324.319671 219.220401 
L 322.310155 219.053912 
L 321.769438 218.758383 
L 318.45392 218.572627 
L 309.218683 218.037054 
L 293.7004 216.829955 
L 289.882258 216.832263 
L 286.104052 217.037031 
L 283.528249 217.346624 
L 281.657136 217.751259 
L 280.500446 218.149808 
L 279.757258 218.635778 
L 279.647169 218.945278 
L 280.86524 220.547509 
L 281.45408 221.143952 
L 282.386396 221.789414 
L 284.687297 223.164753 
L 287.894099 225.495609 
L 289.919427 226.557211 
L 291.996588 227.416515 
L 294.125721 228.06983 
L 296.280418 228.524179 
L 298.446846 228.789116 
L 300.617839 228.868108 
L 303.334736 228.713183 
L 306.055352 228.311422 
L 308.784741 227.696482 
L 312.078763 226.714084 
L 315.396132 225.502946 
L 319.81972 223.615519 
L 327.833911 220.039714 
L 330.492427 219.190874 
L 330.492427 219.190874 
" style="fill:none;opacity:0.7;stroke:#000000;stroke-linecap:square;stroke-width:1.2;"/>
   </g>
   <g id="line2d_22">
    <path clip-path="url(#p15c0dce879)" d="M 330.516121 200.088638 
L 329.650292 200.381235 
L 325.163563 199.967317 
L 323.106333 199.699838 
L 322.473446 199.527777 
L 321.936721 199.168018 
L 318.629736 198.681043 
L 309.39089 197.33154 
L 300.004249 195.898406 
L 295.467869 195.46348 
L 292.177732 195.409191 
L 288.938211 195.612445 
L 286.296464 195.993046 
L 284.294566 196.459837 
L 282.446279 197.114135 
L 281.285347 197.722158 
L 280.442673 198.427253 
L 280.14189 198.925453 
L 280.097882 199.396237 
L 280.50427 201.04541 
L 280.833966 201.677479 
L 281.398972 202.360723 
L 282.247681 203.066154 
L 284.692307 204.908361 
L 286.418117 206.289348 
L 287.858502 207.165166 
L 289.908862 208.136185 
L 292.022122 208.884318 
L 294.189605 209.419894 
L 296.384045 209.756059 
L 298.591591 209.906577 
L 301.35575 209.842878 
L 304.125192 209.520264 
L 306.899897 208.980107 
L 310.244382 208.088615 
L 313.600752 206.970538 
L 317.538164 205.436292 
L 328.512561 200.953341 
L 330.503027 200.407696 
L 330.503027 200.407696 
" style="fill:none;opacity:0.7;stroke:#000000;stroke-linecap:square;stroke-width:1.2;"/>
   </g>
   <g id="line2d_23">
    <path clip-path="url(#p15c0dce879)" d="M 330.520185 181.279828 
L 329.685732 181.507929 
L 325.305112 180.694935 
L 323.26561 180.236767 
L 322.636737 180.001643 
L 322.104003 179.577654 
L 318.805553 178.789459 
L 308.973399 176.481905 
L 302.488701 175.019522 
L 298.390585 174.334588 
L 295.585098 174.038544 
L 292.840302 173.990896 
L 290.139436 174.199087 
L 288.028539 174.558594 
L 285.993165 175.103639 
L 284.093274 175.862485 
L 282.800833 176.589497 
L 281.722528 177.435061 
L 280.942526 178.387514 
L 280.624233 179.055119 
L 280.422438 180.077147 
L 280.361965 181.285576 
L 280.495012 182.050014 
L 280.802692 182.80745 
L 281.343863 183.577494 
L 282.532231 184.714438 
L 284.223435 186.289949 
L 285.448318 187.362209 
L 286.821472 188.281132 
L 288.861411 189.271815 
L 290.978319 190.019437 
L 293.163495 190.54137 
L 295.387604 190.855493 
L 297.63154 190.982666 
L 300.444824 190.896104 
L 303.263214 190.555314 
L 306.089051 190.003036 
L 309.49136 189.110467 
L 313.468633 187.805053 
L 318.033838 186.056967 
L 326.69595 182.638601 
L 329.195771 181.926156 
L 330.513628 181.624517 
L 330.513628 181.624517 
" style="fill:none;opacity:0.7;stroke:#000000;stroke-linecap:square;stroke-width:1.2;"/>
   </g>
   <g id="line2d_24">
    <path clip-path="url(#p15c0dce879)" d="M 330.524249 162.471018 
L 329.721171 162.634623 
L 325.44666 161.422553 
L 323.424888 160.773695 
L 322.800028 160.475508 
L 322.271285 159.987289 
L 319.640581 159.106857 
L 302.630328 153.828582 
L 299.08975 153.066252 
L 296.262776 152.658935 
L 294.050734 152.556408 
L 291.874008 152.661169 
L 289.7398 152.984059 
L 287.674538 153.537781 
L 286.20053 154.113099 
L 284.81621 154.84194 
L 283.538429 155.734727 
L 282.468067 156.771503 
L 281.652614 157.934646 
L 281.106576 159.184785 
L 280.565374 161.049965 
L 280.414982 162.106855 
L 280.485754 163.054619 
L 280.771418 163.937421 
L 281.288754 164.794266 
L 283.053674 166.844995 
L 284.1233 168.056446 
L 285.352757 169.088656 
L 286.786385 169.938499 
L 288.859026 170.825782 
L 291.016811 171.455835 
L 293.243705 171.856769 
L 295.509905 172.05224 
L 298.368914 172.044297 
L 301.232443 171.778525 
L 304.10542 171.286712 
L 307.562759 170.460639 
L 311.600715 169.236215 
L 316.235243 167.574227 
L 326.124036 163.885917 
L 328.579027 163.230997 
L 330.524228 162.841339 
L 330.524228 162.841339 
" style="fill:none;opacity:0.7;stroke:#000000;stroke-linecap:square;stroke-width:1.2;"/>
   </g>
   <g id="line2d_25">
    <path clip-path="url(#p15c0dce879)" d="M 330.528313 143.662208 
L 329.756611 143.761316 
L 325.588208 142.150172 
L 323.584165 141.310624 
L 322.96332 140.949373 
L 322.438568 140.396925 
L 319.815217 139.274566 
L 305.155888 133.406185 
L 301.578752 132.294034 
L 298.633155 131.59797 
L 296.380378 131.239691 
L 294.167512 131.131892 
L 291.993797 131.279251 
L 289.873121 131.695881 
L 288.340431 132.194192 
L 286.873699 132.861093 
L 285.508515 133.709052 
L 284.252696 134.746778 
L 283.181442 135.962464 
L 282.353548 137.328404 
L 281.588919 139.314451 
L 280.572972 142.297623 
L 280.439439 143.508361 
L 280.577992 144.581794 
L 280.959266 145.541705 
L 282.114126 147.319176 
L 283.62589 149.44798 
L 284.391976 150.16165 
L 285.748845 151.066656 
L 287.279632 151.785423 
L 289.412809 152.488266 
L 291.636224 152.936978 
L 293.918196 153.161687 
L 296.23419 153.19474 
L 299.1465 153.001265 
L 302.06274 152.570245 
L 305.578054 151.801457 
L 309.684902 150.644597 
L 314.381397 149.056703 
L 325.561318 145.105809 
L 327.982582 144.493278 
L 330.534829 144.058161 
L 330.534829 144.058161 
" style="fill:none;opacity:0.7;stroke:#000000;stroke-linecap:square;stroke-width:1.2;"/>
   </g>
  </g>
 </g>
 <defs>
  <clipPath id="p15c0dce879">
   <rect height="329.04" width="329.04" x="15.48" y="15.48"/>
  </clipPath>
 </defs>
</svg>
