<?xml version="1.0" encoding="utf-8" standalone="no"?>
<!DOCTYPE svg PUBLIC "-//W3C//DTD SVG 1.1//EN"
  "http://www.w3.org/Graphics/SVG/1.1/DTD/svg11.dtd">
<!-- Created with matplotlib (http://matplotlib.org/) -->
<svg height="345.6pt" version="1.1" viewBox="0 0 460.8 345.6" width="460.8pt" xmlns="http://www.w3.org/2000/svg" xmlns:xlink="http://www.w3.org/1999/xlink">
 <defs>
  <style type="text/css">
*{stroke-linecap:butt;stroke-linejoin:round;}
  </style>
 </defs>
 <g id="figure_1">
  <g id="patch_1">
   <path d="M 0 345.6 
L 460.8 345.6 
L 460.8 0 
L 0 0 
z
" style="fill:#ffffff;"/>
  </g>
  <g id="axes_1">
   <g id="patch_2">
    <path d="M 57.6 307.584 
L 414.72 307.584 
L 414.72 41.472 
L 57.6 41.472 
z
" style="fill:#ffffff;"/>
   </g>
   <g id="matplotlib.axis_1">
    <g id="xtick_1">
     <g id="line2d_1">
      <defs>
       <path d="M 0 0 
L 0 3.5 
" id="m32de380e7b" style="stroke:#000000;stroke-width:0.8;"/>
      </defs>
      <g>
       <use style="stroke:#000000;stroke-width:0.8;" x="72.863097" xlink:href="#m32de380e7b" y="307.584"/>
      </g>
     </g>
     <g id="text_1">
      <!-- 0.0 -->
      <defs>
       <path d="M 31.78125 66.40625 
Q 24.171875 66.40625 20.328125 58.90625 
Q 16.5 51.421875 16.5 36.375 
Q 16.5 21.390625 20.328125 13.890625 
Q 24.171875 6.390625 31.78125 6.390625 
Q 39.453125 6.390625 43.28125 13.890625 
Q 47.125 21.390625 47.125 36.375 
Q 47.125 51.421875 43.28125 58.90625 
Q 39.453125 66.40625 31.78125 66.40625 
z
M 31.78125 74.21875 
Q 44.046875 74.21875 50.515625 64.515625 
Q 56.984375 54.828125 56.984375 36.375 
Q 56.984375 17.96875 50.515625 8.265625 
Q 44.046875 -1.421875 31.78125 -1.421875 
Q 19.53125 -1.421875 13.0625 8.265625 
Q 6.59375 17.96875 6.59375 36.375 
Q 6.59375 54.828125 13.0625 64.515625 
Q 19.53125 74.21875 31.78125 74.21875 
z
" id="DejaVuSans-30"/>
       <path d="M 10.6875 12.40625 
L 21 12.40625 
L 21 0 
L 10.6875 0 
z
" id="DejaVuSans-2e"/>
      </defs>
      <g transform="translate(64.911534 322.182437)scale(0.1 -0.1)">
       <use xlink:href="#DejaVuSans-30"/>
       <use x="63.623047" xlink:href="#DejaVuSans-2e"/>
       <use x="95.410156" xlink:href="#DejaVuSans-30"/>
      </g>
     </g>
    </g>
    <g id="xtick_2">
     <g id="line2d_2">
      <g>
       <use style="stroke:#000000;stroke-width:0.8;" x="138.512782" xlink:href="#m32de380e7b" y="307.584"/>
      </g>
     </g>
     <g id="text_2">
      <!-- 0.2 -->
      <defs>
       <path d="M 19.1875 8.296875 
L 53.609375 8.296875 
L 53.609375 0 
L 7.328125 0 
L 7.328125 8.296875 
Q 12.9375 14.109375 22.625 23.890625 
Q 32.328125 33.6875 34.8125 36.53125 
Q 39.546875 41.84375 41.421875 45.53125 
Q 43.3125 49.21875 43.3125 52.78125 
Q 43.3125 58.59375 39.234375 62.25 
Q 35.15625 65.921875 28.609375 65.921875 
Q 23.96875 65.921875 18.8125 64.3125 
Q 13.671875 62.703125 7.8125 59.421875 
L 7.8125 69.390625 
Q 13.765625 71.78125 18.9375 73 
Q 24.125 74.21875 28.421875 74.21875 
Q 39.75 74.21875 46.484375 68.546875 
Q 53.21875 62.890625 53.21875 53.421875 
Q 53.21875 48.921875 51.53125 44.890625 
Q 49.859375 40.875 45.40625 35.40625 
Q 44.1875 33.984375 37.640625 27.21875 
Q 31.109375 20.453125 19.1875 8.296875 
z
" id="DejaVuSans-32"/>
      </defs>
      <g transform="translate(130.56122 322.182437)scale(0.1 -0.1)">
       <use xlink:href="#DejaVuSans-30"/>
       <use x="63.623047" xlink:href="#DejaVuSans-2e"/>
       <use x="95.410156" xlink:href="#DejaVuSans-32"/>
      </g>
     </g>
    </g>
    <g id="xtick_3">
     <g id="line2d_3">
      <g>
       <use style="stroke:#000000;stroke-width:0.8;" x="204.162468" xlink:href="#m32de380e7b" y="307.584"/>
      </g>
     </g>
     <g id="text_3">
      <!-- 0.4 -->
      <defs>
       <path d="M 37.796875 64.3125 
L 12.890625 25.390625 
L 37.796875 25.390625 
z
M 35.203125 72.90625 
L 47.609375 72.90625 
L 47.609375 25.390625 
L 58.015625 25.390625 
L 58.015625 17.1875 
L 47.609375 17.1875 
L 47.609375 0 
L 37.796875 0 
L 37.796875 17.1875 
L 4.890625 17.1875 
L 4.890625 26.703125 
z
" id="DejaVuSans-34"/>
      </defs>
      <g transform="translate(196.210905 322.182437)scale(0.1 -0.1)">
       <use xlink:href="#DejaVuSans-30"/>
       <use x="63.623047" xlink:href="#DejaVuSans-2e"/>
       <use x="95.410156" xlink:href="#DejaVuSans-34"/>
      </g>
     </g>
    </g>
    <g id="xtick_4">
     <g id="line2d_4">
      <g>
       <use style="stroke:#000000;stroke-width:0.8;" x="269.812153" xlink:href="#m32de380e7b" y="307.584"/>
      </g>
     </g>
     <g id="text_4">
      <!-- 0.6 -->
      <defs>
       <path d="M 33.015625 40.375 
Q 26.375 40.375 22.484375 35.828125 
Q 18.609375 31.296875 18.609375 23.390625 
Q 18.609375 15.53125 22.484375 10.953125 
Q 26.375 6.390625 33.015625 6.390625 
Q 39.65625 6.390625 43.53125 10.953125 
Q 47.40625 15.53125 47.40625 23.390625 
Q 47.40625 31.296875 43.53125 35.828125 
Q 39.65625 40.375 33.015625 40.375 
z
M 52.59375 71.296875 
L 52.59375 62.3125 
Q 48.875 64.0625 45.09375 64.984375 
Q 41.3125 65.921875 37.59375 65.921875 
Q 27.828125 65.921875 22.671875 59.328125 
Q 17.53125 52.734375 16.796875 39.40625 
Q 19.671875 43.65625 24.015625 45.921875 
Q 28.375 48.1875 33.59375 48.1875 
Q 44.578125 48.1875 50.953125 41.515625 
Q 57.328125 34.859375 57.328125 23.390625 
Q 57.328125 12.15625 50.6875 5.359375 
Q 44.046875 -1.421875 33.015625 -1.421875 
Q 20.359375 -1.421875 13.671875 8.265625 
Q 6.984375 17.96875 6.984375 36.375 
Q 6.984375 53.65625 15.1875 63.9375 
Q 23.390625 74.21875 37.203125 74.21875 
Q 40.921875 74.21875 44.703125 73.484375 
Q 48.484375 72.75 52.59375 71.296875 
z
" id="DejaVuSans-36"/>
      </defs>
      <g transform="translate(261.860591 322.182437)scale(0.1 -0.1)">
       <use xlink:href="#DejaVuSans-30"/>
       <use x="63.623047" xlink:href="#DejaVuSans-2e"/>
       <use x="95.410156" xlink:href="#DejaVuSans-36"/>
      </g>
     </g>
    </g>
    <g id="xtick_5">
     <g id="line2d_5">
      <g>
       <use style="stroke:#000000;stroke-width:0.8;" x="335.461839" xlink:href="#m32de380e7b" y="307.584"/>
      </g>
     </g>
     <g id="text_5">
      <!-- 0.8 -->
      <defs>
       <path d="M 31.78125 34.625 
Q 24.75 34.625 20.71875 30.859375 
Q 16.703125 27.09375 16.703125 20.515625 
Q 16.703125 13.921875 20.71875 10.15625 
Q 24.75 6.390625 31.78125 6.390625 
Q 38.8125 6.390625 42.859375 10.171875 
Q 46.921875 13.96875 46.921875 20.515625 
Q 46.921875 27.09375 42.890625 30.859375 
Q 38.875 34.625 31.78125 34.625 
z
M 21.921875 38.8125 
Q 15.578125 40.375 12.03125 44.71875 
Q 8.5 49.078125 8.5 55.328125 
Q 8.5 64.0625 14.71875 69.140625 
Q 20.953125 74.21875 31.78125 74.21875 
Q 42.671875 74.21875 48.875 69.140625 
Q 55.078125 64.0625 55.078125 55.328125 
Q 55.078125 49.078125 51.53125 44.71875 
Q 48 40.375 41.703125 38.8125 
Q 48.828125 37.15625 52.796875 32.3125 
Q 56.78125 27.484375 56.78125 20.515625 
Q 56.78125 9.90625 50.3125 4.234375 
Q 43.84375 -1.421875 31.78125 -1.421875 
Q 19.734375 -1.421875 13.25 4.234375 
Q 6.78125 9.90625 6.78125 20.515625 
Q 6.78125 27.484375 10.78125 32.3125 
Q 14.796875 37.15625 21.921875 38.8125 
z
M 18.3125 54.390625 
Q 18.3125 48.734375 21.84375 45.5625 
Q 25.390625 42.390625 31.78125 42.390625 
Q 38.140625 42.390625 41.71875 45.5625 
Q 45.3125 48.734375 45.3125 54.390625 
Q 45.3125 60.0625 41.71875 63.234375 
Q 38.140625 66.40625 31.78125 66.40625 
Q 25.390625 66.40625 21.84375 63.234375 
Q 18.3125 60.0625 18.3125 54.390625 
z
" id="DejaVuSans-38"/>
      </defs>
      <g transform="translate(327.510276 322.182437)scale(0.1 -0.1)">
       <use xlink:href="#DejaVuSans-30"/>
       <use x="63.623047" xlink:href="#DejaVuSans-2e"/>
       <use x="95.410156" xlink:href="#DejaVuSans-38"/>
      </g>
     </g>
    </g>
    <g id="xtick_6">
     <g id="line2d_6">
      <g>
       <use style="stroke:#000000;stroke-width:0.8;" x="401.111524" xlink:href="#m32de380e7b" y="307.584"/>
      </g>
     </g>
     <g id="text_6">
      <!-- 1.0 -->
      <defs>
       <path d="M 12.40625 8.296875 
L 28.515625 8.296875 
L 28.515625 63.921875 
L 10.984375 60.40625 
L 10.984375 69.390625 
L 28.421875 72.90625 
L 38.28125 72.90625 
L 38.28125 8.296875 
L 54.390625 8.296875 
L 54.390625 0 
L 12.40625 0 
z
" id="DejaVuSans-31"/>
      </defs>
      <g transform="translate(393.159962 322.182437)scale(0.1 -0.1)">
       <use xlink:href="#DejaVuSans-31"/>
       <use x="63.623047" xlink:href="#DejaVuSans-2e"/>
       <use x="95.410156" xlink:href="#DejaVuSans-30"/>
      </g>
     </g>
    </g>
   </g>
   <g id="matplotlib.axis_2">
    <g id="ytick_1">
     <g id="line2d_7">
      <defs>
       <path d="M 0 0 
L -3.5 0 
" id="mc348290f10" style="stroke:#000000;stroke-width:0.8;"/>
      </defs>
      <g>
       <use style="stroke:#000000;stroke-width:0.8;" x="57.6" xlink:href="#mc348290f10" y="289.979615"/>
      </g>
     </g>
     <g id="text_7">
      <!-- −0.3 -->
      <defs>
       <path d="M 10.59375 35.5 
L 73.1875 35.5 
L 73.1875 27.203125 
L 10.59375 27.203125 
z
" id="DejaVuSans-2212"/>
       <path d="M 40.578125 39.3125 
Q 47.65625 37.796875 51.625 33 
Q 55.609375 28.21875 55.609375 21.1875 
Q 55.609375 10.40625 48.1875 4.484375 
Q 40.765625 -1.421875 27.09375 -1.421875 
Q 22.515625 -1.421875 17.65625 -0.515625 
Q 12.796875 0.390625 7.625 2.203125 
L 7.625 11.71875 
Q 11.71875 9.328125 16.59375 8.109375 
Q 21.484375 6.890625 26.8125 6.890625 
Q 36.078125 6.890625 40.9375 10.546875 
Q 45.796875 14.203125 45.796875 21.1875 
Q 45.796875 27.640625 41.28125 31.265625 
Q 36.765625 34.90625 28.71875 34.90625 
L 20.21875 34.90625 
L 20.21875 43.015625 
L 29.109375 43.015625 
Q 36.375 43.015625 40.234375 45.921875 
Q 44.09375 48.828125 44.09375 54.296875 
Q 44.09375 59.90625 40.109375 62.90625 
Q 36.140625 65.921875 28.71875 65.921875 
Q 24.65625 65.921875 20.015625 65.03125 
Q 15.375 64.15625 9.8125 62.3125 
L 9.8125 71.09375 
Q 15.4375 72.65625 20.34375 73.4375 
Q 25.25 74.21875 29.59375 74.21875 
Q 40.828125 74.21875 47.359375 69.109375 
Q 53.90625 64.015625 53.90625 55.328125 
Q 53.90625 49.265625 50.4375 45.09375 
Q 46.96875 40.921875 40.578125 39.3125 
z
" id="DejaVuSans-33"/>
      </defs>
      <g transform="translate(26.317187 293.778834)scale(0.1 -0.1)">
       <use xlink:href="#DejaVuSans-2212"/>
       <use x="83.789062" xlink:href="#DejaVuSans-30"/>
       <use x="147.412109" xlink:href="#DejaVuSans-2e"/>
       <use x="179.199219" xlink:href="#DejaVuSans-33"/>
      </g>
     </g>
    </g>
    <g id="ytick_2">
     <g id="line2d_8">
      <g>
       <use style="stroke:#000000;stroke-width:0.8;" x="57.6" xlink:href="#mc348290f10" y="257.154772"/>
      </g>
     </g>
     <g id="text_8">
      <!-- −0.2 -->
      <g transform="translate(26.317187 260.953991)scale(0.1 -0.1)">
       <use xlink:href="#DejaVuSans-2212"/>
       <use x="83.789062" xlink:href="#DejaVuSans-30"/>
       <use x="147.412109" xlink:href="#DejaVuSans-2e"/>
       <use x="179.199219" xlink:href="#DejaVuSans-32"/>
      </g>
     </g>
    </g>
    <g id="ytick_3">
     <g id="line2d_9">
      <g>
       <use style="stroke:#000000;stroke-width:0.8;" x="57.6" xlink:href="#mc348290f10" y="224.32993"/>
      </g>
     </g>
     <g id="text_9">
      <!-- −0.1 -->
      <g transform="translate(26.317187 228.129148)scale(0.1 -0.1)">
       <use xlink:href="#DejaVuSans-2212"/>
       <use x="83.789062" xlink:href="#DejaVuSans-30"/>
       <use x="147.412109" xlink:href="#DejaVuSans-2e"/>
       <use x="179.199219" xlink:href="#DejaVuSans-31"/>
      </g>
     </g>
    </g>
    <g id="ytick_4">
     <g id="line2d_10">
      <g>
       <use style="stroke:#000000;stroke-width:0.8;" x="57.6" xlink:href="#mc348290f10" y="191.505087"/>
      </g>
     </g>
     <g id="text_10">
      <!-- 0.0 -->
      <g transform="translate(34.696875 195.304306)scale(0.1 -0.1)">
       <use xlink:href="#DejaVuSans-30"/>
       <use x="63.623047" xlink:href="#DejaVuSans-2e"/>
       <use x="95.410156" xlink:href="#DejaVuSans-30"/>
      </g>
     </g>
    </g>
    <g id="ytick_5">
     <g id="line2d_11">
      <g>
       <use style="stroke:#000000;stroke-width:0.8;" x="57.6" xlink:href="#mc348290f10" y="158.680244"/>
      </g>
     </g>
     <g id="text_11">
      <!-- 0.1 -->
      <g transform="translate(34.696875 162.479463)scale(0.1 -0.1)">
       <use xlink:href="#DejaVuSans-30"/>
       <use x="63.623047" xlink:href="#DejaVuSans-2e"/>
       <use x="95.410156" xlink:href="#DejaVuSans-31"/>
      </g>
     </g>
    </g>
    <g id="ytick_6">
     <g id="line2d_12">
      <g>
       <use style="stroke:#000000;stroke-width:0.8;" x="57.6" xlink:href="#mc348290f10" y="125.855401"/>
      </g>
     </g>
     <g id="text_12">
      <!-- 0.2 -->
      <g transform="translate(34.696875 129.65462)scale(0.1 -0.1)">
       <use xlink:href="#DejaVuSans-30"/>
       <use x="63.623047" xlink:href="#DejaVuSans-2e"/>
       <use x="95.410156" xlink:href="#DejaVuSans-32"/>
      </g>
     </g>
    </g>
    <g id="ytick_7">
     <g id="line2d_13">
      <g>
       <use style="stroke:#000000;stroke-width:0.8;" x="57.6" xlink:href="#mc348290f10" y="93.030559"/>
      </g>
     </g>
     <g id="text_13">
      <!-- 0.3 -->
      <g transform="translate(34.696875 96.829777)scale(0.1 -0.1)">
       <use xlink:href="#DejaVuSans-30"/>
       <use x="63.623047" xlink:href="#DejaVuSans-2e"/>
       <use x="95.410156" xlink:href="#DejaVuSans-33"/>
      </g>
     </g>
    </g>
    <g id="ytick_8">
     <g id="line2d_14">
      <g>
       <use style="stroke:#000000;stroke-width:0.8;" x="57.6" xlink:href="#mc348290f10" y="60.205716"/>
      </g>
     </g>
     <g id="text_14">
      <!-- 0.4 -->
      <g transform="translate(34.696875 64.004935)scale(0.1 -0.1)">
       <use xlink:href="#DejaVuSans-30"/>
       <use x="63.623047" xlink:href="#DejaVuSans-2e"/>
       <use x="95.410156" xlink:href="#DejaVuSans-34"/>
      </g>
     </g>
    </g>
   </g>
   <g id="line2d_15">
    <path clip-path="url(#p5f0c88ce9d)" d="M 398.232065 189.999462 
L 396.833119 189.065187 
L 393.959334 187.43915 
L 387.200188 184.176804 
L 379.436959 180.834493 
L 369.55604 176.947613 
L 365.716755 175.524004 
L 352.769607 171.024917 
L 345.42204 168.660679 
L 333.784524 165.178149 
L 324.457748 162.614679 
L 313.730049 159.918724 
L 302.40806 157.376443 
L 294.134338 155.72541 
L 287.522459 154.53831 
L 279.067544 153.200823 
L 271.555199 152.191681 
L 263.656619 151.322725 
L 254.335164 150.56362 
L 249.943594 150.3095 
L 238.868713 149.969728 
L 229.654652 150.014796 
L 221.435633 150.297351 
L 212.409427 150.853458 
L 203.404536 151.642113 
L 194.244924 152.661085 
L 184.545207 153.95998 
L 176.700382 155.17 
L 166.559237 156.948646 
L 157.072829 158.844476 
L 145.337654 161.534048 
L 137.088163 163.682111 
L 125.257877 167.195214 
L 117.798925 169.716041 
L 110.484464 172.461126 
L 102.364286 175.88783 
L 96.634242 178.598503 
L 90.026858 182.103395 
L 86.203547 184.363131 
L 83.427932 186.135665 
L 79.085634 189.195792 
L 76.40633 191.424775 
L 75.79497 192.34152 
L 75.948109 192.677911 
L 76.555264 192.968373 
L 77.477944 193.190841 
L 80.41727 193.646409 
L 89.685624 194.724624 
L 98.867359 195.546685 
L 107.412041 196.081196 
L 118.14893 196.41535 
L 129.44862 196.335021 
L 134.444283 196.149421 
L 140.659391 195.78205 
L 148.829359 195.054377 
L 157.074678 194.0142 
L 160.79084 193.436714 
L 165.870329 192.530217 
L 171.610504 191.332894 
L 178.948905 189.516495 
L 181.74983 188.734824 
L 190.497928 185.975546 
L 193.06186 185.079252 
L 203.576249 181.076054 
L 218.048166 175.315995 
L 225.811414 172.506129 
L 227.8659 171.821379 
L 237.702142 168.938305 
L 243.867917 167.476555 
L 251.858316 165.96992 
L 255.849251 165.373695 
L 264.115382 164.447763 
L 267.535386 164.179459 
L 277.005947 163.758601 
L 285.05962 163.742919 
L 287.987072 163.809025 
L 297.673905 164.280151 
L 301.893028 164.599508 
L 310.347141 165.43332 
L 320.816599 166.802397 
L 329.334141 168.175043 
L 337.533868 169.707839 
L 343.870368 171.032937 
L 351.427048 172.77577 
L 360.932728 175.232095 
L 369.966457 177.871359 
L 377.17795 180.237751 
L 381.665564 181.860674 
L 386.544717 183.806304 
L 391.085979 185.879628 
L 395.035416 188.101407 
L 396.943232 189.554266 
L 397.714802 190.37969 
L 397.714802 190.37969 
" style="fill:none;stroke:#000000;stroke-linecap:square;stroke-opacity:0.1;stroke-width:1.5;"/>
   </g>
   <g id="line2d_16">
    <path clip-path="url(#p5f0c88ce9d)" d="M 398.487273 189.820324 
L 397.129609 188.910219 
L 394.309041 187.322526 
L 387.300616 183.971721 
L 379.391392 180.597765 
L 369.513192 176.737638 
L 365.701298 175.330629 
L 351.446652 170.414238 
L 339.348397 166.630405 
L 327.130051 163.153258 
L 316.355827 160.375195 
L 308.730454 158.577343 
L 299.396615 156.575261 
L 288.211699 154.481523 
L 279.828275 153.146058 
L 272.493014 152.153394 
L 264.624388 151.28199 
L 255.342201 150.52581 
L 250.944918 150.274298 
L 239.812554 149.952334 
L 230.741485 150.023404 
L 222.560863 150.334881 
L 213.670135 150.920356 
L 204.714617 151.744172 
L 195.493248 152.80946 
L 182.856179 154.586983 
L 171.157532 156.54108 
L 161.665802 158.350923 
L 151.354455 160.567724 
L 146.017581 161.829031 
L 137.738474 163.958652 
L 125.524706 167.543725 
L 118.036396 170.051627 
L 110.541526 172.845962 
L 102.169002 176.373767 
L 96.434641 179.093198 
L 89.807729 182.623631 
L 85.885335 184.956124 
L 83.079898 186.759032 
L 78.832565 189.743068 
L 76.345399 191.71889 
L 75.850565 192.389442 
L 76.004021 192.584078 
L 76.509164 192.721871 
L 78.142117 192.874175 
L 88.865826 193.404013 
L 98.143569 193.710628 
L 106.810844 193.817494 
L 117.802887 193.669364 
L 129.73499 193.119335 
L 135.031432 192.73607 
L 146.807528 191.550524 
L 154.860668 190.450792 
L 162.314572 189.199901 
L 167.607038 188.162969 
L 173.417226 186.870363 
L 180.992776 184.92424 
L 183.778724 184.130814 
L 192.422432 181.402177 
L 194.973911 180.523951 
L 205.514567 176.641474 
L 216.92231 172.363905 
L 223.348673 170.152109 
L 229.38568 168.29743 
L 236.133302 166.518199 
L 242.193885 165.19216 
L 245.88741 164.507835 
L 253.951257 163.324103 
L 258.202838 162.862131 
L 266.749533 162.245884 
L 270.237213 162.106656 
L 280.081663 162.034947 
L 288.247327 162.30644 
L 291.255505 162.476331 
L 301.219831 163.288898 
L 310.141804 164.320925 
L 317.759938 165.414273 
L 324.16926 166.478333 
L 332.716776 168.095711 
L 340.946242 169.863462 
L 347.12585 171.327093 
L 354.440059 173.214541 
L 363.444284 175.783845 
L 372.138363 178.556365 
L 378.893342 180.954052 
L 386.001726 183.79755 
L 390.019034 185.629824 
L 391.897698 186.577633 
L 395.621627 188.787003 
L 397.290454 190.122128 
L 397.969286 190.87467 
L 397.969286 190.87467 
" style="fill:none;stroke:#000000;stroke-linecap:square;stroke-opacity:0.1;stroke-width:1.5;"/>
   </g>
   <g id="line2d_17">
    <path clip-path="url(#p5f0c88ce9d)" d="M 398.406821 189.899185 
L 397.058216 188.977782 
L 394.262809 187.369366 
L 387.476897 184.053364 
L 379.762895 180.695328 
L 369.974773 176.800722 
L 366.20015 175.384205 
L 353.323164 170.853443 
L 346.081052 168.492269 
L 334.508845 164.980558 
L 325.276098 162.404669 
L 314.703552 159.703136 
L 303.321361 157.100628 
L 295.026723 155.413962 
L 288.467357 154.212255 
L 280.004655 152.843503 
L 272.510016 151.811706 
L 264.583536 150.915369 
L 255.220584 150.128567 
L 250.795499 149.863112 
L 239.602718 149.504395 
L 230.390095 149.545551 
L 222.153977 149.831079 
L 213.113204 150.397196 
L 204.080482 151.203422 
L 194.864082 152.249117 
L 185.104105 153.581302 
L 177.244449 154.814905 
L 167.003326 156.639263 
L 157.420746 158.581432 
L 145.671728 161.307051 
L 137.415845 163.479169 
L 125.416109 167.079014 
L 117.94245 169.63161 
L 110.579751 172.424493 
L 102.358145 175.935165 
L 96.635533 178.677171 
L 90.011466 182.238297 
L 86.151758 184.553115 
L 83.367102 186.359397 
L 79.066754 189.435566 
L 76.479531 191.607867 
L 75.937735 192.449033 
L 76.109502 192.736524 
L 76.702763 192.974119 
L 78.581091 193.292411 
L 86.383749 194.11017 
L 94.670477 194.805347 
L 103.027566 195.323627 
L 113.283742 195.67834 
L 118.550646 195.732383 
L 130.149071 195.525848 
L 135.273384 195.284221 
L 141.635011 194.847563 
L 149.917714 194.037017 
L 158.341765 192.906671 
L 162.102965 192.293701 
L 167.307946 191.326586 
L 173.138687 190.068441 
L 180.609104 188.166014 
L 183.428586 187.358833 
L 192.204193 184.528372 
L 194.767998 183.613968 
L 205.353761 179.509528 
L 219.751682 173.709923 
L 227.501851 170.897201 
L 229.540147 170.21953 
L 236.166915 168.218411 
L 242.049299 166.710001 
L 245.719033 165.896407 
L 253.749247 164.445621 
L 257.821377 163.874735 
L 266.194529 163.024451 
L 269.63134 162.793815 
L 279.262393 162.483874 
L 287.364177 162.575717 
L 290.312231 162.682788 
L 300.087968 163.298221 
L 304.27608 163.677425 
L 312.679304 164.633326 
L 320.772871 165.78716 
L 328.917443 167.167663 
L 336.001508 168.541701 
L 345.927994 170.735125 
L 353.337016 172.579506 
L 362.533801 175.130502 
L 371.322751 177.873092 
L 378.26311 180.296403 
L 385.523789 183.168451 
L 389.692492 185.057783 
L 391.605942 186.020166 
L 395.419499 188.278663 
L 397.19572 189.699688 
L 397.920119 190.508341 
L 397.920119 190.508341 
" style="fill:none;stroke:#000000;stroke-linecap:square;stroke-opacity:0.1;stroke-width:1.5;"/>
   </g>
   <g id="line2d_18">
    <path clip-path="url(#p5f0c88ce9d)" d="M 398.265072 189.783291 
L 396.798391 188.807696 
L 393.790487 187.123654 
L 386.708927 183.743009 
L 378.562926 180.266954 
L 368.24678 176.235831 
L 364.19537 174.741712 
L 350.846785 170.121541 
L 343.264691 167.687849 
L 331.337767 164.12453 
L 321.799864 161.506163 
L 310.871408 158.763887 
L 299.452278 156.205932 
L 291.116436 154.549049 
L 284.554781 153.377428 
L 276.077933 152.04696 
L 268.681805 151.06458 
L 260.797957 150.211171 
L 251.582135 149.480232 
L 247.249339 149.239327 
L 236.443263 148.930354 
L 227.357881 148.990737 
L 215.80337 149.469428 
L 204.943314 150.292988 
L 195.441909 151.278065 
L 187.67061 152.251719 
L 179.872027 153.374165 
L 168.449043 155.282208 
L 159.198561 157.070077 
L 149.240031 159.263126 
L 143.925364 160.55943 
L 135.893535 162.703825 
L 124.409909 166.21108 
L 117.16632 168.735102 
L 109.988153 171.518374 
L 102.078662 174.972581 
L 96.434433 177.738611 
L 90.006756 181.272482 
L 86.202119 183.605904 
L 83.402211 185.468074 
L 79.065843 188.678947 
L 76.314128 191.130936 
L 75.638516 192.16611 
L 75.728054 192.541245 
L 76.217649 192.839309 
L 76.996838 193.036762 
L 79.533376 193.337008 
L 84.9255 193.670433 
L 92.747336 193.950334 
L 100.910798 194.0596 
L 111.106107 193.941753 
L 116.374798 193.768839 
L 127.869367 193.118786 
L 132.990725 192.704316 
L 144.670355 191.452606 
L 152.656641 190.333344 
L 160.202086 189.060571 
L 165.371751 188.058167 
L 171.227487 186.785478 
L 178.782073 184.914687 
L 181.619086 184.143007 
L 190.458416 181.497527 
L 193.041679 180.659484 
L 203.595619 177.010957 
L 217.979042 171.973584 
L 225.715203 169.559956 
L 227.80603 168.964373 
L 237.667297 166.522036 
L 243.89703 165.298888 
L 251.848358 164.088479 
L 255.947527 163.61128 
L 264.293092 162.929171 
L 267.813759 162.751574 
L 277.282871 162.574231 
L 285.382542 162.744589 
L 288.396061 162.878414 
L 298.286861 163.567948 
L 302.54124 163.976429 
L 311.010927 164.977579 
L 321.568467 166.557168 
L 330.096555 168.088675 
L 338.262395 169.762973 
L 344.55012 171.190104 
L 351.955424 173.02753 
L 361.390415 175.626924 
L 370.438916 178.423799 
L 377.536735 180.870472 
L 384.898174 183.729252 
L 389.142281 185.603991 
L 391.098325 186.557376 
L 394.938999 188.735734 
L 396.817291 190.146039 
L 397.566029 190.915359 
L 397.566029 190.915359 
" style="fill:none;stroke:#000000;stroke-linecap:square;stroke-opacity:0.1;stroke-width:1.5;"/>
   </g>
   <g id="line2d_19">
    <path clip-path="url(#p5f0c88ce9d)" d="M 397.102668 190.104235 
L 396.590825 190.182538 
L 395.38886 189.429316 
L 392.004895 187.56745 
L 385.601306 184.514507 
L 377.619241 181.10963 
L 366.941003 176.974766 
L 362.60854 175.402969 
L 348.989155 170.793109 
L 340.572411 168.171291 
L 328.098193 164.581408 
L 317.815464 161.881092 
L 307.969351 159.515303 
L 300.047938 157.771526 
L 290.934246 155.947247 
L 278.745091 153.826572 
L 269.959213 152.537433 
L 261.923089 151.543877 
L 253.927133 150.739136 
L 244.620372 150.041972 
L 234.254502 149.576307 
L 225.417343 149.438916 
L 215.165586 149.572389 
L 208.789212 149.808462 
L 197.891092 150.47172 
L 188.828288 151.264895 
L 181.134447 152.108796 
L 173.580771 153.092701 
L 163.017586 154.739535 
L 154.476771 156.318803 
L 145.27099 158.292309 
L 139.886035 159.588349 
L 132.190668 161.638511 
L 122.173844 164.694824 
L 115.141403 167.139279 
L 108.596272 169.672252 
L 101.500999 172.750994 
L 95.952602 175.452665 
L 89.802613 178.835642 
L 86.452289 180.902804 
L 83.875018 182.635959 
L 79.570041 185.937594 
L 77.573974 187.770778 
L 76.35618 189.1135 
L 75.529019 190.318932 
L 75.212239 191.07256 
L 75.202805 192.123102 
L 75.631088 192.817254 
L 76.018644 193.160169 
L 77.372059 193.922185 
L 78.709636 194.447656 
L 80.751638 195.091154 
L 86.391639 196.483924 
L 93.604938 197.892804 
L 101.351277 199.099637 
L 110.613175 200.176248 
L 115.336648 200.57582 
L 124.671602 201.066603 
L 128.851429 201.155221 
L 134.331949 201.144878 
L 142.265116 200.866377 
L 149.705706 200.30769 
L 157.812391 199.350718 
L 163.375599 198.472111 
L 170.129218 197.15173 
L 173.020465 196.499544 
L 182.104653 194.112307 
L 184.666374 193.349602 
L 195.126148 189.884289 
L 221.136551 180.391674 
L 230.101744 177.504076 
L 236.225151 175.764472 
L 244.129738 173.825608 
L 247.584274 173.089041 
L 255.14653 171.7095 
L 258.53298 171.193041 
L 266.81625 170.182388 
L 274.586738 169.542154 
L 283.128502 169.154862 
L 290.768901 169.065916 
L 299.618503 169.240301 
L 307.875575 169.649471 
L 315.623993 170.233742 
L 323.001691 170.959699 
L 333.45178 172.258002 
L 341.422673 173.456026 
L 352.560906 175.434853 
L 358.374978 176.616558 
L 366.452814 178.447229 
L 375.175439 180.718632 
L 380.348186 182.254604 
L 385.899967 184.13182 
L 388.210316 185.015218 
L 392.614427 186.993137 
L 394.100203 187.817632 
L 395.452721 188.718106 
L 396.553123 190.104235 
L 396.553123 190.104235 
" style="fill:none;stroke:#000000;stroke-linecap:square;stroke-opacity:0.1;stroke-width:1.5;"/>
   </g>
   <g id="line2d_20">
    <path clip-path="url(#p5f0c88ce9d)" d="M 398.319971 189.629648 
L 396.856363 188.634597 
L 393.84478 186.919542 
L 386.752146 183.484779 
L 378.583802 179.951986 
L 368.166896 175.828049 
L 364.073988 174.299211 
L 350.652797 169.593776 
L 342.969825 167.095625 
L 330.933082 163.452908 
L 321.31234 160.777244 
L 310.259274 157.967258 
L 298.785811 155.362614 
L 290.421503 153.67641 
L 283.794988 152.475639 
L 275.249057 151.113926 
L 267.80562 150.109364 
L 259.875833 149.235888 
L 250.637433 148.487439 
L 246.297339 148.23927 
L 235.521999 147.914425 
L 226.403406 147.961973 
L 218.236519 148.245868 
L 209.386301 148.794196 
L 200.504778 149.575881 
L 191.399636 150.598448 
L 181.794507 151.906172 
L 174.004053 153.137227 
L 164.044472 154.941081 
L 154.707962 156.884216 
L 143.236275 159.646133 
L 135.315626 161.826395 
L 124.043532 165.377982 
L 116.894776 167.947733 
L 109.840426 170.768589 
L 102.074422 174.26303 
L 96.478846 177.087031 
L 90.130946 180.682448 
L 86.366811 183.063857 
L 83.572911 184.986187 
L 79.243705 188.331475 
L 76.454132 190.992353 
L 75.762005 192.169171 
L 75.852056 192.60994 
L 76.117434 192.844478 
L 76.784987 193.104867 
L 78.023191 193.336642 
L 81.75147 193.656857 
L 88.132156 193.91977 
L 96.912289 194.050792 
L 105.502152 193.972708 
L 116.426304 193.588325 
L 127.938104 192.832441 
L 139.522647 191.690457 
L 148.107152 190.579361 
L 156.711461 189.219377 
L 165.824566 187.483984 
L 171.791667 186.168176 
L 179.431019 184.259556 
L 182.315702 183.470686 
L 191.293632 180.775609 
L 193.889172 179.932234 
L 204.513566 176.2539 
L 218.987498 171.157833 
L 226.733362 168.716716 
L 228.841945 168.108959 
L 238.617105 165.653396 
L 244.835687 164.411697 
L 252.762539 163.184337 
L 256.828721 162.703228 
L 265.142942 162.014824 
L 268.68112 161.836075 
L 278.077431 161.669008 
L 286.17178 161.858196 
L 289.191678 162.002356 
L 299.079816 162.73567 
L 303.336308 163.168309 
L 311.825619 164.22859 
L 320.004607 165.486845 
L 328.151273 166.960447 
L 335.216574 168.411257 
L 345.097317 170.706355 
L 352.414383 172.608703 
L 361.783557 175.310204 
L 366.848304 176.905686 
L 373.887779 179.303985 
L 380.927509 181.959829 
L 386.804992 184.453249 
L 391.15207 186.560493 
L 394.936671 188.76937 
L 396.815902 190.206466 
L 397.564972 190.981994 
L 397.564972 190.981994 
" style="fill:none;stroke:#000000;stroke-linecap:square;stroke-opacity:0.1;stroke-width:1.5;"/>
   </g>
   <g id="line2d_21">
    <path clip-path="url(#p5f0c88ce9d)" d="M 395.747372 190.862788 
L 393.212142 189.95672 
L 388.434591 188.414609 
L 374.382386 184.405967 
L 363.18219 181.514926 
L 350.069443 178.386486 
L 333.222281 174.738769 
L 319.859394 172.144067 
L 306.582203 169.844936 
L 294.626714 168.035069 
L 287.326651 167.062829 
L 278.352517 166.017926 
L 267.928371 165.029703 
L 256.928209 164.272521 
L 246.78455 163.852076 
L 238.561012 163.713063 
L 229.185401 163.772556 
L 221.776135 163.975128 
L 209.885016 164.553136 
L 197.637596 165.409218 
L 181.402754 166.824829 
L 163.531386 168.656384 
L 151.099536 170.127525 
L 139.613077 171.69965 
L 131.541414 172.970936 
L 120.654187 174.971327 
L 113.674253 176.468979 
L 106.136916 178.321353 
L 98.595702 180.476328 
L 92.991799 182.322734 
L 87.244802 184.495209 
L 81.16898 187.205283 
L 77.365487 189.204015 
L 74.369868 191.092903 
L 74.037636 191.505886 
L 74.126577 191.659537 
L 74.400047 191.750499 
L 75.547854 191.814048 
L 78.956632 191.641046 
L 88.002157 190.813824 
L 103.661007 189.084972 
L 157.339795 182.829909 
L 167.631827 181.845088 
L 183.288187 180.618962 
L 195.643049 179.869587 
L 208.643785 179.266876 
L 224.166045 178.794883 
L 237.867409 178.610498 
L 250.442329 178.635121 
L 264.945119 178.888145 
L 280.076811 179.396274 
L 296.968543 180.240466 
L 310.944151 181.148908 
L 327.828761 182.493986 
L 343.252189 183.964783 
L 355.568204 185.320507 
L 369.269019 187.057101 
L 379.154771 188.517506 
L 387.338807 189.962039 
L 393.13889 191.344938 
L 395.038997 192.107944 
L 395.038997 192.107944 
" style="fill:none;stroke:#000000;stroke-linecap:square;stroke-opacity:0.1;stroke-width:1.5;"/>
   </g>
   <g id="line2d_22">
    <path clip-path="url(#p5f0c88ce9d)" d="M 398.35106 189.852258 
L 396.947595 188.908952 
L 394.052562 187.270795 
L 387.104006 183.924485 
L 379.16698 180.51324 
L 369.129813 176.565734 
L 365.222422 175.115686 
L 352.11173 170.551265 
L 344.724171 168.166869 
L 332.989847 164.641291 
L 323.618208 162.053248 
L 312.902249 159.345262 
L 301.494584 156.768897 
L 293.179384 155.101153 
L 286.646234 153.922429 
L 278.187583 152.578126 
L 270.762518 151.57681 
L 262.86249 150.705609 
L 253.578209 149.951199 
L 249.201939 149.700252 
L 238.192346 149.372248 
L 229.058561 149.428448 
L 220.868793 149.722654 
L 211.942241 150.287935 
L 202.994265 151.087493 
L 193.827629 152.124572 
L 184.11542 153.44461 
L 176.284829 154.668494 
L 166.107126 156.475442 
L 156.577528 158.403199 
L 144.906658 161.11139 
L 136.744193 163.263786 
L 124.947251 166.815689 
L 117.578049 169.344438 
L 110.278502 172.129324 
L 102.176635 175.611317 
L 96.492211 178.353637 
L 89.958881 181.890215 
L 86.11842 184.209529 
L 83.324549 186.036509 
L 79.016375 189.154045 
L 76.367973 191.420628 
L 75.768012 192.32498 
L 75.896477 192.638676 
L 76.424548 192.890041 
L 77.23856 193.064666 
L 79.913135 193.37442 
L 88.810337 194.0145 
L 97.901387 194.439042 
L 106.505613 194.632774 
L 117.392635 194.57271 
L 128.986858 194.114096 
L 134.133119 193.772823 
L 145.766174 192.665944 
L 153.730004 191.618128 
L 161.196082 190.399479 
L 166.397472 189.403652 
L 172.233232 188.131639 
L 179.754049 186.234123 
L 182.573639 185.444453 
L 191.352454 182.71074 
L 193.924536 181.834837 
L 204.482183 177.970776 
L 218.818337 172.607921 
L 226.549245 170.027102 
L 228.608318 169.3996 
L 238.559956 166.766473 
L 244.786363 165.462682 
L 252.783962 164.163433 
L 256.895085 163.651489 
L 265.280446 162.912871 
L 268.764213 162.719516 
L 278.353515 162.504009 
L 286.469346 162.656294 
L 289.458174 162.783878 
L 299.319411 163.458552 
L 303.538631 163.859735 
L 311.968581 164.850384 
L 322.452615 166.414836 
L 330.970686 167.943783 
L 339.156463 169.62465 
L 345.411083 171.048279 
L 352.813257 172.892122 
L 362.102664 175.463764 
L 371.007479 178.231447 
L 378.002052 180.658853 
L 385.297538 183.518374 
L 389.482343 185.390702 
L 391.412208 186.346122 
L 395.229541 188.55963 
L 397.036518 189.962522 
L 397.764654 190.74409 
L 397.764654 190.74409 
" style="fill:none;stroke:#000000;stroke-linecap:square;stroke-opacity:0.1;stroke-width:1.5;"/>
   </g>
   <g id="line2d_23">
    <path clip-path="url(#p5f0c88ce9d)" d="M 397.908047 190.047188 
L 396.326558 189.079748 
L 393.141022 187.417046 
L 385.936222 184.176757 
L 377.555146 180.793628 
L 367.096918 176.922544 
L 362.939719 175.469734 
L 349.457563 171.048558 
L 341.843656 168.734129 
L 329.941228 165.368938 
L 320.376148 162.887962 
L 309.444171 160.303208 
L 298.205783 157.9393 
L 289.948574 156.404452 
L 278.860447 154.63336 
L 271.268668 153.626228 
L 263.977487 152.826794 
L 255.174039 152.092571 
L 246.956214 151.644938 
L 236.390075 151.414515 
L 227.463924 151.518929 
L 216.048208 152.027972 
L 205.427933 152.841113 
L 196.013064 153.801118 
L 188.330747 154.734023 
L 175.691712 156.543878 
L 165.664318 158.225384 
L 156.252913 160.017014 
L 144.594002 162.560004 
L 136.423917 164.586558 
L 124.831024 167.870064 
L 117.478883 170.243087 
L 110.1273 172.883972 
L 102.103662 176.130814 
L 96.360325 178.73745 
L 89.847292 182.04869 
L 83.189603 185.937794 
L 78.80329 188.882105 
L 76.024384 191.056083 
L 75.305522 191.950519 
L 75.36035 192.276798 
L 75.801936 192.53846 
L 76.53197 192.720066 
L 78.970269 193.023721 
L 84.260054 193.409709 
L 91.928128 193.772404 
L 99.921144 193.965294 
L 109.822612 193.950309 
L 114.932354 193.832072 
L 126.032861 193.31006 
L 137.16007 192.406641 
L 145.285209 191.490085 
L 153.483293 190.327959 
L 162.174202 188.8141 
L 172.475243 186.611731 
L 177.798505 185.291502 
L 186.380016 182.907982 
L 196.774197 179.682007 
L 213.638939 174.340188 
L 221.382935 172.176206 
L 223.480434 171.64092 
L 233.38267 169.437722 
L 239.623047 168.328739 
L 247.555357 167.222067 
L 251.671156 166.775429 
L 259.976046 166.123172 
L 263.47838 165.942561 
L 272.881676 165.714593 
L 280.926251 165.795165 
L 290.325125 166.182246 
L 298.073875 166.719928 
L 306.54726 167.517493 
L 317.300119 168.824419 
L 326.041506 170.117178 
L 334.430486 171.545697 
L 345.997744 173.815572 
L 354.33969 175.675118 
L 363.946795 178.068192 
L 371.393773 180.136204 
L 379.002672 182.491147 
L 383.527226 184.047096 
L 388.104136 185.796203 
L 390.221279 186.694034 
L 394.319822 188.73216 
L 396.367508 190.101383 
L 397.170344 190.851367 
L 397.170344 190.851367 
" style="fill:none;stroke:#000000;stroke-linecap:square;stroke-opacity:0.1;stroke-width:1.5;"/>
   </g>
   <g id="line2d_24">
    <path clip-path="url(#p5f0c88ce9d)" d="M 395.560349 190.935051 
L 392.999293 190.03266 
L 388.199301 188.503218 
L 374.193915 184.560188 
L 363.020229 181.716168 
L 349.967 178.647576 
L 333.133885 175.059496 
L 319.796121 172.5123 
L 306.539551 170.256225 
L 294.591086 168.479911 
L 287.296716 167.52653 
L 278.361478 166.505846 
L 267.925045 165.535785 
L 256.934235 164.795142 
L 246.809965 164.385318 
L 238.591025 164.250862 
L 229.228083 164.311829 
L 217.539697 164.686267 
L 206.815863 165.279328 
L 194.433718 166.190671 
L 177.024322 167.752064 
L 160.246185 169.505296 
L 145.536039 171.308231 
L 135.012968 172.827192 
L 124.836982 174.548055 
L 117.538449 175.976189 
L 109.654347 177.744423 
L 102.438181 179.613893 
L 95.354107 181.740787 
L 89.293254 183.852449 
L 83.697638 186.115238 
L 78.417203 188.620189 
L 74.772982 190.64194 
L 73.856475 191.357888 
L 73.851097 191.518862 
L 74.035792 191.628965 
L 74.554867 191.715121 
L 76.495208 191.738237 
L 81.026554 191.518711 
L 90.85316 190.767749 
L 103.307666 189.607974 
L 126.221943 187.19148 
L 156.796882 183.911444 
L 173.337792 182.412293 
L 185.092591 181.545039 
L 199.474537 180.700298 
L 215.008899 180.036239 
L 226.989382 179.701297 
L 240.181122 179.516312 
L 253.210952 179.523315 
L 264.519558 179.678661 
L 279.563951 180.09128 
L 296.431324 180.819226 
L 310.36964 181.622914 
L 327.249222 182.836229 
L 342.721915 184.18565 
L 355.040082 185.437827 
L 368.793234 187.061897 
L 378.772508 188.448225 
L 387.054702 189.837087 
L 392.948893 191.19083 
L 394.905856 191.961479 
L 394.905856 191.961479 
" style="fill:none;stroke:#000000;stroke-linecap:square;stroke-opacity:0.1;stroke-width:1.5;"/>
   </g>
   <g id="patch_3">
    <path d="M 57.6 307.584 
L 57.6 41.472 
" style="fill:none;stroke:#000000;stroke-linecap:square;stroke-linejoin:miter;stroke-width:0.8;"/>
   </g>
   <g id="patch_4">
    <path d="M 414.72 307.584 
L 414.72 41.472 
" style="fill:none;stroke:#000000;stroke-linecap:square;stroke-linejoin:miter;stroke-width:0.8;"/>
   </g>
   <g id="patch_5">
    <path d="M 57.6 307.584 
L 414.72 307.584 
" style="fill:none;stroke:#000000;stroke-linecap:square;stroke-linejoin:miter;stroke-width:0.8;"/>
   </g>
   <g id="patch_6">
    <path d="M 57.6 41.472 
L 414.72 41.472 
" style="fill:none;stroke:#000000;stroke-linecap:square;stroke-linejoin:miter;stroke-width:0.8;"/>
   </g>
   <g id="text_15">
    <!-- CL/CD: 200.80+/-2.12  time: 431.64+/-188.33 min -->
    <defs>
     <path d="M 64.40625 67.28125 
L 64.40625 56.890625 
Q 59.421875 61.53125 53.78125 63.8125 
Q 48.140625 66.109375 41.796875 66.109375 
Q 29.296875 66.109375 22.65625 58.46875 
Q 16.015625 50.828125 16.015625 36.375 
Q 16.015625 21.96875 22.65625 14.328125 
Q 29.296875 6.6875 41.796875 6.6875 
Q 48.140625 6.6875 53.78125 8.984375 
Q 59.421875 11.28125 64.40625 15.921875 
L 64.40625 5.609375 
Q 59.234375 2.09375 53.4375 0.328125 
Q 47.65625 -1.421875 41.21875 -1.421875 
Q 24.65625 -1.421875 15.125 8.703125 
Q 5.609375 18.84375 5.609375 36.375 
Q 5.609375 53.953125 15.125 64.078125 
Q 24.65625 74.21875 41.21875 74.21875 
Q 47.75 74.21875 53.53125 72.484375 
Q 59.328125 70.75 64.40625 67.28125 
z
" id="DejaVuSans-43"/>
     <path d="M 9.8125 72.90625 
L 19.671875 72.90625 
L 19.671875 8.296875 
L 55.171875 8.296875 
L 55.171875 0 
L 9.8125 0 
z
" id="DejaVuSans-4c"/>
     <path d="M 25.390625 72.90625 
L 33.6875 72.90625 
L 8.296875 -9.28125 
L 0 -9.28125 
z
" id="DejaVuSans-2f"/>
     <path d="M 19.671875 64.796875 
L 19.671875 8.109375 
L 31.59375 8.109375 
Q 46.6875 8.109375 53.6875 14.9375 
Q 60.6875 21.78125 60.6875 36.53125 
Q 60.6875 51.171875 53.6875 57.984375 
Q 46.6875 64.796875 31.59375 64.796875 
z
M 9.8125 72.90625 
L 30.078125 72.90625 
Q 51.265625 72.90625 61.171875 64.09375 
Q 71.09375 55.28125 71.09375 36.53125 
Q 71.09375 17.671875 61.125 8.828125 
Q 51.171875 0 30.078125 0 
L 9.8125 0 
z
" id="DejaVuSans-44"/>
     <path d="M 11.71875 12.40625 
L 22.015625 12.40625 
L 22.015625 0 
L 11.71875 0 
z
M 11.71875 51.703125 
L 22.015625 51.703125 
L 22.015625 39.3125 
L 11.71875 39.3125 
z
" id="DejaVuSans-3a"/>
     <path id="DejaVuSans-20"/>
     <path d="M 46 62.703125 
L 46 35.5 
L 73.1875 35.5 
L 73.1875 27.203125 
L 46 27.203125 
L 46 0 
L 37.796875 0 
L 37.796875 27.203125 
L 10.59375 27.203125 
L 10.59375 35.5 
L 37.796875 35.5 
L 37.796875 62.703125 
z
" id="DejaVuSans-2b"/>
     <path d="M 4.890625 31.390625 
L 31.203125 31.390625 
L 31.203125 23.390625 
L 4.890625 23.390625 
z
" id="DejaVuSans-2d"/>
     <path d="M 18.3125 70.21875 
L 18.3125 54.6875 
L 36.8125 54.6875 
L 36.8125 47.703125 
L 18.3125 47.703125 
L 18.3125 18.015625 
Q 18.3125 11.328125 20.140625 9.421875 
Q 21.96875 7.515625 27.59375 7.515625 
L 36.8125 7.515625 
L 36.8125 0 
L 27.59375 0 
Q 17.1875 0 13.234375 3.875 
Q 9.28125 7.765625 9.28125 18.015625 
L 9.28125 47.703125 
L 2.6875 47.703125 
L 2.6875 54.6875 
L 9.28125 54.6875 
L 9.28125 70.21875 
z
" id="DejaVuSans-74"/>
     <path d="M 9.421875 54.6875 
L 18.40625 54.6875 
L 18.40625 0 
L 9.421875 0 
z
M 9.421875 75.984375 
L 18.40625 75.984375 
L 18.40625 64.59375 
L 9.421875 64.59375 
z
" id="DejaVuSans-69"/>
     <path d="M 52 44.1875 
Q 55.375 50.25 60.0625 53.125 
Q 64.75 56 71.09375 56 
Q 79.640625 56 84.28125 50.015625 
Q 88.921875 44.046875 88.921875 33.015625 
L 88.921875 0 
L 79.890625 0 
L 79.890625 32.71875 
Q 79.890625 40.578125 77.09375 44.375 
Q 74.3125 48.1875 68.609375 48.1875 
Q 61.625 48.1875 57.5625 43.546875 
Q 53.515625 38.921875 53.515625 30.90625 
L 53.515625 0 
L 44.484375 0 
L 44.484375 32.71875 
Q 44.484375 40.625 41.703125 44.40625 
Q 38.921875 48.1875 33.109375 48.1875 
Q 26.21875 48.1875 22.15625 43.53125 
Q 18.109375 38.875 18.109375 30.90625 
L 18.109375 0 
L 9.078125 0 
L 9.078125 54.6875 
L 18.109375 54.6875 
L 18.109375 46.1875 
Q 21.1875 51.21875 25.484375 53.609375 
Q 29.78125 56 35.6875 56 
Q 41.65625 56 45.828125 52.96875 
Q 50 49.953125 52 44.1875 
z
" id="DejaVuSans-6d"/>
     <path d="M 56.203125 29.59375 
L 56.203125 25.203125 
L 14.890625 25.203125 
Q 15.484375 15.921875 20.484375 11.0625 
Q 25.484375 6.203125 34.421875 6.203125 
Q 39.59375 6.203125 44.453125 7.46875 
Q 49.3125 8.734375 54.109375 11.28125 
L 54.109375 2.78125 
Q 49.265625 0.734375 44.1875 -0.34375 
Q 39.109375 -1.421875 33.890625 -1.421875 
Q 20.796875 -1.421875 13.15625 6.1875 
Q 5.515625 13.8125 5.515625 26.8125 
Q 5.515625 40.234375 12.765625 48.109375 
Q 20.015625 56 32.328125 56 
Q 43.359375 56 49.78125 48.890625 
Q 56.203125 41.796875 56.203125 29.59375 
z
M 47.21875 32.234375 
Q 47.125 39.59375 43.09375 43.984375 
Q 39.0625 48.390625 32.421875 48.390625 
Q 24.90625 48.390625 20.390625 44.140625 
Q 15.875 39.890625 15.1875 32.171875 
z
" id="DejaVuSans-65"/>
     <path d="M 54.890625 33.015625 
L 54.890625 0 
L 45.90625 0 
L 45.90625 32.71875 
Q 45.90625 40.484375 42.875 44.328125 
Q 39.84375 48.1875 33.796875 48.1875 
Q 26.515625 48.1875 22.3125 43.546875 
Q 18.109375 38.921875 18.109375 30.90625 
L 18.109375 0 
L 9.078125 0 
L 9.078125 54.6875 
L 18.109375 54.6875 
L 18.109375 46.1875 
Q 21.34375 51.125 25.703125 53.5625 
Q 30.078125 56 35.796875 56 
Q 45.21875 56 50.046875 50.171875 
Q 54.890625 44.34375 54.890625 33.015625 
z
" id="DejaVuSans-6e"/>
    </defs>
    <g transform="translate(84.580312 35.472)scale(0.12 -0.12)">
     <use xlink:href="#DejaVuSans-43"/>
     <use x="69.824219" xlink:href="#DejaVuSans-4c"/>
     <use x="125.537109" xlink:href="#DejaVuSans-2f"/>
     <use x="159.228516" xlink:href="#DejaVuSans-43"/>
     <use x="229.052734" xlink:href="#DejaVuSans-44"/>
     <use x="306.054688" xlink:href="#DejaVuSans-3a"/>
     <use x="339.746094" xlink:href="#DejaVuSans-20"/>
     <use x="371.533203" xlink:href="#DejaVuSans-32"/>
     <use x="435.15625" xlink:href="#DejaVuSans-30"/>
     <use x="498.779297" xlink:href="#DejaVuSans-30"/>
     <use x="562.402344" xlink:href="#DejaVuSans-2e"/>
     <use x="594.189453" xlink:href="#DejaVuSans-38"/>
     <use x="657.8125" xlink:href="#DejaVuSans-30"/>
     <use x="721.435547" xlink:href="#DejaVuSans-2b"/>
     <use x="805.224609" xlink:href="#DejaVuSans-2f"/>
     <use x="838.916016" xlink:href="#DejaVuSans-2d"/>
     <use x="875" xlink:href="#DejaVuSans-32"/>
     <use x="938.623047" xlink:href="#DejaVuSans-2e"/>
     <use x="970.410156" xlink:href="#DejaVuSans-31"/>
     <use x="1034.033203" xlink:href="#DejaVuSans-32"/>
     <use x="1097.65625" xlink:href="#DejaVuSans-20"/>
     <use x="1129.443359" xlink:href="#DejaVuSans-20"/>
     <use x="1161.230469" xlink:href="#DejaVuSans-74"/>
     <use x="1200.439453" xlink:href="#DejaVuSans-69"/>
     <use x="1228.222656" xlink:href="#DejaVuSans-6d"/>
     <use x="1325.634766" xlink:href="#DejaVuSans-65"/>
     <use x="1387.158203" xlink:href="#DejaVuSans-3a"/>
     <use x="1420.849609" xlink:href="#DejaVuSans-20"/>
     <use x="1452.636719" xlink:href="#DejaVuSans-34"/>
     <use x="1516.259766" xlink:href="#DejaVuSans-33"/>
     <use x="1579.882812" xlink:href="#DejaVuSans-31"/>
     <use x="1643.505859" xlink:href="#DejaVuSans-2e"/>
     <use x="1675.292969" xlink:href="#DejaVuSans-36"/>
     <use x="1738.916016" xlink:href="#DejaVuSans-34"/>
     <use x="1802.539062" xlink:href="#DejaVuSans-2b"/>
     <use x="1886.328125" xlink:href="#DejaVuSans-2f"/>
     <use x="1920.019531" xlink:href="#DejaVuSans-2d"/>
     <use x="1956.103516" xlink:href="#DejaVuSans-31"/>
     <use x="2019.726562" xlink:href="#DejaVuSans-38"/>
     <use x="2083.349609" xlink:href="#DejaVuSans-38"/>
     <use x="2146.972656" xlink:href="#DejaVuSans-2e"/>
     <use x="2178.759766" xlink:href="#DejaVuSans-33"/>
     <use x="2242.382812" xlink:href="#DejaVuSans-33"/>
     <use x="2306.005859" xlink:href="#DejaVuSans-20"/>
     <use x="2337.792969" xlink:href="#DejaVuSans-6d"/>
     <use x="2435.205078" xlink:href="#DejaVuSans-69"/>
     <use x="2462.988281" xlink:href="#DejaVuSans-6e"/>
    </g>
   </g>
  </g>
 </g>
 <defs>
  <clipPath id="p5f0c88ce9d">
   <rect height="266.112" width="357.12" x="57.6" y="41.472"/>
  </clipPath>
 </defs>
</svg>
