<?xml version="1.0" encoding="utf-8" standalone="no"?>
<!DOCTYPE svg PUBLIC "-//W3C//DTD SVG 1.1//EN"
  "http://www.w3.org/Graphics/SVG/1.1/DTD/svg11.dtd">
<!-- Created with matplotlib (http://matplotlib.org/) -->
<svg height="345.6pt" version="1.1" viewBox="0 0 460.8 345.6" width="460.8pt" xmlns="http://www.w3.org/2000/svg" xmlns:xlink="http://www.w3.org/1999/xlink">
 <defs>
  <style type="text/css">
*{stroke-linecap:butt;stroke-linejoin:round;}
  </style>
 </defs>
 <g id="figure_1">
  <g id="patch_1">
   <path d="M 0 345.6 
L 460.8 345.6 
L 460.8 0 
L 0 0 
z
" style="fill:#ffffff;"/>
  </g>
  <g id="axes_1">
   <g id="patch_2">
    <path d="M 57.6 307.584 
L 414.72 307.584 
L 414.72 41.472 
L 57.6 41.472 
z
" style="fill:#ffffff;"/>
   </g>
   <g id="matplotlib.axis_1">
    <g id="xtick_1">
     <g id="line2d_1">
      <defs>
       <path d="M 0 0 
L 0 3.5 
" id="mb612931ffd" style="stroke:#000000;stroke-width:0.8;"/>
      </defs>
      <g>
       <use style="stroke:#000000;stroke-width:0.8;" x="74.726274" xlink:href="#mb612931ffd" y="307.584"/>
      </g>
     </g>
     <g id="text_1">
      <!-- 0.0 -->
      <defs>
       <path d="M 31.78125 66.40625 
Q 24.171875 66.40625 20.328125 58.90625 
Q 16.5 51.421875 16.5 36.375 
Q 16.5 21.390625 20.328125 13.890625 
Q 24.171875 6.390625 31.78125 6.390625 
Q 39.453125 6.390625 43.28125 13.890625 
Q 47.125 21.390625 47.125 36.375 
Q 47.125 51.421875 43.28125 58.90625 
Q 39.453125 66.40625 31.78125 66.40625 
z
M 31.78125 74.21875 
Q 44.046875 74.21875 50.515625 64.515625 
Q 56.984375 54.828125 56.984375 36.375 
Q 56.984375 17.96875 50.515625 8.265625 
Q 44.046875 -1.421875 31.78125 -1.421875 
Q 19.53125 -1.421875 13.0625 8.265625 
Q 6.59375 17.96875 6.59375 36.375 
Q 6.59375 54.828125 13.0625 64.515625 
Q 19.53125 74.21875 31.78125 74.21875 
z
" id="DejaVuSans-30"/>
       <path d="M 10.6875 12.40625 
L 21 12.40625 
L 21 0 
L 10.6875 0 
z
" id="DejaVuSans-2e"/>
      </defs>
      <g transform="translate(66.774712 322.182437)scale(0.1 -0.1)">
       <use xlink:href="#DejaVuSans-30"/>
       <use x="63.623047" xlink:href="#DejaVuSans-2e"/>
       <use x="95.410156" xlink:href="#DejaVuSans-30"/>
      </g>
     </g>
    </g>
    <g id="xtick_2">
     <g id="line2d_2">
      <g>
       <use style="stroke:#000000;stroke-width:0.8;" x="139.314629" xlink:href="#mb612931ffd" y="307.584"/>
      </g>
     </g>
     <g id="text_2">
      <!-- 0.2 -->
      <defs>
       <path d="M 19.1875 8.296875 
L 53.609375 8.296875 
L 53.609375 0 
L 7.328125 0 
L 7.328125 8.296875 
Q 12.9375 14.109375 22.625 23.890625 
Q 32.328125 33.6875 34.8125 36.53125 
Q 39.546875 41.84375 41.421875 45.53125 
Q 43.3125 49.21875 43.3125 52.78125 
Q 43.3125 58.59375 39.234375 62.25 
Q 35.15625 65.921875 28.609375 65.921875 
Q 23.96875 65.921875 18.8125 64.3125 
Q 13.671875 62.703125 7.8125 59.421875 
L 7.8125 69.390625 
Q 13.765625 71.78125 18.9375 73 
Q 24.125 74.21875 28.421875 74.21875 
Q 39.75 74.21875 46.484375 68.546875 
Q 53.21875 62.890625 53.21875 53.421875 
Q 53.21875 48.921875 51.53125 44.890625 
Q 49.859375 40.875 45.40625 35.40625 
Q 44.1875 33.984375 37.640625 27.21875 
Q 31.109375 20.453125 19.1875 8.296875 
z
" id="DejaVuSans-32"/>
      </defs>
      <g transform="translate(131.363066 322.182437)scale(0.1 -0.1)">
       <use xlink:href="#DejaVuSans-30"/>
       <use x="63.623047" xlink:href="#DejaVuSans-2e"/>
       <use x="95.410156" xlink:href="#DejaVuSans-32"/>
      </g>
     </g>
    </g>
    <g id="xtick_3">
     <g id="line2d_3">
      <g>
       <use style="stroke:#000000;stroke-width:0.8;" x="203.902983" xlink:href="#mb612931ffd" y="307.584"/>
      </g>
     </g>
     <g id="text_3">
      <!-- 0.4 -->
      <defs>
       <path d="M 37.796875 64.3125 
L 12.890625 25.390625 
L 37.796875 25.390625 
z
M 35.203125 72.90625 
L 47.609375 72.90625 
L 47.609375 25.390625 
L 58.015625 25.390625 
L 58.015625 17.1875 
L 47.609375 17.1875 
L 47.609375 0 
L 37.796875 0 
L 37.796875 17.1875 
L 4.890625 17.1875 
L 4.890625 26.703125 
z
" id="DejaVuSans-34"/>
      </defs>
      <g transform="translate(195.95142 322.182437)scale(0.1 -0.1)">
       <use xlink:href="#DejaVuSans-30"/>
       <use x="63.623047" xlink:href="#DejaVuSans-2e"/>
       <use x="95.410156" xlink:href="#DejaVuSans-34"/>
      </g>
     </g>
    </g>
    <g id="xtick_4">
     <g id="line2d_4">
      <g>
       <use style="stroke:#000000;stroke-width:0.8;" x="268.491337" xlink:href="#mb612931ffd" y="307.584"/>
      </g>
     </g>
     <g id="text_4">
      <!-- 0.6 -->
      <defs>
       <path d="M 33.015625 40.375 
Q 26.375 40.375 22.484375 35.828125 
Q 18.609375 31.296875 18.609375 23.390625 
Q 18.609375 15.53125 22.484375 10.953125 
Q 26.375 6.390625 33.015625 6.390625 
Q 39.65625 6.390625 43.53125 10.953125 
Q 47.40625 15.53125 47.40625 23.390625 
Q 47.40625 31.296875 43.53125 35.828125 
Q 39.65625 40.375 33.015625 40.375 
z
M 52.59375 71.296875 
L 52.59375 62.3125 
Q 48.875 64.0625 45.09375 64.984375 
Q 41.3125 65.921875 37.59375 65.921875 
Q 27.828125 65.921875 22.671875 59.328125 
Q 17.53125 52.734375 16.796875 39.40625 
Q 19.671875 43.65625 24.015625 45.921875 
Q 28.375 48.1875 33.59375 48.1875 
Q 44.578125 48.1875 50.953125 41.515625 
Q 57.328125 34.859375 57.328125 23.390625 
Q 57.328125 12.15625 50.6875 5.359375 
Q 44.046875 -1.421875 33.015625 -1.421875 
Q 20.359375 -1.421875 13.671875 8.265625 
Q 6.984375 17.96875 6.984375 36.375 
Q 6.984375 53.65625 15.1875 63.9375 
Q 23.390625 74.21875 37.203125 74.21875 
Q 40.921875 74.21875 44.703125 73.484375 
Q 48.484375 72.75 52.59375 71.296875 
z
" id="DejaVuSans-36"/>
      </defs>
      <g transform="translate(260.539775 322.182437)scale(0.1 -0.1)">
       <use xlink:href="#DejaVuSans-30"/>
       <use x="63.623047" xlink:href="#DejaVuSans-2e"/>
       <use x="95.410156" xlink:href="#DejaVuSans-36"/>
      </g>
     </g>
    </g>
    <g id="xtick_5">
     <g id="line2d_5">
      <g>
       <use style="stroke:#000000;stroke-width:0.8;" x="333.079691" xlink:href="#mb612931ffd" y="307.584"/>
      </g>
     </g>
     <g id="text_5">
      <!-- 0.8 -->
      <defs>
       <path d="M 31.78125 34.625 
Q 24.75 34.625 20.71875 30.859375 
Q 16.703125 27.09375 16.703125 20.515625 
Q 16.703125 13.921875 20.71875 10.15625 
Q 24.75 6.390625 31.78125 6.390625 
Q 38.8125 6.390625 42.859375 10.171875 
Q 46.921875 13.96875 46.921875 20.515625 
Q 46.921875 27.09375 42.890625 30.859375 
Q 38.875 34.625 31.78125 34.625 
z
M 21.921875 38.8125 
Q 15.578125 40.375 12.03125 44.71875 
Q 8.5 49.078125 8.5 55.328125 
Q 8.5 64.0625 14.71875 69.140625 
Q 20.953125 74.21875 31.78125 74.21875 
Q 42.671875 74.21875 48.875 69.140625 
Q 55.078125 64.0625 55.078125 55.328125 
Q 55.078125 49.078125 51.53125 44.71875 
Q 48 40.375 41.703125 38.8125 
Q 48.828125 37.15625 52.796875 32.3125 
Q 56.78125 27.484375 56.78125 20.515625 
Q 56.78125 9.90625 50.3125 4.234375 
Q 43.84375 -1.421875 31.78125 -1.421875 
Q 19.734375 -1.421875 13.25 4.234375 
Q 6.78125 9.90625 6.78125 20.515625 
Q 6.78125 27.484375 10.78125 32.3125 
Q 14.796875 37.15625 21.921875 38.8125 
z
M 18.3125 54.390625 
Q 18.3125 48.734375 21.84375 45.5625 
Q 25.390625 42.390625 31.78125 42.390625 
Q 38.140625 42.390625 41.71875 45.5625 
Q 45.3125 48.734375 45.3125 54.390625 
Q 45.3125 60.0625 41.71875 63.234375 
Q 38.140625 66.40625 31.78125 66.40625 
Q 25.390625 66.40625 21.84375 63.234375 
Q 18.3125 60.0625 18.3125 54.390625 
z
" id="DejaVuSans-38"/>
      </defs>
      <g transform="translate(325.128129 322.182437)scale(0.1 -0.1)">
       <use xlink:href="#DejaVuSans-30"/>
       <use x="63.623047" xlink:href="#DejaVuSans-2e"/>
       <use x="95.410156" xlink:href="#DejaVuSans-38"/>
      </g>
     </g>
    </g>
    <g id="xtick_6">
     <g id="line2d_6">
      <g>
       <use style="stroke:#000000;stroke-width:0.8;" x="397.668046" xlink:href="#mb612931ffd" y="307.584"/>
      </g>
     </g>
     <g id="text_6">
      <!-- 1.0 -->
      <defs>
       <path d="M 12.40625 8.296875 
L 28.515625 8.296875 
L 28.515625 63.921875 
L 10.984375 60.40625 
L 10.984375 69.390625 
L 28.421875 72.90625 
L 38.28125 72.90625 
L 38.28125 8.296875 
L 54.390625 8.296875 
L 54.390625 0 
L 12.40625 0 
z
" id="DejaVuSans-31"/>
      </defs>
      <g transform="translate(389.716483 322.182437)scale(0.1 -0.1)">
       <use xlink:href="#DejaVuSans-31"/>
       <use x="63.623047" xlink:href="#DejaVuSans-2e"/>
       <use x="95.410156" xlink:href="#DejaVuSans-30"/>
      </g>
     </g>
    </g>
   </g>
   <g id="matplotlib.axis_2">
    <g id="ytick_1">
     <g id="line2d_7">
      <defs>
       <path d="M 0 0 
L -3.5 0 
" id="m17b109e557" style="stroke:#000000;stroke-width:0.8;"/>
      </defs>
      <g>
       <use style="stroke:#000000;stroke-width:0.8;" x="57.6" xlink:href="#m17b109e557" y="297.957881"/>
      </g>
     </g>
     <g id="text_7">
      <!-- −0.3 -->
      <defs>
       <path d="M 10.59375 35.5 
L 73.1875 35.5 
L 73.1875 27.203125 
L 10.59375 27.203125 
z
" id="DejaVuSans-2212"/>
       <path d="M 40.578125 39.3125 
Q 47.65625 37.796875 51.625 33 
Q 55.609375 28.21875 55.609375 21.1875 
Q 55.609375 10.40625 48.1875 4.484375 
Q 40.765625 -1.421875 27.09375 -1.421875 
Q 22.515625 -1.421875 17.65625 -0.515625 
Q 12.796875 0.390625 7.625 2.203125 
L 7.625 11.71875 
Q 11.71875 9.328125 16.59375 8.109375 
Q 21.484375 6.890625 26.8125 6.890625 
Q 36.078125 6.890625 40.9375 10.546875 
Q 45.796875 14.203125 45.796875 21.1875 
Q 45.796875 27.640625 41.28125 31.265625 
Q 36.765625 34.90625 28.71875 34.90625 
L 20.21875 34.90625 
L 20.21875 43.015625 
L 29.109375 43.015625 
Q 36.375 43.015625 40.234375 45.921875 
Q 44.09375 48.828125 44.09375 54.296875 
Q 44.09375 59.90625 40.109375 62.90625 
Q 36.140625 65.921875 28.71875 65.921875 
Q 24.65625 65.921875 20.015625 65.03125 
Q 15.375 64.15625 9.8125 62.3125 
L 9.8125 71.09375 
Q 15.4375 72.65625 20.34375 73.4375 
Q 25.25 74.21875 29.59375 74.21875 
Q 40.828125 74.21875 47.359375 69.109375 
Q 53.90625 64.015625 53.90625 55.328125 
Q 53.90625 49.265625 50.4375 45.09375 
Q 46.96875 40.921875 40.578125 39.3125 
z
" id="DejaVuSans-33"/>
      </defs>
      <g transform="translate(26.317187 301.757099)scale(0.1 -0.1)">
       <use xlink:href="#DejaVuSans-2212"/>
       <use x="83.789062" xlink:href="#DejaVuSans-30"/>
       <use x="147.412109" xlink:href="#DejaVuSans-2e"/>
       <use x="179.199219" xlink:href="#DejaVuSans-33"/>
      </g>
     </g>
    </g>
    <g id="ytick_2">
     <g id="line2d_8">
      <g>
       <use style="stroke:#000000;stroke-width:0.8;" x="57.6" xlink:href="#m17b109e557" y="265.663704"/>
      </g>
     </g>
     <g id="text_8">
      <!-- −0.2 -->
      <g transform="translate(26.317187 269.462922)scale(0.1 -0.1)">
       <use xlink:href="#DejaVuSans-2212"/>
       <use x="83.789062" xlink:href="#DejaVuSans-30"/>
       <use x="147.412109" xlink:href="#DejaVuSans-2e"/>
       <use x="179.199219" xlink:href="#DejaVuSans-32"/>
      </g>
     </g>
    </g>
    <g id="ytick_3">
     <g id="line2d_9">
      <g>
       <use style="stroke:#000000;stroke-width:0.8;" x="57.6" xlink:href="#m17b109e557" y="233.369526"/>
      </g>
     </g>
     <g id="text_9">
      <!-- −0.1 -->
      <g transform="translate(26.317187 237.168745)scale(0.1 -0.1)">
       <use xlink:href="#DejaVuSans-2212"/>
       <use x="83.789062" xlink:href="#DejaVuSans-30"/>
       <use x="147.412109" xlink:href="#DejaVuSans-2e"/>
       <use x="179.199219" xlink:href="#DejaVuSans-31"/>
      </g>
     </g>
    </g>
    <g id="ytick_4">
     <g id="line2d_10">
      <g>
       <use style="stroke:#000000;stroke-width:0.8;" x="57.6" xlink:href="#m17b109e557" y="201.075349"/>
      </g>
     </g>
     <g id="text_10">
      <!-- 0.0 -->
      <g transform="translate(34.696875 204.874568)scale(0.1 -0.1)">
       <use xlink:href="#DejaVuSans-30"/>
       <use x="63.623047" xlink:href="#DejaVuSans-2e"/>
       <use x="95.410156" xlink:href="#DejaVuSans-30"/>
      </g>
     </g>
    </g>
    <g id="ytick_5">
     <g id="line2d_11">
      <g>
       <use style="stroke:#000000;stroke-width:0.8;" x="57.6" xlink:href="#m17b109e557" y="168.781172"/>
      </g>
     </g>
     <g id="text_11">
      <!-- 0.1 -->
      <g transform="translate(34.696875 172.580391)scale(0.1 -0.1)">
       <use xlink:href="#DejaVuSans-30"/>
       <use x="63.623047" xlink:href="#DejaVuSans-2e"/>
       <use x="95.410156" xlink:href="#DejaVuSans-31"/>
      </g>
     </g>
    </g>
    <g id="ytick_6">
     <g id="line2d_12">
      <g>
       <use style="stroke:#000000;stroke-width:0.8;" x="57.6" xlink:href="#m17b109e557" y="136.486995"/>
      </g>
     </g>
     <g id="text_12">
      <!-- 0.2 -->
      <g transform="translate(34.696875 140.286214)scale(0.1 -0.1)">
       <use xlink:href="#DejaVuSans-30"/>
       <use x="63.623047" xlink:href="#DejaVuSans-2e"/>
       <use x="95.410156" xlink:href="#DejaVuSans-32"/>
      </g>
     </g>
    </g>
    <g id="ytick_7">
     <g id="line2d_13">
      <g>
       <use style="stroke:#000000;stroke-width:0.8;" x="57.6" xlink:href="#m17b109e557" y="104.192818"/>
      </g>
     </g>
     <g id="text_13">
      <!-- 0.3 -->
      <g transform="translate(34.696875 107.992037)scale(0.1 -0.1)">
       <use xlink:href="#DejaVuSans-30"/>
       <use x="63.623047" xlink:href="#DejaVuSans-2e"/>
       <use x="95.410156" xlink:href="#DejaVuSans-33"/>
      </g>
     </g>
    </g>
    <g id="ytick_8">
     <g id="line2d_14">
      <g>
       <use style="stroke:#000000;stroke-width:0.8;" x="57.6" xlink:href="#m17b109e557" y="71.898641"/>
      </g>
     </g>
     <g id="text_14">
      <!-- 0.4 -->
      <g transform="translate(34.696875 75.697859)scale(0.1 -0.1)">
       <use xlink:href="#DejaVuSans-30"/>
       <use x="63.623047" xlink:href="#DejaVuSans-2e"/>
       <use x="95.410156" xlink:href="#DejaVuSans-34"/>
      </g>
     </g>
    </g>
   </g>
   <g id="line2d_15">
    <path clip-path="url(#p752d293de3)" d="M 397.923329 200.71535 
L 395.725912 198.494743 
L 390.563024 195.999953 
L 384.698123 193.534202 
L 378.411917 191.104468 
L 368.587964 187.607824 
L 365.135933 186.679685 
L 361.407687 186.275031 
L 354.604758 184.074884 
L 337.615201 178.398262 
L 334.158294 177.128459 
L 327.297365 174.926011 
L 320.393028 172.851321 
L 309.543763 169.87262 
L 298.534367 167.084769 
L 287.586252 164.525807 
L 276.647854 162.227602 
L 265.686829 160.217951 
L 254.709415 158.479017 
L 243.742471 157.037476 
L 232.764437 155.904439 
L 225.431148 155.325056 
L 218.053792 154.908406 
L 206.949389 154.590122 
L 199.556398 154.563049 
L 192.130361 154.701929 
L 184.722872 155.013975 
L 177.328803 155.497366 
L 169.975806 156.168066 
L 162.675033 157.040956 
L 155.437312 158.129657 
L 148.292156 159.442938 
L 141.223362 161.001338 
L 134.224649 162.811009 
L 127.313649 164.878541 
L 120.566756 167.192966 
L 113.91172 169.78692 
L 107.383967 172.693741 
L 101.035209 175.921537 
L 94.830274 179.476574 
L 88.856418 183.346212 
L 86.003173 185.421476 
L 83.26861 187.611427 
L 80.819264 189.814678 
L 78.816304 191.87321 
L 77.292584 193.680056 
L 76.218614 195.19482 
L 75.094011 197.367158 
L 74.729441 198.818259 
L 74.753328 199.451045 
L 74.91736 200.077441 
L 75.26867 200.709522 
L 75.932369 201.366472 
L 76.98802 201.993616 
L 78.462899 202.513169 
L 80.475418 202.900427 
L 83.111785 203.157722 
L 86.155696 203.299495 
L 92.900604 203.292606 
L 100.239135 203.012117 
L 111.503472 202.348656 
L 126.695963 201.172861 
L 168.964557 197.753309 
L 188.264067 196.460118 
L 203.715636 195.629799 
L 219.163238 194.99466 
L 238.471587 194.432078 
L 257.742109 194.087179 
L 280.768018 193.909168 
L 299.910008 193.962142 
L 315.160198 194.22007 
L 330.400179 194.661683 
L 345.598642 195.347951 
L 356.919847 196.077564 
L 368.002571 197.001139 
L 385.702833 198.989005 
L 395.053294 200.296677 
L 397.936286 200.749929 
L 397.936286 200.749929 
" style="fill:none;stroke:#000000;stroke-linecap:square;stroke-opacity:0.1;stroke-width:1.5;"/>
   </g>
   <g id="line2d_16">
    <path clip-path="url(#p752d293de3)" d="M 398.16925 200.926264 
L 396.860721 198.227254 
L 395.05891 197.213296 
L 392.955822 196.217466 
L 387.986443 194.21651 
L 382.403369 192.236089 
L 376.509842 190.357164 
L 373.467508 189.450029 
L 370.169516 188.979328 
L 366.325564 189.562411 
L 363.122794 188.766346 
L 350.616687 185.047515 
L 344.304218 183.033214 
L 341.058521 181.754988 
L 334.688182 179.841427 
L 328.242963 178.123267 
L 317.592872 175.67811 
L 306.634976 173.432638 
L 295.821923 171.438851 
L 285.049264 169.735231 
L 274.243795 168.355888 
L 263.417421 167.241462 
L 252.622225 166.421474 
L 241.790647 165.881276 
L 230.856695 165.599072 
L 219.676296 165.626656 
L 208.51304 165.839826 
L 197.219519 166.274311 
L 185.929301 166.932599 
L 174.6755 167.835467 
L 163.483346 169.026087 
L 156.08986 169.987257 
L 148.718379 171.106854 
L 141.342329 172.381486 
L 133.976886 173.814327 
L 126.723851 175.381452 
L 119.421891 177.144252 
L 112.079051 179.168647 
L 104.786026 181.484349 
L 97.518763 184.134931 
L 93.988013 185.58625 
L 90.57253 187.133559 
L 87.397079 188.740521 
L 84.403005 190.454179 
L 81.757468 192.170092 
L 78.029975 194.926243 
L 74.762839 197.71995 
L 74.608112 198.004395 
L 74.610424 198.312599 
L 74.8718 198.667907 
L 75.601561 199.123109 
L 76.881297 199.588271 
L 78.700248 199.956109 
L 81.089042 200.204102 
L 84.044175 200.329267 
L 90.933199 200.287956 
L 98.51297 199.991926 
L 114.13003 199.029583 
L 160.885242 195.720738 
L 180.306154 194.662674 
L 195.83301 194.020593 
L 211.354271 193.593804 
L 230.710658 193.32931 
L 253.842967 193.251151 
L 299.733481 193.388219 
L 314.894207 193.634308 
L 333.83454 194.162328 
L 345.181087 194.641751 
L 356.403134 195.337647 
L 367.424313 196.226948 
L 374.460155 197.051085 
L 393.361765 199.668292 
L 395.838659 200.150309 
L 398.161877 200.926264 
L 398.161877 200.926264 
" style="fill:none;stroke:#000000;stroke-linecap:square;stroke-opacity:0.1;stroke-width:1.5;"/>
   </g>
   <g id="line2d_17">
    <path clip-path="url(#p752d293de3)" d="M 398.458553 200.850812 
L 398.360842 196.982401 
L 397.519274 195.624007 
L 396.227823 194.289296 
L 394.530566 192.953249 
L 392.485984 191.59714 
L 387.819943 188.927766 
L 382.677106 186.403289 
L 379.960587 185.187678 
L 376.857184 184.631725 
L 372.927212 185.670536 
L 369.969256 184.6182 
L 361.472016 180.867007 
L 355.754439 178.267688 
L 352.840509 176.800182 
L 349.819212 174.996133 
L 343.963255 172.357586 
L 337.990804 170.004826 
L 331.153631 167.761609 
L 323.878752 165.588214 
L 313.027014 162.633883 
L 305.903895 160.864532 
L 298.793273 159.277205 
L 291.686215 157.894754 
L 284.532696 156.71722 
L 273.788278 155.249228 
L 266.65736 154.502078 
L 259.504455 153.934792 
L 252.318021 153.535476 
L 245.069311 153.286284 
L 237.663592 153.231127 
L 226.379505 153.467008 
L 215.039226 153.941329 
L 203.578242 154.742444 
L 192.106481 155.831282 
L 184.495327 156.741696 
L 176.915493 157.815672 
L 169.388405 159.056561 
L 161.930341 160.475413 
L 154.447465 162.093633 
L 146.938061 163.888765 
L 135.801967 166.857586 
L 128.254477 169.070994 
L 120.543343 171.573516 
L 112.748508 174.385976 
L 104.705135 177.571341 
L 100.65359 179.310833 
L 96.607031 181.172456 
L 92.712609 183.125113 
L 88.839712 185.286466 
L 85.231655 187.559421 
L 82.198918 189.674101 
L 77.981918 192.991256 
L 75.102393 195.389423 
L 74.162275 196.208744 
L 73.896752 196.589452 
L 73.832727 197.000001 
L 74.208657 197.536269 
L 75.143055 198.115889 
L 76.631345 198.60205 
L 78.726044 198.959707 
L 81.500296 199.189033 
L 88.367018 199.294493 
L 96.178149 199.07601 
L 108.397633 198.39273 
L 120.291798 197.520471 
L 172.513543 193.456611 
L 188.475843 192.499924 
L 204.433374 191.782642 
L 220.353354 191.323712 
L 240.153032 191.011241 
L 275.417247 190.76038 
L 310.268234 190.612954 
L 325.612373 190.889517 
L 340.935157 191.397919 
L 352.367374 192.058345 
L 359.882327 192.704481 
L 367.335696 193.469755 
L 374.31733 194.449817 
L 387.353603 196.996559 
L 390.322732 197.5928 
L 392.813917 198.237194 
L 394.987969 198.92976 
L 396.851565 199.647268 
L 398.487273 200.850812 
L 398.487273 200.850812 
" style="fill:none;stroke:#000000;stroke-linecap:square;stroke-opacity:0.1;stroke-width:1.5;"/>
   </g>
   <g id="line2d_18">
    <path clip-path="url(#p752d293de3)" d="M 398.275874 200.901743 
L 397.395617 197.812716 
L 395.932544 196.704209 
L 394.116825 195.616442 
L 389.585778 193.4277 
L 384.332914 191.261006 
L 378.712731 189.212199 
L 375.789679 188.225417 
L 372.562448 187.758322 
L 368.68496 188.546712 
L 365.572168 187.690518 
L 353.488166 183.620245 
L 347.376112 181.394267 
L 344.213395 179.956279 
L 338.033331 177.843968 
L 331.763581 175.959589 
L 321.18706 173.279394 
L 310.243938 170.823388 
L 299.470829 168.652121 
L 292.317305 167.382971 
L 285.166555 166.277453 
L 277.979039 165.335113 
L 267.188367 164.157422 
L 260.021881 163.556202 
L 249.241002 162.919682 
L 238.376072 162.567292 
L 230.992985 162.514854 
L 219.774185 162.684901 
L 208.511959 163.036857 
L 197.158463 163.643812 
L 185.800035 164.47848 
L 174.501113 165.585611 
L 163.273506 167.000573 
L 155.857635 168.127464 
L 148.427515 169.422378 
L 140.986827 170.871371 
L 129.949978 173.307358 
L 122.533164 175.154285 
L 115.025996 177.268185 
L 107.517372 179.677435 
L 99.939509 182.43284 
L 96.212029 183.94363 
L 92.566877 185.559774 
L 89.140752 187.243982 
L 85.85061 189.065572 
L 82.8909 190.918339 
L 78.622826 193.941761 
L 74.431917 197.231761 
L 74.323735 197.518083 
L 74.457691 197.848065 
L 75.060441 198.290693 
L 76.225349 198.753981 
L 77.941852 199.118061 
L 80.249852 199.357645 
L 83.167507 199.470642 
L 90.09173 199.387213 
L 97.784398 199.034697 
L 113.628427 197.938147 
L 156.961425 194.497221 
L 176.577597 193.263121 
L 192.245034 192.500673 
L 207.908341 191.981725 
L 223.537742 191.702407 
L 242.999897 191.584375 
L 273.906178 191.667405 
L 304.584953 191.888728 
L 319.799246 192.25194 
L 335.002446 192.791381 
L 346.391173 193.371511 
L 357.634652 194.207718 
L 368.644893 195.272996 
L 375.616956 196.258516 
L 391.422799 198.823879 
L 396.194134 199.952102 
L 398.278752 200.901743 
L 398.278752 200.901743 
" style="fill:none;stroke:#000000;stroke-linecap:square;stroke-opacity:0.1;stroke-width:1.5;"/>
   </g>
   <g id="line2d_19">
    <path clip-path="url(#p752d293de3)" d="M 397.782183 200.317622 
L 394.96072 198.558915 
L 388.936814 195.738276 
L 382.500296 192.990067 
L 372.349067 189.001856 
L 365.410307 186.450337 
L 361.867067 185.26852 
L 358.217095 184.277091 
L 336.873401 177.097483 
L 322.526813 172.49042 
L 311.684819 169.284596 
L 300.665468 166.239052 
L 289.628307 163.378869 
L 278.603781 160.726141 
L 267.573436 158.308222 
L 256.515528 156.139005 
L 245.457489 154.218635 
L 234.39701 152.580867 
L 223.352702 151.254763 
L 215.99101 150.565083 
L 208.612711 150.050215 
L 201.255731 149.711696 
L 193.903454 149.552596 
L 186.546381 149.583619 
L 179.214215 149.817446 
L 171.911056 150.259372 
L 164.665862 150.927912 
L 157.488434 151.842602 
L 150.400241 153.018975 
L 143.428253 154.472218 
L 136.564717 156.223099 
L 129.818227 158.281454 
L 123.210562 160.659478 
L 116.794629 163.357132 
L 110.562527 166.386115 
L 104.553021 169.758344 
L 98.783225 173.470174 
L 93.207548 177.490246 
L 87.762164 181.806911 
L 85.037255 184.140959 
L 82.403436 186.584398 
L 80.070116 188.98801 
L 78.188191 191.193086 
L 76.782693 193.100136 
L 75.815478 194.672194 
L 74.833307 196.891145 
L 74.516572 198.25842 
L 74.541415 199.29619 
L 74.693327 199.770457 
L 75.058021 200.223901 
L 75.714777 200.594677 
L 76.721945 200.803772 
L 78.352153 200.838265 
L 83.69608 200.445264 
L 90.225959 199.600323 
L 101.10666 197.884245 
L 119.836316 194.692182 
L 135.008035 192.15373 
L 150.24115 189.857139 
L 161.723292 188.335303 
L 173.239513 187.008246 
L 184.785061 185.898332 
L 196.337347 185.016773 
L 207.894575 184.37387 
L 219.475383 183.958914 
L 231.078912 183.759436 
L 242.693384 183.766878 
L 254.296376 183.976922 
L 265.873533 184.385463 
L 277.440592 184.983996 
L 289.000208 185.759182 
L 300.529761 186.709344 
L 315.894648 188.222309 
L 331.249635 190.001765 
L 346.570694 192.035928 
L 361.775108 194.314975 
L 376.695971 196.83538 
L 397.810056 200.581592 
L 397.810056 200.581592 
" style="fill:none;stroke:#000000;stroke-linecap:square;stroke-opacity:0.1;stroke-width:1.5;"/>
   </g>
   <g id="line2d_20">
    <path clip-path="url(#p752d293de3)" d="M 397.901187 200.63247 
L 395.568221 198.505406 
L 390.221728 195.981421 
L 384.245525 193.502031 
L 377.877341 191.069833 
L 367.958937 187.580133 
L 364.491407 186.632497 
L 360.777449 186.150132 
L 350.510587 182.851712 
L 326.379492 175.032869 
L 315.839196 172.031377 
L 304.871684 169.181439 
L 293.875085 166.535098 
L 282.924373 164.113789 
L 271.974767 161.951711 
L 260.987028 160.063315 
L 250.010892 158.426752 
L 239.03072 157.082496 
L 228.044037 156.037957 
L 220.697902 155.521418 
L 213.29463 155.172248 
L 202.223339 154.928395 
L 194.819706 154.954441 
L 187.414966 155.152097 
L 180.028607 155.519152 
L 172.669008 156.065564 
L 165.364024 156.808624 
L 158.116552 157.764038 
L 150.950392 158.942962 
L 143.878999 160.36098 
L 136.879443 162.034508 
L 129.965872 163.967612 
L 123.180749 166.164432 
L 116.549491 168.622782 
L 110.014888 171.39116 
L 103.675178 174.470294 
L 97.467296 177.889084 
L 91.464437 181.597864 
L 88.538909 183.584635 
L 85.699086 185.6721 
L 82.982689 187.867392 
L 80.573347 190.046959 
L 78.627897 192.04551 
L 77.162116 193.767556 
L 76.133405 195.187235 
L 75.045143 197.165067 
L 74.647081 198.403166 
L 74.619648 198.920477 
L 74.708621 199.425572 
L 74.962249 199.930414 
L 75.515752 200.453972 
L 76.447922 200.931118 
L 77.792138 201.278472 
L 79.717493 201.477381 
L 82.332794 201.531804 
L 88.661313 201.29748 
L 95.747977 200.7331 
L 110.758555 199.165099 
L 152.776517 194.330653 
L 168.159294 192.849285 
L 183.574281 191.608743 
L 199.007405 190.647773 
L 214.440926 189.986134 
L 229.886681 189.596277 
L 245.332321 189.446127 
L 260.742106 189.515497 
L 276.10881 189.785155 
L 291.459394 190.240505 
L 306.748162 190.921503 
L 322.027682 191.824426 
L 337.286646 192.94858 
L 348.682695 193.971879 
L 363.718536 195.592871 
L 374.693367 197.074416 
L 391.805398 199.618451 
L 397.915717 200.661754 
L 397.915717 200.661754 
" style="fill:none;stroke:#000000;stroke-linecap:square;stroke-opacity:0.1;stroke-width:1.5;"/>
   </g>
   <g id="line2d_21">
    <path clip-path="url(#p752d293de3)" d="M 397.985159 200.626887 
L 396.084477 198.008294 
L 393.840901 196.531358 
L 391.367957 195.071025 
L 385.805977 192.165145 
L 379.736649 189.300802 
L 373.397348 186.531267 
L 370.149988 185.17809 
L 366.742678 184.084642 
L 363.00798 183.610475 
L 356.311776 181.015651 
L 339.592802 174.309083 
L 336.178051 172.80575 
L 329.411923 170.198099 
L 322.592443 167.740054 
L 311.776502 164.207236 
L 300.769699 160.898213 
L 289.828663 157.858766 
L 278.894372 155.126541 
L 271.59488 153.492999 
L 260.605157 151.321341 
L 253.295457 150.050858 
L 245.976962 148.945546 
L 238.653065 148.002595 
L 231.318936 147.226017 
L 223.958477 146.628257 
L 216.529185 146.237062 
L 209.124539 146.031119 
L 201.717321 146.006963 
L 194.270347 146.183851 
L 186.843936 146.569359 
L 179.432903 147.160785 
L 172.069656 147.976355 
L 164.767823 149.031596 
L 157.541632 150.341545 
L 150.426942 151.915175 
L 143.401748 153.775215 
L 136.454594 155.927054 
L 129.603449 158.373007 
L 122.937965 161.092526 
L 116.352622 164.11962 
L 109.886035 167.486207 
L 103.574142 171.190403 
L 97.315325 175.236691 
L 91.093145 179.618756 
L 88.005485 181.979484 
L 84.947268 184.502907 
L 82.119499 187.091351 
L 79.73616 189.568618 
L 77.878826 191.791564 
L 76.549195 193.682619 
L 75.674785 195.220038 
L 74.79983 197.412972 
L 74.623925 198.259407 
L 74.590012 199.031792 
L 74.676639 199.77641 
L 74.904309 200.507364 
L 75.388164 201.253943 
L 76.223821 201.974422 
L 77.451987 202.585764 
L 79.226228 203.057143 
L 81.692539 203.393815 
L 84.635087 203.603501 
L 91.281643 203.685087 
L 98.638967 203.449571 
L 109.959396 202.796849 
L 125.257227 201.549352 
L 179.648756 196.732202 
L 195.27224 195.622913 
L 210.890802 194.726896 
L 226.505939 194.031728 
L 246.00808 193.399214 
L 265.426681 192.994512 
L 288.634849 192.749717 
L 304.040064 192.792079 
L 319.401258 193.075634 
L 334.739992 193.593263 
L 346.208194 194.19702 
L 357.594395 195.036245 
L 365.05683 195.719833 
L 372.338662 196.584456 
L 386.268519 198.515755 
L 392.433565 199.561002 
L 398.020025 200.65988 
L 398.020025 200.65988 
" style="fill:none;stroke:#000000;stroke-linecap:square;stroke-opacity:0.1;stroke-width:1.5;"/>
   </g>
   <g id="line2d_22">
    <path clip-path="url(#p752d293de3)" d="M 397.90055 200.40505 
L 395.590831 198.106511 
L 390.308069 195.068155 
L 384.378302 192.09186 
L 378.031249 189.179022 
L 371.46149 186.366931 
L 368.112467 184.994387 
L 364.648857 183.801823 
L 360.959186 183.030293 
L 347.219388 177.763871 
L 326.405282 169.901887 
L 319.408366 167.504878 
L 308.514754 164.06057 
L 297.488409 160.823271 
L 286.507115 157.828233 
L 275.526713 155.109143 
L 264.521735 152.692683 
L 253.497435 150.568459 
L 242.476871 148.76649 
L 235.129435 147.754451 
L 227.781337 146.903779 
L 220.419421 146.228265 
L 213.012502 145.75147 
L 205.630135 145.463474 
L 198.248352 145.363766 
L 190.843083 145.467728 
L 183.461937 145.786783 
L 176.104766 146.322464 
L 168.804206 147.09459 
L 161.572087 148.121747 
L 154.427974 149.419998 
L 147.405899 151.001953 
L 140.487822 152.890783 
L 133.67183 155.093449 
L 126.978721 157.616939 
L 120.481125 160.449075 
L 114.116587 163.611546 
L 107.921538 167.124674 
L 101.913541 170.982472 
L 95.99663 175.165841 
L 90.086332 179.672082 
L 87.092942 182.112296 
L 84.133249 184.701013 
L 81.435869 187.301674 
L 79.200076 189.733982 
L 77.483452 191.87227 
L 76.269001 193.657504 
L 74.978161 196.185665 
L 74.480477 197.750141 
L 74.376647 198.942247 
L 74.455733 199.487824 
L 74.746843 200.026279 
L 75.342746 200.50241 
L 76.30032 200.828608 
L 77.874772 200.984799 
L 80.262723 200.979791 
L 86.344858 200.576086 
L 93.322633 199.784378 
L 104.552856 198.251837 
L 119.724269 195.943206 
L 142.789779 192.472637 
L 158.247462 190.409499 
L 169.880411 189.045735 
L 181.541604 187.869565 
L 193.215571 186.898315 
L 204.888545 186.147938 
L 216.571605 185.612353 
L 228.269377 185.275585 
L 239.972654 185.125619 
L 251.663751 185.155049 
L 263.318698 185.35615 
L 278.825205 185.874288 
L 294.309405 186.664197 
L 305.870167 187.461377 
L 321.289952 188.775681 
L 332.838197 189.947546 
L 344.362804 191.296622 
L 355.82269 192.843862 
L 367.074054 194.583989 
L 381.616899 197.215952 
L 391.73216 199.20566 
L 397.940031 200.527748 
L 397.940031 200.527748 
" style="fill:none;stroke:#000000;stroke-linecap:square;stroke-opacity:0.1;stroke-width:1.5;"/>
   </g>
   <g id="line2d_23">
    <path clip-path="url(#p752d293de3)" d="M 397.984156 200.669951 
L 395.827381 198.594799 
L 390.730701 196.52824 
L 384.970399 194.517812 
L 378.790424 192.560444 
L 372.401855 190.704925 
L 369.141813 189.8096 
L 365.72078 189.185345 
L 361.963102 189.206579 
L 355.257946 187.534011 
L 338.522786 183.145288 
L 335.109577 182.105876 
L 328.347358 180.428163 
L 321.539403 178.889049 
L 310.732237 176.700337 
L 299.736779 174.672933 
L 288.841276 172.838322 
L 277.973995 171.225992 
L 267.080516 169.858273 
L 256.171496 168.694037 
L 245.283774 167.759705 
L 234.387008 167.05525 
L 223.43674 166.582066 
L 212.326982 166.381945 
L 201.236194 166.380845 
L 190.073077 166.606479 
L 178.935155 167.080271 
L 167.865726 167.836145 
L 160.535813 168.524491 
L 153.264069 169.371088 
L 146.062416 170.39149 
L 138.893325 171.601879 
L 131.775063 173.001952 
L 124.746187 174.602363 
L 117.829365 176.401697 
L 110.939284 178.466857 
L 104.178558 180.806915 
L 97.4958 183.473754 
L 91.067635 186.420632 
L 87.992017 188.031337 
L 85.092189 189.719614 
L 82.403877 191.476941 
L 78.382498 194.516193 
L 75.180233 197.131297 
L 74.30637 197.468114 
L 74.409335 197.55601 
L 74.91302 197.702376 
L 75.888504 197.797981 
L 77.349573 197.735292 
L 82.331543 197.122733 
L 89.080547 196.038179 
L 104.237658 193.28252 
L 127.263985 189.129222 
L 138.815113 187.26555 
L 150.32943 185.625145 
L 161.842713 184.230489 
L 173.352492 183.080037 
L 184.868342 182.181046 
L 196.391416 181.538238 
L 207.915099 181.158868 
L 219.441497 181.030956 
L 230.973032 181.124278 
L 242.501211 181.416196 
L 254.019212 181.88909 
L 269.332051 182.778106 
L 284.627204 183.941718 
L 299.880344 185.365565 
L 315.087632 187.056695 
L 330.301533 188.964613 
L 345.48341 191.088546 
L 360.52741 193.456299 
L 371.475605 195.414648 
L 395.030497 199.897339 
L 397.978459 200.669951 
L 397.978459 200.669951 
" style="fill:none;stroke:#000000;stroke-linecap:square;stroke-opacity:0.1;stroke-width:1.5;"/>
   </g>
   <g id="line2d_24">
    <path clip-path="url(#p752d293de3)" d="M 398.22046 200.920619 
L 397.11574 198.043901 
L 395.474663 196.994933 
L 393.507781 195.96526 
L 388.746503 193.894345 
L 383.320818 191.844197 
L 377.558247 189.902978 
L 374.573229 188.967074 
L 371.309025 188.508176 
L 367.448068 189.201486 
L 364.288726 188.385872 
L 351.987245 184.533742 
L 345.772132 182.43468 
L 342.566775 181.087605 
L 336.289091 179.095017 
L 329.929465 177.313295 
L 319.315418 174.778887 
L 308.365024 172.454892 
L 297.572116 170.397305 
L 286.822897 168.647181 
L 279.645716 167.671395 
L 268.819462 166.466022 
L 261.642457 165.80569 
L 250.857702 165.088861 
L 240.017473 164.651075 
L 232.713454 164.511471 
L 221.516396 164.576172 
L 210.336765 164.82741 
L 199.012822 165.302702 
L 187.689488 166.00303 
L 176.400412 166.948768 
L 165.171497 168.183475 
L 157.75489 169.173766 
L 150.356996 170.323345 
L 139.237017 172.338691 
L 128.245172 174.674384 
L 120.879308 176.454664 
L 113.447589 178.497688 
L 106.040855 180.83308 
L 98.616578 183.508397 
L 94.989991 184.975447 
L 91.465886 186.542569 
L 88.17596 188.172127 
L 85.049348 189.921378 
L 82.264786 191.685201 
L 78.300808 194.532073 
L 74.530381 197.645234 
L 74.482324 197.937817 
L 74.687828 198.276986 
L 75.365429 198.723207 
L 76.601804 199.184955 
L 78.385396 199.548945 
L 80.748525 199.791482 
L 83.694822 199.909834 
L 90.61135 199.848305 
L 98.250497 199.527706 
L 113.978456 198.509815 
L 157.061176 195.299201 
L 176.574971 194.147082 
L 192.163776 193.43344 
L 207.749854 192.944085 
L 223.305867 192.675752 
L 246.548845 192.548074 
L 284.972929 192.64546 
L 304.06657 192.781907 
L 319.246036 193.100667 
L 338.207065 193.732766 
L 349.534169 194.319566 
L 360.742027 195.151762 
L 368.018629 195.816147 
L 375.021293 196.709933 
L 393.635759 199.542216 
L 396.009103 200.063273 
L 398.217013 200.920619 
L 398.217013 200.920619 
" style="fill:none;stroke:#000000;stroke-linecap:square;stroke-opacity:0.1;stroke-width:1.5;"/>
   </g>
   <g id="patch_3">
    <path d="M 57.6 307.584 
L 57.6 41.472 
" style="fill:none;stroke:#000000;stroke-linecap:square;stroke-linejoin:miter;stroke-width:0.8;"/>
   </g>
   <g id="patch_4">
    <path d="M 414.72 307.584 
L 414.72 41.472 
" style="fill:none;stroke:#000000;stroke-linecap:square;stroke-linejoin:miter;stroke-width:0.8;"/>
   </g>
   <g id="patch_5">
    <path d="M 57.6 307.584 
L 414.72 307.584 
" style="fill:none;stroke:#000000;stroke-linecap:square;stroke-linejoin:miter;stroke-width:0.8;"/>
   </g>
   <g id="patch_6">
    <path d="M 57.6 41.472 
L 414.72 41.472 
" style="fill:none;stroke:#000000;stroke-linecap:square;stroke-linejoin:miter;stroke-width:0.8;"/>
   </g>
   <g id="text_15">
    <!-- CL/CD: 181.86+/-21.87  time: 428.14+/-102.22 min -->
    <defs>
     <path d="M 64.40625 67.28125 
L 64.40625 56.890625 
Q 59.421875 61.53125 53.78125 63.8125 
Q 48.140625 66.109375 41.796875 66.109375 
Q 29.296875 66.109375 22.65625 58.46875 
Q 16.015625 50.828125 16.015625 36.375 
Q 16.015625 21.96875 22.65625 14.328125 
Q 29.296875 6.6875 41.796875 6.6875 
Q 48.140625 6.6875 53.78125 8.984375 
Q 59.421875 11.28125 64.40625 15.921875 
L 64.40625 5.609375 
Q 59.234375 2.09375 53.4375 0.328125 
Q 47.65625 -1.421875 41.21875 -1.421875 
Q 24.65625 -1.421875 15.125 8.703125 
Q 5.609375 18.84375 5.609375 36.375 
Q 5.609375 53.953125 15.125 64.078125 
Q 24.65625 74.21875 41.21875 74.21875 
Q 47.75 74.21875 53.53125 72.484375 
Q 59.328125 70.75 64.40625 67.28125 
z
" id="DejaVuSans-43"/>
     <path d="M 9.8125 72.90625 
L 19.671875 72.90625 
L 19.671875 8.296875 
L 55.171875 8.296875 
L 55.171875 0 
L 9.8125 0 
z
" id="DejaVuSans-4c"/>
     <path d="M 25.390625 72.90625 
L 33.6875 72.90625 
L 8.296875 -9.28125 
L 0 -9.28125 
z
" id="DejaVuSans-2f"/>
     <path d="M 19.671875 64.796875 
L 19.671875 8.109375 
L 31.59375 8.109375 
Q 46.6875 8.109375 53.6875 14.9375 
Q 60.6875 21.78125 60.6875 36.53125 
Q 60.6875 51.171875 53.6875 57.984375 
Q 46.6875 64.796875 31.59375 64.796875 
z
M 9.8125 72.90625 
L 30.078125 72.90625 
Q 51.265625 72.90625 61.171875 64.09375 
Q 71.09375 55.28125 71.09375 36.53125 
Q 71.09375 17.671875 61.125 8.828125 
Q 51.171875 0 30.078125 0 
L 9.8125 0 
z
" id="DejaVuSans-44"/>
     <path d="M 11.71875 12.40625 
L 22.015625 12.40625 
L 22.015625 0 
L 11.71875 0 
z
M 11.71875 51.703125 
L 22.015625 51.703125 
L 22.015625 39.3125 
L 11.71875 39.3125 
z
" id="DejaVuSans-3a"/>
     <path id="DejaVuSans-20"/>
     <path d="M 46 62.703125 
L 46 35.5 
L 73.1875 35.5 
L 73.1875 27.203125 
L 46 27.203125 
L 46 0 
L 37.796875 0 
L 37.796875 27.203125 
L 10.59375 27.203125 
L 10.59375 35.5 
L 37.796875 35.5 
L 37.796875 62.703125 
z
" id="DejaVuSans-2b"/>
     <path d="M 4.890625 31.390625 
L 31.203125 31.390625 
L 31.203125 23.390625 
L 4.890625 23.390625 
z
" id="DejaVuSans-2d"/>
     <path d="M 8.203125 72.90625 
L 55.078125 72.90625 
L 55.078125 68.703125 
L 28.609375 0 
L 18.3125 0 
L 43.21875 64.59375 
L 8.203125 64.59375 
z
" id="DejaVuSans-37"/>
     <path d="M 18.3125 70.21875 
L 18.3125 54.6875 
L 36.8125 54.6875 
L 36.8125 47.703125 
L 18.3125 47.703125 
L 18.3125 18.015625 
Q 18.3125 11.328125 20.140625 9.421875 
Q 21.96875 7.515625 27.59375 7.515625 
L 36.8125 7.515625 
L 36.8125 0 
L 27.59375 0 
Q 17.1875 0 13.234375 3.875 
Q 9.28125 7.765625 9.28125 18.015625 
L 9.28125 47.703125 
L 2.6875 47.703125 
L 2.6875 54.6875 
L 9.28125 54.6875 
L 9.28125 70.21875 
z
" id="DejaVuSans-74"/>
     <path d="M 9.421875 54.6875 
L 18.40625 54.6875 
L 18.40625 0 
L 9.421875 0 
z
M 9.421875 75.984375 
L 18.40625 75.984375 
L 18.40625 64.59375 
L 9.421875 64.59375 
z
" id="DejaVuSans-69"/>
     <path d="M 52 44.1875 
Q 55.375 50.25 60.0625 53.125 
Q 64.75 56 71.09375 56 
Q 79.640625 56 84.28125 50.015625 
Q 88.921875 44.046875 88.921875 33.015625 
L 88.921875 0 
L 79.890625 0 
L 79.890625 32.71875 
Q 79.890625 40.578125 77.09375 44.375 
Q 74.3125 48.1875 68.609375 48.1875 
Q 61.625 48.1875 57.5625 43.546875 
Q 53.515625 38.921875 53.515625 30.90625 
L 53.515625 0 
L 44.484375 0 
L 44.484375 32.71875 
Q 44.484375 40.625 41.703125 44.40625 
Q 38.921875 48.1875 33.109375 48.1875 
Q 26.21875 48.1875 22.15625 43.53125 
Q 18.109375 38.875 18.109375 30.90625 
L 18.109375 0 
L 9.078125 0 
L 9.078125 54.6875 
L 18.109375 54.6875 
L 18.109375 46.1875 
Q 21.1875 51.21875 25.484375 53.609375 
Q 29.78125 56 35.6875 56 
Q 41.65625 56 45.828125 52.96875 
Q 50 49.953125 52 44.1875 
z
" id="DejaVuSans-6d"/>
     <path d="M 56.203125 29.59375 
L 56.203125 25.203125 
L 14.890625 25.203125 
Q 15.484375 15.921875 20.484375 11.0625 
Q 25.484375 6.203125 34.421875 6.203125 
Q 39.59375 6.203125 44.453125 7.46875 
Q 49.3125 8.734375 54.109375 11.28125 
L 54.109375 2.78125 
Q 49.265625 0.734375 44.1875 -0.34375 
Q 39.109375 -1.421875 33.890625 -1.421875 
Q 20.796875 -1.421875 13.15625 6.1875 
Q 5.515625 13.8125 5.515625 26.8125 
Q 5.515625 40.234375 12.765625 48.109375 
Q 20.015625 56 32.328125 56 
Q 43.359375 56 49.78125 48.890625 
Q 56.203125 41.796875 56.203125 29.59375 
z
M 47.21875 32.234375 
Q 47.125 39.59375 43.09375 43.984375 
Q 39.0625 48.390625 32.421875 48.390625 
Q 24.90625 48.390625 20.390625 44.140625 
Q 15.875 39.890625 15.1875 32.171875 
z
" id="DejaVuSans-65"/>
     <path d="M 54.890625 33.015625 
L 54.890625 0 
L 45.90625 0 
L 45.90625 32.71875 
Q 45.90625 40.484375 42.875 44.328125 
Q 39.84375 48.1875 33.796875 48.1875 
Q 26.515625 48.1875 22.3125 43.546875 
Q 18.109375 38.921875 18.109375 30.90625 
L 18.109375 0 
L 9.078125 0 
L 9.078125 54.6875 
L 18.109375 54.6875 
L 18.109375 46.1875 
Q 21.34375 51.125 25.703125 53.5625 
Q 30.078125 56 35.796875 56 
Q 45.21875 56 50.046875 50.171875 
Q 54.890625 44.34375 54.890625 33.015625 
z
" id="DejaVuSans-6e"/>
    </defs>
    <g transform="translate(80.762812 35.472)scale(0.12 -0.12)">
     <use xlink:href="#DejaVuSans-43"/>
     <use x="69.824219" xlink:href="#DejaVuSans-4c"/>
     <use x="125.537109" xlink:href="#DejaVuSans-2f"/>
     <use x="159.228516" xlink:href="#DejaVuSans-43"/>
     <use x="229.052734" xlink:href="#DejaVuSans-44"/>
     <use x="306.054688" xlink:href="#DejaVuSans-3a"/>
     <use x="339.746094" xlink:href="#DejaVuSans-20"/>
     <use x="371.533203" xlink:href="#DejaVuSans-31"/>
     <use x="435.15625" xlink:href="#DejaVuSans-38"/>
     <use x="498.779297" xlink:href="#DejaVuSans-31"/>
     <use x="562.402344" xlink:href="#DejaVuSans-2e"/>
     <use x="594.189453" xlink:href="#DejaVuSans-38"/>
     <use x="657.8125" xlink:href="#DejaVuSans-36"/>
     <use x="721.435547" xlink:href="#DejaVuSans-2b"/>
     <use x="805.224609" xlink:href="#DejaVuSans-2f"/>
     <use x="838.916016" xlink:href="#DejaVuSans-2d"/>
     <use x="875" xlink:href="#DejaVuSans-32"/>
     <use x="938.623047" xlink:href="#DejaVuSans-31"/>
     <use x="1002.246094" xlink:href="#DejaVuSans-2e"/>
     <use x="1034.033203" xlink:href="#DejaVuSans-38"/>
     <use x="1097.65625" xlink:href="#DejaVuSans-37"/>
     <use x="1161.279297" xlink:href="#DejaVuSans-20"/>
     <use x="1193.066406" xlink:href="#DejaVuSans-20"/>
     <use x="1224.853516" xlink:href="#DejaVuSans-74"/>
     <use x="1264.0625" xlink:href="#DejaVuSans-69"/>
     <use x="1291.845703" xlink:href="#DejaVuSans-6d"/>
     <use x="1389.257812" xlink:href="#DejaVuSans-65"/>
     <use x="1450.78125" xlink:href="#DejaVuSans-3a"/>
     <use x="1484.472656" xlink:href="#DejaVuSans-20"/>
     <use x="1516.259766" xlink:href="#DejaVuSans-34"/>
     <use x="1579.882812" xlink:href="#DejaVuSans-32"/>
     <use x="1643.505859" xlink:href="#DejaVuSans-38"/>
     <use x="1707.128906" xlink:href="#DejaVuSans-2e"/>
     <use x="1738.916016" xlink:href="#DejaVuSans-31"/>
     <use x="1802.539062" xlink:href="#DejaVuSans-34"/>
     <use x="1866.162109" xlink:href="#DejaVuSans-2b"/>
     <use x="1949.951172" xlink:href="#DejaVuSans-2f"/>
     <use x="1983.642578" xlink:href="#DejaVuSans-2d"/>
     <use x="2019.726562" xlink:href="#DejaVuSans-31"/>
     <use x="2083.349609" xlink:href="#DejaVuSans-30"/>
     <use x="2146.972656" xlink:href="#DejaVuSans-32"/>
     <use x="2210.595703" xlink:href="#DejaVuSans-2e"/>
     <use x="2242.382812" xlink:href="#DejaVuSans-32"/>
     <use x="2306.005859" xlink:href="#DejaVuSans-32"/>
     <use x="2369.628906" xlink:href="#DejaVuSans-20"/>
     <use x="2401.416016" xlink:href="#DejaVuSans-6d"/>
     <use x="2498.828125" xlink:href="#DejaVuSans-69"/>
     <use x="2526.611328" xlink:href="#DejaVuSans-6e"/>
    </g>
   </g>
  </g>
 </g>
 <defs>
  <clipPath id="p752d293de3">
   <rect height="266.112" width="357.12" x="57.6" y="41.472"/>
  </clipPath>
 </defs>
</svg>
