<?xml version="1.0" encoding="utf-8" standalone="no"?>
<!DOCTYPE svg PUBLIC "-//W3C//DTD SVG 1.1//EN"
  "http://www.w3.org/Graphics/SVG/1.1/DTD/svg11.dtd">
<!-- Created with matplotlib (http://matplotlib.org/) -->
<svg height="345pt" version="1.1" viewBox="0 0 460 345" width="460pt" xmlns="http://www.w3.org/2000/svg" xmlns:xlink="http://www.w3.org/1999/xlink">
 <defs>
  <style type="text/css">
*{stroke-linecap:butt;stroke-linejoin:round;}
  </style>
 </defs>
 <g id="figure_1">
  <g id="patch_1">
   <path d="M 0 345.6 
L 460.8 345.6 
L 460.8 0 
L 0 0 
z
" style="fill:#ffffff;"/>
  </g>
  <g id="axes_1">
   <g id="patch_2">
    <path d="M 57.6 307.584 
L 414.72 307.584 
L 414.72 41.472 
L 57.6 41.472 
z
" style="fill:#ffffff;"/>
   </g>
   <g id="matplotlib.axis_1">
    <g id="xtick_1">
     <g id="line2d_1">
      <defs>
       <path d="M 0 0 
L 0 3.5 
" id="m1a639bd975" style="stroke:#000000;stroke-width:0.8;"/>
      </defs>
      <g>
       <use style="stroke:#000000;stroke-width:0.8;" x="73.832727" xlink:href="#m1a639bd975" y="307.584"/>
      </g>
     </g>
     <g id="text_1">
      <!-- 0.0 -->
      <defs>
       <path d="M 31.78125 66.40625 
Q 24.171875 66.40625 20.328125 58.90625 
Q 16.5 51.421875 16.5 36.375 
Q 16.5 21.390625 20.328125 13.890625 
Q 24.171875 6.390625 31.78125 6.390625 
Q 39.453125 6.390625 43.28125 13.890625 
Q 47.125 21.390625 47.125 36.375 
Q 47.125 51.421875 43.28125 58.90625 
Q 39.453125 66.40625 31.78125 66.40625 
z
M 31.78125 74.21875 
Q 44.046875 74.21875 50.515625 64.515625 
Q 56.984375 54.828125 56.984375 36.375 
Q 56.984375 17.96875 50.515625 8.265625 
Q 44.046875 -1.421875 31.78125 -1.421875 
Q 19.53125 -1.421875 13.0625 8.265625 
Q 6.59375 17.96875 6.59375 36.375 
Q 6.59375 54.828125 13.0625 64.515625 
Q 19.53125 74.21875 31.78125 74.21875 
z
" id="DejaVuSans-30"/>
       <path d="M 10.6875 12.40625 
L 21 12.40625 
L 21 0 
L 10.6875 0 
z
" id="DejaVuSans-2e"/>
      </defs>
      <g transform="translate(65.881165 322.182437)scale(0.1 -0.1)">
       <use xlink:href="#DejaVuSans-30"/>
       <use x="63.623047" xlink:href="#DejaVuSans-2e"/>
       <use x="95.410156" xlink:href="#DejaVuSans-30"/>
      </g>
     </g>
    </g>
    <g id="xtick_2">
     <g id="line2d_2">
      <g>
       <use style="stroke:#000000;stroke-width:0.8;" x="138.763636" xlink:href="#m1a639bd975" y="307.584"/>
      </g>
     </g>
     <g id="text_2">
      <!-- 0.2 -->
      <defs>
       <path d="M 19.1875 8.296875 
L 53.609375 8.296875 
L 53.609375 0 
L 7.328125 0 
L 7.328125 8.296875 
Q 12.9375 14.109375 22.625 23.890625 
Q 32.328125 33.6875 34.8125 36.53125 
Q 39.546875 41.84375 41.421875 45.53125 
Q 43.3125 49.21875 43.3125 52.78125 
Q 43.3125 58.59375 39.234375 62.25 
Q 35.15625 65.921875 28.609375 65.921875 
Q 23.96875 65.921875 18.8125 64.3125 
Q 13.671875 62.703125 7.8125 59.421875 
L 7.8125 69.390625 
Q 13.765625 71.78125 18.9375 73 
Q 24.125 74.21875 28.421875 74.21875 
Q 39.75 74.21875 46.484375 68.546875 
Q 53.21875 62.890625 53.21875 53.421875 
Q 53.21875 48.921875 51.53125 44.890625 
Q 49.859375 40.875 45.40625 35.40625 
Q 44.1875 33.984375 37.640625 27.21875 
Q 31.109375 20.453125 19.1875 8.296875 
z
" id="DejaVuSans-32"/>
      </defs>
      <g transform="translate(130.812074 322.182437)scale(0.1 -0.1)">
       <use xlink:href="#DejaVuSans-30"/>
       <use x="63.623047" xlink:href="#DejaVuSans-2e"/>
       <use x="95.410156" xlink:href="#DejaVuSans-32"/>
      </g>
     </g>
    </g>
    <g id="xtick_3">
     <g id="line2d_3">
      <g>
       <use style="stroke:#000000;stroke-width:0.8;" x="203.694545" xlink:href="#m1a639bd975" y="307.584"/>
      </g>
     </g>
     <g id="text_3">
      <!-- 0.4 -->
      <defs>
       <path d="M 37.796875 64.3125 
L 12.890625 25.390625 
L 37.796875 25.390625 
z
M 35.203125 72.90625 
L 47.609375 72.90625 
L 47.609375 25.390625 
L 58.015625 25.390625 
L 58.015625 17.1875 
L 47.609375 17.1875 
L 47.609375 0 
L 37.796875 0 
L 37.796875 17.1875 
L 4.890625 17.1875 
L 4.890625 26.703125 
z
" id="DejaVuSans-34"/>
      </defs>
      <g transform="translate(195.742983 322.182437)scale(0.1 -0.1)">
       <use xlink:href="#DejaVuSans-30"/>
       <use x="63.623047" xlink:href="#DejaVuSans-2e"/>
       <use x="95.410156" xlink:href="#DejaVuSans-34"/>
      </g>
     </g>
    </g>
    <g id="xtick_4">
     <g id="line2d_4">
      <g>
       <use style="stroke:#000000;stroke-width:0.8;" x="268.625455" xlink:href="#m1a639bd975" y="307.584"/>
      </g>
     </g>
     <g id="text_4">
      <!-- 0.6 -->
      <defs>
       <path d="M 33.015625 40.375 
Q 26.375 40.375 22.484375 35.828125 
Q 18.609375 31.296875 18.609375 23.390625 
Q 18.609375 15.53125 22.484375 10.953125 
Q 26.375 6.390625 33.015625 6.390625 
Q 39.65625 6.390625 43.53125 10.953125 
Q 47.40625 15.53125 47.40625 23.390625 
Q 47.40625 31.296875 43.53125 35.828125 
Q 39.65625 40.375 33.015625 40.375 
z
M 52.59375 71.296875 
L 52.59375 62.3125 
Q 48.875 64.0625 45.09375 64.984375 
Q 41.3125 65.921875 37.59375 65.921875 
Q 27.828125 65.921875 22.671875 59.328125 
Q 17.53125 52.734375 16.796875 39.40625 
Q 19.671875 43.65625 24.015625 45.921875 
Q 28.375 48.1875 33.59375 48.1875 
Q 44.578125 48.1875 50.953125 41.515625 
Q 57.328125 34.859375 57.328125 23.390625 
Q 57.328125 12.15625 50.6875 5.359375 
Q 44.046875 -1.421875 33.015625 -1.421875 
Q 20.359375 -1.421875 13.671875 8.265625 
Q 6.984375 17.96875 6.984375 36.375 
Q 6.984375 53.65625 15.1875 63.9375 
Q 23.390625 74.21875 37.203125 74.21875 
Q 40.921875 74.21875 44.703125 73.484375 
Q 48.484375 72.75 52.59375 71.296875 
z
" id="DejaVuSans-36"/>
      </defs>
      <g transform="translate(260.673892 322.182437)scale(0.1 -0.1)">
       <use xlink:href="#DejaVuSans-30"/>
       <use x="63.623047" xlink:href="#DejaVuSans-2e"/>
       <use x="95.410156" xlink:href="#DejaVuSans-36"/>
      </g>
     </g>
    </g>
    <g id="xtick_5">
     <g id="line2d_5">
      <g>
       <use style="stroke:#000000;stroke-width:0.8;" x="333.556364" xlink:href="#m1a639bd975" y="307.584"/>
      </g>
     </g>
     <g id="text_5">
      <!-- 0.8 -->
      <defs>
       <path d="M 31.78125 34.625 
Q 24.75 34.625 20.71875 30.859375 
Q 16.703125 27.09375 16.703125 20.515625 
Q 16.703125 13.921875 20.71875 10.15625 
Q 24.75 6.390625 31.78125 6.390625 
Q 38.8125 6.390625 42.859375 10.171875 
Q 46.921875 13.96875 46.921875 20.515625 
Q 46.921875 27.09375 42.890625 30.859375 
Q 38.875 34.625 31.78125 34.625 
z
M 21.921875 38.8125 
Q 15.578125 40.375 12.03125 44.71875 
Q 8.5 49.078125 8.5 55.328125 
Q 8.5 64.0625 14.71875 69.140625 
Q 20.953125 74.21875 31.78125 74.21875 
Q 42.671875 74.21875 48.875 69.140625 
Q 55.078125 64.0625 55.078125 55.328125 
Q 55.078125 49.078125 51.53125 44.71875 
Q 48 40.375 41.703125 38.8125 
Q 48.828125 37.15625 52.796875 32.3125 
Q 56.78125 27.484375 56.78125 20.515625 
Q 56.78125 9.90625 50.3125 4.234375 
Q 43.84375 -1.421875 31.78125 -1.421875 
Q 19.734375 -1.421875 13.25 4.234375 
Q 6.78125 9.90625 6.78125 20.515625 
Q 6.78125 27.484375 10.78125 32.3125 
Q 14.796875 37.15625 21.921875 38.8125 
z
M 18.3125 54.390625 
Q 18.3125 48.734375 21.84375 45.5625 
Q 25.390625 42.390625 31.78125 42.390625 
Q 38.140625 42.390625 41.71875 45.5625 
Q 45.3125 48.734375 45.3125 54.390625 
Q 45.3125 60.0625 41.71875 63.234375 
Q 38.140625 66.40625 31.78125 66.40625 
Q 25.390625 66.40625 21.84375 63.234375 
Q 18.3125 60.0625 18.3125 54.390625 
z
" id="DejaVuSans-38"/>
      </defs>
      <g transform="translate(325.604801 322.182437)scale(0.1 -0.1)">
       <use xlink:href="#DejaVuSans-30"/>
       <use x="63.623047" xlink:href="#DejaVuSans-2e"/>
       <use x="95.410156" xlink:href="#DejaVuSans-38"/>
      </g>
     </g>
    </g>
    <g id="xtick_6">
     <g id="line2d_6">
      <g>
       <use style="stroke:#000000;stroke-width:0.8;" x="398.487273" xlink:href="#m1a639bd975" y="307.584"/>
      </g>
     </g>
     <g id="text_6">
      <!-- 1.0 -->
      <defs>
       <path d="M 12.40625 8.296875 
L 28.515625 8.296875 
L 28.515625 63.921875 
L 10.984375 60.40625 
L 10.984375 69.390625 
L 28.421875 72.90625 
L 38.28125 72.90625 
L 38.28125 8.296875 
L 54.390625 8.296875 
L 54.390625 0 
L 12.40625 0 
z
" id="DejaVuSans-31"/>
      </defs>
      <g transform="translate(390.53571 322.182437)scale(0.1 -0.1)">
       <use xlink:href="#DejaVuSans-31"/>
       <use x="63.623047" xlink:href="#DejaVuSans-2e"/>
       <use x="95.410156" xlink:href="#DejaVuSans-30"/>
      </g>
     </g>
    </g>
   </g>
   <g id="matplotlib.axis_2">
    <g id="ytick_1">
     <g id="line2d_7">
      <defs>
       <path d="M 0 0 
L -3.5 0 
" id="mc36cbff864" style="stroke:#000000;stroke-width:0.8;"/>
      </defs>
      <g>
       <use style="stroke:#000000;stroke-width:0.8;" x="57.6" xlink:href="#mc36cbff864" y="284.79571"/>
      </g>
     </g>
     <g id="text_7">
      <!-- −0.3 -->
      <defs>
       <path d="M 10.59375 35.5 
L 73.1875 35.5 
L 73.1875 27.203125 
L 10.59375 27.203125 
z
" id="DejaVuSans-2212"/>
       <path d="M 40.578125 39.3125 
Q 47.65625 37.796875 51.625 33 
Q 55.609375 28.21875 55.609375 21.1875 
Q 55.609375 10.40625 48.1875 4.484375 
Q 40.765625 -1.421875 27.09375 -1.421875 
Q 22.515625 -1.421875 17.65625 -0.515625 
Q 12.796875 0.390625 7.625 2.203125 
L 7.625 11.71875 
Q 11.71875 9.328125 16.59375 8.109375 
Q 21.484375 6.890625 26.8125 6.890625 
Q 36.078125 6.890625 40.9375 10.546875 
Q 45.796875 14.203125 45.796875 21.1875 
Q 45.796875 27.640625 41.28125 31.265625 
Q 36.765625 34.90625 28.71875 34.90625 
L 20.21875 34.90625 
L 20.21875 43.015625 
L 29.109375 43.015625 
Q 36.375 43.015625 40.234375 45.921875 
Q 44.09375 48.828125 44.09375 54.296875 
Q 44.09375 59.90625 40.109375 62.90625 
Q 36.140625 65.921875 28.71875 65.921875 
Q 24.65625 65.921875 20.015625 65.03125 
Q 15.375 64.15625 9.8125 62.3125 
L 9.8125 71.09375 
Q 15.4375 72.65625 20.34375 73.4375 
Q 25.25 74.21875 29.59375 74.21875 
Q 40.828125 74.21875 47.359375 69.109375 
Q 53.90625 64.015625 53.90625 55.328125 
Q 53.90625 49.265625 50.4375 45.09375 
Q 46.96875 40.921875 40.578125 39.3125 
z
" id="DejaVuSans-33"/>
      </defs>
      <g transform="translate(26.317187 288.594929)scale(0.1 -0.1)">
       <use xlink:href="#DejaVuSans-2212"/>
       <use x="83.789062" xlink:href="#DejaVuSans-30"/>
       <use x="147.412109" xlink:href="#DejaVuSans-2e"/>
       <use x="179.199219" xlink:href="#DejaVuSans-33"/>
      </g>
     </g>
    </g>
    <g id="ytick_2">
     <g id="line2d_8">
      <g>
       <use style="stroke:#000000;stroke-width:0.8;" x="57.6" xlink:href="#mc36cbff864" y="252.330256"/>
      </g>
     </g>
     <g id="text_8">
      <!-- −0.2 -->
      <g transform="translate(26.317187 256.129475)scale(0.1 -0.1)">
       <use xlink:href="#DejaVuSans-2212"/>
       <use x="83.789062" xlink:href="#DejaVuSans-30"/>
       <use x="147.412109" xlink:href="#DejaVuSans-2e"/>
       <use x="179.199219" xlink:href="#DejaVuSans-32"/>
      </g>
     </g>
    </g>
    <g id="ytick_3">
     <g id="line2d_9">
      <g>
       <use style="stroke:#000000;stroke-width:0.8;" x="57.6" xlink:href="#mc36cbff864" y="219.864801"/>
      </g>
     </g>
     <g id="text_9">
      <!-- −0.1 -->
      <g transform="translate(26.317187 223.66402)scale(0.1 -0.1)">
       <use xlink:href="#DejaVuSans-2212"/>
       <use x="83.789062" xlink:href="#DejaVuSans-30"/>
       <use x="147.412109" xlink:href="#DejaVuSans-2e"/>
       <use x="179.199219" xlink:href="#DejaVuSans-31"/>
      </g>
     </g>
    </g>
    <g id="ytick_4">
     <g id="line2d_10">
      <g>
       <use style="stroke:#000000;stroke-width:0.8;" x="57.6" xlink:href="#mc36cbff864" y="187.399347"/>
      </g>
     </g>
     <g id="text_10">
      <!-- 0.0 -->
      <g transform="translate(34.696875 191.198566)scale(0.1 -0.1)">
       <use xlink:href="#DejaVuSans-30"/>
       <use x="63.623047" xlink:href="#DejaVuSans-2e"/>
       <use x="95.410156" xlink:href="#DejaVuSans-30"/>
      </g>
     </g>
    </g>
    <g id="ytick_5">
     <g id="line2d_11">
      <g>
       <use style="stroke:#000000;stroke-width:0.8;" x="57.6" xlink:href="#mc36cbff864" y="154.933892"/>
      </g>
     </g>
     <g id="text_11">
      <!-- 0.1 -->
      <g transform="translate(34.696875 158.733111)scale(0.1 -0.1)">
       <use xlink:href="#DejaVuSans-30"/>
       <use x="63.623047" xlink:href="#DejaVuSans-2e"/>
       <use x="95.410156" xlink:href="#DejaVuSans-31"/>
      </g>
     </g>
    </g>
    <g id="ytick_6">
     <g id="line2d_12">
      <g>
       <use style="stroke:#000000;stroke-width:0.8;" x="57.6" xlink:href="#mc36cbff864" y="122.468438"/>
      </g>
     </g>
     <g id="text_12">
      <!-- 0.2 -->
      <g transform="translate(34.696875 126.267656)scale(0.1 -0.1)">
       <use xlink:href="#DejaVuSans-30"/>
       <use x="63.623047" xlink:href="#DejaVuSans-2e"/>
       <use x="95.410156" xlink:href="#DejaVuSans-32"/>
      </g>
     </g>
    </g>
    <g id="ytick_7">
     <g id="line2d_13">
      <g>
       <use style="stroke:#000000;stroke-width:0.8;" x="57.6" xlink:href="#mc36cbff864" y="90.002983"/>
      </g>
     </g>
     <g id="text_13">
      <!-- 0.3 -->
      <g transform="translate(34.696875 93.802202)scale(0.1 -0.1)">
       <use xlink:href="#DejaVuSans-30"/>
       <use x="63.623047" xlink:href="#DejaVuSans-2e"/>
       <use x="95.410156" xlink:href="#DejaVuSans-33"/>
      </g>
     </g>
    </g>
    <g id="ytick_8">
     <g id="line2d_14">
      <g>
       <use style="stroke:#000000;stroke-width:0.8;" x="57.6" xlink:href="#mc36cbff864" y="57.537529"/>
      </g>
     </g>
     <g id="text_14">
      <!-- 0.4 -->
      <g transform="translate(34.696875 61.336747)scale(0.1 -0.1)">
       <use xlink:href="#DejaVuSans-30"/>
       <use x="63.623047" xlink:href="#DejaVuSans-2e"/>
       <use x="95.410156" xlink:href="#DejaVuSans-34"/>
      </g>
     </g>
    </g>
   </g>
   <g id="line2d_15">
    <path clip-path="url(#p1d14c9a820)" d="M 398.487273 187.399347 
L 384.764581 180.997355 
L 372.605803 175.772187 
L 361.607752 171.485438 
L 351.591769 168.009472 
L 342.371023 165.221325 
L 333.767244 163.013214 
L 325.615376 161.295427 
L 317.738296 159.992299 
L 309.971198 159.048225 
L 302.145148 158.423016 
L 294.080521 158.089616 
L 285.580114 158.0309 
L 276.440467 158.234347 
L 266.436423 158.684017 
L 249.317173 159.750394 
L 215.248217 161.975448 
L 185.077803 163.945985 
L 162.629578 165.640654 
L 148.295138 166.91242 
L 134.815398 168.310687 
L 122.484962 169.833764 
L 111.576884 171.462728 
L 102.331971 173.151787 
L 94.880473 174.829862 
L 89.191203 176.411434 
L 85.035304 177.830165 
L 82.113289 179.040848 
L 79.261062 180.506858 
L 77.534008 181.631063 
L 76.132332 182.791562 
L 75.123977 183.903689 
L 74.446984 184.960824 
L 74.040267 185.966982 
L 73.851764 186.961155 
L 73.884874 187.946898 
L 74.159487 188.709433 
L 74.640668 189.368949 
L 75.42262 190.022475 
L 76.367195 190.550488 
L 77.784046 191.095022 
L 79.779853 191.601307 
L 82.155392 191.983958 
L 85.916913 192.311821 
L 91.886998 192.437668 
L 95.873848 192.357382 
L 100.615442 192.14829 
L 112.20992 191.295289 
L 126.39544 189.854873 
L 142.698823 187.904886 
L 170.052305 184.313545 
L 208.357505 179.255532 
L 226.70964 177.042474 
L 243.935898 175.228344 
L 260.002439 173.859693 
L 275.030389 172.918297 
L 289.089756 172.38631 
L 302.262158 172.244134 
L 314.622542 172.471939 
L 326.251984 173.05023 
L 337.229973 173.960912 
L 347.640185 175.188808 
L 357.558677 176.721419 
L 367.067818 178.551474 
L 376.244406 180.67608 
L 385.163036 183.097395 
L 393.916521 185.829526 
L 398.487273 187.399347 
L 398.487273 187.399347 
" style="fill:none;opacity:0.1;stroke:#000000;stroke-linecap:square;stroke-width:1.5;"/>
   </g>
   <g id="line2d_16">
    <path clip-path="url(#p1d14c9a820)" d="M 398.487273 187.399347 
L 389.217901 183.252604 
L 380.645179 179.560381 
L 372.586241 176.231059 
L 364.995121 173.236177 
L 357.837032 170.552459 
L 351.093512 168.162698 
L 344.724566 166.041992 
L 338.709589 164.172514 
L 333.01451 162.532458 
L 327.606326 161.101464 
L 322.467468 159.864006 
L 317.55526 158.799441 
L 308.317812 157.131822 
L 299.669746 155.989838 
L 291.399904 155.29025 
L 283.292979 154.972566 
L 275.128511 154.9974 
L 266.666374 155.341999 
L 257.644099 155.992857 
L 247.756896 156.934557 
L 205.613224 161.303215 
L 149.277083 166.568397 
L 136.211306 168.026341 
L 124.144951 169.568448 
L 113.348647 171.186767 
L 104.058053 172.851486 
L 96.413088 174.511759 
L 90.480403 176.083841 
L 86.061529 177.511146 
L 82.889133 178.750782 
L 79.793225 180.249643 
L 77.870026 181.430461 
L 76.375829 182.596974 
L 75.296698 183.709435 
L 74.561968 184.764662 
L 74.071069 185.875116 
L 73.850286 186.980855 
L 73.876213 187.933431 
L 74.109494 188.688264 
L 74.546423 189.375171 
L 75.269318 190.055116 
L 76.346522 190.699941 
L 77.751235 191.251218 
L 79.724821 191.749648 
L 81.953912 192.095917 
L 85.572481 192.376617 
L 91.39711 192.412242 
L 95.351044 192.257962 
L 100.100653 191.946531 
L 105.614518 191.459589 
L 118.86407 189.927919 
L 134.659384 187.702593 
L 152.474201 184.916596 
L 220.843261 173.841464 
L 238.969493 171.272756 
L 255.444385 169.296321 
L 263.006742 168.553623 
L 270.176279 167.962977 
L 283.448433 167.198374 
L 295.449121 166.929817 
L 306.362103 167.09149 
L 316.365104 167.626577 
L 325.632056 168.489248 
L 334.33165 169.646056 
L 342.627473 171.076398 
L 350.680783 172.772346 
L 358.655655 174.73813 
L 366.72256 176.988167 
L 375.064044 179.543809 
L 388.550422 184.003719 
L 398.487273 187.399347 
L 398.487273 187.399347 
" style="fill:none;opacity:0.1;stroke:#000000;stroke-linecap:square;stroke-width:1.5;"/>
   </g>
   <g id="line2d_17">
    <path clip-path="url(#p1d14c9a820)" d="M 398.487273 187.399347 
L 393.563716 184.628558 
L 389.000413 182.206856 
L 384.567371 179.9905 
L 380.202552 177.940147 
L 375.893368 176.044456 
L 371.63386 174.295717 
L 367.407495 172.682581 
L 359.011494 169.832202 
L 350.612981 167.437068 
L 342.111421 165.451641 
L 333.408438 163.842971 
L 324.400097 162.586798 
L 314.975479 161.66562 
L 305.017803 161.066416 
L 294.415617 160.777503 
L 283.047174 160.783507 
L 270.802541 161.061642 
L 257.57889 161.577228 
L 235.696339 162.684809 
L 203.762136 164.50085 
L 179.387796 166.111435 
L 163.51228 167.328283 
L 148.306495 168.668851 
L 134.078554 170.134946 
L 121.146151 171.716545 
L 109.814448 173.385671 
L 100.327472 175.091444 
L 92.844041 176.750346 
L 87.278207 178.277533 
L 83.405956 179.585946 
L 80.765024 180.67047 
L 78.301561 181.924315 
L 76.515143 183.1059 
L 75.359955 184.126774 
L 74.537628 185.153933 
L 74.051257 186.137552 
L 73.844823 187.099865 
L 73.890268 188.090015 
L 74.158771 188.966362 
L 74.646621 189.75389 
L 75.322678 190.427904 
L 76.326931 191.089796 
L 77.490388 191.613093 
L 78.941573 192.065939 
L 81.412556 192.545987 
L 84.222622 192.829257 
L 88.539569 192.946502 
L 95.077186 192.696169 
L 99.298538 192.362725 
L 104.240369 191.856194 
L 116.060505 190.304143 
L 130.251755 188.056769 
L 146.363075 185.23792 
L 200.065019 175.512566 
L 217.278026 172.693827 
L 233.348286 170.391582 
L 240.835667 169.474261 
L 247.996526 168.712122 
L 254.876606 168.094271 
L 267.870963 167.26059 
L 279.983203 166.914906 
L 291.366841 167.007328 
L 302.173205 167.496803 
L 312.555261 168.35242 
L 322.661728 169.553458 
L 332.640147 171.08873 
L 342.640116 172.955496 
L 352.818794 175.158279 
L 363.326517 177.702168 
L 374.333872 180.594435 
L 392.127765 185.575002 
L 398.487273 187.399347 
L 398.487273 187.399347 
" style="fill:none;opacity:0.1;stroke:#000000;stroke-linecap:square;stroke-width:1.5;"/>
   </g>
   <g id="line2d_18">
    <path clip-path="url(#p1d14c9a820)" d="M 398.487273 187.399347 
L 390.530456 183.837845 
L 382.955751 180.796331 
L 375.381904 178.091279 
L 367.733741 175.690379 
L 359.932341 173.567307 
L 351.895772 171.701922 
L 343.54141 170.080154 
L 334.782365 168.692223 
L 325.528852 167.531882 
L 315.689663 166.595151 
L 305.173996 165.878749 
L 293.893171 165.378343 
L 281.761883 165.086908 
L 268.69303 164.993446 
L 254.612795 165.082418 
L 231.545332 165.513597 
L 206.939263 166.285094 
L 190.248989 167.002081 
L 173.712845 167.889434 
L 157.667849 168.9506 
L 142.44468 170.184625 
L 128.377394 171.582357 
L 115.806728 173.119524 
L 105.028149 174.752361 
L 96.266943 176.408329 
L 89.627328 177.979765 
L 84.893607 179.377976 
L 81.653043 180.560317 
L 78.754152 181.893029 
L 76.705521 183.136828 
L 75.44937 184.168282 
L 74.584726 185.173992 
L 74.081242 186.108757 
L 73.857707 186.98688 
L 73.862681 187.796642 
L 74.104287 188.53497 
L 74.529174 189.130856 
L 75.160871 189.668875 
L 76.13076 190.202534 
L 77.451463 190.675187 
L 79.395127 191.108768 
L 81.66179 191.400309 
L 85.469031 191.602633 
L 91.699336 191.509437 
L 95.983494 191.265592 
L 101.072603 190.853643 
L 113.645694 189.474522 
L 128.997572 187.389799 
L 146.571612 184.730695 
L 205.297658 175.512828 
L 224.077026 172.8631 
L 241.451024 170.745648 
L 249.454576 169.929803 
L 257.009169 169.280655 
L 264.176738 168.784909 
L 270.988219 168.431674 
L 277.476281 168.210684 
L 289.58844 168.128811 
L 300.730473 168.472808 
L 311.117557 169.189261 
L 320.963616 170.239708 
L 330.476273 171.600164 
L 339.871748 173.261288 
L 349.367289 175.22368 
L 359.203569 177.495848 
L 375.156031 181.492606 
L 398.487273 187.399347 
L 398.487273 187.399347 
" style="fill:none;opacity:0.1;stroke:#000000;stroke-linecap:square;stroke-width:1.5;"/>
   </g>
   <g id="line2d_19">
    <path clip-path="url(#p1d14c9a820)" d="M 398.487273 187.399347 
L 381.117696 181.072235 
L 365.648197 175.888224 
L 351.681654 171.658296 
L 339.010142 168.265372 
L 327.421838 165.595467 
L 316.703522 163.542829 
L 306.643699 162.014506 
L 297.034413 160.933149 
L 287.669917 160.237634 
L 278.341881 159.881858 
L 268.833148 159.832159 
L 258.913712 160.063066 
L 248.342228 160.550511 
L 230.724689 161.687782 
L 181.870236 165.246327 
L 160.320596 167.045889 
L 146.489929 168.367266 
L 133.421706 169.792186 
L 121.40527 171.315424 
L 110.727672 172.915648 
L 101.617742 174.553902 
L 94.258454 176.159926 
L 88.606938 177.665561 
L 84.52655 178.990527 
L 81.680237 180.106024 
L 78.923554 181.440285 
L 76.92382 182.69516 
L 75.576264 183.826057 
L 74.670393 184.89661 
L 74.133229 185.886211 
L 73.880268 186.792426 
L 73.849636 187.793233 
L 74.061038 188.785367 
L 74.476318 189.6307 
L 75.097069 190.394054 
L 76.014867 191.143336 
L 77.070275 191.748956 
L 78.341298 192.283027 
L 80.388985 192.885087 
L 82.639354 193.324362 
L 86.037194 193.720591 
L 91.214585 193.950481 
L 94.647618 193.942123 
L 98.769239 193.814789 
L 103.537943 193.547559 
L 108.975596 193.124966 
L 121.742762 191.794453 
L 136.715861 189.854876 
L 153.483348 187.411763 
L 227.005204 176.247715 
L 243.846951 174.107038 
L 259.292701 172.501603 
L 273.542768 171.407549 
L 286.72378 170.773395 
L 298.922732 170.552833 
L 310.237741 170.701758 
L 320.76146 171.179834 
L 330.586126 171.950976 
L 339.802861 172.984017 
L 348.501083 174.253137 
L 356.768232 175.738051 
L 364.689914 177.423961 
L 372.350555 179.301336 
L 379.834575 181.365534 
L 387.22975 183.61679 
L 394.637733 186.062498 
L 398.487273 187.399347 
L 398.487273 187.399347 
" style="fill:none;opacity:0.1;stroke:#000000;stroke-linecap:square;stroke-width:1.5;"/>
   </g>
   <g id="line2d_20">
    <path clip-path="url(#p1d14c9a820)" d="M 398.487273 187.399347 
L 388.640552 182.99321 
L 379.850796 179.331844 
L 371.774258 176.24336 
L 364.250718 173.643208 
L 357.12808 171.456299 
L 350.267459 169.620444 
L 343.519367 168.081354 
L 336.744718 166.799488 
L 329.799235 165.745784 
L 322.532441 164.900943 
L 314.77778 164.252925 
L 306.370051 163.795974 
L 297.129021 163.525171 
L 286.874632 163.433117 
L 269.220784 163.596192 
L 240.843499 164.226106 
L 216.889878 164.945769 
L 191.988114 165.944756 
L 175.43121 166.797489 
L 159.311826 167.817379 
L 143.979439 169.013482 
L 129.784828 170.385314 
L 117.073552 171.916372 
L 106.164867 173.564721 
L 97.288609 175.256393 
L 90.496592 176.89153 
L 85.625882 178.364522 
L 82.251536 179.630488 
L 79.151083 181.104601 
L 77.329293 182.224168 
L 75.971761 183.29967 
L 75.023549 184.305175 
L 74.393937 185.25291 
L 73.979565 186.289232 
L 73.836853 187.211484 
L 73.907402 188.154385 
L 74.188662 188.968604 
L 74.690903 189.71139 
L 75.45818 190.401186 
L 76.5063 191.012196 
L 77.812873 191.52065 
L 79.508992 191.955383 
L 81.292806 192.248274 
L 83.986293 192.492424 
L 88.236251 192.579958 
L 94.688533 192.310342 
L 103.754341 191.479558 
L 115.509139 189.982406 
L 129.688041 187.853986 
L 163.509459 182.329597 
L 181.431288 179.471725 
L 199.272543 176.84223 
L 216.668604 174.604917 
L 225.08975 173.677966 
L 233.322899 172.892488 
L 241.415809 172.242699 
L 249.381575 171.722862 
L 257.219012 171.328736 
L 264.926167 171.056135 
L 279.943625 170.858729 
L 294.422009 171.097228 
L 308.347425 171.738313 
L 321.706447 172.748641 
L 334.486856 174.094943 
L 346.672788 175.743403 
L 358.253589 177.660615 
L 369.213669 179.812107 
L 379.542603 182.163884 
L 389.225352 184.680333 
L 398.487273 187.399347 
L 398.487273 187.399347 
" style="fill:none;opacity:0.1;stroke:#000000;stroke-linecap:square;stroke-width:1.5;"/>
   </g>
   <g id="line2d_21">
    <path clip-path="url(#p1d14c9a820)" d="M 398.487273 187.399347 
L 391.251261 184.274049 
L 378.04565 178.924852 
L 365.887722 174.456492 
L 354.607322 170.754165 
L 344.061298 167.720611 
L 334.111374 165.268239 
L 324.610124 163.317573 
L 315.417145 161.802776 
L 306.392279 160.669895 
L 297.390969 159.875782 
L 288.269061 159.387128 
L 278.87344 159.177127 
L 269.041077 159.222338 
L 258.602034 159.498089 
L 241.437006 160.270467 
L 187.06399 163.2383 
L 166.011302 164.608818 
L 152.47864 165.660199 
L 139.631386 166.839879 
L 127.71306 168.153136 
L 116.956848 169.591512 
L 107.564318 171.12824 
L 99.679528 172.71426 
L 93.347541 174.281327 
L 88.476805 175.758281 
L 84.868703 177.086386 
L 82.216933 178.256902 
L 79.538316 179.706167 
L 77.791932 180.891199 
L 76.363093 182.116491 
L 75.281548 183.342999 
L 74.522335 184.561526 
L 74.068234 185.719668 
L 73.855719 186.86808 
L 73.878624 187.970277 
L 74.112975 188.751332 
L 74.549402 189.46704 
L 75.269808 190.179507 
L 76.287188 190.831763 
L 77.530268 191.374447 
L 79.16379 191.864496 
L 80.918235 192.224061 
L 83.609861 192.569889 
L 87.918017 192.808761 
L 94.469265 192.745596 
L 98.757857 192.531769 
L 103.732894 192.168419 
L 115.720652 190.952344 
L 130.090236 189.106427 
L 146.40388 186.729455 
L 182.800538 181.029444 
L 210.320259 176.824976 
L 227.638308 174.422162 
L 243.600393 172.512199 
L 258.161467 171.144051 
L 271.557158 170.267898 
L 283.954294 169.835753 
L 295.50462 169.804786 
L 306.367428 170.137981 
L 316.697695 170.806227 
L 326.646723 171.789009 
L 336.365746 173.074924 
L 346.00565 174.661266 
L 355.716674 176.552469 
L 365.654996 178.758984 
L 375.981539 181.2941 
L 386.854657 184.168012 
L 398.487273 187.399347 
L 398.487273 187.399347 
" style="fill:none;opacity:0.1;stroke:#000000;stroke-linecap:square;stroke-width:1.5;"/>
   </g>
   <g id="line2d_22">
    <path clip-path="url(#p1d14c9a820)" d="M 398.487273 187.399347 
L 390.695118 184.128111 
L 383.018476 181.28734 
L 375.056761 178.704524 
L 366.766259 176.370074 
L 358.103956 174.277621 
L 349.030212 172.423449 
L 339.503279 170.8042 
L 329.4827 169.416865 
L 318.930045 168.257909 
L 307.809418 167.322414 
L 296.087703 166.603295 
L 283.73454 166.090696 
L 270.716657 165.771493 
L 257.014103 165.629529 
L 235.125181 165.70474 
L 211.908849 166.071527 
L 196.165105 166.487603 
L 180.519949 167.057483 
L 165.238434 167.792873 
L 150.593133 168.701389 
L 136.848273 169.785132 
L 124.270012 171.036421 
L 113.114148 172.432382 
L 103.603385 173.928132 
L 95.869478 175.455402 
L 89.912712 176.926971 
L 85.548949 178.263861 
L 82.432594 179.432699 
L 79.454414 180.829248 
L 77.656796 181.902168 
L 76.249821 182.96897 
L 75.236579 183.980897 
L 74.46758 185.070937 
L 74.040226 186.053347 
L 73.847539 187.035861 
L 73.879974 187.973542 
L 74.13008 188.780707 
L 74.606005 189.530141 
L 75.271557 190.179767 
L 76.103615 190.740738 
L 77.30597 191.314904 
L 78.868354 191.83692 
L 80.578958 192.239053 
L 83.265384 192.654322 
L 87.475812 192.986223 
L 90.438337 193.071404 
L 94.0661 193.06231 
L 98.391559 192.931557 
L 103.449304 192.657104 
L 115.711372 191.629442 
L 130.501715 189.972871 
L 147.359121 187.776577 
L 175.402365 183.791172 
L 214.232687 178.256264 
L 232.637411 175.862373 
L 249.710627 173.925054 
L 265.109843 172.549328 
L 279.034925 171.708003 
L 291.694164 171.329576 
L 303.236983 171.3517 
L 313.812185 171.718058 
L 323.568869 172.379906 
L 332.655222 173.297314 
L 341.215455 174.439351 
L 349.393375 175.784093 
L 357.33565 177.318101 
L 365.196746 179.035253 
L 377.222183 181.955148 
L 398.487273 187.399347 
L 398.487273 187.399347 
" style="fill:none;opacity:0.1;stroke:#000000;stroke-linecap:square;stroke-width:1.5;"/>
   </g>
   <g id="line2d_23">
    <path clip-path="url(#p1d14c9a820)" d="M 398.487273 187.399347 
L 383.205787 181.437182 
L 369.78259 176.564708 
L 357.826482 172.599169 
L 347.106943 169.420199 
L 337.389871 166.909258 
L 328.443378 164.957444 
L 320.043798 163.471784 
L 311.975948 162.37794 
L 304.021035 161.619645 
L 295.9642 161.159024 
L 287.575422 160.972103 
L 278.603055 161.044668 
L 268.778921 161.365139 
L 251.862391 162.262124 
L 193.383337 165.923724 
L 169.617634 167.636156 
L 154.183191 168.915703 
L 139.492562 170.313605 
L 125.89762 171.827815 
L 113.746971 173.441492 
L 103.365774 175.113954 
L 94.99307 176.773977 
L 88.672791 178.329611 
L 84.226259 179.687483 
L 81.225235 180.812605 
L 78.475556 182.105717 
L 76.588262 183.271199 
L 75.389271 184.26529 
L 74.561176 185.234755 
L 74.074052 186.142549 
L 73.856795 186.999243 
L 73.851567 187.836982 
L 74.074087 188.89586 
L 74.504163 189.787743 
L 75.150178 190.594666 
L 76.069914 191.356717 
L 77.051648 191.934754 
L 78.745995 192.634728 
L 80.920112 193.224249 
L 83.193959 193.622548 
L 86.654651 193.965294 
L 91.809911 194.112073 
L 99.19371 193.873289 
L 103.858925 193.54832 
L 115.02911 192.425767 
L 128.497877 190.668462 
L 143.926646 188.3529 
L 169.824404 184.148543 
L 196.970565 179.730282 
L 214.605813 177.042796 
L 231.43566 174.74316 
L 247.125976 172.957006 
L 261.812115 171.692388 
L 275.628438 170.901314 
L 288.632481 170.542909 
L 300.88391 170.578281 
L 312.44017 170.970989 
L 323.35692 171.687095 
L 333.693967 172.695886 
L 343.508028 173.969801 
L 352.854793 175.484558 
L 361.788911 177.219166 
L 370.363959 179.15584 
L 378.632613 181.279832 
L 386.647747 183.579439 
L 394.476353 186.050227 
L 398.487273 187.399347 
L 398.487273 187.399347 
" style="fill:none;opacity:0.1;stroke:#000000;stroke-linecap:square;stroke-width:1.5;"/>
   </g>
   <g id="line2d_24">
    <path clip-path="url(#p1d14c9a820)" d="M 398.487273 187.399347 
L 388.420386 182.729319 
L 379.101758 178.854504 
L 370.112236 175.5413 
L 361.354977 172.722455 
L 352.733736 170.340799 
L 344.147802 168.34805 
L 335.497575 166.706079 
L 326.680457 165.384866 
L 317.58434 164.36058 
L 308.102714 163.615643 
L 298.121188 163.134303 
L 287.523354 162.90048 
L 276.193953 162.89448 
L 264.019583 163.089763 
L 243.941808 163.678531 
L 206.187491 165.087707 
L 182.738715 166.184084 
L 167.376767 167.063416 
L 152.564679 168.08102 
L 138.588972 169.24719 
L 125.73742 170.562279 
L 114.289186 172.010895 
L 104.492836 173.554209 
L 96.509055 175.126667 
L 90.336095 176.646411 
L 85.821658 178.026615 
L 82.621326 179.226441 
L 79.520107 180.685656 
L 77.708485 181.774569 
L 76.260901 182.882669 
L 75.225555 183.933442 
L 74.444269 185.071255 
L 74.014005 186.116443 
L 73.849028 187.010788 
L 73.876425 187.942425 
L 74.147313 188.784899 
L 74.599469 189.462842 
L 75.219385 190.046316 
L 76.202167 190.659734 
L 77.42228 191.172004 
L 79.072799 191.636823 
L 80.876393 191.970184 
L 83.729522 192.274324 
L 88.32824 192.423977 
L 91.51432 192.373128 
L 95.430829 192.194443 
L 100.096343 191.859856 
L 105.510272 191.35098 
L 118.486293 189.785655 
L 133.96106 187.541 
L 151.42243 184.755225 
L 208.893771 175.352801 
L 227.184367 172.683495 
L 244.164852 170.548389 
L 252.041571 169.719916 
L 259.543073 169.049431 
L 266.718318 168.524981 
L 273.587563 168.137859 
L 286.471104 167.743104 
L 298.348189 167.802629 
L 309.364849 168.261633 
L 319.663911 169.073746 
L 329.390927 170.202603 
L 338.685149 171.62157 
L 347.684191 173.313496 
L 356.526167 175.269819 
L 365.360121 177.490996 
L 374.332165 179.979909 
L 388.417956 184.22819 
L 398.487273 187.399347 
L 398.487273 187.399347 
" style="fill:none;opacity:0.1;stroke:#000000;stroke-linecap:square;stroke-width:1.5;"/>
   </g>
   <g id="patch_3">
    <path d="M 57.6 307.584 
L 57.6 41.472 
" style="fill:none;stroke:#000000;stroke-linecap:square;stroke-linejoin:miter;stroke-width:0.8;"/>
   </g>
   <g id="patch_4">
    <path d="M 414.72 307.584 
L 414.72 41.472 
" style="fill:none;stroke:#000000;stroke-linecap:square;stroke-linejoin:miter;stroke-width:0.8;"/>
   </g>
   <g id="patch_5">
    <path d="M 57.6 307.584 
L 414.72 307.584 
" style="fill:none;stroke:#000000;stroke-linecap:square;stroke-linejoin:miter;stroke-width:0.8;"/>
   </g>
   <g id="patch_6">
    <path d="M 57.6 41.472 
L 414.72 41.472 
" style="fill:none;stroke:#000000;stroke-linecap:square;stroke-linejoin:miter;stroke-width:0.8;"/>
   </g>
   <g id="text_15">
    <!-- CL/CD: 197.37+/-3.22  time: 159.34+/-0.49 min -->
    <defs>
     <path d="M 64.40625 67.28125 
L 64.40625 56.890625 
Q 59.421875 61.53125 53.78125 63.8125 
Q 48.140625 66.109375 41.796875 66.109375 
Q 29.296875 66.109375 22.65625 58.46875 
Q 16.015625 50.828125 16.015625 36.375 
Q 16.015625 21.96875 22.65625 14.328125 
Q 29.296875 6.6875 41.796875 6.6875 
Q 48.140625 6.6875 53.78125 8.984375 
Q 59.421875 11.28125 64.40625 15.921875 
L 64.40625 5.609375 
Q 59.234375 2.09375 53.4375 0.328125 
Q 47.65625 -1.421875 41.21875 -1.421875 
Q 24.65625 -1.421875 15.125 8.703125 
Q 5.609375 18.84375 5.609375 36.375 
Q 5.609375 53.953125 15.125 64.078125 
Q 24.65625 74.21875 41.21875 74.21875 
Q 47.75 74.21875 53.53125 72.484375 
Q 59.328125 70.75 64.40625 67.28125 
z
" id="DejaVuSans-43"/>
     <path d="M 9.8125 72.90625 
L 19.671875 72.90625 
L 19.671875 8.296875 
L 55.171875 8.296875 
L 55.171875 0 
L 9.8125 0 
z
" id="DejaVuSans-4c"/>
     <path d="M 25.390625 72.90625 
L 33.6875 72.90625 
L 8.296875 -9.28125 
L 0 -9.28125 
z
" id="DejaVuSans-2f"/>
     <path d="M 19.671875 64.796875 
L 19.671875 8.109375 
L 31.59375 8.109375 
Q 46.6875 8.109375 53.6875 14.9375 
Q 60.6875 21.78125 60.6875 36.53125 
Q 60.6875 51.171875 53.6875 57.984375 
Q 46.6875 64.796875 31.59375 64.796875 
z
M 9.8125 72.90625 
L 30.078125 72.90625 
Q 51.265625 72.90625 61.171875 64.09375 
Q 71.09375 55.28125 71.09375 36.53125 
Q 71.09375 17.671875 61.125 8.828125 
Q 51.171875 0 30.078125 0 
L 9.8125 0 
z
" id="DejaVuSans-44"/>
     <path d="M 11.71875 12.40625 
L 22.015625 12.40625 
L 22.015625 0 
L 11.71875 0 
z
M 11.71875 51.703125 
L 22.015625 51.703125 
L 22.015625 39.3125 
L 11.71875 39.3125 
z
" id="DejaVuSans-3a"/>
     <path id="DejaVuSans-20"/>
     <path d="M 10.984375 1.515625 
L 10.984375 10.5 
Q 14.703125 8.734375 18.5 7.8125 
Q 22.3125 6.890625 25.984375 6.890625 
Q 35.75 6.890625 40.890625 13.453125 
Q 46.046875 20.015625 46.78125 33.40625 
Q 43.953125 29.203125 39.59375 26.953125 
Q 35.25 24.703125 29.984375 24.703125 
Q 19.046875 24.703125 12.671875 31.3125 
Q 6.296875 37.9375 6.296875 49.421875 
Q 6.296875 60.640625 12.9375 67.421875 
Q 19.578125 74.21875 30.609375 74.21875 
Q 43.265625 74.21875 49.921875 64.515625 
Q 56.59375 54.828125 56.59375 36.375 
Q 56.59375 19.140625 48.40625 8.859375 
Q 40.234375 -1.421875 26.421875 -1.421875 
Q 22.703125 -1.421875 18.890625 -0.6875 
Q 15.09375 0.046875 10.984375 1.515625 
z
M 30.609375 32.421875 
Q 37.25 32.421875 41.125 36.953125 
Q 45.015625 41.5 45.015625 49.421875 
Q 45.015625 57.28125 41.125 61.84375 
Q 37.25 66.40625 30.609375 66.40625 
Q 23.96875 66.40625 20.09375 61.84375 
Q 16.21875 57.28125 16.21875 49.421875 
Q 16.21875 41.5 20.09375 36.953125 
Q 23.96875 32.421875 30.609375 32.421875 
z
" id="DejaVuSans-39"/>
     <path d="M 8.203125 72.90625 
L 55.078125 72.90625 
L 55.078125 68.703125 
L 28.609375 0 
L 18.3125 0 
L 43.21875 64.59375 
L 8.203125 64.59375 
z
" id="DejaVuSans-37"/>
     <path d="M 46 62.703125 
L 46 35.5 
L 73.1875 35.5 
L 73.1875 27.203125 
L 46 27.203125 
L 46 0 
L 37.796875 0 
L 37.796875 27.203125 
L 10.59375 27.203125 
L 10.59375 35.5 
L 37.796875 35.5 
L 37.796875 62.703125 
z
" id="DejaVuSans-2b"/>
     <path d="M 4.890625 31.390625 
L 31.203125 31.390625 
L 31.203125 23.390625 
L 4.890625 23.390625 
z
" id="DejaVuSans-2d"/>
     <path d="M 18.3125 70.21875 
L 18.3125 54.6875 
L 36.8125 54.6875 
L 36.8125 47.703125 
L 18.3125 47.703125 
L 18.3125 18.015625 
Q 18.3125 11.328125 20.140625 9.421875 
Q 21.96875 7.515625 27.59375 7.515625 
L 36.8125 7.515625 
L 36.8125 0 
L 27.59375 0 
Q 17.1875 0 13.234375 3.875 
Q 9.28125 7.765625 9.28125 18.015625 
L 9.28125 47.703125 
L 2.6875 47.703125 
L 2.6875 54.6875 
L 9.28125 54.6875 
L 9.28125 70.21875 
z
" id="DejaVuSans-74"/>
     <path d="M 9.421875 54.6875 
L 18.40625 54.6875 
L 18.40625 0 
L 9.421875 0 
z
M 9.421875 75.984375 
L 18.40625 75.984375 
L 18.40625 64.59375 
L 9.421875 64.59375 
z
" id="DejaVuSans-69"/>
     <path d="M 52 44.1875 
Q 55.375 50.25 60.0625 53.125 
Q 64.75 56 71.09375 56 
Q 79.640625 56 84.28125 50.015625 
Q 88.921875 44.046875 88.921875 33.015625 
L 88.921875 0 
L 79.890625 0 
L 79.890625 32.71875 
Q 79.890625 40.578125 77.09375 44.375 
Q 74.3125 48.1875 68.609375 48.1875 
Q 61.625 48.1875 57.5625 43.546875 
Q 53.515625 38.921875 53.515625 30.90625 
L 53.515625 0 
L 44.484375 0 
L 44.484375 32.71875 
Q 44.484375 40.625 41.703125 44.40625 
Q 38.921875 48.1875 33.109375 48.1875 
Q 26.21875 48.1875 22.15625 43.53125 
Q 18.109375 38.875 18.109375 30.90625 
L 18.109375 0 
L 9.078125 0 
L 9.078125 54.6875 
L 18.109375 54.6875 
L 18.109375 46.1875 
Q 21.1875 51.21875 25.484375 53.609375 
Q 29.78125 56 35.6875 56 
Q 41.65625 56 45.828125 52.96875 
Q 50 49.953125 52 44.1875 
z
" id="DejaVuSans-6d"/>
     <path d="M 56.203125 29.59375 
L 56.203125 25.203125 
L 14.890625 25.203125 
Q 15.484375 15.921875 20.484375 11.0625 
Q 25.484375 6.203125 34.421875 6.203125 
Q 39.59375 6.203125 44.453125 7.46875 
Q 49.3125 8.734375 54.109375 11.28125 
L 54.109375 2.78125 
Q 49.265625 0.734375 44.1875 -0.34375 
Q 39.109375 -1.421875 33.890625 -1.421875 
Q 20.796875 -1.421875 13.15625 6.1875 
Q 5.515625 13.8125 5.515625 26.8125 
Q 5.515625 40.234375 12.765625 48.109375 
Q 20.015625 56 32.328125 56 
Q 43.359375 56 49.78125 48.890625 
Q 56.203125 41.796875 56.203125 29.59375 
z
M 47.21875 32.234375 
Q 47.125 39.59375 43.09375 43.984375 
Q 39.0625 48.390625 32.421875 48.390625 
Q 24.90625 48.390625 20.390625 44.140625 
Q 15.875 39.890625 15.1875 32.171875 
z
" id="DejaVuSans-65"/>
     <path d="M 10.796875 72.90625 
L 49.515625 72.90625 
L 49.515625 64.59375 
L 19.828125 64.59375 
L 19.828125 46.734375 
Q 21.96875 47.46875 24.109375 47.828125 
Q 26.265625 48.1875 28.421875 48.1875 
Q 40.625 48.1875 47.75 41.5 
Q 54.890625 34.8125 54.890625 23.390625 
Q 54.890625 11.625 47.5625 5.09375 
Q 40.234375 -1.421875 26.90625 -1.421875 
Q 22.3125 -1.421875 17.546875 -0.640625 
Q 12.796875 0.140625 7.71875 1.703125 
L 7.71875 11.625 
Q 12.109375 9.234375 16.796875 8.0625 
Q 21.484375 6.890625 26.703125 6.890625 
Q 35.15625 6.890625 40.078125 11.328125 
Q 45.015625 15.765625 45.015625 23.390625 
Q 45.015625 31 40.078125 35.4375 
Q 35.15625 39.890625 26.703125 39.890625 
Q 22.75 39.890625 18.8125 39.015625 
Q 14.890625 38.140625 10.796875 36.28125 
z
" id="DejaVuSans-35"/>
     <path d="M 54.890625 33.015625 
L 54.890625 0 
L 45.90625 0 
L 45.90625 32.71875 
Q 45.90625 40.484375 42.875 44.328125 
Q 39.84375 48.1875 33.796875 48.1875 
Q 26.515625 48.1875 22.3125 43.546875 
Q 18.109375 38.921875 18.109375 30.90625 
L 18.109375 0 
L 9.078125 0 
L 9.078125 54.6875 
L 18.109375 54.6875 
L 18.109375 46.1875 
Q 21.34375 51.125 25.703125 53.5625 
Q 30.078125 56 35.796875 56 
Q 45.21875 56 50.046875 50.171875 
Q 54.890625 44.34375 54.890625 33.015625 
z
" id="DejaVuSans-6e"/>
    </defs>
    <g transform="translate(92.215313 35.472)scale(0.12 -0.12)">
     <use xlink:href="#DejaVuSans-43"/>
     <use x="69.824219" xlink:href="#DejaVuSans-4c"/>
     <use x="125.537109" xlink:href="#DejaVuSans-2f"/>
     <use x="159.228516" xlink:href="#DejaVuSans-43"/>
     <use x="229.052734" xlink:href="#DejaVuSans-44"/>
     <use x="306.054688" xlink:href="#DejaVuSans-3a"/>
     <use x="339.746094" xlink:href="#DejaVuSans-20"/>
     <use x="371.533203" xlink:href="#DejaVuSans-31"/>
     <use x="435.15625" xlink:href="#DejaVuSans-39"/>
     <use x="498.779297" xlink:href="#DejaVuSans-37"/>
     <use x="562.402344" xlink:href="#DejaVuSans-2e"/>
     <use x="594.189453" xlink:href="#DejaVuSans-33"/>
     <use x="657.8125" xlink:href="#DejaVuSans-37"/>
     <use x="721.435547" xlink:href="#DejaVuSans-2b"/>
     <use x="805.224609" xlink:href="#DejaVuSans-2f"/>
     <use x="838.916016" xlink:href="#DejaVuSans-2d"/>
     <use x="875" xlink:href="#DejaVuSans-33"/>
     <use x="938.623047" xlink:href="#DejaVuSans-2e"/>
     <use x="970.410156" xlink:href="#DejaVuSans-32"/>
     <use x="1034.033203" xlink:href="#DejaVuSans-32"/>
     <use x="1097.65625" xlink:href="#DejaVuSans-20"/>
     <use x="1129.443359" xlink:href="#DejaVuSans-20"/>
     <use x="1161.230469" xlink:href="#DejaVuSans-74"/>
     <use x="1200.439453" xlink:href="#DejaVuSans-69"/>
     <use x="1228.222656" xlink:href="#DejaVuSans-6d"/>
     <use x="1325.634766" xlink:href="#DejaVuSans-65"/>
     <use x="1387.158203" xlink:href="#DejaVuSans-3a"/>
     <use x="1420.849609" xlink:href="#DejaVuSans-20"/>
     <use x="1452.636719" xlink:href="#DejaVuSans-31"/>
     <use x="1516.259766" xlink:href="#DejaVuSans-35"/>
     <use x="1579.882812" xlink:href="#DejaVuSans-39"/>
     <use x="1643.505859" xlink:href="#DejaVuSans-2e"/>
     <use x="1675.292969" xlink:href="#DejaVuSans-33"/>
     <use x="1738.916016" xlink:href="#DejaVuSans-34"/>
     <use x="1802.539062" xlink:href="#DejaVuSans-2b"/>
     <use x="1886.328125" xlink:href="#DejaVuSans-2f"/>
     <use x="1920.019531" xlink:href="#DejaVuSans-2d"/>
     <use x="1956.103516" xlink:href="#DejaVuSans-30"/>
     <use x="2019.726562" xlink:href="#DejaVuSans-2e"/>
     <use x="2051.513672" xlink:href="#DejaVuSans-34"/>
     <use x="2115.136719" xlink:href="#DejaVuSans-39"/>
     <use x="2178.759766" xlink:href="#DejaVuSans-20"/>
     <use x="2210.546875" xlink:href="#DejaVuSans-6d"/>
     <use x="2307.958984" xlink:href="#DejaVuSans-69"/>
     <use x="2335.742188" xlink:href="#DejaVuSans-6e"/>
    </g>
   </g>
  </g>
 </g>
 <defs>
  <clipPath id="p1d14c9a820">
   <rect height="266.112" width="357.12" x="57.6" y="41.472"/>
  </clipPath>
 </defs>
</svg>
