<?xml version="1.0" encoding="utf-8" standalone="no"?>
<!DOCTYPE svg PUBLIC "-//W3C//DTD SVG 1.1//EN"
  "http://www.w3.org/Graphics/SVG/1.1/DTD/svg11.dtd">
<!-- Created with matplotlib (http://matplotlib.org/) -->
<svg height="345pt" version="1.1" viewBox="0 0 460 345" width="460pt" xmlns="http://www.w3.org/2000/svg" xmlns:xlink="http://www.w3.org/1999/xlink">
 <defs>
  <style type="text/css">
*{stroke-linecap:butt;stroke-linejoin:round;}
  </style>
 </defs>
 <g id="figure_1">
  <g id="patch_1">
   <path d="M 0 345.6 
L 460.8 345.6 
L 460.8 0 
L 0 0 
z
" style="fill:#ffffff;"/>
  </g>
  <g id="axes_1">
   <g id="patch_2">
    <path d="M 57.6 307.584 
L 414.72 307.584 
L 414.72 41.472 
L 57.6 41.472 
z
" style="fill:#ffffff;"/>
   </g>
   <g id="matplotlib.axis_1">
    <g id="xtick_1">
     <g id="line2d_1">
      <defs>
       <path d="M 0 0 
L 0 3.5 
" id="m3f58548190" style="stroke:#000000;stroke-width:0.8;"/>
      </defs>
      <g>
       <use style="stroke:#000000;stroke-width:0.8;" x="73.832727" xlink:href="#m3f58548190" y="307.584"/>
      </g>
     </g>
     <g id="text_1">
      <!-- 0.0 -->
      <defs>
       <path d="M 31.78125 66.40625 
Q 24.171875 66.40625 20.328125 58.90625 
Q 16.5 51.421875 16.5 36.375 
Q 16.5 21.390625 20.328125 13.890625 
Q 24.171875 6.390625 31.78125 6.390625 
Q 39.453125 6.390625 43.28125 13.890625 
Q 47.125 21.390625 47.125 36.375 
Q 47.125 51.421875 43.28125 58.90625 
Q 39.453125 66.40625 31.78125 66.40625 
z
M 31.78125 74.21875 
Q 44.046875 74.21875 50.515625 64.515625 
Q 56.984375 54.828125 56.984375 36.375 
Q 56.984375 17.96875 50.515625 8.265625 
Q 44.046875 -1.421875 31.78125 -1.421875 
Q 19.53125 -1.421875 13.0625 8.265625 
Q 6.59375 17.96875 6.59375 36.375 
Q 6.59375 54.828125 13.0625 64.515625 
Q 19.53125 74.21875 31.78125 74.21875 
z
" id="DejaVuSans-30"/>
       <path d="M 10.6875 12.40625 
L 21 12.40625 
L 21 0 
L 10.6875 0 
z
" id="DejaVuSans-2e"/>
      </defs>
      <g transform="translate(65.881165 322.182437)scale(0.1 -0.1)">
       <use xlink:href="#DejaVuSans-30"/>
       <use x="63.623047" xlink:href="#DejaVuSans-2e"/>
       <use x="95.410156" xlink:href="#DejaVuSans-30"/>
      </g>
     </g>
    </g>
    <g id="xtick_2">
     <g id="line2d_2">
      <g>
       <use style="stroke:#000000;stroke-width:0.8;" x="138.763636" xlink:href="#m3f58548190" y="307.584"/>
      </g>
     </g>
     <g id="text_2">
      <!-- 0.2 -->
      <defs>
       <path d="M 19.1875 8.296875 
L 53.609375 8.296875 
L 53.609375 0 
L 7.328125 0 
L 7.328125 8.296875 
Q 12.9375 14.109375 22.625 23.890625 
Q 32.328125 33.6875 34.8125 36.53125 
Q 39.546875 41.84375 41.421875 45.53125 
Q 43.3125 49.21875 43.3125 52.78125 
Q 43.3125 58.59375 39.234375 62.25 
Q 35.15625 65.921875 28.609375 65.921875 
Q 23.96875 65.921875 18.8125 64.3125 
Q 13.671875 62.703125 7.8125 59.421875 
L 7.8125 69.390625 
Q 13.765625 71.78125 18.9375 73 
Q 24.125 74.21875 28.421875 74.21875 
Q 39.75 74.21875 46.484375 68.546875 
Q 53.21875 62.890625 53.21875 53.421875 
Q 53.21875 48.921875 51.53125 44.890625 
Q 49.859375 40.875 45.40625 35.40625 
Q 44.1875 33.984375 37.640625 27.21875 
Q 31.109375 20.453125 19.1875 8.296875 
z
" id="DejaVuSans-32"/>
      </defs>
      <g transform="translate(130.812074 322.182437)scale(0.1 -0.1)">
       <use xlink:href="#DejaVuSans-30"/>
       <use x="63.623047" xlink:href="#DejaVuSans-2e"/>
       <use x="95.410156" xlink:href="#DejaVuSans-32"/>
      </g>
     </g>
    </g>
    <g id="xtick_3">
     <g id="line2d_3">
      <g>
       <use style="stroke:#000000;stroke-width:0.8;" x="203.694545" xlink:href="#m3f58548190" y="307.584"/>
      </g>
     </g>
     <g id="text_3">
      <!-- 0.4 -->
      <defs>
       <path d="M 37.796875 64.3125 
L 12.890625 25.390625 
L 37.796875 25.390625 
z
M 35.203125 72.90625 
L 47.609375 72.90625 
L 47.609375 25.390625 
L 58.015625 25.390625 
L 58.015625 17.1875 
L 47.609375 17.1875 
L 47.609375 0 
L 37.796875 0 
L 37.796875 17.1875 
L 4.890625 17.1875 
L 4.890625 26.703125 
z
" id="DejaVuSans-34"/>
      </defs>
      <g transform="translate(195.742983 322.182437)scale(0.1 -0.1)">
       <use xlink:href="#DejaVuSans-30"/>
       <use x="63.623047" xlink:href="#DejaVuSans-2e"/>
       <use x="95.410156" xlink:href="#DejaVuSans-34"/>
      </g>
     </g>
    </g>
    <g id="xtick_4">
     <g id="line2d_4">
      <g>
       <use style="stroke:#000000;stroke-width:0.8;" x="268.625455" xlink:href="#m3f58548190" y="307.584"/>
      </g>
     </g>
     <g id="text_4">
      <!-- 0.6 -->
      <defs>
       <path d="M 33.015625 40.375 
Q 26.375 40.375 22.484375 35.828125 
Q 18.609375 31.296875 18.609375 23.390625 
Q 18.609375 15.53125 22.484375 10.953125 
Q 26.375 6.390625 33.015625 6.390625 
Q 39.65625 6.390625 43.53125 10.953125 
Q 47.40625 15.53125 47.40625 23.390625 
Q 47.40625 31.296875 43.53125 35.828125 
Q 39.65625 40.375 33.015625 40.375 
z
M 52.59375 71.296875 
L 52.59375 62.3125 
Q 48.875 64.0625 45.09375 64.984375 
Q 41.3125 65.921875 37.59375 65.921875 
Q 27.828125 65.921875 22.671875 59.328125 
Q 17.53125 52.734375 16.796875 39.40625 
Q 19.671875 43.65625 24.015625 45.921875 
Q 28.375 48.1875 33.59375 48.1875 
Q 44.578125 48.1875 50.953125 41.515625 
Q 57.328125 34.859375 57.328125 23.390625 
Q 57.328125 12.15625 50.6875 5.359375 
Q 44.046875 -1.421875 33.015625 -1.421875 
Q 20.359375 -1.421875 13.671875 8.265625 
Q 6.984375 17.96875 6.984375 36.375 
Q 6.984375 53.65625 15.1875 63.9375 
Q 23.390625 74.21875 37.203125 74.21875 
Q 40.921875 74.21875 44.703125 73.484375 
Q 48.484375 72.75 52.59375 71.296875 
z
" id="DejaVuSans-36"/>
      </defs>
      <g transform="translate(260.673892 322.182437)scale(0.1 -0.1)">
       <use xlink:href="#DejaVuSans-30"/>
       <use x="63.623047" xlink:href="#DejaVuSans-2e"/>
       <use x="95.410156" xlink:href="#DejaVuSans-36"/>
      </g>
     </g>
    </g>
    <g id="xtick_5">
     <g id="line2d_5">
      <g>
       <use style="stroke:#000000;stroke-width:0.8;" x="333.556364" xlink:href="#m3f58548190" y="307.584"/>
      </g>
     </g>
     <g id="text_5">
      <!-- 0.8 -->
      <defs>
       <path d="M 31.78125 34.625 
Q 24.75 34.625 20.71875 30.859375 
Q 16.703125 27.09375 16.703125 20.515625 
Q 16.703125 13.921875 20.71875 10.15625 
Q 24.75 6.390625 31.78125 6.390625 
Q 38.8125 6.390625 42.859375 10.171875 
Q 46.921875 13.96875 46.921875 20.515625 
Q 46.921875 27.09375 42.890625 30.859375 
Q 38.875 34.625 31.78125 34.625 
z
M 21.921875 38.8125 
Q 15.578125 40.375 12.03125 44.71875 
Q 8.5 49.078125 8.5 55.328125 
Q 8.5 64.0625 14.71875 69.140625 
Q 20.953125 74.21875 31.78125 74.21875 
Q 42.671875 74.21875 48.875 69.140625 
Q 55.078125 64.0625 55.078125 55.328125 
Q 55.078125 49.078125 51.53125 44.71875 
Q 48 40.375 41.703125 38.8125 
Q 48.828125 37.15625 52.796875 32.3125 
Q 56.78125 27.484375 56.78125 20.515625 
Q 56.78125 9.90625 50.3125 4.234375 
Q 43.84375 -1.421875 31.78125 -1.421875 
Q 19.734375 -1.421875 13.25 4.234375 
Q 6.78125 9.90625 6.78125 20.515625 
Q 6.78125 27.484375 10.78125 32.3125 
Q 14.796875 37.15625 21.921875 38.8125 
z
M 18.3125 54.390625 
Q 18.3125 48.734375 21.84375 45.5625 
Q 25.390625 42.390625 31.78125 42.390625 
Q 38.140625 42.390625 41.71875 45.5625 
Q 45.3125 48.734375 45.3125 54.390625 
Q 45.3125 60.0625 41.71875 63.234375 
Q 38.140625 66.40625 31.78125 66.40625 
Q 25.390625 66.40625 21.84375 63.234375 
Q 18.3125 60.0625 18.3125 54.390625 
z
" id="DejaVuSans-38"/>
      </defs>
      <g transform="translate(325.604801 322.182437)scale(0.1 -0.1)">
       <use xlink:href="#DejaVuSans-30"/>
       <use x="63.623047" xlink:href="#DejaVuSans-2e"/>
       <use x="95.410156" xlink:href="#DejaVuSans-38"/>
      </g>
     </g>
    </g>
    <g id="xtick_6">
     <g id="line2d_6">
      <g>
       <use style="stroke:#000000;stroke-width:0.8;" x="398.487273" xlink:href="#m3f58548190" y="307.584"/>
      </g>
     </g>
     <g id="text_6">
      <!-- 1.0 -->
      <defs>
       <path d="M 12.40625 8.296875 
L 28.515625 8.296875 
L 28.515625 63.921875 
L 10.984375 60.40625 
L 10.984375 69.390625 
L 28.421875 72.90625 
L 38.28125 72.90625 
L 38.28125 8.296875 
L 54.390625 8.296875 
L 54.390625 0 
L 12.40625 0 
z
" id="DejaVuSans-31"/>
      </defs>
      <g transform="translate(390.53571 322.182437)scale(0.1 -0.1)">
       <use xlink:href="#DejaVuSans-31"/>
       <use x="63.623047" xlink:href="#DejaVuSans-2e"/>
       <use x="95.410156" xlink:href="#DejaVuSans-30"/>
      </g>
     </g>
    </g>
   </g>
   <g id="matplotlib.axis_2">
    <g id="ytick_1">
     <g id="line2d_7">
      <defs>
       <path d="M 0 0 
L -3.5 0 
" id="md8d98ad545" style="stroke:#000000;stroke-width:0.8;"/>
      </defs>
      <g>
       <use style="stroke:#000000;stroke-width:0.8;" x="57.6" xlink:href="#md8d98ad545" y="307.798858"/>
      </g>
     </g>
     <g id="text_7">
      <!-- −0.4 -->
      <defs>
       <path d="M 10.59375 35.5 
L 73.1875 35.5 
L 73.1875 27.203125 
L 10.59375 27.203125 
z
" id="DejaVuSans-2212"/>
      </defs>
      <g transform="translate(26.317187 311.598077)scale(0.1 -0.1)">
       <use xlink:href="#DejaVuSans-2212"/>
       <use x="83.789062" xlink:href="#DejaVuSans-30"/>
       <use x="147.412109" xlink:href="#DejaVuSans-2e"/>
       <use x="179.199219" xlink:href="#DejaVuSans-34"/>
      </g>
     </g>
    </g>
    <g id="ytick_2">
     <g id="line2d_8">
      <g>
       <use style="stroke:#000000;stroke-width:0.8;" x="57.6" xlink:href="#md8d98ad545" y="275.333404"/>
      </g>
     </g>
     <g id="text_8">
      <!-- −0.3 -->
      <defs>
       <path d="M 40.578125 39.3125 
Q 47.65625 37.796875 51.625 33 
Q 55.609375 28.21875 55.609375 21.1875 
Q 55.609375 10.40625 48.1875 4.484375 
Q 40.765625 -1.421875 27.09375 -1.421875 
Q 22.515625 -1.421875 17.65625 -0.515625 
Q 12.796875 0.390625 7.625 2.203125 
L 7.625 11.71875 
Q 11.71875 9.328125 16.59375 8.109375 
Q 21.484375 6.890625 26.8125 6.890625 
Q 36.078125 6.890625 40.9375 10.546875 
Q 45.796875 14.203125 45.796875 21.1875 
Q 45.796875 27.640625 41.28125 31.265625 
Q 36.765625 34.90625 28.71875 34.90625 
L 20.21875 34.90625 
L 20.21875 43.015625 
L 29.109375 43.015625 
Q 36.375 43.015625 40.234375 45.921875 
Q 44.09375 48.828125 44.09375 54.296875 
Q 44.09375 59.90625 40.109375 62.90625 
Q 36.140625 65.921875 28.71875 65.921875 
Q 24.65625 65.921875 20.015625 65.03125 
Q 15.375 64.15625 9.8125 62.3125 
L 9.8125 71.09375 
Q 15.4375 72.65625 20.34375 73.4375 
Q 25.25 74.21875 29.59375 74.21875 
Q 40.828125 74.21875 47.359375 69.109375 
Q 53.90625 64.015625 53.90625 55.328125 
Q 53.90625 49.265625 50.4375 45.09375 
Q 46.96875 40.921875 40.578125 39.3125 
z
" id="DejaVuSans-33"/>
      </defs>
      <g transform="translate(26.317187 279.132622)scale(0.1 -0.1)">
       <use xlink:href="#DejaVuSans-2212"/>
       <use x="83.789062" xlink:href="#DejaVuSans-30"/>
       <use x="147.412109" xlink:href="#DejaVuSans-2e"/>
       <use x="179.199219" xlink:href="#DejaVuSans-33"/>
      </g>
     </g>
    </g>
    <g id="ytick_3">
     <g id="line2d_9">
      <g>
       <use style="stroke:#000000;stroke-width:0.8;" x="57.6" xlink:href="#md8d98ad545" y="242.867949"/>
      </g>
     </g>
     <g id="text_9">
      <!-- −0.2 -->
      <g transform="translate(26.317187 246.667168)scale(0.1 -0.1)">
       <use xlink:href="#DejaVuSans-2212"/>
       <use x="83.789062" xlink:href="#DejaVuSans-30"/>
       <use x="147.412109" xlink:href="#DejaVuSans-2e"/>
       <use x="179.199219" xlink:href="#DejaVuSans-32"/>
      </g>
     </g>
    </g>
    <g id="ytick_4">
     <g id="line2d_10">
      <g>
       <use style="stroke:#000000;stroke-width:0.8;" x="57.6" xlink:href="#md8d98ad545" y="210.402495"/>
      </g>
     </g>
     <g id="text_10">
      <!-- −0.1 -->
      <g transform="translate(26.317187 214.201713)scale(0.1 -0.1)">
       <use xlink:href="#DejaVuSans-2212"/>
       <use x="83.789062" xlink:href="#DejaVuSans-30"/>
       <use x="147.412109" xlink:href="#DejaVuSans-2e"/>
       <use x="179.199219" xlink:href="#DejaVuSans-31"/>
      </g>
     </g>
    </g>
    <g id="ytick_5">
     <g id="line2d_11">
      <g>
       <use style="stroke:#000000;stroke-width:0.8;" x="57.6" xlink:href="#md8d98ad545" y="177.93704"/>
      </g>
     </g>
     <g id="text_11">
      <!-- 0.0 -->
      <g transform="translate(34.696875 181.736259)scale(0.1 -0.1)">
       <use xlink:href="#DejaVuSans-30"/>
       <use x="63.623047" xlink:href="#DejaVuSans-2e"/>
       <use x="95.410156" xlink:href="#DejaVuSans-30"/>
      </g>
     </g>
    </g>
    <g id="ytick_6">
     <g id="line2d_12">
      <g>
       <use style="stroke:#000000;stroke-width:0.8;" x="57.6" xlink:href="#md8d98ad545" y="145.471585"/>
      </g>
     </g>
     <g id="text_12">
      <!-- 0.1 -->
      <g transform="translate(34.696875 149.270804)scale(0.1 -0.1)">
       <use xlink:href="#DejaVuSans-30"/>
       <use x="63.623047" xlink:href="#DejaVuSans-2e"/>
       <use x="95.410156" xlink:href="#DejaVuSans-31"/>
      </g>
     </g>
    </g>
    <g id="ytick_7">
     <g id="line2d_13">
      <g>
       <use style="stroke:#000000;stroke-width:0.8;" x="57.6" xlink:href="#md8d98ad545" y="113.006131"/>
      </g>
     </g>
     <g id="text_13">
      <!-- 0.2 -->
      <g transform="translate(34.696875 116.80535)scale(0.1 -0.1)">
       <use xlink:href="#DejaVuSans-30"/>
       <use x="63.623047" xlink:href="#DejaVuSans-2e"/>
       <use x="95.410156" xlink:href="#DejaVuSans-32"/>
      </g>
     </g>
    </g>
    <g id="ytick_8">
     <g id="line2d_14">
      <g>
       <use style="stroke:#000000;stroke-width:0.8;" x="57.6" xlink:href="#md8d98ad545" y="80.540676"/>
      </g>
     </g>
     <g id="text_14">
      <!-- 0.3 -->
      <g transform="translate(34.696875 84.339895)scale(0.1 -0.1)">
       <use xlink:href="#DejaVuSans-30"/>
       <use x="63.623047" xlink:href="#DejaVuSans-2e"/>
       <use x="95.410156" xlink:href="#DejaVuSans-33"/>
      </g>
     </g>
    </g>
    <g id="ytick_9">
     <g id="line2d_15">
      <g>
       <use style="stroke:#000000;stroke-width:0.8;" x="57.6" xlink:href="#md8d98ad545" y="48.075222"/>
      </g>
     </g>
     <g id="text_15">
      <!-- 0.4 -->
      <g transform="translate(34.696875 51.874441)scale(0.1 -0.1)">
       <use xlink:href="#DejaVuSans-30"/>
       <use x="63.623047" xlink:href="#DejaVuSans-2e"/>
       <use x="95.410156" xlink:href="#DejaVuSans-34"/>
      </g>
     </g>
    </g>
   </g>
   <g id="line2d_16">
    <path clip-path="url(#p159f31cc2c)" d="M 398.487273 177.93704 
L 391.65244 176.944235 
L 381.400191 175.170349 
L 367.730526 172.511252 
L 343.808612 167.789544 
L 330.138947 165.344973 
L 319.886699 163.704571 
L 309.63445 162.247205 
L 299.382201 160.97491 
L 289.129952 159.880062 
L 275.460287 158.670445 
L 261.790622 157.704335 
L 244.703541 156.763836 
L 227.616459 156.042198 
L 207.111962 155.398123 
L 190.02488 155.056655 
L 176.355215 154.965528 
L 162.68555 155.116836 
L 152.433301 155.452935 
L 142.181053 156.042087 
L 135.34622 156.607979 
L 128.511388 157.338174 
L 121.676555 158.257545 
L 114.841722 159.394306 
L 108.00689 160.781915 
L 101.172057 162.46347 
L 94.337225 164.502778 
L 90.919809 165.689121 
L 87.502392 167.017201 
L 84.084976 168.530153 
L 80.66756 170.314505 
L 77.250144 172.60147 
L 73.832727 177.93704 
L 77.250144 183.002892 
L 80.66756 184.840159 
L 84.084976 186.098312 
L 87.502392 187.050517 
L 90.919809 187.808485 
L 97.754641 188.958274 
L 104.589474 189.8087 
L 114.841722 190.773992 
L 128.511388 191.750266 
L 142.181053 192.514972 
L 155.850718 193.096383 
L 169.520383 193.467805 
L 183.190048 193.588189 
L 193.442297 193.492352 
L 203.694545 193.227067 
L 213.946794 192.79086 
L 227.616459 191.954879 
L 241.286124 190.861334 
L 258.373206 189.218639 
L 316.469282 183.299788 
L 330.138947 182.239083 
L 343.808612 181.372787 
L 364.31311 180.327161 
L 381.400191 179.405521 
L 391.65244 178.631262 
L 398.487273 177.93704 
L 398.487273 177.93704 
" style="fill:none;opacity:0.1;stroke:#000000;stroke-linecap:square;stroke-width:1.5;"/>
   </g>
   <g id="line2d_17">
    <path clip-path="url(#p159f31cc2c)" d="M 398.487273 177.93704 
L 391.65244 176.87519 
L 381.400191 175.000876 
L 367.730526 172.222313 
L 347.226029 168.018545 
L 333.556364 165.458608 
L 323.304115 163.740587 
L 313.051866 162.217398 
L 302.799617 160.893099 
L 292.547368 159.760745 
L 278.877703 158.522754 
L 265.208038 157.549602 
L 251.538373 156.786024 
L 234.451292 156.048284 
L 213.946794 155.389443 
L 193.442297 154.954421 
L 176.355215 154.837775 
L 162.68555 155.006439 
L 152.433301 155.356781 
L 142.181053 155.963619 
L 135.34622 156.544214 
L 128.511388 157.291995 
L 121.676555 158.232095 
L 114.841722 159.392663 
L 108.00689 160.806591 
L 101.172057 162.515623 
L 94.337225 164.580871 
L 90.919809 165.778134 
L 87.502392 167.114452 
L 84.084976 168.63131 
L 80.66756 170.412387 
L 77.250144 172.6826 
L 73.832727 177.93704 
L 73.832727 177.93704 
L 77.250144 182.929082 
L 80.66756 184.762138 
L 84.084976 186.032155 
L 87.502392 187.004963 
L 90.919809 187.788793 
L 97.754641 188.998471 
L 104.589474 189.912393 
L 114.841722 190.969493 
L 128.511388 192.051417 
L 142.181053 192.89937 
L 155.850718 193.544704 
L 169.520383 193.966446 
L 183.190048 194.12942 
L 193.442297 194.063313 
L 203.694545 193.82732 
L 213.946794 193.420521 
L 227.616459 192.623541 
L 241.286124 191.566564 
L 258.373206 189.959814 
L 282.29512 187.420875 
L 306.217033 184.915419 
L 323.304115 183.343912 
L 340.391196 182.032185 
L 360.895694 180.748575 
L 381.400191 179.475109 
L 391.65244 178.644059 
L 398.487273 177.93704 
L 398.487273 177.93704 
" style="fill:none;opacity:0.1;stroke:#000000;stroke-linecap:square;stroke-width:1.5;"/>
   </g>
   <g id="line2d_18">
    <path clip-path="url(#p159f31cc2c)" d="M 398.487273 177.93704 
L 391.65244 176.830268 
L 381.400191 174.836903 
L 367.730526 171.85309 
L 347.226029 167.352869 
L 336.97378 165.295197 
L 326.721531 163.439753 
L 316.469282 161.812746 
L 306.217033 160.421882 
L 295.964785 159.260211 
L 285.712536 158.309769 
L 275.460287 157.54501 
L 261.790622 156.762203 
L 244.703541 156.061369 
L 224.199043 155.465769 
L 196.859713 154.907541 
L 179.772632 154.73786 
L 166.102967 154.805647 
L 155.850718 155.049539 
L 145.598469 155.528229 
L 138.763636 156.013995 
L 131.928804 156.661365 
L 125.093971 157.496873 
L 118.259139 158.549361 
L 111.424306 159.850861 
L 104.589474 161.438869 
L 97.754641 163.362268 
L 94.337225 164.471723 
L 90.919809 165.69808 
L 87.502392 167.064346 
L 84.084976 168.61032 
L 80.66756 170.416925 
L 77.250144 172.703747 
L 73.832727 177.93704 
L 73.832727 177.93704 
L 77.250144 182.911068 
L 80.66756 184.766658 
L 84.084976 186.070066 
L 87.502392 187.08143 
L 90.919809 187.90596 
L 97.754641 189.196406 
L 104.589474 190.183347 
L 114.841722 191.326195 
L 125.093971 192.215703 
L 138.763636 193.137165 
L 152.433301 193.809253 
L 166.102967 194.234362 
L 179.772632 194.394046 
L 193.442297 194.269661 
L 207.111962 193.853139 
L 220.781627 193.152253 
L 234.451292 192.19235 
L 248.120957 191.015575 
L 265.208038 189.326334 
L 316.469282 184.067185 
L 333.556364 182.628402 
L 350.643445 181.418116 
L 388.235024 178.913701 
L 398.487273 177.93704 
L 398.487273 177.93704 
" style="fill:none;opacity:0.1;stroke:#000000;stroke-linecap:square;stroke-width:1.5;"/>
   </g>
   <g id="line2d_19">
    <path clip-path="url(#p159f31cc2c)" d="M 398.487273 177.93704 
L 391.65244 177.01792 
L 384.817608 175.846243 
L 374.565359 173.770775 
L 357.478278 169.937571 
L 343.808612 166.913595 
L 333.556364 164.820125 
L 323.304115 162.940137 
L 313.051866 161.303643 
L 302.799617 159.91998 
L 292.547368 158.78201 
L 282.29512 157.870099 
L 272.042871 157.155876 
L 258.373206 156.452705 
L 241.286124 155.856787 
L 217.364211 155.298802 
L 183.190048 154.737154 
L 166.102967 154.672218 
L 155.850718 154.805394 
L 145.598469 155.145101 
L 135.34622 155.771303 
L 128.511388 156.394072 
L 121.676555 157.218117 
L 114.841722 158.279881 
L 108.00689 159.622157 
L 101.172057 161.29893 
L 97.754641 162.285373 
L 94.337225 163.387655 
L 90.919809 164.624831 
L 87.502392 166.02581 
L 84.084976 167.639528 
L 80.66756 169.563227 
L 77.250144 172.054947 
L 73.832727 177.93704 
L 73.832727 177.93704 
L 77.250144 183.574358 
L 80.66756 185.657855 
L 84.084976 187.103522 
L 87.502392 188.207133 
L 90.919809 189.088403 
L 94.337225 189.811091 
L 101.172057 190.923958 
L 108.00689 191.731463 
L 114.841722 192.330388 
L 125.093971 192.954306 
L 135.34622 193.337095 
L 145.598469 193.531328 
L 159.268134 193.539089 
L 172.937799 193.282578 
L 186.607464 192.774774 
L 200.277129 192.030081 
L 213.946794 191.07201 
L 231.033876 189.629994 
L 254.955789 187.334248 
L 285.712536 184.400568 
L 302.799617 183.015248 
L 316.469282 182.107652 
L 330.138947 181.392065 
L 347.226029 180.724927 
L 374.565359 179.751485 
L 384.817608 179.17746 
L 391.65244 178.643122 
L 398.487273 177.93704 
L 398.487273 177.93704 
" style="fill:none;opacity:0.1;stroke:#000000;stroke-linecap:square;stroke-width:1.5;"/>
   </g>
   <g id="line2d_20">
    <path clip-path="url(#p159f31cc2c)" d="M 398.487273 177.93704 
L 388.235024 176.544105 
L 377.982775 174.882588 
L 364.31311 172.42501 
L 330.138947 166.146997 
L 316.469282 163.88369 
L 302.799617 161.859601 
L 289.129952 160.101612 
L 275.460287 158.616812 
L 261.790622 157.39818 
L 248.120957 156.429923 
L 234.451292 155.692459 
L 220.781627 155.167041 
L 207.111962 154.840049 
L 193.442297 154.706998 
L 179.772632 154.776364 
L 166.102967 155.073475 
L 155.850718 155.472871 
L 145.598469 156.055533 
L 135.34622 156.86191 
L 125.093971 157.947507 
L 118.259139 158.863816 
L 111.424306 159.970608 
L 104.589474 161.312709 
L 97.754641 162.957767 
L 94.337225 163.926786 
L 90.919809 165.02147 
L 87.502392 166.276119 
L 84.084976 167.747849 
L 80.66756 169.547132 
L 77.250144 171.957381 
L 73.832727 177.93704 
L 73.832727 177.93704 
L 77.250144 183.725128 
L 80.66756 185.814334 
L 84.084976 187.235447 
L 87.502392 188.300872 
L 90.919809 189.138295 
L 94.337225 189.81618 
L 101.172057 190.847581 
L 108.00689 191.594425 
L 118.259139 192.391098 
L 128.511388 192.941332 
L 142.181053 193.409461 
L 155.850718 193.614362 
L 169.520383 193.548087 
L 179.772632 193.306985 
L 190.02488 192.894019 
L 200.277129 192.308277 
L 213.946794 191.270876 
L 227.616459 189.976265 
L 244.703541 188.092398 
L 285.712536 183.364654 
L 299.382201 182.064931 
L 313.051866 181.038758 
L 323.304115 180.473125 
L 336.97378 179.987477 
L 350.643445 179.750191 
L 377.982775 179.367595 
L 384.817608 179.087242 
L 391.65244 178.632333 
L 398.487273 177.93704 
L 398.487273 177.93704 
" style="fill:none;opacity:0.1;stroke:#000000;stroke-linecap:square;stroke-width:1.5;"/>
   </g>
   <g id="line2d_21">
    <path clip-path="url(#p159f31cc2c)" d="M 398.487273 177.93704 
L 367.730526 173.06413 
L 336.97378 168.252341 
L 316.469282 165.267449 
L 299.382201 162.98885 
L 282.29512 160.940768 
L 265.208038 159.153933 
L 251.538373 157.929894 
L 237.868708 156.901135 
L 224.199043 156.078898 
L 210.529378 155.475037 
L 196.859713 155.103309 
L 183.190048 154.981095 
L 169.520383 155.131876 
L 159.268134 155.443672 
L 149.015885 155.947151 
L 138.763636 156.669506 
L 128.511388 157.649656 
L 121.676555 158.473964 
L 114.841722 159.46311 
L 108.00689 160.652708 
L 101.172057 162.096653 
L 94.337225 163.884031 
L 90.919809 164.953729 
L 87.502392 166.184804 
L 84.084976 167.63729 
L 80.66756 169.426752 
L 77.250144 171.847531 
L 73.832727 177.93704 
L 77.250144 183.873592 
L 80.66756 186.03594 
L 84.084976 187.518143 
L 87.502392 188.637181 
L 90.919809 189.522135 
L 94.337225 190.242043 
L 101.172057 191.342111 
L 108.00689 192.138479 
L 114.841722 192.734752 
L 125.093971 193.37521 
L 135.34622 193.797165 
L 149.015885 194.093066 
L 162.68555 194.109712 
L 176.355215 193.844857 
L 190.02488 193.291948 
L 203.694545 192.455565 
L 217.364211 191.358756 
L 231.033876 190.045277 
L 251.538373 187.811259 
L 282.29512 184.421059 
L 295.964785 183.121584 
L 309.63445 182.050641 
L 323.304115 181.24545 
L 336.97378 180.70099 
L 354.060861 180.286485 
L 374.565359 179.778356 
L 384.817608 179.263042 
L 391.65244 178.716112 
L 398.487273 177.93704 
L 398.487273 177.93704 
" style="fill:none;opacity:0.1;stroke:#000000;stroke-linecap:square;stroke-width:1.5;"/>
   </g>
   <g id="line2d_22">
    <path clip-path="url(#p159f31cc2c)" d="M 398.487273 177.93704 
L 388.235024 176.361395 
L 374.565359 174.026094 
L 333.556364 166.833968 
L 319.886699 164.695994 
L 306.217033 162.774847 
L 292.547368 161.089693 
L 278.877703 159.644515 
L 265.208038 158.432666 
L 251.538373 157.441163 
L 237.868708 156.654688 
L 224.199043 156.059326 
L 210.529378 155.646057 
L 196.859713 155.414035 
L 183.190048 155.373766 
L 169.520383 155.550389 
L 155.850718 155.987501 
L 145.598469 156.525734 
L 135.34622 157.287819 
L 125.093971 158.328216 
L 118.259139 159.213097 
L 111.424306 160.2867 
L 104.589474 161.593086 
L 97.754641 163.198967 
L 94.337225 164.146718 
L 90.919809 165.218726 
L 87.502392 166.448958 
L 84.084976 167.893971 
L 80.66756 169.663112 
L 77.250144 172.036701 
L 73.832727 177.93704 
L 73.832727 177.93704 
L 77.250144 183.633822 
L 80.66756 185.666381 
L 84.084976 187.034144 
L 87.502392 188.048553 
L 90.919809 188.837611 
L 94.337225 189.470314 
L 101.172057 190.423039 
L 108.00689 191.109819 
L 118.259139 191.85713 
L 131.928804 192.568216 
L 149.015885 193.188521 
L 162.68555 193.489494 
L 176.355215 193.582121 
L 190.02488 193.426012 
L 203.694545 192.992194 
L 217.364211 192.272265 
L 231.033876 191.282127 
L 244.703541 190.0619 
L 261.790622 188.308111 
L 302.799617 183.969494 
L 316.469282 182.76462 
L 330.138947 181.773062 
L 343.808612 180.999121 
L 364.31311 180.118736 
L 381.400191 179.328507 
L 391.65244 178.610839 
L 398.487273 177.93704 
L 398.487273 177.93704 
" style="fill:none;opacity:0.1;stroke:#000000;stroke-linecap:square;stroke-width:1.5;"/>
   </g>
   <g id="line2d_23">
    <path clip-path="url(#p159f31cc2c)" d="M 398.487273 177.93704 
L 388.235024 176.435531 
L 374.565359 174.206568 
L 319.886699 164.974056 
L 306.217033 162.967702 
L 292.547368 161.165007 
L 278.877703 159.581994 
L 265.208038 158.225128 
L 251.538373 157.09425 
L 237.868708 156.185406 
L 224.199043 155.493598 
L 210.529378 155.015486 
L 196.859713 154.752146 
L 183.190048 154.711991 
L 169.520383 154.914163 
L 155.850718 155.392914 
L 145.598469 155.966047 
L 135.34622 156.760626 
L 125.093971 157.826916 
L 118.259139 158.72423 
L 111.424306 159.806685 
L 104.589474 161.120077 
L 97.754641 162.735146 
L 94.337225 163.690631 
L 90.919809 164.774552 
L 87.502392 166.023394 
L 84.084976 167.497737 
L 80.66756 169.31416 
L 77.250144 171.769817 
L 73.832727 177.93704 
L 77.250144 183.891922 
L 80.66756 185.992937 
L 84.084976 187.393342 
L 87.502392 188.422842 
L 90.919809 189.217388 
L 94.337225 189.850327 
L 101.172057 190.797235 
L 108.00689 191.477667 
L 118.259139 192.220947 
L 131.928804 192.930228 
L 145.598469 193.425472 
L 159.268134 193.700761 
L 169.520383 193.731523 
L 179.772632 193.584575 
L 190.02488 193.240991 
L 200.277129 192.690707 
L 210.529378 191.93442 
L 220.781627 190.984332 
L 234.451292 189.458301 
L 251.538373 187.257356 
L 282.29512 183.162746 
L 295.964785 181.599296 
L 306.217033 180.631259 
L 316.469282 179.87658 
L 326.721531 179.352648 
L 336.97378 179.056207 
L 347.226029 178.95828 
L 367.730526 179.081128 
L 377.982775 179.065964 
L 384.817608 178.911143 
L 391.65244 178.561715 
L 398.487273 177.93704 
L 398.487273 177.93704 
" style="fill:none;opacity:0.1;stroke:#000000;stroke-linecap:square;stroke-width:1.5;"/>
   </g>
   <g id="line2d_24">
    <path clip-path="url(#p159f31cc2c)" d="M 398.487273 177.93704 
L 391.65244 176.853887 
L 384.817608 175.518582 
L 374.565359 173.214684 
L 343.808612 165.937204 
L 333.556364 163.814152 
L 323.304115 161.958935 
L 313.051866 160.395712 
L 302.799617 159.125608 
L 292.547368 158.131686 
L 282.29512 157.383655 
L 272.042871 156.842293 
L 258.373206 156.365671 
L 241.286124 156.016671 
L 172.937799 155.076679 
L 159.268134 155.111167 
L 149.015885 155.352248 
L 138.763636 155.87228 
L 131.928804 156.422305 
L 125.093971 157.172259 
L 118.259139 158.156767 
L 111.424306 159.413496 
L 104.589474 160.985154 
L 97.754641 162.925079 
L 94.337225 164.056232 
L 90.919809 165.313691 
L 87.502392 166.720747 
L 84.084976 168.317588 
L 80.66756 170.186102 
L 77.250144 172.549657 
L 73.832727 177.93704 
L 73.832727 177.93704 
L 77.250144 183.01455 
L 80.66756 184.865299 
L 84.084976 186.13899 
L 87.502392 187.1081 
L 90.919809 187.883847 
L 97.754641 189.070382 
L 104.589474 189.9574 
L 114.841722 190.97409 
L 128.511388 192.007526 
L 142.181053 192.812711 
L 155.850718 193.416677 
L 169.520383 193.793697 
L 183.190048 193.905341 
L 193.442297 193.795804 
L 203.694545 193.512803 
L 213.946794 193.056932 
L 227.616459 192.195349 
L 241.286124 191.081314 
L 258.373206 189.426531 
L 309.63445 184.196954 
L 323.304115 183.083741 
L 336.97378 182.161632 
L 357.478278 181.054859 
L 377.982775 179.917585 
L 388.235024 179.103948 
L 395.069856 178.376172 
L 398.487273 177.93704 
L 398.487273 177.93704 
" style="fill:none;opacity:0.1;stroke:#000000;stroke-linecap:square;stroke-width:1.5;"/>
   </g>
   <g id="line2d_25">
    <path clip-path="url(#p159f31cc2c)" d="M 398.487273 177.93704 
L 388.235024 176.222148 
L 374.565359 173.586772 
L 343.808612 167.489457 
L 330.138947 165.085696 
L 319.886699 163.48148 
L 309.63445 162.060374 
L 299.382201 160.821693 
L 285.712536 159.437107 
L 272.042871 158.32253 
L 258.373206 157.431392 
L 241.286124 156.560629 
L 220.781627 155.77885 
L 200.277129 155.238223 
L 183.190048 155.013762 
L 169.520383 155.056571 
L 159.268134 155.274727 
L 149.015885 155.705653 
L 138.763636 156.407524 
L 131.928804 157.059114 
L 125.093971 157.884019 
L 118.259139 158.907986 
L 111.424306 160.160943 
L 104.589474 161.679943 
L 97.754641 163.516139 
L 90.919809 165.753467 
L 87.502392 167.070651 
L 84.084976 168.571931 
L 80.66756 170.344075 
L 77.250144 172.618504 
L 73.832727 177.93704 
L 73.832727 177.93704 
L 77.250144 182.982473 
L 80.66756 184.801603 
L 84.084976 186.041066 
L 87.502392 186.974795 
L 90.919809 187.715093 
L 97.754641 188.833531 
L 104.589474 189.659506 
L 114.841722 190.602842 
L 128.511388 191.576943 
L 145.598469 192.53806 
L 159.268134 193.116644 
L 172.937799 193.483637 
L 186.607464 193.590692 
L 196.859713 193.477425 
L 207.111962 193.188594 
L 217.364211 192.723901 
L 231.033876 191.845457 
L 244.703541 190.709386 
L 261.790622 189.022597 
L 313.051866 183.71921 
L 326.721531 182.603834 
L 340.391196 181.688737 
L 357.478278 180.772085 
L 377.982775 179.705899 
L 388.235024 178.977407 
L 395.069856 178.329006 
L 398.487273 177.93704 
L 398.487273 177.93704 
" style="fill:none;opacity:0.1;stroke:#000000;stroke-linecap:square;stroke-width:1.5;"/>
   </g>
   <g id="patch_3">
    <path d="M 57.6 307.584 
L 57.6 41.472 
" style="fill:none;stroke:#000000;stroke-linecap:square;stroke-linejoin:miter;stroke-width:0.8;"/>
   </g>
   <g id="patch_4">
    <path d="M 414.72 307.584 
L 414.72 41.472 
" style="fill:none;stroke:#000000;stroke-linecap:square;stroke-linejoin:miter;stroke-width:0.8;"/>
   </g>
   <g id="patch_5">
    <path d="M 57.6 307.584 
L 414.72 307.584 
" style="fill:none;stroke:#000000;stroke-linecap:square;stroke-linejoin:miter;stroke-width:0.8;"/>
   </g>
   <g id="patch_6">
    <path d="M 57.6 41.472 
L 414.72 41.472 
" style="fill:none;stroke:#000000;stroke-linecap:square;stroke-linejoin:miter;stroke-width:0.8;"/>
   </g>
   <g id="text_16">
    <!-- CL/CD: 37.26+/-4.07  time: 191.90+/-27.25 min -->
    <defs>
     <path d="M 64.40625 67.28125 
L 64.40625 56.890625 
Q 59.421875 61.53125 53.78125 63.8125 
Q 48.140625 66.109375 41.796875 66.109375 
Q 29.296875 66.109375 22.65625 58.46875 
Q 16.015625 50.828125 16.015625 36.375 
Q 16.015625 21.96875 22.65625 14.328125 
Q 29.296875 6.6875 41.796875 6.6875 
Q 48.140625 6.6875 53.78125 8.984375 
Q 59.421875 11.28125 64.40625 15.921875 
L 64.40625 5.609375 
Q 59.234375 2.09375 53.4375 0.328125 
Q 47.65625 -1.421875 41.21875 -1.421875 
Q 24.65625 -1.421875 15.125 8.703125 
Q 5.609375 18.84375 5.609375 36.375 
Q 5.609375 53.953125 15.125 64.078125 
Q 24.65625 74.21875 41.21875 74.21875 
Q 47.75 74.21875 53.53125 72.484375 
Q 59.328125 70.75 64.40625 67.28125 
z
" id="DejaVuSans-43"/>
     <path d="M 9.8125 72.90625 
L 19.671875 72.90625 
L 19.671875 8.296875 
L 55.171875 8.296875 
L 55.171875 0 
L 9.8125 0 
z
" id="DejaVuSans-4c"/>
     <path d="M 25.390625 72.90625 
L 33.6875 72.90625 
L 8.296875 -9.28125 
L 0 -9.28125 
z
" id="DejaVuSans-2f"/>
     <path d="M 19.671875 64.796875 
L 19.671875 8.109375 
L 31.59375 8.109375 
Q 46.6875 8.109375 53.6875 14.9375 
Q 60.6875 21.78125 60.6875 36.53125 
Q 60.6875 51.171875 53.6875 57.984375 
Q 46.6875 64.796875 31.59375 64.796875 
z
M 9.8125 72.90625 
L 30.078125 72.90625 
Q 51.265625 72.90625 61.171875 64.09375 
Q 71.09375 55.28125 71.09375 36.53125 
Q 71.09375 17.671875 61.125 8.828125 
Q 51.171875 0 30.078125 0 
L 9.8125 0 
z
" id="DejaVuSans-44"/>
     <path d="M 11.71875 12.40625 
L 22.015625 12.40625 
L 22.015625 0 
L 11.71875 0 
z
M 11.71875 51.703125 
L 22.015625 51.703125 
L 22.015625 39.3125 
L 11.71875 39.3125 
z
" id="DejaVuSans-3a"/>
     <path id="DejaVuSans-20"/>
     <path d="M 8.203125 72.90625 
L 55.078125 72.90625 
L 55.078125 68.703125 
L 28.609375 0 
L 18.3125 0 
L 43.21875 64.59375 
L 8.203125 64.59375 
z
" id="DejaVuSans-37"/>
     <path d="M 46 62.703125 
L 46 35.5 
L 73.1875 35.5 
L 73.1875 27.203125 
L 46 27.203125 
L 46 0 
L 37.796875 0 
L 37.796875 27.203125 
L 10.59375 27.203125 
L 10.59375 35.5 
L 37.796875 35.5 
L 37.796875 62.703125 
z
" id="DejaVuSans-2b"/>
     <path d="M 4.890625 31.390625 
L 31.203125 31.390625 
L 31.203125 23.390625 
L 4.890625 23.390625 
z
" id="DejaVuSans-2d"/>
     <path d="M 18.3125 70.21875 
L 18.3125 54.6875 
L 36.8125 54.6875 
L 36.8125 47.703125 
L 18.3125 47.703125 
L 18.3125 18.015625 
Q 18.3125 11.328125 20.140625 9.421875 
Q 21.96875 7.515625 27.59375 7.515625 
L 36.8125 7.515625 
L 36.8125 0 
L 27.59375 0 
Q 17.1875 0 13.234375 3.875 
Q 9.28125 7.765625 9.28125 18.015625 
L 9.28125 47.703125 
L 2.6875 47.703125 
L 2.6875 54.6875 
L 9.28125 54.6875 
L 9.28125 70.21875 
z
" id="DejaVuSans-74"/>
     <path d="M 9.421875 54.6875 
L 18.40625 54.6875 
L 18.40625 0 
L 9.421875 0 
z
M 9.421875 75.984375 
L 18.40625 75.984375 
L 18.40625 64.59375 
L 9.421875 64.59375 
z
" id="DejaVuSans-69"/>
     <path d="M 52 44.1875 
Q 55.375 50.25 60.0625 53.125 
Q 64.75 56 71.09375 56 
Q 79.640625 56 84.28125 50.015625 
Q 88.921875 44.046875 88.921875 33.015625 
L 88.921875 0 
L 79.890625 0 
L 79.890625 32.71875 
Q 79.890625 40.578125 77.09375 44.375 
Q 74.3125 48.1875 68.609375 48.1875 
Q 61.625 48.1875 57.5625 43.546875 
Q 53.515625 38.921875 53.515625 30.90625 
L 53.515625 0 
L 44.484375 0 
L 44.484375 32.71875 
Q 44.484375 40.625 41.703125 44.40625 
Q 38.921875 48.1875 33.109375 48.1875 
Q 26.21875 48.1875 22.15625 43.53125 
Q 18.109375 38.875 18.109375 30.90625 
L 18.109375 0 
L 9.078125 0 
L 9.078125 54.6875 
L 18.109375 54.6875 
L 18.109375 46.1875 
Q 21.1875 51.21875 25.484375 53.609375 
Q 29.78125 56 35.6875 56 
Q 41.65625 56 45.828125 52.96875 
Q 50 49.953125 52 44.1875 
z
" id="DejaVuSans-6d"/>
     <path d="M 56.203125 29.59375 
L 56.203125 25.203125 
L 14.890625 25.203125 
Q 15.484375 15.921875 20.484375 11.0625 
Q 25.484375 6.203125 34.421875 6.203125 
Q 39.59375 6.203125 44.453125 7.46875 
Q 49.3125 8.734375 54.109375 11.28125 
L 54.109375 2.78125 
Q 49.265625 0.734375 44.1875 -0.34375 
Q 39.109375 -1.421875 33.890625 -1.421875 
Q 20.796875 -1.421875 13.15625 6.1875 
Q 5.515625 13.8125 5.515625 26.8125 
Q 5.515625 40.234375 12.765625 48.109375 
Q 20.015625 56 32.328125 56 
Q 43.359375 56 49.78125 48.890625 
Q 56.203125 41.796875 56.203125 29.59375 
z
M 47.21875 32.234375 
Q 47.125 39.59375 43.09375 43.984375 
Q 39.0625 48.390625 32.421875 48.390625 
Q 24.90625 48.390625 20.390625 44.140625 
Q 15.875 39.890625 15.1875 32.171875 
z
" id="DejaVuSans-65"/>
     <path d="M 10.984375 1.515625 
L 10.984375 10.5 
Q 14.703125 8.734375 18.5 7.8125 
Q 22.3125 6.890625 25.984375 6.890625 
Q 35.75 6.890625 40.890625 13.453125 
Q 46.046875 20.015625 46.78125 33.40625 
Q 43.953125 29.203125 39.59375 26.953125 
Q 35.25 24.703125 29.984375 24.703125 
Q 19.046875 24.703125 12.671875 31.3125 
Q 6.296875 37.9375 6.296875 49.421875 
Q 6.296875 60.640625 12.9375 67.421875 
Q 19.578125 74.21875 30.609375 74.21875 
Q 43.265625 74.21875 49.921875 64.515625 
Q 56.59375 54.828125 56.59375 36.375 
Q 56.59375 19.140625 48.40625 8.859375 
Q 40.234375 -1.421875 26.421875 -1.421875 
Q 22.703125 -1.421875 18.890625 -0.6875 
Q 15.09375 0.046875 10.984375 1.515625 
z
M 30.609375 32.421875 
Q 37.25 32.421875 41.125 36.953125 
Q 45.015625 41.5 45.015625 49.421875 
Q 45.015625 57.28125 41.125 61.84375 
Q 37.25 66.40625 30.609375 66.40625 
Q 23.96875 66.40625 20.09375 61.84375 
Q 16.21875 57.28125 16.21875 49.421875 
Q 16.21875 41.5 20.09375 36.953125 
Q 23.96875 32.421875 30.609375 32.421875 
z
" id="DejaVuSans-39"/>
     <path d="M 10.796875 72.90625 
L 49.515625 72.90625 
L 49.515625 64.59375 
L 19.828125 64.59375 
L 19.828125 46.734375 
Q 21.96875 47.46875 24.109375 47.828125 
Q 26.265625 48.1875 28.421875 48.1875 
Q 40.625 48.1875 47.75 41.5 
Q 54.890625 34.8125 54.890625 23.390625 
Q 54.890625 11.625 47.5625 5.09375 
Q 40.234375 -1.421875 26.90625 -1.421875 
Q 22.3125 -1.421875 17.546875 -0.640625 
Q 12.796875 0.140625 7.71875 1.703125 
L 7.71875 11.625 
Q 12.109375 9.234375 16.796875 8.0625 
Q 21.484375 6.890625 26.703125 6.890625 
Q 35.15625 6.890625 40.078125 11.328125 
Q 45.015625 15.765625 45.015625 23.390625 
Q 45.015625 31 40.078125 35.4375 
Q 35.15625 39.890625 26.703125 39.890625 
Q 22.75 39.890625 18.8125 39.015625 
Q 14.890625 38.140625 10.796875 36.28125 
z
" id="DejaVuSans-35"/>
     <path d="M 54.890625 33.015625 
L 54.890625 0 
L 45.90625 0 
L 45.90625 32.71875 
Q 45.90625 40.484375 42.875 44.328125 
Q 39.84375 48.1875 33.796875 48.1875 
Q 26.515625 48.1875 22.3125 43.546875 
Q 18.109375 38.921875 18.109375 30.90625 
L 18.109375 0 
L 9.078125 0 
L 9.078125 54.6875 
L 18.109375 54.6875 
L 18.109375 46.1875 
Q 21.34375 51.125 25.703125 53.5625 
Q 30.078125 56 35.796875 56 
Q 45.21875 56 50.046875 50.171875 
Q 54.890625 44.34375 54.890625 33.015625 
z
" id="DejaVuSans-6e"/>
    </defs>
    <g transform="translate(92.215313 35.472)scale(0.12 -0.12)">
     <use xlink:href="#DejaVuSans-43"/>
     <use x="69.824219" xlink:href="#DejaVuSans-4c"/>
     <use x="125.537109" xlink:href="#DejaVuSans-2f"/>
     <use x="159.228516" xlink:href="#DejaVuSans-43"/>
     <use x="229.052734" xlink:href="#DejaVuSans-44"/>
     <use x="306.054688" xlink:href="#DejaVuSans-3a"/>
     <use x="339.746094" xlink:href="#DejaVuSans-20"/>
     <use x="371.533203" xlink:href="#DejaVuSans-33"/>
     <use x="435.15625" xlink:href="#DejaVuSans-37"/>
     <use x="498.779297" xlink:href="#DejaVuSans-2e"/>
     <use x="530.566406" xlink:href="#DejaVuSans-32"/>
     <use x="594.189453" xlink:href="#DejaVuSans-36"/>
     <use x="657.8125" xlink:href="#DejaVuSans-2b"/>
     <use x="741.601562" xlink:href="#DejaVuSans-2f"/>
     <use x="775.292969" xlink:href="#DejaVuSans-2d"/>
     <use x="811.376953" xlink:href="#DejaVuSans-34"/>
     <use x="875" xlink:href="#DejaVuSans-2e"/>
     <use x="906.787109" xlink:href="#DejaVuSans-30"/>
     <use x="970.410156" xlink:href="#DejaVuSans-37"/>
     <use x="1034.033203" xlink:href="#DejaVuSans-20"/>
     <use x="1065.820312" xlink:href="#DejaVuSans-20"/>
     <use x="1097.607422" xlink:href="#DejaVuSans-74"/>
     <use x="1136.816406" xlink:href="#DejaVuSans-69"/>
     <use x="1164.599609" xlink:href="#DejaVuSans-6d"/>
     <use x="1262.011719" xlink:href="#DejaVuSans-65"/>
     <use x="1323.535156" xlink:href="#DejaVuSans-3a"/>
     <use x="1357.226562" xlink:href="#DejaVuSans-20"/>
     <use x="1389.013672" xlink:href="#DejaVuSans-31"/>
     <use x="1452.636719" xlink:href="#DejaVuSans-39"/>
     <use x="1516.259766" xlink:href="#DejaVuSans-31"/>
     <use x="1579.882812" xlink:href="#DejaVuSans-2e"/>
     <use x="1611.669922" xlink:href="#DejaVuSans-39"/>
     <use x="1675.292969" xlink:href="#DejaVuSans-30"/>
     <use x="1738.916016" xlink:href="#DejaVuSans-2b"/>
     <use x="1822.705078" xlink:href="#DejaVuSans-2f"/>
     <use x="1856.396484" xlink:href="#DejaVuSans-2d"/>
     <use x="1892.480469" xlink:href="#DejaVuSans-32"/>
     <use x="1956.103516" xlink:href="#DejaVuSans-37"/>
     <use x="2019.726562" xlink:href="#DejaVuSans-2e"/>
     <use x="2051.513672" xlink:href="#DejaVuSans-32"/>
     <use x="2115.136719" xlink:href="#DejaVuSans-35"/>
     <use x="2178.759766" xlink:href="#DejaVuSans-20"/>
     <use x="2210.546875" xlink:href="#DejaVuSans-6d"/>
     <use x="2307.958984" xlink:href="#DejaVuSans-69"/>
     <use x="2335.742188" xlink:href="#DejaVuSans-6e"/>
    </g>
   </g>
  </g>
 </g>
 <defs>
  <clipPath id="p159f31cc2c">
   <rect height="266.112" width="357.12" x="57.6" y="41.472"/>
  </clipPath>
 </defs>
</svg>
