<?xml version="1.0" encoding="utf-8" standalone="no"?>
<!DOCTYPE svg PUBLIC "-//W3C//DTD SVG 1.1//EN"
  "http://www.w3.org/Graphics/SVG/1.1/DTD/svg11.dtd">
<!-- Created with matplotlib (http://matplotlib.org/) -->
<svg height="345pt" version="1.1" viewBox="0 0 460 345" width="460pt" xmlns="http://www.w3.org/2000/svg" xmlns:xlink="http://www.w3.org/1999/xlink">
 <defs>
  <style type="text/css">
*{stroke-linecap:butt;stroke-linejoin:round;}
  </style>
 </defs>
 <g id="figure_1">
  <g id="patch_1">
   <path d="M 0 345.6 
L 460.8 345.6 
L 460.8 0 
L 0 0 
z
" style="fill:#ffffff;"/>
  </g>
  <g id="axes_1">
   <g id="patch_2">
    <path d="M 57.6 307.584 
L 414.72 307.584 
L 414.72 41.472 
L 57.6 41.472 
z
" style="fill:#ffffff;"/>
   </g>
   <g id="matplotlib.axis_1">
    <g id="xtick_1">
     <g id="line2d_1">
      <defs>
       <path d="M 0 0 
L 0 3.5 
" id="mb3a4de1871" style="stroke:#000000;stroke-width:0.8;"/>
      </defs>
      <g>
       <use style="stroke:#000000;stroke-width:0.8;" x="73.832727" xlink:href="#mb3a4de1871" y="307.584"/>
      </g>
     </g>
     <g id="text_1">
      <!-- 0.0 -->
      <defs>
       <path d="M 31.78125 66.40625 
Q 24.171875 66.40625 20.328125 58.90625 
Q 16.5 51.421875 16.5 36.375 
Q 16.5 21.390625 20.328125 13.890625 
Q 24.171875 6.390625 31.78125 6.390625 
Q 39.453125 6.390625 43.28125 13.890625 
Q 47.125 21.390625 47.125 36.375 
Q 47.125 51.421875 43.28125 58.90625 
Q 39.453125 66.40625 31.78125 66.40625 
z
M 31.78125 74.21875 
Q 44.046875 74.21875 50.515625 64.515625 
Q 56.984375 54.828125 56.984375 36.375 
Q 56.984375 17.96875 50.515625 8.265625 
Q 44.046875 -1.421875 31.78125 -1.421875 
Q 19.53125 -1.421875 13.0625 8.265625 
Q 6.59375 17.96875 6.59375 36.375 
Q 6.59375 54.828125 13.0625 64.515625 
Q 19.53125 74.21875 31.78125 74.21875 
z
" id="DejaVuSans-30"/>
       <path d="M 10.6875 12.40625 
L 21 12.40625 
L 21 0 
L 10.6875 0 
z
" id="DejaVuSans-2e"/>
      </defs>
      <g transform="translate(65.881165 322.182437)scale(0.1 -0.1)">
       <use xlink:href="#DejaVuSans-30"/>
       <use x="63.623047" xlink:href="#DejaVuSans-2e"/>
       <use x="95.410156" xlink:href="#DejaVuSans-30"/>
      </g>
     </g>
    </g>
    <g id="xtick_2">
     <g id="line2d_2">
      <g>
       <use style="stroke:#000000;stroke-width:0.8;" x="138.763636" xlink:href="#mb3a4de1871" y="307.584"/>
      </g>
     </g>
     <g id="text_2">
      <!-- 0.2 -->
      <defs>
       <path d="M 19.1875 8.296875 
L 53.609375 8.296875 
L 53.609375 0 
L 7.328125 0 
L 7.328125 8.296875 
Q 12.9375 14.109375 22.625 23.890625 
Q 32.328125 33.6875 34.8125 36.53125 
Q 39.546875 41.84375 41.421875 45.53125 
Q 43.3125 49.21875 43.3125 52.78125 
Q 43.3125 58.59375 39.234375 62.25 
Q 35.15625 65.921875 28.609375 65.921875 
Q 23.96875 65.921875 18.8125 64.3125 
Q 13.671875 62.703125 7.8125 59.421875 
L 7.8125 69.390625 
Q 13.765625 71.78125 18.9375 73 
Q 24.125 74.21875 28.421875 74.21875 
Q 39.75 74.21875 46.484375 68.546875 
Q 53.21875 62.890625 53.21875 53.421875 
Q 53.21875 48.921875 51.53125 44.890625 
Q 49.859375 40.875 45.40625 35.40625 
Q 44.1875 33.984375 37.640625 27.21875 
Q 31.109375 20.453125 19.1875 8.296875 
z
" id="DejaVuSans-32"/>
      </defs>
      <g transform="translate(130.812074 322.182437)scale(0.1 -0.1)">
       <use xlink:href="#DejaVuSans-30"/>
       <use x="63.623047" xlink:href="#DejaVuSans-2e"/>
       <use x="95.410156" xlink:href="#DejaVuSans-32"/>
      </g>
     </g>
    </g>
    <g id="xtick_3">
     <g id="line2d_3">
      <g>
       <use style="stroke:#000000;stroke-width:0.8;" x="203.694545" xlink:href="#mb3a4de1871" y="307.584"/>
      </g>
     </g>
     <g id="text_3">
      <!-- 0.4 -->
      <defs>
       <path d="M 37.796875 64.3125 
L 12.890625 25.390625 
L 37.796875 25.390625 
z
M 35.203125 72.90625 
L 47.609375 72.90625 
L 47.609375 25.390625 
L 58.015625 25.390625 
L 58.015625 17.1875 
L 47.609375 17.1875 
L 47.609375 0 
L 37.796875 0 
L 37.796875 17.1875 
L 4.890625 17.1875 
L 4.890625 26.703125 
z
" id="DejaVuSans-34"/>
      </defs>
      <g transform="translate(195.742983 322.182437)scale(0.1 -0.1)">
       <use xlink:href="#DejaVuSans-30"/>
       <use x="63.623047" xlink:href="#DejaVuSans-2e"/>
       <use x="95.410156" xlink:href="#DejaVuSans-34"/>
      </g>
     </g>
    </g>
    <g id="xtick_4">
     <g id="line2d_4">
      <g>
       <use style="stroke:#000000;stroke-width:0.8;" x="268.625455" xlink:href="#mb3a4de1871" y="307.584"/>
      </g>
     </g>
     <g id="text_4">
      <!-- 0.6 -->
      <defs>
       <path d="M 33.015625 40.375 
Q 26.375 40.375 22.484375 35.828125 
Q 18.609375 31.296875 18.609375 23.390625 
Q 18.609375 15.53125 22.484375 10.953125 
Q 26.375 6.390625 33.015625 6.390625 
Q 39.65625 6.390625 43.53125 10.953125 
Q 47.40625 15.53125 47.40625 23.390625 
Q 47.40625 31.296875 43.53125 35.828125 
Q 39.65625 40.375 33.015625 40.375 
z
M 52.59375 71.296875 
L 52.59375 62.3125 
Q 48.875 64.0625 45.09375 64.984375 
Q 41.3125 65.921875 37.59375 65.921875 
Q 27.828125 65.921875 22.671875 59.328125 
Q 17.53125 52.734375 16.796875 39.40625 
Q 19.671875 43.65625 24.015625 45.921875 
Q 28.375 48.1875 33.59375 48.1875 
Q 44.578125 48.1875 50.953125 41.515625 
Q 57.328125 34.859375 57.328125 23.390625 
Q 57.328125 12.15625 50.6875 5.359375 
Q 44.046875 -1.421875 33.015625 -1.421875 
Q 20.359375 -1.421875 13.671875 8.265625 
Q 6.984375 17.96875 6.984375 36.375 
Q 6.984375 53.65625 15.1875 63.9375 
Q 23.390625 74.21875 37.203125 74.21875 
Q 40.921875 74.21875 44.703125 73.484375 
Q 48.484375 72.75 52.59375 71.296875 
z
" id="DejaVuSans-36"/>
      </defs>
      <g transform="translate(260.673892 322.182437)scale(0.1 -0.1)">
       <use xlink:href="#DejaVuSans-30"/>
       <use x="63.623047" xlink:href="#DejaVuSans-2e"/>
       <use x="95.410156" xlink:href="#DejaVuSans-36"/>
      </g>
     </g>
    </g>
    <g id="xtick_5">
     <g id="line2d_5">
      <g>
       <use style="stroke:#000000;stroke-width:0.8;" x="333.556364" xlink:href="#mb3a4de1871" y="307.584"/>
      </g>
     </g>
     <g id="text_5">
      <!-- 0.8 -->
      <defs>
       <path d="M 31.78125 34.625 
Q 24.75 34.625 20.71875 30.859375 
Q 16.703125 27.09375 16.703125 20.515625 
Q 16.703125 13.921875 20.71875 10.15625 
Q 24.75 6.390625 31.78125 6.390625 
Q 38.8125 6.390625 42.859375 10.171875 
Q 46.921875 13.96875 46.921875 20.515625 
Q 46.921875 27.09375 42.890625 30.859375 
Q 38.875 34.625 31.78125 34.625 
z
M 21.921875 38.8125 
Q 15.578125 40.375 12.03125 44.71875 
Q 8.5 49.078125 8.5 55.328125 
Q 8.5 64.0625 14.71875 69.140625 
Q 20.953125 74.21875 31.78125 74.21875 
Q 42.671875 74.21875 48.875 69.140625 
Q 55.078125 64.0625 55.078125 55.328125 
Q 55.078125 49.078125 51.53125 44.71875 
Q 48 40.375 41.703125 38.8125 
Q 48.828125 37.15625 52.796875 32.3125 
Q 56.78125 27.484375 56.78125 20.515625 
Q 56.78125 9.90625 50.3125 4.234375 
Q 43.84375 -1.421875 31.78125 -1.421875 
Q 19.734375 -1.421875 13.25 4.234375 
Q 6.78125 9.90625 6.78125 20.515625 
Q 6.78125 27.484375 10.78125 32.3125 
Q 14.796875 37.15625 21.921875 38.8125 
z
M 18.3125 54.390625 
Q 18.3125 48.734375 21.84375 45.5625 
Q 25.390625 42.390625 31.78125 42.390625 
Q 38.140625 42.390625 41.71875 45.5625 
Q 45.3125 48.734375 45.3125 54.390625 
Q 45.3125 60.0625 41.71875 63.234375 
Q 38.140625 66.40625 31.78125 66.40625 
Q 25.390625 66.40625 21.84375 63.234375 
Q 18.3125 60.0625 18.3125 54.390625 
z
" id="DejaVuSans-38"/>
      </defs>
      <g transform="translate(325.604801 322.182437)scale(0.1 -0.1)">
       <use xlink:href="#DejaVuSans-30"/>
       <use x="63.623047" xlink:href="#DejaVuSans-2e"/>
       <use x="95.410156" xlink:href="#DejaVuSans-38"/>
      </g>
     </g>
    </g>
    <g id="xtick_6">
     <g id="line2d_6">
      <g>
       <use style="stroke:#000000;stroke-width:0.8;" x="398.487273" xlink:href="#mb3a4de1871" y="307.584"/>
      </g>
     </g>
     <g id="text_6">
      <!-- 1.0 -->
      <defs>
       <path d="M 12.40625 8.296875 
L 28.515625 8.296875 
L 28.515625 63.921875 
L 10.984375 60.40625 
L 10.984375 69.390625 
L 28.421875 72.90625 
L 38.28125 72.90625 
L 38.28125 8.296875 
L 54.390625 8.296875 
L 54.390625 0 
L 12.40625 0 
z
" id="DejaVuSans-31"/>
      </defs>
      <g transform="translate(390.53571 322.182437)scale(0.1 -0.1)">
       <use xlink:href="#DejaVuSans-31"/>
       <use x="63.623047" xlink:href="#DejaVuSans-2e"/>
       <use x="95.410156" xlink:href="#DejaVuSans-30"/>
      </g>
     </g>
    </g>
   </g>
   <g id="matplotlib.axis_2">
    <g id="ytick_1">
     <g id="line2d_7">
      <defs>
       <path d="M 0 0 
L -3.5 0 
" id="mb37d8156e0" style="stroke:#000000;stroke-width:0.8;"/>
      </defs>
      <g>
       <use style="stroke:#000000;stroke-width:0.8;" x="57.6" xlink:href="#mb37d8156e0" y="277.799332"/>
      </g>
     </g>
     <g id="text_7">
      <!-- −0.3 -->
      <defs>
       <path d="M 10.59375 35.5 
L 73.1875 35.5 
L 73.1875 27.203125 
L 10.59375 27.203125 
z
" id="DejaVuSans-2212"/>
       <path d="M 40.578125 39.3125 
Q 47.65625 37.796875 51.625 33 
Q 55.609375 28.21875 55.609375 21.1875 
Q 55.609375 10.40625 48.1875 4.484375 
Q 40.765625 -1.421875 27.09375 -1.421875 
Q 22.515625 -1.421875 17.65625 -0.515625 
Q 12.796875 0.390625 7.625 2.203125 
L 7.625 11.71875 
Q 11.71875 9.328125 16.59375 8.109375 
Q 21.484375 6.890625 26.8125 6.890625 
Q 36.078125 6.890625 40.9375 10.546875 
Q 45.796875 14.203125 45.796875 21.1875 
Q 45.796875 27.640625 41.28125 31.265625 
Q 36.765625 34.90625 28.71875 34.90625 
L 20.21875 34.90625 
L 20.21875 43.015625 
L 29.109375 43.015625 
Q 36.375 43.015625 40.234375 45.921875 
Q 44.09375 48.828125 44.09375 54.296875 
Q 44.09375 59.90625 40.109375 62.90625 
Q 36.140625 65.921875 28.71875 65.921875 
Q 24.65625 65.921875 20.015625 65.03125 
Q 15.375 64.15625 9.8125 62.3125 
L 9.8125 71.09375 
Q 15.4375 72.65625 20.34375 73.4375 
Q 25.25 74.21875 29.59375 74.21875 
Q 40.828125 74.21875 47.359375 69.109375 
Q 53.90625 64.015625 53.90625 55.328125 
Q 53.90625 49.265625 50.4375 45.09375 
Q 46.96875 40.921875 40.578125 39.3125 
z
" id="DejaVuSans-33"/>
      </defs>
      <g transform="translate(26.317187 281.59855)scale(0.1 -0.1)">
       <use xlink:href="#DejaVuSans-2212"/>
       <use x="83.789062" xlink:href="#DejaVuSans-30"/>
       <use x="147.412109" xlink:href="#DejaVuSans-2e"/>
       <use x="179.199219" xlink:href="#DejaVuSans-33"/>
      </g>
     </g>
    </g>
    <g id="ytick_2">
     <g id="line2d_8">
      <g>
       <use style="stroke:#000000;stroke-width:0.8;" x="57.6" xlink:href="#mb37d8156e0" y="245.333877"/>
      </g>
     </g>
     <g id="text_8">
      <!-- −0.2 -->
      <g transform="translate(26.317187 249.133096)scale(0.1 -0.1)">
       <use xlink:href="#DejaVuSans-2212"/>
       <use x="83.789062" xlink:href="#DejaVuSans-30"/>
       <use x="147.412109" xlink:href="#DejaVuSans-2e"/>
       <use x="179.199219" xlink:href="#DejaVuSans-32"/>
      </g>
     </g>
    </g>
    <g id="ytick_3">
     <g id="line2d_9">
      <g>
       <use style="stroke:#000000;stroke-width:0.8;" x="57.6" xlink:href="#mb37d8156e0" y="212.868423"/>
      </g>
     </g>
     <g id="text_9">
      <!-- −0.1 -->
      <g transform="translate(26.317187 216.667641)scale(0.1 -0.1)">
       <use xlink:href="#DejaVuSans-2212"/>
       <use x="83.789062" xlink:href="#DejaVuSans-30"/>
       <use x="147.412109" xlink:href="#DejaVuSans-2e"/>
       <use x="179.199219" xlink:href="#DejaVuSans-31"/>
      </g>
     </g>
    </g>
    <g id="ytick_4">
     <g id="line2d_10">
      <g>
       <use style="stroke:#000000;stroke-width:0.8;" x="57.6" xlink:href="#mb37d8156e0" y="180.402968"/>
      </g>
     </g>
     <g id="text_10">
      <!-- 0.0 -->
      <g transform="translate(34.696875 184.202187)scale(0.1 -0.1)">
       <use xlink:href="#DejaVuSans-30"/>
       <use x="63.623047" xlink:href="#DejaVuSans-2e"/>
       <use x="95.410156" xlink:href="#DejaVuSans-30"/>
      </g>
     </g>
    </g>
    <g id="ytick_5">
     <g id="line2d_11">
      <g>
       <use style="stroke:#000000;stroke-width:0.8;" x="57.6" xlink:href="#mb37d8156e0" y="147.937514"/>
      </g>
     </g>
     <g id="text_11">
      <!-- 0.1 -->
      <g transform="translate(34.696875 151.736732)scale(0.1 -0.1)">
       <use xlink:href="#DejaVuSans-30"/>
       <use x="63.623047" xlink:href="#DejaVuSans-2e"/>
       <use x="95.410156" xlink:href="#DejaVuSans-31"/>
      </g>
     </g>
    </g>
    <g id="ytick_6">
     <g id="line2d_12">
      <g>
       <use style="stroke:#000000;stroke-width:0.8;" x="57.6" xlink:href="#mb37d8156e0" y="115.472059"/>
      </g>
     </g>
     <g id="text_12">
      <!-- 0.2 -->
      <g transform="translate(34.696875 119.271278)scale(0.1 -0.1)">
       <use xlink:href="#DejaVuSans-30"/>
       <use x="63.623047" xlink:href="#DejaVuSans-2e"/>
       <use x="95.410156" xlink:href="#DejaVuSans-32"/>
      </g>
     </g>
    </g>
    <g id="ytick_7">
     <g id="line2d_13">
      <g>
       <use style="stroke:#000000;stroke-width:0.8;" x="57.6" xlink:href="#mb37d8156e0" y="83.006604"/>
      </g>
     </g>
     <g id="text_13">
      <!-- 0.3 -->
      <g transform="translate(34.696875 86.805823)scale(0.1 -0.1)">
       <use xlink:href="#DejaVuSans-30"/>
       <use x="63.623047" xlink:href="#DejaVuSans-2e"/>
       <use x="95.410156" xlink:href="#DejaVuSans-33"/>
      </g>
     </g>
    </g>
    <g id="ytick_8">
     <g id="line2d_14">
      <g>
       <use style="stroke:#000000;stroke-width:0.8;" x="57.6" xlink:href="#mb37d8156e0" y="50.54115"/>
      </g>
     </g>
     <g id="text_14">
      <!-- 0.4 -->
      <g transform="translate(34.696875 54.340369)scale(0.1 -0.1)">
       <use xlink:href="#DejaVuSans-30"/>
       <use x="63.623047" xlink:href="#DejaVuSans-2e"/>
       <use x="95.410156" xlink:href="#DejaVuSans-34"/>
      </g>
     </g>
    </g>
   </g>
   <g id="line2d_15">
    <path clip-path="url(#p63a472de17)" d="M 398.487273 180.402968 
L 391.65244 179.416243 
L 384.817608 178.225531 
L 374.565359 176.169108 
L 360.895694 173.146139 
L 336.97378 167.791751 
L 323.304115 164.984714 
L 313.051866 163.076029 
L 302.799617 161.358192 
L 292.547368 159.838567 
L 282.29512 158.515472 
L 272.042871 157.380578 
L 258.373206 156.137791 
L 244.703541 155.171138 
L 231.033876 154.445865 
L 217.364211 153.9352 
L 203.694545 153.626549 
L 190.02488 153.526678 
L 176.355215 153.665865 
L 166.102967 153.960357 
L 155.850718 154.455576 
L 145.598469 155.196247 
L 135.34622 156.238063 
L 128.511388 157.133221 
L 121.676555 158.21695 
L 114.841722 159.518621 
L 108.00689 161.075197 
L 101.172057 162.937108 
L 94.337225 165.182314 
L 90.919809 166.489093 
L 87.502392 167.956667 
L 84.084976 169.638031 
L 80.66756 171.638085 
L 77.250144 174.232877 
L 73.832727 180.402968 
L 73.832727 180.402968 
L 77.250144 186.253157 
L 80.66756 188.312753 
L 84.084976 189.683635 
L 87.502392 190.690507 
L 90.919809 191.467147 
L 94.337225 192.085553 
L 101.172057 193.009553 
L 108.00689 193.669845 
L 118.259139 194.375745 
L 128.511388 194.86892 
L 142.181053 195.274742 
L 152.433301 195.385442 
L 162.68555 195.304645 
L 172.937799 195.006491 
L 183.190048 194.471095 
L 193.442297 193.689227 
L 203.694545 192.664886 
L 213.946794 191.416354 
L 224.199043 189.976072 
L 237.868708 187.837796 
L 272.042871 182.321502 
L 282.29512 180.908469 
L 292.547368 179.729754 
L 302.799617 178.841744 
L 309.63445 178.432226 
L 316.469282 178.177618 
L 323.304115 178.080059 
L 333.556364 178.218403 
L 343.808612 178.659056 
L 357.478278 179.569055 
L 374.565359 180.734157 
L 381.400191 181.004807 
L 388.235024 181.036662 
L 395.069856 180.724861 
L 398.487273 180.402968 
L 398.487273 180.402968 
" style="fill:none;opacity:0.1;stroke:#000000;stroke-linecap:square;stroke-width:1.5;"/>
   </g>
   <g id="line2d_16">
    <path clip-path="url(#p63a472de17)" d="M 398.487273 180.402968 
L 391.65244 179.180734 
L 384.817608 177.638145 
L 377.982775 175.878176 
L 364.31311 172.046247 
L 350.643445 168.236247 
L 340.391196 165.620113 
L 333.556364 164.049086 
L 326.721531 162.638967 
L 319.886699 161.400705 
L 313.051866 160.338827 
L 306.217033 159.452272 
L 299.382201 158.735207 
L 292.547368 158.177806 
L 282.29512 157.611794 
L 272.042871 157.321097 
L 261.790622 157.244237 
L 248.120957 157.363678 
L 200.277129 158.021854 
L 179.772632 157.936853 
L 155.850718 157.822888 
L 145.598469 157.968696 
L 135.34622 158.374579 
L 128.511388 158.850474 
L 121.676555 159.538731 
L 114.841722 160.485493 
L 108.00689 161.742976 
L 101.172057 163.373788 
L 97.754641 164.354126 
L 94.337225 165.462544 
L 90.919809 166.718657 
L 87.502392 168.15179 
L 84.084976 169.811247 
L 80.66756 171.795004 
L 77.250144 174.364305 
L 73.832727 180.402968 
L 73.832727 180.402968 
L 77.250144 186.037761 
L 80.66756 187.942404 
L 84.084976 189.159941 
L 87.502392 190.016005 
L 90.919809 190.646581 
L 97.754641 191.49883 
L 104.589474 192.040093 
L 114.841722 192.573908 
L 131.928804 193.163741 
L 149.015885 193.519072 
L 162.68555 193.549236 
L 172.937799 193.356567 
L 183.190048 192.938515 
L 193.442297 192.271975 
L 203.694545 191.349884 
L 213.946794 190.182578 
L 224.199043 188.797778 
L 237.868708 186.69122 
L 275.460287 180.585904 
L 285.712536 179.205364 
L 295.964785 178.091961 
L 302.799617 177.529213 
L 309.63445 177.126929 
L 316.469282 176.894578 
L 323.304115 176.836213 
L 330.138947 176.949523 
L 336.97378 177.224851 
L 347.226029 177.899675 
L 360.895694 179.116459 
L 374.565359 180.318669 
L 381.400191 180.732138 
L 388.235024 180.893363 
L 395.069856 180.686082 
L 398.487273 180.402968 
L 398.487273 180.402968 
" style="fill:none;opacity:0.1;stroke:#000000;stroke-linecap:square;stroke-width:1.5;"/>
   </g>
   <g id="line2d_17">
    <path clip-path="url(#p63a472de17)" d="M 398.487273 180.402968 
L 391.65244 179.533311 
L 384.817608 178.445132 
L 374.565359 176.51051 
L 360.895694 173.585205 
L 326.721531 166.052657 
L 313.051866 163.372759 
L 302.799617 161.573821 
L 292.547368 159.975435 
L 282.29512 158.584934 
L 272.042871 157.402124 
L 261.790622 156.421128 
L 251.538373 155.632129 
L 241.286124 155.023017 
L 227.616459 154.468522 
L 213.946794 154.18301 
L 200.277129 154.146086 
L 186.607464 154.349942 
L 172.937799 154.80388 
L 162.68555 155.326016 
L 152.433301 156.027987 
L 142.181053 156.94196 
L 131.928804 158.112199 
L 125.093971 159.063805 
L 118.259139 160.179458 
L 111.424306 161.490012 
L 104.589474 163.037984 
L 97.754641 164.88721 
L 94.337225 165.955845 
L 90.919809 167.147068 
L 87.502392 168.493651 
L 84.084976 170.050595 
L 80.66756 171.925223 
L 77.250144 174.395567 
L 73.832727 180.402968 
L 73.832727 180.402968 
L 77.250144 186.096005 
L 80.66756 188.040134 
L 84.084976 189.295744 
L 87.502392 190.188571 
L 90.919809 190.854247 
L 97.754641 191.770493 
L 104.589474 192.366395 
L 114.841722 192.964441 
L 128.511388 193.512171 
L 145.598469 193.965712 
L 159.268134 194.098681 
L 169.520383 194.007322 
L 179.772632 193.713067 
L 190.02488 193.19124 
L 200.277129 192.430938 
L 210.529378 191.436845 
L 220.781627 190.229653 
L 234.451292 188.352809 
L 254.955789 185.226392 
L 272.042871 182.680369 
L 282.29512 181.330554 
L 292.547368 180.199291 
L 302.799617 179.345429 
L 309.63445 178.952409 
L 316.469282 178.709891 
L 323.304115 178.620307 
L 333.556364 178.762828 
L 343.808612 179.196794 
L 357.478278 180.073738 
L 371.147943 180.964853 
L 377.982775 181.255684 
L 384.817608 181.330751 
L 391.65244 181.086557 
L 395.069856 180.807878 
L 398.487273 180.402968 
L 398.487273 180.402968 
" style="fill:none;opacity:0.1;stroke:#000000;stroke-linecap:square;stroke-width:1.5;"/>
   </g>
   <g id="line2d_18">
    <path clip-path="url(#p63a472de17)" d="M 398.487273 180.402968 
L 391.65244 179.337527 
L 384.817608 177.99655 
L 374.565359 175.63566 
L 360.895694 172.162874 
L 343.808612 167.822987 
L 333.556364 165.410761 
L 323.304115 163.222862 
L 313.051866 161.293374 
L 302.799617 159.634501 
L 292.547368 158.241066 
L 282.29512 157.094777 
L 272.042871 156.168244 
L 261.790622 155.428727 
L 248.120957 154.673953 
L 231.033876 153.995824 
L 210.529378 153.430398 
L 190.02488 153.086243 
L 176.355215 153.037519 
L 166.102967 153.157029 
L 155.850718 153.471678 
L 145.598469 154.051813 
L 138.763636 154.626898 
L 131.928804 155.385036 
L 125.093971 156.357053 
L 118.259139 157.576964 
L 111.424306 159.083194 
L 104.589474 160.921551 
L 97.754641 163.152694 
L 94.337225 164.443042 
L 90.919809 165.872894 
L 87.502392 167.470843 
L 84.084976 169.286029 
L 80.66756 171.41761 
L 77.250144 174.132605 
L 73.832727 180.402968 
L 73.832727 180.402968 
L 77.250144 186.220341 
L 80.66756 188.182157 
L 84.084976 189.434829 
L 87.502392 190.315671 
L 90.919809 190.965567 
L 97.754641 191.849219 
L 104.589474 192.418972 
L 114.841722 192.994625 
L 128.511388 193.531066 
L 142.181053 193.891662 
L 155.850718 194.008439 
L 166.102967 193.864557 
L 176.355215 193.469704 
L 186.607464 192.790112 
L 196.859713 191.809772 
L 207.111962 190.53284 
L 217.364211 188.984271 
L 227.616459 187.209051 
L 241.286124 184.600819 
L 268.625455 179.30755 
L 278.877703 177.58745 
L 289.129952 176.159776 
L 295.964785 175.411958 
L 302.799617 174.851613 
L 309.63445 174.494582 
L 316.469282 174.351141 
L 323.304115 174.424917 
L 330.138947 174.711775 
L 336.97378 175.198654 
L 343.808612 175.862371 
L 354.060861 177.110535 
L 374.565359 179.799435 
L 381.400191 180.448455 
L 388.235024 180.788052 
L 391.65244 180.79859 
L 395.069856 180.67724 
L 398.487273 180.402968 
L 398.487273 180.402968 
" style="fill:none;opacity:0.1;stroke:#000000;stroke-linecap:square;stroke-width:1.5;"/>
   </g>
   <g id="line2d_19">
    <path clip-path="url(#p63a472de17)" d="M 398.487273 180.402968 
L 391.65244 179.282328 
L 381.400191 177.288466 
L 371.147943 175.049573 
L 330.138947 165.775946 
L 319.886699 163.732347 
L 309.63445 161.881651 
L 299.382201 160.242022 
L 289.129952 158.821551 
L 278.877703 157.62017 
L 268.625455 156.631467 
L 258.373206 155.844422 
L 248.120957 155.24504 
L 234.451292 154.711097 
L 220.781627 154.447448 
L 207.111962 154.423805 
L 193.442297 154.620594 
L 179.772632 155.03361 
L 166.102967 155.678401 
L 152.433301 156.594851 
L 142.181053 157.501254 
L 131.928804 158.642773 
L 121.676555 160.080109 
L 114.841722 161.244143 
L 108.00689 162.613922 
L 101.172057 164.241677 
L 94.337225 166.210452 
L 90.919809 167.365973 
L 87.502392 168.675814 
L 84.084976 170.195148 
L 80.66756 172.031275 
L 77.250144 174.461205 
L 73.832727 180.402968 
L 73.832727 180.402968 
L 77.250144 186.112759 
L 80.66756 188.153109 
L 84.084976 189.529116 
L 87.502392 190.552544 
L 90.919809 191.351276 
L 94.337225 191.994013 
L 101.172057 192.966259 
L 108.00689 193.668705 
L 118.259139 194.423604 
L 128.511388 194.955136 
L 142.181053 195.418094 
L 155.850718 195.619574 
L 166.102967 195.58286 
L 176.355215 195.367076 
L 186.607464 194.959472 
L 196.859713 194.354511 
L 207.111962 193.555879 
L 217.364211 192.577355 
L 231.033876 191.035432 
L 248.120957 188.846471 
L 278.877703 184.831861 
L 292.547368 183.313568 
L 302.799617 182.379456 
L 313.051866 181.65844 
L 323.304115 181.169354 
L 333.556364 180.912469 
L 343.808612 180.864882 
L 357.478278 181.03434 
L 377.982775 181.305612 
L 384.817608 181.22069 
L 391.65244 180.945632 
L 398.487273 180.402968 
L 398.487273 180.402968 
" style="fill:none;opacity:0.1;stroke:#000000;stroke-linecap:square;stroke-width:1.5;"/>
   </g>
   <g id="line2d_20">
    <path clip-path="url(#p63a472de17)" d="M 398.487273 180.402968 
L 374.565359 176.712996 
L 313.051866 167.044848 
L 295.964785 164.645635 
L 278.877703 162.496318 
L 265.208038 160.994409 
L 251.538373 159.712185 
L 237.868708 158.669529 
L 224.199043 157.882257 
L 210.529378 157.362541 
L 196.859713 157.119824 
L 183.190048 157.162391 
L 172.937799 157.387222 
L 162.68555 157.783795 
L 152.433301 158.3613 
L 142.181053 159.134581 
L 131.928804 160.127988 
L 121.676555 161.382113 
L 114.841722 162.395677 
L 108.00689 163.588148 
L 101.172057 165.011209 
L 94.337225 166.752097 
L 90.919809 167.788401 
L 87.502392 168.978921 
L 84.084976 170.383094 
L 80.66756 172.115039 
L 77.250144 174.464329 
L 73.832727 180.402968 
L 73.832727 180.402968 
L 77.250144 186.080995 
L 80.66756 187.994295 
L 84.084976 189.213624 
L 87.502392 190.068063 
L 90.919809 190.6951 
L 97.754641 191.537377 
L 104.589474 192.06688 
L 114.841722 192.580866 
L 131.928804 193.126315 
L 145.598469 193.378249 
L 159.268134 193.395021 
L 169.520383 193.188854 
L 179.772632 192.750507 
L 190.02488 192.053298 
L 200.277129 191.087239 
L 210.529378 189.860819 
L 220.781627 188.401258 
L 234.451292 186.172549 
L 275.460287 179.144183 
L 285.712536 177.749812 
L 292.547368 176.987945 
L 299.382201 176.383923 
L 306.217033 175.95401 
L 313.051866 175.709875 
L 319.886699 175.65762 
L 326.721531 175.796776 
L 333.556364 176.119253 
L 340.391196 176.608262 
L 350.643445 177.592851 
L 377.982775 180.491768 
L 384.817608 180.863639 
L 391.65244 180.880448 
L 395.069856 180.712985 
L 398.487273 180.402968 
L 398.487273 180.402968 
" style="fill:none;opacity:0.1;stroke:#000000;stroke-linecap:square;stroke-width:1.5;"/>
   </g>
   <g id="line2d_21">
    <path clip-path="url(#p63a472de17)" d="M 398.487273 180.402968 
L 391.65244 179.302441 
L 381.400191 177.366802 
L 367.730526 174.466487 
L 336.97378 167.765611 
L 323.304115 165.072382 
L 313.051866 163.248002 
L 302.799617 161.6113 
L 292.547368 160.169581 
L 282.29512 158.922379 
L 272.042871 157.863363 
L 261.790622 156.982153 
L 248.120957 156.061632 
L 234.451292 155.402814 
L 220.781627 154.977636 
L 207.111962 154.767037 
L 193.442297 154.765677 
L 179.772632 154.986005 
L 166.102967 155.461796 
L 155.850718 156.020425 
L 145.598469 156.790093 
L 135.34622 157.816399 
L 128.511388 158.67161 
L 121.676555 159.688577 
L 114.841722 160.894409 
L 108.00689 162.324384 
L 101.172057 164.028016 
L 94.337225 166.083232 
L 90.919809 167.2833 
L 87.502392 168.636372 
L 84.084976 170.195074 
L 80.66756 172.062678 
L 77.250144 174.508376 
L 73.832727 180.402968 
L 73.832727 180.402968 
L 77.250144 185.945255 
L 80.66756 187.801124 
L 84.084976 188.974902 
L 87.502392 189.789479 
L 90.919809 190.380147 
L 97.754641 191.157046 
L 104.589474 191.629985 
L 114.841722 192.07869 
L 135.34622 192.675377 
L 152.433301 193.010521 
L 166.102967 193.073641 
L 176.355215 192.93403 
L 186.607464 192.594218 
L 196.859713 192.031616 
L 207.111962 191.238895 
L 217.364211 190.225042 
L 227.616459 189.015191 
L 241.286124 187.168407 
L 278.877703 181.820038 
L 289.129952 180.619128 
L 299.382201 179.656041 
L 309.63445 178.982271 
L 319.886699 178.630902 
L 330.138947 178.610223 
L 340.391196 178.896955 
L 350.643445 179.429106 
L 377.982775 181.050283 
L 384.817608 181.164715 
L 391.65244 180.987292 
L 395.069856 180.753853 
L 398.487273 180.402968 
L 398.487273 180.402968 
" style="fill:none;opacity:0.1;stroke:#000000;stroke-linecap:square;stroke-width:1.5;"/>
   </g>
   <g id="line2d_22">
    <path clip-path="url(#p63a472de17)" d="M 398.487273 180.402968 
L 384.817608 178.223475 
L 364.31311 174.665499 
L 336.97378 169.920534 
L 319.886699 167.178446 
L 306.217033 165.177561 
L 292.547368 163.374843 
L 278.877703 161.783932 
L 265.208038 160.410957 
L 251.538373 159.257188 
L 237.868708 158.321564 
L 224.199043 157.603134 
L 210.529378 157.103415 
L 196.859713 156.828764 
L 183.190048 156.792876 
L 169.520383 157.019657 
L 159.268134 157.384232 
L 149.015885 157.940327 
L 138.763636 158.719104 
L 128.511388 159.763697 
L 121.676555 160.637272 
L 114.841722 161.681561 
L 108.00689 162.932194 
L 101.172057 164.441991 
L 94.337225 166.297128 
L 90.919809 167.399657 
L 87.502392 168.66124 
L 84.084976 170.139886 
L 80.66756 171.947773 
L 77.250144 174.372233 
L 73.832727 180.402968 
L 73.832727 180.402968 
L 77.250144 186.101617 
L 80.66756 187.972839 
L 84.084976 189.133515 
L 87.502392 189.922039 
L 90.919809 190.480809 
L 97.754641 191.190573 
L 104.589474 191.602934 
L 114.841722 191.980748 
L 135.34622 192.468296 
L 149.015885 192.6426 
L 159.268134 192.617161 
L 169.520383 192.392297 
L 179.772632 191.917707 
L 190.02488 191.159165 
L 200.277129 190.102682 
L 210.529378 188.756409 
L 220.781627 187.150788 
L 231.033876 185.337288 
L 248.120957 182.050073 
L 265.208038 178.794767 
L 275.460287 177.049644 
L 285.712536 175.582807 
L 292.547368 174.804669 
L 299.382201 174.213558 
L 306.217033 173.828041 
L 313.051866 173.661245 
L 319.886699 173.719715 
L 326.721531 174.002234 
L 333.556364 174.498583 
L 340.391196 175.188276 
L 350.643445 176.511674 
L 374.565359 179.931805 
L 381.400191 180.605428 
L 388.235024 180.925945 
L 391.65244 180.906787 
L 395.069856 180.740076 
L 398.487273 180.402968 
L 398.487273 180.402968 
" style="fill:none;opacity:0.1;stroke:#000000;stroke-linecap:square;stroke-width:1.5;"/>
   </g>
   <g id="line2d_23">
    <path clip-path="url(#p63a472de17)" d="M 398.487273 180.402968 
L 391.65244 179.328071 
L 381.400191 177.470189 
L 364.31311 174.053261 
L 343.808612 169.984748 
L 330.138947 167.525293 
L 319.886699 165.871474 
L 309.63445 164.397238 
L 299.382201 163.104636 
L 289.129952 161.98704 
L 275.460287 160.746324 
L 261.790622 159.753122 
L 248.120957 158.963571 
L 231.033876 158.203894 
L 213.946794 157.651082 
L 196.859713 157.299402 
L 183.190048 157.195551 
L 169.520383 157.308892 
L 159.268134 157.586319 
L 149.015885 158.079209 
L 138.763636 158.842805 
L 131.928804 159.533777 
L 125.093971 160.395378 
L 118.259139 161.452153 
L 111.424306 162.732695 
L 104.589474 164.272525 
L 97.754641 166.120919 
L 90.919809 168.359216 
L 87.502392 169.671412 
L 84.084976 171.162877 
L 80.66756 172.918603 
L 77.250144 175.16566 
L 73.832727 180.402968 
L 73.832727 180.402968 
L 77.250144 185.405926 
L 80.66756 187.261186 
L 84.084976 188.556894 
L 87.502392 189.556143 
L 90.919809 190.365488 
L 97.754641 191.619092 
L 104.589474 192.562884 
L 111.424306 193.310873 
L 121.676555 194.19155 
L 131.928804 194.868374 
L 145.598469 195.522409 
L 159.268134 195.911463 
L 172.937799 196.025115 
L 183.190048 195.919544 
L 193.442297 195.645752 
L 207.111962 195.021629 
L 220.781627 194.119912 
L 234.451292 192.979089 
L 251.538373 191.304103 
L 302.799617 186.029836 
L 316.469282 184.910389 
L 330.138947 184.002884 
L 343.808612 183.301393 
L 367.730526 182.365794 
L 381.400191 181.744103 
L 391.65244 181.051701 
L 398.487273 180.402968 
L 398.487273 180.402968 
" style="fill:none;opacity:0.1;stroke:#000000;stroke-linecap:square;stroke-width:1.5;"/>
   </g>
   <g id="line2d_24">
    <path clip-path="url(#p63a472de17)" d="M 398.487273 180.402968 
L 391.65244 179.263359 
L 381.400191 177.2706 
L 364.31311 173.59589 
L 347.226029 169.962699 
L 336.97378 167.959371 
L 326.721531 166.147665 
L 316.469282 164.552384 
L 306.217033 163.181863 
L 295.964785 162.031151 
L 285.712536 161.085028 
L 275.460287 160.320883 
L 261.790622 159.537562 
L 244.703541 158.838963 
L 224.199043 158.247641 
L 193.442297 157.589534 
L 172.937799 157.321033 
L 159.268134 157.330517 
L 149.015885 157.516152 
L 138.763636 157.928539 
L 131.928804 158.370389 
L 125.093971 158.980261 
L 118.259139 159.793637 
L 111.424306 160.853657 
L 104.589474 162.215709 
L 97.754641 163.957594 
L 94.337225 165.007046 
L 90.919809 166.20545 
L 87.502392 167.589106 
L 84.084976 169.218398 
L 80.66756 171.210631 
L 77.250144 173.869241 
L 73.832727 180.402968 
L 73.832727 180.402968 
L 77.250144 186.438439 
L 80.66756 188.271729 
L 84.084976 189.305418 
L 87.502392 189.921441 
L 90.919809 190.283843 
L 97.754641 190.57833 
L 108.00689 190.559656 
L 125.093971 190.416387 
L 138.763636 190.521559 
L 169.520383 190.893275 
L 179.772632 190.754186 
L 190.02488 190.359907 
L 200.277129 189.666994 
L 210.529378 188.65826 
L 220.781627 187.343716 
L 231.033876 185.759792 
L 244.703541 183.336633 
L 275.460287 177.635168 
L 285.712536 176.038367 
L 292.547368 175.151719 
L 299.382201 174.440453 
L 306.217033 173.92853 
L 313.051866 173.634657 
L 319.886699 173.570993 
L 326.721531 173.741796 
L 333.556364 174.142018 
L 340.391196 174.755853 
L 347.226029 175.555228 
L 357.478278 177.006364 
L 374.565359 179.528992 
L 381.400191 180.294226 
L 388.235024 180.728669 
L 391.65244 180.772825 
L 395.069856 180.672283 
L 398.487273 180.402968 
L 398.487273 180.402968 
" style="fill:none;opacity:0.1;stroke:#000000;stroke-linecap:square;stroke-width:1.5;"/>
   </g>
   <g id="patch_3">
    <path d="M 57.6 307.584 
L 57.6 41.472 
" style="fill:none;stroke:#000000;stroke-linecap:square;stroke-linejoin:miter;stroke-width:0.8;"/>
   </g>
   <g id="patch_4">
    <path d="M 414.72 307.584 
L 414.72 41.472 
" style="fill:none;stroke:#000000;stroke-linecap:square;stroke-linejoin:miter;stroke-width:0.8;"/>
   </g>
   <g id="patch_5">
    <path d="M 57.6 307.584 
L 414.72 307.584 
" style="fill:none;stroke:#000000;stroke-linecap:square;stroke-linejoin:miter;stroke-width:0.8;"/>
   </g>
   <g id="patch_6">
    <path d="M 57.6 41.472 
L 414.72 41.472 
" style="fill:none;stroke:#000000;stroke-linecap:square;stroke-linejoin:miter;stroke-width:0.8;"/>
   </g>
   <g id="text_15">
    <!-- CL/CD: 53.77+/-3.24  time: 22.41+/-0.42 min -->
    <defs>
     <path d="M 64.40625 67.28125 
L 64.40625 56.890625 
Q 59.421875 61.53125 53.78125 63.8125 
Q 48.140625 66.109375 41.796875 66.109375 
Q 29.296875 66.109375 22.65625 58.46875 
Q 16.015625 50.828125 16.015625 36.375 
Q 16.015625 21.96875 22.65625 14.328125 
Q 29.296875 6.6875 41.796875 6.6875 
Q 48.140625 6.6875 53.78125 8.984375 
Q 59.421875 11.28125 64.40625 15.921875 
L 64.40625 5.609375 
Q 59.234375 2.09375 53.4375 0.328125 
Q 47.65625 -1.421875 41.21875 -1.421875 
Q 24.65625 -1.421875 15.125 8.703125 
Q 5.609375 18.84375 5.609375 36.375 
Q 5.609375 53.953125 15.125 64.078125 
Q 24.65625 74.21875 41.21875 74.21875 
Q 47.75 74.21875 53.53125 72.484375 
Q 59.328125 70.75 64.40625 67.28125 
z
" id="DejaVuSans-43"/>
     <path d="M 9.8125 72.90625 
L 19.671875 72.90625 
L 19.671875 8.296875 
L 55.171875 8.296875 
L 55.171875 0 
L 9.8125 0 
z
" id="DejaVuSans-4c"/>
     <path d="M 25.390625 72.90625 
L 33.6875 72.90625 
L 8.296875 -9.28125 
L 0 -9.28125 
z
" id="DejaVuSans-2f"/>
     <path d="M 19.671875 64.796875 
L 19.671875 8.109375 
L 31.59375 8.109375 
Q 46.6875 8.109375 53.6875 14.9375 
Q 60.6875 21.78125 60.6875 36.53125 
Q 60.6875 51.171875 53.6875 57.984375 
Q 46.6875 64.796875 31.59375 64.796875 
z
M 9.8125 72.90625 
L 30.078125 72.90625 
Q 51.265625 72.90625 61.171875 64.09375 
Q 71.09375 55.28125 71.09375 36.53125 
Q 71.09375 17.671875 61.125 8.828125 
Q 51.171875 0 30.078125 0 
L 9.8125 0 
z
" id="DejaVuSans-44"/>
     <path d="M 11.71875 12.40625 
L 22.015625 12.40625 
L 22.015625 0 
L 11.71875 0 
z
M 11.71875 51.703125 
L 22.015625 51.703125 
L 22.015625 39.3125 
L 11.71875 39.3125 
z
" id="DejaVuSans-3a"/>
     <path id="DejaVuSans-20"/>
     <path d="M 10.796875 72.90625 
L 49.515625 72.90625 
L 49.515625 64.59375 
L 19.828125 64.59375 
L 19.828125 46.734375 
Q 21.96875 47.46875 24.109375 47.828125 
Q 26.265625 48.1875 28.421875 48.1875 
Q 40.625 48.1875 47.75 41.5 
Q 54.890625 34.8125 54.890625 23.390625 
Q 54.890625 11.625 47.5625 5.09375 
Q 40.234375 -1.421875 26.90625 -1.421875 
Q 22.3125 -1.421875 17.546875 -0.640625 
Q 12.796875 0.140625 7.71875 1.703125 
L 7.71875 11.625 
Q 12.109375 9.234375 16.796875 8.0625 
Q 21.484375 6.890625 26.703125 6.890625 
Q 35.15625 6.890625 40.078125 11.328125 
Q 45.015625 15.765625 45.015625 23.390625 
Q 45.015625 31 40.078125 35.4375 
Q 35.15625 39.890625 26.703125 39.890625 
Q 22.75 39.890625 18.8125 39.015625 
Q 14.890625 38.140625 10.796875 36.28125 
z
" id="DejaVuSans-35"/>
     <path d="M 8.203125 72.90625 
L 55.078125 72.90625 
L 55.078125 68.703125 
L 28.609375 0 
L 18.3125 0 
L 43.21875 64.59375 
L 8.203125 64.59375 
z
" id="DejaVuSans-37"/>
     <path d="M 46 62.703125 
L 46 35.5 
L 73.1875 35.5 
L 73.1875 27.203125 
L 46 27.203125 
L 46 0 
L 37.796875 0 
L 37.796875 27.203125 
L 10.59375 27.203125 
L 10.59375 35.5 
L 37.796875 35.5 
L 37.796875 62.703125 
z
" id="DejaVuSans-2b"/>
     <path d="M 4.890625 31.390625 
L 31.203125 31.390625 
L 31.203125 23.390625 
L 4.890625 23.390625 
z
" id="DejaVuSans-2d"/>
     <path d="M 18.3125 70.21875 
L 18.3125 54.6875 
L 36.8125 54.6875 
L 36.8125 47.703125 
L 18.3125 47.703125 
L 18.3125 18.015625 
Q 18.3125 11.328125 20.140625 9.421875 
Q 21.96875 7.515625 27.59375 7.515625 
L 36.8125 7.515625 
L 36.8125 0 
L 27.59375 0 
Q 17.1875 0 13.234375 3.875 
Q 9.28125 7.765625 9.28125 18.015625 
L 9.28125 47.703125 
L 2.6875 47.703125 
L 2.6875 54.6875 
L 9.28125 54.6875 
L 9.28125 70.21875 
z
" id="DejaVuSans-74"/>
     <path d="M 9.421875 54.6875 
L 18.40625 54.6875 
L 18.40625 0 
L 9.421875 0 
z
M 9.421875 75.984375 
L 18.40625 75.984375 
L 18.40625 64.59375 
L 9.421875 64.59375 
z
" id="DejaVuSans-69"/>
     <path d="M 52 44.1875 
Q 55.375 50.25 60.0625 53.125 
Q 64.75 56 71.09375 56 
Q 79.640625 56 84.28125 50.015625 
Q 88.921875 44.046875 88.921875 33.015625 
L 88.921875 0 
L 79.890625 0 
L 79.890625 32.71875 
Q 79.890625 40.578125 77.09375 44.375 
Q 74.3125 48.1875 68.609375 48.1875 
Q 61.625 48.1875 57.5625 43.546875 
Q 53.515625 38.921875 53.515625 30.90625 
L 53.515625 0 
L 44.484375 0 
L 44.484375 32.71875 
Q 44.484375 40.625 41.703125 44.40625 
Q 38.921875 48.1875 33.109375 48.1875 
Q 26.21875 48.1875 22.15625 43.53125 
Q 18.109375 38.875 18.109375 30.90625 
L 18.109375 0 
L 9.078125 0 
L 9.078125 54.6875 
L 18.109375 54.6875 
L 18.109375 46.1875 
Q 21.1875 51.21875 25.484375 53.609375 
Q 29.78125 56 35.6875 56 
Q 41.65625 56 45.828125 52.96875 
Q 50 49.953125 52 44.1875 
z
" id="DejaVuSans-6d"/>
     <path d="M 56.203125 29.59375 
L 56.203125 25.203125 
L 14.890625 25.203125 
Q 15.484375 15.921875 20.484375 11.0625 
Q 25.484375 6.203125 34.421875 6.203125 
Q 39.59375 6.203125 44.453125 7.46875 
Q 49.3125 8.734375 54.109375 11.28125 
L 54.109375 2.78125 
Q 49.265625 0.734375 44.1875 -0.34375 
Q 39.109375 -1.421875 33.890625 -1.421875 
Q 20.796875 -1.421875 13.15625 6.1875 
Q 5.515625 13.8125 5.515625 26.8125 
Q 5.515625 40.234375 12.765625 48.109375 
Q 20.015625 56 32.328125 56 
Q 43.359375 56 49.78125 48.890625 
Q 56.203125 41.796875 56.203125 29.59375 
z
M 47.21875 32.234375 
Q 47.125 39.59375 43.09375 43.984375 
Q 39.0625 48.390625 32.421875 48.390625 
Q 24.90625 48.390625 20.390625 44.140625 
Q 15.875 39.890625 15.1875 32.171875 
z
" id="DejaVuSans-65"/>
     <path d="M 54.890625 33.015625 
L 54.890625 0 
L 45.90625 0 
L 45.90625 32.71875 
Q 45.90625 40.484375 42.875 44.328125 
Q 39.84375 48.1875 33.796875 48.1875 
Q 26.515625 48.1875 22.3125 43.546875 
Q 18.109375 38.921875 18.109375 30.90625 
L 18.109375 0 
L 9.078125 0 
L 9.078125 54.6875 
L 18.109375 54.6875 
L 18.109375 46.1875 
Q 21.34375 51.125 25.703125 53.5625 
Q 30.078125 56 35.796875 56 
Q 45.21875 56 50.046875 50.171875 
Q 54.890625 44.34375 54.890625 33.015625 
z
" id="DejaVuSans-6e"/>
    </defs>
    <g transform="translate(99.850313 35.472)scale(0.12 -0.12)">
     <use xlink:href="#DejaVuSans-43"/>
     <use x="69.824219" xlink:href="#DejaVuSans-4c"/>
     <use x="125.537109" xlink:href="#DejaVuSans-2f"/>
     <use x="159.228516" xlink:href="#DejaVuSans-43"/>
     <use x="229.052734" xlink:href="#DejaVuSans-44"/>
     <use x="306.054688" xlink:href="#DejaVuSans-3a"/>
     <use x="339.746094" xlink:href="#DejaVuSans-20"/>
     <use x="371.533203" xlink:href="#DejaVuSans-35"/>
     <use x="435.15625" xlink:href="#DejaVuSans-33"/>
     <use x="498.779297" xlink:href="#DejaVuSans-2e"/>
     <use x="530.566406" xlink:href="#DejaVuSans-37"/>
     <use x="594.189453" xlink:href="#DejaVuSans-37"/>
     <use x="657.8125" xlink:href="#DejaVuSans-2b"/>
     <use x="741.601562" xlink:href="#DejaVuSans-2f"/>
     <use x="775.292969" xlink:href="#DejaVuSans-2d"/>
     <use x="811.376953" xlink:href="#DejaVuSans-33"/>
     <use x="875" xlink:href="#DejaVuSans-2e"/>
     <use x="906.787109" xlink:href="#DejaVuSans-32"/>
     <use x="970.410156" xlink:href="#DejaVuSans-34"/>
     <use x="1034.033203" xlink:href="#DejaVuSans-20"/>
     <use x="1065.820312" xlink:href="#DejaVuSans-20"/>
     <use x="1097.607422" xlink:href="#DejaVuSans-74"/>
     <use x="1136.816406" xlink:href="#DejaVuSans-69"/>
     <use x="1164.599609" xlink:href="#DejaVuSans-6d"/>
     <use x="1262.011719" xlink:href="#DejaVuSans-65"/>
     <use x="1323.535156" xlink:href="#DejaVuSans-3a"/>
     <use x="1357.226562" xlink:href="#DejaVuSans-20"/>
     <use x="1389.013672" xlink:href="#DejaVuSans-32"/>
     <use x="1452.636719" xlink:href="#DejaVuSans-32"/>
     <use x="1516.259766" xlink:href="#DejaVuSans-2e"/>
     <use x="1548.046875" xlink:href="#DejaVuSans-34"/>
     <use x="1611.669922" xlink:href="#DejaVuSans-31"/>
     <use x="1675.292969" xlink:href="#DejaVuSans-2b"/>
     <use x="1759.082031" xlink:href="#DejaVuSans-2f"/>
     <use x="1792.773438" xlink:href="#DejaVuSans-2d"/>
     <use x="1828.857422" xlink:href="#DejaVuSans-30"/>
     <use x="1892.480469" xlink:href="#DejaVuSans-2e"/>
     <use x="1924.267578" xlink:href="#DejaVuSans-34"/>
     <use x="1987.890625" xlink:href="#DejaVuSans-32"/>
     <use x="2051.513672" xlink:href="#DejaVuSans-20"/>
     <use x="2083.300781" xlink:href="#DejaVuSans-6d"/>
     <use x="2180.712891" xlink:href="#DejaVuSans-69"/>
     <use x="2208.496094" xlink:href="#DejaVuSans-6e"/>
    </g>
   </g>
  </g>
 </g>
 <defs>
  <clipPath id="p63a472de17">
   <rect height="266.112" width="357.12" x="57.6" y="41.472"/>
  </clipPath>
 </defs>
</svg>
