<?xml version="1.0" encoding="utf-8" standalone="no"?>
<!DOCTYPE svg PUBLIC "-//W3C//DTD SVG 1.1//EN"
  "http://www.w3.org/Graphics/SVG/1.1/DTD/svg11.dtd">
<!-- Created with matplotlib (http://matplotlib.org/) -->
<svg height="345pt" version="1.1" viewBox="0 0 460 345" width="460pt" xmlns="http://www.w3.org/2000/svg" xmlns:xlink="http://www.w3.org/1999/xlink">
 <defs>
  <style type="text/css">
*{stroke-linecap:butt;stroke-linejoin:round;}
  </style>
 </defs>
 <g id="figure_1">
  <g id="patch_1">
   <path d="M 0 345.6 
L 460.8 345.6 
L 460.8 0 
L 0 0 
z
" style="fill:#ffffff;"/>
  </g>
  <g id="axes_1">
   <g id="patch_2">
    <path d="M 57.6 307.584 
L 414.72 307.584 
L 414.72 41.472 
L 57.6 41.472 
z
" style="fill:#ffffff;"/>
   </g>
   <g id="matplotlib.axis_1">
    <g id="xtick_1">
     <g id="line2d_1">
      <defs>
       <path d="M 0 0 
L 0 3.5 
" id="m873107a6cc" style="stroke:#000000;stroke-width:0.8;"/>
      </defs>
      <g>
       <use style="stroke:#000000;stroke-width:0.8;" x="73.832727" xlink:href="#m873107a6cc" y="307.584"/>
      </g>
     </g>
     <g id="text_1">
      <!-- 0.0 -->
      <defs>
       <path d="M 31.78125 66.40625 
Q 24.171875 66.40625 20.328125 58.90625 
Q 16.5 51.421875 16.5 36.375 
Q 16.5 21.390625 20.328125 13.890625 
Q 24.171875 6.390625 31.78125 6.390625 
Q 39.453125 6.390625 43.28125 13.890625 
Q 47.125 21.390625 47.125 36.375 
Q 47.125 51.421875 43.28125 58.90625 
Q 39.453125 66.40625 31.78125 66.40625 
z
M 31.78125 74.21875 
Q 44.046875 74.21875 50.515625 64.515625 
Q 56.984375 54.828125 56.984375 36.375 
Q 56.984375 17.96875 50.515625 8.265625 
Q 44.046875 -1.421875 31.78125 -1.421875 
Q 19.53125 -1.421875 13.0625 8.265625 
Q 6.59375 17.96875 6.59375 36.375 
Q 6.59375 54.828125 13.0625 64.515625 
Q 19.53125 74.21875 31.78125 74.21875 
z
" id="DejaVuSans-30"/>
       <path d="M 10.6875 12.40625 
L 21 12.40625 
L 21 0 
L 10.6875 0 
z
" id="DejaVuSans-2e"/>
      </defs>
      <g transform="translate(65.881165 322.182437)scale(0.1 -0.1)">
       <use xlink:href="#DejaVuSans-30"/>
       <use x="63.623047" xlink:href="#DejaVuSans-2e"/>
       <use x="95.410156" xlink:href="#DejaVuSans-30"/>
      </g>
     </g>
    </g>
    <g id="xtick_2">
     <g id="line2d_2">
      <g>
       <use style="stroke:#000000;stroke-width:0.8;" x="138.763636" xlink:href="#m873107a6cc" y="307.584"/>
      </g>
     </g>
     <g id="text_2">
      <!-- 0.2 -->
      <defs>
       <path d="M 19.1875 8.296875 
L 53.609375 8.296875 
L 53.609375 0 
L 7.328125 0 
L 7.328125 8.296875 
Q 12.9375 14.109375 22.625 23.890625 
Q 32.328125 33.6875 34.8125 36.53125 
Q 39.546875 41.84375 41.421875 45.53125 
Q 43.3125 49.21875 43.3125 52.78125 
Q 43.3125 58.59375 39.234375 62.25 
Q 35.15625 65.921875 28.609375 65.921875 
Q 23.96875 65.921875 18.8125 64.3125 
Q 13.671875 62.703125 7.8125 59.421875 
L 7.8125 69.390625 
Q 13.765625 71.78125 18.9375 73 
Q 24.125 74.21875 28.421875 74.21875 
Q 39.75 74.21875 46.484375 68.546875 
Q 53.21875 62.890625 53.21875 53.421875 
Q 53.21875 48.921875 51.53125 44.890625 
Q 49.859375 40.875 45.40625 35.40625 
Q 44.1875 33.984375 37.640625 27.21875 
Q 31.109375 20.453125 19.1875 8.296875 
z
" id="DejaVuSans-32"/>
      </defs>
      <g transform="translate(130.812074 322.182437)scale(0.1 -0.1)">
       <use xlink:href="#DejaVuSans-30"/>
       <use x="63.623047" xlink:href="#DejaVuSans-2e"/>
       <use x="95.410156" xlink:href="#DejaVuSans-32"/>
      </g>
     </g>
    </g>
    <g id="xtick_3">
     <g id="line2d_3">
      <g>
       <use style="stroke:#000000;stroke-width:0.8;" x="203.694545" xlink:href="#m873107a6cc" y="307.584"/>
      </g>
     </g>
     <g id="text_3">
      <!-- 0.4 -->
      <defs>
       <path d="M 37.796875 64.3125 
L 12.890625 25.390625 
L 37.796875 25.390625 
z
M 35.203125 72.90625 
L 47.609375 72.90625 
L 47.609375 25.390625 
L 58.015625 25.390625 
L 58.015625 17.1875 
L 47.609375 17.1875 
L 47.609375 0 
L 37.796875 0 
L 37.796875 17.1875 
L 4.890625 17.1875 
L 4.890625 26.703125 
z
" id="DejaVuSans-34"/>
      </defs>
      <g transform="translate(195.742983 322.182437)scale(0.1 -0.1)">
       <use xlink:href="#DejaVuSans-30"/>
       <use x="63.623047" xlink:href="#DejaVuSans-2e"/>
       <use x="95.410156" xlink:href="#DejaVuSans-34"/>
      </g>
     </g>
    </g>
    <g id="xtick_4">
     <g id="line2d_4">
      <g>
       <use style="stroke:#000000;stroke-width:0.8;" x="268.625455" xlink:href="#m873107a6cc" y="307.584"/>
      </g>
     </g>
     <g id="text_4">
      <!-- 0.6 -->
      <defs>
       <path d="M 33.015625 40.375 
Q 26.375 40.375 22.484375 35.828125 
Q 18.609375 31.296875 18.609375 23.390625 
Q 18.609375 15.53125 22.484375 10.953125 
Q 26.375 6.390625 33.015625 6.390625 
Q 39.65625 6.390625 43.53125 10.953125 
Q 47.40625 15.53125 47.40625 23.390625 
Q 47.40625 31.296875 43.53125 35.828125 
Q 39.65625 40.375 33.015625 40.375 
z
M 52.59375 71.296875 
L 52.59375 62.3125 
Q 48.875 64.0625 45.09375 64.984375 
Q 41.3125 65.921875 37.59375 65.921875 
Q 27.828125 65.921875 22.671875 59.328125 
Q 17.53125 52.734375 16.796875 39.40625 
Q 19.671875 43.65625 24.015625 45.921875 
Q 28.375 48.1875 33.59375 48.1875 
Q 44.578125 48.1875 50.953125 41.515625 
Q 57.328125 34.859375 57.328125 23.390625 
Q 57.328125 12.15625 50.6875 5.359375 
Q 44.046875 -1.421875 33.015625 -1.421875 
Q 20.359375 -1.421875 13.671875 8.265625 
Q 6.984375 17.96875 6.984375 36.375 
Q 6.984375 53.65625 15.1875 63.9375 
Q 23.390625 74.21875 37.203125 74.21875 
Q 40.921875 74.21875 44.703125 73.484375 
Q 48.484375 72.75 52.59375 71.296875 
z
" id="DejaVuSans-36"/>
      </defs>
      <g transform="translate(260.673892 322.182437)scale(0.1 -0.1)">
       <use xlink:href="#DejaVuSans-30"/>
       <use x="63.623047" xlink:href="#DejaVuSans-2e"/>
       <use x="95.410156" xlink:href="#DejaVuSans-36"/>
      </g>
     </g>
    </g>
    <g id="xtick_5">
     <g id="line2d_5">
      <g>
       <use style="stroke:#000000;stroke-width:0.8;" x="333.556364" xlink:href="#m873107a6cc" y="307.584"/>
      </g>
     </g>
     <g id="text_5">
      <!-- 0.8 -->
      <defs>
       <path d="M 31.78125 34.625 
Q 24.75 34.625 20.71875 30.859375 
Q 16.703125 27.09375 16.703125 20.515625 
Q 16.703125 13.921875 20.71875 10.15625 
Q 24.75 6.390625 31.78125 6.390625 
Q 38.8125 6.390625 42.859375 10.171875 
Q 46.921875 13.96875 46.921875 20.515625 
Q 46.921875 27.09375 42.890625 30.859375 
Q 38.875 34.625 31.78125 34.625 
z
M 21.921875 38.8125 
Q 15.578125 40.375 12.03125 44.71875 
Q 8.5 49.078125 8.5 55.328125 
Q 8.5 64.0625 14.71875 69.140625 
Q 20.953125 74.21875 31.78125 74.21875 
Q 42.671875 74.21875 48.875 69.140625 
Q 55.078125 64.0625 55.078125 55.328125 
Q 55.078125 49.078125 51.53125 44.71875 
Q 48 40.375 41.703125 38.8125 
Q 48.828125 37.15625 52.796875 32.3125 
Q 56.78125 27.484375 56.78125 20.515625 
Q 56.78125 9.90625 50.3125 4.234375 
Q 43.84375 -1.421875 31.78125 -1.421875 
Q 19.734375 -1.421875 13.25 4.234375 
Q 6.78125 9.90625 6.78125 20.515625 
Q 6.78125 27.484375 10.78125 32.3125 
Q 14.796875 37.15625 21.921875 38.8125 
z
M 18.3125 54.390625 
Q 18.3125 48.734375 21.84375 45.5625 
Q 25.390625 42.390625 31.78125 42.390625 
Q 38.140625 42.390625 41.71875 45.5625 
Q 45.3125 48.734375 45.3125 54.390625 
Q 45.3125 60.0625 41.71875 63.234375 
Q 38.140625 66.40625 31.78125 66.40625 
Q 25.390625 66.40625 21.84375 63.234375 
Q 18.3125 60.0625 18.3125 54.390625 
z
" id="DejaVuSans-38"/>
      </defs>
      <g transform="translate(325.604801 322.182437)scale(0.1 -0.1)">
       <use xlink:href="#DejaVuSans-30"/>
       <use x="63.623047" xlink:href="#DejaVuSans-2e"/>
       <use x="95.410156" xlink:href="#DejaVuSans-38"/>
      </g>
     </g>
    </g>
    <g id="xtick_6">
     <g id="line2d_6">
      <g>
       <use style="stroke:#000000;stroke-width:0.8;" x="398.487273" xlink:href="#m873107a6cc" y="307.584"/>
      </g>
     </g>
     <g id="text_6">
      <!-- 1.0 -->
      <defs>
       <path d="M 12.40625 8.296875 
L 28.515625 8.296875 
L 28.515625 63.921875 
L 10.984375 60.40625 
L 10.984375 69.390625 
L 28.421875 72.90625 
L 38.28125 72.90625 
L 38.28125 8.296875 
L 54.390625 8.296875 
L 54.390625 0 
L 12.40625 0 
z
" id="DejaVuSans-31"/>
      </defs>
      <g transform="translate(390.53571 322.182437)scale(0.1 -0.1)">
       <use xlink:href="#DejaVuSans-31"/>
       <use x="63.623047" xlink:href="#DejaVuSans-2e"/>
       <use x="95.410156" xlink:href="#DejaVuSans-30"/>
      </g>
     </g>
    </g>
   </g>
   <g id="matplotlib.axis_2">
    <g id="ytick_1">
     <g id="line2d_7">
      <defs>
       <path d="M 0 0 
L -3.5 0 
" id="m8c02724ecd" style="stroke:#000000;stroke-width:0.8;"/>
      </defs>
      <g>
       <use style="stroke:#000000;stroke-width:0.8;" x="57.6" xlink:href="#m8c02724ecd" y="292.194247"/>
      </g>
     </g>
     <g id="text_7">
      <!-- −0.3 -->
      <defs>
       <path d="M 10.59375 35.5 
L 73.1875 35.5 
L 73.1875 27.203125 
L 10.59375 27.203125 
z
" id="DejaVuSans-2212"/>
       <path d="M 40.578125 39.3125 
Q 47.65625 37.796875 51.625 33 
Q 55.609375 28.21875 55.609375 21.1875 
Q 55.609375 10.40625 48.1875 4.484375 
Q 40.765625 -1.421875 27.09375 -1.421875 
Q 22.515625 -1.421875 17.65625 -0.515625 
Q 12.796875 0.390625 7.625 2.203125 
L 7.625 11.71875 
Q 11.71875 9.328125 16.59375 8.109375 
Q 21.484375 6.890625 26.8125 6.890625 
Q 36.078125 6.890625 40.9375 10.546875 
Q 45.796875 14.203125 45.796875 21.1875 
Q 45.796875 27.640625 41.28125 31.265625 
Q 36.765625 34.90625 28.71875 34.90625 
L 20.21875 34.90625 
L 20.21875 43.015625 
L 29.109375 43.015625 
Q 36.375 43.015625 40.234375 45.921875 
Q 44.09375 48.828125 44.09375 54.296875 
Q 44.09375 59.90625 40.109375 62.90625 
Q 36.140625 65.921875 28.71875 65.921875 
Q 24.65625 65.921875 20.015625 65.03125 
Q 15.375 64.15625 9.8125 62.3125 
L 9.8125 71.09375 
Q 15.4375 72.65625 20.34375 73.4375 
Q 25.25 74.21875 29.59375 74.21875 
Q 40.828125 74.21875 47.359375 69.109375 
Q 53.90625 64.015625 53.90625 55.328125 
Q 53.90625 49.265625 50.4375 45.09375 
Q 46.96875 40.921875 40.578125 39.3125 
z
" id="DejaVuSans-33"/>
      </defs>
      <g transform="translate(26.317187 295.993466)scale(0.1 -0.1)">
       <use xlink:href="#DejaVuSans-2212"/>
       <use x="83.789062" xlink:href="#DejaVuSans-30"/>
       <use x="147.412109" xlink:href="#DejaVuSans-2e"/>
       <use x="179.199219" xlink:href="#DejaVuSans-33"/>
      </g>
     </g>
    </g>
    <g id="ytick_2">
     <g id="line2d_8">
      <g>
       <use style="stroke:#000000;stroke-width:0.8;" x="57.6" xlink:href="#m8c02724ecd" y="259.728792"/>
      </g>
     </g>
     <g id="text_8">
      <!-- −0.2 -->
      <g transform="translate(26.317187 263.528011)scale(0.1 -0.1)">
       <use xlink:href="#DejaVuSans-2212"/>
       <use x="83.789062" xlink:href="#DejaVuSans-30"/>
       <use x="147.412109" xlink:href="#DejaVuSans-2e"/>
       <use x="179.199219" xlink:href="#DejaVuSans-32"/>
      </g>
     </g>
    </g>
    <g id="ytick_3">
     <g id="line2d_9">
      <g>
       <use style="stroke:#000000;stroke-width:0.8;" x="57.6" xlink:href="#m8c02724ecd" y="227.263338"/>
      </g>
     </g>
     <g id="text_9">
      <!-- −0.1 -->
      <g transform="translate(26.317187 231.062557)scale(0.1 -0.1)">
       <use xlink:href="#DejaVuSans-2212"/>
       <use x="83.789062" xlink:href="#DejaVuSans-30"/>
       <use x="147.412109" xlink:href="#DejaVuSans-2e"/>
       <use x="179.199219" xlink:href="#DejaVuSans-31"/>
      </g>
     </g>
    </g>
    <g id="ytick_4">
     <g id="line2d_10">
      <g>
       <use style="stroke:#000000;stroke-width:0.8;" x="57.6" xlink:href="#m8c02724ecd" y="194.797883"/>
      </g>
     </g>
     <g id="text_10">
      <!-- 0.0 -->
      <g transform="translate(34.696875 198.597102)scale(0.1 -0.1)">
       <use xlink:href="#DejaVuSans-30"/>
       <use x="63.623047" xlink:href="#DejaVuSans-2e"/>
       <use x="95.410156" xlink:href="#DejaVuSans-30"/>
      </g>
     </g>
    </g>
    <g id="ytick_5">
     <g id="line2d_11">
      <g>
       <use style="stroke:#000000;stroke-width:0.8;" x="57.6" xlink:href="#m8c02724ecd" y="162.332429"/>
      </g>
     </g>
     <g id="text_11">
      <!-- 0.1 -->
      <g transform="translate(34.696875 166.131648)scale(0.1 -0.1)">
       <use xlink:href="#DejaVuSans-30"/>
       <use x="63.623047" xlink:href="#DejaVuSans-2e"/>
       <use x="95.410156" xlink:href="#DejaVuSans-31"/>
      </g>
     </g>
    </g>
    <g id="ytick_6">
     <g id="line2d_12">
      <g>
       <use style="stroke:#000000;stroke-width:0.8;" x="57.6" xlink:href="#m8c02724ecd" y="129.866974"/>
      </g>
     </g>
     <g id="text_12">
      <!-- 0.2 -->
      <g transform="translate(34.696875 133.666193)scale(0.1 -0.1)">
       <use xlink:href="#DejaVuSans-30"/>
       <use x="63.623047" xlink:href="#DejaVuSans-2e"/>
       <use x="95.410156" xlink:href="#DejaVuSans-32"/>
      </g>
     </g>
    </g>
    <g id="ytick_7">
     <g id="line2d_13">
      <g>
       <use style="stroke:#000000;stroke-width:0.8;" x="57.6" xlink:href="#m8c02724ecd" y="97.40152"/>
      </g>
     </g>
     <g id="text_13">
      <!-- 0.3 -->
      <g transform="translate(34.696875 101.200738)scale(0.1 -0.1)">
       <use xlink:href="#DejaVuSans-30"/>
       <use x="63.623047" xlink:href="#DejaVuSans-2e"/>
       <use x="95.410156" xlink:href="#DejaVuSans-33"/>
      </g>
     </g>
    </g>
    <g id="ytick_8">
     <g id="line2d_14">
      <g>
       <use style="stroke:#000000;stroke-width:0.8;" x="57.6" xlink:href="#m8c02724ecd" y="64.936065"/>
      </g>
     </g>
     <g id="text_14">
      <!-- 0.4 -->
      <g transform="translate(34.696875 68.735284)scale(0.1 -0.1)">
       <use xlink:href="#DejaVuSans-30"/>
       <use x="63.623047" xlink:href="#DejaVuSans-2e"/>
       <use x="95.410156" xlink:href="#DejaVuSans-34"/>
      </g>
     </g>
    </g>
   </g>
   <g id="line2d_15">
    <path clip-path="url(#p9fb07feb4f)" d="M 398.487273 194.797883 
L 387.196319 190.297378 
L 376.983606 186.407413 
L 367.598363 183.011263 
L 358.924254 180.048305 
L 350.861876 177.465437 
L 343.297803 175.207179 
L 332.650362 172.319265 
L 322.514556 169.894067 
L 312.515209 167.793549 
L 302.254131 165.889683 
L 287.453733 163.437451 
L 252.448988 157.822165 
L 237.214753 155.124756 
L 208.203393 149.849888 
L 196.502276 147.90686 
L 184.969515 146.197646 
L 173.768178 144.798118 
L 163.014623 143.762965 
L 152.836099 143.132014 
L 143.345223 142.9241 
L 134.629429 143.135049 
L 126.740628 143.738813 
L 119.68569 144.693224 
L 113.422583 145.950733 
L 107.919267 147.455203 
L 103.084462 149.164994 
L 98.863132 151.032551 
L 95.13993 153.047479 
L 91.848243 155.195424 
L 88.925158 157.474723 
L 86.315154 159.896427 
L 83.972676 162.483833 
L 81.862846 165.273421 
L 79.962692 168.316211 
L 78.263487 171.678705 
L 76.772221 175.447775 
L 75.51634 179.733474 
L 74.996976 182.087434 
L 74.549683 184.670617 
L 74.189108 187.541802 
L 73.936875 190.80643 
L 73.896605 195.70016 
L 74.165676 196.775113 
L 74.647173 197.760911 
L 75.344822 198.65855 
L 76.222426 199.437407 
L 77.279867 200.118593 
L 78.446633 200.681694 
L 80.281919 201.324117 
L 82.082499 201.767802 
L 84.70327 202.198982 
L 88.467682 202.525899 
L 93.983101 202.612531 
L 97.554421 202.501904 
L 101.704299 202.25563 
L 106.434013 201.856042 
L 117.678576 200.547415 
L 131.074376 198.561022 
L 146.272297 195.976448 
L 171.588062 191.289101 
L 206.945256 184.657105 
L 223.747974 181.72053 
L 239.447974 179.253648 
L 253.820512 177.35746 
L 267.08483 175.998455 
L 279.377144 175.125417 
L 290.804402 174.693103 
L 301.474444 174.659671 
L 311.494877 174.988159 
L 320.971883 175.64767 
L 330.009277 176.614146 
L 338.708101 177.870718 
L 347.166913 179.407706 
L 355.482723 181.222355 
L 363.752314 183.318331 
L 372.073613 185.70489 
L 380.546739 188.395512 
L 389.274542 191.405823 
L 398.487273 194.797883 
L 398.487273 194.797883 
" style="fill:none;opacity:0.1;stroke:#000000;stroke-linecap:square;stroke-width:1.5;"/>
   </g>
   <g id="line2d_16">
    <path clip-path="url(#p9fb07feb4f)" d="M 398.487273 194.797883 
L 375.737731 185.944544 
L 361.570352 180.707328 
L 353.211457 177.800393 
L 345.554272 175.305829 
L 338.430466 173.16521 
L 331.697696 171.329668 
L 325.20386 169.751583 
L 318.812365 168.393799 
L 312.381066 167.225528 
L 305.769299 166.224748 
L 298.833854 165.376973 
L 291.423185 164.673544 
L 283.38038 164.110433 
L 274.538458 163.68571 
L 264.74166 163.397922 
L 253.83018 163.242568 
L 235.321168 163.249174 
L 221.930096 163.435572 
L 208.004987 163.792463 
L 193.80113 164.338942 
L 179.574185 165.091346 
L 165.579776 166.062104 
L 152.075065 167.257675 
L 139.315794 168.675627 
L 127.539452 170.302182 
L 116.964412 172.106978 
L 107.789139 174.034371 
L 100.106566 176.013742 
L 93.915449 177.961375 
L 89.085891 179.804835 
L 85.445261 181.476005 
L 82.691889 182.981401 
L 80.638919 184.306268 
L 78.473584 185.997783 
L 77.001864 187.433226 
L 75.702067 189.063456 
L 74.858729 190.49999 
L 74.30153 191.861746 
L 73.943959 193.35161 
L 73.83538 194.936759 
L 73.987912 195.807121 
L 74.358026 196.56097 
L 74.954327 197.236283 
L 75.82567 197.855216 
L 77.017584 198.405987 
L 78.253528 198.792063 
L 80.440484 199.221718 
L 82.839676 199.472772 
L 86.691544 199.595447 
L 92.613906 199.393078 
L 101.180129 198.635284 
L 112.457968 197.180473 
L 126.124777 195.041391 
L 141.734573 192.337341 
L 193.527428 183.073885 
L 209.815011 180.466951 
L 224.755747 178.404757 
L 238.138018 176.969735 
L 250.327967 176.095589 
L 261.645855 175.707541 
L 272.378329 175.75047 
L 282.807658 176.188114 
L 293.217846 177.003355 
L 303.893441 178.195156 
L 315.145625 179.775641 
L 327.271465 181.756033 
L 347.780826 185.478054 
L 389.071147 193.14195 
L 398.487273 194.797883 
L 398.487273 194.797883 
" style="fill:none;opacity:0.1;stroke:#000000;stroke-linecap:square;stroke-width:1.5;"/>
   </g>
   <g id="line2d_17">
    <path clip-path="url(#p9fb07feb4f)" d="M 398.487273 194.797883 
L 379.35811 188.382201 
L 363.034184 183.115341 
L 349.008052 178.809368 
L 336.833981 175.296582 
L 326.061688 172.410448 
L 316.231326 169.989335 
L 306.88034 167.882801 
L 294.336075 165.320845 
L 276.918669 162.058971 
L 251.846803 157.394181 
L 208.993153 149.164515 
L 197.622218 147.249967 
L 186.347379 145.576918 
L 175.30018 144.210984 
L 164.62393 143.207324 
L 154.463574 142.605211 
L 144.934269 142.422895 
L 136.122305 142.658184 
L 128.085125 143.289747 
L 120.879562 144.274789 
L 114.459682 145.567605 
L 108.777174 147.120135 
L 103.802258 148.874673 
L 99.431629 150.800478 
L 95.579262 152.876279 
L 92.179192 155.085074 
L 89.172809 157.418341 
L 86.493744 159.891626 
L 84.093262 162.529271 
L 81.937661 165.364322 
L 80.004324 168.443527 
L 78.283221 171.829898 
L 76.779698 175.605893 
L 75.518893 179.876415 
L 74.997273 182.221056 
L 74.55155 184.77075 
L 74.189119 187.625914 
L 73.936477 190.862293 
L 73.902964 195.78371 
L 74.19028 196.930098 
L 74.698894 197.973929 
L 75.436719 198.924889 
L 76.35927 199.743101 
L 77.461024 200.451104 
L 78.663944 201.029705 
L 80.510815 201.675505 
L 82.303051 202.118849 
L 84.872489 202.546848 
L 88.529776 202.875073 
L 93.855805 202.975836 
L 97.26746 202.881211 
L 101.262777 202.65667 
L 105.824226 202.284392 
L 116.673519 201.048891 
L 129.666033 199.151519 
L 144.49592 196.665063 
L 169.413218 192.134321 
L 195.628323 187.327073 
L 212.638388 184.384138 
L 228.864853 181.84063 
L 243.981562 179.828365 
L 251.077349 179.04674 
L 264.542706 177.898697 
L 277.16527 177.247174 
L 289.020945 177.036296 
L 300.184443 177.214993 
L 310.729872 177.737172 
L 320.730501 178.561801 
L 330.258811 179.65279 
L 339.386942 180.978717 
L 348.187632 182.512421 
L 356.735792 184.230461 
L 365.110846 186.112418 
L 377.544485 189.202935 
L 398.487273 194.797883 
L 398.487273 194.797883 
" style="fill:none;opacity:0.1;stroke:#000000;stroke-linecap:square;stroke-width:1.5;"/>
   </g>
   <g id="line2d_18">
    <path clip-path="url(#p9fb07feb4f)" d="M 398.487273 194.797883 
L 356.274152 179.556877 
L 346.988653 176.512281 
L 338.456693 173.979124 
L 330.203808 171.828796 
L 321.793704 169.964749 
L 315.884295 168.846931 
L 309.579434 167.813633 
L 302.7342 166.855842 
L 295.216448 165.970574 
L 286.863413 165.153732 
L 277.54298 164.405402 
L 261.428374 163.405595 
L 242.785911 162.580695 
L 229.346318 162.185775 
L 215.38184 161.957696 
L 201.137947 161.930466 
L 186.856123 162.134743 
L 172.777922 162.596649 
L 159.150476 163.33531 
L 146.210914 164.360267 
L 134.179225 165.668434 
L 123.278482 167.235829 
L 113.666064 169.019441 
L 105.443934 170.953684 
L 98.637171 172.95451 
L 93.151989 174.942969 
L 88.839782 176.846968 
L 85.465531 178.641499 
L 82.886783 180.27595 
L 80.868162 181.787322 
L 79.282883 183.182611 
L 77.507183 185.084198 
L 76.226957 186.831171 
L 75.300688 188.47052 
L 74.633259 190.063238 
L 74.145367 191.798037 
L 73.926382 193.139099 
L 73.838403 195.046654 
L 74.019651 196.165717 
L 74.397074 197.081983 
L 74.949991 197.886963 
L 75.830269 198.734351 
L 76.771603 199.374248 
L 78.289447 200.112086 
L 80.198268 200.751303 
L 82.179974 201.211595 
L 85.087407 201.650972 
L 89.542596 201.980547 
L 92.485822 202.045623 
L 95.990848 202.010278 
L 100.140305 201.846857 
L 104.90021 201.534905 
L 110.257084 201.061396 
L 122.702604 199.605029 
L 137.078713 197.510223 
L 152.911006 194.886517 
L 169.725349 191.88223 
L 227.415643 181.311536 
L 240.627214 179.19206 
L 251.630922 177.708564 
L 260.81364 176.773475 
L 268.62238 176.27255 
L 275.441831 176.114146 
L 281.638699 176.233888 
L 287.530637 176.598714 
L 293.434251 177.206045 
L 299.683427 178.081954 
L 306.701953 179.28332 
L 319.765611 181.839416 
L 336.018051 185.076951 
L 348.393726 187.375374 
L 362.590621 189.775515 
L 379.081343 192.254829 
L 398.487273 194.797883 
L 398.487273 194.797883 
" style="fill:none;opacity:0.1;stroke:#000000;stroke-linecap:square;stroke-width:1.5;"/>
   </g>
   <g id="line2d_19">
    <path clip-path="url(#p9fb07feb4f)" d="M 398.487273 194.797883 
L 376.825266 185.40277 
L 346.444727 172.156753 
L 336.114675 167.930589 
L 326.791399 164.410922 
L 320.910403 162.38074 
L 315.155313 160.558103 
L 309.411399 158.910935 
L 303.56187 157.412558 
L 297.492072 156.043784 
L 291.085486 154.791866 
L 284.221233 153.649597 
L 276.762785 152.613124 
L 268.584604 151.684805 
L 259.552033 150.868214 
L 249.534647 150.168148 
L 238.582623 149.605061 
L 226.908433 149.216512 
L 214.717349 149.036803 
L 202.2091 149.096318 
L 189.588436 149.421105 
L 177.046668 150.032253 
L 164.79064 150.943146 
L 152.994638 152.160205 
L 141.858217 153.675079 
L 131.527992 155.469603 
L 122.139069 157.508845 
L 113.792807 159.741169 
L 106.539887 162.102056 
L 100.365276 164.524507 
L 95.180137 166.95701 
L 90.91922 169.33047 
L 87.403137 171.643379 
L 84.547562 173.853511 
L 82.220882 175.967188 
L 80.312005 178.004175 
L 78.743285 179.979198 
L 77.460638 181.899916 
L 76.41361 183.789616 
L 75.561619 185.684574 
L 74.885686 187.606072 
L 74.372803 189.589819 
L 74.001586 191.850115 
L 73.836795 194.985938 
L 73.977978 195.890913 
L 74.355932 196.809607 
L 74.990872 197.694703 
L 75.763145 198.427575 
L 76.763956 199.130648 
L 77.953951 199.771951 
L 79.920577 200.570302 
L 81.99349 201.199836 
L 85.065147 201.889431 
L 89.779751 202.600183 
L 96.543456 203.180581 
L 100.830175 203.374179 
L 105.70245 203.477418 
L 117.185547 203.368023 
L 130.716825 202.806005 
L 145.906468 201.80695 
L 162.32343 200.425819 
L 179.526642 198.739695 
L 205.876984 195.831341 
L 239.827848 191.744905 
L 275.232985 187.475035 
L 291.843793 185.730134 
L 301.409047 184.915815 
L 310.034618 184.366323 
L 317.95377 184.064493 
L 325.387459 183.995783 
L 332.551101 184.152853 
L 339.649106 184.539077 
L 346.87863 185.169835 
L 354.440466 186.073172 
L 362.547963 187.290031 
L 371.414805 188.870014 
L 381.265228 190.868659 
L 392.333569 193.343448 
L 398.487273 194.797883 
L 398.487273 194.797883 
" style="fill:none;opacity:0.1;stroke:#000000;stroke-linecap:square;stroke-width:1.5;"/>
   </g>
   <g id="line2d_20">
    <path clip-path="url(#p9fb07feb4f)" d="M 398.487273 194.797883 
L 376.96929 188.279699 
L 358.89052 182.593851 
L 338.931674 176.080076 
L 305.962152 165.179774 
L 297.629245 162.653184 
L 289.701367 160.460078 
L 281.629119 158.471564 
L 272.866408 156.584469 
L 262.856967 154.720487 
L 251.020756 152.816351 
L 236.98999 150.851983 
L 226.670538 149.588131 
L 215.807781 148.435493 
L 204.574221 147.451584 
L 193.157433 146.690873 
L 181.725892 146.200501 
L 170.462135 146.020653 
L 159.535743 146.180506 
L 149.098815 146.696589 
L 139.294468 147.570157 
L 130.242748 148.785123 
L 122.03078 150.308215 
L 114.701904 152.092831 
L 108.247072 154.087865 
L 102.624669 156.241864 
L 97.801253 158.49175 
L 93.654948 160.81571 
L 90.095857 163.19219 
L 87.058929 165.594488 
L 84.45811 168.025445 
L 82.218817 170.502243 
L 80.29034 173.041435 
L 78.633785 175.667455 
L 77.222221 178.412627 
L 76.040725 181.318708 
L 75.087376 184.439805 
L 74.372639 187.866869 
L 74.099562 189.871175 
L 73.9086 192.138898 
L 73.916872 195.521108 
L 74.221921 196.272278 
L 74.727687 196.915669 
L 75.404074 197.455508 
L 76.479002 198.014004 
L 77.856889 198.473995 
L 79.759751 198.864588 
L 82.004715 199.117985 
L 85.539437 199.252883 
L 91.258271 199.082073 
L 95.115187 198.801697 
L 99.732127 198.351434 
L 111.167757 196.891488 
L 125.296852 194.700719 
L 141.636522 191.910052 
L 187.409075 183.907665 
L 205.478371 181.030524 
L 222.643907 178.636307 
L 230.741962 177.66894 
L 238.463384 176.872594 
L 245.871009 176.240611 
L 253.015504 175.760617 
L 259.919677 175.42348 
L 266.601833 175.22089 
L 273.083284 175.144975 
L 279.385461 175.188577 
L 291.529726 175.609049 
L 303.194531 176.438376 
L 314.540149 177.643062 
L 325.724655 179.198446 
L 336.916007 181.088008 
L 348.277797 183.297715 
L 359.98509 185.813603 
L 378.59954 190.114954 
L 398.487273 194.797883 
L 398.487273 194.797883 
" style="fill:none;opacity:0.1;stroke:#000000;stroke-linecap:square;stroke-width:1.5;"/>
   </g>
   <g id="line2d_21">
    <path clip-path="url(#p9fb07feb4f)" d="M 398.487273 194.797883 
L 384.680129 189.938053 
L 372.370333 185.925363 
L 361.197204 182.604319 
L 350.986687 179.887968 
L 341.556676 177.691104 
L 332.728038 175.936727 
L 324.327529 174.558726 
L 316.184325 173.502306 
L 308.12369 172.723601 
L 299.972318 172.189523 
L 291.542616 171.874437 
L 282.639333 171.757573 
L 273.063044 171.817815 
L 256.985848 172.177075 
L 173.359528 174.641774 
L 158.846694 175.311024 
L 144.954538 176.131391 
L 131.969898 177.119109 
L 120.174539 178.276471 
L 109.827921 179.58488 
L 101.122206 180.999923 
L 94.151386 182.448128 
L 88.840441 183.844347 
L 84.955165 185.118033 
L 82.178746 186.232679 
L 79.41791 187.616884 
L 77.708087 188.706879 
L 76.286702 189.862085 
L 75.233324 191.004897 
L 74.505005 192.127806 
L 74.062338 193.21427 
L 73.854426 194.304113 
L 73.845791 195.303803 
L 74.020581 196.65513 
L 74.391727 197.897795 
L 75.020392 199.151784 
L 75.732022 200.128721 
L 76.706958 201.119263 
L 78.106354 202.168735 
L 79.628967 203.023464 
L 81.852995 203.949162 
L 83.969255 204.598685 
L 86.838317 205.238688 
L 90.849438 205.816756 
L 96.296132 206.207971 
L 99.680622 206.289545 
L 103.53823 206.268839 
L 107.87415 206.129287 
L 112.680996 205.858704 
L 123.699571 204.892793 
L 136.332981 203.366992 
L 150.274515 201.339878 
L 165.176611 198.914408 
L 188.571904 194.815293 
L 218.759306 189.48547 
L 231.958367 187.339815 
L 243.426284 185.703429 
L 253.246867 184.578115 
L 261.819768 183.868334 
L 269.429092 183.496357 
L 276.35851 183.400096 
L 282.857801 183.53679 
L 289.180027 183.881931 
L 295.591309 184.428917 
L 302.383275 185.185437 
L 314.03632 186.742706 
L 332.642302 189.322646 
L 342.923408 190.595142 
L 354.304211 191.816979 
L 367.116149 192.953934 
L 381.676845 193.962288 
L 398.487273 194.797883 
L 398.487273 194.797883 
" style="fill:none;opacity:0.1;stroke:#000000;stroke-linecap:square;stroke-width:1.5;"/>
   </g>
   <g id="line2d_22">
    <path clip-path="url(#p9fb07feb4f)" d="M 398.487273 194.797883 
L 380.670434 189.694988 
L 365.348526 185.523184 
L 352.010657 182.106958 
L 340.226368 179.297108 
L 329.559955 176.948952 
L 316.305252 174.298188 
L 303.164054 171.91266 
L 261.123076 164.543153 
L 241.766865 160.802472 
L 213.206841 155.196943 
L 201.484507 153.089449 
L 189.813946 151.191217 
L 178.359089 149.579071 
L 167.265009 148.314636 
L 156.670512 147.444555 
L 146.708482 146.997366 
L 137.490992 146.979432 
L 129.098768 147.373866 
L 121.569419 148.143432 
L 114.888054 149.239093 
L 109.008867 150.607559 
L 103.904101 152.183949 
L 99.452794 153.932277 
L 95.565516 155.822033 
L 92.170889 157.827173 
L 89.201971 159.931313 
L 86.575396 162.148968 
L 84.24025 164.493173 
L 82.156268 166.987349 
L 80.293966 169.666078 
L 78.63484 172.577386 
L 77.172726 175.786307 
L 75.917086 179.378905 
L 74.898441 183.46566 
L 74.496734 185.724751 
L 74.161808 188.310445 
L 73.928548 191.238079 
L 73.916649 195.590233 
L 74.207809 196.402117 
L 74.750755 197.189225 
L 75.550944 197.90467 
L 76.571687 198.518071 
L 78.055102 199.126126 
L 80.055233 199.66579 
L 82.256488 200.046642 
L 85.765231 200.380153 
L 91.208938 200.505152 
L 94.868373 200.420218 
L 99.225852 200.198581 
L 104.318517 199.816422 
L 110.089604 199.264013 
L 123.578646 197.636894 
L 139.250051 195.378118 
L 156.61928 192.618062 
L 221.66912 181.889713 
L 238.513099 179.43551 
L 253.636927 177.554299 
L 267.036579 176.271934 
L 279.023212 175.51069 
L 289.829993 175.200441 
L 299.680611 175.28015 
L 308.793795 175.700777 
L 317.381286 176.427715 
L 325.64899 177.441762 
L 333.801745 178.738957 
L 342.050346 180.329403 
L 350.617925 182.234247 
L 359.74895 184.480948 
L 375.070669 188.536687 
L 398.487273 194.797883 
L 398.487273 194.797883 
" style="fill:none;opacity:0.1;stroke:#000000;stroke-linecap:square;stroke-width:1.5;"/>
   </g>
   <g id="line2d_23">
    <path clip-path="url(#p9fb07feb4f)" d="M 398.487273 194.797883 
L 383.854639 189.819113 
L 370.853822 185.630732 
L 359.179178 182.118773 
L 348.644676 179.208203 
L 339.067592 176.824022 
L 330.251798 174.890179 
L 322.009173 173.338635 
L 314.15986 172.11128 
L 306.520997 171.159564 
L 298.91413 170.446319 
L 291.14979 169.943444 
L 283.037974 169.631013 
L 274.377166 169.492943 
L 259.89692 169.575221 
L 236.761994 170.081541 
L 202.457393 171.046716 
L 180.817749 171.901679 
L 166.513948 172.640098 
L 152.627985 173.536761 
L 139.436781 174.604455 
L 127.213694 175.845613 
L 116.215951 177.247492 
L 106.681231 178.773455 
L 98.751284 180.364946 
L 92.471811 181.938688 
L 87.698447 183.420461 
L 84.206919 184.746572 
L 81.652253 185.917312 
L 79.145474 187.330704 
L 77.518153 188.482429 
L 76.142104 189.719489 
L 75.112564 190.96013 
L 74.404086 192.196716 
L 73.983743 193.442002 
L 73.839054 194.517153 
L 73.892565 195.533403 
L 74.176773 196.50771 
L 74.639338 197.340935 
L 75.401433 198.225578 
L 76.330425 198.984601 
L 77.549884 199.72671 
L 79.012681 200.405495 
L 81.394918 201.227302 
L 83.864836 201.853208 
L 87.412692 202.503016 
L 92.480775 203.108549 
L 99.380457 203.553271 
L 108.257351 203.724846 
L 119.008999 203.550454 
L 131.402776 203.011575 
L 145.144899 202.131641 
L 159.899557 200.962567 
L 183.222394 198.815715 
L 256.930472 191.643245 
L 275.338773 190.266913 
L 286.94277 189.596877 
L 298.175751 189.130538 
L 309.174786 188.873072 
L 320.081483 188.831053 
L 331.035785 189.013823 
L 342.176312 189.434073 
L 353.64356 190.108243 
L 365.575453 191.056175 
L 378.109477 192.300597 
L 391.395855 193.868018 
L 398.487273 194.797883 
L 398.487273 194.797883 
" style="fill:none;opacity:0.1;stroke:#000000;stroke-linecap:square;stroke-width:1.5;"/>
   </g>
   <g id="line2d_24">
    <path clip-path="url(#p9fb07feb4f)" d="M 398.487273 194.797883 
L 388.157258 190.788207 
L 378.548018 187.331452 
L 369.350583 184.312372 
L 360.41638 181.682315 
L 351.593004 179.397324 
L 342.733024 177.423124 
L 333.688083 175.734589 
L 324.307361 174.315898 
L 314.436536 173.159952 
L 303.913186 172.266837 
L 292.576782 171.642981 
L 280.267884 171.29806 
L 266.815302 171.242327 
L 252.071003 171.484732 
L 235.918237 172.029618 
L 218.630521 172.866269 
L 200.664975 173.972823 
L 182.477422 175.322876 
L 164.524031 176.886388 
L 147.259872 178.629558 
L 131.144661 180.512564 
L 116.643666 182.484975 
L 104.204209 184.479729 
L 94.228685 186.399822 
L 86.962305 188.110323 
L 82.176803 189.504241 
L 79.323011 190.528477 
L 76.998562 191.576405 
L 75.446061 192.512117 
L 74.521036 193.313095 
L 74.033236 194.000475 
L 73.84198 194.62739 
L 73.849116 195.442545 
L 74.041154 197.011864 
L 74.440644 198.436681 
L 75.106572 199.843691 
L 75.80925 200.86472 
L 76.709682 201.842427 
L 77.917262 202.8266 
L 79.139039 203.588626 
L 80.774907 204.371735 
L 83.114732 205.180673 
L 85.252004 205.702094 
L 88.086606 206.171182 
L 91.85801 206.516293 
L 96.912223 206.633105 
L 103.553898 206.379601 
L 111.908219 205.625017 
L 122.00366 204.288962 
L 133.709708 202.364842 
L 146.816055 199.912605 
L 168.562372 195.490043 
L 198.872702 189.251748 
L 213.249763 186.499082 
L 226.77063 184.168841 
L 239.430883 182.31438 
L 251.459615 180.891713 
L 262.947453 179.867618 
L 273.972775 179.213636 
L 284.613931 178.904677 
L 294.948902 178.919471 
L 305.055127 179.240803 
L 315.009549 179.855534 
L 324.888811 180.754432 
L 334.769543 181.93179 
L 344.728587 183.384852 
L 354.843089 185.112994 
L 365.19038 187.116684 
L 375.847668 189.396237 
L 386.891606 191.950467 
L 398.487273 194.797883 
L 398.487273 194.797883 
" style="fill:none;opacity:0.1;stroke:#000000;stroke-linecap:square;stroke-width:1.5;"/>
   </g>
   <g id="patch_3">
    <path d="M 57.6 307.584 
L 57.6 41.472 
" style="fill:none;stroke:#000000;stroke-linecap:square;stroke-linejoin:miter;stroke-width:0.8;"/>
   </g>
   <g id="patch_4">
    <path d="M 414.72 307.584 
L 414.72 41.472 
" style="fill:none;stroke:#000000;stroke-linecap:square;stroke-linejoin:miter;stroke-width:0.8;"/>
   </g>
   <g id="patch_5">
    <path d="M 57.6 307.584 
L 414.72 307.584 
" style="fill:none;stroke:#000000;stroke-linecap:square;stroke-linejoin:miter;stroke-width:0.8;"/>
   </g>
   <g id="patch_6">
    <path d="M 57.6 41.472 
L 414.72 41.472 
" style="fill:none;stroke:#000000;stroke-linecap:square;stroke-linejoin:miter;stroke-width:0.8;"/>
   </g>
   <g id="text_15">
    <!-- CL/CD: 142.35+/-20.38  time: 14.88+/-0.08 min -->
    <defs>
     <path d="M 64.40625 67.28125 
L 64.40625 56.890625 
Q 59.421875 61.53125 53.78125 63.8125 
Q 48.140625 66.109375 41.796875 66.109375 
Q 29.296875 66.109375 22.65625 58.46875 
Q 16.015625 50.828125 16.015625 36.375 
Q 16.015625 21.96875 22.65625 14.328125 
Q 29.296875 6.6875 41.796875 6.6875 
Q 48.140625 6.6875 53.78125 8.984375 
Q 59.421875 11.28125 64.40625 15.921875 
L 64.40625 5.609375 
Q 59.234375 2.09375 53.4375 0.328125 
Q 47.65625 -1.421875 41.21875 -1.421875 
Q 24.65625 -1.421875 15.125 8.703125 
Q 5.609375 18.84375 5.609375 36.375 
Q 5.609375 53.953125 15.125 64.078125 
Q 24.65625 74.21875 41.21875 74.21875 
Q 47.75 74.21875 53.53125 72.484375 
Q 59.328125 70.75 64.40625 67.28125 
z
" id="DejaVuSans-43"/>
     <path d="M 9.8125 72.90625 
L 19.671875 72.90625 
L 19.671875 8.296875 
L 55.171875 8.296875 
L 55.171875 0 
L 9.8125 0 
z
" id="DejaVuSans-4c"/>
     <path d="M 25.390625 72.90625 
L 33.6875 72.90625 
L 8.296875 -9.28125 
L 0 -9.28125 
z
" id="DejaVuSans-2f"/>
     <path d="M 19.671875 64.796875 
L 19.671875 8.109375 
L 31.59375 8.109375 
Q 46.6875 8.109375 53.6875 14.9375 
Q 60.6875 21.78125 60.6875 36.53125 
Q 60.6875 51.171875 53.6875 57.984375 
Q 46.6875 64.796875 31.59375 64.796875 
z
M 9.8125 72.90625 
L 30.078125 72.90625 
Q 51.265625 72.90625 61.171875 64.09375 
Q 71.09375 55.28125 71.09375 36.53125 
Q 71.09375 17.671875 61.125 8.828125 
Q 51.171875 0 30.078125 0 
L 9.8125 0 
z
" id="DejaVuSans-44"/>
     <path d="M 11.71875 12.40625 
L 22.015625 12.40625 
L 22.015625 0 
L 11.71875 0 
z
M 11.71875 51.703125 
L 22.015625 51.703125 
L 22.015625 39.3125 
L 11.71875 39.3125 
z
" id="DejaVuSans-3a"/>
     <path id="DejaVuSans-20"/>
     <path d="M 10.796875 72.90625 
L 49.515625 72.90625 
L 49.515625 64.59375 
L 19.828125 64.59375 
L 19.828125 46.734375 
Q 21.96875 47.46875 24.109375 47.828125 
Q 26.265625 48.1875 28.421875 48.1875 
Q 40.625 48.1875 47.75 41.5 
Q 54.890625 34.8125 54.890625 23.390625 
Q 54.890625 11.625 47.5625 5.09375 
Q 40.234375 -1.421875 26.90625 -1.421875 
Q 22.3125 -1.421875 17.546875 -0.640625 
Q 12.796875 0.140625 7.71875 1.703125 
L 7.71875 11.625 
Q 12.109375 9.234375 16.796875 8.0625 
Q 21.484375 6.890625 26.703125 6.890625 
Q 35.15625 6.890625 40.078125 11.328125 
Q 45.015625 15.765625 45.015625 23.390625 
Q 45.015625 31 40.078125 35.4375 
Q 35.15625 39.890625 26.703125 39.890625 
Q 22.75 39.890625 18.8125 39.015625 
Q 14.890625 38.140625 10.796875 36.28125 
z
" id="DejaVuSans-35"/>
     <path d="M 46 62.703125 
L 46 35.5 
L 73.1875 35.5 
L 73.1875 27.203125 
L 46 27.203125 
L 46 0 
L 37.796875 0 
L 37.796875 27.203125 
L 10.59375 27.203125 
L 10.59375 35.5 
L 37.796875 35.5 
L 37.796875 62.703125 
z
" id="DejaVuSans-2b"/>
     <path d="M 4.890625 31.390625 
L 31.203125 31.390625 
L 31.203125 23.390625 
L 4.890625 23.390625 
z
" id="DejaVuSans-2d"/>
     <path d="M 18.3125 70.21875 
L 18.3125 54.6875 
L 36.8125 54.6875 
L 36.8125 47.703125 
L 18.3125 47.703125 
L 18.3125 18.015625 
Q 18.3125 11.328125 20.140625 9.421875 
Q 21.96875 7.515625 27.59375 7.515625 
L 36.8125 7.515625 
L 36.8125 0 
L 27.59375 0 
Q 17.1875 0 13.234375 3.875 
Q 9.28125 7.765625 9.28125 18.015625 
L 9.28125 47.703125 
L 2.6875 47.703125 
L 2.6875 54.6875 
L 9.28125 54.6875 
L 9.28125 70.21875 
z
" id="DejaVuSans-74"/>
     <path d="M 9.421875 54.6875 
L 18.40625 54.6875 
L 18.40625 0 
L 9.421875 0 
z
M 9.421875 75.984375 
L 18.40625 75.984375 
L 18.40625 64.59375 
L 9.421875 64.59375 
z
" id="DejaVuSans-69"/>
     <path d="M 52 44.1875 
Q 55.375 50.25 60.0625 53.125 
Q 64.75 56 71.09375 56 
Q 79.640625 56 84.28125 50.015625 
Q 88.921875 44.046875 88.921875 33.015625 
L 88.921875 0 
L 79.890625 0 
L 79.890625 32.71875 
Q 79.890625 40.578125 77.09375 44.375 
Q 74.3125 48.1875 68.609375 48.1875 
Q 61.625 48.1875 57.5625 43.546875 
Q 53.515625 38.921875 53.515625 30.90625 
L 53.515625 0 
L 44.484375 0 
L 44.484375 32.71875 
Q 44.484375 40.625 41.703125 44.40625 
Q 38.921875 48.1875 33.109375 48.1875 
Q 26.21875 48.1875 22.15625 43.53125 
Q 18.109375 38.875 18.109375 30.90625 
L 18.109375 0 
L 9.078125 0 
L 9.078125 54.6875 
L 18.109375 54.6875 
L 18.109375 46.1875 
Q 21.1875 51.21875 25.484375 53.609375 
Q 29.78125 56 35.6875 56 
Q 41.65625 56 45.828125 52.96875 
Q 50 49.953125 52 44.1875 
z
" id="DejaVuSans-6d"/>
     <path d="M 56.203125 29.59375 
L 56.203125 25.203125 
L 14.890625 25.203125 
Q 15.484375 15.921875 20.484375 11.0625 
Q 25.484375 6.203125 34.421875 6.203125 
Q 39.59375 6.203125 44.453125 7.46875 
Q 49.3125 8.734375 54.109375 11.28125 
L 54.109375 2.78125 
Q 49.265625 0.734375 44.1875 -0.34375 
Q 39.109375 -1.421875 33.890625 -1.421875 
Q 20.796875 -1.421875 13.15625 6.1875 
Q 5.515625 13.8125 5.515625 26.8125 
Q 5.515625 40.234375 12.765625 48.109375 
Q 20.015625 56 32.328125 56 
Q 43.359375 56 49.78125 48.890625 
Q 56.203125 41.796875 56.203125 29.59375 
z
M 47.21875 32.234375 
Q 47.125 39.59375 43.09375 43.984375 
Q 39.0625 48.390625 32.421875 48.390625 
Q 24.90625 48.390625 20.390625 44.140625 
Q 15.875 39.890625 15.1875 32.171875 
z
" id="DejaVuSans-65"/>
     <path d="M 54.890625 33.015625 
L 54.890625 0 
L 45.90625 0 
L 45.90625 32.71875 
Q 45.90625 40.484375 42.875 44.328125 
Q 39.84375 48.1875 33.796875 48.1875 
Q 26.515625 48.1875 22.3125 43.546875 
Q 18.109375 38.921875 18.109375 30.90625 
L 18.109375 0 
L 9.078125 0 
L 9.078125 54.6875 
L 18.109375 54.6875 
L 18.109375 46.1875 
Q 21.34375 51.125 25.703125 53.5625 
Q 30.078125 56 35.796875 56 
Q 45.21875 56 50.046875 50.171875 
Q 54.890625 44.34375 54.890625 33.015625 
z
" id="DejaVuSans-6e"/>
    </defs>
    <g transform="translate(92.215313 35.472)scale(0.12 -0.12)">
     <use xlink:href="#DejaVuSans-43"/>
     <use x="69.824219" xlink:href="#DejaVuSans-4c"/>
     <use x="125.537109" xlink:href="#DejaVuSans-2f"/>
     <use x="159.228516" xlink:href="#DejaVuSans-43"/>
     <use x="229.052734" xlink:href="#DejaVuSans-44"/>
     <use x="306.054688" xlink:href="#DejaVuSans-3a"/>
     <use x="339.746094" xlink:href="#DejaVuSans-20"/>
     <use x="371.533203" xlink:href="#DejaVuSans-31"/>
     <use x="435.15625" xlink:href="#DejaVuSans-34"/>
     <use x="498.779297" xlink:href="#DejaVuSans-32"/>
     <use x="562.402344" xlink:href="#DejaVuSans-2e"/>
     <use x="594.189453" xlink:href="#DejaVuSans-33"/>
     <use x="657.8125" xlink:href="#DejaVuSans-35"/>
     <use x="721.435547" xlink:href="#DejaVuSans-2b"/>
     <use x="805.224609" xlink:href="#DejaVuSans-2f"/>
     <use x="838.916016" xlink:href="#DejaVuSans-2d"/>
     <use x="875" xlink:href="#DejaVuSans-32"/>
     <use x="938.623047" xlink:href="#DejaVuSans-30"/>
     <use x="1002.246094" xlink:href="#DejaVuSans-2e"/>
     <use x="1034.033203" xlink:href="#DejaVuSans-33"/>
     <use x="1097.65625" xlink:href="#DejaVuSans-38"/>
     <use x="1161.279297" xlink:href="#DejaVuSans-20"/>
     <use x="1193.066406" xlink:href="#DejaVuSans-20"/>
     <use x="1224.853516" xlink:href="#DejaVuSans-74"/>
     <use x="1264.0625" xlink:href="#DejaVuSans-69"/>
     <use x="1291.845703" xlink:href="#DejaVuSans-6d"/>
     <use x="1389.257812" xlink:href="#DejaVuSans-65"/>
     <use x="1450.78125" xlink:href="#DejaVuSans-3a"/>
     <use x="1484.472656" xlink:href="#DejaVuSans-20"/>
     <use x="1516.259766" xlink:href="#DejaVuSans-31"/>
     <use x="1579.882812" xlink:href="#DejaVuSans-34"/>
     <use x="1643.505859" xlink:href="#DejaVuSans-2e"/>
     <use x="1675.292969" xlink:href="#DejaVuSans-38"/>
     <use x="1738.916016" xlink:href="#DejaVuSans-38"/>
     <use x="1802.539062" xlink:href="#DejaVuSans-2b"/>
     <use x="1886.328125" xlink:href="#DejaVuSans-2f"/>
     <use x="1920.019531" xlink:href="#DejaVuSans-2d"/>
     <use x="1956.103516" xlink:href="#DejaVuSans-30"/>
     <use x="2019.726562" xlink:href="#DejaVuSans-2e"/>
     <use x="2051.513672" xlink:href="#DejaVuSans-30"/>
     <use x="2115.136719" xlink:href="#DejaVuSans-38"/>
     <use x="2178.759766" xlink:href="#DejaVuSans-20"/>
     <use x="2210.546875" xlink:href="#DejaVuSans-6d"/>
     <use x="2307.958984" xlink:href="#DejaVuSans-69"/>
     <use x="2335.742188" xlink:href="#DejaVuSans-6e"/>
    </g>
   </g>
  </g>
 </g>
 <defs>
  <clipPath id="p9fb07feb4f">
   <rect height="266.112" width="357.12" x="57.6" y="41.472"/>
  </clipPath>
 </defs>
</svg>
